# MagicaVoxel @ Ephtracy

# group
o 

# material
mtllib drzewko-9.mtl
usemtl palette

# normals
vn 0 0 -1
vn 0 0 1
vn -1 0 0
vn 1 0 0
vn 0 -1 0
vn 0 1 0

# texcoords
vt 0.365234 0.5
vt 0.369141 0.5
vt 0.939453 0.5
vt 0.982422 0.5
vt 0.994141 0.5

# verts
v 16.4 -0.1 -11.8
v 18.3 -0.1 -11.8
v 16.9 0.5 -11.8
v 17.8 0.5 -11.8
v 17 0.6 -11.8
v 17.7 0.6 -11.8
v 17.1 0.7 -11.8
v 17.2 0.7 -11.8
v 17.1 0.8 -11.8
v 17.2 0.8 -11.8
v 17.1 0.9 -11.8
v 17.2 0.9 -11.8
v 17.3 0.9 -11.8
v 17.6 0.9 -11.8
v 17.3 1 -11.8
v 17.4 1 -11.8
v 17.4 1.1 -11.8
v 17.5 1.1 -11.8
v 17.1 1.2 -11.8
v 17.2 1.2 -11.8
v 17.5 1.2 -11.8
v 17.6 1.2 -11.8
v 17.2 1.3 -11.8
v 17.5 1.3 -11.8
v 17 1.5 -11.8
v 17.7 1.5 -11.8
v 16.9 1.6 -11.8
v 17.8 1.6 -11.8
v 16.4 2.1 -11.8
v 18.3 2.1 -11.8
v 18.3 -0.1 -11.7
v 18.5 -0.1 -11.7
v 18.3 2.1 -11.7
v 18.5 2.1 -11.7
v 16.2 -0.1 -11.6
v 16.4 -0.1 -11.6
v 16.2 2.1 -11.6
v 16.4 2.1 -11.6
v 18.3 2.1 -11.6
v 16.4 2.3 -11.6
v 18.3 2.3 -11.6
v 16.1 -0.1 -11.5
v 16.2 -0.1 -11.5
v 18.5 -0.1 -11.5
v 18.6 -0.1 -11.5
v 16.1 2.1 -11.5
v 16.2 2.1 -11.5
v 18.3 2.1 -11.5
v 18.4 2.1 -11.5
v 18.5 2.1 -11.5
v 18.6 2.1 -11.5
v 18.3 2.3 -11.5
v 18.4 2.3 -11.5
v 16.3 2.1 -11.4
v 16.4 2.1 -11.4
v 16.3 2.3 -11.4
v 16.4 2.3 -11.4
v 16.6 2.3 -11.4
v 18.1 2.3 -11.4
v 16.6 2.4 -11.4
v 18.1 2.4 -11.4
v 16.5 2.3 -11.3
v 16.6 2.3 -11.3
v 18.1 2.3 -11.3
v 18.2 2.3 -11.3
v 16.5 2.4 -11.3
v 16.6 2.4 -11.3
v 18.1 2.4 -11.3
v 18.2 2.4 -11.3
v 16.6 2.5 -11.3
v 18.1 2.5 -11.3
v 17.1 2.5 -10.5
v 17.5 2.5 -10.5
v 17.1 2.6 -10.5
v 17.5 2.6 -10.5
v 17 2.5 -10.4
v 17.1 2.5 -10.4
v 17.5 2.5 -10.4
v 17.6 2.5 -10.4
v 17 2.6 -10.4
v 17.1 2.6 -10.4
v 17.5 2.6 -10.4
v 17.6 2.6 -10.4
v 17.1 -0.1 -10.1
v 17.5 -0.1 -10.1
v 17.1 2.3 -10.1
v 17.5 2.3 -10.1
v 17.1 2.4 -10.1
v 17.5 2.4 -10.1
v 17.1 -0.1 -10.4
v 17.5 -0.1 -10.4
v 17.1 2.5 -10.4
v 17.5 2.5 -10.4
v 17.1 2.5 -10.3
v 17.5 2.5 -10.3
v 17.1 2.6 -10.3
v 17.5 2.6 -10.3
v 16.5 2.3 -10.1
v 16.6 2.3 -10.1
v 18.1 2.3 -10.1
v 18.2 2.3 -10.1
v 16.5 2.4 -10.1
v 16.6 2.4 -10.1
v 17 2.4 -10.1
v 17.6 2.4 -10.1
v 18.1 2.4 -10.1
v 18.2 2.4 -10.1
v 16.6 2.5 -10.1
v 17 2.5 -10.1
v 17.6 2.5 -10.1
v 18.1 2.5 -10.1
v 16.3 2.1 -10
v 16.4 2.1 -10
v 16.3 2.3 -10
v 16.4 2.3 -10
v 16.6 2.3 -10
v 17.1 2.3 -10
v 17.5 2.3 -10
v 18.1 2.3 -10
v 16.6 2.4 -10
v 17 2.4 -10
v 17.1 2.4 -10
v 17.5 2.4 -10
v 17.6 2.4 -10
v 18.1 2.4 -10
v 17 2.6 -10
v 17.1 2.6 -10
v 17.5 2.6 -10
v 17.6 2.6 -10
v 16.1 -0.1 -9.9
v 16.2 -0.1 -9.9
v 18.5 -0.1 -9.9
v 18.6 -0.1 -9.9
v 16.2 0.2 -9.9
v 16.2 0.3 -9.9
v 16.1 2.1 -9.9
v 16.2 2.1 -9.9
v 18.3 2.1 -9.9
v 18.4 2.1 -9.9
v 18.5 2.1 -9.9
v 18.6 2.1 -9.9
v 18.3 2.3 -9.9
v 18.4 2.3 -9.9
v 16.2 -0.1 -9.8
v 16.4 -0.1 -9.8
v 16.2 0.2 -9.8
v 16.4 0.2 -9.8
v 16.2 0.3 -9.8
v 16.3 0.3 -9.8
v 16.3 0.4 -9.8
v 16.4 0.4 -9.8
v 16.2 2.1 -9.8
v 16.4 2.1 -9.8
v 18.3 2.1 -9.8
v 16.4 2.3 -9.8
v 18.3 2.3 -9.8
v 18.3 -0.1 -9.7
v 18.5 -0.1 -9.7
v 18.3 0.2 -9.7
v 18.3 0.3 -9.7
v 18.4 0.3 -9.7
v 18.4 0.5 -9.7
v 18.5 0.5 -9.7
v 18.4 0.6 -9.7
v 18.5 0.6 -9.7
v 18.3 0.8 -9.7
v 18.4 0.8 -9.7
v 18.3 2.1 -9.7
v 18.5 2.1 -9.7
v 16.4 -0.1 -9.6
v 16.8 -0.1 -9.6
v 17.9 -0.1 -9.6
v 18.3 -0.1 -9.6
v 16.5 0 -9.6
v 16.8 0 -9.6
v 17.9 0 -9.6
v 18 0 -9.6
v 16.4 0.1 -9.6
v 16.5 0.1 -9.6
v 16.6 0.1 -9.6
v 18 0.1 -9.6
v 18.2 0.1 -9.6
v 16.4 0.2 -9.6
v 16.5 0.2 -9.6
v 16.6 0.2 -9.6
v 18.2 0.2 -9.6
v 18.3 0.2 -9.6
v 16.4 0.4 -9.6
v 16.5 0.4 -9.6
v 16.9 0.5 -9.6
v 17 0.5 -9.6
v 17.1 0.5 -9.6
v 17.6 0.5 -9.6
v 17.7 0.5 -9.6
v 17.8 0.5 -9.6
v 16.9 0.6 -9.6
v 17 0.6 -9.6
v 17.1 0.6 -9.6
v 17.6 0.6 -9.6
v 17.7 0.6 -9.6
v 17.8 0.6 -9.6
v 17.1 0.7 -9.6
v 17.2 0.7 -9.6
v 17.7 0.7 -9.6
v 17.8 0.7 -9.6
v 16.9 0.8 -9.6
v 17 0.8 -9.6
v 17.1 0.8 -9.6
v 17.2 0.8 -9.6
v 17.7 0.8 -9.6
v 17.8 0.8 -9.6
v 17.1 0.9 -9.6
v 17.2 0.9 -9.6
v 17.3 0.9 -9.6
v 17.6 0.9 -9.6
v 17.3 1 -9.6
v 17.4 1 -9.6
v 17.7 1 -9.6
v 17.8 1 -9.6
v 17.4 1.1 -9.6
v 17.5 1.1 -9.6
v 17.1 1.2 -9.6
v 17.2 1.2 -9.6
v 17.5 1.2 -9.6
v 17.6 1.2 -9.6
v 17.2 1.3 -9.6
v 17.5 1.3 -9.6
v 17 1.5 -9.6
v 17.7 1.5 -9.6
v 16.9 1.6 -9.6
v 17.8 1.6 -9.6
v 16.4 2.1 -9.6
v 18.3 2.1 -9.6
v 16.1 -0.1 -11.5
v 16.1 2.1 -11.5
v 16.1 -0.1 -9.9
v 16.1 2.1 -9.9
v 16.2 -0.1 -11.6
v 16.2 2.1 -11.6
v 16.2 -0.1 -11.5
v 16.2 2.1 -11.5
v 16.2 -0.1 -9.9
v 16.2 0.2 -9.9
v 16.2 0.3 -9.9
v 16.2 2.1 -9.9
v 16.2 -0.1 -9.8
v 16.2 0.2 -9.8
v 16.2 0.3 -9.8
v 16.2 2.1 -9.8
v 16.3 2.1 -11.4
v 16.3 2.3 -11.4
v 16.3 2.1 -10
v 16.3 2.3 -10
v 16.4 -0.1 -11.8
v 16.4 2.1 -11.8
v 16.4 -0.1 -11.6
v 16.4 2.1 -11.6
v 16.4 2.3 -11.6
v 16.4 2.1 -11.4
v 16.4 2.3 -11.4
v 16.4 2.1 -10
v 16.4 2.3 -10
v 16.4 -0.1 -9.8
v 16.4 0.2 -9.8
v 16.4 0.4 -9.8
v 16.4 2.1 -9.8
v 16.4 2.3 -9.8
v 16.4 -0.1 -9.7
v 16.4 0.1 -9.7
v 16.4 0.2 -9.7
v 16.4 0.4 -9.7
v 16.4 -0.1 -9.6
v 16.4 0.1 -9.6
v 16.4 0.2 -9.6
v 16.4 0.4 -9.6
v 16.4 2.1 -9.6
v 16.5 2.3 -11.3
v 16.5 2.4 -11.3
v 16.5 2.3 -10.1
v 16.5 2.4 -10.1
v 16.6 2.3 -11.4
v 16.6 2.4 -11.4
v 16.6 2.3 -11.3
v 16.6 2.4 -11.3
v 16.6 2.5 -11.3
v 16.6 2.3 -10.1
v 16.6 2.4 -10.1
v 16.6 2.5 -10.1
v 16.6 2.3 -10
v 16.6 2.4 -10
v 17 2.5 -10.4
v 17 2.6 -10.4
v 17 2.4 -10.1
v 17 2.5 -10.1
v 17 2.4 -10
v 17 2.6 -10
v 17.1 2.5 -10.5
v 17.1 2.6 -10.5
v 17.1 2.5 -10.4
v 17.1 2.6 -10.4
v 17.5 -0.1 -10.4
v 17.5 2.5 -10.4
v 17.5 2.5 -10.3
v 17.5 2.6 -10.3
v 17.5 -0.1 -10.1
v 17.5 2.3 -10.1
v 17.5 2.4 -10.1
v 17.5 2.4 -10
v 17.5 2.6 -10
v 17.1 -0.1 -10.4
v 17.1 2.5 -10.4
v 17.1 2.5 -10.3
v 17.1 2.6 -10.3
v 17.1 -0.1 -10.1
v 17.1 2.3 -10.1
v 17.1 2.4 -10.1
v 17.1 2.4 -10
v 17.1 2.6 -10
v 17.5 2.5 -10.5
v 17.5 2.6 -10.5
v 17.5 2.5 -10.4
v 17.5 2.6 -10.4
v 17.6 2.5 -10.4
v 17.6 2.6 -10.4
v 17.6 2.4 -10.1
v 17.6 2.5 -10.1
v 17.6 2.4 -10
v 17.6 2.6 -10
v 18.1 2.3 -11.4
v 18.1 2.4 -11.4
v 18.1 2.3 -11.3
v 18.1 2.4 -11.3
v 18.1 2.5 -11.3
v 18.1 2.3 -10.1
v 18.1 2.4 -10.1
v 18.1 2.5 -10.1
v 18.1 2.3 -10
v 18.1 2.4 -10
v 18.2 2.3 -11.3
v 18.2 2.4 -11.3
v 18.2 2.3 -10.1
v 18.2 2.4 -10.1
v 18.3 -0.1 -11.8
v 18.3 2.1 -11.8
v 18.3 -0.1 -11.7
v 18.3 2.1 -11.7
v 18.3 2.1 -11.6
v 18.3 2.3 -11.6
v 18.3 2.1 -11.5
v 18.3 2.3 -11.5
v 18.3 2.1 -9.9
v 18.3 2.3 -9.9
v 18.3 2.1 -9.8
v 18.3 2.3 -9.8
v 18.3 -0.1 -9.7
v 18.3 0.2 -9.7
v 18.3 0.3 -9.7
v 18.3 0.8 -9.7
v 18.3 2.1 -9.7
v 18.3 -0.1 -9.6
v 18.3 0.2 -9.6
v 18.3 2.1 -9.6
v 18.4 2.1 -11.5
v 18.4 2.3 -11.5
v 18.4 2.1 -9.9
v 18.4 2.3 -9.9
v 18.5 -0.1 -11.7
v 18.5 2.1 -11.7
v 18.5 -0.1 -11.5
v 18.5 2.1 -11.5
v 18.5 -0.1 -9.9
v 18.5 2.1 -9.9
v 18.5 0.5 -9.8
v 18.5 0.6 -9.8
v 18.5 -0.1 -9.7
v 18.5 0.5 -9.7
v 18.5 0.6 -9.7
v 18.5 2.1 -9.7
v 18.6 -0.1 -11.5
v 18.6 2.1 -11.5
v 18.6 -0.1 -9.9
v 18.6 2.1 -9.9
v 16.1 -0.1 -11.5
v 16.1 -0.1 -9.9
v 16.2 -0.1 -11.6
v 16.2 -0.1 -11.5
v 16.2 -0.1 -9.9
v 16.2 -0.1 -9.8
v 16.4 -0.1 -11.8
v 16.4 -0.1 -11.6
v 16.4 -0.1 -9.8
v 16.4 -0.1 -9.7
v 16.4 -0.1 -9.6
v 16.8 -0.1 -9.7
v 16.8 -0.1 -9.6
v 17 -0.1 -11.3
v 17 -0.1 -11
v 17 -0.1 -10.4
v 17 -0.1 -10.1
v 17.1 -0.1 -11.3
v 17.1 -0.1 -11
v 17.1 -0.1 -10.9
v 17.1 -0.1 -10.5
v 17.1 -0.1 -10.4
v 17.1 -0.1 -10.1
v 17.5 -0.1 -11.3
v 17.5 -0.1 -11
v 17.5 -0.1 -10.9
v 17.5 -0.1 -10.5
v 17.5 -0.1 -10.4
v 17.5 -0.1 -10.1
v 17.6 -0.1 -11.3
v 17.6 -0.1 -11
v 17.6 -0.1 -10.4
v 17.6 -0.1 -10.1
v 17.9 -0.1 -9.7
v 17.9 -0.1 -9.6
v 18.3 -0.1 -11.8
v 18.3 -0.1 -11.7
v 18.3 -0.1 -9.7
v 18.3 -0.1 -9.6
v 18.5 -0.1 -11.7
v 18.5 -0.1 -11.5
v 18.5 -0.1 -9.9
v 18.5 -0.1 -9.7
v 18.6 -0.1 -11.5
v 18.6 -0.1 -9.9
v 17.1 2.5 -10.4
v 17.1 2.5 -10.3
v 17.5 2.5 -10.4
v 17.5 2.5 -10.3
v 16.1 2.1 -11.5
v 16.1 2.1 -9.9
v 16.2 2.1 -11.6
v 16.2 2.1 -11.5
v 16.2 2.1 -9.9
v 16.2 2.1 -9.8
v 16.3 2.1 -11.4
v 16.3 2.1 -10
v 16.4 2.1 -11.8
v 16.4 2.1 -11.6
v 16.4 2.1 -11.4
v 16.4 2.1 -10
v 16.4 2.1 -9.8
v 16.4 2.1 -9.6
v 18.3 2.1 -11.8
v 18.3 2.1 -11.7
v 18.3 2.1 -11.6
v 18.3 2.1 -11.5
v 18.3 2.1 -9.9
v 18.3 2.1 -9.8
v 18.3 2.1 -9.7
v 18.3 2.1 -9.6
v 18.4 2.1 -11.5
v 18.4 2.1 -9.9
v 18.5 2.1 -11.7
v 18.5 2.1 -11.5
v 18.5 2.1 -9.9
v 18.5 2.1 -9.7
v 18.6 2.1 -11.5
v 18.6 2.1 -9.9
v 16.3 2.3 -11.4
v 16.3 2.3 -10
v 16.4 2.3 -11.6
v 16.4 2.3 -11.4
v 16.4 2.3 -10
v 16.4 2.3 -9.8
v 16.5 2.3 -11.3
v 16.5 2.3 -10.1
v 16.6 2.3 -11.4
v 16.6 2.3 -11.3
v 16.6 2.3 -10.1
v 16.6 2.3 -10
v 17.1 2.3 -10
v 17.5 2.3 -10
v 18.1 2.3 -11.4
v 18.1 2.3 -11.3
v 18.1 2.3 -10.1
v 18.1 2.3 -10
v 18.2 2.3 -11.3
v 18.2 2.3 -10.1
v 18.3 2.3 -11.6
v 18.3 2.3 -11.5
v 18.3 2.3 -9.9
v 18.3 2.3 -9.8
v 18.4 2.3 -11.5
v 18.4 2.3 -9.9
v 16.5 2.4 -11.3
v 16.5 2.4 -10.1
v 16.6 2.4 -11.4
v 16.6 2.4 -11.3
v 16.6 2.4 -10.1
v 16.6 2.4 -10
v 17 2.4 -10.1
v 17 2.4 -10
v 17.1 2.4 -10.1
v 17.1 2.4 -10
v 17.5 2.4 -10.1
v 17.5 2.4 -10
v 17.6 2.4 -10.1
v 17.6 2.4 -10
v 18.1 2.4 -11.4
v 18.1 2.4 -11.3
v 18.1 2.4 -10.1
v 18.1 2.4 -10
v 18.2 2.4 -11.3
v 18.2 2.4 -10.1
v 16.6 2.5 -11.3
v 16.6 2.5 -10.1
v 17 2.5 -10.4
v 17 2.5 -10.1
v 17.1 2.5 -10.5
v 17.1 2.5 -10.4
v 17.5 2.5 -10.5
v 17.5 2.5 -10.4
v 17.6 2.5 -10.4
v 17.6 2.5 -10.1
v 18.1 2.5 -11.3
v 18.1 2.5 -10.1
v 17 2.6 -10.4
v 17 2.6 -10
v 17.1 2.6 -10.5
v 17.1 2.6 -10.4
v 17.1 2.6 -10.3
v 17.1 2.6 -10
v 17.5 2.6 -10.5
v 17.5 2.6 -10.4
v 17.5 2.6 -10.3
v 17.5 2.6 -10
v 17.6 2.6 -10.4
v 17.6 2.6 -10

# faces
f 3/3/1 2/3/1 1/3/1
f 4/3/1 2/3/1 3/3/1
f 5/4/1 4/4/1 3/4/1
f 6/4/1 4/4/1 5/4/1
f 7/3/1 6/3/1 5/3/1
f 8/3/1 6/3/1 7/3/1
f 9/3/1 7/3/1 5/3/1
f 9/4/1 8/4/1 7/4/1
f 10/3/1 6/3/1 8/3/1
f 10/4/1 8/4/1 9/4/1
f 11/3/1 9/3/1 5/3/1
f 11/3/1 10/3/1 9/3/1
f 12/3/1 6/3/1 10/3/1
f 12/3/1 10/3/1 11/3/1
f 13/3/1 6/3/1 12/3/1
f 14/3/1 6/3/1 13/3/1
f 15/3/1 13/3/1 12/3/1
f 15/4/1 14/4/1 13/4/1
f 16/4/1 14/4/1 15/4/1
f 17/3/1 16/3/1 15/3/1
f 17/4/1 14/4/1 16/4/1
f 18/4/1 14/4/1 17/4/1
f 19/3/1 11/3/1 5/3/1
f 19/4/1 12/4/1 11/4/1
f 20/3/1 18/3/1 17/3/1
f 20/4/1 12/4/1 19/4/1
f 20/3/1 15/3/1 12/3/1
f 20/3/1 17/3/1 15/3/1
f 21/4/1 14/4/1 18/4/1
f 21/3/1 18/3/1 20/3/1
f 22/3/1 6/3/1 14/3/1
f 22/4/1 14/4/1 21/4/1
f 23/3/1 20/3/1 19/3/1
f 23/4/1 21/4/1 20/4/1
f 24/3/1 22/3/1 21/3/1
f 24/4/1 21/4/1 23/4/1
f 25/4/1 5/4/1 3/4/1
f 25/3/1 19/3/1 5/3/1
f 25/3/1 24/3/1 23/3/1
f 25/3/1 23/3/1 19/3/1
f 26/3/1 22/3/1 24/3/1
f 26/3/1 24/3/1 25/3/1
f 26/4/1 4/4/1 6/4/1
f 26/3/1 6/3/1 22/3/1
f 27/3/1 3/3/1 1/3/1
f 27/4/1 25/4/1 3/4/1
f 27/4/1 26/4/1 25/4/1
f 28/4/1 4/4/1 26/4/1
f 28/4/1 26/4/1 27/4/1
f 28/3/1 2/3/1 4/3/1
f 29/3/1 27/3/1 1/3/1
f 29/3/1 28/3/1 27/3/1
f 30/3/1 2/3/1 28/3/1
f 30/3/1 28/3/1 29/3/1
f 33/3/1 32/3/1 31/3/1
f 34/3/1 32/3/1 33/3/1
f 37/3/1 36/3/1 35/3/1
f 38/3/1 36/3/1 37/3/1
f 40/3/1 39/3/1 38/3/1
f 41/3/1 39/3/1 40/3/1
f 46/3/1 43/3/1 42/3/1
f 47/3/1 43/3/1 46/3/1
f 50/3/1 45/3/1 44/3/1
f 51/3/1 45/3/1 50/3/1
f 52/3/1 49/3/1 48/3/1
f 53/3/1 49/3/1 52/3/1
f 56/3/1 55/3/1 54/3/1
f 57/3/1 55/3/1 56/3/1
f 60/3/1 59/3/1 58/3/1
f 61/3/1 59/3/1 60/3/1
f 66/3/1 63/3/1 62/3/1
f 67/3/1 63/3/1 66/3/1
f 68/3/1 65/3/1 64/3/1
f 69/3/1 65/3/1 68/3/1
f 70/3/1 68/3/1 67/3/1
f 71/3/1 68/3/1 70/3/1
f 74/5/1 73/5/1 72/5/1
f 75/5/1 73/5/1 74/5/1
f 80/5/1 77/5/1 76/5/1
f 81/5/1 77/5/1 80/5/1
f 82/5/1 79/5/1 78/5/1
f 83/5/1 79/5/1 82/5/1
f 86/3/1 85/3/1 84/3/1
f 87/3/1 85/3/1 86/3/1
f 88/5/1 87/5/1 86/5/1
f 89/5/1 87/5/1 88/5/1
f 90/5/2 91/5/2 92/5/2
f 92/5/2 91/5/2 93/5/2
f 94/5/2 95/5/2 96/5/2
f 96/5/2 95/5/2 97/5/2
f 98/3/2 99/3/2 102/3/2
f 102/3/2 99/3/2 103/3/2
f 100/3/2 101/3/2 106/3/2
f 106/3/2 101/3/2 107/3/2
f 103/3/2 104/3/2 108/3/2
f 108/3/2 104/3/2 109/3/2
f 105/3/2 106/3/2 110/3/2
f 110/3/2 106/3/2 111/3/2
f 112/3/2 113/3/2 114/3/2
f 114/3/2 113/3/2 115/3/2
f 116/3/2 117/3/2 120/3/2
f 120/3/2 117/3/2 121/3/2
f 117/5/2 118/5/2 122/5/2
f 121/3/2 117/3/2 122/3/2
f 118/3/2 119/3/2 123/3/2
f 122/5/2 118/5/2 123/5/2
f 123/3/2 119/3/2 124/3/2
f 124/3/2 119/3/2 125/3/2
f 121/5/2 122/5/2 126/5/2
f 126/5/2 122/5/2 127/5/2
f 123/5/2 124/5/2 128/5/2
f 128/5/2 124/5/2 129/5/2
f 130/3/2 131/3/2 134/3/2
f 130/3/2 134/3/2 135/3/2
f 130/3/2 135/3/2 136/3/2
f 136/3/2 135/3/2 137/3/2
f 132/3/2 133/3/2 140/3/2
f 140/3/2 133/3/2 141/3/2
f 138/3/2 139/3/2 142/3/2
f 142/3/2 139/3/2 143/3/2
f 144/3/2 145/3/2 146/3/2
f 146/3/2 145/3/2 147/3/2
f 146/2/2 147/2/2 148/2/2
f 148/2/2 147/2/2 149/2/2
f 148/3/2 149/3/2 150/3/2
f 149/2/2 147/2/2 150/2/2
f 150/2/2 147/2/2 151/2/2
f 148/3/2 150/3/2 152/3/2
f 150/3/2 151/3/2 152/3/2
f 152/3/2 151/3/2 153/3/2
f 153/3/2 154/3/2 155/3/2
f 155/3/2 154/3/2 156/3/2
f 157/3/2 158/3/2 159/3/2
f 159/3/2 158/3/2 160/3/2
f 160/3/2 158/3/2 161/3/2
f 160/2/2 161/2/2 162/2/2
f 161/3/2 158/3/2 162/3/2
f 162/3/2 158/3/2 163/3/2
f 160/2/2 162/2/2 164/2/2
f 162/2/2 163/2/2 164/2/2
f 164/2/2 163/2/2 165/2/2
f 160/2/2 164/2/2 166/2/2
f 164/3/2 165/3/2 167/3/2
f 166/2/2 164/2/2 167/2/2
f 166/3/2 167/3/2 168/3/2
f 167/3/2 165/3/2 169/3/2
f 168/3/2 167/3/2 169/3/2
f 170/2/2 171/2/2 174/2/2
f 171/3/2 172/3/2 175/3/2
f 174/2/2 171/2/2 175/2/2
f 172/2/2 173/2/2 176/2/2
f 175/3/2 172/3/2 176/3/2
f 176/2/2 173/2/2 177/2/2
f 170/2/2 174/2/2 178/2/2
f 174/3/2 175/3/2 179/3/2
f 178/2/2 174/2/2 179/2/2
f 175/3/2 176/3/2 179/3/2
f 176/3/2 177/3/2 179/3/2
f 179/3/2 177/3/2 180/3/2
f 177/2/2 173/2/2 181/2/2
f 180/3/2 177/3/2 181/3/2
f 181/2/2 173/2/2 182/2/2
f 178/3/2 179/3/2 183/3/2
f 179/2/2 180/2/2 184/2/2
f 183/3/2 179/3/2 184/3/2
f 180/3/2 181/3/2 185/3/2
f 184/2/2 180/2/2 185/2/2
f 181/3/2 182/3/2 185/3/2
f 182/2/2 173/2/2 186/2/2
f 185/3/2 182/3/2 186/3/2
f 186/2/2 173/2/2 187/2/2
f 183/2/2 184/2/2 188/2/2
f 184/3/2 185/3/2 189/3/2
f 188/2/2 184/2/2 189/2/2
f 185/3/2 186/3/2 189/3/2
f 186/3/2 187/3/2 189/3/2
f 188/3/2 189/3/2 190/3/2
f 189/3/2 187/3/2 190/3/2
f 190/3/2 187/3/2 191/3/2
f 191/3/2 187/3/2 192/3/2
f 192/3/2 187/3/2 193/3/2
f 193/3/2 187/3/2 194/3/2
f 194/3/2 187/3/2 195/3/2
f 188/3/2 190/3/2 196/3/2
f 190/4/2 191/4/2 196/4/2
f 191/1/2 192/1/2 197/1/2
f 196/4/2 191/4/2 197/4/2
f 192/4/2 193/4/2 198/4/2
f 197/1/2 192/1/2 198/1/2
f 193/1/2 194/1/2 199/1/2
f 198/4/2 193/4/2 199/4/2
f 194/4/2 195/4/2 200/4/2
f 199/1/2 194/1/2 200/1/2
f 195/3/2 187/3/2 201/3/2
f 200/4/2 195/4/2 201/4/2
f 199/3/2 200/3/2 202/3/2
f 198/3/2 199/3/2 202/3/2
f 197/3/2 198/3/2 202/3/2
f 202/3/2 200/3/2 203/3/2
f 200/1/2 201/1/2 204/1/2
f 203/3/2 200/3/2 204/3/2
f 201/3/2 187/3/2 205/3/2
f 204/1/2 201/1/2 205/1/2
f 188/3/2 196/3/2 206/3/2
f 196/1/2 197/1/2 206/1/2
f 197/3/2 202/3/2 207/3/2
f 206/1/2 197/1/2 207/1/2
f 202/4/2 203/4/2 208/4/2
f 207/3/2 202/3/2 208/3/2
f 203/3/2 204/3/2 209/3/2
f 208/4/2 203/4/2 209/4/2
f 204/4/2 205/4/2 210/4/2
f 209/3/2 204/3/2 210/3/2
f 205/3/2 187/3/2 211/3/2
f 210/4/2 205/4/2 211/4/2
f 207/3/2 208/3/2 212/3/2
f 209/3/2 210/3/2 212/3/2
f 208/3/2 209/3/2 212/3/2
f 212/3/2 210/3/2 213/3/2
f 213/3/2 210/3/2 214/3/2
f 214/3/2 210/3/2 215/3/2
f 213/3/2 214/3/2 216/3/2
f 214/4/2 215/4/2 216/4/2
f 216/4/2 215/4/2 217/4/2
f 210/1/2 211/1/2 218/1/2
f 215/3/2 210/3/2 218/3/2
f 211/3/2 187/3/2 219/3/2
f 218/1/2 211/1/2 219/1/2
f 217/4/2 215/4/2 220/4/2
f 216/3/2 217/3/2 220/3/2
f 220/4/2 215/4/2 221/4/2
f 207/3/2 212/3/2 222/3/2
f 212/4/2 213/4/2 222/4/2
f 220/3/2 221/3/2 223/3/2
f 222/4/2 213/4/2 223/4/2
f 213/3/2 216/3/2 223/3/2
f 216/3/2 220/3/2 223/3/2
f 221/4/2 215/4/2 224/4/2
f 223/3/2 221/3/2 224/3/2
f 215/3/2 218/3/2 225/3/2
f 224/4/2 215/4/2 225/4/2
f 223/4/2 224/4/2 226/4/2
f 222/3/2 223/3/2 226/3/2
f 224/3/2 225/3/2 227/3/2
f 226/4/2 224/4/2 227/4/2
f 206/4/2 207/4/2 228/4/2
f 222/3/2 226/3/2 228/3/2
f 226/3/2 227/3/2 228/3/2
f 207/3/2 222/3/2 228/3/2
f 225/3/2 218/3/2 229/3/2
f 228/3/2 227/3/2 229/3/2
f 227/3/2 225/3/2 229/3/2
f 218/4/2 219/4/2 229/4/2
f 206/4/2 228/4/2 230/4/2
f 188/3/2 206/3/2 230/3/2
f 228/4/2 229/4/2 230/4/2
f 229/4/2 219/4/2 231/4/2
f 230/4/2 229/4/2 231/4/2
f 219/3/2 187/3/2 231/3/2
f 188/3/2 230/3/2 232/3/2
f 230/3/2 231/3/2 232/3/2
f 231/3/2 187/3/2 233/3/2
f 232/3/2 231/3/2 233/3/2
f 236/3/3 235/3/3 234/3/3
f 237/3/3 235/3/3 236/3/3
f 240/3/3 239/3/3 238/3/3
f 241/3/3 239/3/3 240/3/3
f 246/3/3 243/3/3 242/3/3
f 247/2/3 244/2/3 243/2/3
f 247/3/3 243/3/3 246/3/3
f 248/3/3 245/3/3 244/3/3
f 248/2/3 244/2/3 247/2/3
f 249/3/3 245/3/3 248/3/3
f 252/3/3 251/3/3 250/3/3
f 253/3/3 251/3/3 252/3/3
f 256/3/3 255/3/3 254/3/3
f 257/3/3 255/3/3 256/3/3
f 259/3/3 258/3/3 257/3/3
f 260/3/3 258/3/3 259/3/3
f 266/3/3 262/3/3 261/3/3
f 267/3/3 262/3/3 266/3/3
f 268/3/3 265/3/3 264/3/3
f 268/3/3 264/3/3 263/3/3
f 268/3/3 266/3/3 265/3/3
f 269/3/3 266/3/3 268/3/3
f 270/3/3 266/3/3 269/3/3
f 271/3/3 266/3/3 270/3/3
f 272/2/3 269/2/3 268/2/3
f 273/3/3 270/3/3 269/3/3
f 273/2/3 269/2/3 272/2/3
f 274/2/3 271/2/3 270/2/3
f 274/3/3 270/3/3 273/3/3
f 275/3/3 266/3/3 271/3/3
f 275/2/3 271/2/3 274/2/3
f 276/3/3 266/3/3 275/3/3
f 279/3/3 278/3/3 277/3/3
f 280/3/3 278/3/3 279/3/3
f 283/3/3 282/3/3 281/3/3
f 284/3/3 282/3/3 283/3/3
f 287/3/3 285/3/3 284/3/3
f 288/3/3 285/3/3 287/3/3
f 289/3/3 287/3/3 286/3/3
f 290/3/3 287/3/3 289/3/3
f 294/5/3 292/5/3 291/5/3
f 295/5/3 294/5/3 293/5/3
f 296/5/3 292/5/3 294/5/3
f 296/5/3 294/5/3 295/5/3
f 299/5/3 298/5/3 297/5/3
f 300/5/3 298/5/3 299/5/3
f 303/5/3 302/5/3 301/5/3
f 305/5/3 303/5/3 301/5/3
f 305/5/3 304/5/3 303/5/3
f 306/5/3 304/5/3 305/5/3
f 307/5/3 304/5/3 306/5/3
f 308/5/3 304/5/3 307/5/3
f 309/5/3 304/5/3 308/5/3
f 310/5/4 311/5/4 312/5/4
f 310/5/4 312/5/4 314/5/4
f 312/5/4 313/5/4 314/5/4
f 314/5/4 313/5/4 315/5/4
f 315/5/4 313/5/4 316/5/4
f 316/5/4 313/5/4 317/5/4
f 317/5/4 313/5/4 318/5/4
f 319/5/4 320/5/4 321/5/4
f 321/5/4 320/5/4 322/5/4
f 323/5/4 324/5/4 326/5/4
f 325/5/4 326/5/4 327/5/4
f 326/5/4 324/5/4 328/5/4
f 327/5/4 326/5/4 328/5/4
f 329/3/4 330/3/4 331/3/4
f 331/3/4 330/3/4 332/3/4
f 332/3/4 333/3/4 335/3/4
f 335/3/4 333/3/4 336/3/4
f 334/3/4 335/3/4 337/3/4
f 337/3/4 335/3/4 338/3/4
f 339/3/4 340/3/4 341/3/4
f 341/3/4 340/3/4 342/3/4
f 343/3/4 344/3/4 345/3/4
f 345/3/4 344/3/4 346/3/4
f 347/3/4 348/3/4 349/3/4
f 349/3/4 348/3/4 350/3/4
f 351/3/4 352/3/4 353/3/4
f 353/3/4 352/3/4 354/3/4
f 355/2/4 356/2/4 360/2/4
f 358/3/4 359/3/4 361/3/4
f 360/2/4 356/2/4 361/2/4
f 356/3/4 357/3/4 361/3/4
f 357/3/4 358/3/4 361/3/4
f 361/3/4 359/3/4 362/3/4
f 363/3/4 364/3/4 365/3/4
f 365/3/4 364/3/4 366/3/4
f 367/3/4 368/3/4 369/3/4
f 369/3/4 368/3/4 370/3/4
f 371/3/4 372/3/4 373/3/4
f 373/3/4 372/3/4 374/3/4
f 371/3/4 373/3/4 375/3/4
f 373/2/4 374/2/4 376/2/4
f 375/3/4 373/3/4 376/3/4
f 374/3/4 372/3/4 377/3/4
f 376/2/4 374/2/4 377/2/4
f 377/3/4 372/3/4 378/3/4
f 379/3/4 380/3/4 381/3/4
f 381/3/4 380/3/4 382/3/4
f 386/3/5 384/3/5 383/3/5
f 387/3/5 384/3/5 386/3/5
f 390/3/5 386/3/5 385/3/5
f 390/3/5 388/3/5 387/3/5
f 390/3/5 387/3/5 386/3/5
f 391/3/5 388/3/5 390/3/5
f 394/3/5 390/3/5 389/3/5
f 394/2/5 393/2/5 392/2/5
f 394/3/5 392/3/5 391/3/5
f 394/3/5 391/3/5 390/3/5
f 395/2/5 393/2/5 394/2/5
f 396/3/5 394/3/5 389/3/5
f 396/3/5 395/3/5 394/3/5
f 397/3/5 395/3/5 396/3/5
f 398/3/5 395/3/5 397/3/5
f 399/3/5 395/3/5 398/3/5
f 400/3/5 396/3/5 389/3/5
f 400/5/5 397/5/5 396/5/5
f 401/3/5 398/3/5 397/3/5
f 401/5/5 397/5/5 400/5/5
f 402/3/5 398/3/5 401/3/5
f 403/3/5 398/3/5 402/3/5
f 404/5/5 399/5/5 398/5/5
f 404/3/5 398/3/5 403/3/5
f 405/3/5 395/3/5 399/3/5
f 405/5/5 399/5/5 404/5/5
f 406/3/5 400/3/5 389/3/5
f 406/3/5 401/3/5 400/3/5
f 407/5/5 402/5/5 401/5/5
f 407/3/5 401/3/5 406/3/5
f 408/3/5 403/3/5 402/3/5
f 408/5/5 402/5/5 407/5/5
f 409/5/5 404/5/5 403/5/5
f 409/3/5 403/3/5 408/3/5
f 410/5/5 404/5/5 409/5/5
f 411/3/5 395/3/5 405/3/5
f 412/5/5 407/5/5 406/5/5
f 412/3/5 406/3/5 389/3/5
f 413/3/5 408/3/5 407/3/5
f 413/5/5 407/5/5 412/5/5
f 413/3/5 410/3/5 409/3/5
f 413/3/5 409/3/5 408/3/5
f 414/5/5 411/5/5 410/5/5
f 414/3/5 410/3/5 413/3/5
f 415/3/5 395/3/5 411/3/5
f 415/5/5 411/5/5 414/5/5
f 416/3/5 413/3/5 412/3/5
f 416/3/5 395/3/5 415/3/5
f 416/3/5 415/3/5 414/3/5
f 416/3/5 414/3/5 413/3/5
f 417/3/5 395/3/5 416/3/5
f 418/3/5 412/3/5 389/3/5
f 418/3/5 416/3/5 412/3/5
f 419/3/5 416/3/5 418/3/5
f 420/2/5 417/2/5 416/2/5
f 420/3/5 416/3/5 419/3/5
f 421/2/5 417/2/5 420/2/5
f 422/3/5 420/3/5 419/3/5
f 423/3/5 420/3/5 422/3/5
f 424/3/5 420/3/5 423/3/5
f 425/3/5 420/3/5 424/3/5
f 426/3/5 424/3/5 423/3/5
f 427/3/5 424/3/5 426/3/5
f 430/5/5 429/5/5 428/5/5
f 431/5/5 429/5/5 430/5/5
f 432/3/6 433/3/6 435/3/6
f 435/3/6 433/3/6 436/3/6
f 434/3/6 435/3/6 438/3/6
f 436/3/6 437/3/6 438/3/6
f 435/3/6 436/3/6 438/3/6
f 438/3/6 437/3/6 439/3/6
f 434/3/6 438/3/6 441/3/6
f 441/3/6 438/3/6 442/3/6
f 439/3/6 437/3/6 443/3/6
f 443/3/6 437/3/6 444/3/6
f 440/3/6 441/3/6 446/3/6
f 446/3/6 441/3/6 447/3/6
f 447/3/6 441/3/6 448/3/6
f 444/3/6 445/3/6 451/3/6
f 451/3/6 445/3/6 452/3/6
f 452/3/6 445/3/6 453/3/6
f 448/3/6 449/3/6 454/3/6
f 447/3/6 448/3/6 454/3/6
f 451/3/6 452/3/6 455/3/6
f 450/3/6 451/3/6 455/3/6
f 447/3/6 454/3/6 456/3/6
f 454/3/6 455/3/6 456/3/6
f 456/3/6 455/3/6 457/3/6
f 455/3/6 452/3/6 458/3/6
f 457/3/6 455/3/6 458/3/6
f 458/3/6 452/3/6 459/3/6
f 457/3/6 458/3/6 460/3/6
f 460/3/6 458/3/6 461/3/6
f 462/3/6 463/3/6 465/3/6
f 465/3/6 463/3/6 466/3/6
f 464/3/6 465/3/6 468/3/6
f 466/3/6 467/3/6 468/3/6
f 465/3/6 466/3/6 468/3/6
f 468/3/6 467/3/6 469/3/6
f 464/3/6 468/3/6 470/3/6
f 470/3/6 468/3/6 471/3/6
f 469/3/6 467/3/6 472/3/6
f 472/3/6 467/3/6 473/3/6
f 473/3/6 467/3/6 474/3/6
f 474/3/6 467/3/6 475/3/6
f 464/3/6 470/3/6 476/3/6
f 475/3/6 467/3/6 479/3/6
f 476/3/6 477/3/6 480/3/6
f 478/3/6 479/3/6 481/3/6
f 476/3/6 480/3/6 482/3/6
f 480/3/6 481/3/6 482/3/6
f 464/3/6 476/3/6 482/3/6
f 482/3/6 481/3/6 483/3/6
f 481/3/6 479/3/6 484/3/6
f 483/3/6 481/3/6 484/3/6
f 479/3/6 467/3/6 484/3/6
f 484/3/6 467/3/6 485/3/6
f 483/3/6 484/3/6 486/3/6
f 486/3/6 484/3/6 487/3/6
f 488/3/6 489/3/6 491/3/6
f 491/3/6 489/3/6 492/3/6
f 492/3/6 493/3/6 494/3/6
f 494/3/6 493/3/6 495/3/6
f 496/5/6 497/5/6 498/5/6
f 498/5/6 497/5/6 499/5/6
f 490/3/6 491/3/6 502/3/6
f 502/3/6 491/3/6 503/3/6
f 500/3/6 501/3/6 504/3/6
f 504/3/6 501/3/6 505/3/6
f 503/3/6 504/3/6 506/3/6
f 506/3/6 504/3/6 507/3/6
f 508/3/6 509/3/6 510/3/6
f 510/3/6 509/3/6 511/3/6
f 508/3/6 510/3/6 512/3/6
f 512/3/6 510/3/6 513/3/6
f 508/3/6 512/3/6 514/3/6
f 514/3/6 515/3/6 516/3/6
f 514/3/6 516/3/6 518/3/6
f 516/3/6 517/3/6 518/3/6
f 508/3/6 514/3/6 518/3/6
f 518/3/6 517/3/6 519/3/6
f 520/5/6 521/5/6 523/5/6
f 523/5/6 521/5/6 524/5/6
f 524/5/6 521/5/6 525/5/6
f 522/5/6 523/5/6 526/5/6
f 523/5/6 524/5/6 526/5/6
f 526/5/6 524/5/6 527/5/6
f 527/5/6 524/5/6 528/5/6
f 528/5/6 529/5/6 530/5/6
f 527/5/6 528/5/6 530/5/6
f 530/5/6 529/5/6 531/5/6
