# MagicaVoxel @ Ephtracy

# group
o 

# material
mtllib drzewko-6.mtl
usemtl palette

# normals
vn 0 0 1
vn 0 0 -1
vn 1 0 0
vn -1 0 0
vn 0 -1 0
vn 0 1 0

# texcoords
vt 0.947266 0.5
vt 0.951172 0.5

# verts
v 28 0.8 3.9
v 27.9 0.8 3.9
v 28 0.9 3.9
v 27.9 0.9 3.9
v 28 1.1 3.9
v 27.9 1.1 3.9
v 28 1.3 3.9
v 27.9 1.3 3.9
v 28 1.5 3.9
v 27.9 1.5 3.9
v 28 1.7 3.9
v 27.9 1.7 3.9
v 28 1.8 3.9
v 27.9 1.8 3.9
v 28 1.8 3.8
v 27.9 1.8 3.8
v 28 1.9 3.8
v 27.9 1.9 3.8
v 28 1.9 3.7
v 27.9 1.9 3.7
v 28 2 3.7
v 27.9 2 3.7
v 28 2 3.6
v 27.9 2 3.6
v 28 2.1 3.6
v 27.9 2.1 3.6
v 28 1.9 1.8
v 27.9 1.9 1.8
v 28 2 1.8
v 27.9 2 1.8
v 28 1.8 1.7
v 27.9 1.8 1.7
v 28 1.9 1.7
v 27.9 1.9 1.7
v 28 0.8 1.6
v 27.9 0.8 1.6
v 28 1 1.6
v 27.9 1 1.6
v 28 1.2 1.6
v 27.9 1.2 1.6
v 28 1.3 1.6
v 27.9 1.3 1.6
v 28 1.4 1.6
v 27.9 1.4 1.6
v 28 1.6 1.6
v 27.9 1.6 1.6
v 28 1.8 1.6
v 27.9 1.8 1.6
v 28 0.8 3.8
v 27.9 0.8 3.8
v 28 0.9 3.8
v 27.9 0.9 3.8
v 28 1.1 3.8
v 27.9 1.1 3.8
v 28 1.3 3.8
v 27.9 1.3 3.8
v 28 1.4 3.8
v 27.9 1.4 3.8
v 28 1.5 3.8
v 27.9 1.5 3.8
v 28 1.7 3.8
v 27.9 1.7 3.8
v 28 1.8 3.8
v 27.9 1.8 3.8
v 28 1.8 3.7
v 27.9 1.8 3.7
v 28 1.9 3.7
v 27.9 1.9 3.7
v 28 1.9 3.6
v 27.9 1.9 3.6
v 28 2 3.6
v 27.9 2 3.6
v 28 2 1.8
v 27.9 2 1.8
v 28 2.1 1.8
v 27.9 2.1 1.8
v 28 1.9 1.7
v 27.9 1.9 1.7
v 28 2 1.7
v 27.9 2 1.7
v 28 1.8 1.6
v 27.9 1.8 1.6
v 28 1.9 1.6
v 27.9 1.9 1.6
v 28 0.8 1.5
v 27.9 0.8 1.5
v 28 1 1.5
v 27.9 1 1.5
v 28 1.2 1.5
v 27.9 1.2 1.5
v 28 1.4 1.5
v 27.9 1.4 1.5
v 28 1.6 1.5
v 27.9 1.6 1.5
v 28 1.8 1.5
v 27.9 1.8 1.5
v 28 0.8 3.9
v 28 0.9 3.9
v 28 1.1 3.9
v 28 1.3 3.9
v 28 1.5 3.9
v 28 1.7 3.9
v 28 1.8 3.9
v 28 0.8 3.8
v 28 0.9 3.8
v 28 1.1 3.8
v 28 1.3 3.8
v 28 1.4 3.8
v 28 1.5 3.8
v 28 1.7 3.8
v 28 1.8 3.8
v 28 1.9 3.8
v 28 1.8 3.7
v 28 1.9 3.7
v 28 2 3.7
v 28 1.3 3.6
v 28 1.4 3.6
v 28 1.9 3.6
v 28 2 3.6
v 28 2.1 3.6
v 28 2 3.5
v 28 2.1 3.5
v 28 1.3 3.4
v 28 1.4 3.4
v 28 1.3 3.2
v 28 1.4 3.2
v 28 2 3.2
v 28 2.1 3.2
v 28 1.3 3
v 28 1.4 3
v 28 2 2.9
v 28 2.1 2.9
v 28 1.3 2.8
v 28 1.4 2.8
v 28 1.3 2.6
v 28 1.4 2.6
v 28 2 2.6
v 28 2.1 2.6
v 28 1.3 2.4
v 28 1.4 2.4
v 28 2 2.3
v 28 2.1 2.3
v 28 1.3 2.2
v 28 1.4 2.2
v 28 1.3 2
v 28 1.4 2
v 28 2 2
v 28 2.1 2
v 28 1.3 1.8
v 28 1.4 1.8
v 28 1.9 1.8
v 28 2 1.8
v 28 2.1 1.8
v 28 1.8 1.7
v 28 1.9 1.7
v 28 2 1.7
v 28 0.8 1.6
v 28 1 1.6
v 28 1.2 1.6
v 28 1.3 1.6
v 28 1.4 1.6
v 28 1.6 1.6
v 28 1.8 1.6
v 28 1.9 1.6
v 28 0.8 1.5
v 28 1 1.5
v 28 1.2 1.5
v 28 1.4 1.5
v 28 1.6 1.5
v 28 1.8 1.5
v 27.9 0.8 3.9
v 27.9 0.9 3.9
v 27.9 1.1 3.9
v 27.9 1.3 3.9
v 27.9 1.5 3.9
v 27.9 1.7 3.9
v 27.9 1.8 3.9
v 27.9 0.8 3.8
v 27.9 0.9 3.8
v 27.9 1.1 3.8
v 27.9 1.3 3.8
v 27.9 1.4 3.8
v 27.9 1.5 3.8
v 27.9 1.7 3.8
v 27.9 1.8 3.8
v 27.9 1.9 3.8
v 27.9 1.8 3.7
v 27.9 1.9 3.7
v 27.9 2 3.7
v 27.9 1.3 3.6
v 27.9 1.4 3.6
v 27.9 1.9 3.6
v 27.9 2 3.6
v 27.9 2.1 3.6
v 27.9 2 3.5
v 27.9 2.1 3.5
v 27.9 1.3 3.4
v 27.9 1.4 3.4
v 27.9 1.3 3.2
v 27.9 1.4 3.2
v 27.9 2 3.2
v 27.9 2.1 3.2
v 27.9 1.3 3
v 27.9 1.4 3
v 27.9 2 2.9
v 27.9 2.1 2.9
v 27.9 1.3 2.8
v 27.9 1.4 2.8
v 27.9 1.3 2.6
v 27.9 1.4 2.6
v 27.9 2 2.6
v 27.9 2.1 2.6
v 27.9 1.3 2.4
v 27.9 1.4 2.4
v 27.9 2 2.3
v 27.9 2.1 2.3
v 27.9 1.3 2.2
v 27.9 1.4 2.2
v 27.9 1.3 2
v 27.9 1.4 2
v 27.9 2 2
v 27.9 2.1 2
v 27.9 1.3 1.8
v 27.9 1.4 1.8
v 27.9 1.9 1.8
v 27.9 2 1.8
v 27.9 2.1 1.8
v 27.9 1.8 1.7
v 27.9 1.9 1.7
v 27.9 2 1.7
v 27.9 0.8 1.6
v 27.9 1 1.6
v 27.9 1.2 1.6
v 27.9 1.3 1.6
v 27.9 1.4 1.6
v 27.9 1.6 1.6
v 27.9 1.8 1.6
v 27.9 1.9 1.6
v 27.9 0.8 1.5
v 27.9 1 1.5
v 27.9 1.2 1.5
v 27.9 1.4 1.5
v 27.9 1.6 1.5
v 27.9 1.8 1.5
v 28 0.8 3.9
v 28 0.8 3.8
v 28 0.8 1.6
v 28 0.8 1.5
v 27.9 0.8 3.9
v 27.9 0.8 3.8
v 27.9 0.8 1.6
v 27.9 0.8 1.5
v 28 1.3 3.8
v 28 1.3 3.6
v 28 1.3 3.4
v 28 1.3 3.2
v 28 1.3 3
v 28 1.3 2.8
v 28 1.3 2.6
v 28 1.3 2.4
v 28 1.3 2.2
v 28 1.3 2
v 28 1.3 1.8
v 28 1.3 1.6
v 27.9 1.3 3.8
v 27.9 1.3 3.6
v 27.9 1.3 3.4
v 27.9 1.3 3.2
v 27.9 1.3 3
v 27.9 1.3 2.8
v 27.9 1.3 2.6
v 27.9 1.3 2.4
v 27.9 1.3 2.2
v 27.9 1.3 2
v 27.9 1.3 1.8
v 27.9 1.3 1.6
v 28 1.8 3.8
v 28 1.8 3.7
v 28 1.8 1.7
v 28 1.8 1.6
v 27.9 1.8 3.8
v 27.9 1.8 3.7
v 27.9 1.8 1.7
v 27.9 1.8 1.6
v 28 1.9 3.7
v 28 1.9 3.6
v 28 1.9 1.8
v 28 1.9 1.7
v 27.9 1.9 3.7
v 27.9 1.9 3.6
v 27.9 1.9 1.8
v 27.9 1.9 1.7
v 28 2 3.6
v 28 2 3.5
v 28 2 3.2
v 28 2 2.9
v 28 2 2.6
v 28 2 2.3
v 28 2 2
v 28 2 1.8
v 27.9 2 3.6
v 27.9 2 3.5
v 27.9 2 3.2
v 27.9 2 2.9
v 27.9 2 2.6
v 27.9 2 2.3
v 27.9 2 2
v 27.9 2 1.8
v 28 1.4 3.8
v 28 1.4 3.6
v 28 1.4 3.4
v 28 1.4 3.2
v 28 1.4 3
v 28 1.4 2.8
v 28 1.4 2.6
v 28 1.4 2.4
v 28 1.4 2.2
v 28 1.4 2
v 28 1.4 1.8
v 28 1.4 1.6
v 27.9 1.4 3.8
v 27.9 1.4 3.6
v 27.9 1.4 3.4
v 27.9 1.4 3.2
v 27.9 1.4 3
v 27.9 1.4 2.8
v 27.9 1.4 2.6
v 27.9 1.4 2.4
v 27.9 1.4 2.2
v 27.9 1.4 2
v 27.9 1.4 1.8
v 27.9 1.4 1.6
v 28 1.8 3.9
v 28 1.8 3.8
v 28 1.8 1.6
v 28 1.8 1.5
v 27.9 1.8 3.9
v 27.9 1.8 3.8
v 27.9 1.8 1.6
v 27.9 1.8 1.5
v 28 1.9 3.8
v 28 1.9 3.7
v 28 1.9 1.7
v 28 1.9 1.6
v 27.9 1.9 3.8
v 27.9 1.9 3.7
v 27.9 1.9 1.7
v 27.9 1.9 1.6
v 28 2 3.7
v 28 2 3.6
v 28 2 1.8
v 28 2 1.7
v 27.9 2 3.7
v 27.9 2 3.6
v 27.9 2 1.8
v 27.9 2 1.7
v 28 2.1 3.6
v 28 2.1 3.5
v 28 2.1 3.2
v 28 2.1 2.9
v 28 2.1 2.6
v 28 2.1 2.3
v 28 2.1 2
v 28 2.1 1.8
v 27.9 2.1 3.6
v 27.9 2.1 3.5
v 27.9 2.1 3.2
v 27.9 2.1 2.9
v 27.9 2.1 2.6
v 27.9 2.1 2.3
v 27.9 2.1 2
v 27.9 2.1 1.8

# faces
f 3/2/1 2/2/1 1/2/1
f 4/2/1 2/2/1 3/2/1
f 5/1/1 4/1/1 3/1/1
f 6/1/1 4/1/1 5/1/1
f 7/2/1 6/2/1 5/2/1
f 8/2/1 6/2/1 7/2/1
f 9/1/1 8/1/1 7/1/1
f 10/1/1 8/1/1 9/1/1
f 11/2/1 10/2/1 9/2/1
f 12/2/1 10/2/1 11/2/1
f 13/1/1 12/1/1 11/1/1
f 14/1/1 12/1/1 13/1/1
f 17/1/1 16/1/1 15/1/1
f 18/1/1 16/1/1 17/1/1
f 21/2/1 20/2/1 19/2/1
f 22/2/1 20/2/1 21/2/1
f 25/2/1 24/2/1 23/2/1
f 26/2/1 24/2/1 25/2/1
f 29/1/1 28/1/1 27/1/1
f 30/1/1 28/1/1 29/1/1
f 33/1/1 32/1/1 31/1/1
f 34/1/1 32/1/1 33/1/1
f 37/2/1 36/2/1 35/2/1
f 38/2/1 36/2/1 37/2/1
f 39/1/1 38/1/1 37/1/1
f 40/1/1 38/1/1 39/1/1
f 41/2/1 40/2/1 39/2/1
f 42/2/1 40/2/1 41/2/1
f 45/1/1 44/1/1 43/1/1
f 46/1/1 44/1/1 45/1/1
f 47/2/1 46/2/1 45/2/1
f 48/2/1 46/2/1 47/2/1
f 49/2/2 50/2/2 51/2/2
f 51/2/2 50/2/2 52/2/2
f 51/1/2 52/1/2 53/1/2
f 53/1/2 52/1/2 54/1/2
f 53/2/2 54/2/2 55/2/2
f 55/2/2 54/2/2 56/2/2
f 57/1/2 58/1/2 59/1/2
f 59/1/2 58/1/2 60/1/2
f 59/2/2 60/2/2 61/2/2
f 61/2/2 60/2/2 62/2/2
f 61/1/2 62/1/2 63/1/2
f 63/1/2 62/1/2 64/1/2
f 65/1/2 66/1/2 67/1/2
f 67/1/2 66/1/2 68/1/2
f 69/2/2 70/2/2 71/2/2
f 71/2/2 70/2/2 72/2/2
f 73/2/2 74/2/2 75/2/2
f 75/2/2 74/2/2 76/2/2
f 77/1/2 78/1/2 79/1/2
f 79/1/2 78/1/2 80/1/2
f 81/1/2 82/1/2 83/1/2
f 83/1/2 82/1/2 84/1/2
f 85/2/2 86/2/2 87/2/2
f 87/2/2 86/2/2 88/2/2
f 87/1/2 88/1/2 89/1/2
f 89/1/2 88/1/2 90/1/2
f 89/2/2 90/2/2 91/2/2
f 91/2/2 90/2/2 92/2/2
f 91/1/2 92/1/2 93/1/2
f 93/1/2 92/1/2 94/1/2
f 93/2/2 94/2/2 95/2/2
f 95/2/2 94/2/2 96/2/2
f 104/2/3 98/2/3 97/2/3
f 105/1/3 99/1/3 98/1/3
f 105/2/3 98/2/3 104/2/3
f 106/2/3 100/2/3 99/2/3
f 106/1/3 99/1/3 105/1/3
f 107/1/3 101/1/3 100/1/3
f 107/2/3 100/2/3 106/2/3
f 108/1/3 101/1/3 107/1/3
f 109/2/3 102/2/3 101/2/3
f 109/1/3 101/1/3 108/1/3
f 110/1/3 103/1/3 102/1/3
f 110/2/3 102/2/3 109/2/3
f 111/1/3 103/1/3 110/1/3
f 113/1/3 112/1/3 111/1/3
f 114/1/3 112/1/3 113/1/3
f 116/2/3 108/2/3 107/2/3
f 117/2/3 108/2/3 116/2/3
f 118/2/3 115/2/3 114/2/3
f 119/2/3 115/2/3 118/2/3
f 121/2/3 120/2/3 119/2/3
f 122/2/3 120/2/3 121/2/3
f 123/1/3 117/1/3 116/1/3
f 124/1/3 117/1/3 123/1/3
f 125/2/3 124/2/3 123/2/3
f 126/2/3 124/2/3 125/2/3
f 127/1/3 122/1/3 121/1/3
f 128/1/3 122/1/3 127/1/3
f 129/1/3 126/1/3 125/1/3
f 130/1/3 126/1/3 129/1/3
f 131/2/3 128/2/3 127/2/3
f 132/2/3 128/2/3 131/2/3
f 133/2/3 130/2/3 129/2/3
f 134/2/3 130/2/3 133/2/3
f 135/1/3 134/1/3 133/1/3
f 136/1/3 134/1/3 135/1/3
f 137/1/3 132/1/3 131/1/3
f 138/1/3 132/1/3 137/1/3
f 139/2/3 136/2/3 135/2/3
f 140/2/3 136/2/3 139/2/3
f 141/2/3 138/2/3 137/2/3
f 142/2/3 138/2/3 141/2/3
f 143/1/3 140/1/3 139/1/3
f 144/1/3 140/1/3 143/1/3
f 145/2/3 144/2/3 143/2/3
f 146/2/3 144/2/3 145/2/3
f 147/1/3 142/1/3 141/1/3
f 148/1/3 142/1/3 147/1/3
f 149/1/3 146/1/3 145/1/3
f 150/1/3 146/1/3 149/1/3
f 152/2/3 148/2/3 147/2/3
f 153/2/3 148/2/3 152/2/3
f 155/1/3 152/1/3 151/1/3
f 156/1/3 152/1/3 155/1/3
f 160/2/3 150/2/3 149/2/3
f 161/2/3 150/2/3 160/2/3
f 163/1/3 155/1/3 154/1/3
f 164/1/3 155/1/3 163/1/3
f 165/2/3 158/2/3 157/2/3
f 166/1/3 159/1/3 158/1/3
f 166/2/3 158/2/3 165/2/3
f 167/2/3 160/2/3 159/2/3
f 167/1/3 159/1/3 166/1/3
f 167/2/3 161/2/3 160/2/3
f 168/1/3 162/1/3 161/1/3
f 168/2/3 161/2/3 167/2/3
f 169/2/3 163/2/3 162/2/3
f 169/1/3 162/1/3 168/1/3
f 170/2/3 163/2/3 169/2/3
f 171/2/4 172/2/4 178/2/4
f 172/1/4 173/1/4 179/1/4
f 178/2/4 172/2/4 179/2/4
f 173/2/4 174/2/4 180/2/4
f 179/1/4 173/1/4 180/1/4
f 174/1/4 175/1/4 181/1/4
f 180/2/4 174/2/4 181/2/4
f 181/1/4 175/1/4 182/1/4
f 175/2/4 176/2/4 183/2/4
f 182/1/4 175/1/4 183/1/4
f 176/1/4 177/1/4 184/1/4
f 183/2/4 176/2/4 184/2/4
f 184/1/4 177/1/4 185/1/4
f 185/1/4 186/1/4 187/1/4
f 187/1/4 186/1/4 188/1/4
f 181/2/4 182/2/4 190/2/4
f 190/2/4 182/2/4 191/2/4
f 188/2/4 189/2/4 192/2/4
f 192/2/4 189/2/4 193/2/4
f 193/2/4 194/2/4 195/2/4
f 195/2/4 194/2/4 196/2/4
f 190/1/4 191/1/4 197/1/4
f 197/1/4 191/1/4 198/1/4
f 197/2/4 198/2/4 199/2/4
f 199/2/4 198/2/4 200/2/4
f 195/1/4 196/1/4 201/1/4
f 201/1/4 196/1/4 202/1/4
f 199/1/4 200/1/4 203/1/4
f 203/1/4 200/1/4 204/1/4
f 201/2/4 202/2/4 205/2/4
f 205/2/4 202/2/4 206/2/4
f 203/2/4 204/2/4 207/2/4
f 207/2/4 204/2/4 208/2/4
f 207/1/4 208/1/4 209/1/4
f 209/1/4 208/1/4 210/1/4
f 205/1/4 206/1/4 211/1/4
f 211/1/4 206/1/4 212/1/4
f 209/2/4 210/2/4 213/2/4
f 213/2/4 210/2/4 214/2/4
f 211/2/4 212/2/4 215/2/4
f 215/2/4 212/2/4 216/2/4
f 213/1/4 214/1/4 217/1/4
f 217/1/4 214/1/4 218/1/4
f 217/2/4 218/2/4 219/2/4
f 219/2/4 218/2/4 220/2/4
f 215/1/4 216/1/4 221/1/4
f 221/1/4 216/1/4 222/1/4
f 219/1/4 220/1/4 223/1/4
f 223/1/4 220/1/4 224/1/4
f 221/2/4 222/2/4 226/2/4
f 226/2/4 222/2/4 227/2/4
f 225/1/4 226/1/4 229/1/4
f 229/1/4 226/1/4 230/1/4
f 223/2/4 224/2/4 234/2/4
f 234/2/4 224/2/4 235/2/4
f 228/1/4 229/1/4 237/1/4
f 237/1/4 229/1/4 238/1/4
f 231/2/4 232/2/4 239/2/4
f 232/1/4 233/1/4 240/1/4
f 239/2/4 232/2/4 240/2/4
f 233/2/4 234/2/4 241/2/4
f 240/1/4 233/1/4 241/1/4
f 234/2/4 235/2/4 241/2/4
f 235/1/4 236/1/4 242/1/4
f 241/2/4 235/2/4 242/2/4
f 236/2/4 237/2/4 243/2/4
f 242/1/4 236/1/4 243/1/4
f 243/2/4 237/2/4 244/2/4
f 249/2/5 246/2/5 245/2/5
f 250/2/5 246/2/5 249/2/5
f 251/2/5 248/2/5 247/2/5
f 252/2/5 248/2/5 251/2/5
f 265/2/5 254/2/5 253/2/5
f 266/1/5 255/1/5 254/1/5
f 266/2/5 254/2/5 265/2/5
f 267/2/5 256/2/5 255/2/5
f 267/1/5 255/1/5 266/1/5
f 268/1/5 257/1/5 256/1/5
f 268/2/5 256/2/5 267/2/5
f 269/2/5 258/2/5 257/2/5
f 269/1/5 257/1/5 268/1/5
f 270/1/5 259/1/5 258/1/5
f 270/2/5 258/2/5 269/2/5
f 271/2/5 260/2/5 259/2/5
f 271/1/5 259/1/5 270/1/5
f 272/1/5 261/1/5 260/1/5
f 272/2/5 260/2/5 271/2/5
f 273/2/5 262/2/5 261/2/5
f 273/1/5 261/1/5 272/1/5
f 274/1/5 263/1/5 262/1/5
f 274/2/5 262/2/5 273/2/5
f 275/2/5 264/2/5 263/2/5
f 275/1/5 263/1/5 274/1/5
f 276/2/5 264/2/5 275/2/5
f 281/1/5 278/1/5 277/1/5
f 282/1/5 278/1/5 281/1/5
f 283/1/5 280/1/5 279/1/5
f 284/1/5 280/1/5 283/1/5
f 289/2/5 286/2/5 285/2/5
f 290/2/5 286/2/5 289/2/5
f 291/1/5 288/1/5 287/1/5
f 292/1/5 288/1/5 291/1/5
f 301/2/5 294/2/5 293/2/5
f 302/1/5 295/1/5 294/1/5
f 302/2/5 294/2/5 301/2/5
f 303/2/5 296/2/5 295/2/5
f 303/1/5 295/1/5 302/1/5
f 304/1/5 297/1/5 296/1/5
f 304/2/5 296/2/5 303/2/5
f 305/2/5 298/2/5 297/2/5
f 305/1/5 297/1/5 304/1/5
f 306/1/5 299/1/5 298/1/5
f 306/2/5 298/2/5 305/2/5
f 307/2/5 300/2/5 299/2/5
f 307/1/5 299/1/5 306/1/5
f 308/2/5 300/2/5 307/2/5
f 309/2/6 310/2/6 321/2/6
f 310/1/6 311/1/6 322/1/6
f 321/2/6 310/2/6 322/2/6
f 311/2/6 312/2/6 323/2/6
f 322/1/6 311/1/6 323/1/6
f 312/1/6 313/1/6 324/1/6
f 323/2/6 312/2/6 324/2/6
f 313/2/6 314/2/6 325/2/6
f 324/1/6 313/1/6 325/1/6
f 314/1/6 315/1/6 326/1/6
f 325/2/6 314/2/6 326/2/6
f 315/2/6 316/2/6 327/2/6
f 326/1/6 315/1/6 327/1/6
f 316/1/6 317/1/6 328/1/6
f 327/2/6 316/2/6 328/2/6
f 317/2/6 318/2/6 329/2/6
f 328/1/6 317/1/6 329/1/6
f 318/1/6 319/1/6 330/1/6
f 329/2/6 318/2/6 330/2/6
f 319/2/6 320/2/6 331/2/6
f 330/1/6 319/1/6 331/1/6
f 331/2/6 320/2/6 332/2/6
f 333/1/6 334/1/6 337/1/6
f 337/1/6 334/1/6 338/1/6
f 335/2/6 336/2/6 339/2/6
f 339/2/6 336/2/6 340/2/6
f 341/1/6 342/1/6 345/1/6
f 345/1/6 342/1/6 346/1/6
f 343/1/6 344/1/6 347/1/6
f 347/1/6 344/1/6 348/1/6
f 349/2/6 350/2/6 353/2/6
f 353/2/6 350/2/6 354/2/6
f 351/1/6 352/1/6 355/1/6
f 355/1/6 352/1/6 356/1/6
f 357/2/6 358/2/6 365/2/6
f 358/1/6 359/1/6 366/1/6
f 365/2/6 358/2/6 366/2/6
f 359/2/6 360/2/6 367/2/6
f 366/1/6 359/1/6 367/1/6
f 360/1/6 361/1/6 368/1/6
f 367/2/6 360/2/6 368/2/6
f 361/2/6 362/2/6 369/2/6
f 368/1/6 361/1/6 369/1/6
f 362/1/6 363/1/6 370/1/6
f 369/2/6 362/2/6 370/2/6
f 363/2/6 364/2/6 371/2/6
f 370/1/6 363/1/6 371/1/6
f 371/2/6 364/2/6 372/2/6
