# MagicaVoxel @ Ephtracy

# group
o 

# material
mtllib drzewko-83.mtl
usemtl palette

# normals
vn 1 0 0
vn -1 0 0
vn 0 0 1
vn 0 0 -1
vn 0 -1 0
vn 0 1 0

# texcoords
vt 0.158203 0.5
vt 0.244141 0.5
vt 0.283203 0.5
vt 0.291016 0.5
vt 0.298828 0.5
vt 0.302734 0.5
vt 0.478516 0.5
vt 0.595703 0.5
vt 0.638672 0.5
vt 0.751953 0.5
vt 0.939453 0.5

# verts
v -78.6 6.8 -0.7
v -78.6 6.8 -0.8
v -78.6 6.8 -1
v -78.6 6.8 -1.1
v -78.6 6.8 -1.3
v -78.6 6.8 -1.4
v -78.6 6.8 -1.6
v -78.6 6.8 -1.7
v -78.6 6.8 -1.9
v -78.6 6.8 -2
v -78.6 6.8 -2.2
v -78.6 6.8 -2.3
v -78.6 6.8 -2.5
v -78.6 6.8 -2.6
v -78.6 6.8 -2.8
v -78.6 6.8 -2.9
v -78.6 7.4 -0.6
v -78.6 7.4 -0.7
v -78.6 7.4 -0.8
v -78.6 7.4 -1
v -78.6 7.4 -1.1
v -78.6 7.4 -1.3
v -78.6 7.4 -1.4
v -78.6 7.4 -1.6
v -78.6 7.4 -1.7
v -78.6 7.4 -1.9
v -78.6 7.4 -2
v -78.6 7.4 -2.2
v -78.6 7.4 -2.3
v -78.6 7.4 -2.5
v -78.6 7.4 -2.6
v -78.6 7.4 -2.8
v -78.6 7.4 -2.9
v -78.6 7.4 -3
v -78.6 7.5 -0.6
v -78.6 7.5 -3
v -78.6 9.8 -0.7
v -78.6 9.8 -0.8
v -78.6 9.8 -1
v -78.6 9.8 -1.1
v -78.6 9.8 -1.3
v -78.6 9.8 -1.4
v -78.6 9.8 -1.6
v -78.6 9.8 -1.7
v -78.6 9.8 -1.9
v -78.6 9.8 -2
v -78.6 9.8 -2.2
v -78.6 9.8 -2.3
v -78.6 9.8 -2.5
v -78.6 9.8 -2.6
v -78.6 9.8 -2.8
v -78.6 9.8 -2.9
v -78.6 10.4 -0.5
v -78.6 10.4 -0.7
v -78.6 10.4 -0.8
v -78.6 10.4 -1
v -78.6 10.4 -1.1
v -78.6 10.4 -1.3
v -78.6 10.4 -1.4
v -78.6 10.4 -1.6
v -78.6 10.4 -1.7
v -78.6 10.4 -1.9
v -78.6 10.4 -2
v -78.6 10.4 -2.2
v -78.6 10.4 -2.3
v -78.6 10.4 -2.5
v -78.6 10.4 -2.6
v -78.6 10.4 -2.8
v -78.6 10.4 -2.9
v -78.6 10.4 -3
v -78.6 10.5 -0.5
v -78.6 10.5 -3
v -79.2 6.8 -1.7
v -79.2 6.8 -1.9
v -79.2 8.6 -1.7
v -79.2 8.6 -1.9
v -79.2 9.8 -0.5
v -79.2 9.8 -0.6
v -79.2 9.8 -1.7
v -79.2 9.8 -1.9
v -79.2 11.6 -0.5
v -79.2 11.6 -0.6
v -79.2 11.6 -1.7
v -79.2 11.6 -1.9
v -84.6 9.6 2.9
v -84.6 9.6 -8.4
v -84.6 9.8 3
v -84.6 9.8 2.9
v -84.6 10.5 3
v -84.6 10.5 2.9
v -84.6 10.6 3
v -84.6 10.6 2.9
v -84.6 11.3 3
v -84.6 11.3 2.9
v -84.6 11.4 3
v -84.6 11.4 2.9
v -84.6 12.1 3
v -84.6 12.1 2.9
v -84.6 12.2 3
v -84.6 12.2 2.9
v -84.6 12.9 3
v -84.6 12.9 2.9
v -84.6 13 3
v -84.6 13 2.9
v -84.6 13.7 3
v -84.6 13.7 2.9
v -84.6 13.8 3
v -84.6 13.8 2.9
v -84.6 14.5 3
v -84.6 14.5 2.9
v -84.6 14.6 3
v -84.6 14.6 2.9
v -84.6 15.3 3
v -84.6 15.3 2.9
v -84.6 15.3 -8.4
v -85.2 0.6 2.2
v -85.2 0.6 -8.4
v -85.2 2.7 2.3
v -85.2 2.7 2.2
v -85.2 3 2.3
v -85.2 3 2.2
v -85.2 3.1 2.3
v -85.2 3.1 2.2
v -85.2 3.8 2.3
v -85.2 3.8 2.2
v -85.2 3.9 2.3
v -85.2 3.9 2.2
v -85.2 4.6 2.3
v -85.2 4.6 2.2
v -85.2 4.7 2.3
v -85.2 4.7 2.2
v -85.2 5.4 2.3
v -85.2 5.4 2.2
v -85.2 5.5 2.3
v -85.2 5.5 2.2
v -85.2 6.2 2.3
v -85.2 6.2 2.2
v -85.2 6.3 2.3
v -85.2 6.3 2.2
v -85.2 7 2.3
v -85.2 7 2.2
v -85.2 7.1 2.3
v -85.2 7.1 2.2
v -85.2 7.8 2.3
v -85.2 7.8 2.2
v -85.2 7.9 2.3
v -85.2 7.9 2.2
v -85.2 8.6 2.3
v -85.2 8.6 2.2
v -85.2 8.7 2.3
v -85.2 8.7 2.2
v -85.2 9.4 2.3
v -85.2 9.4 2.2
v -85.2 9.6 2.2
v -85.2 9.6 -8.4
v -85.4 11.3 3.1
v -85.4 11.3 3
v -85.4 11.3 2.9
v -85.4 11.4 3
v -85.4 11.4 2.9
v -85.4 12.1 3
v -85.4 12.1 2.9
v -85.4 12.2 3
v -85.4 12.2 2.9
v -85.4 12.9 3
v -85.4 12.9 2.9
v -85.4 13 3
v -85.4 13 2.9
v -85.4 13.7 3
v -85.4 13.7 2.9
v -85.4 13.8 3.1
v -85.4 13.8 3
v -85.4 13.8 2.9
v -85.5 10.6 3
v -85.5 10.6 2.9
v -85.5 11.3 3
v -85.5 11.3 2.9
v -85.6 13.8 3
v -85.6 13.8 2.9
v -85.6 14.5 3
v -85.6 14.5 2.9
v -85.7 3.9 2.3
v -85.7 3.9 2.2
v -85.7 4.6 2.3
v -85.7 4.6 2.2
v -86 7.1 2.3
v -86 7.1 2.2
v -86 7.8 2.3
v -86 7.8 2.2
v -86 11.4 3.1
v -86 11.4 2.8
v -86 13.6 3.1
v -86 13.6 2.8
v -86.2 5.5 2.3
v -86.2 5.5 2.2
v -86.2 6.2 2.3
v -86.2 6.2 2.2
v -86.6 3.1 2.3
v -86.6 3.1 2.2
v -86.6 3.8 2.3
v -86.6 3.8 2.2
v -86.6 11.4 3.1
v -86.6 11.4 2.8
v -86.6 13.6 3.1
v -86.6 13.6 2.8
v -87 4.7 2.3
v -87 4.7 2.2
v -87 5.4 2.3
v -87 5.4 2.2
v -87 6.3 2.3
v -87 6.3 2.2
v -87 7 2.3
v -87 7 2.2
v -87 7.9 2.3
v -87 7.9 2.2
v -87 8.6 2.3
v -87 8.6 2.2
v -87 9.8 3
v -87 9.8 2.9
v -87 10.5 3
v -87 10.5 2.9
v -87.1 2.7 2.3
v -87.1 2.7 2.2
v -87.1 3 2.3
v -87.1 3 2.2
v -87.3 14.6 3
v -87.3 14.6 2.9
v -87.3 15.3 3
v -87.3 15.3 2.9
v -87.9 8.7 2.3
v -87.9 8.7 2.2
v -87.9 9.4 2.3
v -87.9 9.4 2.2
v -88.2 10.6 3
v -88.2 10.6 2.9
v -88.2 11.3 3
v -88.2 11.3 2.9
v -88.2 13 3
v -88.2 13 2.9
v -88.2 13.7 3
v -88.2 13.7 2.9
v -88.3 12.2 3
v -88.3 12.2 2.9
v -88.3 12.9 3
v -88.3 12.9 2.9
v -88.3 13.8 3
v -88.3 13.8 2.9
v -88.3 14.5 3
v -88.3 14.5 2.9
v -88.4 3.9 2.3
v -88.4 3.9 2.2
v -88.4 4.6 2.3
v -88.4 4.6 2.2
v -88.7 7.1 2.3
v -88.7 7.1 2.2
v -88.7 7.8 2.3
v -88.7 7.8 2.2
v -88.9 5.5 2.3
v -88.9 5.5 2.2
v -88.9 6.2 2.3
v -88.9 6.2 2.2
v -88.9 11.4 3
v -88.9 11.4 2.9
v -88.9 12.1 3
v -88.9 12.1 2.9
v -89 0.6 2.1
v -89 0.6 2
v -89 2.7 2.1
v -89 2.7 2
v -89.3 9.8 3
v -89.3 9.8 2.9
v -89.3 10.5 3
v -89.3 10.5 2.9
v -89.7 6.3 2.3
v -89.7 6.3 2.2
v -89.7 7 2.3
v -89.7 7 2.2
v -89.7 7.9 2.3
v -89.7 7.9 2.2
v -89.7 8.6 2.3
v -89.7 8.6 2.2
v -90.2 8.7 2.3
v -90.2 8.7 2.2
v -90.2 9.4 2.3
v -90.2 9.4 2.2
v -91 7.1 2.3
v -91 7.1 2.2
v -91 7.8 2.3
v -91 7.8 2.2
v -91.8 0.6 2.1
v -91.8 0.6 2
v -91.8 0.6 1.9
v -91.8 2.7 2.1
v -91.8 2.7 2
v -91.8 2.7 1.9
v -91.9 0.6 1.4
v -91.9 0.6 1.3
v -91.9 2.7 1.4
v -91.9 2.7 1.3
v -91.9 15.3 1.4
v -91.9 15.3 1.3
v -91.9 15.3 -8.4
v -91.9 17.5 1.4
v -91.9 17.5 -8.4
v -94.1 7.5 3.1
v -94.1 7.5 1.4
v -94.1 7.6 3.1
v -94.1 7.6 1.4
v -94.2 5.8 3
v -94.2 5.8 1.4
v -94.2 7.5 3
v -94.2 7.5 1.4
v -94.2 12 3
v -94.2 12 1.4
v -94.2 13.7 3
v -94.2 13.7 1.4
v -96.7 0.6 1.5
v -96.7 0.6 1.4
v -96.7 5.8 1.5
v -96.7 5.8 1.4
v -97.3 6.5 1.6
v -97.3 6.5 1.4
v -97.3 9.1 1.6
v -97.3 9.1 1.4
v -98.6 6.3 1.5
v -98.6 6.3 1.4
v -98.6 6.3 1.3
v -98.6 6.4 1.6
v -98.6 6.4 1.5
v -98.6 6.4 1.4
v -98.6 8.9 1.6
v -98.6 8.9 1.4
v -98.6 8.9 1.3
v -98.8 0.6 1.5
v -98.8 0.6 0.6
v -98.8 4.6 1.5
v -98.8 4.6 0.6
v -99.8 6.4 2.7
v -99.8 6.4 -1.7
v -99.8 7.5 2.7
v -99.8 7.5 -1.7
v -99.8 7.6 2.7
v -99.8 7.6 -1.7
v -78.7 6.8 -0.7
v -78.7 6.8 -0.8
v -78.7 6.8 -1
v -78.7 6.8 -1.1
v -78.7 6.8 -1.3
v -78.7 6.8 -1.4
v -78.7 6.8 -1.6
v -78.7 6.8 -1.7
v -78.7 6.8 -1.9
v -78.7 6.8 -2
v -78.7 6.8 -2.2
v -78.7 6.8 -2.3
v -78.7 6.8 -2.5
v -78.7 6.8 -2.6
v -78.7 6.8 -2.8
v -78.7 6.8 -2.9
v -78.7 7.4 -0.6
v -78.7 7.4 -0.7
v -78.7 7.4 -0.8
v -78.7 7.4 -1
v -78.7 7.4 -1.1
v -78.7 7.4 -1.3
v -78.7 7.4 -1.4
v -78.7 7.4 -1.6
v -78.7 7.4 -1.7
v -78.7 7.4 -1.9
v -78.7 7.4 -2
v -78.7 7.4 -2.2
v -78.7 7.4 -2.3
v -78.7 7.4 -2.5
v -78.7 7.4 -2.6
v -78.7 7.4 -2.8
v -78.7 7.4 -2.9
v -78.7 7.4 -3
v -78.7 7.5 -0.6
v -78.7 7.5 -3
v -78.7 9.8 -0.7
v -78.7 9.8 -0.8
v -78.7 9.8 -1
v -78.7 9.8 -1.1
v -78.7 9.8 -1.3
v -78.7 9.8 -1.4
v -78.7 9.8 -1.6
v -78.7 9.8 -1.7
v -78.7 9.8 -1.9
v -78.7 9.8 -2
v -78.7 9.8 -2.2
v -78.7 9.8 -2.3
v -78.7 9.8 -2.5
v -78.7 9.8 -2.6
v -78.7 9.8 -2.8
v -78.7 9.8 -2.9
v -78.7 10.4 -0.5
v -78.7 10.4 -0.7
v -78.7 10.4 -0.8
v -78.7 10.4 -1
v -78.7 10.4 -1.1
v -78.7 10.4 -1.3
v -78.7 10.4 -1.4
v -78.7 10.4 -1.6
v -78.7 10.4 -1.7
v -78.7 10.4 -1.9
v -78.7 10.4 -2
v -78.7 10.4 -2.2
v -78.7 10.4 -2.3
v -78.7 10.4 -2.5
v -78.7 10.4 -2.6
v -78.7 10.4 -2.8
v -78.7 10.4 -2.9
v -78.7 10.4 -3
v -78.7 10.5 -0.5
v -78.7 10.5 -3
v -79.3 6.8 -1.7
v -79.3 6.8 -1.9
v -79.3 8.6 -1.7
v -79.3 8.6 -1.9
v -79.3 9.8 -0.5
v -79.3 9.8 -0.6
v -79.3 9.8 -1.7
v -79.3 9.8 -1.9
v -79.3 11.6 -0.5
v -79.3 11.6 -0.6
v -79.3 11.6 -1.7
v -79.3 11.6 -1.9
v -85.3 0.6 2.1
v -85.3 0.6 1.9
v -85.3 0.6 1.4
v -85.3 0.6 1.3
v -85.3 2.7 2.1
v -85.3 2.7 1.9
v -85.3 2.7 1.4
v -85.3 2.7 1.3
v -85.4 10.6 3
v -85.4 10.6 2.9
v -85.4 11.3 3
v -85.4 11.3 2.9
v -85.5 11.4 3.1
v -85.5 11.4 2.8
v -85.5 13.6 3.1
v -85.5 13.6 2.8
v -85.5 13.8 3
v -85.5 13.8 2.9
v -85.5 14.5 3
v -85.5 14.5 2.9
v -85.6 3.9 2.3
v -85.6 3.9 2.2
v -85.6 4.6 2.3
v -85.6 4.6 2.2
v -85.9 7.1 2.3
v -85.9 7.1 2.2
v -85.9 7.8 2.3
v -85.9 7.8 2.2
v -86.1 5.5 2.3
v -86.1 5.5 2.2
v -86.1 6.2 2.3
v -86.1 6.2 2.2
v -86.1 11.4 3.1
v -86.1 11.4 2.8
v -86.1 13.6 3.1
v -86.1 13.6 2.8
v -86.5 3.1 2.3
v -86.5 3.1 2.2
v -86.5 3.8 2.3
v -86.5 3.8 2.2
v -86.7 11.3 3.1
v -86.7 11.3 3
v -86.7 11.3 2.9
v -86.7 11.4 3
v -86.7 11.4 2.9
v -86.7 12.1 3
v -86.7 12.1 2.9
v -86.7 12.2 3
v -86.7 12.2 2.9
v -86.7 12.9 3
v -86.7 12.9 2.9
v -86.7 13 3
v -86.7 13 2.9
v -86.7 13.7 3
v -86.7 13.7 2.9
v -86.7 13.8 3.1
v -86.7 13.8 3
v -86.7 13.8 2.9
v -86.9 4.7 2.3
v -86.9 4.7 2.2
v -86.9 5.4 2.3
v -86.9 5.4 2.2
v -86.9 6.3 2.3
v -86.9 6.3 2.2
v -86.9 7 2.3
v -86.9 7 2.2
v -86.9 7.9 2.3
v -86.9 7.9 2.2
v -86.9 8.6 2.3
v -86.9 8.6 2.2
v -86.9 9.8 3
v -86.9 9.8 2.9
v -86.9 10.5 3
v -86.9 10.5 2.9
v -87 2.7 2.3
v -87 2.7 2.2
v -87 3 2.3
v -87 3 2.2
v -87.2 14.6 3
v -87.2 14.6 2.9
v -87.2 15.3 3
v -87.2 15.3 2.9
v -87.8 8.7 2.3
v -87.8 8.7 2.2
v -87.8 9.4 2.3
v -87.8 9.4 2.2
v -88.1 10.6 3
v -88.1 10.6 2.9
v -88.1 11.3 3
v -88.1 11.3 2.9
v -88.1 13 3
v -88.1 13 2.9
v -88.1 13.7 3
v -88.1 13.7 2.9
v -88.2 12.2 3
v -88.2 12.2 2.9
v -88.2 12.9 3
v -88.2 12.9 2.9
v -88.2 13.8 3
v -88.2 13.8 2.9
v -88.2 14.5 3
v -88.2 14.5 2.9
v -88.3 3.9 2.3
v -88.3 3.9 2.2
v -88.3 4.6 2.3
v -88.3 4.6 2.2
v -88.6 7.1 2.3
v -88.6 7.1 2.2
v -88.6 7.8 2.3
v -88.6 7.8 2.2
v -88.8 5.5 2.3
v -88.8 5.5 2.2
v -88.8 6.2 2.3
v -88.8 6.2 2.2
v -88.8 11.4 3
v -88.8 11.4 2.9
v -88.8 12.1 3
v -88.8 12.1 2.9
v -89.2 9.8 3
v -89.2 9.8 2.9
v -89.2 10.5 3
v -89.2 10.5 2.9
v -89.5 9.6 2.9
v -89.5 9.6 2.2
v -89.5 9.8 3
v -89.5 9.8 2.9
v -89.5 10.5 3
v -89.5 10.5 2.9
v -89.5 10.6 3
v -89.5 10.6 2.9
v -89.5 11.3 3
v -89.5 11.3 2.9
v -89.5 11.4 3
v -89.5 11.4 2.9
v -89.5 12.1 3
v -89.5 12.1 2.9
v -89.5 12.2 3
v -89.5 12.2 2.9
v -89.5 12.9 3
v -89.5 12.9 2.9
v -89.5 13 3
v -89.5 13 2.9
v -89.5 13.7 3
v -89.5 13.7 2.9
v -89.5 13.8 3
v -89.5 13.8 2.9
v -89.5 14.5 3
v -89.5 14.5 2.9
v -89.5 14.6 3
v -89.5 14.6 2.9
v -89.5 15.3 3
v -89.5 15.3 2.9
v -89.5 15.3 2.2
v -89.6 2.7 2.3
v -89.6 2.7 2.2
v -89.6 3 2.3
v -89.6 3 2.2
v -89.6 3.1 2.3
v -89.6 3.1 2.2
v -89.6 3.8 2.3
v -89.6 3.8 2.2
v -89.6 3.9 2.3
v -89.6 3.9 2.2
v -89.6 4.6 2.3
v -89.6 4.6 2.2
v -89.6 4.7 2.3
v -89.6 4.7 2.2
v -89.6 5.4 2.3
v -89.6 5.4 2.2
v -89.6 5.5 2.3
v -89.6 5.5 2.2
v -89.6 6.2 2.3
v -89.6 6.2 2.2
v -89.6 6.3 2.3
v -89.6 6.3 2.2
v -89.6 7 2.3
v -89.6 7 2.2
v -89.6 7.9 2.3
v -89.6 7.9 2.2
v -89.6 8.6 2.3
v -89.6 8.6 2.2
v -90.1 8.7 2.3
v -90.1 8.7 2.2
v -90.1 9.4 2.3
v -90.1 9.4 2.2
v -90.9 7.1 2.3
v -90.9 7.1 2.2
v -90.9 7.8 2.3
v -90.9 7.8 2.2
v -91.1 0.6 2.1
v -91.1 0.6 2
v -91.1 2.7 2.1
v -91.1 2.7 2
v -91.9 0.6 2.2
v -91.9 0.6 2
v -91.9 0.6 1.4
v -91.9 5.7 2
v -91.9 5.7 1.4
v -91.9 5.8 1.4
v -91.9 6.3 2.3
v -91.9 6.3 2.2
v -91.9 7 2.3
v -91.9 7 2.2
v -91.9 7.1 2.3
v -91.9 7.1 2.2
v -91.9 7.8 2.3
v -91.9 7.8 2.2
v -91.9 7.9 2.3
v -91.9 7.9 2.2
v -91.9 8.6 2.3
v -91.9 8.6 2.2
v -91.9 8.7 2.3
v -91.9 8.7 2.2
v -91.9 9.4 2.3
v -91.9 9.4 2.2
v -91.9 15.3 2.2
v -91.9 15.3 1.4
v -94.4 6.4 2.7
v -94.4 6.4 1.4
v -94.4 7.5 2.7
v -94.4 7.5 1.4
v -94.4 7.6 2.7
v -94.4 7.6 1.4
v -97 0.6 1.5
v -97 0.6 0.6
v -97 4.6 1.5
v -97 4.6 0.6
v -97.5 6.3 1.5
v -97.5 6.3 1.4
v -97.5 6.3 1.3
v -97.5 6.4 1.5
v -97.5 6.4 1.4
v -97.5 6.5 1.6
v -97.5 6.5 1.4
v -97.5 8.9 1.6
v -97.5 8.9 1.4
v -97.5 8.9 1.3
v -98.8 6.4 1.6
v -98.8 6.4 1.4
v -98.8 9.1 1.6
v -98.8 9.1 1.4
v -99 0.6 1.5
v -99 0.6 1.4
v -99 0.6 -8.4
v -99 5.8 1.5
v -99 5.8 1.4
v -99 5.8 -2
v -99 6.4 1.4
v -99 6.4 -1.7
v -99 7.5 -1.7
v -99 7.5 -2
v -99 7.6 -1.7
v -99 7.6 -2
v -99 12 1.4
v -99 12 -2
v -99 13.7 1.4
v -99 13.7 -2
v -99 17.5 1.4
v -99 17.5 -8.4
v -100 5.8 3
v -100 5.8 -2
v -100 7.5 3.1
v -100 7.5 3
v -100 7.5 -2
v -100 7.6 3.1
v -100 7.6 -2
v -100 12 3
v -100 12 -2
v -100 13.7 3
v -100 13.7 -2
v -85.4 11.3 3.1
v -85.4 13.8 3.1
v -85.5 11.4 3.1
v -85.5 13.6 3.1
v -86 11.4 3.1
v -86 13.6 3.1
v -86.1 11.4 3.1
v -86.1 13.6 3.1
v -86.6 11.4 3.1
v -86.6 13.6 3.1
v -86.7 11.3 3.1
v -86.7 13.8 3.1
v -94.1 7.5 3.1
v -94.1 7.6 3.1
v -100 7.5 3.1
v -100 7.6 3.1
v -84.6 9.8 3
v -84.6 10.5 3
v -84.6 10.6 3
v -84.6 11.3 3
v -84.6 11.4 3
v -84.6 12.1 3
v -84.6 12.2 3
v -84.6 12.9 3
v -84.6 13 3
v -84.6 13.7 3
v -84.6 13.8 3
v -84.6 14.5 3
v -84.6 14.6 3
v -84.6 15.3 3
v -85.4 10.6 3
v -85.4 11.3 3
v -85.4 11.4 3
v -85.4 12.1 3
v -85.4 12.2 3
v -85.4 12.9 3
v -85.4 13 3
v -85.4 13.7 3
v -85.4 13.8 3
v -85.5 10.6 3
v -85.5 11.3 3
v -85.5 13.8 3
v -85.5 14.5 3
v -85.6 13.8 3
v -85.6 14.5 3
v -86.7 11.3 3
v -86.7 11.4 3
v -86.7 12.1 3
v -86.7 12.2 3
v -86.7 12.9 3
v -86.7 13 3
v -86.7 13.7 3
v -86.7 13.8 3
v -86.9 9.8 3
v -86.9 10.5 3
v -87 9.8 3
v -87 10.5 3
v -87.2 14.6 3
v -87.2 15.3 3
v -87.3 14.6 3
v -87.3 15.3 3
v -88.1 10.6 3
v -88.1 11.3 3
v -88.1 13 3
v -88.1 13.7 3
v -88.2 10.6 3
v -88.2 11.3 3
v -88.2 12.2 3
v -88.2 12.9 3
v -88.2 13 3
v -88.2 13.7 3
v -88.2 13.8 3
v -88.2 14.5 3
v -88.3 12.2 3
v -88.3 12.9 3
v -88.3 13.8 3
v -88.3 14.5 3
v -88.8 11.4 3
v -88.8 12.1 3
v -88.9 11.4 3
v -88.9 12.1 3
v -89.2 9.8 3
v -89.2 10.5 3
v -89.3 9.8 3
v -89.3 10.5 3
v -89.5 9.8 3
v -89.5 10.5 3
v -89.5 10.6 3
v -89.5 11.3 3
v -89.5 11.4 3
v -89.5 12.1 3
v -89.5 12.2 3
v -89.5 12.9 3
v -89.5 13 3
v -89.5 13.7 3
v -89.5 13.8 3
v -89.5 14.5 3
v -89.5 14.6 3
v -89.5 15.3 3
v -94.2 5.8 3
v -94.2 7.5 3
v -94.2 12 3
v -94.2 13.7 3
v -100 5.8 3
v -100 7.5 3
v -100 12 3
v -100 13.7 3
v -84.6 9.6 2.9
v -84.6 9.8 2.9
v -84.6 10.5 2.9
v -84.6 10.6 2.9
v -84.6 11.3 2.9
v -84.6 11.4 2.9
v -84.6 12.1 2.9
v -84.6 12.2 2.9
v -84.6 12.9 2.9
v -84.6 13 2.9
v -84.6 13.7 2.9
v -84.6 13.8 2.9
v -84.6 14.5 2.9
v -84.6 14.6 2.9
v -85.4 10.6 2.9
v -85.4 11.3 2.9
v -85.4 11.4 2.9
v -85.4 12.1 2.9
v -85.4 12.2 2.9
v -85.4 12.9 2.9
v -85.4 13 2.9
v -85.4 13.7 2.9
v -85.4 13.8 2.9
v -85.5 10.6 2.9
v -85.5 11.3 2.9
v -85.5 13.8 2.9
v -85.5 14.5 2.9
v -85.6 13.8 2.9
v -85.6 14.5 2.9
v -86.7 11.3 2.9
v -86.7 11.4 2.9
v -86.7 12.1 2.9
v -86.7 12.2 2.9
v -86.7 12.9 2.9
v -86.7 13 2.9
v -86.7 13.7 2.9
v -86.7 13.8 2.9
v -86.9 9.8 2.9
v -86.9 10.5 2.9
v -87 9.8 2.9
v -87 10.5 2.9
v -87.2 14.6 2.9
v -87.2 15.3 2.9
v -87.3 14.6 2.9
v -87.3 15.3 2.9
v -88.1 10.6 2.9
v -88.1 11.3 2.9
v -88.1 13 2.9
v -88.1 13.7 2.9
v -88.2 10.6 2.9
v -88.2 11.3 2.9
v -88.2 12.2 2.9
v -88.2 12.9 2.9
v -88.2 13 2.9
v -88.2 13.7 2.9
v -88.2 13.8 2.9
v -88.2 14.5 2.9
v -88.3 12.2 2.9
v -88.3 12.9 2.9
v -88.3 13.8 2.9
v -88.3 14.5 2.9
v -88.8 11.4 2.9
v -88.8 12.1 2.9
v -88.9 11.4 2.9
v -88.9 12.1 2.9
v -89.2 9.8 2.9
v -89.2 10.5 2.9
v -89.3 9.8 2.9
v -89.3 10.5 2.9
v -89.5 9.6 2.9
v -89.5 9.8 2.9
v -89.5 10.5 2.9
v -89.5 10.6 2.9
v -89.5 11.3 2.9
v -89.5 11.4 2.9
v -89.5 12.1 2.9
v -89.5 12.2 2.9
v -89.5 12.9 2.9
v -89.5 13 2.9
v -89.5 13.7 2.9
v -89.5 13.8 2.9
v -89.5 14.5 2.9
v -89.5 14.6 2.9
v -85.5 11.4 2.8
v -85.5 13.6 2.8
v -86 11.4 2.8
v -86 13.6 2.8
v -86.1 11.4 2.8
v -86.1 13.6 2.8
v -86.6 11.4 2.8
v -86.6 13.6 2.8
v -85.2 2.7 2.3
v -85.2 3 2.3
v -85.2 3.1 2.3
v -85.2 3.8 2.3
v -85.2 3.9 2.3
v -85.2 4.6 2.3
v -85.2 4.7 2.3
v -85.2 5.4 2.3
v -85.2 5.5 2.3
v -85.2 6.2 2.3
v -85.2 6.3 2.3
v -85.2 7 2.3
v -85.2 7.1 2.3
v -85.2 7.8 2.3
v -85.2 7.9 2.3
v -85.2 8.6 2.3
v -85.2 8.7 2.3
v -85.2 9.4 2.3
v -85.6 3.9 2.3
v -85.6 4.6 2.3
v -85.7 3.9 2.3
v -85.7 4.6 2.3
v -85.9 7.1 2.3
v -85.9 7.8 2.3
v -86 7.1 2.3
v -86 7.8 2.3
v -86.1 5.5 2.3
v -86.1 6.2 2.3
v -86.2 5.5 2.3
v -86.2 6.2 2.3
v -86.5 3.1 2.3
v -86.5 3.8 2.3
v -86.6 3.1 2.3
v -86.6 3.8 2.3
v -86.9 4.7 2.3
v -86.9 5.4 2.3
v -86.9 6.3 2.3
v -86.9 7 2.3
v -86.9 7.9 2.3
v -86.9 8.6 2.3
v -87 2.7 2.3
v -87 3 2.3
v -87 4.7 2.3
v -87 5.4 2.3
v -87 6.3 2.3
v -87 7 2.3
v -87 7.9 2.3
v -87 8.6 2.3
v -87.1 2.7 2.3
v -87.1 3 2.3
v -87.8 8.7 2.3
v -87.8 9.4 2.3
v -87.9 8.7 2.3
v -87.9 9.4 2.3
v -88.3 3.9 2.3
v -88.3 4.6 2.3
v -88.4 3.9 2.3
v -88.4 4.6 2.3
v -88.6 7.1 2.3
v -88.6 7.8 2.3
v -88.7 7.1 2.3
v -88.7 7.8 2.3
v -88.8 5.5 2.3
v -88.8 6.2 2.3
v -88.9 5.5 2.3
v -88.9 6.2 2.3
v -89.6 2.7 2.3
v -89.6 3 2.3
v -89.6 3.1 2.3
v -89.6 3.8 2.3
v -89.6 3.9 2.3
v -89.6 4.6 2.3
v -89.6 4.7 2.3
v -89.6 5.4 2.3
v -89.6 5.5 2.3
v -89.6 6.2 2.3
v -89.6 6.3 2.3
v -89.6 7 2.3
v -89.6 7.9 2.3
v -89.6 8.6 2.3
v -89.7 6.3 2.3
v -89.7 7 2.3
v -89.7 7.9 2.3
v -89.7 8.6 2.3
v -90.1 8.7 2.3
v -90.1 9.4 2.3
v -90.2 8.7 2.3
v -90.2 9.4 2.3
v -90.9 7.1 2.3
v -90.9 7.8 2.3
v -91 7.1 2.3
v -91 7.8 2.3
v -91.9 6.3 2.3
v -91.9 7 2.3
v -91.9 7.1 2.3
v -91.9 7.8 2.3
v -91.9 7.9 2.3
v -91.9 8.6 2.3
v -91.9 8.7 2.3
v -91.9 9.4 2.3
v -85.2 0.6 2.2
v -85.2 2.7 2.2
v -85.2 3 2.2
v -85.2 3.1 2.2
v -85.2 3.8 2.2
v -85.2 3.9 2.2
v -85.2 4.6 2.2
v -85.2 4.7 2.2
v -85.2 5.4 2.2
v -85.2 5.5 2.2
v -85.2 6.2 2.2
v -85.2 6.3 2.2
v -85.2 7 2.2
v -85.2 7.1 2.2
v -85.2 7.8 2.2
v -85.2 7.9 2.2
v -85.2 8.6 2.2
v -85.2 8.7 2.2
v -85.2 9.4 2.2
v -85.2 9.6 2.2
v -85.6 3.9 2.2
v -85.6 4.6 2.2
v -85.7 3.9 2.2
v -85.7 4.6 2.2
v -85.9 7.1 2.2
v -85.9 7.8 2.2
v -86 7.1 2.2
v -86 7.8 2.2
v -86.1 5.5 2.2
v -86.1 6.2 2.2
v -86.2 5.5 2.2
v -86.2 6.2 2.2
v -86.5 3.1 2.2
v -86.5 3.8 2.2
v -86.6 3.1 2.2
v -86.6 3.8 2.2
v -86.9 4.7 2.2
v -86.9 5.4 2.2
v -86.9 6.3 2.2
v -86.9 7 2.2
v -86.9 7.9 2.2
v -86.9 8.6 2.2
v -87 2.7 2.2
v -87 3 2.2
v -87 4.7 2.2
v -87 5.4 2.2
v -87 6.3 2.2
v -87 7 2.2
v -87 7.9 2.2
v -87 8.6 2.2
v -87.1 2.7 2.2
v -87.1 3 2.2
v -87.8 8.7 2.2
v -87.8 9.4 2.2
v -87.9 8.7 2.2
v -87.9 9.4 2.2
v -88.3 3.9 2.2
v -88.3 4.6 2.2
v -88.4 3.9 2.2
v -88.4 4.6 2.2
v -88.6 7.1 2.2
v -88.6 7.8 2.2
v -88.7 7.1 2.2
v -88.7 7.8 2.2
v -88.8 5.5 2.2
v -88.8 6.2 2.2
v -88.9 5.5 2.2
v -88.9 6.2 2.2
v -89.5 9.6 2.2
v -89.5 15.3 2.2
v -89.6 2.7 2.2
v -89.6 3 2.2
v -89.6 3.1 2.2
v -89.6 3.8 2.2
v -89.6 3.9 2.2
v -89.6 4.6 2.2
v -89.6 4.7 2.2
v -89.6 5.4 2.2
v -89.6 5.5 2.2
v -89.6 6.2 2.2
v -89.6 6.3 2.2
v -89.6 7 2.2
v -89.6 7.9 2.2
v -89.6 8.6 2.2
v -89.7 6.3 2.2
v -89.7 7 2.2
v -89.7 7.9 2.2
v -89.7 8.6 2.2
v -90.1 8.7 2.2
v -90.1 9.4 2.2
v -90.2 8.7 2.2
v -90.2 9.4 2.2
v -90.9 7.1 2.2
v -90.9 7.8 2.2
v -91 7.1 2.2
v -91 7.8 2.2
v -91.9 0.6 2.2
v -91.9 6.3 2.2
v -91.9 7 2.2
v -91.9 7.1 2.2
v -91.9 7.8 2.2
v -91.9 7.9 2.2
v -91.9 8.6 2.2
v -91.9 8.7 2.2
v -91.9 9.4 2.2
v -91.9 15.3 2.2
v -85.3 0.6 1.9
v -85.3 2.7 1.9
v -91.6 2.7 1.9
v -91.8 0.6 1.9
v -91.8 2.7 1.9
v -97.3 6.5 1.6
v -97.3 9.1 1.6
v -97.5 6.5 1.6
v -97.5 8.9 1.6
v -98.6 6.4 1.6
v -98.6 8.9 1.6
v -98.8 6.4 1.6
v -98.8 9.1 1.6
v -96.7 0.6 1.5
v -96.7 5.8 1.5
v -97 0.6 1.5
v -97 4.6 1.5
v -98.8 0.6 1.5
v -98.8 4.6 1.5
v -99 0.6 1.5
v -99 5.8 1.5
v -91.9 0.6 1.4
v -91.9 5.7 1.4
v -91.9 5.8 1.4
v -91.9 15.3 1.4
v -91.9 17.5 1.4
v -94.1 7.5 1.4
v -94.1 7.6 1.4
v -94.2 5.8 1.4
v -94.2 7.5 1.4
v -94.2 12 1.4
v -94.2 13.7 1.4
v -94.4 6.4 1.4
v -94.4 7.5 1.4
v -94.4 7.6 1.4
v -96.7 0.6 1.4
v -96.7 5.8 1.4
v -97.3 6.5 1.4
v -97.3 9.1 1.4
v -97.5 6.4 1.4
v -97.5 6.5 1.4
v -98.8 6.4 1.4
v -98.8 9.1 1.4
v -99 6.4 1.4
v -99 12 1.4
v -99 13.7 1.4
v -99 17.5 1.4
v -85.3 0.6 1.3
v -85.3 2.7 1.3
v -91.8 2.7 1.3
v -91.9 0.6 1.3
v -91.9 2.7 1.3
v -97.5 6.3 1.3
v -97.5 8.9 1.3
v -98.6 6.3 1.3
v -98.6 8.9 1.3
v -97 0.6 0.6
v -97 4.6 0.6
v -98.8 0.6 0.6
v -98.8 4.6 0.6
v -78.6 10.4 -0.5
v -78.6 10.5 -0.5
v -78.7 10.4 -0.5
v -78.7 10.5 -0.5
v -79.2 9.8 -0.5
v -79.2 11.6 -0.5
v -79.3 9.8 -0.5
v -79.3 11.6 -0.5
v -78.6 7.4 -0.6
v -78.6 7.5 -0.6
v -78.7 7.4 -0.6
v -78.7 7.5 -0.6
v -78.6 6.8 -0.7
v -78.6 7.4 -0.7
v -78.6 9.8 -0.7
v -78.6 10.4 -0.7
v -78.7 6.8 -0.7
v -78.7 7.4 -0.7
v -78.7 9.8 -0.7
v -78.7 10.4 -0.7
v -78.6 6.8 -1
v -78.6 7.4 -1
v -78.6 9.8 -1
v -78.6 10.4 -1
v -78.7 6.8 -1
v -78.7 7.4 -1
v -78.7 9.8 -1
v -78.7 10.4 -1
v -78.6 6.8 -1.3
v -78.6 7.4 -1.3
v -78.6 9.8 -1.3
v -78.6 10.4 -1.3
v -78.7 6.8 -1.3
v -78.7 7.4 -1.3
v -78.7 9.8 -1.3
v -78.7 10.4 -1.3
v -78.6 6.8 -1.6
v -78.6 7.4 -1.6
v -78.6 9.8 -1.6
v -78.6 10.4 -1.6
v -78.7 6.8 -1.6
v -78.7 7.4 -1.6
v -78.7 9.8 -1.6
v -78.7 10.4 -1.6
v -79.2 6.8 -1.7
v -79.2 8.6 -1.7
v -79.2 9.8 -1.7
v -79.2 11.6 -1.7
v -79.3 6.8 -1.7
v -79.3 8.6 -1.7
v -79.3 9.8 -1.7
v -79.3 11.6 -1.7
v -99 6.4 -1.7
v -99 7.5 -1.7
v -99 7.6 -1.7
v -99.8 6.4 -1.7
v -99.8 7.5 -1.7
v -99.8 7.6 -1.7
v -78.6 6.8 -1.9
v -78.6 7.4 -1.9
v -78.6 9.8 -1.9
v -78.6 10.4 -1.9
v -78.7 6.8 -1.9
v -78.7 7.4 -1.9
v -78.7 9.8 -1.9
v -78.7 10.4 -1.9
v -78.6 6.8 -2.2
v -78.6 7.4 -2.2
v -78.6 9.8 -2.2
v -78.6 10.4 -2.2
v -78.7 6.8 -2.2
v -78.7 7.4 -2.2
v -78.7 9.8 -2.2
v -78.7 10.4 -2.2
v -78.6 6.8 -2.5
v -78.6 7.4 -2.5
v -78.6 9.8 -2.5
v -78.6 10.4 -2.5
v -78.7 6.8 -2.5
v -78.7 7.4 -2.5
v -78.7 9.8 -2.5
v -78.7 10.4 -2.5
v -78.6 6.8 -2.8
v -78.6 7.4 -2.8
v -78.6 9.8 -2.8
v -78.6 10.4 -2.8
v -78.7 6.8 -2.8
v -78.7 7.4 -2.8
v -78.7 9.8 -2.8
v -78.7 10.4 -2.8
v -94.4 6.4 2.7
v -94.4 7.5 2.7
v -94.4 7.6 2.7
v -99.8 6.4 2.7
v -99.8 7.5 2.7
v -99.8 7.6 2.7
v -85.3 0.6 2.1
v -85.3 2.7 2.1
v -89 0.6 2.1
v -89 2.7 2.1
v -91.1 0.6 2.1
v -91.1 2.7 2.1
v -91.6 2.7 2.1
v -91.8 0.6 2.1
v -91.8 2.7 2.1
v -89 0.6 2
v -89 2.7 2
v -91.1 0.6 2
v -91.1 2.7 2
v -97.5 6.3 1.5
v -97.5 6.4 1.5
v -98.6 6.3 1.5
v -98.6 6.4 1.5
v -85.3 0.6 1.4
v -85.3 2.7 1.4
v -91.8 0.6 1.4
v -91.8 2.7 1.4
v -91.9 0.6 1.4
v -91.9 2.7 1.4
v -79.2 9.8 -0.6
v -79.2 11.6 -0.6
v -79.3 9.8 -0.6
v -79.3 11.6 -0.6
v -78.6 6.8 -0.8
v -78.6 7.4 -0.8
v -78.6 9.8 -0.8
v -78.6 10.4 -0.8
v -78.7 6.8 -0.8
v -78.7 7.4 -0.8
v -78.7 9.8 -0.8
v -78.7 10.4 -0.8
v -78.6 6.8 -1.1
v -78.6 7.4 -1.1
v -78.6 9.8 -1.1
v -78.6 10.4 -1.1
v -78.7 6.8 -1.1
v -78.7 7.4 -1.1
v -78.7 9.8 -1.1
v -78.7 10.4 -1.1
v -78.6 6.8 -1.4
v -78.6 7.4 -1.4
v -78.6 9.8 -1.4
v -78.6 10.4 -1.4
v -78.7 6.8 -1.4
v -78.7 7.4 -1.4
v -78.7 9.8 -1.4
v -78.7 10.4 -1.4
v -78.6 6.8 -1.7
v -78.6 7.4 -1.7
v -78.6 9.8 -1.7
v -78.6 10.4 -1.7
v -78.7 6.8 -1.7
v -78.7 7.4 -1.7
v -78.7 9.8 -1.7
v -78.7 10.4 -1.7
v -79.2 6.8 -1.9
v -79.2 8.6 -1.9
v -79.2 9.8 -1.9
v -79.2 11.6 -1.9
v -79.3 6.8 -1.9
v -79.3 8.6 -1.9
v -79.3 9.8 -1.9
v -79.3 11.6 -1.9
v -78.6 6.8 -2
v -78.6 7.4 -2
v -78.6 9.8 -2
v -78.6 10.4 -2
v -78.7 6.8 -2
v -78.7 7.4 -2
v -78.7 9.8 -2
v -78.7 10.4 -2
v -99 5.8 -2
v -99 7.5 -2
v -99 7.6 -2
v -99 12 -2
v -99 13.7 -2
v -100 5.8 -2
v -100 7.5 -2
v -100 7.6 -2
v -100 12 -2
v -100 13.7 -2
v -78.6 6.8 -2.3
v -78.6 7.4 -2.3
v -78.6 9.8 -2.3
v -78.6 10.4 -2.3
v -78.7 6.8 -2.3
v -78.7 7.4 -2.3
v -78.7 9.8 -2.3
v -78.7 10.4 -2.3
v -78.6 6.8 -2.6
v -78.6 7.4 -2.6
v -78.6 9.8 -2.6
v -78.6 10.4 -2.6
v -78.7 6.8 -2.6
v -78.7 7.4 -2.6
v -78.7 9.8 -2.6
v -78.7 10.4 -2.6
v -78.6 6.8 -2.9
v -78.6 7.4 -2.9
v -78.6 9.8 -2.9
v -78.6 10.4 -2.9
v -78.7 6.8 -2.9
v -78.7 7.4 -2.9
v -78.7 9.8 -2.9
v -78.7 10.4 -2.9
v -78.6 7.4 -3
v -78.6 7.5 -3
v -78.6 10.4 -3
v -78.6 10.5 -3
v -78.7 7.4 -3
v -78.7 7.5 -3
v -78.7 10.4 -3
v -78.7 10.5 -3
v -84.6 9.6 -8.4
v -84.6 15.3 -8.4
v -85.2 0.6 -8.4
v -85.2 9.6 -8.4
v -91.9 15.3 -8.4
v -91.9 17.5 -8.4
v -92 0.6 -8.4
v -92 15.3 -8.4
v -99 0.6 -8.4
v -99 17.5 -8.4
v -85.2 0.6 2.2
v -91.9 0.6 2.2
v -85.3 0.6 2.1
v -89 0.6 2.1
v -91.1 0.6 2.1
v -91.8 0.6 2.1
v -89 0.6 2
v -91.1 0.6 2
v -91.8 0.6 2
v -91.9 0.6 2
v -85.3 0.6 1.9
v -91.8 0.6 1.9
v -96.7 0.6 1.5
v -97 0.6 1.5
v -98.8 0.6 1.5
v -99 0.6 1.5
v -85.3 0.6 1.4
v -91.8 0.6 1.4
v -91.9 0.6 1.4
v -96.7 0.6 1.4
v -96.9 0.6 1.4
v -98.9 0.6 1.4
v -99 0.6 1.4
v -85.3 0.6 1.3
v -91.9 0.6 1.3
v -96.7 0.6 1.3
v -96.9 0.6 1.3
v -96.9 0.6 0.6
v -97 0.6 0.6
v -98.8 0.6 0.6
v -98.9 0.6 0.6
v -97 0.6 0.5
v -98.2 0.6 0.5
v -98.8 0.6 0.5
v -92 0.6 -7.7
v -98.2 0.6 -7.7
v -85.2 0.6 -8.4
v -92 0.6 -8.4
v -99 0.6 -8.4
v -85.2 2.7 2.3
v -87 2.7 2.3
v -87.1 2.7 2.3
v -89.6 2.7 2.3
v -85.2 2.7 2.2
v -87 2.7 2.2
v -87.1 2.7 2.2
v -89.6 2.7 2.2
v -85.3 2.7 2.1
v -89 2.7 2.1
v -91.1 2.7 2.1
v -91.6 2.7 2.1
v -91.8 2.7 2.1
v -89 2.7 2
v -91.1 2.7 2
v -91.8 2.7 2
v -85.3 2.7 1.9
v -91.6 2.7 1.9
v -91.8 2.7 1.9
v -85.3 2.7 1.4
v -91.8 2.7 1.4
v -91.9 2.7 1.4
v -85.3 2.7 1.3
v -91.8 2.7 1.3
v -91.9 2.7 1.3
v -85.2 3.1 2.3
v -86.5 3.1 2.3
v -86.6 3.1 2.3
v -89.6 3.1 2.3
v -85.2 3.1 2.2
v -86.5 3.1 2.2
v -86.6 3.1 2.2
v -89.6 3.1 2.2
v -85.2 3.9 2.3
v -85.6 3.9 2.3
v -85.7 3.9 2.3
v -88.3 3.9 2.3
v -88.4 3.9 2.3
v -89.6 3.9 2.3
v -85.2 3.9 2.2
v -85.6 3.9 2.2
v -85.7 3.9 2.2
v -88.3 3.9 2.2
v -88.4 3.9 2.2
v -89.6 3.9 2.2
v -97 4.6 1.5
v -98.8 4.6 1.5
v -97 4.6 0.6
v -98.8 4.6 0.6
v -85.2 4.7 2.3
v -86.9 4.7 2.3
v -87 4.7 2.3
v -89.6 4.7 2.3
v -85.2 4.7 2.2
v -86.9 4.7 2.2
v -87 4.7 2.2
v -89.6 4.7 2.2
v -85.2 5.5 2.3
v -86.1 5.5 2.3
v -86.2 5.5 2.3
v -88.8 5.5 2.3
v -88.9 5.5 2.3
v -89.6 5.5 2.3
v -85.2 5.5 2.2
v -86.1 5.5 2.2
v -86.2 5.5 2.2
v -88.8 5.5 2.2
v -88.9 5.5 2.2
v -89.6 5.5 2.2
v -94.2 5.8 3
v -100 5.8 3
v -96.7 5.8 1.5
v -99 5.8 1.5
v -94.2 5.8 1.4
v -96.7 5.8 1.4
v -99 5.8 1.4
v -99 5.8 -2
v -100 5.8 -2
v -85.2 6.3 2.3
v -86.9 6.3 2.3
v -87 6.3 2.3
v -89.6 6.3 2.3
v -89.7 6.3 2.3
v -91.9 6.3 2.3
v -85.2 6.3 2.2
v -86.9 6.3 2.2
v -87 6.3 2.2
v -89.6 6.3 2.2
v -89.7 6.3 2.2
v -91.9 6.3 2.2
v -97.3 6.5 1.6
v -97.5 6.5 1.6
v -97.3 6.5 1.4
v -97.5 6.5 1.4
v -78.6 6.8 -0.7
v -78.7 6.8 -0.7
v -78.6 6.8 -0.8
v -78.7 6.8 -0.8
v -78.6 6.8 -1
v -78.7 6.8 -1
v -78.6 6.8 -1.1
v -78.7 6.8 -1.1
v -78.6 6.8 -1.3
v -78.7 6.8 -1.3
v -78.6 6.8 -1.4
v -78.7 6.8 -1.4
v -78.6 6.8 -1.6
v -78.7 6.8 -1.6
v -78.6 6.8 -1.7
v -78.7 6.8 -1.7
v -79.2 6.8 -1.7
v -79.3 6.8 -1.7
v -78.6 6.8 -1.9
v -78.7 6.8 -1.9
v -79.2 6.8 -1.9
v -79.3 6.8 -1.9
v -78.6 6.8 -2
v -78.7 6.8 -2
v -78.6 6.8 -2.2
v -78.7 6.8 -2.2
v -78.6 6.8 -2.3
v -78.7 6.8 -2.3
v -78.6 6.8 -2.5
v -78.7 6.8 -2.5
v -78.6 6.8 -2.6
v -78.7 6.8 -2.6
v -78.6 6.8 -2.8
v -78.7 6.8 -2.8
v -78.6 6.8 -2.9
v -78.7 6.8 -2.9
v -85.2 7.1 2.3
v -85.9 7.1 2.3
v -86 7.1 2.3
v -88.6 7.1 2.3
v -88.7 7.1 2.3
v -90.9 7.1 2.3
v -91 7.1 2.3
v -91.9 7.1 2.3
v -85.2 7.1 2.2
v -85.9 7.1 2.2
v -86 7.1 2.2
v -88.6 7.1 2.2
v -88.7 7.1 2.2
v -90.9 7.1 2.2
v -91 7.1 2.2
v -91.9 7.1 2.2
v -78.6 7.4 -0.6
v -78.7 7.4 -0.6
v -78.6 7.4 -0.7
v -78.7 7.4 -0.7
v -78.6 7.4 -0.8
v -78.7 7.4 -0.8
v -78.6 7.4 -1
v -78.7 7.4 -1
v -78.6 7.4 -1.1
v -78.7 7.4 -1.1
v -78.6 7.4 -1.3
v -78.7 7.4 -1.3
v -78.6 7.4 -1.4
v -78.7 7.4 -1.4
v -78.6 7.4 -1.6
v -78.7 7.4 -1.6
v -78.6 7.4 -1.7
v -78.7 7.4 -1.7
v -78.6 7.4 -1.9
v -78.7 7.4 -1.9
v -78.6 7.4 -2
v -78.7 7.4 -2
v -78.6 7.4 -2.2
v -78.7 7.4 -2.2
v -78.6 7.4 -2.3
v -78.7 7.4 -2.3
v -78.6 7.4 -2.5
v -78.7 7.4 -2.5
v -78.6 7.4 -2.6
v -78.7 7.4 -2.6
v -78.6 7.4 -2.8
v -78.7 7.4 -2.8
v -78.6 7.4 -2.9
v -78.7 7.4 -2.9
v -78.6 7.4 -3
v -78.7 7.4 -3
v -94.1 7.5 3.1
v -100 7.5 3.1
v -94.2 7.5 3
v -100 7.5 3
v -94.1 7.5 1.4
v -94.2 7.5 1.4
v -85.2 7.9 2.3
v -86.9 7.9 2.3
v -87 7.9 2.3
v -89.6 7.9 2.3
v -89.7 7.9 2.3
v -91.9 7.9 2.3
v -85.2 7.9 2.2
v -86.9 7.9 2.2
v -87 7.9 2.2
v -89.6 7.9 2.2
v -89.7 7.9 2.2
v -91.9 7.9 2.2
v -85.2 8.7 2.3
v -87.8 8.7 2.3
v -87.9 8.7 2.3
v -90.1 8.7 2.3
v -90.2 8.7 2.3
v -91.9 8.7 2.3
v -85.2 8.7 2.2
v -87.8 8.7 2.2
v -87.9 8.7 2.2
v -90.1 8.7 2.2
v -90.2 8.7 2.2
v -91.9 8.7 2.2
v -97.5 8.9 1.6
v -98.6 8.9 1.6
v -97.5 8.9 1.4
v -98.6 8.9 1.4
v -97.5 8.9 1.3
v -98.6 8.9 1.3
v -84.6 9.6 2.9
v -89.5 9.6 2.9
v -85.2 9.6 2.2
v -89.5 9.6 2.2
v -84.6 9.6 -8.4
v -85.2 9.6 -8.4
v -84.6 9.8 3
v -86.9 9.8 3
v -87 9.8 3
v -89.2 9.8 3
v -89.3 9.8 3
v -89.5 9.8 3
v -84.6 9.8 2.9
v -86.9 9.8 2.9
v -87 9.8 2.9
v -89.2 9.8 2.9
v -89.3 9.8 2.9
v -89.5 9.8 2.9
v -79.2 9.8 -0.5
v -79.3 9.8 -0.5
v -79.2 9.8 -0.6
v -79.3 9.8 -0.6
v -78.6 9.8 -0.7
v -78.7 9.8 -0.7
v -78.6 9.8 -0.8
v -78.7 9.8 -0.8
v -78.6 9.8 -1
v -78.7 9.8 -1
v -78.6 9.8 -1.1
v -78.7 9.8 -1.1
v -78.6 9.8 -1.3
v -78.7 9.8 -1.3
v -78.6 9.8 -1.4
v -78.7 9.8 -1.4
v -78.6 9.8 -1.6
v -78.7 9.8 -1.6
v -78.6 9.8 -1.7
v -78.7 9.8 -1.7
v -79.2 9.8 -1.7
v -79.3 9.8 -1.7
v -78.6 9.8 -1.9
v -78.7 9.8 -1.9
v -79.2 9.8 -1.9
v -79.3 9.8 -1.9
v -78.6 9.8 -2
v -78.7 9.8 -2
v -78.6 9.8 -2.2
v -78.7 9.8 -2.2
v -78.6 9.8 -2.3
v -78.7 9.8 -2.3
v -78.6 9.8 -2.5
v -78.7 9.8 -2.5
v -78.6 9.8 -2.6
v -78.7 9.8 -2.6
v -78.6 9.8 -2.8
v -78.7 9.8 -2.8
v -78.6 9.8 -2.9
v -78.7 9.8 -2.9
v -78.6 10.4 -0.5
v -78.7 10.4 -0.5
v -78.6 10.4 -0.7
v -78.7 10.4 -0.7
v -78.6 10.4 -0.8
v -78.7 10.4 -0.8
v -78.6 10.4 -1
v -78.7 10.4 -1
v -78.6 10.4 -1.1
v -78.7 10.4 -1.1
v -78.6 10.4 -1.3
v -78.7 10.4 -1.3
v -78.6 10.4 -1.4
v -78.7 10.4 -1.4
v -78.6 10.4 -1.6
v -78.7 10.4 -1.6
v -78.6 10.4 -1.7
v -78.7 10.4 -1.7
v -78.6 10.4 -1.9
v -78.7 10.4 -1.9
v -78.6 10.4 -2
v -78.7 10.4 -2
v -78.6 10.4 -2.2
v -78.7 10.4 -2.2
v -78.6 10.4 -2.3
v -78.7 10.4 -2.3
v -78.6 10.4 -2.5
v -78.7 10.4 -2.5
v -78.6 10.4 -2.6
v -78.7 10.4 -2.6
v -78.6 10.4 -2.8
v -78.7 10.4 -2.8
v -78.6 10.4 -2.9
v -78.7 10.4 -2.9
v -78.6 10.4 -3
v -78.7 10.4 -3
v -84.6 10.6 3
v -85.4 10.6 3
v -85.5 10.6 3
v -88.1 10.6 3
v -88.2 10.6 3
v -89.5 10.6 3
v -84.6 10.6 2.9
v -85.4 10.6 2.9
v -85.5 10.6 2.9
v -88.1 10.6 2.9
v -88.2 10.6 2.9
v -89.5 10.6 2.9
v -85.4 11.3 3.1
v -86.7 11.3 3.1
v -85.4 11.3 3
v -85.5 11.3 3
v -86.7 11.3 3
v -85.4 11.3 2.9
v -85.5 11.3 2.9
v -84.6 11.4 3
v -85.4 11.4 3
v -86.7 11.4 3
v -88.8 11.4 3
v -88.9 11.4 3
v -89.5 11.4 3
v -84.6 11.4 2.9
v -85.4 11.4 2.9
v -86.7 11.4 2.9
v -88.8 11.4 2.9
v -88.9 11.4 2.9
v -89.5 11.4 2.9
v -94.2 12 3
v -100 12 3
v -94.2 12 1.4
v -99 12 1.4
v -99 12 -2
v -100 12 -2
v -84.6 12.2 3
v -85.4 12.2 3
v -86.7 12.2 3
v -88.2 12.2 3
v -88.3 12.2 3
v -89.5 12.2 3
v -84.6 12.2 2.9
v -85.4 12.2 2.9
v -86.7 12.2 2.9
v -88.2 12.2 2.9
v -88.3 12.2 2.9
v -89.5 12.2 2.9
v -84.6 13 3
v -85.4 13 3
v -86.7 13 3
v -88.1 13 3
v -88.2 13 3
v -89.5 13 3
v -84.6 13 2.9
v -85.4 13 2.9
v -86.7 13 2.9
v -88.1 13 2.9
v -88.2 13 2.9
v -89.5 13 2.9
v -85.5 13.6 3.1
v -86 13.6 3.1
v -86.1 13.6 3.1
v -86.6 13.6 3.1
v -85.5 13.6 2.8
v -86 13.6 2.8
v -86.1 13.6 2.8
v -86.6 13.6 2.8
v -84.6 13.8 3
v -85.4 13.8 3
v -86.7 13.8 3
v -88.2 13.8 3
v -88.3 13.8 3
v -89.5 13.8 3
v -84.6 13.8 2.9
v -85.4 13.8 2.9
v -86.7 13.8 2.9
v -88.2 13.8 2.9
v -88.3 13.8 2.9
v -89.5 13.8 2.9
v -84.6 14.6 3
v -87.2 14.6 3
v -87.3 14.6 3
v -89.5 14.6 3
v -84.6 14.6 2.9
v -87.2 14.6 2.9
v -87.3 14.6 2.9
v -89.5 14.6 2.9
v -85.2 3 2.3
v -87 3 2.3
v -87.1 3 2.3
v -89.6 3 2.3
v -85.2 3 2.2
v -87 3 2.2
v -87.1 3 2.2
v -89.6 3 2.2
v -85.2 3.8 2.3
v -86.5 3.8 2.3
v -86.6 3.8 2.3
v -89.6 3.8 2.3
v -85.2 3.8 2.2
v -86.5 3.8 2.2
v -86.6 3.8 2.2
v -89.6 3.8 2.2
v -85.2 4.6 2.3
v -85.6 4.6 2.3
v -85.7 4.6 2.3
v -88.3 4.6 2.3
v -88.4 4.6 2.3
v -89.6 4.6 2.3
v -85.2 4.6 2.2
v -85.6 4.6 2.2
v -85.7 4.6 2.2
v -88.3 4.6 2.2
v -88.4 4.6 2.2
v -89.6 4.6 2.2
v -85.2 5.4 2.3
v -86.9 5.4 2.3
v -87 5.4 2.3
v -89.6 5.4 2.3
v -85.2 5.4 2.2
v -86.9 5.4 2.2
v -87 5.4 2.2
v -89.6 5.4 2.2
v -85.2 6.2 2.3
v -86.1 6.2 2.3
v -86.2 6.2 2.3
v -88.8 6.2 2.3
v -88.9 6.2 2.3
v -89.6 6.2 2.3
v -85.2 6.2 2.2
v -86.1 6.2 2.2
v -86.2 6.2 2.2
v -88.8 6.2 2.2
v -88.9 6.2 2.2
v -89.6 6.2 2.2
v -97.5 6.3 1.5
v -98.6 6.3 1.5
v -97.5 6.3 1.4
v -98.6 6.3 1.4
v -97.5 6.3 1.3
v -98.6 6.3 1.3
v -94.4 6.4 2.7
v -99.8 6.4 2.7
v -98.6 6.4 1.6
v -98.8 6.4 1.6
v -97.5 6.4 1.5
v -98.6 6.4 1.5
v -94.4 6.4 1.4
v -97.5 6.4 1.4
v -98.8 6.4 1.4
v -99 6.4 1.4
v -99 6.4 -1.7
v -99.8 6.4 -1.7
v -85.2 7 2.3
v -86.9 7 2.3
v -87 7 2.3
v -89.6 7 2.3
v -89.7 7 2.3
v -91.9 7 2.3
v -85.2 7 2.2
v -86.9 7 2.2
v -87 7 2.2
v -89.6 7 2.2
v -89.7 7 2.2
v -91.9 7 2.2
v -78.6 7.5 -0.6
v -78.7 7.5 -0.6
v -78.6 7.5 -3
v -78.7 7.5 -3
v -94.1 7.6 3.1
v -100 7.6 3.1
v -94.4 7.6 2.7
v -99.8 7.6 2.7
v -94.1 7.6 1.4
v -94.4 7.6 1.4
v -99 7.6 -1.7
v -99.8 7.6 -1.7
v -99 7.6 -2
v -100 7.6 -2
v -85.2 7.8 2.3
v -85.9 7.8 2.3
v -86 7.8 2.3
v -88.6 7.8 2.3
v -88.7 7.8 2.3
v -90.9 7.8 2.3
v -91 7.8 2.3
v -91.9 7.8 2.3
v -85.2 7.8 2.2
v -85.9 7.8 2.2
v -86 7.8 2.2
v -88.6 7.8 2.2
v -88.7 7.8 2.2
v -90.9 7.8 2.2
v -91 7.8 2.2
v -91.9 7.8 2.2
v -85.2 8.6 2.3
v -86.9 8.6 2.3
v -87 8.6 2.3
v -89.6 8.6 2.3
v -89.7 8.6 2.3
v -91.9 8.6 2.3
v -85.2 8.6 2.2
v -86.9 8.6 2.2
v -87 8.6 2.2
v -89.6 8.6 2.2
v -89.7 8.6 2.2
v -91.9 8.6 2.2
v -79.2 8.6 -1.7
v -79.3 8.6 -1.7
v -79.2 8.6 -1.9
v -79.3 8.6 -1.9
v -97.3 9.1 1.6
v -98.8 9.1 1.6
v -97.3 9.1 1.4
v -98.8 9.1 1.4
v -85.2 9.4 2.3
v -87.8 9.4 2.3
v -87.9 9.4 2.3
v -90.1 9.4 2.3
v -90.2 9.4 2.3
v -91.9 9.4 2.3
v -85.2 9.4 2.2
v -87.8 9.4 2.2
v -87.9 9.4 2.2
v -90.1 9.4 2.2
v -90.2 9.4 2.2
v -91.9 9.4 2.2
v -84.6 10.5 3
v -86.9 10.5 3
v -87 10.5 3
v -89.2 10.5 3
v -89.3 10.5 3
v -89.5 10.5 3
v -84.6 10.5 2.9
v -86.9 10.5 2.9
v -87 10.5 2.9
v -89.2 10.5 2.9
v -89.3 10.5 2.9
v -89.5 10.5 2.9
v -78.6 10.5 -0.5
v -78.7 10.5 -0.5
v -78.6 10.5 -3
v -78.7 10.5 -3
v -84.6 11.3 3
v -85.4 11.3 3
v -86.7 11.3 3
v -88.1 11.3 3
v -88.2 11.3 3
v -89.5 11.3 3
v -84.6 11.3 2.9
v -85.4 11.3 2.9
v -86.7 11.3 2.9
v -88.1 11.3 2.9
v -88.2 11.3 2.9
v -89.5 11.3 2.9
v -85.5 11.4 3.1
v -86 11.4 3.1
v -86.1 11.4 3.1
v -86.6 11.4 3.1
v -85.5 11.4 2.8
v -86 11.4 2.8
v -86.1 11.4 2.8
v -86.6 11.4 2.8
v -79.2 11.6 -0.5
v -79.3 11.6 -0.5
v -79.2 11.6 -0.6
v -79.3 11.6 -0.6
v -79.2 11.6 -1.7
v -79.3 11.6 -1.7
v -79.2 11.6 -1.9
v -79.3 11.6 -1.9
v -84.6 12.1 3
v -85.4 12.1 3
v -86.7 12.1 3
v -88.8 12.1 3
v -88.9 12.1 3
v -89.5 12.1 3
v -84.6 12.1 2.9
v -85.4 12.1 2.9
v -86.7 12.1 2.9
v -88.8 12.1 2.9
v -88.9 12.1 2.9
v -89.5 12.1 2.9
v -84.6 12.9 3
v -85.4 12.9 3
v -86.7 12.9 3
v -88.2 12.9 3
v -88.3 12.9 3
v -89.5 12.9 3
v -84.6 12.9 2.9
v -85.4 12.9 2.9
v -86.7 12.9 2.9
v -88.2 12.9 2.9
v -88.3 12.9 2.9
v -89.5 12.9 2.9
v -84.6 13.7 3
v -85.4 13.7 3
v -86.7 13.7 3
v -88.1 13.7 3
v -88.2 13.7 3
v -89.5 13.7 3
v -94.2 13.7 3
v -100 13.7 3
v -84.6 13.7 2.9
v -85.4 13.7 2.9
v -86.7 13.7 2.9
v -88.1 13.7 2.9
v -88.2 13.7 2.9
v -89.5 13.7 2.9
v -94.2 13.7 1.4
v -99 13.7 1.4
v -99 13.7 -2
v -100 13.7 -2
v -85.4 13.8 3.1
v -86.7 13.8 3.1
v -85.4 13.8 3
v -85.5 13.8 3
v -85.6 13.8 3
v -86.7 13.8 3
v -85.5 13.8 2.9
v -85.6 13.8 2.9
v -84.6 14.5 3
v -85.5 14.5 3
v -85.6 14.5 3
v -88.2 14.5 3
v -88.3 14.5 3
v -89.5 14.5 3
v -84.6 14.5 2.9
v -85.5 14.5 2.9
v -85.6 14.5 2.9
v -88.2 14.5 2.9
v -88.3 14.5 2.9
v -89.5 14.5 2.9
v -84.6 15.3 3
v -87.2 15.3 3
v -87.3 15.3 3
v -89.5 15.3 3
v -84.6 15.3 2.9
v -87.2 15.3 2.9
v -87.3 15.3 2.9
v -89.5 15.3 2.9
v -89.5 15.3 2.2
v -91.9 15.3 2.2
v -91.8 15.3 1.4
v -91.9 15.3 1.4
v -91.8 15.3 1.3
v -91.9 15.3 1.3
v -84.6 15.3 -8.4
v -91.9 15.3 -8.4
v -91.9 17.5 1.4
v -99 17.5 1.4
v -91.9 17.5 -8.4
v -99 17.5 -8.4

# faces
f 1/3/1 2/3/1 18/3/1
f 18/3/1 2/3/1 19/3/1
f 3/3/1 4/3/1 20/3/1
f 20/3/1 4/3/1 21/3/1
f 5/3/1 6/3/1 22/3/1
f 22/3/1 6/3/1 23/3/1
f 7/3/1 8/3/1 24/3/1
f 24/3/1 8/3/1 25/3/1
f 9/3/1 10/3/1 26/3/1
f 26/3/1 10/3/1 27/3/1
f 11/3/1 12/3/1 28/3/1
f 28/3/1 12/3/1 29/3/1
f 13/3/1 14/3/1 30/3/1
f 30/3/1 14/3/1 31/3/1
f 15/3/1 16/3/1 32/3/1
f 32/3/1 16/3/1 33/3/1
f 30/3/1 31/3/1 35/3/1
f 33/3/1 34/3/1 35/3/1
f 32/3/1 33/3/1 35/3/1
f 31/3/1 32/3/1 35/3/1
f 18/3/1 19/3/1 35/3/1
f 29/3/1 30/3/1 35/3/1
f 20/3/1 21/3/1 35/3/1
f 27/3/1 28/3/1 35/3/1
f 22/3/1 23/3/1 35/3/1
f 25/3/1 26/3/1 35/3/1
f 24/3/1 25/3/1 35/3/1
f 23/3/1 24/3/1 35/3/1
f 26/3/1 27/3/1 35/3/1
f 21/3/1 22/3/1 35/3/1
f 28/3/1 29/3/1 35/3/1
f 19/3/1 20/3/1 35/3/1
f 17/3/1 18/3/1 35/3/1
f 35/3/1 34/3/1 36/3/1
f 37/3/1 38/3/1 54/3/1
f 54/3/1 38/3/1 55/3/1
f 39/3/1 40/3/1 56/3/1
f 56/3/1 40/3/1 57/3/1
f 41/3/1 42/3/1 58/3/1
f 58/3/1 42/3/1 59/3/1
f 43/3/1 44/3/1 60/3/1
f 60/3/1 44/3/1 61/3/1
f 45/3/1 46/3/1 62/3/1
f 62/3/1 46/3/1 63/3/1
f 47/3/1 48/3/1 64/3/1
f 64/3/1 48/3/1 65/3/1
f 49/3/1 50/3/1 66/3/1
f 66/3/1 50/3/1 67/3/1
f 51/3/1 52/3/1 68/3/1
f 68/3/1 52/3/1 69/3/1
f 66/3/1 67/3/1 71/3/1
f 69/3/1 70/3/1 71/3/1
f 68/3/1 69/3/1 71/3/1
f 67/3/1 68/3/1 71/3/1
f 54/3/1 55/3/1 71/3/1
f 65/3/1 66/3/1 71/3/1
f 56/3/1 57/3/1 71/3/1
f 63/3/1 64/3/1 71/3/1
f 58/3/1 59/3/1 71/3/1
f 61/3/1 62/3/1 71/3/1
f 60/3/1 61/3/1 71/3/1
f 59/3/1 60/3/1 71/3/1
f 62/3/1 63/3/1 71/3/1
f 57/3/1 58/3/1 71/3/1
f 64/3/1 65/3/1 71/3/1
f 55/3/1 56/3/1 71/3/1
f 53/3/1 54/3/1 71/3/1
f 71/3/1 70/3/1 72/3/1
f 73/3/1 74/3/1 75/3/1
f 75/3/1 74/3/1 76/3/1
f 77/3/1 78/3/1 81/3/1
f 81/3/1 78/3/1 82/3/1
f 79/3/1 80/3/1 83/3/1
f 83/3/1 80/3/1 84/3/1
f 85/3/1 86/3/1 88/3/1
f 87/1/1 88/1/1 89/1/1
f 88/3/1 86/3/1 90/3/1
f 89/1/1 88/1/1 90/1/1
f 90/3/1 86/3/1 92/3/1
f 91/1/1 92/1/1 93/1/1
f 92/3/1 86/3/1 94/3/1
f 93/1/1 92/1/1 94/1/1
f 94/3/1 86/3/1 96/3/1
f 95/1/1 96/1/1 97/1/1
f 96/3/1 86/3/1 98/3/1
f 97/1/1 96/1/1 98/1/1
f 98/3/1 86/3/1 100/3/1
f 99/1/1 100/1/1 101/1/1
f 100/3/1 86/3/1 102/3/1
f 101/1/1 100/1/1 102/1/1
f 102/3/1 86/3/1 104/3/1
f 103/1/1 104/1/1 105/1/1
f 104/3/1 86/3/1 106/3/1
f 105/1/1 104/1/1 106/1/1
f 106/3/1 86/3/1 108/3/1
f 107/1/1 108/1/1 109/1/1
f 108/3/1 86/3/1 110/3/1
f 109/1/1 108/1/1 110/1/1
f 110/3/1 86/3/1 112/3/1
f 111/1/1 112/1/1 113/1/1
f 112/3/1 86/3/1 114/3/1
f 113/1/1 112/1/1 114/1/1
f 114/3/1 86/3/1 115/3/1
f 116/3/1 117/3/1 119/3/1
f 118/1/1 119/1/1 120/1/1
f 119/3/1 117/3/1 121/3/1
f 120/1/1 119/1/1 121/1/1
f 121/3/1 117/3/1 123/3/1
f 122/1/1 123/1/1 124/1/1
f 123/3/1 117/3/1 125/3/1
f 124/1/1 123/1/1 125/1/1
f 125/3/1 117/3/1 127/3/1
f 126/1/1 127/1/1 128/1/1
f 127/3/1 117/3/1 129/3/1
f 128/1/1 127/1/1 129/1/1
f 129/3/1 117/3/1 131/3/1
f 130/1/1 131/1/1 132/1/1
f 131/3/1 117/3/1 133/3/1
f 132/1/1 131/1/1 133/1/1
f 133/3/1 117/3/1 135/3/1
f 134/1/1 135/1/1 136/1/1
f 135/3/1 117/3/1 137/3/1
f 136/1/1 135/1/1 137/1/1
f 137/3/1 117/3/1 139/3/1
f 138/1/1 139/1/1 140/1/1
f 139/3/1 117/3/1 141/3/1
f 140/1/1 139/1/1 141/1/1
f 141/3/1 117/3/1 143/3/1
f 142/1/1 143/1/1 144/1/1
f 143/3/1 117/3/1 145/3/1
f 144/1/1 143/1/1 145/1/1
f 145/3/1 117/3/1 147/3/1
f 146/1/1 147/1/1 148/1/1
f 147/3/1 117/3/1 149/3/1
f 148/1/1 147/1/1 149/1/1
f 149/3/1 117/3/1 151/3/1
f 150/1/1 151/1/1 152/1/1
f 151/3/1 117/3/1 153/3/1
f 152/1/1 151/1/1 153/1/1
f 153/3/1 117/3/1 154/3/1
f 154/3/1 117/3/1 155/3/1
f 156/3/1 157/3/1 159/3/1
f 157/3/1 158/3/1 159/3/1
f 159/3/1 158/3/1 160/3/1
f 156/3/1 159/3/1 161/3/1
f 156/3/1 161/3/1 163/3/1
f 161/3/1 162/3/1 163/3/1
f 163/3/1 162/3/1 164/3/1
f 156/3/1 163/3/1 165/3/1
f 156/3/1 165/3/1 167/3/1
f 165/3/1 166/3/1 167/3/1
f 167/3/1 166/3/1 168/3/1
f 156/3/1 167/3/1 169/3/1
f 156/3/1 169/3/1 171/3/1
f 169/3/1 170/3/1 171/3/1
f 171/3/1 170/3/1 172/3/1
f 172/3/1 170/3/1 173/3/1
f 174/1/1 175/1/1 176/1/1
f 176/1/1 175/1/1 177/1/1
f 178/1/1 179/1/1 180/1/1
f 180/1/1 179/1/1 181/1/1
f 182/1/1 183/1/1 184/1/1
f 184/1/1 183/1/1 185/1/1
f 186/1/1 187/1/1 188/1/1
f 188/1/1 187/1/1 189/1/1
f 190/3/1 191/3/1 192/3/1
f 192/3/1 191/3/1 193/3/1
f 194/1/1 195/1/1 196/1/1
f 196/1/1 195/1/1 197/1/1
f 198/1/1 199/1/1 200/1/1
f 200/1/1 199/1/1 201/1/1
f 202/3/1 203/3/1 204/3/1
f 204/3/1 203/3/1 205/3/1
f 206/1/1 207/1/1 208/1/1
f 208/1/1 207/1/1 209/1/1
f 210/1/1 211/1/1 212/1/1
f 212/1/1 211/1/1 213/1/1
f 214/1/1 215/1/1 216/1/1
f 216/1/1 215/1/1 217/1/1
f 218/1/1 219/1/1 220/1/1
f 220/1/1 219/1/1 221/1/1
f 222/1/1 223/1/1 224/1/1
f 224/1/1 223/1/1 225/1/1
f 226/1/1 227/1/1 228/1/1
f 228/1/1 227/1/1 229/1/1
f 230/1/1 231/1/1 232/1/1
f 232/1/1 231/1/1 233/1/1
f 234/1/1 235/1/1 236/1/1
f 236/1/1 235/1/1 237/1/1
f 238/1/1 239/1/1 240/1/1
f 240/1/1 239/1/1 241/1/1
f 242/1/1 243/1/1 244/1/1
f 244/1/1 243/1/1 245/1/1
f 246/1/1 247/1/1 248/1/1
f 248/1/1 247/1/1 249/1/1
f 250/1/1 251/1/1 252/1/1
f 252/1/1 251/1/1 253/1/1
f 254/1/1 255/1/1 256/1/1
f 256/1/1 255/1/1 257/1/1
f 258/1/1 259/1/1 260/1/1
f 260/1/1 259/1/1 261/1/1
f 262/1/1 263/1/1 264/1/1
f 264/1/1 263/1/1 265/1/1
f 266/3/1 267/3/1 268/3/1
f 268/3/1 267/3/1 269/3/1
f 270/1/1 271/1/1 272/1/1
f 272/1/1 271/1/1 273/1/1
f 274/1/1 275/1/1 276/1/1
f 276/1/1 275/1/1 277/1/1
f 278/1/1 279/1/1 280/1/1
f 280/1/1 279/1/1 281/1/1
f 282/1/1 283/1/1 284/1/1
f 284/1/1 283/1/1 285/1/1
f 286/1/1 287/1/1 288/1/1
f 288/1/1 287/1/1 289/1/1
f 290/3/1 291/3/1 293/3/1
f 291/6/1 292/6/1 294/6/1
f 293/3/1 291/3/1 294/3/1
f 294/6/1 292/6/1 295/6/1
f 296/6/1 297/6/1 298/6/1
f 298/6/1 297/6/1 299/6/1
f 300/4/1 301/4/1 303/4/1
f 301/4/1 302/4/1 303/4/1
f 303/4/1 302/4/1 304/4/1
f 305/2/1 306/2/1 307/2/1
f 307/2/1 306/2/1 308/2/1
f 309/5/1 310/5/1 311/5/1
f 311/5/1 310/5/1 312/5/1
f 313/5/1 314/5/1 315/5/1
f 315/5/1 314/5/1 316/5/1
f 317/5/1 318/5/1 319/5/1
f 319/5/1 318/5/1 320/5/1
f 321/9/1 322/9/1 323/9/1
f 323/9/1 322/9/1 324/9/1
f 325/5/1 326/5/1 329/5/1
f 326/4/1 327/4/1 330/4/1
f 329/5/1 326/5/1 330/5/1
f 328/9/1 329/9/1 331/9/1
f 329/9/1 330/9/1 331/9/1
f 330/4/1 327/4/1 332/4/1
f 331/9/1 330/9/1 332/9/1
f 332/4/1 327/4/1 333/4/1
f 334/5/1 335/5/1 336/5/1
f 336/5/1 335/5/1 337/5/1
f 338/5/1 339/5/1 340/5/1
f 340/5/1 339/5/1 341/5/1
f 340/2/1 341/2/1 342/2/1
f 342/2/1 341/2/1 343/2/1
f 361/3/2 345/3/2 344/3/2
f 362/3/2 345/3/2 361/3/2
f 363/3/2 347/3/2 346/3/2
f 364/3/2 347/3/2 363/3/2
f 365/3/2 349/3/2 348/3/2
f 366/3/2 349/3/2 365/3/2
f 367/3/2 351/3/2 350/3/2
f 368/3/2 351/3/2 367/3/2
f 369/3/2 353/3/2 352/3/2
f 370/3/2 353/3/2 369/3/2
f 371/3/2 355/3/2 354/3/2
f 372/3/2 355/3/2 371/3/2
f 373/3/2 357/3/2 356/3/2
f 374/3/2 357/3/2 373/3/2
f 375/3/2 359/3/2 358/3/2
f 376/3/2 359/3/2 375/3/2
f 378/3/2 374/3/2 373/3/2
f 378/3/2 377/3/2 376/3/2
f 378/3/2 376/3/2 375/3/2
f 378/3/2 375/3/2 374/3/2
f 378/3/2 362/3/2 361/3/2
f 378/3/2 373/3/2 372/3/2
f 378/3/2 364/3/2 363/3/2
f 378/3/2 371/3/2 370/3/2
f 378/3/2 366/3/2 365/3/2
f 378/3/2 369/3/2 368/3/2
f 378/3/2 368/3/2 367/3/2
f 378/3/2 367/3/2 366/3/2
f 378/3/2 370/3/2 369/3/2
f 378/3/2 365/3/2 364/3/2
f 378/3/2 372/3/2 371/3/2
f 378/3/2 363/3/2 362/3/2
f 378/3/2 361/3/2 360/3/2
f 379/3/2 377/3/2 378/3/2
f 397/3/2 381/3/2 380/3/2
f 398/3/2 381/3/2 397/3/2
f 399/3/2 383/3/2 382/3/2
f 400/3/2 383/3/2 399/3/2
f 401/3/2 385/3/2 384/3/2
f 402/3/2 385/3/2 401/3/2
f 403/3/2 387/3/2 386/3/2
f 404/3/2 387/3/2 403/3/2
f 405/3/2 389/3/2 388/3/2
f 406/3/2 389/3/2 405/3/2
f 407/3/2 391/3/2 390/3/2
f 408/3/2 391/3/2 407/3/2
f 409/3/2 393/3/2 392/3/2
f 410/3/2 393/3/2 409/3/2
f 411/3/2 395/3/2 394/3/2
f 412/3/2 395/3/2 411/3/2
f 414/3/2 410/3/2 409/3/2
f 414/3/2 413/3/2 412/3/2
f 414/3/2 412/3/2 411/3/2
f 414/3/2 411/3/2 410/3/2
f 414/3/2 398/3/2 397/3/2
f 414/3/2 409/3/2 408/3/2
f 414/3/2 400/3/2 399/3/2
f 414/3/2 407/3/2 406/3/2
f 414/3/2 402/3/2 401/3/2
f 414/3/2 405/3/2 404/3/2
f 414/3/2 404/3/2 403/3/2
f 414/3/2 403/3/2 402/3/2
f 414/3/2 406/3/2 405/3/2
f 414/3/2 401/3/2 400/3/2
f 414/3/2 408/3/2 407/3/2
f 414/3/2 399/3/2 398/3/2
f 414/3/2 397/3/2 396/3/2
f 415/3/2 413/3/2 414/3/2
f 418/3/2 417/3/2 416/3/2
f 419/3/2 417/3/2 418/3/2
f 424/3/2 421/3/2 420/3/2
f 425/3/2 421/3/2 424/3/2
f 426/3/2 423/3/2 422/3/2
f 427/3/2 423/3/2 426/3/2
f 432/3/2 429/3/2 428/3/2
f 433/3/2 429/3/2 432/3/2
f 434/3/2 431/3/2 430/3/2
f 435/3/2 431/3/2 434/3/2
f 438/1/2 437/1/2 436/1/2
f 439/1/2 437/1/2 438/1/2
f 442/3/2 441/3/2 440/3/2
f 443/3/2 441/3/2 442/3/2
f 446/1/2 445/1/2 444/1/2
f 447/1/2 445/1/2 446/1/2
f 450/1/2 449/1/2 448/1/2
f 451/1/2 449/1/2 450/1/2
f 454/1/2 453/1/2 452/1/2
f 455/1/2 453/1/2 454/1/2
f 458/1/2 457/1/2 456/1/2
f 459/1/2 457/1/2 458/1/2
f 462/3/2 461/3/2 460/3/2
f 463/3/2 461/3/2 462/3/2
f 466/1/2 465/1/2 464/1/2
f 467/1/2 465/1/2 466/1/2
f 471/3/2 469/3/2 468/3/2
f 471/3/2 470/3/2 469/3/2
f 472/3/2 470/3/2 471/3/2
f 473/3/2 471/3/2 468/3/2
f 475/3/2 473/3/2 468/3/2
f 475/3/2 474/3/2 473/3/2
f 476/3/2 474/3/2 475/3/2
f 477/3/2 475/3/2 468/3/2
f 479/3/2 477/3/2 468/3/2
f 479/3/2 478/3/2 477/3/2
f 480/3/2 478/3/2 479/3/2
f 481/3/2 479/3/2 468/3/2
f 483/3/2 481/3/2 468/3/2
f 483/3/2 482/3/2 481/3/2
f 484/3/2 482/3/2 483/3/2
f 485/3/2 482/3/2 484/3/2
f 488/1/2 487/1/2 486/1/2
f 489/1/2 487/1/2 488/1/2
f 492/1/2 491/1/2 490/1/2
f 493/1/2 491/1/2 492/1/2
f 496/1/2 495/1/2 494/1/2
f 497/1/2 495/1/2 496/1/2
f 500/1/2 499/1/2 498/1/2
f 501/1/2 499/1/2 500/1/2
f 504/1/2 503/1/2 502/1/2
f 505/1/2 503/1/2 504/1/2
f 508/1/2 507/1/2 506/1/2
f 509/1/2 507/1/2 508/1/2
f 512/1/2 511/1/2 510/1/2
f 513/1/2 511/1/2 512/1/2
f 516/1/2 515/1/2 514/1/2
f 517/1/2 515/1/2 516/1/2
f 520/1/2 519/1/2 518/1/2
f 521/1/2 519/1/2 520/1/2
f 524/1/2 523/1/2 522/1/2
f 525/1/2 523/1/2 524/1/2
f 528/1/2 527/1/2 526/1/2
f 529/1/2 527/1/2 528/1/2
f 532/1/2 531/1/2 530/1/2
f 533/1/2 531/1/2 532/1/2
f 536/1/2 535/1/2 534/1/2
f 537/1/2 535/1/2 536/1/2
f 540/1/2 539/1/2 538/1/2
f 541/1/2 539/1/2 540/1/2
f 544/1/2 543/1/2 542/1/2
f 545/1/2 543/1/2 544/1/2
f 548/1/2 547/1/2 546/1/2
f 549/1/2 547/1/2 548/1/2
f 553/3/2 551/3/2 550/3/2
f 554/1/2 553/1/2 552/1/2
f 555/3/2 551/3/2 553/3/2
f 555/1/2 553/1/2 554/1/2
f 557/3/2 551/3/2 555/3/2
f 558/1/2 557/1/2 556/1/2
f 559/3/2 551/3/2 557/3/2
f 559/1/2 557/1/2 558/1/2
f 561/3/2 551/3/2 559/3/2
f 562/1/2 561/1/2 560/1/2
f 563/3/2 551/3/2 561/3/2
f 563/1/2 561/1/2 562/1/2
f 565/3/2 551/3/2 563/3/2
f 566/1/2 565/1/2 564/1/2
f 567/3/2 551/3/2 565/3/2
f 567/1/2 565/1/2 566/1/2
f 569/3/2 551/3/2 567/3/2
f 570/1/2 569/1/2 568/1/2
f 571/3/2 551/3/2 569/3/2
f 571/1/2 569/1/2 570/1/2
f 573/3/2 551/3/2 571/3/2
f 574/1/2 573/1/2 572/1/2
f 575/3/2 551/3/2 573/3/2
f 575/1/2 573/1/2 574/1/2
f 577/3/2 551/3/2 575/3/2
f 578/1/2 577/1/2 576/1/2
f 579/3/2 551/3/2 577/3/2
f 579/1/2 577/1/2 578/1/2
f 580/3/2 551/3/2 579/3/2
f 583/1/2 582/1/2 581/1/2
f 584/1/2 582/1/2 583/1/2
f 587/1/2 586/1/2 585/1/2
f 588/1/2 586/1/2 587/1/2
f 591/1/2 590/1/2 589/1/2
f 592/1/2 590/1/2 591/1/2
f 595/1/2 594/1/2 593/1/2
f 596/1/2 594/1/2 595/1/2
f 599/1/2 598/1/2 597/1/2
f 600/1/2 598/1/2 599/1/2
f 603/1/2 602/1/2 601/1/2
f 604/1/2 602/1/2 603/1/2
f 607/1/2 606/1/2 605/1/2
f 608/1/2 606/1/2 607/1/2
f 611/1/2 610/1/2 609/1/2
f 612/1/2 610/1/2 611/1/2
f 615/1/2 614/1/2 613/1/2
f 616/1/2 614/1/2 615/1/2
f 619/3/2 618/3/2 617/3/2
f 620/3/2 618/3/2 619/3/2
f 624/3/2 622/3/2 621/3/2
f 624/6/2 623/6/2 622/6/2
f 625/6/2 623/6/2 624/6/2
f 626/3/2 625/3/2 624/3/2
f 628/3/2 624/3/2 621/3/2
f 628/3/2 626/3/2 624/3/2
f 629/1/2 628/1/2 627/1/2
f 630/3/2 626/3/2 628/3/2
f 630/1/2 628/1/2 629/1/2
f 632/3/2 626/3/2 630/3/2
f 633/1/2 632/1/2 631/1/2
f 634/3/2 626/3/2 632/3/2
f 634/1/2 632/1/2 633/1/2
f 636/3/2 626/3/2 634/3/2
f 637/1/2 636/1/2 635/1/2
f 638/3/2 626/3/2 636/3/2
f 638/1/2 636/1/2 637/1/2
f 640/3/2 626/3/2 638/3/2
f 641/1/2 640/1/2 639/1/2
f 642/3/2 626/3/2 640/3/2
f 642/1/2 640/1/2 641/1/2
f 643/3/2 626/3/2 642/3/2
f 644/3/2 626/3/2 643/3/2
f 647/5/2 646/5/2 645/5/2
f 648/5/2 646/5/2 647/5/2
f 649/2/2 648/2/2 647/2/2
f 650/2/2 648/2/2 649/2/2
f 653/5/2 652/5/2 651/5/2
f 654/5/2 652/5/2 653/5/2
f 658/5/2 656/5/2 655/5/2
f 659/4/2 657/4/2 656/4/2
f 659/5/2 656/5/2 658/5/2
f 661/4/2 657/4/2 659/4/2
f 662/9/2 661/9/2 660/9/2
f 663/4/2 657/4/2 661/4/2
f 663/9/2 661/9/2 662/9/2
f 664/4/2 657/4/2 663/4/2
f 667/9/2 666/9/2 665/9/2
f 668/9/2 666/9/2 667/9/2
f 672/5/2 670/5/2 669/5/2
f 673/4/2 671/4/2 670/4/2
f 673/5/2 670/5/2 672/5/2
f 674/4/2 671/4/2 673/4/2
f 677/4/2 676/4/2 675/4/2
f 678/4/2 671/4/2 674/4/2
f 679/4/2 677/4/2 675/4/2
f 680/4/2 671/4/2 678/4/2
f 681/4/2 679/4/2 675/4/2
f 681/4/2 680/4/2 679/4/2
f 682/4/2 671/4/2 680/4/2
f 682/4/2 680/4/2 681/4/2
f 684/4/2 671/4/2 682/4/2
f 685/4/2 684/4/2 683/4/2
f 686/4/2 671/4/2 684/4/2
f 686/4/2 684/4/2 685/4/2
f 690/5/2 688/5/2 687/5/2
f 691/5/2 688/5/2 690/5/2
f 692/2/2 690/2/2 689/2/2
f 692/2/2 691/2/2 690/2/2
f 693/2/2 691/2/2 692/2/2
f 696/5/2 695/5/2 694/5/2
f 697/5/2 695/5/2 696/5/2
f 698/3/3 699/3/3 700/3/3
f 700/3/3 699/3/3 701/3/3
f 698/3/3 700/3/3 702/3/3
f 701/3/3 699/3/3 703/3/3
f 698/3/3 702/3/3 704/3/3
f 702/3/3 703/3/3 704/3/3
f 703/3/3 699/3/3 705/3/3
f 704/3/3 703/3/3 705/3/3
f 698/3/3 704/3/3 706/3/3
f 705/3/3 699/3/3 707/3/3
f 698/3/3 706/3/3 708/3/3
f 706/3/3 707/3/3 708/3/3
f 707/3/3 699/3/3 709/3/3
f 708/3/3 707/3/3 709/3/3
f 710/2/3 711/2/3 712/2/3
f 712/2/3 711/2/3 713/2/3
f 716/1/3 717/1/3 728/1/3
f 728/1/3 717/1/3 729/1/3
f 718/1/3 719/1/3 730/1/3
f 730/1/3 719/1/3 731/1/3
f 720/1/3 721/1/3 732/1/3
f 732/1/3 721/1/3 733/1/3
f 722/1/3 723/1/3 734/1/3
f 734/1/3 723/1/3 735/1/3
f 724/1/3 725/1/3 736/1/3
f 736/1/3 725/1/3 739/1/3
f 739/1/3 725/1/3 740/1/3
f 737/1/3 738/1/3 743/1/3
f 741/1/3 742/1/3 750/1/3
f 714/1/3 715/1/3 751/1/3
f 751/1/3 715/1/3 752/1/3
f 726/1/3 727/1/3 755/1/3
f 755/1/3 727/1/3 756/1/3
f 737/1/3 743/1/3 759/1/3
f 759/1/3 743/1/3 760/1/3
f 748/1/3 749/1/3 761/1/3
f 761/1/3 749/1/3 762/1/3
f 746/1/3 747/1/3 765/1/3
f 765/1/3 747/1/3 766/1/3
f 750/1/3 742/1/3 769/1/3
f 769/1/3 742/1/3 770/1/3
f 744/1/3 745/1/3 775/1/3
f 775/1/3 745/1/3 776/1/3
f 753/1/3 754/1/3 779/1/3
f 779/1/3 754/1/3 780/1/3
f 781/1/3 782/1/3 783/1/3
f 783/1/3 782/1/3 784/1/3
f 763/1/3 764/1/3 785/1/3
f 785/1/3 764/1/3 786/1/3
f 777/1/3 778/1/3 787/1/3
f 787/1/3 778/1/3 788/1/3
f 771/1/3 772/1/3 789/1/3
f 789/1/3 772/1/3 790/1/3
f 767/1/3 768/1/3 791/1/3
f 791/1/3 768/1/3 792/1/3
f 773/1/3 774/1/3 793/1/3
f 793/1/3 774/1/3 794/1/3
f 757/1/3 758/1/3 795/1/3
f 795/1/3 758/1/3 796/1/3
f 797/5/3 798/5/3 801/5/3
f 801/5/3 798/5/3 802/5/3
f 799/5/3 800/5/3 803/5/3
f 803/5/3 800/5/3 804/5/3
f 807/3/3 808/3/3 819/3/3
f 809/3/3 810/3/3 820/3/3
f 820/3/3 810/3/3 821/3/3
f 811/3/3 812/3/3 822/3/3
f 822/3/3 812/3/3 823/3/3
f 813/3/3 814/3/3 824/3/3
f 824/3/3 814/3/3 825/3/3
f 815/3/3 816/3/3 826/3/3
f 826/3/3 816/3/3 827/3/3
f 807/3/3 819/3/3 828/3/3
f 819/3/3 820/3/3 828/3/3
f 828/3/3 820/3/3 829/3/3
f 817/3/3 818/3/3 831/3/3
f 830/3/3 831/3/3 832/3/3
f 831/3/3 818/3/3 833/3/3
f 832/3/3 831/3/3 833/3/3
f 805/3/3 806/3/3 842/3/3
f 807/3/3 828/3/3 843/3/3
f 805/3/3 842/3/3 844/3/3
f 842/3/3 843/3/3 844/3/3
f 843/3/3 828/3/3 845/3/3
f 844/3/3 843/3/3 845/3/3
f 833/3/3 818/3/3 846/3/3
f 833/3/3 846/3/3 848/3/3
f 846/3/3 847/3/3 848/3/3
f 848/3/3 847/3/3 849/3/3
f 845/3/3 828/3/3 850/3/3
f 834/3/3 835/3/3 851/3/3
f 838/3/3 839/3/3 852/3/3
f 840/3/3 841/3/3 853/3/3
f 845/3/3 850/3/3 854/3/3
f 850/3/3 851/3/3 854/3/3
f 851/3/3 835/3/3 855/3/3
f 854/3/3 851/3/3 855/3/3
f 836/3/3 837/3/3 856/3/3
f 838/3/3 852/3/3 857/3/3
f 852/3/3 853/3/3 857/3/3
f 857/3/3 853/3/3 858/3/3
f 853/3/3 841/3/3 859/3/3
f 858/3/3 853/3/3 859/3/3
f 859/3/3 841/3/3 860/3/3
f 833/3/3 848/3/3 861/3/3
f 836/3/3 856/3/3 862/3/3
f 857/3/3 858/3/3 862/3/3
f 856/3/3 857/3/3 862/3/3
f 862/3/3 858/3/3 863/3/3
f 860/3/3 861/3/3 864/3/3
f 859/3/3 860/3/3 864/3/3
f 861/3/3 848/3/3 865/3/3
f 864/3/3 861/3/3 865/3/3
f 855/3/3 835/3/3 866/3/3
f 836/3/3 862/3/3 867/3/3
f 855/3/3 866/3/3 868/3/3
f 866/3/3 867/3/3 868/3/3
f 867/3/3 862/3/3 869/3/3
f 868/3/3 867/3/3 869/3/3
f 805/3/3 844/3/3 870/3/3
f 845/3/3 854/3/3 871/3/3
f 805/3/3 870/3/3 872/3/3
f 870/3/3 871/3/3 872/3/3
f 871/3/3 854/3/3 873/3/3
f 872/3/3 871/3/3 873/3/3
f 805/3/3 872/3/3 874/3/3
f 874/3/3 872/3/3 875/3/3
f 873/3/3 854/3/3 876/3/3
f 876/3/3 854/3/3 877/3/3
f 855/3/3 868/3/3 878/3/3
f 878/3/3 868/3/3 879/3/3
f 869/3/3 862/3/3 880/3/3
f 880/3/3 862/3/3 881/3/3
f 863/3/3 858/3/3 882/3/3
f 882/3/3 858/3/3 883/3/3
f 859/3/3 864/3/3 884/3/3
f 884/3/3 864/3/3 885/3/3
f 865/3/3 848/3/3 886/3/3
f 886/3/3 848/3/3 887/3/3
f 888/3/3 889/3/3 890/3/3
f 890/3/3 889/3/3 891/3/3
f 892/3/3 893/3/3 894/3/3
f 894/3/3 893/3/3 895/3/3
f 900/1/3 901/1/3 914/1/3
f 914/1/3 901/1/3 915/1/3
f 908/1/3 909/1/3 918/1/3
f 918/1/3 909/1/3 919/1/3
f 904/1/3 905/1/3 922/1/3
f 922/1/3 905/1/3 923/1/3
f 898/1/3 899/1/3 926/1/3
f 926/1/3 899/1/3 927/1/3
f 902/1/3 903/1/3 930/1/3
f 930/1/3 903/1/3 931/1/3
f 906/1/3 907/1/3 932/1/3
f 932/1/3 907/1/3 933/1/3
f 910/1/3 911/1/3 934/1/3
f 934/1/3 911/1/3 935/1/3
f 896/1/3 897/1/3 936/1/3
f 936/1/3 897/1/3 937/1/3
f 912/1/3 913/1/3 946/1/3
f 946/1/3 913/1/3 947/1/3
f 916/1/3 917/1/3 950/1/3
f 950/1/3 917/1/3 951/1/3
f 920/1/3 921/1/3 954/1/3
f 954/1/3 921/1/3 955/1/3
f 924/1/3 925/1/3 958/1/3
f 958/1/3 925/1/3 959/1/3
f 944/1/3 945/1/3 962/1/3
f 962/1/3 945/1/3 963/1/3
f 928/1/3 929/1/3 964/1/3
f 964/1/3 929/1/3 965/1/3
f 952/1/3 953/1/3 966/1/3
f 966/1/3 953/1/3 967/1/3
f 938/1/3 939/1/3 968/1/3
f 968/1/3 939/1/3 969/1/3
f 960/1/3 961/1/3 970/1/3
f 970/1/3 961/1/3 971/1/3
f 940/1/3 941/1/3 972/1/3
f 972/1/3 941/1/3 973/1/3
f 942/1/3 943/1/3 974/1/3
f 974/1/3 943/1/3 975/1/3
f 948/1/3 949/1/3 980/1/3
f 980/1/3 949/1/3 981/1/3
f 956/1/3 957/1/3 984/1/3
f 984/1/3 957/1/3 985/1/3
f 976/1/3 977/1/3 988/1/3
f 988/1/3 977/1/3 989/1/3
f 986/1/3 987/1/3 990/1/3
f 990/1/3 987/1/3 991/1/3
f 978/1/3 979/1/3 992/1/3
f 992/1/3 979/1/3 993/1/3
f 982/1/3 983/1/3 994/1/3
f 994/1/3 983/1/3 995/1/3
f 1000/3/3 1001/3/3 1016/3/3
f 1002/3/3 1003/3/3 1017/3/3
f 1000/3/3 1016/3/3 1018/3/3
f 1016/3/3 1017/3/3 1018/3/3
f 1017/3/3 1003/3/3 1019/3/3
f 1018/3/3 1017/3/3 1019/3/3
f 1008/3/3 1009/3/3 1020/3/3
f 1010/3/3 1011/3/3 1021/3/3
f 1008/3/3 1020/3/3 1022/3/3
f 1020/3/3 1021/3/3 1022/3/3
f 1021/3/3 1011/3/3 1023/3/3
f 1022/3/3 1021/3/3 1023/3/3
f 1004/3/3 1005/3/3 1024/3/3
f 1006/3/3 1007/3/3 1025/3/3
f 1004/3/3 1024/3/3 1026/3/3
f 1024/3/3 1025/3/3 1026/3/3
f 1025/3/3 1007/3/3 1027/3/3
f 1026/3/3 1025/3/3 1027/3/3
f 998/3/3 999/3/3 1028/3/3
f 1000/3/3 1018/3/3 1029/3/3
f 998/3/3 1028/3/3 1030/3/3
f 1028/3/3 1029/3/3 1030/3/3
f 1029/3/3 1018/3/3 1031/3/3
f 1030/3/3 1029/3/3 1031/3/3
f 1019/3/3 1003/3/3 1032/3/3
f 1004/3/3 1026/3/3 1033/3/3
f 1027/3/3 1007/3/3 1034/3/3
f 1008/3/3 1022/3/3 1035/3/3
f 1023/3/3 1011/3/3 1036/3/3
f 1012/3/3 1013/3/3 1037/3/3
f 996/3/3 997/3/3 1038/3/3
f 998/3/3 1030/3/3 1039/3/3
f 1032/3/3 1033/3/3 1040/3/3
f 1019/3/3 1032/3/3 1040/3/3
f 1033/3/3 1026/3/3 1041/3/3
f 1040/3/3 1033/3/3 1041/3/3
f 1034/3/3 1035/3/3 1042/3/3
f 1027/3/3 1034/3/3 1042/3/3
f 1035/3/3 1022/3/3 1043/3/3
f 1042/3/3 1035/3/3 1043/3/3
f 1036/3/3 1037/3/3 1044/3/3
f 1023/3/3 1036/3/3 1044/3/3
f 1037/3/3 1013/3/3 1045/3/3
f 1044/3/3 1037/3/3 1045/3/3
f 1038/3/3 1039/3/3 1046/3/3
f 996/3/3 1038/3/3 1046/3/3
f 1039/3/3 1030/3/3 1047/3/3
f 1046/3/3 1039/3/3 1047/3/3
f 1045/3/3 1013/3/3 1048/3/3
f 1014/3/3 1015/3/3 1049/3/3
f 1045/3/3 1048/3/3 1050/3/3
f 1048/3/3 1049/3/3 1050/3/3
f 1049/3/3 1015/3/3 1051/3/3
f 1050/3/3 1049/3/3 1051/3/3
f 1031/3/3 1018/3/3 1052/3/3
f 1019/3/3 1040/3/3 1053/3/3
f 1031/3/3 1052/3/3 1054/3/3
f 1052/3/3 1053/3/3 1054/3/3
f 1053/3/3 1040/3/3 1055/3/3
f 1054/3/3 1053/3/3 1055/3/3
f 1043/3/3 1022/3/3 1056/3/3
f 1023/3/3 1044/3/3 1057/3/3
f 1043/3/3 1056/3/3 1058/3/3
f 1056/3/3 1057/3/3 1058/3/3
f 1057/3/3 1044/3/3 1059/3/3
f 1058/3/3 1057/3/3 1059/3/3
f 1041/3/3 1026/3/3 1060/3/3
f 1027/3/3 1042/3/3 1061/3/3
f 1041/3/3 1060/3/3 1062/3/3
f 1060/3/3 1061/3/3 1062/3/3
f 1061/3/3 1042/3/3 1063/3/3
f 1062/3/3 1061/3/3 1063/3/3
f 1051/3/3 1015/3/3 1064/3/3
f 996/3/3 1046/3/3 1066/3/3
f 1047/3/3 1030/3/3 1067/3/3
f 1067/3/3 1030/3/3 1068/3/3
f 1031/3/3 1054/3/3 1069/3/3
f 1069/3/3 1054/3/3 1070/3/3
f 1055/3/3 1040/3/3 1071/3/3
f 1071/3/3 1040/3/3 1072/3/3
f 1041/3/3 1062/3/3 1073/3/3
f 1073/3/3 1062/3/3 1074/3/3
f 1063/3/3 1042/3/3 1075/3/3
f 1075/3/3 1042/3/3 1076/3/3
f 1043/3/3 1058/3/3 1077/3/3
f 1059/3/3 1044/3/3 1078/3/3
f 1045/3/3 1050/3/3 1079/3/3
f 1069/3/3 1070/3/3 1080/3/3
f 1076/3/3 1077/3/3 1080/3/3
f 1073/3/3 1074/3/3 1080/3/3
f 1075/3/3 1076/3/3 1080/3/3
f 1067/3/3 1068/3/3 1080/3/3
f 1071/3/3 1072/3/3 1080/3/3
f 1074/3/3 1075/3/3 1080/3/3
f 1066/3/3 1067/3/3 1080/3/3
f 1072/3/3 1073/3/3 1080/3/3
f 1068/3/3 1069/3/3 1080/3/3
f 1070/3/3 1071/3/3 1080/3/3
f 1077/3/3 1058/3/3 1081/3/3
f 1080/3/3 1077/3/3 1081/3/3
f 1078/3/3 1079/3/3 1082/3/3
f 1059/3/3 1078/3/3 1082/3/3
f 1079/3/3 1050/3/3 1083/3/3
f 1082/3/3 1079/3/3 1083/3/3
f 1083/3/3 1050/3/3 1084/3/3
f 1064/3/3 1065/3/3 1085/3/3
f 1051/3/3 1064/3/3 1085/3/3
f 1083/3/3 1084/3/3 1086/3/3
f 1084/3/3 1085/3/3 1086/3/3
f 1085/3/3 1065/3/3 1087/3/3
f 1086/3/3 1085/3/3 1087/3/3
f 1081/3/3 1058/3/3 1088/3/3
f 1059/3/3 1082/3/3 1089/3/3
f 1081/3/3 1088/3/3 1090/3/3
f 1088/3/3 1089/3/3 1090/3/3
f 1089/3/3 1082/3/3 1091/3/3
f 1090/3/3 1089/3/3 1091/3/3
f 996/3/3 1066/3/3 1092/3/3
f 1066/3/3 1080/3/3 1092/3/3
f 1092/3/3 1080/3/3 1093/3/3
f 1081/3/3 1090/3/3 1094/3/3
f 1094/3/3 1090/3/3 1095/3/3
f 1091/3/3 1082/3/3 1096/3/3
f 1096/3/3 1082/3/3 1097/3/3
f 1083/3/3 1086/3/3 1098/3/3
f 1098/3/3 1086/3/3 1099/3/3
f 1087/3/3 1065/3/3 1100/3/3
f 1100/3/3 1065/3/3 1101/3/3
f 1102/3/3 1103/3/3 1104/3/3
f 1102/3/3 1104/3/3 1105/3/3
f 1105/3/3 1104/3/3 1106/3/3
f 1107/9/3 1108/9/3 1109/9/3
f 1109/9/3 1108/9/3 1110/9/3
f 1110/9/3 1108/9/3 1112/9/3
f 1111/9/3 1112/9/3 1113/9/3
f 1112/9/3 1108/9/3 1114/9/3
f 1113/9/3 1112/9/3 1114/9/3
f 1115/5/3 1116/5/3 1117/5/3
f 1117/5/3 1116/5/3 1118/5/3
f 1118/5/3 1116/5/3 1120/5/3
f 1119/5/3 1120/5/3 1121/5/3
f 1120/5/3 1116/5/3 1122/5/3
f 1121/5/3 1120/5/3 1122/5/3
f 1125/4/3 1126/4/3 1128/4/3
f 1126/4/3 1127/4/3 1128/4/3
f 1128/4/3 1127/4/3 1129/4/3
f 1123/6/3 1124/6/3 1130/6/3
f 1124/6/3 1125/6/3 1130/6/3
f 1125/4/3 1128/4/3 1130/4/3
f 1130/4/3 1128/4/3 1131/4/3
f 1129/4/3 1127/4/3 1132/4/3
f 1132/4/3 1127/4/3 1133/4/3
f 1129/4/3 1132/4/3 1136/4/3
f 1123/6/3 1130/6/3 1137/6/3
f 1137/6/3 1130/6/3 1138/6/3
f 1135/4/3 1136/4/3 1139/4/3
f 1134/4/3 1135/4/3 1139/4/3
f 1136/4/3 1132/4/3 1140/4/3
f 1139/4/3 1136/4/3 1140/4/3
f 1134/4/3 1139/4/3 1141/4/3
f 1141/4/3 1139/4/3 1142/4/3
f 1140/4/3 1132/4/3 1144/4/3
f 1143/4/3 1144/4/3 1145/4/3
f 1144/4/3 1132/4/3 1146/4/3
f 1145/4/3 1144/4/3 1146/4/3
f 1133/4/3 1127/4/3 1147/4/3
f 1147/4/3 1127/4/3 1148/4/3
f 1149/3/3 1150/3/3 1151/3/3
f 1149/3/3 1151/3/3 1152/3/3
f 1152/3/3 1151/3/3 1153/3/3
f 1154/4/3 1155/4/3 1156/4/3
f 1156/4/3 1155/4/3 1157/4/3
f 1158/8/3 1159/8/3 1160/8/3
f 1160/8/3 1159/8/3 1161/8/3
f 1162/3/3 1163/3/3 1164/3/3
f 1164/3/3 1163/3/3 1165/3/3
f 1166/3/3 1167/3/3 1168/3/3
f 1168/3/3 1167/3/3 1169/3/3
f 1170/3/3 1171/3/3 1172/3/3
f 1172/3/3 1171/3/3 1173/3/3
f 1174/3/3 1175/3/3 1178/3/3
f 1178/3/3 1175/3/3 1179/3/3
f 1176/3/3 1177/3/3 1180/3/3
f 1180/3/3 1177/3/3 1181/3/3
f 1182/3/3 1183/3/3 1186/3/3
f 1186/3/3 1183/3/3 1187/3/3
f 1184/3/3 1185/3/3 1188/3/3
f 1188/3/3 1185/3/3 1189/3/3
f 1190/3/3 1191/3/3 1194/3/3
f 1194/3/3 1191/3/3 1195/3/3
f 1192/3/3 1193/3/3 1196/3/3
f 1196/3/3 1193/3/3 1197/3/3
f 1198/3/3 1199/3/3 1202/3/3
f 1202/3/3 1199/3/3 1203/3/3
f 1200/3/3 1201/3/3 1204/3/3
f 1204/3/3 1201/3/3 1205/3/3
f 1206/3/3 1207/3/3 1210/3/3
f 1210/3/3 1207/3/3 1211/3/3
f 1208/3/3 1209/3/3 1212/3/3
f 1212/3/3 1209/3/3 1213/3/3
f 1214/5/3 1215/5/3 1217/5/3
f 1215/2/3 1216/2/3 1218/2/3
f 1217/5/3 1215/5/3 1218/5/3
f 1218/2/3 1216/2/3 1219/2/3
f 1220/3/3 1221/3/3 1224/3/3
f 1224/3/3 1221/3/3 1225/3/3
f 1222/3/3 1223/3/3 1226/3/3
f 1226/3/3 1223/3/3 1227/3/3
f 1228/3/3 1229/3/3 1232/3/3
f 1232/3/3 1229/3/3 1233/3/3
f 1230/3/3 1231/3/3 1234/3/3
f 1234/3/3 1231/3/3 1235/3/3
f 1236/3/3 1237/3/3 1240/3/3
f 1240/3/3 1237/3/3 1241/3/3
f 1238/3/3 1239/3/3 1242/3/3
f 1242/3/3 1239/3/3 1243/3/3
f 1244/3/3 1245/3/3 1248/3/3
f 1248/3/3 1245/3/3 1249/3/3
f 1246/3/3 1247/3/3 1250/3/3
f 1250/3/3 1247/3/3 1251/3/3
f 1255/5/4 1253/5/4 1252/5/4
f 1256/2/4 1254/2/4 1253/2/4
f 1256/5/4 1253/5/4 1255/5/4
f 1257/2/4 1254/2/4 1256/2/4
f 1260/3/4 1259/3/4 1258/3/4
f 1261/3/4 1259/3/4 1260/3/4
f 1264/3/4 1263/3/4 1262/3/4
f 1265/3/4 1264/3/4 1262/3/4
f 1266/3/4 1264/3/4 1265/3/4
f 1269/3/4 1268/3/4 1267/3/4
f 1270/3/4 1268/3/4 1269/3/4
f 1273/5/4 1272/5/4 1271/5/4
f 1274/5/4 1272/5/4 1273/5/4
f 1277/3/4 1276/3/4 1275/3/4
f 1278/3/4 1276/3/4 1277/3/4
f 1279/6/4 1278/6/4 1277/6/4
f 1280/6/4 1278/6/4 1279/6/4
f 1283/3/4 1282/3/4 1281/3/4
f 1284/3/4 1282/3/4 1283/3/4
f 1289/3/4 1286/3/4 1285/3/4
f 1290/3/4 1286/3/4 1289/3/4
f 1291/3/4 1288/3/4 1287/3/4
f 1292/3/4 1288/3/4 1291/3/4
f 1297/3/4 1294/3/4 1293/3/4
f 1298/3/4 1294/3/4 1297/3/4
f 1299/3/4 1296/3/4 1295/3/4
f 1300/3/4 1296/3/4 1299/3/4
f 1305/3/4 1302/3/4 1301/3/4
f 1306/3/4 1302/3/4 1305/3/4
f 1307/3/4 1304/3/4 1303/3/4
f 1308/3/4 1304/3/4 1307/3/4
f 1313/3/4 1310/3/4 1309/3/4
f 1314/3/4 1310/3/4 1313/3/4
f 1315/3/4 1312/3/4 1311/3/4
f 1316/3/4 1312/3/4 1315/3/4
f 1321/3/4 1318/3/4 1317/3/4
f 1322/3/4 1318/3/4 1321/3/4
f 1323/3/4 1320/3/4 1319/3/4
f 1324/3/4 1320/3/4 1323/3/4
f 1329/3/4 1326/3/4 1325/3/4
f 1330/3/4 1326/3/4 1329/3/4
f 1331/3/4 1328/3/4 1327/3/4
f 1332/3/4 1328/3/4 1331/3/4
f 1338/5/4 1334/5/4 1333/5/4
f 1339/2/4 1335/2/4 1334/2/4
f 1339/5/4 1334/5/4 1338/5/4
f 1340/2/4 1335/2/4 1339/2/4
f 1341/5/4 1337/5/4 1336/5/4
f 1342/5/4 1337/5/4 1341/5/4
f 1347/3/4 1344/3/4 1343/3/4
f 1348/3/4 1344/3/4 1347/3/4
f 1349/3/4 1346/3/4 1345/3/4
f 1350/3/4 1346/3/4 1349/3/4
f 1355/3/4 1352/3/4 1351/3/4
f 1356/3/4 1352/3/4 1355/3/4
f 1357/3/4 1354/3/4 1353/3/4
f 1358/3/4 1354/3/4 1357/3/4
f 1363/3/4 1360/3/4 1359/3/4
f 1364/3/4 1360/3/4 1363/3/4
f 1365/3/4 1362/3/4 1361/3/4
f 1366/3/4 1362/3/4 1365/3/4
f 1371/3/4 1368/3/4 1367/3/4
f 1372/3/4 1368/3/4 1371/3/4
f 1373/3/4 1370/3/4 1369/3/4
f 1374/3/4 1370/3/4 1373/3/4
f 1378/3/4 1376/3/4 1375/3/4
f 1379/3/4 1376/3/4 1378/3/4
f 1379/3/4 1378/3/4 1377/3/4
f 1381/3/4 1379/3/4 1377/3/4
f 1382/4/4 1380/4/4 1379/4/4
f 1382/3/4 1379/3/4 1381/3/4
f 1383/4/4 1382/4/4 1381/4/4
f 1384/4/4 1380/4/4 1382/4/4
f 1384/4/4 1382/4/4 1383/4/4
f 1385/3/5 1386/3/5 1387/3/5
f 1387/3/5 1386/3/5 1388/3/5
f 1388/3/5 1386/3/5 1389/3/5
f 1389/3/5 1386/3/5 1390/3/5
f 1388/3/5 1389/3/5 1391/3/5
f 1391/3/5 1389/3/5 1392/3/5
f 1390/3/5 1386/3/5 1393/3/5
f 1393/3/5 1386/3/5 1394/3/5
f 1385/3/5 1387/3/5 1395/3/5
f 1393/6/5 1394/6/5 1396/6/5
f 1395/3/5 1396/3/5 1401/3/5
f 1385/3/5 1395/3/5 1401/3/5
f 1396/6/5 1394/6/5 1402/6/5
f 1401/3/5 1396/3/5 1402/3/5
f 1402/6/5 1394/6/5 1403/6/5
f 1397/5/5 1398/5/5 1404/5/5
f 1404/5/5 1398/5/5 1405/5/5
f 1399/5/5 1400/5/5 1406/5/5
f 1406/5/5 1400/5/5 1407/5/5
f 1385/3/5 1401/3/5 1408/3/5
f 1403/6/5 1404/6/5 1409/6/5
f 1404/4/5 1405/4/5 1410/4/5
f 1409/6/5 1404/6/5 1410/6/5
f 1405/5/5 1398/5/5 1411/5/5
f 1410/4/5 1405/4/5 1411/4/5
f 1409/3/5 1410/3/5 1412/3/5
f 1411/5/5 1398/5/5 1412/5/5
f 1410/3/5 1411/3/5 1412/3/5
f 1408/3/5 1409/3/5 1412/3/5
f 1412/5/5 1398/5/5 1413/5/5
f 1399/5/5 1406/5/5 1414/5/5
f 1406/4/5 1407/4/5 1415/4/5
f 1414/5/5 1406/5/5 1415/5/5
f 1413/8/5 1414/8/5 1416/8/5
f 1412/3/5 1413/3/5 1416/3/5
f 1416/8/5 1414/8/5 1417/8/5
f 1414/4/5 1415/4/5 1418/4/5
f 1417/8/5 1414/8/5 1418/8/5
f 1416/3/5 1417/3/5 1419/3/5
f 1408/3/5 1412/3/5 1419/3/5
f 1412/3/5 1416/3/5 1419/3/5
f 1417/4/5 1418/4/5 1420/4/5
f 1419/3/5 1417/3/5 1420/3/5
f 1385/3/5 1408/3/5 1421/3/5
f 1408/3/5 1419/3/5 1421/3/5
f 1419/4/5 1420/4/5 1422/4/5
f 1421/3/5 1419/3/5 1422/3/5
f 1415/4/5 1407/4/5 1423/4/5
f 1422/4/5 1420/4/5 1423/4/5
f 1418/4/5 1415/4/5 1423/4/5
f 1420/4/5 1418/4/5 1423/4/5
f 1424/1/5 1425/1/5 1428/1/5
f 1428/1/5 1425/1/5 1429/1/5
f 1426/1/5 1427/1/5 1430/1/5
f 1430/1/5 1427/1/5 1431/1/5
f 1432/7/5 1433/7/5 1437/7/5
f 1434/7/5 1435/7/5 1438/7/5
f 1435/3/5 1436/3/5 1439/3/5
f 1437/7/5 1438/7/5 1440/7/5
f 1432/7/5 1437/7/5 1440/7/5
f 1435/3/5 1439/3/5 1441/3/5
f 1440/7/5 1438/7/5 1441/7/5
f 1438/7/5 1435/7/5 1441/7/5
f 1441/3/5 1439/3/5 1442/3/5
f 1443/7/5 1444/7/5 1446/7/5
f 1444/6/5 1445/6/5 1447/6/5
f 1446/7/5 1444/7/5 1447/7/5
f 1447/6/5 1445/6/5 1448/6/5
f 1449/1/5 1450/1/5 1453/1/5
f 1453/1/5 1450/1/5 1454/1/5
f 1451/1/5 1452/1/5 1455/1/5
f 1455/1/5 1452/1/5 1456/1/5
f 1457/1/5 1458/1/5 1463/1/5
f 1463/1/5 1458/1/5 1464/1/5
f 1459/1/5 1460/1/5 1465/1/5
f 1465/1/5 1460/1/5 1466/1/5
f 1461/1/5 1462/1/5 1467/1/5
f 1467/1/5 1462/1/5 1468/1/5
f 1469/5/5 1470/5/5 1471/5/5
f 1471/5/5 1470/5/5 1472/5/5
f 1473/1/5 1474/1/5 1477/1/5
f 1477/1/5 1474/1/5 1478/1/5
f 1475/1/5 1476/1/5 1479/1/5
f 1479/1/5 1476/1/5 1480/1/5
f 1481/1/5 1482/1/5 1487/1/5
f 1487/1/5 1482/1/5 1488/1/5
f 1483/1/5 1484/1/5 1489/1/5
f 1489/1/5 1484/1/5 1490/1/5
f 1485/1/5 1486/1/5 1491/1/5
f 1491/1/5 1486/1/5 1492/1/5
f 1493/5/5 1494/5/5 1495/5/5
f 1495/5/5 1494/5/5 1496/5/5
f 1493/5/5 1495/5/5 1497/5/5
f 1497/5/5 1495/5/5 1498/5/5
f 1496/5/5 1494/5/5 1499/5/5
f 1499/5/5 1494/5/5 1500/5/5
f 1500/5/5 1494/5/5 1501/5/5
f 1502/1/5 1503/1/5 1508/1/5
f 1508/1/5 1503/1/5 1509/1/5
f 1504/1/5 1505/1/5 1510/1/5
f 1510/1/5 1505/1/5 1511/1/5
f 1506/1/5 1507/1/5 1512/1/5
f 1512/1/5 1507/1/5 1513/1/5
f 1514/9/5 1515/9/5 1516/9/5
f 1516/9/5 1515/9/5 1517/9/5
f 1518/3/5 1519/3/5 1520/3/5
f 1520/3/5 1519/3/5 1521/3/5
f 1522/3/5 1523/3/5 1524/3/5
f 1524/3/5 1523/3/5 1525/3/5
f 1526/3/5 1527/3/5 1528/3/5
f 1528/3/5 1527/3/5 1529/3/5
f 1530/3/5 1531/3/5 1532/3/5
f 1532/3/5 1531/3/5 1533/3/5
f 1534/3/5 1535/3/5 1538/3/5
f 1538/3/5 1535/3/5 1539/3/5
f 1536/3/5 1537/3/5 1540/3/5
f 1540/3/5 1537/3/5 1541/3/5
f 1542/3/5 1543/3/5 1544/3/5
f 1544/3/5 1543/3/5 1545/3/5
f 1546/3/5 1547/3/5 1548/3/5
f 1548/3/5 1547/3/5 1549/3/5
f 1550/3/5 1551/3/5 1552/3/5
f 1552/3/5 1551/3/5 1553/3/5
f 1554/1/5 1555/1/5 1562/1/5
f 1562/1/5 1555/1/5 1563/1/5
f 1556/1/5 1557/1/5 1564/1/5
f 1564/1/5 1557/1/5 1565/1/5
f 1558/1/5 1559/1/5 1566/1/5
f 1566/1/5 1559/1/5 1567/1/5
f 1560/1/5 1561/1/5 1568/1/5
f 1568/1/5 1561/1/5 1569/1/5
f 1570/3/5 1571/3/5 1572/3/5
f 1572/3/5 1571/3/5 1573/3/5
f 1574/3/5 1575/3/5 1576/3/5
f 1576/3/5 1575/3/5 1577/3/5
f 1578/3/5 1579/3/5 1580/3/5
f 1580/3/5 1579/3/5 1581/3/5
f 1582/3/5 1583/3/5 1584/3/5
f 1584/3/5 1583/3/5 1585/3/5
f 1586/3/5 1587/3/5 1588/3/5
f 1588/3/5 1587/3/5 1589/3/5
f 1590/3/5 1591/3/5 1592/3/5
f 1592/3/5 1591/3/5 1593/3/5
f 1594/3/5 1595/3/5 1596/3/5
f 1596/3/5 1595/3/5 1597/3/5
f 1598/3/5 1599/3/5 1600/3/5
f 1600/3/5 1599/3/5 1601/3/5
f 1602/3/5 1603/3/5 1604/3/5
f 1604/3/5 1603/3/5 1605/3/5
f 1606/2/5 1607/2/5 1608/2/5
f 1608/2/5 1607/2/5 1609/2/5
f 1606/2/5 1608/2/5 1610/2/5
f 1610/2/5 1608/2/5 1611/2/5
f 1612/1/5 1613/1/5 1618/1/5
f 1618/1/5 1613/1/5 1619/1/5
f 1614/1/5 1615/1/5 1620/1/5
f 1620/1/5 1615/1/5 1621/1/5
f 1616/1/5 1617/1/5 1622/1/5
f 1622/1/5 1617/1/5 1623/1/5
f 1624/1/5 1625/1/5 1630/1/5
f 1630/1/5 1625/1/5 1631/1/5
f 1626/1/5 1627/1/5 1632/1/5
f 1632/1/5 1627/1/5 1633/1/5
f 1628/1/5 1629/1/5 1634/1/5
f 1634/1/5 1629/1/5 1635/1/5
f 1636/9/5 1637/9/5 1638/9/5
f 1638/9/5 1637/9/5 1639/9/5
f 1638/9/5 1639/9/5 1640/9/5
f 1640/9/5 1639/9/5 1641/9/5
f 1642/3/5 1643/3/5 1644/3/5
f 1644/3/5 1643/3/5 1645/3/5
f 1642/3/5 1644/3/5 1646/3/5
f 1646/3/5 1644/3/5 1647/3/5
f 1648/1/5 1649/1/5 1654/1/5
f 1654/1/5 1649/1/5 1655/1/5
f 1650/1/5 1651/1/5 1656/1/5
f 1656/1/5 1651/1/5 1657/1/5
f 1652/1/5 1653/1/5 1658/1/5
f 1658/1/5 1653/1/5 1659/1/5
f 1660/3/5 1661/3/5 1662/3/5
f 1662/3/5 1661/3/5 1663/3/5
f 1664/3/5 1665/3/5 1666/3/5
f 1666/3/5 1665/3/5 1667/3/5
f 1668/3/5 1669/3/5 1670/3/5
f 1670/3/5 1669/3/5 1671/3/5
f 1672/3/5 1673/3/5 1674/3/5
f 1674/3/5 1673/3/5 1675/3/5
f 1676/3/5 1677/3/5 1678/3/5
f 1678/3/5 1677/3/5 1679/3/5
f 1680/3/5 1681/3/5 1684/3/5
f 1684/3/5 1681/3/5 1685/3/5
f 1682/3/5 1683/3/5 1686/3/5
f 1686/3/5 1683/3/5 1687/3/5
f 1688/3/5 1689/3/5 1690/3/5
f 1690/3/5 1689/3/5 1691/3/5
f 1692/3/5 1693/3/5 1694/3/5
f 1694/3/5 1693/3/5 1695/3/5
f 1696/3/5 1697/3/5 1698/3/5
f 1698/3/5 1697/3/5 1699/3/5
f 1700/3/5 1701/3/5 1702/3/5
f 1702/3/5 1701/3/5 1703/3/5
f 1704/3/5 1705/3/5 1706/3/5
f 1706/3/5 1705/3/5 1707/3/5
f 1708/3/5 1709/3/5 1710/3/5
f 1710/3/5 1709/3/5 1711/3/5
f 1712/3/5 1713/3/5 1714/3/5
f 1714/3/5 1713/3/5 1715/3/5
f 1716/3/5 1717/3/5 1718/3/5
f 1718/3/5 1717/3/5 1719/3/5
f 1720/3/5 1721/3/5 1722/3/5
f 1722/3/5 1721/3/5 1723/3/5
f 1724/3/5 1725/3/5 1726/3/5
f 1726/3/5 1725/3/5 1727/3/5
f 1728/3/5 1729/3/5 1730/3/5
f 1730/3/5 1729/3/5 1731/3/5
f 1732/3/5 1733/3/5 1734/3/5
f 1734/3/5 1733/3/5 1735/3/5
f 1736/1/5 1737/1/5 1742/1/5
f 1742/1/5 1737/1/5 1743/1/5
f 1738/1/5 1739/1/5 1744/1/5
f 1744/1/5 1739/1/5 1745/1/5
f 1740/1/5 1741/1/5 1746/1/5
f 1746/1/5 1741/1/5 1747/1/5
f 1748/3/5 1749/3/5 1750/3/5
f 1750/3/5 1749/3/5 1751/3/5
f 1751/3/5 1749/3/5 1752/3/5
f 1750/3/5 1751/3/5 1753/3/5
f 1753/3/5 1751/3/5 1754/3/5
f 1755/1/5 1756/1/5 1761/1/5
f 1761/1/5 1756/1/5 1762/1/5
f 1757/1/5 1758/1/5 1763/1/5
f 1763/1/5 1758/1/5 1764/1/5
f 1759/1/5 1760/1/5 1765/1/5
f 1765/1/5 1760/1/5 1766/1/5
f 1767/5/5 1768/5/5 1769/5/5
f 1769/5/5 1768/5/5 1770/5/5
f 1770/5/5 1768/5/5 1771/5/5
f 1771/5/5 1768/5/5 1772/5/5
f 1773/1/5 1774/1/5 1779/1/5
f 1779/1/5 1774/1/5 1780/1/5
f 1775/1/5 1776/1/5 1781/1/5
f 1781/1/5 1776/1/5 1782/1/5
f 1777/1/5 1778/1/5 1783/1/5
f 1783/1/5 1778/1/5 1784/1/5
f 1785/1/5 1786/1/5 1791/1/5
f 1791/1/5 1786/1/5 1792/1/5
f 1787/1/5 1788/1/5 1793/1/5
f 1793/1/5 1788/1/5 1794/1/5
f 1789/1/5 1790/1/5 1795/1/5
f 1795/1/5 1790/1/5 1796/1/5
f 1797/3/5 1798/3/5 1801/3/5
f 1801/3/5 1798/3/5 1802/3/5
f 1799/3/5 1800/3/5 1803/3/5
f 1803/3/5 1800/3/5 1804/3/5
f 1805/1/5 1806/1/5 1811/1/5
f 1811/1/5 1806/1/5 1812/1/5
f 1807/1/5 1808/1/5 1813/1/5
f 1813/1/5 1808/1/5 1814/1/5
f 1809/1/5 1810/1/5 1815/1/5
f 1815/1/5 1810/1/5 1816/1/5
f 1817/1/5 1818/1/5 1821/1/5
f 1821/1/5 1818/1/5 1822/1/5
f 1819/1/5 1820/1/5 1823/1/5
f 1823/1/5 1820/1/5 1824/1/5
f 1829/1/6 1826/1/6 1825/1/6
f 1830/1/6 1826/1/6 1829/1/6
f 1831/1/6 1828/1/6 1827/1/6
f 1832/1/6 1828/1/6 1831/1/6
f 1837/1/6 1834/1/6 1833/1/6
f 1838/1/6 1834/1/6 1837/1/6
f 1839/1/6 1836/1/6 1835/1/6
f 1840/1/6 1836/1/6 1839/1/6
f 1847/1/6 1842/1/6 1841/1/6
f 1848/1/6 1842/1/6 1847/1/6
f 1849/1/6 1844/1/6 1843/1/6
f 1850/1/6 1844/1/6 1849/1/6
f 1851/1/6 1846/1/6 1845/1/6
f 1852/1/6 1846/1/6 1851/1/6
f 1857/1/6 1854/1/6 1853/1/6
f 1858/1/6 1854/1/6 1857/1/6
f 1859/1/6 1856/1/6 1855/1/6
f 1860/1/6 1856/1/6 1859/1/6
f 1867/1/6 1862/1/6 1861/1/6
f 1868/1/6 1862/1/6 1867/1/6
f 1869/1/6 1864/1/6 1863/1/6
f 1870/1/6 1864/1/6 1869/1/6
f 1871/1/6 1866/1/6 1865/1/6
f 1872/1/6 1866/1/6 1871/1/6
f 1875/5/6 1874/5/6 1873/5/6
f 1876/5/6 1874/5/6 1875/5/6
f 1877/4/6 1876/4/6 1875/4/6
f 1878/4/6 1876/4/6 1877/4/6
f 1881/5/6 1880/5/6 1879/5/6
f 1882/5/6 1880/5/6 1881/5/6
f 1883/5/6 1881/5/6 1879/5/6
f 1884/5/6 1881/5/6 1883/5/6
f 1885/5/6 1883/5/6 1879/5/6
f 1886/5/6 1883/5/6 1885/5/6
f 1887/5/6 1880/5/6 1882/5/6
f 1888/5/6 1880/5/6 1887/5/6
f 1889/5/6 1880/5/6 1888/5/6
f 1890/5/6 1880/5/6 1889/5/6
f 1897/1/6 1892/1/6 1891/1/6
f 1898/1/6 1892/1/6 1897/1/6
f 1899/1/6 1894/1/6 1893/1/6
f 1900/1/6 1894/1/6 1899/1/6
f 1901/1/6 1896/1/6 1895/1/6
f 1902/1/6 1896/1/6 1901/1/6
f 1905/3/6 1904/3/6 1903/3/6
f 1906/3/6 1904/3/6 1905/3/6
f 1909/2/6 1908/2/6 1907/2/6
f 1910/2/6 1908/2/6 1909/2/6
f 1911/2/6 1909/2/6 1907/2/6
f 1912/2/6 1909/2/6 1911/2/6
f 1914/2/6 1908/2/6 1910/2/6
f 1915/2/6 1914/2/6 1913/2/6
f 1916/2/6 1908/2/6 1914/2/6
f 1916/2/6 1914/2/6 1915/2/6
f 1925/1/6 1918/1/6 1917/1/6
f 1926/1/6 1918/1/6 1925/1/6
f 1927/1/6 1920/1/6 1919/1/6
f 1928/1/6 1920/1/6 1927/1/6
f 1929/1/6 1922/1/6 1921/1/6
f 1930/1/6 1922/1/6 1929/1/6
f 1931/1/6 1924/1/6 1923/1/6
f 1932/1/6 1924/1/6 1931/1/6
f 1939/1/6 1934/1/6 1933/1/6
f 1940/1/6 1934/1/6 1939/1/6
f 1941/1/6 1936/1/6 1935/1/6
f 1942/1/6 1936/1/6 1941/1/6
f 1943/1/6 1938/1/6 1937/1/6
f 1944/1/6 1938/1/6 1943/1/6
f 1947/3/6 1946/3/6 1945/3/6
f 1948/3/6 1946/3/6 1947/3/6
f 1951/9/6 1950/9/6 1949/9/6
f 1952/9/6 1950/9/6 1951/9/6
f 1959/1/6 1954/1/6 1953/1/6
f 1960/1/6 1954/1/6 1959/1/6
f 1961/1/6 1956/1/6 1955/1/6
f 1962/1/6 1956/1/6 1961/1/6
f 1963/1/6 1958/1/6 1957/1/6
f 1964/1/6 1958/1/6 1963/1/6
f 1971/1/6 1966/1/6 1965/1/6
f 1972/1/6 1966/1/6 1971/1/6
f 1973/1/6 1968/1/6 1967/1/6
f 1974/1/6 1968/1/6 1973/1/6
f 1975/1/6 1970/1/6 1969/1/6
f 1976/1/6 1970/1/6 1975/1/6
f 1979/3/6 1978/3/6 1977/3/6
f 1980/3/6 1978/3/6 1979/3/6
f 1987/1/6 1982/1/6 1981/1/6
f 1988/1/6 1982/1/6 1987/1/6
f 1989/1/6 1984/1/6 1983/1/6
f 1990/1/6 1984/1/6 1989/1/6
f 1991/1/6 1986/1/6 1985/1/6
f 1992/1/6 1986/1/6 1991/1/6
f 1997/3/6 1994/3/6 1993/3/6
f 1998/3/6 1994/3/6 1997/3/6
f 1999/3/6 1996/3/6 1995/3/6
f 2000/3/6 1996/3/6 1999/3/6
f 2003/3/6 2002/3/6 2001/3/6
f 2004/3/6 2002/3/6 2003/3/6
f 2007/3/6 2006/3/6 2005/3/6
f 2008/3/6 2006/3/6 2007/3/6
f 2015/1/6 2010/1/6 2009/1/6
f 2016/1/6 2010/1/6 2015/1/6
f 2017/1/6 2012/1/6 2011/1/6
f 2018/1/6 2012/1/6 2017/1/6
f 2019/1/6 2014/1/6 2013/1/6
f 2020/1/6 2014/1/6 2019/1/6
f 2027/1/6 2022/1/6 2021/1/6
f 2028/1/6 2022/1/6 2027/1/6
f 2029/1/6 2024/1/6 2023/1/6
f 2030/1/6 2024/1/6 2029/1/6
f 2031/1/6 2026/1/6 2025/1/6
f 2032/1/6 2026/1/6 2031/1/6
f 2041/1/6 2034/1/6 2033/1/6
f 2042/1/6 2034/1/6 2041/1/6
f 2043/1/6 2036/1/6 2035/1/6
f 2044/1/6 2036/1/6 2043/1/6
f 2045/1/6 2038/1/6 2037/1/6
f 2046/1/6 2038/1/6 2045/1/6
f 2047/5/6 2040/5/6 2039/5/6
f 2048/5/6 2040/5/6 2047/5/6
f 2049/5/6 2040/5/6 2048/5/6
f 2050/5/6 2040/5/6 2049/5/6
f 2053/3/6 2052/3/6 2051/3/6
f 2054/3/6 2052/3/6 2053/3/6
f 2055/3/6 2052/3/6 2054/3/6
f 2056/3/6 2052/3/6 2055/3/6
f 2057/3/6 2055/3/6 2054/3/6
f 2058/3/6 2055/3/6 2057/3/6
f 2065/1/6 2060/1/6 2059/1/6
f 2066/1/6 2060/1/6 2065/1/6
f 2067/1/6 2062/1/6 2061/1/6
f 2068/1/6 2062/1/6 2067/1/6
f 2069/1/6 2064/1/6 2063/1/6
f 2070/1/6 2064/1/6 2069/1/6
f 2075/1/6 2072/1/6 2071/1/6
f 2076/1/6 2072/1/6 2075/1/6
f 2077/1/6 2074/1/6 2073/1/6
f 2078/1/6 2074/1/6 2077/1/6
f 2079/3/6 2076/3/6 2075/3/6
f 2079/3/6 2077/3/6 2076/3/6
f 2079/3/6 2078/3/6 2077/3/6
f 2081/3/6 2080/3/6 2079/3/6
f 2082/3/6 2080/3/6 2081/3/6
f 2083/3/6 2081/3/6 2079/3/6
f 2083/4/6 2082/4/6 2081/4/6
f 2084/4/6 2082/4/6 2083/4/6
f 2085/3/6 2079/3/6 2075/3/6
f 2085/3/6 2083/3/6 2079/3/6
f 2085/3/6 2084/3/6 2083/3/6
f 2086/3/6 2084/3/6 2085/3/6
f 2089/4/6 2088/4/6 2087/4/6
f 2090/4/6 2088/4/6 2089/4/6
