# MagicaVoxel @ Ephtracy

# group
o 

# material
mtllib drzewko-93.mtl
usemtl palette

# normals
vn -1 0 0
vn 1 0 0
vn 0 0 1
vn 0 0 -1
vn 0 -1 0
vn 0 1 0

# texcoords
vt 0.564453 0.5
vt 0.568359 0.5
vt 0.720703 0.5
vt 0.724609 0.5

# verts
v -6.9 0.9 3.5
v -6.9 0.9 3.4
v -6.9 1.4 3.5
v -6.9 1.4 3.4
v -6.8 0.8 3.5
v -6.8 0.8 3.4
v -6.8 0.9 3.5
v -6.8 0.9 3.4
v -6.8 1.4 3.5
v -6.8 1.4 3.4
v -6.8 1.5 3.5
v -6.8 1.5 3.4
v -6.7 0.7 3.5
v -6.7 0.7 3.4
v -6.7 0.8 3.5
v -6.7 0.8 3.4
v -6.7 1.5 3.5
v -6.7 1.5 3.4
v -6.7 1.6 3.5
v -6.7 1.6 3.4
v -6.5 1.1 3.5
v -6.5 1.1 3.4
v -6.5 1.3 3.5
v -6.5 1.3 3.4
v -6.4 1.3 3.5
v -6.4 1.3 3.4
v -6.4 1.5 3.5
v -6.4 1.5 3.4
v -6.4 1.6 3.5
v -6.4 1.6 3.4
v -6.4 1.8 3.5
v -6.4 1.8 3.4
v -6.3 1.8 3.5
v -6.3 1.8 3.4
v -6.3 2.2 3.6
v -6.3 2.2 3.5
v -6.3 2.2 3.4
v -6.3 2.2 3.3
v -6.3 2.3 3.5
v -6.3 2.3 3.4
v -6.3 2.4 3.8
v -6.3 2.4 3.7
v -6.3 2.4 3.6
v -6.3 2.4 3.3
v -6.3 2.4 3.2
v -6.3 2.4 3.1
v -6.3 2.5 3.8
v -6.3 2.5 3.7
v -6.3 2.5 3.5
v -6.3 2.5 3.4
v -6.3 2.5 3.2
v -6.3 2.5 3.1
v -6.2 0.8 3.5
v -6.2 0.8 3.4
v -6.2 0.9 3.5
v -6.2 0.9 3.4
v -6.2 1.4 3.5
v -6.2 1.4 3.4
v -6.2 1.5 3.5
v -6.2 1.5 3.4
v -6.2 1.6 3.5
v -6.2 1.6 3.4
v -6.2 1.7 3.5
v -6.2 1.7 3.4
v -6.1 0.9 3.5
v -6.1 0.9 3.4
v -6.1 1.4 3.5
v -6.1 1.4 3.4
v -6.1 1.5 3.5
v -6.1 1.5 3.4
v -6.1 1.6 3.5
v -6.1 1.6 3.4
v -5.9 1.4 3.5
v -5.9 1.4 3.4
v -5.9 1.5 3.5
v -5.9 1.5 3.4
v -5.8 1.3 3.5
v -5.8 1.3 3.4
v -5.8 1.4 3.5
v -5.8 1.4 3.4
v -5.7 1.1 3.5
v -5.7 1.1 3.4
v -5.7 1.3 3.5
v -5.7 1.3 3.4
v -5.5 1 3.8
v -5.5 1 3.6
v -5.5 1 3.3
v -5.5 1 3.1
v -5.5 1.1 3.8
v -5.5 1.1 3.7
v -5.5 1.1 3.6
v -5.5 1.1 3.5
v -5.5 1.1 3.4
v -5.5 1.1 3.3
v -5.5 1.1 3.2
v -5.5 1.1 3.1
v -5.5 1.2 3.7
v -5.5 1.2 3.5
v -5.5 1.2 3.4
v -5.5 1.2 3.2
v -5.5 1.3 3.5
v -5.5 1.3 3.4
v -5.5 1.4 3.5
v -5.5 1.4 3.4
v -5.5 2 3.5
v -5.5 2 3.4
v -5.5 2.1 3.5
v -5.5 2.1 3.4
v -5.4 1.4 3.5
v -5.4 1.4 3.4
v -5.4 1.7 3.5
v -5.4 1.7 3.4
v -5.4 1.8 3.5
v -5.4 1.8 3.4
v -5.4 1.9 3.5
v -5.4 1.9 3.4
v -5.4 2 3.6
v -5.4 2 3.5
v -5.4 2 3.4
v -5.4 2 3.3
v -5.4 2.1 3.6
v -5.4 2.1 3.5
v -5.4 2.1 3.4
v -5.4 2.1 3.3
v -5.3 1.9 3.5
v -5.3 1.9 3.4
v -5.3 2 3.5
v -5.3 2 3.4
v -5.2 1.5 3.5
v -5.2 1.5 3.4
v -5.2 1.6 3.5
v -5.2 1.6 3.4
v -5.1 0.9 3.5
v -5.1 0.9 3.4
v -5.1 1.1 3.5
v -5.1 1.1 3.4
v -5.1 1.2 3.5
v -5.1 1.2 3.4
v -5.1 1.4 3.5
v -5.1 1.4 3.4
v -5.1 1.5 3.5
v -5.1 1.5 3.4
v -5 0.8 3.5
v -5 0.8 3.4
v -5 0.9 3.5
v -5 0.9 3.4
v -5 1.4 3.6
v -5 1.4 3.5
v -5 1.5 3.6
v -5 1.5 3.5
v -5 1.8 3.6
v -5 1.8 3.5
v -5 1.8 3.4
v -5 1.8 3.3
v -5 1.9 3.6
v -5 1.9 3.3
v -4.9 0.7 3.5
v -4.9 0.7 3.4
v -4.9 0.8 3.5
v -4.9 0.8 3.4
v -4.9 1.1 3.5
v -4.9 1.1 3.4
v -4.9 1.2 3.5
v -4.9 1.2 3.4
v -4.9 1.3 3.5
v -4.9 1.3 3.4
v -4.9 1.4 3.5
v -4.9 1.4 3.4
v -4.8 1.2 3.5
v -4.8 1.2 3.4
v -4.8 1.3 3.5
v -4.8 1.3 3.4
v -4.4 0.8 3.5
v -4.4 0.8 3.4
v -4.4 0.9 3.5
v -4.4 0.9 3.4
v -4.4 1.4 3.5
v -4.4 1.4 3.4
v -4.4 1.5 3.5
v -4.4 1.5 3.4
v -4.3 0.9 3.5
v -4.3 0.9 3.4
v -4.3 1.4 3.5
v -4.3 1.4 3.4
v -6.8 0.9 3.5
v -6.8 0.9 3.4
v -6.8 1.4 3.5
v -6.8 1.4 3.4
v -6.7 0.8 3.5
v -6.7 0.8 3.4
v -6.7 0.9 3.5
v -6.7 0.9 3.4
v -6.7 1.4 3.5
v -6.7 1.4 3.4
v -6.7 1.5 3.5
v -6.7 1.5 3.4
v -6.4 1.1 3.5
v -6.4 1.1 3.4
v -6.4 1.3 3.5
v -6.4 1.3 3.4
v -6.3 1.3 3.5
v -6.3 1.3 3.4
v -6.3 1.5 3.5
v -6.3 1.5 3.4
v -6.3 1.6 3.5
v -6.3 1.6 3.4
v -6.3 1.7 3.5
v -6.3 1.7 3.4
v -6.2 0.7 3.5
v -6.2 0.7 3.4
v -6.2 0.8 3.5
v -6.2 0.8 3.4
v -6.2 1.5 3.5
v -6.2 1.5 3.4
v -6.2 1.6 3.5
v -6.2 1.6 3.4
v -6.2 1.8 3.5
v -6.2 1.8 3.4
v -6.2 2.2 3.6
v -6.2 2.2 3.5
v -6.2 2.2 3.4
v -6.2 2.2 3.3
v -6.2 2.3 3.5
v -6.2 2.3 3.4
v -6.2 2.4 3.7
v -6.2 2.4 3.6
v -6.2 2.4 3.3
v -6.2 2.4 3.2
v -6.2 2.5 3.7
v -6.2 2.5 3.5
v -6.2 2.5 3.4
v -6.2 2.5 3.2
v -6.1 0.8 3.5
v -6.1 0.8 3.4
v -6.1 0.9 3.5
v -6.1 0.9 3.4
v -6.1 1.4 3.5
v -6.1 1.4 3.4
v -6.1 1.5 3.5
v -6.1 1.5 3.4
v -6.1 1.6 3.5
v -6.1 1.6 3.4
v -6.1 1.7 3.5
v -6.1 1.7 3.4
v -6.1 2.4 3.8
v -6.1 2.4 3.7
v -6.1 2.4 3.2
v -6.1 2.4 3.1
v -6.1 2.5 3.8
v -6.1 2.5 3.7
v -6.1 2.5 3.2
v -6.1 2.5 3.1
v -6 0.9 3.5
v -6 0.9 3.4
v -6 1.4 3.5
v -6 1.4 3.4
v -5.9 1.5 3.5
v -5.9 1.5 3.4
v -5.9 1.6 3.5
v -5.9 1.6 3.4
v -5.8 1.4 3.5
v -5.8 1.4 3.4
v -5.8 1.5 3.5
v -5.8 1.5 3.4
v -5.6 1.3 3.5
v -5.6 1.3 3.4
v -5.6 1.4 3.5
v -5.6 1.4 3.4
v -5.4 1 3.8
v -5.4 1 3.6
v -5.4 1 3.3
v -5.4 1 3.1
v -5.4 1.1 3.8
v -5.4 1.1 3.7
v -5.4 1.1 3.6
v -5.4 1.1 3.3
v -5.4 1.1 3.2
v -5.4 1.1 3.1
v -5.4 1.2 3.7
v -5.4 1.2 3.6
v -5.4 1.2 3.5
v -5.4 1.2 3.4
v -5.4 1.2 3.3
v -5.4 1.2 3.2
v -5.4 1.4 3.5
v -5.4 1.4 3.4
v -5.3 1.4 3.5
v -5.3 1.4 3.4
v -5.3 1.6 3.5
v -5.3 1.6 3.4
v -5.3 1.8 3.5
v -5.3 1.8 3.4
v -5.3 1.9 3.5
v -5.3 1.9 3.4
v -5.2 1.6 3.5
v -5.2 1.6 3.4
v -5.2 1.7 3.5
v -5.2 1.7 3.4
v -5.2 1.9 3.5
v -5.2 1.9 3.4
v -5.2 2 3.5
v -5.2 2 3.4
v -5.1 2 3.6
v -5.1 2 3.3
v -5.1 2.1 3.6
v -5.1 2.1 3.3
v -5 0.9 3.5
v -5 0.9 3.4
v -5 1.1 3.5
v -5 1.1 3.4
v -5 1.2 3.5
v -5 1.2 3.4
v -5 1.4 3.5
v -5 1.4 3.4
v -4.9 0.8 3.5
v -4.9 0.8 3.4
v -4.9 0.9 3.5
v -4.9 0.9 3.4
v -4.9 1.4 3.6
v -4.9 1.4 3.5
v -4.9 1.5 3.6
v -4.9 1.5 3.5
v -4.9 1.7 3.5
v -4.9 1.7 3.4
v -4.9 1.8 3.5
v -4.9 1.8 3.4
v -4.8 1.3 3.5
v -4.8 1.3 3.4
v -4.8 1.5 3.5
v -4.8 1.5 3.4
v -4.7 1.2 3.5
v -4.7 1.2 3.4
v -4.7 1.3 3.5
v -4.7 1.3 3.4
v -4.6 1.1 3.6
v -4.6 1.1 3.3
v -4.6 1.2 3.6
v -4.6 1.2 3.3
v -4.6 1.8 3.6
v -4.6 1.8 3.3
v -4.6 1.9 3.6
v -4.6 1.9 3.3
v -4.4 0.7 3.5
v -4.4 0.7 3.4
v -4.4 0.8 3.5
v -4.4 0.8 3.4
v -4.4 1.5 3.5
v -4.4 1.5 3.4
v -4.4 1.6 3.5
v -4.4 1.6 3.4
v -4.3 0.8 3.5
v -4.3 0.8 3.4
v -4.3 0.9 3.5
v -4.3 0.9 3.4
v -4.3 1.4 3.5
v -4.3 1.4 3.4
v -4.3 1.5 3.5
v -4.3 1.5 3.4
v -4.2 0.9 3.5
v -4.2 0.9 3.4
v -4.2 1.4 3.5
v -4.2 1.4 3.4
v -6.3 2.4 3.8
v -6.3 2.5 3.8
v -6.1 2.4 3.8
v -6.1 2.5 3.8
v -5.5 1 3.8
v -5.5 1.1 3.8
v -5.4 1 3.8
v -5.4 1.1 3.8
v -5.5 1.1 3.7
v -5.5 1.2 3.7
v -5.4 1.1 3.7
v -5.4 1.2 3.7
v -6.3 2.2 3.6
v -6.3 2.4 3.6
v -6.2 2.2 3.6
v -6.2 2.4 3.6
v -5.4 1.1 3.6
v -5.4 1.2 3.6
v -5.4 2 3.6
v -5.4 2.1 3.6
v -5.1 2 3.6
v -5.1 2.1 3.6
v -5 1.4 3.6
v -5 1.5 3.6
v -5 1.8 3.6
v -5 1.9 3.6
v -4.9 1.4 3.6
v -4.9 1.5 3.6
v -4.6 1.1 3.6
v -4.6 1.2 3.6
v -4.6 1.8 3.6
v -4.6 1.9 3.6
v -6.9 0.9 3.5
v -6.9 1.4 3.5
v -6.8 0.8 3.5
v -6.8 0.9 3.5
v -6.8 1.4 3.5
v -6.8 1.5 3.5
v -6.7 0.7 3.5
v -6.7 0.8 3.5
v -6.7 0.9 3.5
v -6.7 1.4 3.5
v -6.7 1.5 3.5
v -6.7 1.6 3.5
v -6.5 1.1 3.5
v -6.5 1.3 3.5
v -6.4 1.1 3.5
v -6.4 1.3 3.5
v -6.4 1.5 3.5
v -6.4 1.6 3.5
v -6.4 1.8 3.5
v -6.3 1.3 3.5
v -6.3 1.5 3.5
v -6.3 1.6 3.5
v -6.3 1.7 3.5
v -6.3 1.8 3.5
v -6.3 2.2 3.5
v -6.2 0.7 3.5
v -6.2 0.8 3.5
v -6.2 0.9 3.5
v -6.2 1.4 3.5
v -6.2 1.5 3.5
v -6.2 1.6 3.5
v -6.2 1.7 3.5
v -6.2 1.8 3.5
v -6.2 2.2 3.5
v -6.1 0.8 3.5
v -6.1 0.9 3.5
v -6.1 1.4 3.5
v -6.1 1.5 3.5
v -6.1 1.6 3.5
v -6.1 1.7 3.5
v -6 0.9 3.5
v -6 1.4 3.5
v -5.9 1.4 3.5
v -5.9 1.5 3.5
v -5.9 1.6 3.5
v -5.8 1.3 3.5
v -5.8 1.4 3.5
v -5.8 1.5 3.5
v -5.7 1.1 3.5
v -5.7 1.3 3.5
v -5.6 1.3 3.5
v -5.6 1.4 3.5
v -5.5 1.1 3.5
v -5.5 1.2 3.5
v -5.5 1.3 3.5
v -5.5 1.4 3.5
v -5.5 2 3.5
v -5.5 2.1 3.5
v -5.4 1.2 3.5
v -5.4 1.4 3.5
v -5.4 1.7 3.5
v -5.4 1.8 3.5
v -5.4 1.9 3.5
v -5.4 2 3.5
v -5.4 2.1 3.5
v -5.3 1.4 3.5
v -5.3 1.6 3.5
v -5.3 1.8 3.5
v -5.3 1.9 3.5
v -5.3 2 3.5
v -5.2 1.5 3.5
v -5.2 1.6 3.5
v -5.2 1.7 3.5
v -5.2 1.9 3.5
v -5.2 2 3.5
v -5.1 0.9 3.5
v -5.1 1.1 3.5
v -5.1 1.2 3.5
v -5.1 1.4 3.5
v -5.1 1.5 3.5
v -5 0.8 3.5
v -5 0.9 3.5
v -5 1.1 3.5
v -5 1.2 3.5
v -5 1.4 3.5
v -5 1.5 3.5
v -5 1.8 3.5
v -4.9 0.7 3.5
v -4.9 0.8 3.5
v -4.9 0.9 3.5
v -4.9 1.3 3.5
v -4.9 1.4 3.5
v -4.9 1.5 3.5
v -4.9 1.6 3.5
v -4.9 1.7 3.5
v -4.9 1.8 3.5
v -4.8 1.2 3.5
v -4.8 1.3 3.5
v -4.8 1.5 3.5
v -4.7 1.2 3.5
v -4.7 1.3 3.5
v -4.4 0.7 3.5
v -4.4 0.8 3.5
v -4.4 0.9 3.5
v -4.4 1.4 3.5
v -4.4 1.5 3.5
v -4.4 1.6 3.5
v -4.3 0.8 3.5
v -4.3 0.9 3.5
v -4.3 1.4 3.5
v -4.3 1.5 3.5
v -4.2 0.9 3.5
v -4.2 1.4 3.5
v -6.3 2.3 3.4
v -6.3 2.5 3.4
v -6.2 2.3 3.4
v -6.2 2.5 3.4
v -5 1.1 3.4
v -5 1.2 3.4
v -4.9 1.1 3.4
v -4.9 1.2 3.4
v -5.5 1 3.3
v -5.5 1.1 3.3
v -5.4 1 3.3
v -5.4 1.1 3.3
v -6.2 2.4 3.2
v -6.2 2.5 3.2
v -6.1 2.4 3.2
v -6.1 2.5 3.2
v -6.2 2.4 3.7
v -6.2 2.5 3.7
v -6.1 2.4 3.7
v -6.1 2.5 3.7
v -5.5 1 3.6
v -5.5 1.1 3.6
v -5.4 1 3.6
v -5.4 1.1 3.6
v -6.3 2.3 3.5
v -6.3 2.5 3.5
v -6.2 2.3 3.5
v -6.2 2.5 3.5
v -5 1.1 3.5
v -5 1.2 3.5
v -4.9 1.1 3.5
v -4.9 1.2 3.5
v -6.9 0.9 3.4
v -6.9 1.4 3.4
v -6.8 0.8 3.4
v -6.8 0.9 3.4
v -6.8 1.4 3.4
v -6.8 1.5 3.4
v -6.7 0.7 3.4
v -6.7 0.8 3.4
v -6.7 0.9 3.4
v -6.7 1.4 3.4
v -6.7 1.5 3.4
v -6.7 1.6 3.4
v -6.5 1.1 3.4
v -6.5 1.3 3.4
v -6.4 1.1 3.4
v -6.4 1.3 3.4
v -6.4 1.5 3.4
v -6.4 1.6 3.4
v -6.4 1.8 3.4
v -6.3 1.3 3.4
v -6.3 1.5 3.4
v -6.3 1.6 3.4
v -6.3 1.7 3.4
v -6.3 1.8 3.4
v -6.3 2.2 3.4
v -6.2 0.7 3.4
v -6.2 0.8 3.4
v -6.2 0.9 3.4
v -6.2 1.4 3.4
v -6.2 1.5 3.4
v -6.2 1.6 3.4
v -6.2 1.7 3.4
v -6.2 1.8 3.4
v -6.2 2.2 3.4
v -6.1 0.8 3.4
v -6.1 0.9 3.4
v -6.1 1.4 3.4
v -6.1 1.5 3.4
v -6.1 1.6 3.4
v -6.1 1.7 3.4
v -6 0.9 3.4
v -6 1.4 3.4
v -5.9 1.4 3.4
v -5.9 1.5 3.4
v -5.9 1.6 3.4
v -5.8 1.3 3.4
v -5.8 1.4 3.4
v -5.8 1.5 3.4
v -5.7 1.1 3.4
v -5.7 1.3 3.4
v -5.6 1.3 3.4
v -5.6 1.4 3.4
v -5.5 1.1 3.4
v -5.5 1.2 3.4
v -5.5 1.3 3.4
v -5.5 1.4 3.4
v -5.5 2 3.4
v -5.5 2.1 3.4
v -5.4 1.2 3.4
v -5.4 1.4 3.4
v -5.4 1.7 3.4
v -5.4 1.8 3.4
v -5.4 1.9 3.4
v -5.4 2 3.4
v -5.4 2.1 3.4
v -5.3 1.4 3.4
v -5.3 1.6 3.4
v -5.3 1.8 3.4
v -5.3 1.9 3.4
v -5.3 2 3.4
v -5.2 1.5 3.4
v -5.2 1.6 3.4
v -5.2 1.7 3.4
v -5.2 1.9 3.4
v -5.2 2 3.4
v -5.1 0.9 3.4
v -5.1 1.1 3.4
v -5.1 1.2 3.4
v -5.1 1.4 3.4
v -5.1 1.5 3.4
v -5 0.8 3.4
v -5 0.9 3.4
v -5 1.1 3.4
v -5 1.2 3.4
v -5 1.4 3.4
v -5 1.5 3.4
v -5 1.8 3.4
v -4.9 0.7 3.4
v -4.9 0.8 3.4
v -4.9 0.9 3.4
v -4.9 1.3 3.4
v -4.9 1.4 3.4
v -4.9 1.5 3.4
v -4.9 1.6 3.4
v -4.9 1.7 3.4
v -4.9 1.8 3.4
v -4.8 1.2 3.4
v -4.8 1.3 3.4
v -4.8 1.5 3.4
v -4.7 1.2 3.4
v -4.7 1.3 3.4
v -4.4 0.7 3.4
v -4.4 0.8 3.4
v -4.4 0.9 3.4
v -4.4 1.4 3.4
v -4.4 1.5 3.4
v -4.4 1.6 3.4
v -4.3 0.8 3.4
v -4.3 0.9 3.4
v -4.3 1.4 3.4
v -4.3 1.5 3.4
v -4.2 0.9 3.4
v -4.2 1.4 3.4
v -6.3 2.2 3.3
v -6.3 2.4 3.3
v -6.2 2.2 3.3
v -6.2 2.4 3.3
v -5.4 1.1 3.3
v -5.4 1.2 3.3
v -5.4 2 3.3
v -5.4 2.1 3.3
v -5.1 2 3.3
v -5.1 2.1 3.3
v -5 1.8 3.3
v -5 1.9 3.3
v -4.6 1.1 3.3
v -4.6 1.2 3.3
v -4.6 1.8 3.3
v -4.6 1.9 3.3
v -5.5 1.1 3.2
v -5.5 1.2 3.2
v -5.4 1.1 3.2
v -5.4 1.2 3.2
v -6.3 2.4 3.1
v -6.3 2.5 3.1
v -6.1 2.4 3.1
v -6.1 2.5 3.1
v -5.5 1 3.1
v -5.5 1.1 3.1
v -5.4 1 3.1
v -5.4 1.1 3.1
v -6.7 0.7 3.5
v -6.2 0.7 3.5
v -4.9 0.7 3.5
v -4.4 0.7 3.5
v -6.7 0.7 3.4
v -6.2 0.7 3.4
v -4.9 0.7 3.4
v -4.4 0.7 3.4
v -6.8 0.8 3.5
v -6.7 0.8 3.5
v -6.2 0.8 3.5
v -6.1 0.8 3.5
v -5 0.8 3.5
v -4.9 0.8 3.5
v -4.4 0.8 3.5
v -4.3 0.8 3.5
v -6.8 0.8 3.4
v -6.7 0.8 3.4
v -6.2 0.8 3.4
v -6.1 0.8 3.4
v -5 0.8 3.4
v -4.9 0.8 3.4
v -4.4 0.8 3.4
v -4.3 0.8 3.4
v -6.9 0.9 3.5
v -6.8 0.9 3.5
v -6.1 0.9 3.5
v -6 0.9 3.5
v -5.1 0.9 3.5
v -5 0.9 3.5
v -4.3 0.9 3.5
v -4.2 0.9 3.5
v -6.9 0.9 3.4
v -6.8 0.9 3.4
v -6.1 0.9 3.4
v -6 0.9 3.4
v -5.1 0.9 3.4
v -5 0.9 3.4
v -4.3 0.9 3.4
v -4.2 0.9 3.4
v -5.5 1 3.8
v -5.4 1 3.8
v -5.5 1 3.6
v -5.4 1 3.6
v -5.5 1 3.3
v -5.4 1 3.3
v -5.5 1 3.1
v -5.4 1 3.1
v -5.5 1.1 3.6
v -5.4 1.1 3.6
v -4.6 1.1 3.6
v -6.5 1.1 3.5
v -6.4 1.1 3.5
v -5.7 1.1 3.5
v -5.5 1.1 3.5
v -5.1 1.1 3.5
v -5 1.1 3.5
v -4.9 1.1 3.5
v -6.5 1.1 3.4
v -6.4 1.1 3.4
v -5.7 1.1 3.4
v -5.5 1.1 3.4
v -5.1 1.1 3.4
v -5 1.1 3.4
v -4.9 1.1 3.4
v -5.5 1.1 3.3
v -5.4 1.1 3.3
v -4.6 1.1 3.3
v -6.4 1.3 3.5
v -6.3 1.3 3.5
v -5.8 1.3 3.5
v -5.7 1.3 3.5
v -4.9 1.3 3.5
v -4.8 1.3 3.5
v -6.4 1.3 3.4
v -6.3 1.3 3.4
v -5.8 1.3 3.4
v -5.7 1.3 3.4
v -4.9 1.3 3.4
v -4.8 1.3 3.4
v -5 1.4 3.6
v -4.9 1.4 3.6
v -6.8 1.4 3.5
v -6.7 1.4 3.5
v -6.2 1.4 3.5
v -6.1 1.4 3.5
v -5.9 1.4 3.5
v -5.8 1.4 3.5
v -5.4 1.4 3.5
v -5.3 1.4 3.5
v -5 1.4 3.5
v -4.9 1.4 3.5
v -4.4 1.4 3.5
v -4.3 1.4 3.5
v -6.8 1.4 3.4
v -6.7 1.4 3.4
v -6.2 1.4 3.4
v -6.1 1.4 3.4
v -5.9 1.4 3.4
v -5.8 1.4 3.4
v -5.4 1.4 3.4
v -5.3 1.4 3.4
v -5 1.4 3.4
v -4.9 1.4 3.4
v -4.4 1.4 3.4
v -4.3 1.4 3.4
v -6.7 1.5 3.5
v -6.4 1.5 3.5
v -6.3 1.5 3.5
v -6.2 1.5 3.5
v -6.1 1.5 3.5
v -5.9 1.5 3.5
v -5.2 1.5 3.5
v -5.1 1.5 3.5
v -4.8 1.5 3.5
v -4.4 1.5 3.5
v -6.7 1.5 3.4
v -6.4 1.5 3.4
v -6.3 1.5 3.4
v -6.2 1.5 3.4
v -6.1 1.5 3.4
v -5.9 1.5 3.4
v -5.2 1.5 3.4
v -5.1 1.5 3.4
v -4.8 1.5 3.4
v -4.4 1.5 3.4
v -6.2 1.6 3.5
v -6.1 1.6 3.5
v -5.3 1.6 3.5
v -5.2 1.6 3.5
v -6.2 1.6 3.4
v -6.1 1.6 3.4
v -5.3 1.6 3.4
v -5.2 1.6 3.4
v -6.3 1.7 3.5
v -6.2 1.7 3.5
v -6.1 1.7 3.5
v -5.4 1.7 3.5
v -5.2 1.7 3.5
v -4.9 1.7 3.5
v -6.3 1.7 3.4
v -6.2 1.7 3.4
v -6.1 1.7 3.4
v -5.4 1.7 3.4
v -5.2 1.7 3.4
v -4.9 1.7 3.4
v -5 1.8 3.6
v -4.6 1.8 3.6
v -5 1.8 3.5
v -4.9 1.8 3.5
v -5 1.8 3.4
v -4.9 1.8 3.4
v -5 1.8 3.3
v -4.6 1.8 3.3
v -5.3 1.9 3.5
v -5.2 1.9 3.5
v -5.3 1.9 3.4
v -5.2 1.9 3.4
v -5.4 2 3.6
v -5.1 2 3.6
v -5.5 2 3.5
v -5.4 2 3.5
v -5.3 2 3.5
v -5.2 2 3.5
v -5.5 2 3.4
v -5.4 2 3.4
v -5.3 2 3.4
v -5.2 2 3.4
v -5.4 2 3.3
v -5.1 2 3.3
v -6.3 2.2 3.6
v -6.2 2.2 3.6
v -6.3 2.2 3.5
v -6.2 2.2 3.5
v -6.3 2.2 3.4
v -6.2 2.2 3.4
v -6.3 2.2 3.3
v -6.2 2.2 3.3
v -6.3 2.4 3.8
v -6.1 2.4 3.8
v -6.3 2.4 3.7
v -6.2 2.4 3.7
v -6.1 2.4 3.7
v -6.3 2.4 3.6
v -6.2 2.4 3.6
v -6.3 2.4 3.3
v -6.2 2.4 3.3
v -6.3 2.4 3.2
v -6.2 2.4 3.2
v -6.1 2.4 3.2
v -6.3 2.4 3.1
v -6.1 2.4 3.1
v -6.7 0.8 3.5
v -6.2 0.8 3.5
v -4.9 0.8 3.5
v -4.4 0.8 3.5
v -6.7 0.8 3.4
v -6.2 0.8 3.4
v -4.9 0.8 3.4
v -4.4 0.8 3.4
v -6.8 0.9 3.5
v -6.7 0.9 3.5
v -6.2 0.9 3.5
v -6.1 0.9 3.5
v -5 0.9 3.5
v -4.9 0.9 3.5
v -4.4 0.9 3.5
v -4.3 0.9 3.5
v -6.8 0.9 3.4
v -6.7 0.9 3.4
v -6.2 0.9 3.4
v -6.1 0.9 3.4
v -5 0.9 3.4
v -4.9 0.9 3.4
v -4.4 0.9 3.4
v -4.3 0.9 3.4
v -5.5 1.1 3.8
v -5.4 1.1 3.8
v -5.5 1.1 3.7
v -5.4 1.1 3.7
v -5.5 1.1 3.2
v -5.4 1.1 3.2
v -5.5 1.1 3.1
v -5.4 1.1 3.1
v -5.5 1.2 3.7
v -5.4 1.2 3.7
v -5.4 1.2 3.6
v -4.6 1.2 3.6
v -5.5 1.2 3.5
v -5.4 1.2 3.5
v -5.1 1.2 3.5
v -5 1.2 3.5
v -4.9 1.2 3.5
v -4.8 1.2 3.5
v -4.7 1.2 3.5
v -5.5 1.2 3.4
v -5.4 1.2 3.4
v -5.1 1.2 3.4
v -5 1.2 3.4
v -4.9 1.2 3.4
v -4.8 1.2 3.4
v -4.7 1.2 3.4
v -5.4 1.2 3.3
v -4.6 1.2 3.3
v -5.5 1.2 3.2
v -5.4 1.2 3.2
v -6.5 1.3 3.5
v -6.4 1.3 3.5
v -5.6 1.3 3.5
v -5.5 1.3 3.5
v -4.8 1.3 3.5
v -4.7 1.3 3.5
v -6.5 1.3 3.4
v -6.4 1.3 3.4
v -5.6 1.3 3.4
v -5.5 1.3 3.4
v -4.8 1.3 3.4
v -4.7 1.3 3.4
v -6.9 1.4 3.5
v -6.8 1.4 3.5
v -6.1 1.4 3.5
v -6 1.4 3.5
v -5.8 1.4 3.5
v -5.6 1.4 3.5
v -5.5 1.4 3.5
v -5.4 1.4 3.5
v -4.3 1.4 3.5
v -4.2 1.4 3.5
v -6.9 1.4 3.4
v -6.8 1.4 3.4
v -6.1 1.4 3.4
v -6 1.4 3.4
v -5.8 1.4 3.4
v -5.6 1.4 3.4
v -5.5 1.4 3.4
v -5.4 1.4 3.4
v -4.3 1.4 3.4
v -4.2 1.4 3.4
v -5 1.5 3.6
v -4.9 1.5 3.6
v -6.8 1.5 3.5
v -6.7 1.5 3.5
v -6.2 1.5 3.5
v -6.1 1.5 3.5
v -5.9 1.5 3.5
v -5.8 1.5 3.5
v -5 1.5 3.5
v -4.9 1.5 3.5
v -4.4 1.5 3.5
v -4.3 1.5 3.5
v -6.8 1.5 3.4
v -6.7 1.5 3.4
v -6.2 1.5 3.4
v -6.1 1.5 3.4
v -5.9 1.5 3.4
v -5.8 1.5 3.4
v -4.4 1.5 3.4
v -4.3 1.5 3.4
v -6.7 1.6 3.5
v -6.4 1.6 3.5
v -6.3 1.6 3.5
v -6.2 1.6 3.5
v -6.1 1.6 3.5
v -5.9 1.6 3.5
v -5.2 1.6 3.5
v -4.9 1.6 3.5
v -4.4 1.6 3.5
v -6.7 1.6 3.4
v -6.4 1.6 3.4
v -6.3 1.6 3.4
v -6.2 1.6 3.4
v -6.1 1.6 3.4
v -5.9 1.6 3.4
v -5.2 1.6 3.4
v -4.9 1.6 3.4
v -4.4 1.6 3.4
v -6.4 1.8 3.5
v -6.3 1.8 3.5
v -6.2 1.8 3.5
v -5.4 1.8 3.5
v -5.3 1.8 3.5
v -5 1.8 3.5
v -6.4 1.8 3.4
v -6.3 1.8 3.4
v -6.2 1.8 3.4
v -5.4 1.8 3.4
v -5.3 1.8 3.4
v -5 1.8 3.4
v -5 1.9 3.6
v -4.6 1.9 3.6
v -5.4 1.9 3.5
v -5.3 1.9 3.5
v -5.4 1.9 3.4
v -5.3 1.9 3.4
v -5 1.9 3.3
v -4.6 1.9 3.3
v -5.4 2.1 3.6
v -5.1 2.1 3.6
v -5.5 2.1 3.5
v -5.4 2.1 3.5
v -5.5 2.1 3.4
v -5.4 2.1 3.4
v -5.4 2.1 3.3
v -5.1 2.1 3.3
v -6.3 2.3 3.5
v -6.2 2.3 3.5
v -6.3 2.3 3.4
v -6.2 2.3 3.4
v -6.3 2.5 3.8
v -6.1 2.5 3.8
v -6.3 2.5 3.7
v -6.2 2.5 3.7
v -6.1 2.5 3.7
v -6.3 2.5 3.5
v -6.2 2.5 3.5
v -6.3 2.5 3.4
v -6.2 2.5 3.4
v -6.3 2.5 3.2
v -6.2 2.5 3.2
v -6.1 2.5 3.2
v -6.3 2.5 3.1
v -6.1 2.5 3.1

# faces
f 3/1/1 2/1/1 1/1/1
f 4/1/1 2/1/1 3/1/1
f 7/1/1 6/1/1 5/1/1
f 8/1/1 6/1/1 7/1/1
f 11/1/1 10/1/1 9/1/1
f 12/1/1 10/1/1 11/1/1
f 15/1/1 14/1/1 13/1/1
f 16/1/1 14/1/1 15/1/1
f 19/1/1 18/1/1 17/1/1
f 20/1/1 18/1/1 19/1/1
f 23/4/1 22/4/1 21/4/1
f 24/4/1 22/4/1 23/4/1
f 27/4/1 26/4/1 25/4/1
f 28/4/1 26/4/1 27/4/1
f 31/4/1 30/4/1 29/4/1
f 32/4/1 30/4/1 31/4/1
f 36/4/1 34/4/1 33/4/1
f 37/4/1 34/4/1 36/4/1
f 39/4/1 36/4/1 35/4/1
f 39/4/1 38/4/1 37/4/1
f 39/4/1 37/4/1 36/4/1
f 40/4/1 38/4/1 39/4/1
f 43/4/1 39/4/1 35/4/1
f 44/4/1 38/4/1 40/4/1
f 47/2/1 42/2/1 41/2/1
f 48/4/1 43/4/1 42/4/1
f 48/2/1 42/2/1 47/2/1
f 49/4/1 39/4/1 43/4/1
f 49/4/1 43/4/1 48/4/1
f 50/4/1 44/4/1 40/4/1
f 50/4/1 45/4/1 44/4/1
f 51/2/1 46/2/1 45/2/1
f 51/4/1 45/4/1 50/4/1
f 52/2/1 46/2/1 51/2/1
f 55/1/1 54/1/1 53/1/1
f 56/1/1 54/1/1 55/1/1
f 59/1/1 58/1/1 57/1/1
f 60/1/1 58/1/1 59/1/1
f 63/4/1 62/4/1 61/4/1
f 64/4/1 62/4/1 63/4/1
f 67/1/1 66/1/1 65/1/1
f 68/1/1 66/1/1 67/1/1
f 71/4/1 70/4/1 69/4/1
f 72/4/1 70/4/1 71/4/1
f 75/4/1 74/4/1 73/4/1
f 76/4/1 74/4/1 75/4/1
f 79/4/1 78/4/1 77/4/1
f 80/4/1 78/4/1 79/4/1
f 83/4/1 82/4/1 81/4/1
f 84/4/1 82/4/1 83/4/1
f 89/4/1 86/4/1 85/4/1
f 90/4/1 86/4/1 89/4/1
f 91/4/1 86/4/1 90/4/1
f 94/4/1 88/4/1 87/4/1
f 95/4/1 88/4/1 94/4/1
f 96/4/1 88/4/1 95/4/1
f 97/4/1 92/4/1 91/4/1
f 97/4/1 91/4/1 90/4/1
f 98/4/1 92/4/1 97/4/1
f 99/4/1 95/4/1 94/4/1
f 99/4/1 94/4/1 93/4/1
f 100/4/1 95/4/1 99/4/1
f 103/4/1 102/4/1 101/4/1
f 104/4/1 102/4/1 103/4/1
f 107/1/1 106/1/1 105/1/1
f 108/1/1 106/1/1 107/1/1
f 111/4/1 110/4/1 109/4/1
f 112/4/1 110/4/1 111/4/1
f 115/4/1 114/4/1 113/4/1
f 116/4/1 114/4/1 115/4/1
f 121/1/1 118/1/1 117/1/1
f 122/1/1 118/1/1 121/1/1
f 123/1/1 120/1/1 119/1/1
f 124/1/1 120/1/1 123/1/1
f 127/4/1 126/4/1 125/4/1
f 128/4/1 126/4/1 127/4/1
f 131/4/1 130/4/1 129/4/1
f 132/4/1 130/4/1 131/4/1
f 135/1/1 134/1/1 133/1/1
f 136/1/1 134/1/1 135/1/1
f 139/1/1 138/1/1 137/1/1
f 140/1/1 138/1/1 139/1/1
f 141/4/1 140/4/1 139/4/1
f 142/4/1 140/4/1 141/4/1
f 145/1/1 144/1/1 143/1/1
f 146/1/1 144/1/1 145/1/1
f 149/4/1 148/4/1 147/4/1
f 150/4/1 148/4/1 149/4/1
f 155/4/1 153/4/1 152/4/1
f 155/4/1 154/4/1 153/4/1
f 155/4/1 152/4/1 151/4/1
f 156/4/1 154/4/1 155/4/1
f 159/1/1 158/1/1 157/1/1
f 160/1/1 158/1/1 159/1/1
f 163/4/1 162/4/1 161/4/1
f 164/4/1 162/4/1 163/4/1
f 167/4/1 166/4/1 165/4/1
f 168/4/1 166/4/1 167/4/1
f 171/4/1 170/4/1 169/4/1
f 172/4/1 170/4/1 171/4/1
f 175/1/1 174/1/1 173/1/1
f 176/1/1 174/1/1 175/1/1
f 179/1/1 178/1/1 177/1/1
f 180/1/1 178/1/1 179/1/1
f 183/1/1 182/1/1 181/1/1
f 184/1/1 182/1/1 183/1/1
f 185/1/2 186/1/2 187/1/2
f 187/1/2 186/1/2 188/1/2
f 189/1/2 190/1/2 191/1/2
f 191/1/2 190/1/2 192/1/2
f 193/1/2 194/1/2 195/1/2
f 195/1/2 194/1/2 196/1/2
f 197/4/2 198/4/2 199/4/2
f 199/4/2 198/4/2 200/4/2
f 201/4/2 202/4/2 203/4/2
f 203/4/2 202/4/2 204/4/2
f 205/4/2 206/4/2 207/4/2
f 207/4/2 206/4/2 208/4/2
f 209/1/2 210/1/2 211/1/2
f 211/1/2 210/1/2 212/1/2
f 213/1/2 214/1/2 215/1/2
f 215/1/2 214/1/2 216/1/2
f 217/4/2 218/4/2 220/4/2
f 220/4/2 218/4/2 221/4/2
f 220/4/2 221/4/2 223/4/2
f 221/4/2 222/4/2 223/4/2
f 219/4/2 220/4/2 223/4/2
f 223/4/2 222/4/2 224/4/2
f 219/4/2 223/4/2 226/4/2
f 224/4/2 222/4/2 227/4/2
f 225/4/2 226/4/2 229/4/2
f 226/4/2 223/4/2 230/4/2
f 229/4/2 226/4/2 230/4/2
f 227/4/2 228/4/2 231/4/2
f 224/4/2 227/4/2 231/4/2
f 231/4/2 228/4/2 232/4/2
f 233/1/2 234/1/2 235/1/2
f 235/1/2 234/1/2 236/1/2
f 237/1/2 238/1/2 239/1/2
f 239/1/2 238/1/2 240/1/2
f 241/4/2 242/4/2 243/4/2
f 243/4/2 242/4/2 244/4/2
f 245/2/2 246/2/2 249/2/2
f 249/2/2 246/2/2 250/2/2
f 247/2/2 248/2/2 251/2/2
f 251/2/2 248/2/2 252/2/2
f 253/1/2 254/1/2 255/1/2
f 255/1/2 254/1/2 256/1/2
f 257/4/2 258/4/2 259/4/2
f 259/4/2 258/4/2 260/4/2
f 261/4/2 262/4/2 263/4/2
f 263/4/2 262/4/2 264/4/2
f 265/4/2 266/4/2 267/4/2
f 267/4/2 266/4/2 268/4/2
f 269/4/2 270/4/2 273/4/2
f 273/4/2 270/4/2 274/4/2
f 274/4/2 270/4/2 275/4/2
f 271/4/2 272/4/2 276/4/2
f 276/4/2 272/4/2 277/4/2
f 277/4/2 272/4/2 278/4/2
f 274/4/2 275/4/2 279/4/2
f 279/4/2 275/4/2 280/4/2
f 276/4/2 277/4/2 283/4/2
f 283/4/2 277/4/2 284/4/2
f 281/4/2 282/4/2 285/4/2
f 285/4/2 282/4/2 286/4/2
f 287/4/2 288/4/2 289/4/2
f 289/4/2 288/4/2 290/4/2
f 291/4/2 292/4/2 293/4/2
f 293/4/2 292/4/2 294/4/2
f 295/4/2 296/4/2 297/4/2
f 297/4/2 296/4/2 298/4/2
f 299/4/2 300/4/2 301/4/2
f 301/4/2 300/4/2 302/4/2
f 303/1/2 304/1/2 305/1/2
f 305/1/2 304/1/2 306/1/2
f 307/1/2 308/1/2 309/1/2
f 309/1/2 308/1/2 310/1/2
f 309/3/2 310/3/2 311/3/2
f 311/3/2 310/3/2 312/3/2
f 311/1/2 312/1/2 313/1/2
f 313/1/2 312/1/2 314/1/2
f 315/1/2 316/1/2 317/1/2
f 317/1/2 316/1/2 318/1/2
f 319/4/2 320/4/2 321/4/2
f 321/4/2 320/4/2 322/4/2
f 323/4/2 324/4/2 325/4/2
f 325/4/2 324/4/2 326/4/2
f 327/4/2 328/4/2 329/4/2
f 329/4/2 328/4/2 330/4/2
f 331/4/2 332/4/2 333/4/2
f 333/4/2 332/4/2 334/4/2
f 335/4/2 336/4/2 337/4/2
f 337/4/2 336/4/2 338/4/2
f 339/4/2 340/4/2 341/4/2
f 341/4/2 340/4/2 342/4/2
f 343/1/2 344/1/2 345/1/2
f 345/1/2 344/1/2 346/1/2
f 347/1/2 348/1/2 349/1/2
f 349/1/2 348/1/2 350/1/2
f 351/1/2 352/1/2 353/1/2
f 353/1/2 352/1/2 354/1/2
f 355/1/2 356/1/2 357/1/2
f 357/1/2 356/1/2 358/1/2
f 359/1/2 360/1/2 361/1/2
f 361/1/2 360/1/2 362/1/2
f 365/2/3 364/2/3 363/2/3
f 366/2/3 364/2/3 365/2/3
f 369/4/3 368/4/3 367/4/3
f 370/4/3 368/4/3 369/4/3
f 373/4/3 372/4/3 371/4/3
f 374/4/3 372/4/3 373/4/3
f 377/4/3 376/4/3 375/4/3
f 378/4/3 376/4/3 377/4/3
f 383/1/3 382/1/3 381/1/3
f 384/1/3 382/1/3 383/1/3
f 389/4/3 386/4/3 385/4/3
f 390/4/3 386/4/3 389/4/3
f 391/4/3 380/4/3 379/4/3
f 392/4/3 380/4/3 391/4/3
f 393/4/3 388/4/3 387/4/3
f 394/4/3 388/4/3 393/4/3
f 398/1/3 396/1/3 395/1/3
f 399/1/3 396/1/3 398/1/3
f 402/1/3 398/1/3 397/1/3
f 403/1/3 398/1/3 402/1/3
f 404/1/3 400/1/3 399/1/3
f 405/1/3 400/1/3 404/1/3
f 409/4/3 408/4/3 407/4/3
f 410/4/3 408/4/3 409/4/3
f 411/1/3 406/1/3 405/1/3
f 412/1/3 406/1/3 411/1/3
f 414/4/3 411/4/3 410/4/3
f 415/1/3 412/1/3 411/1/3
f 415/4/3 411/4/3 414/4/3
f 416/4/3 413/4/3 412/4/3
f 416/1/3 412/1/3 415/1/3
f 417/4/3 413/4/3 416/4/3
f 418/4/3 413/4/3 417/4/3
f 420/1/3 402/1/3 401/1/3
f 421/1/3 402/1/3 420/1/3
f 424/1/3 416/1/3 415/1/3
f 425/1/3 416/1/3 424/1/3
f 426/4/3 419/4/3 418/4/3
f 426/4/3 418/4/3 417/4/3
f 427/4/3 419/4/3 426/4/3
f 428/4/3 419/4/3 427/4/3
f 429/1/3 422/1/3 421/1/3
f 430/1/3 422/1/3 429/1/3
f 431/1/3 424/1/3 423/1/3
f 432/1/3 424/1/3 431/1/3
f 433/4/3 427/4/3 426/4/3
f 433/4/3 426/4/3 425/4/3
f 434/4/3 427/4/3 433/4/3
f 435/1/3 431/1/3 430/1/3
f 436/1/3 431/1/3 435/1/3
f 438/4/3 433/4/3 432/4/3
f 439/4/3 433/4/3 438/4/3
f 441/4/3 438/4/3 437/4/3
f 442/4/3 438/4/3 441/4/3
f 444/4/3 441/4/3 440/4/3
f 445/4/3 441/4/3 444/4/3
f 445/4/3 444/4/3 443/4/3
f 446/4/3 441/4/3 445/4/3
f 447/4/3 445/4/3 443/4/3
f 448/4/3 445/4/3 447/4/3
f 449/4/3 445/4/3 448/4/3
f 453/4/3 450/4/3 449/4/3
f 453/4/3 449/4/3 448/4/3
f 454/4/3 450/4/3 453/4/3
f 455/4/3 427/4/3 434/4/3
f 456/4/3 427/4/3 455/4/3
f 458/1/3 452/1/3 451/1/3
f 459/1/3 452/1/3 458/1/3
f 460/4/3 457/4/3 456/4/3
f 460/4/3 455/4/3 454/4/3
f 460/4/3 456/4/3 455/4/3
f 461/4/3 457/4/3 460/4/3
f 462/4/3 457/4/3 461/4/3
f 463/4/3 457/4/3 462/4/3
f 466/4/3 462/4/3 461/4/3
f 467/4/3 462/4/3 466/4/3
f 468/4/3 464/4/3 463/4/3
f 469/4/3 464/4/3 468/4/3
f 474/4/3 466/4/3 465/4/3
f 476/1/3 471/1/3 470/1/3
f 477/1/3 471/1/3 476/1/3
f 478/1/3 473/1/3 472/1/3
f 479/4/3 474/4/3 473/4/3
f 479/1/3 473/1/3 478/1/3
f 480/4/3 466/4/3 474/4/3
f 480/4/3 474/4/3 479/4/3
f 481/4/3 462/4/3 467/4/3
f 483/1/3 476/1/3 475/1/3
f 484/1/3 476/1/3 483/1/3
f 487/4/3 466/4/3 480/4/3
f 488/4/3 466/4/3 487/4/3
f 489/4/3 481/4/3 467/4/3
f 490/4/3 481/4/3 489/4/3
f 492/4/3 486/4/3 485/4/3
f 492/4/3 487/4/3 486/4/3
f 493/1/3 488/1/3 487/1/3
f 493/4/3 487/4/3 492/4/3
f 494/4/3 492/4/3 491/4/3
f 495/4/3 492/4/3 494/4/3
f 496/1/3 483/1/3 482/1/3
f 497/1/3 483/1/3 496/1/3
f 500/1/3 488/1/3 493/1/3
f 501/1/3 488/1/3 500/1/3
f 502/1/3 498/1/3 497/1/3
f 503/1/3 498/1/3 502/1/3
f 504/1/3 500/1/3 499/1/3
f 505/1/3 500/1/3 504/1/3
f 506/1/3 504/1/3 503/1/3
f 507/1/3 504/1/3 506/1/3
f 510/4/3 509/4/3 508/4/3
f 511/4/3 509/4/3 510/4/3
f 514/4/3 513/4/3 512/4/3
f 515/4/3 513/4/3 514/4/3
f 518/4/3 517/4/3 516/4/3
f 519/4/3 517/4/3 518/4/3
f 522/2/3 521/2/3 520/2/3
f 523/2/3 521/2/3 522/2/3
f 524/2/4 525/2/4 526/2/4
f 526/2/4 525/2/4 527/2/4
f 528/4/4 529/4/4 530/4/4
f 530/4/4 529/4/4 531/4/4
f 532/4/4 533/4/4 534/4/4
f 534/4/4 533/4/4 535/4/4
f 536/4/4 537/4/4 538/4/4
f 538/4/4 537/4/4 539/4/4
f 540/1/4 541/1/4 543/1/4
f 543/1/4 541/1/4 544/1/4
f 542/1/4 543/1/4 547/1/4
f 547/1/4 543/1/4 548/1/4
f 544/1/4 545/1/4 549/1/4
f 549/1/4 545/1/4 550/1/4
f 552/4/4 553/4/4 554/4/4
f 554/4/4 553/4/4 555/4/4
f 550/1/4 551/1/4 556/1/4
f 556/1/4 551/1/4 557/1/4
f 555/4/4 556/4/4 559/4/4
f 556/1/4 557/1/4 560/1/4
f 559/4/4 556/4/4 560/4/4
f 557/4/4 558/4/4 561/4/4
f 560/1/4 557/1/4 561/1/4
f 561/4/4 558/4/4 562/4/4
f 562/4/4 558/4/4 563/4/4
f 546/1/4 547/1/4 565/1/4
f 565/1/4 547/1/4 566/1/4
f 560/1/4 561/1/4 569/1/4
f 569/1/4 561/1/4 570/1/4
f 563/4/4 564/4/4 571/4/4
f 562/4/4 563/4/4 571/4/4
f 571/4/4 564/4/4 572/4/4
f 572/4/4 564/4/4 573/4/4
f 566/1/4 567/1/4 574/1/4
f 574/1/4 567/1/4 575/1/4
f 568/1/4 569/1/4 576/1/4
f 576/1/4 569/1/4 577/1/4
f 571/4/4 572/4/4 578/4/4
f 570/4/4 571/4/4 578/4/4
f 578/4/4 572/4/4 579/4/4
f 575/1/4 576/1/4 580/1/4
f 580/1/4 576/1/4 581/1/4
f 577/4/4 578/4/4 583/4/4
f 583/4/4 578/4/4 584/4/4
f 582/4/4 583/4/4 586/4/4
f 586/4/4 583/4/4 587/4/4
f 585/4/4 586/4/4 589/4/4
f 589/4/4 586/4/4 590/4/4
f 588/4/4 589/4/4 590/4/4
f 590/4/4 586/4/4 591/4/4
f 588/4/4 590/4/4 592/4/4
f 592/4/4 590/4/4 593/4/4
f 593/4/4 590/4/4 594/4/4
f 594/4/4 595/4/4 598/4/4
f 593/4/4 594/4/4 598/4/4
f 598/4/4 595/4/4 599/4/4
f 579/4/4 572/4/4 600/4/4
f 600/4/4 572/4/4 601/4/4
f 596/1/4 597/1/4 603/1/4
f 603/1/4 597/1/4 604/1/4
f 601/4/4 602/4/4 605/4/4
f 599/4/4 600/4/4 605/4/4
f 600/4/4 601/4/4 605/4/4
f 605/4/4 602/4/4 606/4/4
f 606/4/4 602/4/4 607/4/4
f 607/4/4 602/4/4 608/4/4
f 606/4/4 607/4/4 611/4/4
f 611/4/4 607/4/4 612/4/4
f 608/4/4 609/4/4 613/4/4
f 613/4/4 609/4/4 614/4/4
f 610/4/4 611/4/4 619/4/4
f 615/1/4 616/1/4 621/1/4
f 621/1/4 616/1/4 622/1/4
f 617/1/4 618/1/4 623/1/4
f 618/4/4 619/4/4 624/4/4
f 623/1/4 618/1/4 624/1/4
f 619/4/4 611/4/4 625/4/4
f 624/4/4 619/4/4 625/4/4
f 612/4/4 607/4/4 626/4/4
f 620/1/4 621/1/4 628/1/4
f 628/1/4 621/1/4 629/1/4
f 624/3/4 625/3/4 631/3/4
f 625/4/4 611/4/4 632/4/4
f 631/3/4 625/3/4 632/3/4
f 632/4/4 611/4/4 633/4/4
f 612/4/4 626/4/4 634/4/4
f 634/4/4 626/4/4 635/4/4
f 630/4/4 631/4/4 637/4/4
f 631/4/4 632/4/4 637/4/4
f 632/1/4 633/1/4 638/1/4
f 637/4/4 632/4/4 638/4/4
f 636/4/4 637/4/4 639/4/4
f 639/4/4 637/4/4 640/4/4
f 627/1/4 628/1/4 641/1/4
f 641/1/4 628/1/4 642/1/4
f 638/1/4 633/1/4 645/1/4
f 645/1/4 633/1/4 646/1/4
f 642/1/4 643/1/4 647/1/4
f 647/1/4 643/1/4 648/1/4
f 644/1/4 645/1/4 649/1/4
f 649/1/4 645/1/4 650/1/4
f 648/1/4 649/1/4 651/1/4
f 651/1/4 649/1/4 652/1/4
f 653/4/4 654/4/4 655/4/4
f 655/4/4 654/4/4 656/4/4
f 659/1/4 660/1/4 661/1/4
f 661/1/4 660/1/4 662/1/4
f 657/4/4 658/4/4 665/4/4
f 665/4/4 658/4/4 666/4/4
f 663/4/4 664/4/4 667/4/4
f 667/4/4 664/4/4 668/4/4
f 669/4/4 670/4/4 671/4/4
f 671/4/4 670/4/4 672/4/4
f 673/2/4 674/2/4 675/2/4
f 675/2/4 674/2/4 676/2/4
f 677/4/4 678/4/4 679/4/4
f 679/4/4 678/4/4 680/4/4
f 685/1/5 682/1/5 681/1/5
f 686/1/5 682/1/5 685/1/5
f 687/1/5 684/1/5 683/1/5
f 688/1/5 684/1/5 687/1/5
f 697/1/5 690/1/5 689/1/5
f 698/1/5 690/1/5 697/1/5
f 699/1/5 692/1/5 691/1/5
f 700/1/5 692/1/5 699/1/5
f 701/1/5 694/1/5 693/1/5
f 702/1/5 694/1/5 701/1/5
f 703/1/5 696/1/5 695/1/5
f 704/1/5 696/1/5 703/1/5
f 713/1/5 706/1/5 705/1/5
f 714/1/5 706/1/5 713/1/5
f 715/1/5 708/1/5 707/1/5
f 716/1/5 708/1/5 715/1/5
f 717/1/5 710/1/5 709/1/5
f 718/1/5 710/1/5 717/1/5
f 719/1/5 712/1/5 711/1/5
f 720/1/5 712/1/5 719/1/5
f 723/4/5 722/4/5 721/4/5
f 724/4/5 722/4/5 723/4/5
f 727/4/5 726/4/5 725/4/5
f 728/4/5 726/4/5 727/4/5
f 735/4/5 730/4/5 729/4/5
f 735/4/5 731/4/5 730/4/5
f 736/4/5 731/4/5 735/4/5
f 737/4/5 731/4/5 736/4/5
f 738/4/5 731/4/5 737/4/5
f 739/4/5 733/4/5 732/4/5
f 740/4/5 733/4/5 739/4/5
f 741/4/5 735/4/5 734/4/5
f 741/4/5 736/4/5 735/4/5
f 742/4/5 736/4/5 741/4/5
f 743/4/5 736/4/5 742/4/5
f 745/4/5 731/4/5 738/4/5
f 746/4/5 744/4/5 743/4/5
f 746/4/5 745/4/5 744/4/5
f 746/4/5 743/4/5 742/4/5
f 747/4/5 745/4/5 746/4/5
f 748/4/5 731/4/5 745/4/5
f 748/4/5 745/4/5 747/4/5
f 755/4/5 750/4/5 749/4/5
f 756/4/5 750/4/5 755/4/5
f 757/4/5 752/4/5 751/4/5
f 758/4/5 752/4/5 757/4/5
f 759/4/5 754/4/5 753/4/5
f 760/4/5 754/4/5 759/4/5
f 771/4/5 762/4/5 761/4/5
f 772/4/5 762/4/5 771/4/5
f 775/1/5 764/1/5 763/1/5
f 776/1/5 764/1/5 775/1/5
f 777/1/5 766/1/5 765/1/5
f 778/1/5 766/1/5 777/1/5
f 779/4/5 768/4/5 767/4/5
f 780/4/5 768/4/5 779/4/5
f 781/4/5 770/4/5 769/4/5
f 782/4/5 770/4/5 781/4/5
f 783/3/5 772/3/5 771/3/5
f 784/3/5 772/3/5 783/3/5
f 785/1/5 774/1/5 773/1/5
f 786/1/5 774/1/5 785/1/5
f 797/1/5 788/1/5 787/1/5
f 798/1/5 788/1/5 797/1/5
f 799/1/5 790/1/5 789/1/5
f 800/1/5 790/1/5 799/1/5
f 801/4/5 792/4/5 791/4/5
f 802/4/5 792/4/5 801/4/5
f 803/4/5 794/4/5 793/4/5
f 804/4/5 794/4/5 803/4/5
f 805/1/5 796/1/5 795/1/5
f 806/1/5 796/1/5 805/1/5
f 811/4/5 808/4/5 807/4/5
f 812/4/5 808/4/5 811/4/5
f 813/4/5 810/4/5 809/4/5
f 814/4/5 810/4/5 813/4/5
f 821/4/5 816/4/5 815/4/5
f 822/4/5 816/4/5 821/4/5
f 823/4/5 818/4/5 817/4/5
f 824/4/5 818/4/5 823/4/5
f 825/4/5 820/4/5 819/4/5
f 826/4/5 820/4/5 825/4/5
f 829/4/5 828/4/5 827/4/5
f 830/4/5 828/4/5 829/4/5
f 832/4/5 828/4/5 830/4/5
f 833/4/5 832/4/5 831/4/5
f 834/4/5 828/4/5 832/4/5
f 834/4/5 832/4/5 833/4/5
f 837/4/5 836/4/5 835/4/5
f 838/4/5 836/4/5 837/4/5
f 842/1/5 840/1/5 839/1/5
f 843/1/5 840/1/5 842/1/5
f 844/1/5 840/1/5 843/1/5
f 845/1/5 842/1/5 841/1/5
f 845/1/5 843/1/5 842/1/5
f 846/1/5 843/1/5 845/1/5
f 847/1/5 843/1/5 846/1/5
f 848/1/5 840/1/5 844/1/5
f 849/1/5 847/1/5 846/1/5
f 849/1/5 848/1/5 847/1/5
f 850/1/5 840/1/5 848/1/5
f 850/1/5 848/1/5 849/1/5
f 853/4/5 852/4/5 851/4/5
f 854/4/5 852/4/5 853/4/5
f 857/4/5 856/4/5 855/4/5
f 858/4/5 856/4/5 857/4/5
f 861/2/5 860/2/5 859/2/5
f 862/2/5 860/2/5 861/2/5
f 863/2/5 860/2/5 862/2/5
f 864/4/5 862/4/5 861/4/5
f 865/4/5 862/4/5 864/4/5
f 868/4/5 867/4/5 866/4/5
f 869/4/5 867/4/5 868/4/5
f 871/2/5 869/2/5 868/2/5
f 871/2/5 870/2/5 869/2/5
f 872/2/5 870/2/5 871/2/5
f 873/1/6 874/1/6 877/1/6
f 877/1/6 874/1/6 878/1/6
f 875/1/6 876/1/6 879/1/6
f 879/1/6 876/1/6 880/1/6
f 881/1/6 882/1/6 889/1/6
f 889/1/6 882/1/6 890/1/6
f 883/1/6 884/1/6 891/1/6
f 891/1/6 884/1/6 892/1/6
f 885/1/6 886/1/6 893/1/6
f 893/1/6 886/1/6 894/1/6
f 887/1/6 888/1/6 895/1/6
f 895/1/6 888/1/6 896/1/6
f 897/4/6 898/4/6 899/4/6
f 899/4/6 898/4/6 900/4/6
f 901/4/6 902/4/6 903/4/6
f 903/4/6 902/4/6 904/4/6
f 905/4/6 906/4/6 907/4/6
f 905/4/6 907/4/6 909/4/6
f 907/4/6 908/4/6 909/4/6
f 909/4/6 908/4/6 910/4/6
f 910/4/6 908/4/6 911/4/6
f 911/4/6 908/4/6 912/4/6
f 912/4/6 908/4/6 913/4/6
f 913/4/6 908/4/6 914/4/6
f 914/4/6 908/4/6 915/4/6
f 910/4/6 911/4/6 917/4/6
f 917/4/6 911/4/6 918/4/6
f 913/4/6 914/4/6 920/4/6
f 920/4/6 914/4/6 921/4/6
f 915/4/6 908/4/6 922/4/6
f 920/4/6 921/4/6 923/4/6
f 921/4/6 922/4/6 923/4/6
f 918/4/6 919/4/6 923/4/6
f 916/4/6 917/4/6 923/4/6
f 919/4/6 920/4/6 923/4/6
f 917/4/6 918/4/6 923/4/6
f 922/4/6 908/4/6 924/4/6
f 923/4/6 922/4/6 924/4/6
f 916/4/6 923/4/6 925/4/6
f 925/4/6 923/4/6 926/4/6
f 927/4/6 928/4/6 933/4/6
f 933/4/6 928/4/6 934/4/6
f 929/4/6 930/4/6 935/4/6
f 935/4/6 930/4/6 936/4/6
f 931/4/6 932/4/6 937/4/6
f 937/4/6 932/4/6 938/4/6
f 939/1/6 940/1/6 949/1/6
f 949/1/6 940/1/6 950/1/6
f 941/1/6 942/1/6 951/1/6
f 951/1/6 942/1/6 952/1/6
f 943/4/6 944/4/6 953/4/6
f 953/4/6 944/4/6 954/4/6
f 945/4/6 946/4/6 955/4/6
f 955/4/6 946/4/6 956/4/6
f 947/1/6 948/1/6 957/1/6
f 957/1/6 948/1/6 958/1/6
f 959/4/6 960/4/6 967/4/6
f 967/4/6 960/4/6 968/4/6
f 961/1/6 962/1/6 971/1/6
f 971/1/6 962/1/6 972/1/6
f 963/1/6 964/1/6 973/1/6
f 973/1/6 964/1/6 974/1/6
f 965/4/6 966/4/6 975/4/6
f 975/4/6 966/4/6 976/4/6
f 969/1/6 970/1/6 977/1/6
f 977/1/6 970/1/6 978/1/6
f 979/1/6 980/1/6 988/1/6
f 988/1/6 980/1/6 989/1/6
f 981/1/6 982/1/6 990/1/6
f 990/1/6 982/1/6 991/1/6
f 983/4/6 984/4/6 992/4/6
f 992/4/6 984/4/6 993/4/6
f 985/4/6 986/4/6 994/4/6
f 986/1/6 987/1/6 995/1/6
f 994/4/6 986/4/6 995/4/6
f 995/1/6 987/1/6 996/1/6
f 997/4/6 998/4/6 1003/4/6
f 1003/4/6 998/4/6 1004/4/6
f 999/4/6 1000/4/6 1005/4/6
f 1005/4/6 1000/4/6 1006/4/6
f 1001/4/6 1002/4/6 1007/4/6
f 1007/4/6 1002/4/6 1008/4/6
f 1011/4/6 1012/4/6 1013/4/6
f 1013/4/6 1012/4/6 1014/4/6
f 1009/4/6 1010/4/6 1015/4/6
f 1015/4/6 1010/4/6 1016/4/6
f 1017/1/6 1018/1/6 1020/1/6
f 1019/1/6 1020/1/6 1021/1/6
f 1020/1/6 1018/1/6 1022/1/6
f 1021/1/6 1020/1/6 1022/1/6
f 1022/1/6 1018/1/6 1023/1/6
f 1023/1/6 1018/1/6 1024/1/6
f 1025/4/6 1026/4/6 1027/4/6
f 1027/4/6 1026/4/6 1028/4/6
f 1029/2/6 1030/2/6 1031/2/6
f 1031/2/6 1030/2/6 1032/2/6
f 1032/2/6 1030/2/6 1033/2/6
f 1031/4/6 1032/4/6 1034/4/6
f 1034/4/6 1032/4/6 1035/4/6
f 1036/4/6 1037/4/6 1038/4/6
f 1038/4/6 1037/4/6 1039/4/6
f 1038/2/6 1039/2/6 1041/2/6
f 1039/2/6 1040/2/6 1041/2/6
f 1041/2/6 1040/2/6 1042/2/6
