# MagicaVoxel @ Ephtracy

# group
o 

# material
mtllib drzewko-12.mtl
usemtl palette

# normals
vn 0 0 -1
vn 0 0 1
vn 1 0 0
vn -1 0 0
vn 0 -1 0
vn 0 1 0

# texcoords
vt 0.365234 0.5
vt 0.369141 0.5
vt 0.927734 0.5
vt 0.982422 0.5
vt 0.994141 0.5

# verts
v -67.8 0.8 4.5
v -69.7 0.8 4.5
v -68.3 1.4 4.5
v -69.2 1.4 4.5
v -68.4 1.5 4.5
v -69.1 1.5 4.5
v -68.5 1.6 4.5
v -68.6 1.6 4.5
v -68.5 1.7 4.5
v -68.6 1.7 4.5
v -68.5 1.8 4.5
v -68.6 1.8 4.5
v -68.7 1.8 4.5
v -69 1.8 4.5
v -68.7 1.9 4.5
v -68.8 1.9 4.5
v -68.8 2 4.5
v -68.9 2 4.5
v -68.5 2.1 4.5
v -68.6 2.1 4.5
v -68.9 2.1 4.5
v -69 2.1 4.5
v -68.6 2.2 4.5
v -68.9 2.2 4.5
v -68.4 2.4 4.5
v -69.1 2.4 4.5
v -68.3 2.5 4.5
v -69.2 2.5 4.5
v -67.8 3 4.5
v -69.7 3 4.5
v -69.7 0.8 4.6
v -69.9 0.8 4.6
v -69.7 3 4.6
v -69.9 3 4.6
v -67.6 0.8 4.7
v -67.8 0.8 4.7
v -67.6 3 4.7
v -67.8 3 4.7
v -69.7 3 4.7
v -67.8 3.2 4.7
v -69.7 3.2 4.7
v -67.5 0.8 4.8
v -67.6 0.8 4.8
v -69.9 0.8 4.8
v -70 0.8 4.8
v -67.5 3 4.8
v -67.6 3 4.8
v -69.7 3 4.8
v -69.8 3 4.8
v -69.9 3 4.8
v -70 3 4.8
v -69.7 3.2 4.8
v -69.8 3.2 4.8
v -67.7 3 4.9
v -67.8 3 4.9
v -67.7 3.2 4.9
v -67.8 3.2 4.9
v -68 3.2 4.9
v -69.5 3.2 4.9
v -68 3.3 4.9
v -69.5 3.3 4.9
v -67.9 3.2 5
v -68 3.2 5
v -69.5 3.2 5
v -69.6 3.2 5
v -67.9 3.3 5
v -68 3.3 5
v -69.5 3.3 5
v -69.6 3.3 5
v -68 3.4 5
v -69.5 3.4 5
v -68.5 3.4 5.8
v -68.9 3.4 5.8
v -68.5 3.5 5.8
v -68.9 3.5 5.8
v -68.4 3.4 5.9
v -68.5 3.4 5.9
v -68.9 3.4 5.9
v -69 3.4 5.9
v -68.4 3.5 5.9
v -68.5 3.5 5.9
v -68.9 3.5 5.9
v -69 3.5 5.9
v -68.5 0.8 6.2
v -68.9 0.8 6.2
v -68.5 3.2 6.2
v -68.9 3.2 6.2
v -68.5 3.3 6.2
v -68.9 3.3 6.2
v -68.5 0.8 5.9
v -68.9 0.8 5.9
v -68.5 3.4 5.9
v -68.9 3.4 5.9
v -68.5 3.4 6
v -68.9 3.4 6
v -68.5 3.5 6
v -68.9 3.5 6
v -67.9 3.2 6.2
v -68 3.2 6.2
v -69.5 3.2 6.2
v -69.6 3.2 6.2
v -67.9 3.3 6.2
v -68 3.3 6.2
v -68.4 3.3 6.2
v -69 3.3 6.2
v -69.5 3.3 6.2
v -69.6 3.3 6.2
v -68 3.4 6.2
v -68.4 3.4 6.2
v -69 3.4 6.2
v -69.5 3.4 6.2
v -67.7 3 6.3
v -67.8 3 6.3
v -67.7 3.2 6.3
v -67.8 3.2 6.3
v -68 3.2 6.3
v -68.5 3.2 6.3
v -68.6 3.2 6.3
v -68.7 3.2 6.3
v -68.8 3.2 6.3
v -68.9 3.2 6.3
v -69.5 3.2 6.3
v -68 3.3 6.3
v -68.4 3.3 6.3
v -68.5 3.3 6.3
v -68.9 3.3 6.3
v -69 3.3 6.3
v -69.5 3.3 6.3
v -68.4 3.5 6.3
v -68.5 3.5 6.3
v -68.9 3.5 6.3
v -69 3.5 6.3
v -67.5 0.8 6.4
v -67.6 0.8 6.4
v -69.9 0.8 6.4
v -70 0.8 6.4
v -67.5 0.9 6.4
v -67.6 0.9 6.4
v -67.6 1 6.4
v -67.6 2.7 6.4
v -67.6 2.8 6.4
v -67.5 2.9 6.4
v -67.6 2.9 6.4
v -67.5 3 6.4
v -67.6 3 6.4
v -69.7 3 6.4
v -69.8 3 6.4
v -69.9 3 6.4
v -70 3 6.4
v -69.7 3.2 6.4
v -69.8 3.2 6.4
v -67.6 0.8 6.5
v -67.8 0.8 6.5
v -67.6 0.9 6.5
v -67.7 0.9 6.5
v -67.8 0.9 6.5
v -67.6 1 6.5
v -67.7 1 6.5
v -67.7 2.5 6.5
v -67.8 2.5 6.5
v -67.7 2.6 6.5
v -67.8 2.6 6.5
v -67.6 2.7 6.5
v -67.7 2.7 6.5
v -67.6 2.8 6.5
v -67.7 2.8 6.5
v -67.8 2.8 6.5
v -67.7 2.9 6.5
v -67.8 2.9 6.5
v -67.6 3 6.5
v -67.8 3 6.5
v -68.8 3 6.5
v -68.9 3 6.5
v -69.7 3 6.5
v -68.6 3.1 6.5
v -68.7 3.1 6.5
v -67.8 3.2 6.5
v -68.6 3.2 6.5
v -68.7 3.2 6.5
v -68.8 3.2 6.5
v -68.9 3.2 6.5
v -69.7 3.2 6.5
v -69.7 0.8 6.6
v -69.9 0.8 6.6
v -69.7 0.9 6.6
v -69.9 0.9 6.6
v -69.7 1 6.6
v -69.7 3 6.6
v -69.9 3 6.6
v -67.8 0.8 6.7
v -67.9 0.8 6.7
v -68.2 0.8 6.7
v -69.5 0.8 6.7
v -69.6 0.8 6.7
v -69.7 0.8 6.7
v -67.8 0.9 6.7
v -67.9 0.9 6.7
v -68.2 0.9 6.7
v -69.5 0.9 6.7
v -69.6 0.9 6.7
v -69.7 0.9 6.7
v -67.8 1 6.7
v -67.9 1 6.7
v -69.6 1 6.7
v -69.7 1 6.7
v -68.3 1.4 6.7
v -68.4 1.4 6.7
v -68.5 1.4 6.7
v -69.2 1.4 6.7
v -68.3 1.5 6.7
v -68.4 1.5 6.7
v -68.5 1.5 6.7
v -68.9 1.5 6.7
v -69 1.5 6.7
v -69.1 1.5 6.7
v -69.2 1.5 6.7
v -68.3 1.7 6.7
v -68.4 1.7 6.7
v -68.8 1.7 6.7
v -68.9 1.7 6.7
v -69 1.7 6.7
v -69.1 1.7 6.7
v -69.2 1.7 6.7
v -68.7 1.8 6.7
v -68.8 1.8 6.7
v -68.5 1.9 6.7
v -68.6 1.9 6.7
v -68.8 1.9 6.7
v -68.9 1.9 6.7
v -69 1.9 6.7
v -68.5 2 6.7
v -68.6 2 6.7
v -68.7 2 6.7
v -68.8 2 6.7
v -68.9 2 6.7
v -69 2 6.7
v -68.6 2.1 6.7
v -68.7 2.1 6.7
v -68.9 2.1 6.7
v -68.7 2.2 6.7
v -68.9 2.2 6.7
v -69.1 2.3 6.7
v -69.2 2.3 6.7
v -68.4 2.4 6.7
v -68.9 2.4 6.7
v -69.1 2.4 6.7
v -69.2 2.4 6.7
v -67.8 2.5 6.7
v -67.9 2.5 6.7
v -68.3 2.5 6.7
v -68.9 2.5 6.7
v -69.1 2.5 6.7
v -69.2 2.5 6.7
v -67.9 2.6 6.7
v -68 2.6 6.7
v -67.8 2.7 6.7
v -68 2.7 6.7
v -68.9 2.9 6.7
v -69 2.9 6.7
v -67.8 3 6.7
v -68.9 3 6.7
v -69 3 6.7
v -69.7 3 6.7
v -67.5 0.8 4.8
v -67.5 3 4.8
v -67.5 0.8 6.3
v -67.5 0.9 6.3
v -67.5 2.9 6.3
v -67.5 3 6.3
v -67.5 0.8 6.4
v -67.5 0.9 6.4
v -67.5 2.9 6.4
v -67.5 3 6.4
v -67.6 0.8 4.7
v -67.6 3 4.7
v -67.6 0.8 4.8
v -67.6 3 4.8
v -67.6 0.8 6.4
v -67.6 0.9 6.4
v -67.6 1 6.4
v -67.6 2.7 6.4
v -67.6 2.8 6.4
v -67.6 2.9 6.4
v -67.6 3 6.4
v -67.6 0.8 6.5
v -67.6 0.9 6.5
v -67.6 1 6.5
v -67.6 2.7 6.5
v -67.6 2.8 6.5
v -67.6 3 6.5
v -67.7 3 4.9
v -67.7 3.2 4.9
v -67.7 3 6.3
v -67.7 3.2 6.3
v -67.8 0.8 4.5
v -67.8 3 4.5
v -67.8 0.8 4.7
v -67.8 3 4.7
v -67.8 3.2 4.7
v -67.8 3 4.9
v -67.8 3.2 4.9
v -67.8 3 6.3
v -67.8 3.2 6.3
v -67.8 0.8 6.5
v -67.8 0.9 6.5
v -67.8 2.5 6.5
v -67.8 2.6 6.5
v -67.8 2.8 6.5
v -67.8 2.9 6.5
v -67.8 3 6.5
v -67.8 3.2 6.5
v -67.8 0.9 6.6
v -67.8 1 6.6
v -67.8 2.5 6.6
v -67.8 2.7 6.6
v -67.8 0.8 6.7
v -67.8 0.9 6.7
v -67.8 1 6.7
v -67.8 2.5 6.7
v -67.8 2.7 6.7
v -67.8 3 6.7
v -67.9 3.2 5
v -67.9 3.3 5
v -67.9 3.2 6.2
v -67.9 3.3 6.2
v -68 3.2 4.9
v -68 3.3 4.9
v -68 3.2 5
v -68 3.3 5
v -68 3.4 5
v -68 3.2 6.2
v -68 3.3 6.2
v -68 3.4 6.2
v -68 3.2 6.3
v -68 3.3 6.3
v -68.4 3.4 5.9
v -68.4 3.5 5.9
v -68.4 3.3 6.2
v -68.4 3.4 6.2
v -68.4 3.3 6.3
v -68.4 3.5 6.3
v -68.5 3.4 5.8
v -68.5 3.5 5.8
v -68.5 3.4 5.9
v -68.5 3.5 5.9
v -68.9 0.8 5.9
v -68.9 3.4 5.9
v -68.9 3.4 6
v -68.9 3.5 6
v -68.9 0.8 6.2
v -68.9 3.2 6.2
v -68.9 3.3 6.2
v -68.9 3.3 6.3
v -68.9 3.5 6.3
v -68.5 0.8 5.9
v -68.5 3.4 5.9
v -68.5 3.4 6
v -68.5 3.5 6
v -68.5 0.8 6.2
v -68.5 3.2 6.2
v -68.5 3.3 6.2
v -68.5 3.3 6.3
v -68.5 3.5 6.3
v -68.9 3.4 5.8
v -68.9 3.5 5.8
v -68.9 3.4 5.9
v -68.9 3.5 5.9
v -69 3.4 5.9
v -69 3.5 5.9
v -69 3.3 6.2
v -69 3.4 6.2
v -69 3.3 6.3
v -69 3.5 6.3
v -69.5 3.2 4.9
v -69.5 3.3 4.9
v -69.5 3.2 5
v -69.5 3.3 5
v -69.5 3.4 5
v -69.5 3.2 6.2
v -69.5 3.3 6.2
v -69.5 3.4 6.2
v -69.5 3.2 6.3
v -69.5 3.3 6.3
v -69.6 3.2 5
v -69.6 3.3 5
v -69.6 3.2 6.2
v -69.6 3.3 6.2
v -69.7 0.8 4.5
v -69.7 3 4.5
v -69.7 0.8 4.6
v -69.7 3 4.6
v -69.7 3 4.7
v -69.7 3.2 4.7
v -69.7 3 4.8
v -69.7 3.2 4.8
v -69.7 3 6.4
v -69.7 3.2 6.4
v -69.7 3 6.5
v -69.7 3.2 6.5
v -69.7 0.8 6.6
v -69.7 0.9 6.6
v -69.7 1 6.6
v -69.7 3 6.6
v -69.7 0.8 6.7
v -69.7 0.9 6.7
v -69.7 1 6.7
v -69.7 3 6.7
v -69.8 3 4.8
v -69.8 3.2 4.8
v -69.8 3 6.4
v -69.8 3.2 6.4
v -69.9 0.8 4.6
v -69.9 3 4.6
v -69.9 0.8 4.8
v -69.9 3 4.8
v -69.9 0.8 6.4
v -69.9 3 6.4
v -69.9 0.8 6.5
v -69.9 0.9 6.5
v -69.9 0.8 6.6
v -69.9 0.9 6.6
v -69.9 3 6.6
v -70 0.8 4.8
v -70 3 4.8
v -70 0.8 6.4
v -70 3 6.4
v -67.5 0.8 4.8
v -67.5 0.8 6.3
v -67.5 0.8 6.4
v -67.6 0.8 4.7
v -67.6 0.8 4.8
v -67.6 0.8 6.3
v -67.6 0.8 6.4
v -67.6 0.8 6.5
v -67.8 0.8 4.5
v -67.8 0.8 4.7
v -67.8 0.8 6.4
v -67.8 0.8 6.5
v -67.8 0.8 6.7
v -67.9 0.8 6.6
v -67.9 0.8 6.7
v -68.2 0.8 6.6
v -68.2 0.8 6.7
v -68.4 0.8 5
v -68.4 0.8 5.3
v -68.4 0.8 5.9
v -68.4 0.8 6.2
v -68.5 0.8 5
v -68.5 0.8 5.3
v -68.5 0.8 5.4
v -68.5 0.8 5.8
v -68.5 0.8 5.9
v -68.5 0.8 6.2
v -68.9 0.8 5
v -68.9 0.8 5.3
v -68.9 0.8 5.4
v -68.9 0.8 5.8
v -68.9 0.8 5.9
v -68.9 0.8 6.2
v -69 0.8 5
v -69 0.8 5.3
v -69 0.8 5.9
v -69 0.8 6.2
v -69.5 0.8 6.6
v -69.5 0.8 6.7
v -69.6 0.8 6.6
v -69.6 0.8 6.7
v -69.7 0.8 4.5
v -69.7 0.8 4.6
v -69.7 0.8 6.5
v -69.7 0.8 6.6
v -69.7 0.8 6.7
v -69.9 0.8 4.6
v -69.9 0.8 4.8
v -69.9 0.8 6.4
v -69.9 0.8 6.5
v -69.9 0.8 6.6
v -70 0.8 4.8
v -70 0.8 6.4
v -68.5 3.4 5.9
v -68.5 3.4 6
v -68.9 3.4 5.9
v -68.9 3.4 6
v -67.5 3 4.8
v -67.5 3 6.3
v -67.5 3 6.4
v -67.6 3 4.7
v -67.6 3 4.8
v -67.6 3 6.3
v -67.6 3 6.4
v -67.6 3 6.5
v -67.7 3 4.9
v -67.7 3 6.3
v -67.8 3 4.5
v -67.8 3 4.7
v -67.8 3 4.9
v -67.8 3 6.3
v -67.8 3 6.5
v -67.8 3 6.7
v -68.8 3 6.5
v -68.8 3 6.6
v -68.9 3 6.5
v -68.9 3 6.6
v -68.9 3 6.7
v -69 3 6.6
v -69 3 6.7
v -69.7 3 4.5
v -69.7 3 4.6
v -69.7 3 4.7
v -69.7 3 4.8
v -69.7 3 6.4
v -69.7 3 6.5
v -69.7 3 6.6
v -69.7 3 6.7
v -69.8 3 4.8
v -69.8 3 6.4
v -69.9 3 4.6
v -69.9 3 4.8
v -69.9 3 6.4
v -69.9 3 6.6
v -70 3 4.8
v -70 3 6.4
v -67.7 3.2 4.9
v -67.7 3.2 6.3
v -67.8 3.2 4.7
v -67.8 3.2 4.9
v -67.8 3.2 6.3
v -67.8 3.2 6.5
v -67.9 3.2 5
v -67.9 3.2 6.2
v -68 3.2 4.9
v -68 3.2 5
v -68 3.2 6.2
v -68 3.2 6.3
v -68.5 3.2 6.3
v -68.6 3.2 6.3
v -68.6 3.2 6.5
v -68.7 3.2 6.3
v -68.7 3.2 6.5
v -68.8 3.2 6.3
v -68.8 3.2 6.5
v -68.9 3.2 6.3
v -68.9 3.2 6.5
v -69.5 3.2 4.9
v -69.5 3.2 5
v -69.5 3.2 6.2
v -69.5 3.2 6.3
v -69.6 3.2 5
v -69.6 3.2 6.2
v -69.7 3.2 4.7
v -69.7 3.2 4.8
v -69.7 3.2 6.4
v -69.7 3.2 6.5
v -69.8 3.2 4.8
v -69.8 3.2 6.4
v -67.9 3.3 5
v -67.9 3.3 6.2
v -68 3.3 4.9
v -68 3.3 5
v -68 3.3 6.2
v -68 3.3 6.3
v -68.4 3.3 6.2
v -68.4 3.3 6.3
v -68.5 3.3 6.2
v -68.5 3.3 6.3
v -68.9 3.3 6.2
v -68.9 3.3 6.3
v -69 3.3 6.2
v -69 3.3 6.3
v -69.5 3.3 4.9
v -69.5 3.3 5
v -69.5 3.3 6.2
v -69.5 3.3 6.3
v -69.6 3.3 5
v -69.6 3.3 6.2
v -68 3.4 5
v -68 3.4 6.2
v -68.4 3.4 5.9
v -68.4 3.4 6.2
v -68.5 3.4 5.8
v -68.5 3.4 5.9
v -68.9 3.4 5.8
v -68.9 3.4 5.9
v -69 3.4 5.9
v -69 3.4 6.2
v -69.5 3.4 5
v -69.5 3.4 6.2
v -68.4 3.5 5.9
v -68.4 3.5 6.3
v -68.5 3.5 5.8
v -68.5 3.5 5.9
v -68.5 3.5 6
v -68.5 3.5 6.3
v -68.9 3.5 5.8
v -68.9 3.5 5.9
v -68.9 3.5 6
v -68.9 3.5 6.3
v -69 3.5 5.9
v -69 3.5 6.3

# faces
f 1/3/1 2/3/1 3/3/1
f 3/3/1 2/3/1 4/3/1
f 3/4/1 4/4/1 5/4/1
f 5/4/1 4/4/1 6/4/1
f 5/3/1 6/3/1 7/3/1
f 7/3/1 6/3/1 8/3/1
f 5/3/1 7/3/1 9/3/1
f 7/4/1 8/4/1 9/4/1
f 8/3/1 6/3/1 10/3/1
f 9/4/1 8/4/1 10/4/1
f 5/3/1 9/3/1 11/3/1
f 9/3/1 10/3/1 11/3/1
f 10/3/1 6/3/1 12/3/1
f 11/3/1 10/3/1 12/3/1
f 12/3/1 6/3/1 13/3/1
f 13/3/1 6/3/1 14/3/1
f 12/3/1 13/3/1 15/3/1
f 13/4/1 14/4/1 15/4/1
f 15/4/1 14/4/1 16/4/1
f 15/3/1 16/3/1 17/3/1
f 16/4/1 14/4/1 17/4/1
f 17/4/1 14/4/1 18/4/1
f 5/3/1 11/3/1 19/3/1
f 11/4/1 12/4/1 19/4/1
f 17/3/1 18/3/1 20/3/1
f 19/4/1 12/4/1 20/4/1
f 12/3/1 15/3/1 20/3/1
f 15/3/1 17/3/1 20/3/1
f 18/4/1 14/4/1 21/4/1
f 20/3/1 18/3/1 21/3/1
f 14/3/1 6/3/1 22/3/1
f 21/4/1 14/4/1 22/4/1
f 19/3/1 20/3/1 23/3/1
f 20/4/1 21/4/1 23/4/1
f 21/3/1 22/3/1 24/3/1
f 23/4/1 21/4/1 24/4/1
f 3/4/1 5/4/1 25/4/1
f 5/3/1 19/3/1 25/3/1
f 23/3/1 24/3/1 25/3/1
f 19/3/1 23/3/1 25/3/1
f 24/3/1 22/3/1 26/3/1
f 25/3/1 24/3/1 26/3/1
f 6/4/1 4/4/1 26/4/1
f 22/3/1 6/3/1 26/3/1
f 1/3/1 3/3/1 27/3/1
f 3/4/1 25/4/1 27/4/1
f 25/4/1 26/4/1 27/4/1
f 26/4/1 4/4/1 28/4/1
f 27/4/1 26/4/1 28/4/1
f 4/3/1 2/3/1 28/3/1
f 1/3/1 27/3/1 29/3/1
f 27/3/1 28/3/1 29/3/1
f 28/3/1 2/3/1 30/3/1
f 29/3/1 28/3/1 30/3/1
f 31/3/1 32/3/1 33/3/1
f 33/3/1 32/3/1 34/3/1
f 35/3/1 36/3/1 37/3/1
f 37/3/1 36/3/1 38/3/1
f 38/3/1 39/3/1 40/3/1
f 40/3/1 39/3/1 41/3/1
f 42/3/1 43/3/1 46/3/1
f 46/3/1 43/3/1 47/3/1
f 44/3/1 45/3/1 50/3/1
f 50/3/1 45/3/1 51/3/1
f 48/3/1 49/3/1 52/3/1
f 52/3/1 49/3/1 53/3/1
f 54/3/1 55/3/1 56/3/1
f 56/3/1 55/3/1 57/3/1
f 58/3/1 59/3/1 60/3/1
f 60/3/1 59/3/1 61/3/1
f 62/3/1 63/3/1 66/3/1
f 66/3/1 63/3/1 67/3/1
f 64/3/1 65/3/1 68/3/1
f 68/3/1 65/3/1 69/3/1
f 67/3/1 68/3/1 70/3/1
f 70/3/1 68/3/1 71/3/1
f 72/5/1 73/5/1 74/5/1
f 74/5/1 73/5/1 75/5/1
f 76/5/1 77/5/1 80/5/1
f 80/5/1 77/5/1 81/5/1
f 78/5/1 79/5/1 82/5/1
f 82/5/1 79/5/1 83/5/1
f 84/3/1 85/3/1 86/3/1
f 86/3/1 85/3/1 87/3/1
f 86/5/1 87/5/1 88/5/1
f 88/5/1 87/5/1 89/5/1
f 92/5/2 91/5/2 90/5/2
f 93/5/2 91/5/2 92/5/2
f 96/5/2 95/5/2 94/5/2
f 97/5/2 95/5/2 96/5/2
f 102/3/2 99/3/2 98/3/2
f 103/3/2 99/3/2 102/3/2
f 106/3/2 101/3/2 100/3/2
f 107/3/2 101/3/2 106/3/2
f 108/3/2 104/3/2 103/3/2
f 109/3/2 104/3/2 108/3/2
f 110/3/2 106/3/2 105/3/2
f 111/3/2 106/3/2 110/3/2
f 114/3/2 113/3/2 112/3/2
f 115/3/2 113/3/2 114/3/2
f 123/3/2 117/3/2 116/3/2
f 124/3/2 117/3/2 123/3/2
f 125/5/2 121/5/2 120/5/2
f 125/3/2 117/3/2 124/3/2
f 125/5/2 118/5/2 117/5/2
f 125/5/2 119/5/2 118/5/2
f 125/5/2 120/5/2 119/5/2
f 126/3/2 122/3/2 121/3/2
f 126/5/2 121/5/2 125/5/2
f 127/3/2 122/3/2 126/3/2
f 128/3/2 122/3/2 127/3/2
f 129/5/2 125/5/2 124/5/2
f 130/5/2 125/5/2 129/5/2
f 131/5/2 127/5/2 126/5/2
f 132/5/2 127/5/2 131/5/2
f 137/1/2 134/1/2 133/1/2
f 138/1/2 134/1/2 137/1/2
f 139/3/2 138/3/2 137/3/2
f 140/3/2 139/3/2 137/3/2
f 141/3/2 140/3/2 137/3/2
f 142/3/2 141/3/2 137/3/2
f 143/3/2 141/3/2 142/3/2
f 144/1/2 143/1/2 142/1/2
f 145/1/2 143/1/2 144/1/2
f 148/3/2 136/3/2 135/3/2
f 149/3/2 136/3/2 148/3/2
f 150/3/2 147/3/2 146/3/2
f 151/3/2 147/3/2 150/3/2
f 154/2/2 153/2/2 152/2/2
f 155/2/2 153/2/2 154/2/2
f 156/2/2 153/2/2 155/2/2
f 157/1/2 155/1/2 154/1/2
f 158/3/2 156/3/2 155/3/2
f 158/1/2 155/1/2 157/1/2
f 159/3/2 158/3/2 157/3/2
f 159/3/2 156/3/2 158/3/2
f 160/3/2 156/3/2 159/3/2
f 161/3/2 159/3/2 157/3/2
f 161/2/2 160/2/2 159/2/2
f 162/2/2 160/2/2 161/2/2
f 163/3/2 161/3/2 157/3/2
f 163/3/2 162/3/2 161/3/2
f 164/3/2 162/3/2 163/3/2
f 165/2/2 164/2/2 163/2/2
f 166/3/2 162/3/2 164/3/2
f 166/2/2 164/2/2 165/2/2
f 167/3/2 162/3/2 166/3/2
f 168/3/2 166/3/2 165/3/2
f 168/2/2 167/2/2 166/2/2
f 169/2/2 167/2/2 168/2/2
f 170/3/2 168/3/2 165/3/2
f 170/3/2 169/3/2 168/3/2
f 171/3/2 169/3/2 170/3/2
f 175/3/2 172/3/2 171/3/2
f 176/3/2 172/3/2 175/3/2
f 177/3/2 175/3/2 171/3/2
f 178/1/2 176/1/2 175/1/2
f 178/3/2 175/3/2 177/3/2
f 179/3/2 172/3/2 176/3/2
f 179/1/2 176/1/2 178/1/2
f 180/1/2 173/1/2 172/1/2
f 180/3/2 172/3/2 179/3/2
f 181/3/2 174/3/2 173/3/2
f 181/1/2 173/1/2 180/1/2
f 182/3/2 174/3/2 181/3/2
f 185/2/2 184/2/2 183/2/2
f 186/2/2 184/2/2 185/2/2
f 187/3/2 186/3/2 185/3/2
f 188/3/2 186/3/2 187/3/2
f 189/3/2 186/3/2 188/3/2
f 196/3/2 191/3/2 190/3/2
f 197/2/2 192/2/2 191/2/2
f 197/3/2 191/3/2 196/3/2
f 198/3/2 193/3/2 192/3/2
f 198/2/2 192/2/2 197/2/2
f 199/2/2 194/2/2 193/2/2
f 199/3/2 193/3/2 198/3/2
f 200/3/2 195/3/2 194/3/2
f 200/2/2 194/2/2 199/2/2
f 201/3/2 195/3/2 200/3/2
f 202/2/2 197/2/2 196/2/2
f 203/3/2 199/3/2 198/3/2
f 203/2/2 197/2/2 202/2/2
f 203/3/2 198/3/2 197/3/2
f 203/3/2 200/3/2 199/3/2
f 204/2/2 201/2/2 200/2/2
f 204/3/2 200/3/2 203/3/2
f 205/2/2 201/2/2 204/2/2
f 206/3/2 203/3/2 202/3/2
f 206/3/2 204/3/2 203/3/2
f 206/3/2 205/3/2 204/3/2
f 207/3/2 205/3/2 206/3/2
f 208/3/2 205/3/2 207/3/2
f 209/3/2 205/3/2 208/3/2
f 210/3/2 206/3/2 202/3/2
f 210/4/2 207/4/2 206/4/2
f 211/1/2 208/1/2 207/1/2
f 211/4/2 207/4/2 210/4/2
f 212/4/2 209/4/2 208/4/2
f 212/1/2 208/1/2 211/1/2
f 213/4/2 209/4/2 212/4/2
f 214/4/2 209/4/2 213/4/2
f 215/4/2 209/4/2 214/4/2
f 216/3/2 205/3/2 209/3/2
f 216/4/2 209/4/2 215/4/2
f 217/1/2 211/1/2 210/1/2
f 217/3/2 210/3/2 202/3/2
f 218/3/2 212/3/2 211/3/2
f 218/1/2 211/1/2 217/1/2
f 218/3/2 213/3/2 212/3/2
f 219/3/2 213/3/2 218/3/2
f 220/4/2 214/4/2 213/4/2
f 220/3/2 213/3/2 219/3/2
f 221/3/2 215/3/2 214/3/2
f 221/4/2 214/4/2 220/4/2
f 222/1/2 216/1/2 215/1/2
f 222/3/2 215/3/2 221/3/2
f 223/3/2 205/3/2 216/3/2
f 223/1/2 216/1/2 222/1/2
f 224/3/2 219/3/2 218/3/2
f 225/4/2 220/4/2 219/4/2
f 225/3/2 219/3/2 224/3/2
f 226/3/2 224/3/2 218/3/2
f 227/3/2 224/3/2 226/3/2
f 228/4/2 220/4/2 225/4/2
f 228/4/2 225/4/2 224/4/2
f 229/3/2 222/3/2 221/3/2
f 229/4/2 220/4/2 228/4/2
f 229/3/2 221/3/2 220/3/2
f 230/3/2 222/3/2 229/3/2
f 231/3/2 226/3/2 218/3/2
f 231/4/2 227/4/2 226/4/2
f 232/3/2 224/3/2 227/3/2
f 232/4/2 227/4/2 231/4/2
f 233/4/2 228/4/2 224/4/2
f 233/3/2 224/3/2 232/3/2
f 234/3/2 229/3/2 228/3/2
f 234/4/2 228/4/2 233/4/2
f 235/4/2 230/4/2 229/4/2
f 235/3/2 229/3/2 234/3/2
f 236/3/2 222/3/2 230/3/2
f 236/4/2 230/4/2 235/4/2
f 237/3/2 232/3/2 231/3/2
f 237/4/2 233/4/2 232/4/2
f 238/3/2 235/3/2 234/3/2
f 238/4/2 233/4/2 237/4/2
f 238/3/2 234/3/2 233/3/2
f 238/3/2 236/3/2 235/3/2
f 239/3/2 236/3/2 238/3/2
f 240/3/2 238/3/2 237/3/2
f 240/4/2 239/4/2 238/4/2
f 241/3/2 236/3/2 239/3/2
f 241/4/2 239/4/2 240/4/2
f 242/3/2 222/3/2 236/3/2
f 242/3/2 236/3/2 241/3/2
f 242/3/2 241/3/2 240/3/2
f 242/4/2 223/4/2 222/4/2
f 243/3/2 205/3/2 223/3/2
f 243/4/2 223/4/2 242/4/2
f 244/3/2 231/3/2 218/3/2
f 244/3/2 240/3/2 237/3/2
f 244/3/2 237/3/2 231/3/2
f 244/4/2 218/4/2 217/4/2
f 244/3/2 242/3/2 240/3/2
f 245/3/2 242/3/2 244/3/2
f 246/1/2 243/1/2 242/1/2
f 246/3/2 242/3/2 245/3/2
f 247/3/2 205/3/2 243/3/2
f 247/1/2 243/1/2 246/1/2
f 248/3/2 217/3/2 202/3/2
f 249/3/2 217/3/2 248/3/2
f 250/4/2 245/4/2 244/4/2
f 250/3/2 217/3/2 249/3/2
f 250/4/2 244/4/2 217/4/2
f 251/1/2 246/1/2 245/1/2
f 251/4/2 245/4/2 250/4/2
f 252/4/2 247/4/2 246/4/2
f 252/1/2 246/1/2 251/1/2
f 253/3/2 205/3/2 247/3/2
f 253/4/2 247/4/2 252/4/2
f 254/3/2 250/3/2 249/3/2
f 254/2/2 249/2/2 248/2/2
f 254/3/2 253/3/2 252/3/2
f 254/3/2 251/3/2 250/3/2
f 254/3/2 252/3/2 251/3/2
f 255/3/2 253/3/2 254/3/2
f 256/2/2 254/2/2 248/2/2
f 256/2/2 255/2/2 254/2/2
f 257/3/2 253/3/2 255/3/2
f 257/2/2 255/2/2 256/2/2
f 258/3/2 257/3/2 256/3/2
f 258/3/2 253/3/2 257/3/2
f 259/3/2 253/3/2 258/3/2
f 260/3/2 258/3/2 256/3/2
f 261/1/2 259/1/2 258/1/2
f 261/3/2 258/3/2 260/3/2
f 262/3/2 253/3/2 259/3/2
f 262/1/2 259/1/2 261/1/2
f 263/3/2 205/3/2 253/3/2
f 263/3/2 253/3/2 262/3/2
f 264/3/3 265/3/3 266/3/3
f 266/3/3 265/3/3 267/3/3
f 267/3/3 265/3/3 268/3/3
f 268/3/3 265/3/3 269/3/3
f 266/1/3 267/1/3 270/1/3
f 267/3/3 268/3/3 271/3/3
f 270/1/3 267/1/3 271/1/3
f 268/1/3 269/1/3 272/1/3
f 271/3/3 268/3/3 272/3/3
f 272/1/3 269/1/3 273/1/3
f 274/3/3 275/3/3 276/3/3
f 276/3/3 275/3/3 277/3/3
f 278/2/3 279/2/3 285/2/3
f 279/1/3 280/1/3 286/1/3
f 285/2/3 279/2/3 286/2/3
f 280/3/3 281/3/3 287/3/3
f 286/1/3 280/1/3 287/1/3
f 281/2/3 282/2/3 288/2/3
f 287/3/3 281/3/3 288/3/3
f 283/3/3 284/3/3 289/3/3
f 288/2/3 282/2/3 289/2/3
f 282/3/3 283/3/3 289/3/3
f 289/3/3 284/3/3 290/3/3
f 291/3/3 292/3/3 293/3/3
f 293/3/3 292/3/3 294/3/3
f 295/3/3 296/3/3 297/3/3
f 297/3/3 296/3/3 298/3/3
f 298/3/3 299/3/3 300/3/3
f 300/3/3 299/3/3 301/3/3
f 302/3/3 303/3/3 310/3/3
f 310/3/3 303/3/3 311/3/3
f 308/3/3 309/3/3 312/3/3
f 304/3/3 305/3/3 312/3/3
f 309/3/3 310/3/3 312/3/3
f 305/3/3 306/3/3 312/3/3
f 307/3/3 308/3/3 312/3/3
f 306/3/3 307/3/3 312/3/3
f 312/3/3 310/3/3 313/3/3
f 313/3/3 310/3/3 314/3/3
f 314/3/3 310/3/3 315/3/3
f 304/3/3 312/3/3 316/3/3
f 312/2/3 313/2/3 317/2/3
f 316/3/3 312/3/3 317/3/3
f 313/3/3 314/3/3 318/3/3
f 317/2/3 313/2/3 318/2/3
f 314/2/3 315/2/3 319/2/3
f 318/3/3 314/3/3 319/3/3
f 315/3/3 310/3/3 320/3/3
f 319/2/3 315/2/3 320/2/3
f 320/3/3 310/3/3 321/3/3
f 322/3/3 323/3/3 324/3/3
f 324/3/3 323/3/3 325/3/3
f 326/3/3 327/3/3 328/3/3
f 328/3/3 327/3/3 329/3/3
f 329/3/3 330/3/3 332/3/3
f 332/3/3 330/3/3 333/3/3
f 331/3/3 332/3/3 334/3/3
f 334/3/3 332/3/3 335/3/3
f 336/5/3 337/5/3 339/5/3
f 338/5/3 339/5/3 340/5/3
f 339/5/3 337/5/3 341/5/3
f 340/5/3 339/5/3 341/5/3
f 342/5/3 343/5/3 344/5/3
f 344/5/3 343/5/3 345/5/3
f 346/5/3 347/5/3 348/5/3
f 346/5/3 348/5/3 350/5/3
f 348/5/3 349/5/3 350/5/3
f 350/5/3 349/5/3 351/5/3
f 351/5/3 349/5/3 352/5/3
f 352/5/3 349/5/3 353/5/3
f 353/5/3 349/5/3 354/5/3
f 357/5/4 356/5/4 355/5/4
f 359/5/4 357/5/4 355/5/4
f 359/5/4 358/5/4 357/5/4
f 360/5/4 358/5/4 359/5/4
f 361/5/4 358/5/4 360/5/4
f 362/5/4 358/5/4 361/5/4
f 363/5/4 358/5/4 362/5/4
f 366/5/4 365/5/4 364/5/4
f 367/5/4 365/5/4 366/5/4
f 371/5/4 369/5/4 368/5/4
f 372/5/4 371/5/4 370/5/4
f 373/5/4 369/5/4 371/5/4
f 373/5/4 371/5/4 372/5/4
f 376/3/4 375/3/4 374/3/4
f 377/3/4 375/3/4 376/3/4
f 380/3/4 378/3/4 377/3/4
f 381/3/4 378/3/4 380/3/4
f 382/3/4 380/3/4 379/3/4
f 383/3/4 380/3/4 382/3/4
f 386/3/4 385/3/4 384/3/4
f 387/3/4 385/3/4 386/3/4
f 390/3/4 389/3/4 388/3/4
f 391/3/4 389/3/4 390/3/4
f 394/3/4 393/3/4 392/3/4
f 395/3/4 393/3/4 394/3/4
f 398/3/4 397/3/4 396/3/4
f 399/3/4 397/3/4 398/3/4
f 404/3/4 401/3/4 400/3/4
f 405/2/4 402/2/4 401/2/4
f 405/3/4 401/3/4 404/3/4
f 406/3/4 403/3/4 402/3/4
f 406/2/4 402/2/4 405/2/4
f 407/3/4 403/3/4 406/3/4
f 410/3/4 409/3/4 408/3/4
f 411/3/4 409/3/4 410/3/4
f 414/3/4 413/3/4 412/3/4
f 415/3/4 413/3/4 414/3/4
f 418/3/4 417/3/4 416/3/4
f 419/3/4 417/3/4 418/3/4
f 420/2/4 419/2/4 418/2/4
f 421/3/4 417/3/4 419/3/4
f 421/2/4 419/2/4 420/2/4
f 422/3/4 417/3/4 421/3/4
f 425/3/4 424/3/4 423/3/4
f 426/3/4 424/3/4 425/3/4
f 427/3/5 428/3/5 431/3/5
f 428/1/5 429/1/5 432/1/5
f 431/3/5 428/3/5 432/3/5
f 432/1/5 429/1/5 433/1/5
f 430/3/5 431/3/5 436/3/5
f 431/3/5 432/3/5 436/3/5
f 432/3/5 433/3/5 436/3/5
f 433/2/5 434/2/5 437/2/5
f 436/3/5 433/3/5 437/3/5
f 437/2/5 434/2/5 438/2/5
f 435/3/5 436/3/5 440/3/5
f 438/3/5 439/3/5 440/3/5
f 437/3/5 438/3/5 440/3/5
f 436/3/5 437/3/5 440/3/5
f 440/3/5 439/3/5 441/3/5
f 435/3/5 440/3/5 442/3/5
f 440/2/5 441/2/5 442/2/5
f 442/2/5 441/2/5 443/2/5
f 435/3/5 442/3/5 444/3/5
f 442/3/5 443/3/5 444/3/5
f 444/3/5 443/3/5 445/3/5
f 445/3/5 443/3/5 446/3/5
f 446/3/5 443/3/5 447/3/5
f 435/3/5 444/3/5 448/3/5
f 444/5/5 445/5/5 448/5/5
f 445/3/5 446/3/5 449/3/5
f 448/5/5 445/5/5 449/5/5
f 449/3/5 446/3/5 450/3/5
f 450/3/5 446/3/5 451/3/5
f 446/5/5 447/5/5 452/5/5
f 451/3/5 446/3/5 452/3/5
f 447/3/5 443/3/5 453/3/5
f 452/5/5 447/5/5 453/5/5
f 435/3/5 448/3/5 454/3/5
f 448/3/5 449/3/5 454/3/5
f 449/5/5 450/5/5 455/5/5
f 454/3/5 449/3/5 455/3/5
f 450/3/5 451/3/5 456/3/5
f 455/5/5 450/5/5 456/5/5
f 451/5/5 452/5/5 457/5/5
f 456/3/5 451/3/5 457/3/5
f 457/5/5 452/5/5 458/5/5
f 453/3/5 443/3/5 459/3/5
f 454/5/5 455/5/5 460/5/5
f 435/3/5 454/3/5 460/3/5
f 455/3/5 456/3/5 461/3/5
f 460/5/5 455/5/5 461/5/5
f 457/3/5 458/3/5 461/3/5
f 456/3/5 457/3/5 461/3/5
f 458/5/5 459/5/5 462/5/5
f 461/3/5 458/3/5 462/3/5
f 459/3/5 443/3/5 463/3/5
f 462/5/5 459/5/5 463/5/5
f 460/3/5 461/3/5 464/3/5
f 463/3/5 443/3/5 464/3/5
f 462/3/5 463/3/5 464/3/5
f 461/3/5 462/3/5 464/3/5
f 464/3/5 443/3/5 465/3/5
f 460/3/5 464/3/5 466/3/5
f 464/2/5 465/2/5 466/2/5
f 466/2/5 465/2/5 467/2/5
f 435/3/5 460/3/5 468/3/5
f 460/3/5 466/3/5 468/3/5
f 466/3/5 467/3/5 468/3/5
f 468/3/5 467/3/5 469/3/5
f 469/3/5 467/3/5 470/3/5
f 470/3/5 467/3/5 471/3/5
f 471/3/5 467/3/5 472/3/5
f 469/3/5 470/3/5 473/3/5
f 473/3/5 470/3/5 474/3/5
f 474/3/5 470/3/5 475/3/5
f 470/2/5 471/2/5 476/2/5
f 475/3/5 470/3/5 476/3/5
f 476/2/5 471/2/5 477/2/5
f 474/3/5 475/3/5 478/3/5
f 478/3/5 475/3/5 479/3/5
f 480/5/5 481/5/5 482/5/5
f 482/5/5 481/5/5 483/5/5
f 488/3/6 485/3/6 484/3/6
f 489/1/6 486/1/6 485/1/6
f 489/3/6 485/3/6 488/3/6
f 490/1/6 486/1/6 489/1/6
f 492/3/6 488/3/6 487/3/6
f 492/3/6 491/3/6 490/3/6
f 492/3/6 490/3/6 489/3/6
f 492/3/6 489/3/6 488/3/6
f 493/3/6 491/3/6 492/3/6
f 495/3/6 492/3/6 487/3/6
f 496/3/6 492/3/6 495/3/6
f 497/3/6 491/3/6 493/3/6
f 498/3/6 491/3/6 497/3/6
f 500/3/6 499/3/6 498/3/6
f 501/3/6 499/3/6 500/3/6
f 502/1/6 501/1/6 500/1/6
f 503/3/6 499/3/6 501/3/6
f 503/1/6 501/1/6 502/1/6
f 504/3/6 499/3/6 503/3/6
f 505/3/6 503/3/6 502/3/6
f 505/1/6 504/1/6 503/1/6
f 506/1/6 504/1/6 505/1/6
f 507/3/6 495/3/6 494/3/6
f 508/3/6 495/3/6 507/3/6
f 509/3/6 495/3/6 508/3/6
f 512/3/6 505/3/6 502/3/6
f 512/3/6 506/3/6 505/3/6
f 513/3/6 506/3/6 512/3/6
f 514/3/6 506/3/6 513/3/6
f 515/3/6 510/3/6 509/3/6
f 515/3/6 509/3/6 508/3/6
f 516/3/6 513/3/6 512/3/6
f 516/3/6 512/3/6 511/3/6
f 517/3/6 515/3/6 508/3/6
f 517/3/6 516/3/6 515/3/6
f 518/3/6 516/3/6 517/3/6
f 519/3/6 513/3/6 516/3/6
f 519/3/6 516/3/6 518/3/6
f 520/3/6 513/3/6 519/3/6
f 521/3/6 519/3/6 518/3/6
f 522/3/6 519/3/6 521/3/6
f 526/3/6 524/3/6 523/3/6
f 527/3/6 524/3/6 526/3/6
f 529/3/6 526/3/6 525/3/6
f 529/3/6 528/3/6 527/3/6
f 529/3/6 527/3/6 526/3/6
f 530/3/6 528/3/6 529/3/6
f 531/3/6 529/3/6 525/3/6
f 532/3/6 529/3/6 531/3/6
f 533/3/6 528/3/6 530/3/6
f 534/3/6 528/3/6 533/3/6
f 535/3/6 528/3/6 534/3/6
f 536/3/6 528/3/6 535/3/6
f 537/3/6 528/3/6 536/3/6
f 538/1/6 537/1/6 536/1/6
f 539/1/6 537/1/6 538/1/6
f 540/3/6 539/3/6 538/3/6
f 541/3/6 539/3/6 540/3/6
f 542/1/6 541/1/6 540/1/6
f 543/1/6 541/1/6 542/1/6
f 544/3/6 531/3/6 525/3/6
f 547/3/6 543/3/6 542/3/6
f 548/3/6 545/3/6 544/3/6
f 549/3/6 547/3/6 546/3/6
f 550/3/6 548/3/6 544/3/6
f 550/3/6 549/3/6 548/3/6
f 550/3/6 544/3/6 525/3/6
f 551/3/6 549/3/6 550/3/6
f 552/3/6 547/3/6 549/3/6
f 552/3/6 549/3/6 551/3/6
f 552/3/6 543/3/6 547/3/6
f 553/3/6 543/3/6 552/3/6
f 554/3/6 552/3/6 551/3/6
f 555/3/6 552/3/6 554/3/6
f 559/3/6 557/3/6 556/3/6
f 560/3/6 557/3/6 559/3/6
f 562/3/6 561/3/6 560/3/6
f 563/3/6 561/3/6 562/3/6
f 566/5/6 565/5/6 564/5/6
f 567/5/6 565/5/6 566/5/6
f 570/3/6 559/3/6 558/3/6
f 571/3/6 559/3/6 570/3/6
f 572/3/6 569/3/6 568/3/6
f 573/3/6 569/3/6 572/3/6
f 574/3/6 572/3/6 571/3/6
f 575/3/6 572/3/6 574/3/6
f 578/3/6 577/3/6 576/3/6
f 579/3/6 577/3/6 578/3/6
f 580/3/6 578/3/6 576/3/6
f 581/3/6 578/3/6 580/3/6
f 582/3/6 580/3/6 576/3/6
f 584/3/6 583/3/6 582/3/6
f 586/3/6 584/3/6 582/3/6
f 586/3/6 585/3/6 584/3/6
f 586/3/6 582/3/6 576/3/6
f 587/3/6 585/3/6 586/3/6
f 591/5/6 589/5/6 588/5/6
f 592/5/6 589/5/6 591/5/6
f 593/5/6 589/5/6 592/5/6
f 594/5/6 591/5/6 590/5/6
f 594/5/6 592/5/6 591/5/6
f 595/5/6 592/5/6 594/5/6
f 596/5/6 592/5/6 595/5/6
f 598/5/6 597/5/6 596/5/6
f 598/5/6 596/5/6 595/5/6
f 599/5/6 597/5/6 598/5/6
