# MagicaVoxel @ Ephtracy

# group
o 

# material
mtllib drzewko-88.mtl
usemtl palette

# normals
vn -1 0 0
vn 1 0 0
vn 0 0 1
vn 0 0 -1
vn 0 -1 0
vn 0 1 0

# texcoords
vt 0.353516 0.5
vt 0.564453 0.5
vt 0.728516 0.5
vt 0.876953 0.5
vt 0.951172 0.5
vt 0.974609 0.5

# verts
v 9.8 0.8 3.1
v 9.8 0.8 2.4
v 9.8 0.9 3.1
v 9.8 0.9 2.4
v 9.9 0.8 3.2
v 9.9 0.8 3.1
v 9.9 0.9 3.2
v 9.9 0.9 3.1
v 9.9 0.9 2.5
v 9.9 0.9 2.4
v 9.9 1 2.5
v 9.9 1 2.4
v 10 1 2.5
v 10 1 2.4
v 10 1.1 2.5
v 10 1.1 2.4
v 10.1 1.1 2.5
v 10.1 1.1 2.4
v 10.1 1.2 2.5
v 10.1 1.2 2.4
v 10.3 1 2.6
v 10.3 1 2.5
v 10.3 1.1 2.6
v 10.3 1.1 2.5
v 10.6 0.8 2.6
v 10.6 0.8 2.5
v 10.6 0.9 2.6
v 10.6 0.9 2.5
v 10.6 1.2 2.5
v 10.6 1.2 2.4
v 10.6 1.3 2.5
v 10.6 1.3 2.4
v 10.7 0.9 2.6
v 10.7 0.9 2.5
v 10.7 1 2.6
v 10.7 1 2.5
v 10.7 1.3 2.5
v 10.7 1.3 2.4
v 10.7 1.4 2.5
v 10.7 1.4 2.4
v 10.8 0.8 3.3
v 10.8 0.8 2.8
v 10.8 0.8 2.7
v 10.8 0.8 2.6
v 10.8 0.9 3.3
v 10.8 0.9 2.8
v 10.8 0.9 2.7
v 10.8 0.9 2.6
v 11 0.8 3.5
v 11 0.8 3.3
v 11 0.9 3.5
v 11 0.9 3.3
v 11.1 1.1 2.6
v 11.1 1.1 2.5
v 11.1 1.3 2.6
v 11.1 1.3 2.5
v 11.4 0.8 3.3
v 11.4 0.8 3
v 11.4 0.8 2.5
v 11.4 0.9 3.3
v 11.4 0.9 3
v 11.4 1.1 3
v 11.4 1.1 2.6
v 11.4 1.1 2.5
v 11.8 0.9 4.4
v 11.8 0.9 4.3
v 11.8 1 4.4
v 11.8 1 4.3
v 12.1 0.8 2.6
v 12.1 0.8 2.5
v 12.1 1 2.6
v 12.1 1 2.5
v 12.2 0.8 4.4
v 12.2 0.8 4.3
v 12.2 0.9 4.4
v 12.2 0.9 4.3
v 12.2 1 4.4
v 12.2 1 4.3
v 12.2 1.1 4.4
v 12.2 1.1 4.3
v 12.3 0.8 4.5
v 12.3 0.8 4.4
v 12.3 0.8 4.3
v 12.3 0.8 4.2
v 12.3 1.1 4.5
v 12.3 1.1 4.4
v 12.3 1.1 4.3
v 12.3 1.1 4.2
v 13.1 0.8 2.9
v 13.1 0.8 2.6
v 13.1 0.9 2.9
v 13.1 0.9 2.6
v 13.5 0.8 2.5
v 13.5 0.8 2.4
v 13.5 1 2.5
v 13.5 1 2.4
v 9.9 0.8 2.8
v 9.9 0.8 2.5
v 9.9 0.9 2.8
v 9.9 0.9 2.5
v 10 0.8 3.2
v 10 0.8 2.8
v 10 0.9 3.2
v 10 0.9 2.8
v 10.9 0.9 2.6
v 10.9 0.9 2.5
v 10.9 1 2.6
v 10.9 1 2.5
v 11.1 0.8 3.5
v 11.1 0.8 2.8
v 11.1 0.8 2.7
v 11.1 0.8 2.5
v 11.1 0.9 3.5
v 11.1 0.9 2.8
v 11.1 0.9 2.7
v 11.1 0.9 2.5
v 11.2 1 2.6
v 11.2 1 2.5
v 11.2 1.1 2.6
v 11.2 1.1 2.5
v 11.5 0.8 3.3
v 11.5 0.8 3
v 11.5 0.9 3.3
v 11.5 0.9 3
v 11.6 0.8 3
v 11.6 0.8 2.5
v 11.6 1.1 3
v 11.6 1.1 2.6
v 11.6 1.3 2.6
v 11.6 1.3 2.5
v 12.3 1.2 2.5
v 12.3 1.2 2.4
v 12.3 1.4 2.5
v 12.3 1.4 2.4
v 12.8 0.8 4.5
v 12.8 0.8 4.2
v 12.8 1.1 4.5
v 12.8 1.1 4.2
v 13.1 0.8 2.5
v 13.1 0.8 2.4
v 13.1 0.9 2.6
v 13.1 0.9 2.5
v 13.1 1 2.6
v 13.1 1 2.5
v 13.1 1 2.4
v 13.2 0.8 2.9
v 13.2 0.8 2.5
v 13.2 0.9 2.9
v 13.2 0.9 2.5
v 13.6 0.8 2.5
v 13.6 0.8 2.4
v 13.6 1.2 2.5
v 13.6 1.2 2.4
v 12.3 0.8 4.5
v 12.3 1.1 4.5
v 12.8 0.8 4.5
v 12.8 1.1 4.5
v 11.8 0.9 4.4
v 11.8 1 4.4
v 11.9 0.9 4.4
v 11.9 1 4.4
v 12.2 0.8 4.4
v 12.2 0.9 4.4
v 12.2 1 4.4
v 12.2 1.1 4.4
v 12.3 0.8 4.4
v 12.3 1.1 4.4
v 11 0.8 3.5
v 11 0.9 3.5
v 11.1 0.8 3.5
v 11.1 0.9 3.5
v 10.8 0.8 3.3
v 10.8 0.9 3.3
v 11 0.8 3.3
v 11 0.9 3.3
v 11.4 0.8 3.3
v 11.4 0.9 3.3
v 11.5 0.8 3.3
v 11.5 0.9 3.3
v 9.9 0.8 3.2
v 9.9 0.9 3.2
v 10 0.8 3.2
v 10 0.9 3.2
v 9.8 0.8 3.1
v 9.8 0.9 3.1
v 9.9 0.8 3.1
v 9.9 0.9 3.1
v 11.4 0.9 3
v 11.4 1.1 3
v 11.5 0.8 3
v 11.5 0.9 3
v 11.6 0.8 3
v 11.6 1.1 3
v 13.1 0.8 2.9
v 13.1 0.9 2.9
v 13.2 0.8 2.9
v 13.2 0.9 2.9
v 10.8 0.8 2.7
v 10.8 0.9 2.7
v 11.1 0.8 2.7
v 11.1 0.9 2.7
v 10.3 1 2.6
v 10.3 1.1 2.6
v 10.6 0.8 2.6
v 10.6 0.9 2.6
v 10.7 0.9 2.6
v 10.7 1 2.6
v 10.8 0.8 2.6
v 10.8 0.9 2.6
v 10.9 0.9 2.6
v 10.9 1 2.6
v 11.1 1.1 2.6
v 11.1 1.3 2.6
v 11.2 1 2.6
v 11.2 1.1 2.6
v 11.4 1.1 2.6
v 11.6 1.1 2.6
v 11.6 1.3 2.6
v 12.1 0.8 2.6
v 12.1 1 2.6
v 13.1 0.8 2.6
v 13.1 0.9 2.6
v 13.1 1 2.6
v 9.9 0.8 2.5
v 9.9 0.9 2.5
v 9.9 1 2.5
v 10 1 2.5
v 10 1.1 2.5
v 10.1 1.1 2.5
v 10.1 1.2 2.5
v 10.3 0.8 2.5
v 10.3 1 2.5
v 10.3 1.1 2.5
v 10.3 1.2 2.5
v 10.6 0.8 2.5
v 10.6 0.9 2.5
v 10.6 1.1 2.5
v 10.6 1.2 2.5
v 10.6 1.3 2.5
v 10.7 0.9 2.5
v 10.7 1 2.5
v 10.7 1.3 2.5
v 10.7 1.4 2.5
v 10.9 0.9 2.5
v 10.9 1 2.5
v 11.1 0.8 2.5
v 11.1 0.9 2.5
v 11.1 1.1 2.5
v 11.1 1.3 2.5
v 11.2 1 2.5
v 11.2 1.1 2.5
v 11.4 0.8 2.5
v 11.4 1.1 2.5
v 11.6 0.8 2.5
v 11.6 1.3 2.5
v 12.1 0.8 2.5
v 12.1 1 2.5
v 12.3 1 2.5
v 12.3 1.2 2.5
v 12.3 1.4 2.5
v 13.1 1 2.5
v 13.5 0.8 2.5
v 13.5 1 2.5
v 13.5 1.2 2.5
v 13.6 0.8 2.5
v 13.6 1.2 2.5
v 11.8 0.9 4.3
v 11.8 1 4.3
v 11.9 0.9 4.3
v 11.9 1 4.3
v 12.2 0.8 4.3
v 12.2 0.9 4.3
v 12.2 1 4.3
v 12.2 1.1 4.3
v 12.3 0.8 4.3
v 12.3 1.1 4.3
v 12.3 0.8 4.2
v 12.3 1.1 4.2
v 12.8 0.8 4.2
v 12.8 1.1 4.2
v 9.9 0.8 2.8
v 9.9 0.9 2.8
v 10 0.8 2.8
v 10 0.9 2.8
v 10.8 0.8 2.8
v 10.8 0.9 2.8
v 11.1 0.8 2.8
v 11.1 0.9 2.8
v 13.1 0.8 2.5
v 13.1 0.9 2.5
v 13.2 0.8 2.5
v 13.2 0.9 2.5
v 9.8 0.8 2.4
v 9.8 0.9 2.4
v 9.9 0.9 2.4
v 9.9 1 2.4
v 10 1 2.4
v 10 1.1 2.4
v 10.1 1.1 2.4
v 10.1 1.2 2.4
v 10.3 0.8 2.4
v 10.3 1.1 2.4
v 10.3 1.2 2.4
v 10.6 1.1 2.4
v 10.6 1.2 2.4
v 10.6 1.3 2.4
v 10.7 0.8 2.4
v 10.7 1.1 2.4
v 10.7 1.3 2.4
v 10.7 1.4 2.4
v 12.3 0.8 2.4
v 12.3 1.2 2.4
v 12.3 1.4 2.4
v 13.1 0.8 2.4
v 13.1 1 2.4
v 13.5 0.8 2.4
v 13.5 1 2.4
v 13.5 1.2 2.4
v 13.6 0.8 2.4
v 13.6 1.2 2.4
v 12.3 0.8 4.5
v 12.8 0.8 4.5
v 12.2 0.8 4.4
v 12.3 0.8 4.4
v 12.2 0.8 4.3
v 12.3 0.8 4.3
v 12.3 0.8 4.2
v 12.8 0.8 4.2
v 11 0.8 3.5
v 11.1 0.8 3.5
v 10.8 0.8 3.3
v 11 0.8 3.3
v 11.4 0.8 3.3
v 11.5 0.8 3.3
v 9.9 0.8 3.2
v 10 0.8 3.2
v 9.8 0.8 3.1
v 9.9 0.8 3.1
v 11.4 0.8 3
v 11.5 0.8 3
v 11.6 0.8 3
v 13.1 0.8 2.9
v 13.2 0.8 2.9
v 9.9 0.8 2.8
v 10 0.8 2.8
v 10.8 0.8 2.8
v 11.1 0.8 2.8
v 10.8 0.8 2.7
v 11.1 0.8 2.7
v 10.6 0.8 2.6
v 10.8 0.8 2.6
v 12.1 0.8 2.6
v 13.1 0.8 2.6
v 9.9 0.8 2.5
v 10.3 0.8 2.5
v 10.6 0.8 2.5
v 10.7 0.8 2.5
v 11.1 0.8 2.5
v 11.4 0.8 2.5
v 11.6 0.8 2.5
v 12.1 0.8 2.5
v 12.3 0.8 2.5
v 13.1 0.8 2.5
v 13.2 0.8 2.5
v 13.5 0.8 2.5
v 13.6 0.8 2.5
v 9.8 0.8 2.4
v 10.3 0.8 2.4
v 10.7 0.8 2.4
v 12.3 0.8 2.4
v 13.1 0.8 2.4
v 13.5 0.8 2.4
v 13.6 0.8 2.4
v 11.8 0.9 4.4
v 11.9 0.9 4.4
v 12.2 0.9 4.4
v 11.8 0.9 4.3
v 11.9 0.9 4.3
v 12.2 0.9 4.3
v 10.3 1 2.6
v 10.7 1 2.6
v 10.9 1 2.6
v 11.2 1 2.6
v 10.3 1 2.5
v 10.7 1 2.5
v 10.9 1 2.5
v 11.2 1 2.5
v 13.1 1 2.5
v 13.5 1 2.5
v 13.1 1 2.4
v 13.5 1 2.4
v 11.2 1.1 2.6
v 11.4 1.1 2.6
v 11.2 1.1 2.5
v 11.4 1.1 2.5
v 11 0.9 3.5
v 11.1 0.9 3.5
v 10.8 0.9 3.3
v 11 0.9 3.3
v 11.4 0.9 3.3
v 11.5 0.9 3.3
v 9.9 0.9 3.2
v 10 0.9 3.2
v 9.8 0.9 3.1
v 9.9 0.9 3.1
v 11.4 0.9 3
v 11.5 0.9 3
v 13.1 0.9 2.9
v 13.2 0.9 2.9
v 9.9 0.9 2.8
v 10 0.9 2.8
v 10.8 0.9 2.8
v 11.1 0.9 2.8
v 10.8 0.9 2.7
v 11.1 0.9 2.7
v 10.6 0.9 2.6
v 10.7 0.9 2.6
v 10.8 0.9 2.6
v 10.9 0.9 2.6
v 13.1 0.9 2.6
v 9.9 0.9 2.5
v 10.6 0.9 2.5
v 10.7 0.9 2.5
v 10.9 0.9 2.5
v 11.1 0.9 2.5
v 13.1 0.9 2.5
v 13.2 0.9 2.5
v 9.8 0.9 2.4
v 9.9 0.9 2.4
v 11.8 1 4.4
v 11.9 1 4.4
v 12.2 1 4.4
v 11.8 1 4.3
v 11.9 1 4.3
v 12.2 1 4.3
v 12.1 1 2.6
v 13.1 1 2.6
v 9.9 1 2.5
v 10 1 2.5
v 12.1 1 2.5
v 12.3 1 2.5
v 13.1 1 2.5
v 9.9 1 2.4
v 10 1 2.4
v 12.3 1.1 4.5
v 12.8 1.1 4.5
v 12.2 1.1 4.4
v 12.3 1.1 4.4
v 12.2 1.1 4.3
v 12.3 1.1 4.3
v 12.3 1.1 4.2
v 12.8 1.1 4.2
v 11.4 1.1 3
v 11.6 1.1 3
v 10.3 1.1 2.6
v 11.1 1.1 2.6
v 11.4 1.1 2.6
v 11.6 1.1 2.6
v 10 1.1 2.5
v 10.1 1.1 2.5
v 10.3 1.1 2.5
v 10.6 1.1 2.5
v 11.1 1.1 2.5
v 10 1.1 2.4
v 10.1 1.1 2.4
v 10.1 1.2 2.5
v 10.3 1.2 2.5
v 10.6 1.2 2.5
v 12.3 1.2 2.5
v 13.5 1.2 2.5
v 13.6 1.2 2.5
v 10.1 1.2 2.4
v 10.3 1.2 2.4
v 10.6 1.2 2.4
v 12.3 1.2 2.4
v 13.5 1.2 2.4
v 13.6 1.2 2.4
v 11.1 1.3 2.6
v 11.6 1.3 2.6
v 10.6 1.3 2.5
v 10.7 1.3 2.5
v 11.1 1.3 2.5
v 11.6 1.3 2.5
v 10.6 1.3 2.4
v 10.7 1.3 2.4
v 10.7 1.4 2.5
v 12.3 1.4 2.5
v 10.7 1.4 2.4
v 12.3 1.4 2.4

# faces
f 3/4/1 2/4/1 1/4/1
f 4/4/1 2/4/1 3/4/1
f 7/4/1 6/4/1 5/4/1
f 8/4/1 6/4/1 7/4/1
f 11/4/1 10/4/1 9/4/1
f 12/4/1 10/4/1 11/4/1
f 15/4/1 14/4/1 13/4/1
f 16/4/1 14/4/1 15/4/1
f 19/4/1 18/4/1 17/4/1
f 20/4/1 18/4/1 19/4/1
f 23/5/1 22/5/1 21/5/1
f 24/5/1 22/5/1 23/5/1
f 27/5/1 26/5/1 25/5/1
f 28/5/1 26/5/1 27/5/1
f 31/4/1 30/4/1 29/4/1
f 32/4/1 30/4/1 31/4/1
f 35/5/1 34/5/1 33/5/1
f 36/5/1 34/5/1 35/5/1
f 39/4/1 38/4/1 37/4/1
f 40/4/1 38/4/1 39/4/1
f 45/5/1 42/5/1 41/5/1
f 46/5/1 42/5/1 45/5/1
f 47/5/1 44/5/1 43/5/1
f 48/5/1 44/5/1 47/5/1
f 51/5/1 50/5/1 49/5/1
f 52/5/1 50/5/1 51/5/1
f 55/4/1 54/4/1 53/4/1
f 56/4/1 54/4/1 55/4/1
f 60/3/1 58/3/1 57/3/1
f 61/4/1 59/4/1 58/4/1
f 61/3/1 58/3/1 60/3/1
f 62/4/1 59/4/1 61/4/1
f 63/4/1 59/4/1 62/4/1
f 64/4/1 59/4/1 63/4/1
f 67/6/1 66/6/1 65/6/1
f 68/6/1 66/6/1 67/6/1
f 71/2/1 70/2/1 69/2/1
f 72/2/1 70/2/1 71/2/1
f 75/1/1 74/1/1 73/1/1
f 76/1/1 74/1/1 75/1/1
f 79/1/1 78/1/1 77/1/1
f 80/1/1 78/1/1 79/1/1
f 85/1/1 82/1/1 81/1/1
f 86/1/1 82/1/1 85/1/1
f 87/1/1 84/1/1 83/1/1
f 88/1/1 84/1/1 87/1/1
f 91/4/1 90/4/1 89/4/1
f 92/4/1 90/4/1 91/4/1
f 95/4/1 94/4/1 93/4/1
f 96/4/1 94/4/1 95/4/1
f 97/4/2 98/4/2 99/4/2
f 99/4/2 98/4/2 100/4/2
f 101/4/2 102/4/2 103/4/2
f 103/4/2 102/4/2 104/4/2
f 105/5/2 106/5/2 107/5/2
f 107/5/2 106/5/2 108/5/2
f 109/5/2 110/5/2 113/5/2
f 113/5/2 110/5/2 114/5/2
f 111/5/2 112/5/2 115/5/2
f 115/5/2 112/5/2 116/5/2
f 117/5/2 118/5/2 119/5/2
f 119/5/2 118/5/2 120/5/2
f 121/3/2 122/3/2 123/3/2
f 123/3/2 122/3/2 124/3/2
f 125/4/2 126/4/2 127/4/2
f 127/4/2 126/4/2 128/4/2
f 128/4/2 126/4/2 129/4/2
f 129/4/2 126/4/2 130/4/2
f 131/4/2 132/4/2 133/4/2
f 133/4/2 132/4/2 134/4/2
f 135/1/2 136/1/2 137/1/2
f 137/1/2 136/1/2 138/1/2
f 139/2/2 140/2/2 142/2/2
f 141/2/2 142/2/2 143/2/2
f 142/2/2 140/2/2 144/2/2
f 143/2/2 142/2/2 144/2/2
f 144/2/2 140/2/2 145/2/2
f 146/4/2 147/4/2 148/4/2
f 148/4/2 147/4/2 149/4/2
f 150/4/2 151/4/2 152/4/2
f 152/4/2 151/4/2 153/4/2
f 156/1/3 155/1/3 154/1/3
f 157/1/3 155/1/3 156/1/3
f 160/6/3 159/6/3 158/6/3
f 161/6/3 159/6/3 160/6/3
f 163/1/3 161/1/3 160/1/3
f 164/1/3 161/1/3 163/1/3
f 166/1/3 164/1/3 163/1/3
f 166/1/3 165/1/3 164/1/3
f 166/1/3 163/1/3 162/1/3
f 167/1/3 165/1/3 166/1/3
f 170/5/3 169/5/3 168/5/3
f 171/5/3 169/5/3 170/5/3
f 174/5/3 173/5/3 172/5/3
f 175/5/3 173/5/3 174/5/3
f 178/3/3 177/3/3 176/3/3
f 179/3/3 177/3/3 178/3/3
f 182/4/3 181/4/3 180/4/3
f 183/4/3 181/4/3 182/4/3
f 186/4/3 185/4/3 184/4/3
f 187/4/3 185/4/3 186/4/3
f 191/4/3 189/4/3 188/4/3
f 192/4/3 191/4/3 190/4/3
f 193/4/3 189/4/3 191/4/3
f 193/4/3 191/4/3 192/4/3
f 196/4/3 195/4/3 194/4/3
f 197/4/3 195/4/3 196/4/3
f 200/5/3 199/5/3 198/5/3
f 201/5/3 199/5/3 200/5/3
f 206/5/3 205/5/3 204/5/3
f 207/5/3 203/5/3 202/5/3
f 208/5/3 206/5/3 204/5/3
f 208/5/3 207/5/3 206/5/3
f 209/5/3 207/5/3 208/5/3
f 210/5/3 207/5/3 209/5/3
f 211/5/3 203/5/3 207/5/3
f 211/5/3 207/5/3 210/5/3
f 212/5/3 203/5/3 211/5/3
f 214/5/3 212/5/3 211/5/3
f 215/4/3 213/4/3 212/4/3
f 215/5/3 212/5/3 214/5/3
f 216/4/3 213/4/3 215/4/3
f 217/4/3 213/4/3 216/4/3
f 218/4/3 213/4/3 217/4/3
f 221/2/3 220/2/3 219/2/3
f 222/2/3 220/2/3 221/2/3
f 223/2/3 220/2/3 222/2/3
f 227/4/3 225/4/3 224/4/3
f 227/4/3 226/4/3 225/4/3
f 229/4/3 228/4/3 227/4/3
f 231/4/3 227/4/3 224/4/3
f 231/4/3 230/4/3 229/4/3
f 231/4/3 229/4/3 227/4/3
f 232/4/3 230/4/3 231/4/3
f 233/4/3 230/4/3 232/4/3
f 234/4/3 230/4/3 233/4/3
f 235/3/3 232/3/3 231/3/3
f 236/3/3 232/3/3 235/3/3
f 237/5/3 234/5/3 233/5/3
f 238/5/3 234/5/3 237/5/3
f 240/3/3 232/3/3 236/3/3
f 241/3/3 232/3/3 240/3/3
f 242/4/3 238/4/3 237/4/3
f 242/4/3 239/4/3 238/4/3
f 247/4/3 245/4/3 244/4/3
f 248/4/3 243/4/3 242/4/3
f 248/4/3 242/4/3 237/4/3
f 249/4/3 243/4/3 248/4/3
f 250/4/3 247/4/3 246/4/3
f 250/4/3 245/4/3 247/4/3
f 252/4/3 250/4/3 246/4/3
f 252/4/3 251/4/3 250/4/3
f 253/4/3 251/4/3 252/4/3
f 255/4/3 243/4/3 249/4/3
f 256/4/3 255/4/3 254/4/3
f 257/4/3 255/4/3 256/4/3
f 258/4/3 255/4/3 257/4/3
f 259/4/3 255/4/3 258/4/3
f 260/4/3 243/4/3 255/4/3
f 260/4/3 255/4/3 259/4/3
f 261/2/3 259/2/3 258/2/3
f 263/2/3 259/2/3 261/2/3
f 264/2/3 259/2/3 263/2/3
f 265/4/3 263/4/3 262/4/3
f 265/4/3 264/4/3 263/4/3
f 266/4/3 264/4/3 265/4/3
f 267/6/4 268/6/4 269/6/4
f 269/6/4 268/6/4 270/6/4
f 269/1/4 270/1/4 272/1/4
f 272/1/4 270/1/4 273/1/4
f 272/1/4 273/1/4 275/1/4
f 273/1/4 274/1/4 275/1/4
f 271/1/4 272/1/4 275/1/4
f 275/1/4 274/1/4 276/1/4
f 277/1/4 278/1/4 279/1/4
f 279/1/4 278/1/4 280/1/4
f 281/4/4 282/4/4 283/4/4
f 283/4/4 282/4/4 284/4/4
f 285/5/4 286/5/4 287/5/4
f 287/5/4 286/5/4 288/5/4
f 289/4/4 290/4/4 291/4/4
f 291/4/4 290/4/4 292/4/4
f 293/4/4 294/4/4 295/4/4
f 295/4/4 296/4/4 297/4/4
f 297/4/4 298/4/4 299/4/4
f 293/4/4 295/4/4 301/4/4
f 299/4/4 300/4/4 301/4/4
f 297/4/4 299/4/4 301/4/4
f 295/4/4 297/4/4 301/4/4
f 301/4/4 300/4/4 302/4/4
f 302/4/4 300/4/4 303/4/4
f 301/3/4 302/3/4 304/3/4
f 302/5/4 303/5/4 304/5/4
f 304/5/4 303/5/4 305/5/4
f 301/3/4 304/3/4 307/3/4
f 304/4/4 305/4/4 308/4/4
f 307/3/4 304/3/4 308/3/4
f 305/4/4 306/4/4 308/4/4
f 308/4/4 306/4/4 309/4/4
f 307/4/4 308/4/4 311/4/4
f 309/4/4 310/4/4 311/4/4
f 308/4/4 309/4/4 311/4/4
f 311/4/4 310/4/4 312/4/4
f 312/4/4 310/4/4 313/4/4
f 311/2/4 312/2/4 314/2/4
f 314/2/4 312/2/4 315/2/4
f 315/2/4 312/2/4 317/2/4
f 317/2/4 312/2/4 318/2/4
f 316/4/4 317/4/4 319/4/4
f 317/4/4 318/4/4 319/4/4
f 319/4/4 318/4/4 320/4/4
f 324/1/5 322/1/5 321/1/5
f 325/1/5 324/1/5 323/1/5
f 326/1/5 322/1/5 324/1/5
f 326/1/5 324/1/5 325/1/5
f 327/1/5 322/1/5 326/1/5
f 328/1/5 322/1/5 327/1/5
f 332/5/5 330/5/5 329/5/5
f 338/4/5 336/4/5 335/4/5
f 339/3/5 334/3/5 333/3/5
f 340/3/5 334/3/5 339/3/5
f 344/4/5 338/4/5 337/4/5
f 344/4/5 336/4/5 338/4/5
f 345/4/5 336/4/5 344/4/5
f 346/5/5 332/5/5 331/5/5
f 347/5/5 330/5/5 332/5/5
f 347/5/5 332/5/5 346/5/5
f 351/5/5 349/5/5 348/5/5
f 353/4/5 343/4/5 342/4/5
f 354/4/5 344/4/5 337/4/5
f 356/5/5 351/5/5 350/5/5
f 357/5/5 351/5/5 356/5/5
f 358/5/5 349/5/5 351/5/5
f 358/5/5 351/5/5 357/5/5
f 359/4/5 341/4/5 340/4/5
f 359/4/5 340/4/5 339/4/5
f 360/4/5 341/4/5 359/4/5
f 361/2/5 353/2/5 352/2/5
f 362/2/5 353/2/5 361/2/5
f 363/4/5 343/4/5 353/4/5
f 363/2/5 353/2/5 362/2/5
f 364/4/5 343/4/5 363/4/5
f 367/4/5 355/4/5 354/4/5
f 367/4/5 354/4/5 337/4/5
f 368/3/5 357/3/5 356/3/5
f 368/4/5 355/4/5 367/4/5
f 368/3/5 356/3/5 355/3/5
f 369/4/5 358/4/5 357/4/5
f 369/3/5 357/3/5 368/3/5
f 369/4/5 361/4/5 360/4/5
f 369/4/5 360/4/5 359/4/5
f 369/4/5 359/4/5 358/4/5
f 369/4/5 362/4/5 361/4/5
f 370/2/5 363/2/5 362/2/5
f 370/4/5 362/4/5 369/4/5
f 371/2/5 363/2/5 370/2/5
f 372/4/5 366/4/5 365/4/5
f 373/4/5 366/4/5 372/4/5
f 377/6/5 375/6/5 374/6/5
f 378/1/5 376/1/5 375/1/5
f 378/6/5 375/6/5 377/6/5
f 379/1/5 376/1/5 378/1/5
f 384/5/5 381/5/5 380/5/5
f 385/5/5 381/5/5 384/5/5
f 386/5/5 383/5/5 382/5/5
f 387/5/5 383/5/5 386/5/5
f 390/2/5 389/2/5 388/2/5
f 391/2/5 389/2/5 390/2/5
f 394/4/5 393/4/5 392/4/5
f 395/4/5 393/4/5 394/4/5
f 396/5/6 397/5/6 399/5/6
f 402/4/6 403/4/6 405/4/6
f 400/3/6 401/3/6 406/3/6
f 406/3/6 401/3/6 407/3/6
f 404/4/6 405/4/6 410/4/6
f 405/4/6 403/4/6 410/4/6
f 410/4/6 403/4/6 411/4/6
f 398/5/6 399/5/6 412/5/6
f 399/5/6 397/5/6 413/5/6
f 412/5/6 399/5/6 413/5/6
f 414/5/6 415/5/6 418/5/6
f 418/5/6 415/5/6 419/5/6
f 408/4/6 409/4/6 420/4/6
f 404/4/6 410/4/6 421/4/6
f 416/5/6 417/5/6 422/5/6
f 422/5/6 417/5/6 423/5/6
f 419/5/6 415/5/6 424/5/6
f 424/5/6 415/5/6 425/5/6
f 420/4/6 409/4/6 426/4/6
f 426/4/6 409/4/6 427/4/6
f 404/4/6 421/4/6 428/4/6
f 428/4/6 421/4/6 429/4/6
f 430/6/6 431/6/6 433/6/6
f 431/1/6 432/1/6 434/1/6
f 433/6/6 431/6/6 434/6/6
f 434/1/6 432/1/6 435/1/6
f 436/2/6 437/2/6 440/2/6
f 440/2/6 437/2/6 441/2/6
f 441/2/6 437/2/6 442/2/6
f 438/4/6 439/4/6 443/4/6
f 443/4/6 439/4/6 444/4/6
f 445/1/6 446/1/6 448/1/6
f 447/1/6 448/1/6 449/1/6
f 448/1/6 446/1/6 450/1/6
f 449/1/6 448/1/6 450/1/6
f 450/1/6 446/1/6 451/1/6
f 451/1/6 446/1/6 452/1/6
f 453/4/6 454/4/6 457/4/6
f 457/4/6 454/4/6 458/4/6
f 455/5/6 456/5/6 461/5/6
f 461/5/6 456/5/6 462/5/6
f 462/5/6 456/5/6 463/5/6
f 459/4/6 460/4/6 464/4/6
f 464/4/6 460/4/6 465/4/6
f 466/4/6 467/4/6 472/4/6
f 467/5/6 468/5/6 473/5/6
f 472/4/6 467/4/6 473/4/6
f 473/5/6 468/5/6 474/5/6
f 469/2/6 470/2/6 475/2/6
f 470/4/6 471/4/6 476/4/6
f 475/2/6 470/2/6 476/2/6
f 476/4/6 471/4/6 477/4/6
f 478/4/6 479/4/6 482/4/6
f 482/4/6 479/4/6 483/4/6
f 480/4/6 481/4/6 484/4/6
f 484/4/6 481/4/6 485/4/6
f 486/4/6 487/4/6 488/4/6
f 488/4/6 487/4/6 489/4/6
