# MagicaVoxel @ Ephtracy

# group
o 

# material
mtllib drzewko-75.mtl
usemtl palette

# normals
vn -1 0 0
vn 1 0 0
vn 0 0 1
vn 0 0 -1
vn 0 -1 0
vn 0 1 0

# texcoords
vt 0.193359 0.5
vt 0.486328 0.5
vt 0.978516 0.5

# verts
v -39.2 0.8 10
v -39.2 0.8 9.8
v -39.2 0.8 9.1
v -39.2 0.8 8.9
v -39.2 0.9 10.1
v -39.2 0.9 10
v -39.2 0.9 9.8
v -39.2 0.9 9.2
v -39.2 0.9 9.1
v -39.2 0.9 9
v -39.2 0.9 8.9
v -39.2 1 9.1
v -39.2 1 9
v -39.2 1.2 10.1
v -39.2 1.2 10
v -39.2 1.2 9.9
v -39.2 1.3 10
v -39.2 1.3 9.9
v -39.2 1.3 9.2
v -39.2 1.4 9.8
v -39.2 1.4 9.7
v -39.2 1.4 9.6
v -39.2 1.4 9.4
v -39.2 1.5 9.7
v -39.2 1.5 9.6
v -39.2 1.5 9.5
v -39.2 1.5 9.4
v -39.2 1.5 9.3
v -39.2 1.6 9.9
v -39.2 1.6 9.8
v -39.2 1.6 9.5
v -39.2 1.6 9.4
v -39.2 1.6 9.3
v -39.2 1.6 9.2
v -39.2 1.7 9.8
v -39.2 1.7 9.5
v -39.2 1.7 9.2
v -39.2 1.7 9.1
v -39.2 1.7 9
v -39.2 1.8 9
v -39.2 1.8 8.9
v -39.2 1.8 8.8
v -39.2 1.8 8.7
v -39.2 1.9 9.1
v -39.2 1.9 9
v -39.2 1.9 8.9
v -39.2 1.9 8.8
v -39.2 2 9
v -39.2 2 8.9
v -39.2 2.1 8.9
v -39.2 2.1 8.7
v -37.5 0.8 10
v -37.5 0.8 9.8
v -37.5 0.8 9.1
v -37.5 0.8 8.9
v -37.5 0.9 10.1
v -37.5 0.9 10
v -37.5 0.9 9.8
v -37.5 0.9 9.2
v -37.5 0.9 9.1
v -37.5 0.9 9
v -37.5 0.9 8.9
v -37.5 1 9.1
v -37.5 1 9
v -37.5 1.2 10.1
v -37.5 1.2 10
v -37.5 1.2 9.9
v -37.5 1.2 9.3
v -37.5 1.2 9.2
v -37.5 1.3 10
v -37.5 1.3 9.9
v -37.5 1.3 9.7
v -37.5 1.3 9.6
v -37.5 1.3 9.4
v -37.5 1.3 9.3
v -37.5 1.3 9.2
v -37.5 1.4 9.9
v -37.5 1.4 9.8
v -37.5 1.4 9.7
v -37.5 1.4 9.6
v -37.5 1.4 9.4
v -37.5 1.5 9.7
v -37.5 1.5 9.6
v -37.5 1.5 9.5
v -37.5 1.5 9.4
v -37.5 1.5 9.3
v -37.5 1.5 9.2
v -37.5 1.5 9.1
v -37.5 1.6 9.9
v -37.5 1.6 9.8
v -37.5 1.6 9.5
v -37.5 1.6 9.4
v -37.5 1.6 9.3
v -37.5 1.6 9.2
v -37.5 1.7 9.8
v -37.5 1.7 9.5
v -37.5 1.8 9.1
v -37.5 1.8 9
v -37.5 1.8 8.8
v -37.5 1.8 8.7
v -37.5 1.9 9.1
v -37.5 1.9 9
v -37.5 1.9 8.9
v -37.5 1.9 8.8
v -37.5 2 9
v -37.5 2 8.9
v -37.5 2 8.8
v -37.5 2.1 8.9
v -37.5 2.1 8.7
v -39.1 0.8 10
v -39.1 0.8 9.8
v -39.1 0.8 9.1
v -39.1 0.8 8.9
v -39.1 0.9 10.1
v -39.1 0.9 10
v -39.1 0.9 9.8
v -39.1 0.9 9.2
v -39.1 0.9 9.1
v -39.1 0.9 9
v -39.1 0.9 8.9
v -39.1 1 9.1
v -39.1 1 9
v -39.1 1.2 10.1
v -39.1 1.2 10
v -39.1 1.2 9.9
v -39.1 1.3 10
v -39.1 1.3 9.9
v -39.1 1.3 9.7
v -39.1 1.3 9.6
v -39.1 1.3 9.4
v -39.1 1.3 9.3
v -39.1 1.3 9.2
v -39.1 1.4 9.9
v -39.1 1.4 9.8
v -39.1 1.4 9.7
v -39.1 1.4 9.6
v -39.1 1.4 9.4
v -39.1 1.4 9.3
v -39.1 1.4 9.2
v -39.1 1.5 9.7
v -39.1 1.5 9.6
v -39.1 1.5 9.5
v -39.1 1.5 9.4
v -39.1 1.5 9.3
v -39.1 1.5 9.2
v -39.1 1.5 9.1
v -39.1 1.6 9.9
v -39.1 1.6 9.8
v -39.1 1.6 9.5
v -39.1 1.6 9.4
v -39.1 1.6 9.3
v -39.1 1.6 9.2
v -39.1 1.7 9.8
v -39.1 1.7 9.5
v -39.1 1.8 9.1
v -39.1 1.8 9
v -39.1 1.8 8.8
v -39.1 1.8 8.7
v -39.1 1.9 9.1
v -39.1 1.9 9
v -39.1 1.9 8.9
v -39.1 1.9 8.8
v -39.1 2 9
v -39.1 2 8.9
v -39.1 2 8.8
v -39.1 2.1 8.9
v -39.1 2.1 8.7
v -37.4 0.8 10
v -37.4 0.8 9.8
v -37.4 0.8 9.1
v -37.4 0.8 8.9
v -37.4 0.9 10.1
v -37.4 0.9 10
v -37.4 0.9 9.8
v -37.4 0.9 9.2
v -37.4 0.9 9.1
v -37.4 0.9 9
v -37.4 0.9 8.9
v -37.4 1 9.1
v -37.4 1 9
v -37.4 1.2 10.1
v -37.4 1.2 10
v -37.4 1.2 9.9
v -37.4 1.2 9.3
v -37.4 1.2 9.2
v -37.4 1.3 10
v -37.4 1.3 9.9
v -37.4 1.3 9.3
v -37.4 1.4 9.8
v -37.4 1.4 9.7
v -37.4 1.4 9.6
v -37.4 1.4 9.4
v -37.4 1.5 9.7
v -37.4 1.5 9.6
v -37.4 1.5 9.5
v -37.4 1.5 9.4
v -37.4 1.5 9.3
v -37.4 1.6 9.9
v -37.4 1.6 9.8
v -37.4 1.6 9.5
v -37.4 1.6 9.4
v -37.4 1.6 9.3
v -37.4 1.6 9.2
v -37.4 1.7 9.8
v -37.4 1.7 9.5
v -37.4 1.7 9.2
v -37.4 1.7 9.1
v -37.4 1.7 9
v -37.4 1.8 9
v -37.4 1.8 8.9
v -37.4 1.8 8.8
v -37.4 1.8 8.7
v -37.4 1.9 9.1
v -37.4 1.9 9
v -37.4 1.9 8.9
v -37.4 1.9 8.8
v -37.4 2 9
v -37.4 2 8.9
v -37.4 2.1 8.9
v -37.4 2.1 8.7
v -39.2 0.9 10.1
v -39.2 1.2 10.1
v -39.1 0.9 10.1
v -39.1 1.2 10.1
v -37.5 0.9 10.1
v -37.5 1.2 10.1
v -37.4 0.9 10.1
v -37.4 1.2 10.1
v -39.2 0.8 10
v -39.2 0.9 10
v -39.2 1.2 10
v -39.2 1.3 10
v -39.1 0.8 10
v -39.1 0.9 10
v -39.1 1.2 10
v -39.1 1.3 10
v -37.5 0.8 10
v -37.5 0.9 10
v -37.5 1.2 10
v -37.5 1.3 10
v -37.4 0.8 10
v -37.4 0.9 10
v -37.4 1.2 10
v -37.4 1.3 10
v -39.2 1.3 9.9
v -39.2 1.6 9.9
v -39.1 1.3 9.9
v -39.1 1.4 9.9
v -39.1 1.6 9.9
v -39 1.3 9.9
v -39 1.4 9.9
v -38.7 1.3 9.9
v -38.7 1.4 9.9
v -38.1 1.3 9.9
v -38.1 1.4 9.9
v -38 1.3 9.9
v -38 1.4 9.9
v -37.9 1.3 9.9
v -37.9 1.4 9.9
v -37.6 1.3 9.9
v -37.6 1.4 9.9
v -37.5 1.3 9.9
v -37.5 1.4 9.9
v -37.5 1.6 9.9
v -37.4 1.3 9.9
v -37.4 1.6 9.9
v -39.2 1.6 9.8
v -39.2 1.7 9.8
v -39.1 1.6 9.8
v -39.1 1.7 9.8
v -37.5 1.6 9.8
v -37.5 1.7 9.8
v -37.4 1.6 9.8
v -37.4 1.7 9.8
v -39.2 1.4 9.7
v -39.2 1.5 9.7
v -39.1 1.4 9.7
v -39.1 1.5 9.7
v -37.5 1.4 9.7
v -37.5 1.5 9.7
v -37.4 1.4 9.7
v -37.4 1.5 9.7
v -39.1 1.3 9.6
v -39.1 1.4 9.6
v -37.9 1.3 9.6
v -37.9 1.4 9.6
v -37.8 1.3 9.6
v -37.8 1.4 9.6
v -37.5 1.3 9.6
v -37.5 1.4 9.6
v -39.2 1.5 9.5
v -39.2 1.6 9.5
v -39.1 1.5 9.5
v -39.1 1.6 9.5
v -37.5 1.5 9.5
v -37.5 1.6 9.5
v -37.4 1.5 9.5
v -37.4 1.6 9.5
v -39.2 1.4 9.4
v -39.2 1.5 9.4
v -39.1 1.4 9.4
v -39.1 1.5 9.4
v -37.5 1.4 9.4
v -37.5 1.5 9.4
v -37.4 1.4 9.4
v -37.4 1.5 9.4
v -39.2 1.5 9.3
v -39.2 1.6 9.3
v -39.1 1.3 9.3
v -39.1 1.4 9.3
v -39.1 1.5 9.3
v -39.1 1.6 9.3
v -38.7 1.4 9.3
v -38.7 1.5 9.3
v -38.4 1.3 9.3
v -38.4 1.4 9.3
v -37.9 1.4 9.3
v -37.9 1.5 9.3
v -37.8 1.3 9.3
v -37.8 1.4 9.3
v -37.7 1.3 9.3
v -37.7 1.4 9.3
v -37.5 1.2 9.3
v -37.5 1.3 9.3
v -37.5 1.5 9.3
v -37.5 1.6 9.3
v -37.4 1.2 9.3
v -37.4 1.3 9.3
v -37.4 1.5 9.3
v -37.4 1.6 9.3
v -39.2 0.9 9.2
v -39.2 1.3 9.2
v -39.2 1.6 9.2
v -39.2 1.7 9.2
v -39.1 0.9 9.2
v -39.1 1.3 9.2
v -39.1 1.5 9.2
v -39.1 1.6 9.2
v -39.1 1.7 9.2
v -38.7 1.5 9.2
v -38.6 1.5 9.2
v -38.6 1.6 9.2
v -38.5 1.5 9.2
v -38.5 1.7 9.2
v -37.9 1.5 9.2
v -37.5 0.9 9.2
v -37.5 1.2 9.2
v -37.5 1.5 9.2
v -37.5 1.6 9.2
v -37.5 1.7 9.2
v -37.4 0.9 9.2
v -37.4 1.2 9.2
v -37.4 1.6 9.2
v -37.4 1.7 9.2
v -39.2 0.8 9.1
v -39.2 0.9 9.1
v -39.2 1.7 9.1
v -39.2 1.9 9.1
v -39.1 0.8 9.1
v -39.1 0.9 9.1
v -39.1 1.7 9.1
v -39.1 1.8 9.1
v -39.1 1.9 9.1
v -38.5 1.7 9.1
v -38.4 1.7 9.1
v -38.4 1.8 9.1
v -37.9 1.7 9.1
v -37.9 1.8 9.1
v -37.5 0.8 9.1
v -37.5 0.9 9.1
v -37.5 1.7 9.1
v -37.5 1.8 9.1
v -37.5 1.9 9.1
v -37.4 0.8 9.1
v -37.4 0.9 9.1
v -37.4 1.7 9.1
v -37.4 1.9 9.1
v -39.2 1.9 9
v -39.2 2 9
v -39.1 1.8 9
v -39.1 1.9 9
v -39.1 2 9
v -38.5 1.8 9
v -38.5 1.9 9
v -38.4 1.8 9
v -38.3 1.8 9
v -38.3 1.9 9
v -38.1 1.8 9
v -38.1 1.9 9
v -37.9 1.8 9
v -37.7 1.8 9
v -37.7 1.9 9
v -37.5 1.8 9
v -37.5 1.9 9
v -37.5 2 9
v -37.4 1.9 9
v -37.4 2 9
v -39.2 2 8.9
v -39.2 2.1 8.9
v -39.1 1.9 8.9
v -39.1 2 8.9
v -39.1 2.1 8.9
v -38.5 1.9 8.9
v -38.3 1.9 8.9
v -38.1 1.9 8.9
v -37.7 1.9 8.9
v -37.5 1.9 8.9
v -37.5 2 8.9
v -37.5 2.1 8.9
v -37.4 2 8.9
v -37.4 2.1 8.9
v -39.2 1.8 8.8
v -39.2 1.9 8.8
v -39.1 1.8 8.8
v -39.1 1.9 8.8
v -37.5 1.8 8.8
v -37.5 1.9 8.8
v -37.4 1.8 8.8
v -37.4 1.9 8.8
v -39.2 0.9 10
v -39.2 1.2 10
v -39.1 0.9 10
v -39.1 1.2 10
v -37.5 0.9 10
v -37.5 1.2 10
v -37.4 0.9 10
v -37.4 1.2 10
v -39.2 1.2 9.9
v -39.2 1.3 9.9
v -39.1 1.2 9.9
v -39.1 1.3 9.9
v -37.5 1.2 9.9
v -37.5 1.3 9.9
v -37.4 1.2 9.9
v -37.4 1.3 9.9
v -39.2 0.8 9.8
v -39.2 0.9 9.8
v -39.2 1.4 9.8
v -39.2 1.6 9.8
v -39.1 0.8 9.8
v -39.1 0.9 9.8
v -39.1 1.4 9.8
v -39.1 1.6 9.8
v -37.5 0.8 9.8
v -37.5 0.9 9.8
v -37.5 1.4 9.8
v -37.5 1.6 9.8
v -37.4 0.8 9.8
v -37.4 0.9 9.8
v -37.4 1.4 9.8
v -37.4 1.6 9.8
v -39.1 1.3 9.7
v -39.1 1.4 9.7
v -38 1.3 9.7
v -38 1.4 9.7
v -37.9 1.3 9.7
v -37.9 1.4 9.7
v -37.5 1.3 9.7
v -37.5 1.4 9.7
v -39.2 1.4 9.6
v -39.2 1.5 9.6
v -39.1 1.4 9.6
v -39.1 1.5 9.6
v -37.5 1.4 9.6
v -37.5 1.5 9.6
v -37.4 1.4 9.6
v -37.4 1.5 9.6
v -39.2 1.6 9.5
v -39.2 1.7 9.5
v -39.1 1.6 9.5
v -39.1 1.7 9.5
v -37.5 1.6 9.5
v -37.5 1.7 9.5
v -37.4 1.6 9.5
v -37.4 1.7 9.5
v -39.2 1.5 9.4
v -39.2 1.6 9.4
v -39.1 1.3 9.4
v -39.1 1.4 9.4
v -39.1 1.5 9.4
v -39.1 1.6 9.4
v -37.5 1.3 9.4
v -37.5 1.4 9.4
v -37.5 1.5 9.4
v -37.5 1.6 9.4
v -37.4 1.5 9.4
v -37.4 1.6 9.4
v -39.1 1.3 9.2
v -39.1 1.4 9.2
v -39.1 1.5 9.2
v -38.7 1.4 9.2
v -38.7 1.5 9.2
v -38.6 1.5 9.2
v -38.5 1.5 9.2
v -38.4 1.3 9.2
v -38.4 1.4 9.2
v -37.9 1.4 9.2
v -37.9 1.5 9.2
v -37.8 1.3 9.2
v -37.8 1.4 9.2
v -37.7 1.3 9.2
v -37.7 1.4 9.2
v -37.5 1.3 9.2
v -37.5 1.5 9.2
v -39.2 1 9.1
v -39.2 1.7 9.1
v -39.1 1 9.1
v -39.1 1.5 9.1
v -39.1 1.6 9.1
v -39.1 1.7 9.1
v -38.6 1.5 9.1
v -38.6 1.6 9.1
v -38.5 1.5 9.1
v -38.5 1.7 9.1
v -38.4 1.7 9.1
v -37.9 1.7 9.1
v -37.5 1 9.1
v -37.5 1.5 9.1
v -37.5 1.7 9.1
v -37.4 1 9.1
v -37.4 1.7 9.1
v -39.2 0.9 9
v -39.2 1 9
v -39.2 1.7 9
v -39.2 1.8 9
v -39.1 0.9 9
v -39.1 1 9
v -39.1 1.7 9
v -39.1 1.8 9
v -38.5 1.8 9
v -38.4 1.7 9
v -38.4 1.8 9
v -38.3 1.8 9
v -38.1 1.8 9
v -37.9 1.7 9
v -37.9 1.8 9
v -37.7 1.8 9
v -37.5 0.9 9
v -37.5 1 9
v -37.5 1.7 9
v -37.5 1.8 9
v -37.4 0.9 9
v -37.4 1 9
v -37.4 1.7 9
v -37.4 1.8 9
v -39.2 0.8 8.9
v -39.2 0.9 8.9
v -39.2 1.8 8.9
v -39.2 1.9 8.9
v -39.1 0.8 8.9
v -39.1 0.9 8.9
v -39.1 1.8 8.9
v -39.1 1.9 8.9
v -38.5 1.8 8.9
v -38.5 1.9 8.9
v -38.3 1.8 8.9
v -38.3 1.9 8.9
v -38.1 1.8 8.9
v -38.1 1.9 8.9
v -37.7 1.8 8.9
v -37.7 1.9 8.9
v -37.5 0.8 8.9
v -37.5 0.9 8.9
v -37.5 1.8 8.9
v -37.5 1.9 8.9
v -37.4 0.8 8.9
v -37.4 0.9 8.9
v -37.4 1.8 8.9
v -37.4 1.9 8.9
v -39.1 1.9 8.8
v -39.1 2 8.8
v -37.5 1.9 8.8
v -37.5 2 8.8
v -39.2 1.8 8.7
v -39.2 2.1 8.7
v -39.1 1.8 8.7
v -39.1 2.1 8.7
v -37.5 1.8 8.7
v -37.5 2.1 8.7
v -37.4 1.8 8.7
v -37.4 2.1 8.7
v -39.2 0.8 10
v -39.1 0.8 10
v -37.5 0.8 10
v -37.4 0.8 10
v -39.2 0.8 9.8
v -39.1 0.8 9.8
v -37.5 0.8 9.8
v -37.4 0.8 9.8
v -39.2 0.8 9.1
v -39.1 0.8 9.1
v -37.5 0.8 9.1
v -37.4 0.8 9.1
v -39.2 0.8 8.9
v -39.1 0.8 8.9
v -37.5 0.8 8.9
v -37.4 0.8 8.9
v -39.2 0.9 10.1
v -39.1 0.9 10.1
v -37.5 0.9 10.1
v -37.4 0.9 10.1
v -39.2 0.9 10
v -39.1 0.9 10
v -37.5 0.9 10
v -37.4 0.9 10
v -39.2 0.9 9.2
v -39.1 0.9 9.2
v -37.5 0.9 9.2
v -37.4 0.9 9.2
v -39.2 0.9 9.1
v -39.1 0.9 9.1
v -37.5 0.9 9.1
v -37.4 0.9 9.1
v -39.2 1.2 10
v -39.1 1.2 10
v -37.5 1.2 10
v -37.4 1.2 10
v -39.2 1.2 9.9
v -39.1 1.2 9.9
v -37.5 1.2 9.9
v -37.4 1.2 9.9
v -37.5 1.2 9.3
v -37.4 1.2 9.3
v -37.5 1.2 9.2
v -37.4 1.2 9.2
v -39.2 1.3 9.9
v -39.1 1.3 9.9
v -39 1.3 9.9
v -38.7 1.3 9.9
v -38.1 1.3 9.9
v -38 1.3 9.9
v -37.9 1.3 9.9
v -37.6 1.3 9.9
v -37.5 1.3 9.9
v -37.4 1.3 9.9
v -39 1.3 9.8
v -38.7 1.3 9.8
v -38.1 1.3 9.8
v -38 1.3 9.8
v -37.9 1.3 9.8
v -37.6 1.3 9.8
v -39.1 1.3 9.7
v -38 1.3 9.7
v -37.9 1.3 9.7
v -37.5 1.3 9.7
v -39.1 1.3 9.6
v -37.9 1.3 9.6
v -37.8 1.3 9.6
v -37.5 1.3 9.6
v -37.9 1.3 9.5
v -37.8 1.3 9.5
v -39.1 1.3 9.4
v -37.5 1.3 9.4
v -39.1 1.3 9.3
v -38.4 1.3 9.3
v -37.8 1.3 9.3
v -37.7 1.3 9.3
v -37.5 1.3 9.3
v -37.4 1.3 9.3
v -39.2 1.3 9.2
v -39.1 1.3 9.2
v -38.4 1.3 9.2
v -37.8 1.3 9.2
v -37.7 1.3 9.2
v -37.5 1.3 9.2
v -39.2 1.5 9.5
v -39.1 1.5 9.5
v -37.5 1.5 9.5
v -37.4 1.5 9.5
v -39.2 1.5 9.4
v -39.1 1.5 9.4
v -37.5 1.5 9.4
v -37.4 1.5 9.4
v -39.1 1.5 9.2
v -38.7 1.5 9.2
v -38.6 1.5 9.2
v -38.5 1.5 9.2
v -37.9 1.5 9.2
v -37.5 1.5 9.2
v -39.1 1.5 9.1
v -38.6 1.5 9.1
v -38.5 1.5 9.1
v -37.5 1.5 9.1
v -39.2 1.6 9.8
v -39.1 1.6 9.8
v -37.5 1.6 9.8
v -37.4 1.6 9.8
v -39.2 1.6 9.5
v -39.1 1.6 9.5
v -37.5 1.6 9.5
v -37.4 1.6 9.5
v -39.2 1.7 9.1
v -39.1 1.7 9.1
v -38.5 1.7 9.1
v -38.4 1.7 9.1
v -37.9 1.7 9.1
v -37.5 1.7 9.1
v -37.4 1.7 9.1
v -39.2 1.7 9
v -39.1 1.7 9
v -38.4 1.7 9
v -37.9 1.7 9
v -37.5 1.7 9
v -37.4 1.7 9
v -39.2 1.8 9
v -39.1 1.8 9
v -38.5 1.8 9
v -38.4 1.8 9
v -38.3 1.8 9
v -38.1 1.8 9
v -37.9 1.8 9
v -37.7 1.8 9
v -37.5 1.8 9
v -37.4 1.8 9
v -39.2 1.8 8.9
v -39.1 1.8 8.9
v -38.5 1.8 8.9
v -38.3 1.8 8.9
v -38.1 1.8 8.9
v -37.7 1.8 8.9
v -37.5 1.8 8.9
v -37.4 1.8 8.9
v -39.2 1.8 8.8
v -39.1 1.8 8.8
v -37.5 1.8 8.8
v -37.4 1.8 8.8
v -39.2 1.8 8.7
v -39.1 1.8 8.7
v -37.5 1.8 8.7
v -37.4 1.8 8.7
v -39.2 1.9 8.9
v -39.1 1.9 8.9
v -38.5 1.9 8.9
v -38.3 1.9 8.9
v -38.1 1.9 8.9
v -37.7 1.9 8.9
v -37.5 1.9 8.9
v -37.4 1.9 8.9
v -39.2 1.9 8.8
v -39.1 1.9 8.8
v -37.5 1.9 8.8
v -37.4 1.9 8.8
v -39.2 0.9 10
v -39.1 0.9 10
v -37.5 0.9 10
v -37.4 0.9 10
v -39.2 0.9 9.8
v -39.1 0.9 9.8
v -37.5 0.9 9.8
v -37.4 0.9 9.8
v -39.2 0.9 9
v -39.1 0.9 9
v -37.5 0.9 9
v -37.4 0.9 9
v -39.2 0.9 8.9
v -39.1 0.9 8.9
v -37.5 0.9 8.9
v -37.4 0.9 8.9
v -39.2 1 9.1
v -39.1 1 9.1
v -37.5 1 9.1
v -37.4 1 9.1
v -39.2 1 9
v -39.1 1 9
v -37.5 1 9
v -37.4 1 9
v -39.2 1.2 10.1
v -39.1 1.2 10.1
v -37.5 1.2 10.1
v -37.4 1.2 10.1
v -39.2 1.2 10
v -39.1 1.2 10
v -37.5 1.2 10
v -37.4 1.2 10
v -39.2 1.3 10
v -39.1 1.3 10
v -37.5 1.3 10
v -37.4 1.3 10
v -39.2 1.3 9.9
v -39.1 1.3 9.9
v -37.5 1.3 9.9
v -37.4 1.3 9.9
v -39.1 1.4 9.9
v -39 1.4 9.9
v -38.7 1.4 9.9
v -38.1 1.4 9.9
v -38 1.4 9.9
v -37.9 1.4 9.9
v -37.6 1.4 9.9
v -37.5 1.4 9.9
v -39.2 1.4 9.8
v -39.1 1.4 9.8
v -39 1.4 9.8
v -38.7 1.4 9.8
v -38.1 1.4 9.8
v -38 1.4 9.8
v -37.9 1.4 9.8
v -37.6 1.4 9.8
v -37.5 1.4 9.8
v -37.4 1.4 9.8
v -39.2 1.4 9.7
v -39.1 1.4 9.7
v -38 1.4 9.7
v -37.9 1.4 9.7
v -37.5 1.4 9.7
v -37.4 1.4 9.7
v -39.2 1.4 9.6
v -39.1 1.4 9.6
v -37.9 1.4 9.6
v -37.8 1.4 9.6
v -37.5 1.4 9.6
v -37.4 1.4 9.6
v -37.9 1.4 9.5
v -37.8 1.4 9.5
v -39.2 1.4 9.4
v -39.1 1.4 9.4
v -37.5 1.4 9.4
v -37.4 1.4 9.4
v -39.2 1.5 9.7
v -39.1 1.5 9.7
v -37.5 1.5 9.7
v -37.4 1.5 9.7
v -39.2 1.5 9.6
v -39.1 1.5 9.6
v -37.5 1.5 9.6
v -37.4 1.5 9.6
v -39.2 1.5 9.4
v -39.1 1.5 9.4
v -37.5 1.5 9.4
v -37.4 1.5 9.4
v -39.2 1.5 9.3
v -39.1 1.5 9.3
v -38.7 1.5 9.3
v -37.9 1.5 9.3
v -37.5 1.5 9.3
v -37.4 1.5 9.3
v -39.1 1.5 9.2
v -38.7 1.5 9.2
v -38.6 1.5 9.2
v -38.5 1.5 9.2
v -37.9 1.5 9.2
v -37.5 1.5 9.2
v -39.2 1.6 9.9
v -39.1 1.6 9.9
v -37.5 1.6 9.9
v -37.4 1.6 9.9
v -39.2 1.6 9.8
v -39.1 1.6 9.8
v -37.5 1.6 9.8
v -37.4 1.6 9.8
v -39.2 1.6 9.5
v -39.1 1.6 9.5
v -37.5 1.6 9.5
v -37.4 1.6 9.5
v -39.2 1.6 9.4
v -39.1 1.6 9.4
v -37.5 1.6 9.4
v -37.4 1.6 9.4
v -39.2 1.6 9.3
v -39.1 1.6 9.3
v -37.5 1.6 9.3
v -37.4 1.6 9.3
v -39.2 1.6 9.2
v -39.1 1.6 9.2
v -37.5 1.6 9.2
v -37.4 1.6 9.2
v -39.2 1.7 9.8
v -39.1 1.7 9.8
v -37.5 1.7 9.8
v -37.4 1.7 9.8
v -39.2 1.7 9.5
v -39.1 1.7 9.5
v -37.5 1.7 9.5
v -37.4 1.7 9.5
v -39.2 1.7 9.2
v -39.1 1.7 9.2
v -38.5 1.7 9.2
v -37.5 1.7 9.2
v -37.4 1.7 9.2
v -39.2 1.7 9.1
v -39.1 1.7 9.1
v -38.5 1.7 9.1
v -38.4 1.7 9.1
v -37.9 1.7 9.1
v -37.5 1.7 9.1
v -37.4 1.7 9.1
v -39.1 1.8 9.1
v -38.4 1.8 9.1
v -37.9 1.8 9.1
v -37.5 1.8 9.1
v -39.1 1.8 9
v -38.5 1.8 9
v -38.4 1.8 9
v -38.3 1.8 9
v -38.1 1.8 9
v -37.9 1.8 9
v -37.7 1.8 9
v -37.5 1.8 9
v -39.2 1.9 9.1
v -39.1 1.9 9.1
v -37.5 1.9 9.1
v -37.4 1.9 9.1
v -39.2 1.9 9
v -39.1 1.9 9
v -38.5 1.9 9
v -38.3 1.9 9
v -38.1 1.9 9
v -37.7 1.9 9
v -37.5 1.9 9
v -37.4 1.9 9
v -39.1 1.9 8.9
v -38.5 1.9 8.9
v -38.3 1.9 8.9
v -38.1 1.9 8.9
v -37.7 1.9 8.9
v -37.5 1.9 8.9
v -39.2 2 9
v -39.1 2 9
v -37.5 2 9
v -37.4 2 9
v -39.2 2 8.9
v -39.1 2 8.9
v -37.5 2 8.9
v -37.4 2 8.9
v -39.1 2 8.8
v -37.5 2 8.8
v -39.2 2.1 8.9
v -39.1 2.1 8.9
v -37.5 2.1 8.9
v -37.4 2.1 8.9
v -39.2 2.1 8.7
v -39.1 2.1 8.7
v -37.5 2.1 8.7
v -37.4 2.1 8.7

# faces
f 6/3/1 2/3/1 1/3/1
f 7/3/1 2/3/1 6/3/1
f 9/3/1 4/3/1 3/3/1
f 10/3/1 4/3/1 9/3/1
f 11/3/1 4/3/1 10/3/1
f 12/3/1 9/3/1 8/3/1
f 12/3/1 10/3/1 9/3/1
f 13/3/1 10/3/1 12/3/1
f 14/3/1 6/3/1 5/3/1
f 15/3/1 6/3/1 14/3/1
f 17/3/1 16/3/1 15/3/1
f 18/3/1 16/3/1 17/3/1
f 19/3/1 12/3/1 8/3/1
f 20/3/1 19/3/1 18/3/1
f 21/3/1 19/3/1 20/3/1
f 22/3/1 19/3/1 21/3/1
f 23/3/1 19/3/1 22/3/1
f 24/3/1 22/3/1 21/3/1
f 25/3/1 22/3/1 24/3/1
f 27/3/1 19/3/1 23/3/1
f 28/3/1 19/3/1 27/3/1
f 29/3/1 20/3/1 18/3/1
f 30/3/1 20/3/1 29/3/1
f 31/3/1 27/3/1 26/3/1
f 32/3/1 27/3/1 31/3/1
f 33/3/1 19/3/1 28/3/1
f 34/3/1 12/3/1 19/3/1
f 34/3/1 19/3/1 33/3/1
f 35/3/1 31/3/1 30/3/1
f 36/3/1 31/3/1 35/3/1
f 37/3/1 12/3/1 34/3/1
f 38/3/1 12/3/1 37/3/1
f 40/3/1 39/3/1 38/3/1
f 44/3/1 41/3/1 40/3/1
f 44/3/1 40/3/1 38/3/1
f 45/3/1 41/3/1 44/3/1
f 46/3/1 41/3/1 45/3/1
f 47/3/1 43/3/1 42/3/1
f 48/3/1 46/3/1 45/3/1
f 48/3/1 47/3/1 46/3/1
f 49/3/1 47/3/1 48/3/1
f 50/3/1 47/3/1 49/3/1
f 51/3/1 43/3/1 47/3/1
f 51/3/1 47/3/1 50/3/1
f 57/3/1 53/3/1 52/3/1
f 58/3/1 53/3/1 57/3/1
f 60/3/1 55/3/1 54/3/1
f 61/3/1 55/3/1 60/3/1
f 62/3/1 55/3/1 61/3/1
f 63/3/1 60/3/1 59/3/1
f 63/3/1 61/3/1 60/3/1
f 64/3/1 61/3/1 63/3/1
f 65/3/1 57/3/1 56/3/1
f 66/3/1 57/3/1 65/3/1
f 69/3/1 63/3/1 59/3/1
f 70/3/1 67/3/1 66/3/1
f 71/3/1 67/3/1 70/3/1
f 75/3/1 69/3/1 68/3/1
f 76/3/1 63/3/1 69/3/1
f 76/3/1 69/3/1 75/3/1
f 79/3/1 73/3/1 72/3/1
f 80/3/1 73/3/1 79/3/1
f 81/3/1 75/3/1 74/3/1
f 82/3/1 80/3/1 79/3/1
f 83/3/1 80/3/1 82/3/1
f 85/3/1 75/3/1 81/3/1
f 86/3/1 75/3/1 85/3/1
f 87/3/1 63/3/1 76/3/1
f 88/3/1 63/3/1 87/3/1
f 89/3/1 78/3/1 77/3/1
f 90/3/1 78/3/1 89/3/1
f 91/3/1 85/3/1 84/3/1
f 92/3/1 85/3/1 91/3/1
f 93/3/1 87/3/1 86/3/1
f 94/3/1 87/3/1 93/3/1
f 95/3/1 91/3/1 90/3/1
f 96/3/1 91/3/1 95/3/1
f 101/3/1 98/3/1 97/3/1
f 102/3/1 98/3/1 101/3/1
f 104/3/1 100/3/1 99/3/1
f 105/3/1 103/3/1 102/3/1
f 106/3/1 103/3/1 105/3/1
f 107/3/1 100/3/1 104/3/1
f 108/3/1 107/3/1 106/3/1
f 109/3/1 100/3/1 107/3/1
f 109/3/1 107/3/1 108/3/1
f 110/3/2 111/3/2 115/3/2
f 115/3/2 111/3/2 116/3/2
f 112/3/2 113/3/2 118/3/2
f 118/3/2 113/3/2 119/3/2
f 119/3/2 113/3/2 120/3/2
f 117/3/2 118/3/2 121/3/2
f 118/3/2 119/3/2 121/3/2
f 121/3/2 119/3/2 122/3/2
f 114/3/2 115/3/2 123/3/2
f 123/3/2 115/3/2 124/3/2
f 124/3/2 125/3/2 126/3/2
f 126/3/2 125/3/2 127/3/2
f 117/3/2 121/3/2 132/3/2
f 128/3/2 129/3/2 135/3/2
f 135/3/2 129/3/2 136/3/2
f 130/3/2 131/3/2 137/3/2
f 137/3/2 131/3/2 138/3/2
f 132/3/2 121/3/2 139/3/2
f 135/3/2 136/3/2 140/3/2
f 140/3/2 136/3/2 141/3/2
f 137/3/2 138/3/2 143/3/2
f 143/3/2 138/3/2 144/3/2
f 139/3/2 121/3/2 145/3/2
f 145/3/2 121/3/2 146/3/2
f 133/3/2 134/3/2 147/3/2
f 147/3/2 134/3/2 148/3/2
f 142/3/2 143/3/2 149/3/2
f 149/3/2 143/3/2 150/3/2
f 144/3/2 145/3/2 151/3/2
f 151/3/2 145/3/2 152/3/2
f 148/3/2 149/3/2 153/3/2
f 153/3/2 149/3/2 154/3/2
f 155/3/2 156/3/2 159/3/2
f 159/3/2 156/3/2 160/3/2
f 157/3/2 158/3/2 162/3/2
f 160/3/2 161/3/2 163/3/2
f 163/3/2 161/3/2 164/3/2
f 162/3/2 158/3/2 165/3/2
f 164/3/2 165/3/2 166/3/2
f 165/3/2 158/3/2 167/3/2
f 166/3/2 165/3/2 167/3/2
f 168/3/2 169/3/2 173/3/2
f 173/3/2 169/3/2 174/3/2
f 170/3/2 171/3/2 176/3/2
f 176/3/2 171/3/2 177/3/2
f 177/3/2 171/3/2 178/3/2
f 175/3/2 176/3/2 179/3/2
f 176/3/2 177/3/2 179/3/2
f 179/3/2 177/3/2 180/3/2
f 172/3/2 173/3/2 181/3/2
f 181/3/2 173/3/2 182/3/2
f 175/3/2 179/3/2 185/3/2
f 182/3/2 183/3/2 186/3/2
f 186/3/2 183/3/2 187/3/2
f 184/3/2 185/3/2 188/3/2
f 187/3/2 188/3/2 189/3/2
f 189/3/2 188/3/2 190/3/2
f 190/3/2 188/3/2 191/3/2
f 191/3/2 188/3/2 192/3/2
f 190/3/2 191/3/2 193/3/2
f 193/3/2 191/3/2 194/3/2
f 192/3/2 188/3/2 196/3/2
f 188/3/2 185/3/2 197/3/2
f 196/3/2 188/3/2 197/3/2
f 187/3/2 189/3/2 198/3/2
f 198/3/2 189/3/2 199/3/2
f 195/3/2 196/3/2 200/3/2
f 200/3/2 196/3/2 201/3/2
f 197/3/2 185/3/2 202/3/2
f 185/3/2 179/3/2 203/3/2
f 202/3/2 185/3/2 203/3/2
f 199/3/2 200/3/2 204/3/2
f 204/3/2 200/3/2 205/3/2
f 203/3/2 179/3/2 206/3/2
f 206/3/2 179/3/2 207/3/2
f 207/3/2 208/3/2 209/3/2
f 209/3/2 210/3/2 213/3/2
f 207/3/2 209/3/2 213/3/2
f 213/3/2 210/3/2 214/3/2
f 214/3/2 210/3/2 215/3/2
f 211/3/2 212/3/2 216/3/2
f 214/3/2 215/3/2 217/3/2
f 215/3/2 216/3/2 217/3/2
f 217/3/2 216/3/2 218/3/2
f 218/3/2 216/3/2 219/3/2
f 216/3/2 212/3/2 220/3/2
f 219/3/2 216/3/2 220/3/2
f 223/3/3 222/3/3 221/3/3
f 224/3/3 222/3/3 223/3/3
f 227/3/3 226/3/3 225/3/3
f 228/3/3 226/3/3 227/3/3
f 233/3/3 230/3/3 229/3/3
f 234/3/3 230/3/3 233/3/3
f 235/3/3 232/3/3 231/3/3
f 236/3/3 232/3/3 235/3/3
f 241/3/3 238/3/3 237/3/3
f 242/3/3 238/3/3 241/3/3
f 243/3/3 240/3/3 239/3/3
f 244/3/3 240/3/3 243/3/3
f 247/3/3 246/3/3 245/3/3
f 248/3/3 246/3/3 247/3/3
f 249/3/3 246/3/3 248/3/3
f 250/1/3 248/1/3 247/1/3
f 251/1/3 248/1/3 250/1/3
f 252/2/3 251/2/3 250/2/3
f 253/2/3 251/2/3 252/2/3
f 254/1/3 253/1/3 252/1/3
f 255/1/3 253/1/3 254/1/3
f 256/2/3 255/2/3 254/2/3
f 257/2/3 255/2/3 256/2/3
f 258/1/3 257/1/3 256/1/3
f 259/1/3 257/1/3 258/1/3
f 260/2/3 259/2/3 258/2/3
f 261/2/3 259/2/3 260/2/3
f 262/1/3 261/1/3 260/1/3
f 263/1/3 261/1/3 262/1/3
f 265/3/3 263/3/3 262/3/3
f 265/3/3 264/3/3 263/3/3
f 266/3/3 264/3/3 265/3/3
f 269/3/3 268/3/3 267/3/3
f 270/3/3 268/3/3 269/3/3
f 273/3/3 272/3/3 271/3/3
f 274/3/3 272/3/3 273/3/3
f 277/3/3 276/3/3 275/3/3
f 278/3/3 276/3/3 277/3/3
f 281/3/3 280/3/3 279/3/3
f 282/3/3 280/3/3 281/3/3
f 285/1/3 284/1/3 283/1/3
f 286/1/3 284/1/3 285/1/3
f 287/2/3 286/2/3 285/2/3
f 288/2/3 286/2/3 287/2/3
f 289/1/3 288/1/3 287/1/3
f 290/1/3 288/1/3 289/1/3
f 293/3/3 292/3/3 291/3/3
f 294/3/3 292/3/3 293/3/3
f 297/3/3 296/3/3 295/3/3
f 298/3/3 296/3/3 297/3/3
f 301/3/3 300/3/3 299/3/3
f 302/3/3 300/3/3 301/3/3
f 305/3/3 304/3/3 303/3/3
f 306/3/3 304/3/3 305/3/3
f 311/3/3 308/3/3 307/3/3
f 312/3/3 308/3/3 311/3/3
f 313/2/3 310/2/3 309/2/3
f 313/1/3 311/1/3 310/1/3
f 314/1/3 311/1/3 313/1/3
f 315/2/3 313/2/3 309/2/3
f 315/2/3 314/2/3 313/2/3
f 316/2/3 314/2/3 315/2/3
f 317/1/3 316/1/3 315/1/3
f 317/2/3 314/2/3 316/2/3
f 318/2/3 314/2/3 317/2/3
f 319/1/3 317/1/3 315/1/3
f 319/1/3 318/1/3 317/1/3
f 320/1/3 318/1/3 319/1/3
f 321/2/3 320/2/3 319/2/3
f 322/1/3 318/1/3 320/1/3
f 322/2/3 320/2/3 321/2/3
f 324/1/3 322/1/3 321/1/3
f 325/1/3 318/1/3 322/1/3
f 325/1/3 322/1/3 324/1/3
f 327/3/3 324/3/3 323/3/3
f 328/3/3 324/3/3 327/3/3
f 329/3/3 326/3/3 325/3/3
f 330/3/3 326/3/3 329/3/3
f 335/3/3 332/3/3 331/3/3
f 336/3/3 332/3/3 335/3/3
f 338/3/3 334/3/3 333/3/3
f 339/3/3 334/3/3 338/3/3
f 340/1/3 338/1/3 337/1/3
f 341/1/3 338/1/3 340/1/3
f 342/2/3 339/2/3 338/2/3
f 342/1/3 338/1/3 341/1/3
f 343/2/3 342/2/3 341/2/3
f 344/2/3 339/2/3 342/2/3
f 344/2/3 342/2/3 343/2/3
f 345/1/3 344/1/3 343/1/3
f 348/1/3 344/1/3 345/1/3
f 349/1/3 344/1/3 348/1/3
f 350/1/3 344/1/3 349/1/3
f 351/3/3 347/3/3 346/3/3
f 352/3/3 347/3/3 351/3/3
f 353/3/3 350/3/3 349/3/3
f 354/3/3 350/3/3 353/3/3
f 359/3/3 356/3/3 355/3/3
f 360/3/3 356/3/3 359/3/3
f 361/3/3 358/3/3 357/3/3
f 362/3/3 358/3/3 361/3/3
f 363/3/3 358/3/3 362/3/3
f 364/1/3 362/1/3 361/1/3
f 365/1/3 362/1/3 364/1/3
f 366/1/3 362/1/3 365/1/3
f 367/2/3 366/2/3 365/2/3
f 368/2/3 366/2/3 367/2/3
f 371/1/3 368/1/3 367/1/3
f 372/1/3 368/1/3 371/1/3
f 374/3/3 370/3/3 369/3/3
f 375/3/3 370/3/3 374/3/3
f 376/3/3 372/3/3 371/3/3
f 376/3/3 373/3/3 372/3/3
f 377/3/3 373/3/3 376/3/3
f 381/3/3 379/3/3 378/3/3
f 382/3/3 379/3/3 381/3/3
f 383/1/3 381/1/3 380/1/3
f 384/1/3 381/1/3 383/1/3
f 385/2/3 384/2/3 383/2/3
f 386/2/3 384/2/3 385/2/3
f 387/2/3 384/2/3 386/2/3
f 388/1/3 387/1/3 386/1/3
f 389/1/3 387/1/3 388/1/3
f 390/2/3 389/2/3 388/2/3
f 391/2/3 389/2/3 390/2/3
f 392/2/3 389/2/3 391/2/3
f 393/1/3 392/1/3 391/1/3
f 394/1/3 392/1/3 393/1/3
f 396/3/3 395/3/3 394/3/3
f 397/3/3 395/3/3 396/3/3
f 401/3/3 399/3/3 398/3/3
f 402/3/3 399/3/3 401/3/3
f 403/1/3 401/1/3 400/1/3
f 404/1/3 401/1/3 403/1/3
f 405/1/3 401/1/3 404/1/3
f 406/1/3 401/1/3 405/1/3
f 407/1/3 401/1/3 406/1/3
f 408/1/3 401/1/3 407/1/3
f 410/3/3 409/3/3 408/3/3
f 411/3/3 409/3/3 410/3/3
f 414/3/3 413/3/3 412/3/3
f 415/3/3 413/3/3 414/3/3
f 418/3/3 417/3/3 416/3/3
f 419/3/3 417/3/3 418/3/3
f 420/3/4 421/3/4 422/3/4
f 422/3/4 421/3/4 423/3/4
f 424/3/4 425/3/4 426/3/4
f 426/3/4 425/3/4 427/3/4
f 428/3/4 429/3/4 430/3/4
f 430/3/4 429/3/4 431/3/4
f 432/3/4 433/3/4 434/3/4
f 434/3/4 433/3/4 435/3/4
f 436/3/4 437/3/4 440/3/4
f 440/3/4 437/3/4 441/3/4
f 438/3/4 439/3/4 442/3/4
f 442/3/4 439/3/4 443/3/4
f 444/3/4 445/3/4 448/3/4
f 448/3/4 445/3/4 449/3/4
f 446/3/4 447/3/4 450/3/4
f 450/3/4 447/3/4 451/3/4
f 452/1/4 453/1/4 454/1/4
f 454/1/4 453/1/4 455/1/4
f 454/2/4 455/2/4 456/2/4
f 456/2/4 455/2/4 457/2/4
f 456/1/4 457/1/4 458/1/4
f 458/1/4 457/1/4 459/1/4
f 460/3/4 461/3/4 462/3/4
f 462/3/4 461/3/4 463/3/4
f 464/3/4 465/3/4 466/3/4
f 466/3/4 465/3/4 467/3/4
f 468/3/4 469/3/4 470/3/4
f 470/3/4 469/3/4 471/3/4
f 472/3/4 473/3/4 474/3/4
f 474/3/4 473/3/4 475/3/4
f 476/3/4 477/3/4 480/3/4
f 480/3/4 477/3/4 481/3/4
f 478/1/4 479/1/4 482/1/4
f 482/1/4 479/1/4 483/1/4
f 484/3/4 485/3/4 486/3/4
f 486/3/4 485/3/4 487/3/4
f 488/2/4 489/2/4 491/2/4
f 489/1/4 490/1/4 491/1/4
f 491/1/4 490/1/4 492/1/4
f 491/2/4 492/2/4 493/2/4
f 491/2/4 493/2/4 494/2/4
f 488/2/4 491/2/4 495/2/4
f 491/2/4 494/2/4 495/2/4
f 495/2/4 494/2/4 496/2/4
f 495/1/4 496/1/4 497/1/4
f 496/2/4 494/2/4 497/2/4
f 497/2/4 494/2/4 498/2/4
f 495/1/4 497/1/4 499/1/4
f 497/1/4 498/1/4 499/1/4
f 499/1/4 498/1/4 500/1/4
f 499/2/4 500/2/4 501/2/4
f 500/1/4 498/1/4 502/1/4
f 501/2/4 500/2/4 502/2/4
f 501/1/4 502/1/4 503/1/4
f 502/1/4 498/1/4 504/1/4
f 503/1/4 502/1/4 504/1/4
f 505/3/4 506/3/4 507/3/4
f 507/3/4 506/3/4 508/3/4
f 508/3/4 506/3/4 509/3/4
f 509/3/4 506/3/4 510/3/4
f 508/1/4 509/1/4 511/1/4
f 509/2/4 510/2/4 512/2/4
f 511/1/4 509/1/4 512/1/4
f 511/2/4 512/2/4 513/2/4
f 512/2/4 510/2/4 514/2/4
f 513/2/4 512/2/4 514/2/4
f 513/1/4 514/1/4 515/1/4
f 513/1/4 515/1/4 516/1/4
f 513/1/4 516/1/4 518/1/4
f 518/1/4 516/1/4 519/1/4
f 517/3/4 518/3/4 520/3/4
f 518/3/4 519/3/4 520/3/4
f 520/3/4 519/3/4 521/3/4
f 522/3/4 523/3/4 526/3/4
f 526/3/4 523/3/4 527/3/4
f 524/3/4 525/3/4 528/3/4
f 528/3/4 525/3/4 529/3/4
f 528/1/4 529/1/4 530/1/4
f 528/1/4 530/1/4 531/1/4
f 531/1/4 530/1/4 532/1/4
f 531/2/4 532/2/4 533/2/4
f 531/2/4 533/2/4 534/2/4
f 531/2/4 534/2/4 535/2/4
f 535/2/4 534/2/4 536/2/4
f 535/1/4 536/1/4 537/1/4
f 535/1/4 537/1/4 540/1/4
f 540/1/4 537/1/4 541/1/4
f 538/3/4 539/3/4 542/3/4
f 542/3/4 539/3/4 543/3/4
f 540/3/4 541/3/4 544/3/4
f 544/3/4 541/3/4 545/3/4
f 546/3/4 547/3/4 550/3/4
f 550/3/4 547/3/4 551/3/4
f 548/3/4 549/3/4 552/3/4
f 552/3/4 549/3/4 553/3/4
f 552/1/4 553/1/4 554/1/4
f 554/1/4 553/1/4 555/1/4
f 554/2/4 555/2/4 556/2/4
f 556/2/4 555/2/4 557/2/4
f 556/1/4 557/1/4 558/1/4
f 558/1/4 557/1/4 559/1/4
f 558/2/4 559/2/4 560/2/4
f 560/2/4 559/2/4 561/2/4
f 560/1/4 561/1/4 564/1/4
f 564/1/4 561/1/4 565/1/4
f 562/3/4 563/3/4 566/3/4
f 566/3/4 563/3/4 567/3/4
f 564/3/4 565/3/4 568/3/4
f 568/3/4 565/3/4 569/3/4
f 570/1/4 571/1/4 572/1/4
f 572/1/4 571/1/4 573/1/4
f 574/3/4 575/3/4 576/3/4
f 576/3/4 575/3/4 577/3/4
f 578/3/4 579/3/4 580/3/4
f 580/3/4 579/3/4 581/3/4
f 586/3/5 583/3/5 582/3/5
f 587/3/5 583/3/5 586/3/5
f 588/3/5 585/3/5 584/3/5
f 589/3/5 585/3/5 588/3/5
f 594/3/5 591/3/5 590/3/5
f 595/3/5 591/3/5 594/3/5
f 596/3/5 593/3/5 592/3/5
f 597/3/5 593/3/5 596/3/5
f 602/3/5 599/3/5 598/3/5
f 603/3/5 599/3/5 602/3/5
f 604/3/5 601/3/5 600/3/5
f 605/3/5 601/3/5 604/3/5
f 610/3/5 607/3/5 606/3/5
f 611/3/5 607/3/5 610/3/5
f 612/3/5 609/3/5 608/3/5
f 613/3/5 609/3/5 612/3/5
f 618/3/5 615/3/5 614/3/5
f 619/3/5 615/3/5 618/3/5
f 620/3/5 617/3/5 616/3/5
f 621/3/5 617/3/5 620/3/5
f 624/3/5 623/3/5 622/3/5
f 625/3/5 623/3/5 624/3/5
f 636/1/5 628/1/5 627/1/5
f 636/2/5 629/2/5 628/2/5
f 637/1/5 630/1/5 629/1/5
f 637/2/5 629/2/5 636/2/5
f 638/2/5 631/2/5 630/2/5
f 638/1/5 630/1/5 637/1/5
f 639/1/5 632/1/5 631/1/5
f 639/2/5 631/2/5 638/2/5
f 640/2/5 633/2/5 632/2/5
f 640/1/5 632/1/5 639/1/5
f 641/1/5 634/1/5 633/1/5
f 641/2/5 633/2/5 640/2/5
f 642/3/5 627/3/5 626/3/5
f 642/1/5 636/1/5 627/1/5
f 642/1/5 637/1/5 636/1/5
f 642/1/5 639/1/5 638/1/5
f 642/1/5 638/1/5 637/1/5
f 643/2/5 640/2/5 639/2/5
f 643/1/5 639/1/5 642/1/5
f 644/1/5 641/1/5 640/1/5
f 644/2/5 640/2/5 643/2/5
f 645/1/5 634/1/5 641/1/5
f 645/1/5 641/1/5 644/1/5
f 645/3/5 635/3/5 634/3/5
f 646/3/5 642/3/5 626/3/5
f 649/3/5 635/3/5 645/3/5
f 650/2/5 648/2/5 647/2/5
f 650/1/5 647/1/5 646/1/5
f 651/1/5 649/1/5 648/1/5
f 651/2/5 648/2/5 650/2/5
f 652/1/5 650/1/5 646/1/5
f 652/3/5 646/3/5 626/3/5
f 652/1/5 651/1/5 650/1/5
f 653/1/5 649/1/5 651/1/5
f 653/1/5 651/1/5 652/1/5
f 653/3/5 635/3/5 649/3/5
f 654/3/5 652/3/5 626/3/5
f 658/3/5 635/3/5 653/3/5
f 659/3/5 635/3/5 658/3/5
f 660/3/5 654/3/5 626/3/5
f 661/2/5 655/2/5 654/2/5
f 661/3/5 654/3/5 660/3/5
f 662/1/5 656/1/5 655/1/5
f 662/2/5 655/2/5 661/2/5
f 663/2/5 657/2/5 656/2/5
f 663/1/5 656/1/5 662/1/5
f 664/1/5 658/1/5 657/1/5
f 664/2/5 657/2/5 663/2/5
f 665/1/5 658/1/5 664/1/5
f 670/3/5 667/3/5 666/3/5
f 671/3/5 667/3/5 670/3/5
f 672/3/5 669/3/5 668/3/5
f 673/3/5 669/3/5 672/3/5
f 680/1/5 675/1/5 674/1/5
f 680/1/5 676/1/5 675/1/5
f 681/2/5 677/2/5 676/2/5
f 681/1/5 676/1/5 680/1/5
f 682/1/5 679/1/5 678/1/5
f 682/2/5 677/2/5 681/2/5
f 682/1/5 678/1/5 677/1/5
f 683/1/5 679/1/5 682/1/5
f 688/3/5 685/3/5 684/3/5
f 689/3/5 685/3/5 688/3/5
f 690/3/5 687/3/5 686/3/5
f 691/3/5 687/3/5 690/3/5
f 699/3/5 693/3/5 692/3/5
f 700/1/5 694/1/5 693/1/5
f 700/3/5 693/3/5 699/3/5
f 700/1/5 695/1/5 694/1/5
f 701/2/5 696/2/5 695/2/5
f 701/1/5 695/1/5 700/1/5
f 702/1/5 697/1/5 696/1/5
f 702/2/5 696/2/5 701/2/5
f 703/3/5 698/3/5 697/3/5
f 703/1/5 697/1/5 702/1/5
f 704/3/5 698/3/5 703/3/5
f 715/3/5 706/3/5 705/3/5
f 716/1/5 707/1/5 706/1/5
f 716/3/5 706/3/5 715/3/5
f 717/2/5 708/2/5 707/2/5
f 717/1/5 707/1/5 716/1/5
f 717/2/5 709/2/5 708/2/5
f 718/1/5 710/1/5 709/1/5
f 718/2/5 709/2/5 717/2/5
f 719/2/5 711/2/5 710/2/5
f 719/1/5 710/1/5 718/1/5
f 719/2/5 712/2/5 711/2/5
f 720/1/5 713/1/5 712/1/5
f 720/2/5 712/2/5 719/2/5
f 721/3/5 714/3/5 713/3/5
f 721/1/5 713/1/5 720/1/5
f 722/3/5 714/3/5 721/3/5
f 727/3/5 724/3/5 723/3/5
f 728/3/5 724/3/5 727/3/5
f 729/3/5 726/3/5 725/3/5
f 730/3/5 726/3/5 729/3/5
f 739/3/5 732/3/5 731/3/5
f 740/1/5 733/1/5 732/1/5
f 740/3/5 732/3/5 739/3/5
f 740/1/5 734/1/5 733/1/5
f 740/1/5 737/1/5 736/1/5
f 740/1/5 736/1/5 735/1/5
f 740/1/5 735/1/5 734/1/5
f 741/3/5 738/3/5 737/3/5
f 741/1/5 737/1/5 740/1/5
f 742/3/5 738/3/5 741/3/5
f 743/3/6 744/3/6 747/3/6
f 747/3/6 744/3/6 748/3/6
f 745/3/6 746/3/6 749/3/6
f 749/3/6 746/3/6 750/3/6
f 751/3/6 752/3/6 755/3/6
f 755/3/6 752/3/6 756/3/6
f 753/3/6 754/3/6 757/3/6
f 757/3/6 754/3/6 758/3/6
f 759/3/6 760/3/6 763/3/6
f 763/3/6 760/3/6 764/3/6
f 761/3/6 762/3/6 765/3/6
f 765/3/6 762/3/6 766/3/6
f 767/3/6 768/3/6 771/3/6
f 771/3/6 768/3/6 772/3/6
f 769/3/6 770/3/6 773/3/6
f 773/3/6 770/3/6 774/3/6
f 775/3/6 776/3/6 779/3/6
f 779/3/6 776/3/6 780/3/6
f 777/3/6 778/3/6 781/3/6
f 781/3/6 778/3/6 782/3/6
f 783/1/6 784/1/6 792/1/6
f 784/2/6 785/2/6 793/2/6
f 792/1/6 784/1/6 793/1/6
f 785/1/6 786/1/6 794/1/6
f 793/2/6 785/2/6 794/2/6
f 786/2/6 787/2/6 795/2/6
f 794/1/6 786/1/6 795/1/6
f 787/1/6 788/1/6 796/1/6
f 795/2/6 787/2/6 796/2/6
f 788/2/6 789/2/6 797/2/6
f 796/1/6 788/1/6 797/1/6
f 789/1/6 790/1/6 798/1/6
f 797/2/6 789/2/6 798/2/6
f 798/1/6 790/1/6 799/1/6
f 791/3/6 792/3/6 801/3/6
f 792/1/6 793/1/6 802/1/6
f 801/3/6 792/3/6 802/3/6
f 793/1/6 794/1/6 802/1/6
f 794/1/6 795/1/6 802/1/6
f 795/1/6 796/1/6 802/1/6
f 796/2/6 797/2/6 803/2/6
f 802/1/6 796/1/6 803/1/6
f 798/1/6 799/1/6 804/1/6
f 803/2/6 797/2/6 804/2/6
f 797/1/6 798/1/6 804/1/6
f 799/3/6 800/3/6 805/3/6
f 804/1/6 799/1/6 805/1/6
f 805/3/6 800/3/6 806/3/6
f 808/1/6 809/1/6 813/1/6
f 809/2/6 810/2/6 813/2/6
f 810/1/6 811/1/6 814/1/6
f 813/2/6 810/2/6 814/2/6
f 807/3/6 808/3/6 815/3/6
f 808/1/6 813/1/6 816/1/6
f 815/3/6 808/3/6 816/3/6
f 813/1/6 814/1/6 816/1/6
f 814/1/6 811/1/6 817/1/6
f 816/1/6 814/1/6 817/1/6
f 811/3/6 812/3/6 817/3/6
f 817/3/6 812/3/6 818/3/6
f 819/3/6 820/3/6 823/3/6
f 823/3/6 820/3/6 824/3/6
f 821/3/6 822/3/6 825/3/6
f 825/3/6 822/3/6 826/3/6
f 827/3/6 828/3/6 831/3/6
f 831/3/6 828/3/6 832/3/6
f 829/3/6 830/3/6 835/3/6
f 835/3/6 830/3/6 836/3/6
f 832/1/6 833/1/6 837/1/6
f 833/2/6 834/2/6 838/2/6
f 837/1/6 833/1/6 838/1/6
f 838/2/6 834/2/6 839/2/6
f 839/2/6 834/2/6 840/2/6
f 834/1/6 835/1/6 841/1/6
f 840/2/6 834/2/6 841/2/6
f 841/1/6 835/1/6 842/1/6
f 843/3/6 844/3/6 847/3/6
f 847/3/6 844/3/6 848/3/6
f 845/3/6 846/3/6 849/3/6
f 849/3/6 846/3/6 850/3/6
f 851/3/6 852/3/6 855/3/6
f 855/3/6 852/3/6 856/3/6
f 853/3/6 854/3/6 857/3/6
f 857/3/6 854/3/6 858/3/6
f 859/3/6 860/3/6 863/3/6
f 863/3/6 860/3/6 864/3/6
f 861/3/6 862/3/6 865/3/6
f 865/3/6 862/3/6 866/3/6
f 867/3/6 868/3/6 871/3/6
f 871/3/6 868/3/6 872/3/6
f 869/3/6 870/3/6 873/3/6
f 873/3/6 870/3/6 874/3/6
f 875/3/6 876/3/6 880/3/6
f 876/2/6 877/2/6 881/2/6
f 880/3/6 876/3/6 881/3/6
f 877/1/6 878/1/6 882/1/6
f 881/2/6 877/2/6 882/2/6
f 882/1/6 878/1/6 883/1/6
f 883/1/6 878/1/6 884/1/6
f 878/3/6 879/3/6 885/3/6
f 884/1/6 878/1/6 885/1/6
f 885/3/6 879/3/6 886/3/6
f 887/1/6 888/1/6 891/1/6
f 891/1/6 888/1/6 892/1/6
f 888/2/6 889/2/6 893/2/6
f 892/1/6 888/1/6 893/1/6
f 893/2/6 889/2/6 894/2/6
f 894/2/6 889/2/6 895/2/6
f 889/1/6 890/1/6 896/1/6
f 895/2/6 889/2/6 896/2/6
f 896/1/6 890/1/6 897/1/6
f 897/1/6 890/1/6 898/1/6
f 899/3/6 900/3/6 903/3/6
f 903/3/6 900/3/6 904/3/6
f 901/3/6 902/3/6 909/3/6
f 909/3/6 902/3/6 910/3/6
f 904/1/6 905/1/6 911/1/6
f 905/2/6 906/2/6 912/2/6
f 911/1/6 905/1/6 912/1/6
f 906/1/6 907/1/6 913/1/6
f 912/2/6 906/2/6 913/2/6
f 907/2/6 908/2/6 914/2/6
f 913/1/6 907/1/6 914/1/6
f 908/1/6 909/1/6 915/1/6
f 914/2/6 908/2/6 915/2/6
f 915/1/6 909/1/6 916/1/6
f 917/3/6 918/3/6 921/3/6
f 921/3/6 918/3/6 922/3/6
f 919/3/6 920/3/6 923/3/6
f 923/3/6 920/3/6 924/3/6
f 922/1/6 923/1/6 925/1/6
f 925/1/6 923/1/6 926/1/6
f 927/3/6 928/3/6 931/3/6
f 931/3/6 928/3/6 932/3/6
f 929/3/6 930/3/6 933/3/6
f 933/3/6 930/3/6 934/3/6
