# MagicaVoxel @ Ephtracy

# group
o 

# material
mtllib drzewko-82.mtl
usemtl palette

# normals
vn 1 0 0
vn -1 0 0
vn 0 0 1
vn 0 0 -1
vn 0 -1 0
vn 0 1 0

# texcoords
vt 0.283203 0.5
vt 0.474609 0.5
vt 0.478516 0.5
vt 0.501953 0.5
vt 0.728516 0.5
vt 0.751953 0.5
vt 0.939453 0.5
vt 0.982422 0.5
vt 0.994141 0.5

# verts
v -11.9 11.6 2.5
v -11.9 11.6 -5.7
v -11.9 12.2 2.5
v -11.9 12.2 -5.7
v -12 12.2 2.3
v -12 12.2 -5.7
v -12 12.4 2.3
v -12 12.4 -5.7
v -12.1 0.6 2.9
v -12.1 0.6 2.3
v -12.1 6.1 2.9
v -12.1 6.1 2.3
v -12.1 12.4 1.8
v -12.1 12.4 -5.7
v -12.1 12.7 1.8
v -12.1 12.7 -5.7
v -12.2 0.6 2.3
v -12.2 0.6 -5.7
v -12.2 6.1 3.5
v -12.2 6.1 2.9
v -12.2 6.1 2.3
v -12.2 6.1 -5.7
v -12.2 6.3 3.5
v -12.2 6.3 2.5
v -12.2 11.6 2.5
v -12.2 11.6 -5.7
v -12.3 12.7 1.3
v -12.3 12.7 -5.7
v -12.3 14.2 1.3
v -12.3 14.2 -5.7
v -12.4 14.2 1
v -12.4 14.2 -5.7
v -12.4 15.2 1
v -12.4 15.2 -5.7
v -12.5 15.2 0.7
v -12.5 15.2 -5.7
v -12.5 16 0.7
v -12.5 16 -5.7
v -12.6 16 0.4
v -12.6 16 -5.2
v -12.6 16.6 0.4
v -12.6 16.6 -5.2
v -12.7 16.6 -0.0999999
v -12.7 16.6 -5.2
v -12.7 16.9 -0.0999999
v -12.7 16.9 -5.2
v -12.9 0.6 3.2
v -12.9 0.6 2.9
v -12.9 5.2 3.2
v -12.9 5.2 3.1
v -12.9 5.3 3.2
v -12.9 5.3 3.1
v -12.9 5.4 3.2
v -12.9 5.4 3.1
v -12.9 5.5 3.2
v -12.9 5.5 3.1
v -12.9 6 3.2
v -12.9 6 3.1
v -12.9 6.1 3.2
v -12.9 6.1 3.1
v -12.9 6.1 2.9
v -12.9 16.9 -0.4
v -12.9 16.9 -4.8
v -12.9 17.4 -0.4
v -12.9 17.4 -4.8
v -14.8 1.5 3.1
v -14.8 1.5 2.2
v -14.8 1.5 2.1
v -14.8 1.5 0.5
v -14.8 3.1 3.1
v -14.8 3.2 3.2
v -14.8 3.2 3.1
v -14.8 3.2 2.2
v -14.8 3.2 2.1
v -14.8 3.3 3.2
v -14.8 3.3 3.1
v -14.8 5.3 3.2
v -14.8 5.3 3.1
v -14.8 5.3 0.5
v -16.6 0.6 2.3
v -16.6 0.6 2.2
v -16.6 1.4 2.2
v -16.6 2 2.2
v -16.6 2.4 2.2
v -16.6 2.8 2.2
v -16.6 2.9 2.2
v -16.6 3.9 2.2
v -16.6 4.3 2.3
v -16.6 4.3 2.2
v -16.6 4.4 2.3
v -16.6 4.4 2.2
v -16.7 2.3 2.5
v -16.7 2.3 2.3
v -16.7 2.4 2.5
v -16.7 2.4 2.3
v -21 8.3 -10.7
v -21 8.3 -10.8
v -21 8.4 -10.7
v -21 8.4 -10.8
v -21.3 0.6 -5.6
v -21.3 0.6 -5.7
v -21.3 0.7 -5.6
v -21.3 0.7 -5.7
v -13.2 1.5 3.1
v -13.2 1.5 2.2
v -13.2 1.5 2.1
v -13.2 1.5 0.5
v -13.2 3.2 3.2
v -13.2 3.2 3.1
v -13.2 3.2 2.2
v -13.2 3.2 2.1
v -13.2 3.3 3.2
v -13.2 3.3 3.1
v -13.2 3.4 3.2
v -13.2 3.4 3.1
v -13.2 5.3 3.2
v -13.2 5.3 3.1
v -13.2 5.3 0.5
v -15.2 0.6 3.2
v -15.2 0.6 3.1
v -15.2 0.6 2.6
v -15.2 0.7 3.2
v -15.2 0.7 3.1
v -15.2 6 3.2
v -15.2 6 3.1
v -15.2 6.1 3.2
v -15.2 6.1 3.1
v -15.2 6.1 2.6
v -15.8 0.6 2.6
v -15.8 0.6 2.2
v -15.8 6 2.6
v -15.8 6 2.5
v -15.8 6.1 2.6
v -15.8 6.1 2.5
v -15.8 6.1 2.2
v -16.8 2.3 2.4
v -16.8 2.3 2.3
v -16.8 2.4 2.4
v -16.8 2.4 2.3
v -17 2.3 2.5
v -17 2.3 2.4
v -17 2.4 2.5
v -17 2.4 2.4
v -18.3 0.6 2.3
v -18.3 0.6 2.2
v -18.3 0.9 2.2
v -18.3 1 2.2
v -18.3 1.1 2.2
v -18.3 1.3 2.2
v -18.3 1.4 2.2
v -18.3 1.9 2.2
v -18.3 2.5 2.2
v -18.3 2.7 2.2
v -18.3 2.8 2.2
v -18.3 4 2.2
v -18.3 4.3 2.3
v -18.3 4.3 2.2
v -18.3 4.4 2.3
v -18.3 4.4 2.2
v -18.9 16.9 -0.4
v -18.9 16.9 -4.8
v -18.9 17.4 -0.4
v -18.9 17.4 -4.8
v -19 16.6 -0.0999999
v -19 16.6 -5.2
v -19 16.9 -0.0999999
v -19 16.9 -5.2
v -19.1 0.6 2.2
v -19.1 0.6 2.1
v -19.1 0.6 -5.7
v -19.1 6.1 3.5
v -19.1 6.1 2.2
v -19.1 6.1 2.1
v -19.1 6.3 3.5
v -19.1 6.3 2.5
v -19.1 12.2 2.5
v -19.1 12.2 2.3
v -19.1 12.4 2.3
v -19.1 12.4 1.8
v -19.1 12.7 1.8
v -19.1 12.7 1.3
v -19.1 14.2 1.3
v -19.1 14.2 1
v -19.1 15.2 1
v -19.1 15.2 0.7
v -19.1 16 0.7
v -19.1 16 0.4
v -19.1 16 -5.2
v -19.1 16 -5.7
v -19.1 16.6 0.4
v -19.1 16.6 -5.2
v -21.1 8.3 -10.7
v -21.1 8.3 -10.8
v -21.1 8.4 -10.7
v -21.1 8.4 -10.8
v -21.4 0.6 -5.6
v -21.4 0.6 -5.7
v -21.4 0.7 -5.6
v -21.4 0.7 -5.7
v -12.2 6.1 3.5
v -12.2 6.3 3.5
v -19.1 6.1 3.5
v -19.1 6.3 3.5
v -12.9 0.6 3.2
v -12.9 5.2 3.2
v -12.9 5.3 3.2
v -12.9 5.4 3.2
v -12.9 5.5 3.2
v -12.9 6 3.2
v -12.9 6.1 3.2
v -13 3.2 3.2
v -13 3.3 3.2
v -13 5.1 3.2
v -13 5.2 3.2
v -13 5.3 3.2
v -13 5.4 3.2
v -13 5.5 3.2
v -13 5.6 3.2
v -13 5.7 3.2
v -13 6 3.2
v -13 6.1 3.2
v -13.1 3.1 3.2
v -13.1 3.2 3.2
v -13.1 3.3 3.2
v -13.1 3.4 3.2
v -13.1 5.1 3.2
v -13.1 5.2 3.2
v -13.1 5.3 3.2
v -13.1 5.4 3.2
v -13.1 5.5 3.2
v -13.1 5.6 3.2
v -13.1 5.7 3.2
v -13.2 3.1 3.2
v -13.2 3.2 3.2
v -13.2 3.3 3.2
v -13.2 3.4 3.2
v -13.2 5.3 3.2
v -13.2 5.4 3.2
v -13.2 5.5 3.2
v -13.3 5.3 3.2
v -13.3 5.4 3.2
v -13.4 5.8 3.2
v -13.4 5.9 3.2
v -13.5 5.8 3.2
v -13.5 5.9 3.2
v -14.5 5.3 3.2
v -14.5 5.4 3.2
v -14.6 5.3 3.2
v -14.6 5.4 3.2
v -14.6 5.5 3.2
v -14.7 3.1 3.2
v -14.7 3.2 3.2
v -14.7 5.3 3.2
v -14.7 5.4 3.2
v -14.7 5.5 3.2
v -14.8 0.7 3.2
v -14.8 0.8 3.2
v -14.8 3.1 3.2
v -14.8 3.2 3.2
v -14.8 3.3 3.2
v -14.8 5.3 3.2
v -14.8 5.4 3.2
v -14.8 5.5 3.2
v -14.8 5.6 3.2
v -14.8 5.9 3.2
v -14.8 6 3.2
v -14.9 0.6 3.2
v -14.9 0.7 3.2
v -14.9 0.8 3.2
v -14.9 0.9 3.2
v -14.9 3.2 3.2
v -14.9 3.3 3.2
v -14.9 5.5 3.2
v -14.9 5.6 3.2
v -14.9 5.9 3.2
v -14.9 6 3.2
v -14.9 6.1 3.2
v -15 0.6 3.2
v -15 0.7 3.2
v -15 0.8 3.2
v -15 0.9 3.2
v -15 1.1 3.2
v -15 1.2 3.2
v -15 5.9 3.2
v -15 6 3.2
v -15 6.1 3.2
v -15.1 0.6 3.2
v -15.1 0.7 3.2
v -15.1 0.8 3.2
v -15.1 1.1 3.2
v -15.1 1.2 3.2
v -15.1 5.9 3.2
v -15.1 6 3.2
v -15.1 6.1 3.2
v -15.2 0.6 3.2
v -15.2 0.7 3.2
v -15.2 6 3.2
v -15.2 6.1 3.2
v -12.1 0.6 2.9
v -12.1 6.1 2.9
v -12.2 6.1 2.9
v -12.9 0.6 2.9
v -12.9 6.1 2.9
v -15.2 0.6 2.6
v -15.2 6.1 2.6
v -15.3 6 2.6
v -15.3 6.1 2.6
v -15.4 5.9 2.6
v -15.4 6 2.6
v -15.4 6.1 2.6
v -15.5 5.9 2.6
v -15.5 6 2.6
v -15.5 6.1 2.6
v -15.6 5.8 2.6
v -15.6 5.9 2.6
v -15.6 6 2.6
v -15.6 6.1 2.6
v -15.7 5.8 2.6
v -15.7 5.9 2.6
v -15.7 6 2.6
v -15.7 6.1 2.6
v -15.8 0.6 2.6
v -15.8 6 2.6
v -15.8 6.1 2.6
v -11.9 11.6 2.5
v -11.9 12.2 2.5
v -12.2 6.3 2.5
v -12.2 11.6 2.5
v -16.7 2.3 2.5
v -16.7 2.4 2.5
v -17 2.3 2.5
v -17 2.4 2.5
v -19.1 6.3 2.5
v -19.1 12.2 2.5
v -12 12.2 2.3
v -12 12.4 2.3
v -16.6 0.6 2.3
v -16.6 4.3 2.3
v -16.6 4.4 2.3
v -16.7 2.3 2.3
v -16.7 2.4 2.3
v -16.7 4.3 2.3
v -16.7 4.4 2.3
v -16.8 2.3 2.3
v -16.8 2.4 2.3
v -16.8 4.2 2.3
v -16.8 4.3 2.3
v -16.9 4.2 2.3
v -16.9 4.3 2.3
v -16.9 4.4 2.3
v -17 4.3 2.3
v -17 4.4 2.3
v -18.1 4.2 2.3
v -18.1 4.3 2.3
v -18.2 4.2 2.3
v -18.2 4.3 2.3
v -18.2 4.4 2.3
v -18.3 0.6 2.3
v -18.3 4.3 2.3
v -18.3 4.4 2.3
v -19.1 12.2 2.3
v -19.1 12.4 2.3
v -15.8 0.6 2.2
v -15.8 6.1 2.2
v -16.4 1.6 2.2
v -16.4 1.7 2.2
v -16.4 1.8 2.2
v -16.4 1.9 2.2
v -16.5 0.6 2.2
v -16.5 1.4 2.2
v -16.5 1.6 2.2
v -16.5 1.7 2.2
v -16.5 1.8 2.2
v -16.5 1.9 2.2
v -16.5 2 2.2
v -16.5 2.4 2.2
v -16.5 2.8 2.2
v -16.5 2.9 2.2
v -16.5 3.9 2.2
v -16.5 4.4 2.2
v -16.6 0.6 2.2
v -16.6 1.4 2.2
v -16.6 2 2.2
v -16.6 2.4 2.2
v -16.6 2.8 2.2
v -16.6 2.9 2.2
v -16.6 3.9 2.2
v -16.6 4.3 2.2
v -16.6 4.4 2.2
v -16.6 4.5 2.2
v -16.7 4.4 2.2
v -16.7 4.5 2.2
v -16.7 4.6 2.2
v -16.8 4.4 2.2
v -16.8 4.5 2.2
v -16.8 4.6 2.2
v -16.9 4.4 2.2
v -17 4.4 2.2
v -17.2 4.4 2.2
v -17.2 4.5 2.2
v -18 4.4 2.2
v -18 4.5 2.2
v -18.1 4.4 2.2
v -18.1 4.5 2.2
v -18.1 4.6 2.2
v -18.2 4.4 2.2
v -18.2 4.5 2.2
v -18.2 4.6 2.2
v -18.3 0.6 2.2
v -18.3 0.9 2.2
v -18.3 1 2.2
v -18.3 1.1 2.2
v -18.3 1.3 2.2
v -18.3 1.4 2.2
v -18.3 1.9 2.2
v -18.3 2.5 2.2
v -18.3 2.7 2.2
v -18.3 2.8 2.2
v -18.3 4 2.2
v -18.3 4.3 2.2
v -18.3 4.4 2.2
v -18.3 4.5 2.2
v -18.4 0.6 2.2
v -18.4 0.8 2.2
v -18.4 1 2.2
v -18.4 1.1 2.2
v -18.4 1.3 2.2
v -18.4 1.4 2.2
v -18.4 1.9 2.2
v -18.4 2.5 2.2
v -18.4 2.7 2.2
v -18.4 2.8 2.2
v -18.4 4 2.2
v -18.4 4.4 2.2
v -18.4 4.5 2.2
v -18.5 0.8 2.2
v -18.5 0.9 2.2
v -18.5 4.4 2.2
v -18.5 4.5 2.2
v -19.1 0.6 2.2
v -19.1 6.1 2.2
v -12.1 12.4 1.8
v -12.1 12.7 1.8
v -19.1 12.4 1.8
v -19.1 12.7 1.8
v -12.3 12.7 1.3
v -12.3 14.2 1.3
v -19.1 12.7 1.3
v -19.1 14.2 1.3
v -12.4 14.2 1
v -12.4 15.2 1
v -19.1 14.2 1
v -19.1 15.2 1
v -12.5 15.2 0.7
v -12.5 16 0.7
v -19.1 15.2 0.7
v -19.1 16 0.7
v -13.2 1.5 0.5
v -13.2 5.3 0.5
v -14.8 1.5 0.5
v -14.8 5.3 0.5
v -12.6 16 0.4
v -12.6 16.6 0.4
v -19.1 16 0.4
v -19.1 16.6 0.4
v -12.7 16.6 -0.0999999
v -12.7 16.9 -0.0999999
v -19 16.6 -0.0999999
v -19 16.9 -0.0999999
v -12.9 16.9 -0.4
v -12.9 17.4 -0.4
v -18.9 16.9 -0.4
v -18.9 17.4 -0.4
v -21.3 0.6 -5.6
v -21.3 0.7 -5.6
v -21.4 0.6 -5.6
v -21.4 0.7 -5.6
v -21 8.3 -10.7
v -21 8.4 -10.7
v -21.1 8.3 -10.7
v -21.1 8.4 -10.7
v -13.2 1.5 3.1
v -13.2 3.2 3.1
v -14.7 3.1 3.1
v -14.7 3.2 3.1
v -14.8 1.5 3.1
v -14.8 3.1 3.1
v -14.8 3.2 3.1
v -16.8 2.3 2.4
v -16.8 2.4 2.4
v -17 2.3 2.4
v -17 2.4 2.4
v -12.1 0.6 2.3
v -12.1 6.1 2.3
v -12.2 0.6 2.3
v -12.2 6.1 2.3
v -12.9 16.9 -4.8
v -12.9 17.4 -4.8
v -18.9 16.9 -4.8
v -18.9 17.4 -4.8
v -12.6 16 -5.2
v -12.6 16.6 -5.2
v -12.7 16.6 -5.2
v -12.7 16.9 -5.2
v -19 16.6 -5.2
v -19 16.9 -5.2
v -19.1 16 -5.2
v -19.1 16.6 -5.2
v -11.9 11.6 -5.7
v -11.9 12.2 -5.7
v -12 12.2 -5.7
v -12 12.4 -5.7
v -12.1 12.4 -5.7
v -12.1 12.7 -5.7
v -12.2 0.6 -5.7
v -12.2 6.1 -5.7
v -12.2 11.6 -5.7
v -12.3 0.6 -5.7
v -12.3 6.1 -5.7
v -12.3 12.7 -5.7
v -12.3 14.2 -5.7
v -12.4 14.2 -5.7
v -12.4 15.2 -5.7
v -12.5 15.2 -5.7
v -12.5 16 -5.7
v -14.1 10.9 -5.7
v -14.1 12.9 -5.7
v -14.3 10.9 -5.7
v -14.3 11 -5.7
v -14.6 11 -5.7
v -14.6 12.9 -5.7
v -19.1 0.6 -5.7
v -19.1 16 -5.7
v -21.3 0.6 -5.7
v -21.3 0.7 -5.7
v -21.4 0.6 -5.7
v -21.4 0.7 -5.7
v -21 8.3 -10.8
v -21 8.4 -10.8
v -21.1 8.3 -10.8
v -21.1 8.4 -10.8
v -12.9 0.6 3.2
v -14.9 0.6 3.2
v -15 0.6 3.2
v -15.1 0.6 3.2
v -15.2 0.6 3.2
v -13 0.6 3.1
v -14.9 0.6 3.1
v -15 0.6 3.1
v -15.1 0.6 3.1
v -15.2 0.6 3.1
v -12.1 0.6 2.9
v -12.9 0.6 2.9
v -13 0.6 2.9
v -12.2 0.6 2.8
v -12.9 0.6 2.8
v -15.1 0.6 2.6
v -15.2 0.6 2.6
v -15.8 0.6 2.6
v -15.2 0.6 2.5
v -15.7 0.6 2.5
v -12.1 0.6 2.3
v -12.2 0.6 2.3
v -12.3 0.6 2.3
v -16.6 0.6 2.3
v -18.3 0.6 2.3
v -12.3 0.6 2.2
v -15.7 0.6 2.2
v -15.8 0.6 2.2
v -16.5 0.6 2.2
v -16.6 0.6 2.2
v -18.3 0.6 2.2
v -18.4 0.6 2.2
v -19.1 0.6 2.2
v -12.3 0.6 2.1
v -16.5 0.6 2.1
v -16.6 0.6 2.1
v -18.3 0.6 2.1
v -18.4 0.6 2.1
v -19.1 0.6 2.1
v -21.3 0.6 -5.6
v -21.4 0.6 -5.6
v -12.2 0.6 -5.7
v -12.3 0.6 -5.7
v -19.1 0.6 -5.7
v -21.3 0.6 -5.7
v -21.4 0.6 -5.7
v -16.7 2.3 2.5
v -17 2.3 2.5
v -16.8 2.3 2.4
v -17 2.3 2.4
v -16.7 2.3 2.3
v -16.8 2.3 2.3
v -13.2 5.3 3.2
v -13.3 5.3 3.2
v -14.5 5.3 3.2
v -14.6 5.3 3.2
v -14.7 5.3 3.2
v -14.8 5.3 3.2
v -13.2 5.3 3.1
v -13.3 5.3 3.1
v -14.5 5.3 3.1
v -14.6 5.3 3.1
v -14.7 5.3 3.1
v -14.8 5.3 3.1
v -13.2 5.3 0.5
v -14.8 5.3 0.5
v -12.2 6.1 3.5
v -19.1 6.1 3.5
v -12.9 6.1 3.2
v -13 6.1 3.2
v -14.9 6.1 3.2
v -15 6.1 3.2
v -15.1 6.1 3.2
v -15.2 6.1 3.2
v -12.9 6.1 3.1
v -15.2 6.1 3.1
v -12.2 6.1 2.9
v -12.9 6.1 2.9
v -15.2 6.1 2.6
v -15.3 6.1 2.6
v -15.4 6.1 2.6
v -15.5 6.1 2.6
v -15.6 6.1 2.6
v -15.7 6.1 2.6
v -15.8 6.1 2.6
v -15.8 6.1 2.5
v -15.8 6.1 2.2
v -19.1 6.1 2.2
v -21 8.3 -10.7
v -21.1 8.3 -10.7
v -21 8.3 -10.8
v -21.1 8.3 -10.8
v -11.9 11.6 2.5
v -12.2 11.6 2.5
v -11.9 11.6 -5.7
v -12.2 11.6 -5.7
v -21.3 0.7 -5.6
v -21.4 0.7 -5.6
v -21.3 0.7 -5.7
v -21.4 0.7 -5.7
v -13.2 1.5 3.1
v -14.8 1.5 3.1
v -13.2 1.5 2.2
v -14.8 1.5 2.2
v -13.2 1.5 2.1
v -14.8 1.5 2.1
v -13.2 1.5 0.5
v -14.8 1.5 0.5
v -16.7 2.4 2.5
v -17 2.4 2.5
v -16.8 2.4 2.4
v -17 2.4 2.4
v -16.7 2.4 2.3
v -16.8 2.4 2.3
v -13.2 3.2 3.2
v -14.7 3.2 3.2
v -14.8 3.2 3.2
v -13.2 3.2 3.1
v -14.7 3.2 3.1
v -14.8 3.2 3.1
v -16.6 4.4 2.3
v -16.7 4.4 2.3
v -16.9 4.4 2.3
v -17 4.4 2.3
v -18.2 4.4 2.3
v -18.3 4.4 2.3
v -16.6 4.4 2.2
v -16.7 4.4 2.2
v -16.8 4.4 2.2
v -16.9 4.4 2.2
v -17 4.4 2.2
v -17.2 4.4 2.2
v -18 4.4 2.2
v -18.1 4.4 2.2
v -18.2 4.4 2.2
v -18.3 4.4 2.2
v -12.1 6.1 2.9
v -12.2 6.1 2.9
v -12.1 6.1 2.3
v -12.2 6.1 2.3
v -12.2 6.3 3.5
v -19.1 6.3 3.5
v -12.2 6.3 2.5
v -19.1 6.3 2.5
v -21 8.4 -10.7
v -21.1 8.4 -10.7
v -21 8.4 -10.8
v -21.1 8.4 -10.8
v -11.9 12.2 2.5
v -19.1 12.2 2.5
v -12 12.2 2.3
v -19.1 12.2 2.3
v -11.9 12.2 -5.7
v -12 12.2 -5.7
v -12 12.4 2.3
v -19.1 12.4 2.3
v -12.1 12.4 1.8
v -19.1 12.4 1.8
v -12 12.4 -5.7
v -12.1 12.4 -5.7
v -12.1 12.7 1.8
v -19.1 12.7 1.8
v -12.3 12.7 1.3
v -19.1 12.7 1.3
v -12.1 12.7 -5.7
v -12.3 12.7 -5.7
v -12.3 14.2 1.3
v -19.1 14.2 1.3
v -12.4 14.2 1
v -19.1 14.2 1
v -12.3 14.2 -5.7
v -12.4 14.2 -5.7
v -12.4 15.2 1
v -19.1 15.2 1
v -12.5 15.2 0.7
v -19.1 15.2 0.7
v -12.4 15.2 -5.7
v -12.5 15.2 -5.7
v -12.5 16 0.7
v -19.1 16 0.7
v -12.6 16 0.4
v -19.1 16 0.4
v -12.6 16 -5.2
v -19.1 16 -5.2
v -12.5 16 -5.7
v -19.1 16 -5.7
v -12.6 16.6 0.4
v -19.1 16.6 0.4
v -12.7 16.6 -0.0999999
v -19 16.6 -0.0999999
v -12.6 16.6 -5.2
v -12.7 16.6 -5.2
v -19 16.6 -5.2
v -19.1 16.6 -5.2
v -12.7 16.9 -0.0999999
v -19 16.9 -0.0999999
v -12.9 16.9 -0.4
v -18.9 16.9 -0.4
v -12.9 16.9 -4.8
v -18.9 16.9 -4.8
v -12.7 16.9 -5.2
v -19 16.9 -5.2
v -12.9 17.4 -0.4
v -18.9 17.4 -0.4
v -12.9 17.4 -4.8
v -18.9 17.4 -4.8

# faces
f 1/1/1 2/1/1 3/1/1
f 3/1/1 2/1/1 4/1/1
f 5/1/1 6/1/1 7/1/1
f 7/1/1 6/1/1 8/1/1
f 9/2/1 10/2/1 11/2/1
f 11/2/1 10/2/1 12/2/1
f 13/1/1 14/1/1 15/1/1
f 15/1/1 14/1/1 16/1/1
f 17/2/1 18/2/1 21/2/1
f 21/2/1 18/2/1 22/2/1
f 19/1/1 20/1/1 23/1/1
f 20/1/1 21/1/1 23/1/1
f 21/1/1 22/1/1 23/1/1
f 23/1/1 22/1/1 24/1/1
f 24/1/1 22/1/1 25/1/1
f 25/1/1 22/1/1 26/1/1
f 27/1/1 28/1/1 29/1/1
f 29/1/1 28/1/1 30/1/1
f 31/1/1 32/1/1 33/1/1
f 33/1/1 32/1/1 34/1/1
f 35/1/1 36/1/1 37/1/1
f 37/1/1 36/1/1 38/1/1
f 39/1/1 40/1/1 41/1/1
f 41/1/1 40/1/1 42/1/1
f 43/1/1 44/1/1 45/1/1
f 45/1/1 44/1/1 46/1/1
f 47/2/1 48/2/1 49/2/1
f 49/2/1 48/2/1 50/2/1
f 49/3/1 50/3/1 51/3/1
f 50/2/1 48/2/1 52/2/1
f 51/3/1 50/3/1 52/3/1
f 51/2/1 52/2/1 53/2/1
f 52/2/1 48/2/1 54/2/1
f 53/2/1 52/2/1 54/2/1
f 53/3/1 54/3/1 55/3/1
f 54/2/1 48/2/1 56/2/1
f 55/3/1 54/3/1 56/3/1
f 55/2/1 56/2/1 57/2/1
f 56/2/1 48/2/1 58/2/1
f 57/2/1 56/2/1 58/2/1
f 57/3/1 58/3/1 59/3/1
f 58/2/1 48/2/1 60/2/1
f 59/3/1 58/3/1 60/3/1
f 60/2/1 48/2/1 61/2/1
f 62/1/1 63/1/1 64/1/1
f 64/1/1 63/1/1 65/1/1
f 66/1/1 67/1/1 70/1/1
f 70/1/1 67/1/1 72/1/1
f 67/2/1 68/2/1 73/2/1
f 72/1/1 67/1/1 73/1/1
f 68/1/1 69/1/1 74/1/1
f 73/2/1 68/2/1 74/2/1
f 71/3/1 72/3/1 75/3/1
f 72/1/1 73/1/1 76/1/1
f 75/3/1 72/3/1 76/3/1
f 73/1/1 74/1/1 76/1/1
f 75/2/1 76/2/1 77/2/1
f 76/1/1 74/1/1 78/1/1
f 77/2/1 76/2/1 78/2/1
f 74/1/1 69/1/1 79/1/1
f 78/1/1 74/1/1 79/1/1
f 80/8/1 81/8/1 82/8/1
f 80/8/1 82/8/1 83/8/1
f 80/8/1 83/8/1 84/8/1
f 80/8/1 84/8/1 85/8/1
f 80/8/1 85/8/1 86/8/1
f 80/8/1 86/8/1 87/8/1
f 80/8/1 87/8/1 88/8/1
f 88/8/1 87/8/1 89/8/1
f 88/9/1 89/9/1 90/9/1
f 90/9/1 89/9/1 91/9/1
f 92/9/1 93/9/1 94/9/1
f 94/9/1 93/9/1 95/9/1
f 96/4/1 97/4/1 98/4/1
f 98/4/1 97/4/1 99/4/1
f 100/1/1 101/1/1 102/1/1
f 102/1/1 101/1/1 103/1/1
f 109/5/2 105/5/2 104/5/2
f 110/2/2 106/2/2 105/2/2
f 110/5/2 105/5/2 109/5/2
f 111/5/2 107/5/2 106/5/2
f 111/2/2 106/2/2 110/2/2
f 112/2/2 109/2/2 108/2/2
f 113/5/2 110/5/2 109/5/2
f 113/2/2 109/2/2 112/2/2
f 113/5/2 111/5/2 110/5/2
f 114/3/2 113/3/2 112/3/2
f 115/5/2 111/5/2 113/5/2
f 115/3/2 113/3/2 114/3/2
f 116/2/2 115/2/2 114/2/2
f 117/5/2 111/5/2 115/5/2
f 117/2/2 115/2/2 116/2/2
f 118/5/2 107/5/2 111/5/2
f 118/5/2 111/5/2 117/5/2
f 122/3/2 120/3/2 119/3/2
f 123/2/2 121/2/2 120/2/2
f 123/3/2 120/3/2 122/3/2
f 124/2/2 123/2/2 122/2/2
f 125/2/2 121/2/2 123/2/2
f 125/2/2 123/2/2 124/2/2
f 126/3/2 125/3/2 124/3/2
f 127/2/2 121/2/2 125/2/2
f 127/3/2 125/3/2 126/3/2
f 128/2/2 121/2/2 127/2/2
f 131/2/2 130/2/2 129/2/2
f 132/2/2 130/2/2 131/2/2
f 133/3/2 132/3/2 131/3/2
f 134/2/2 130/2/2 132/2/2
f 134/3/2 132/3/2 133/3/2
f 135/2/2 130/2/2 134/2/2
f 138/9/2 137/9/2 136/9/2
f 139/9/2 137/9/2 138/9/2
f 142/9/2 141/9/2 140/9/2
f 143/9/2 141/9/2 142/9/2
f 146/8/2 145/8/2 144/8/2
f 147/8/2 146/8/2 144/8/2
f 148/8/2 147/8/2 144/8/2
f 149/8/2 148/8/2 144/8/2
f 150/8/2 149/8/2 144/8/2
f 151/8/2 150/8/2 144/8/2
f 152/8/2 151/8/2 144/8/2
f 153/8/2 152/8/2 144/8/2
f 154/8/2 153/8/2 144/8/2
f 155/8/2 154/8/2 144/8/2
f 156/8/2 155/8/2 144/8/2
f 157/8/2 155/8/2 156/8/2
f 158/9/2 157/9/2 156/9/2
f 159/9/2 157/9/2 158/9/2
f 162/1/2 161/1/2 160/1/2
f 163/1/2 161/1/2 162/1/2
f 166/1/2 165/1/2 164/1/2
f 167/1/2 165/1/2 166/1/2
f 172/2/2 169/2/2 168/2/2
f 173/1/2 170/1/2 169/1/2
f 173/2/2 169/2/2 172/2/2
f 174/1/2 172/1/2 171/1/2
f 174/1/2 173/1/2 172/1/2
f 175/1/2 173/1/2 174/1/2
f 176/1/2 173/1/2 175/1/2
f 177/1/2 173/1/2 176/1/2
f 178/1/2 173/1/2 177/1/2
f 179/1/2 170/1/2 173/1/2
f 179/1/2 173/1/2 178/1/2
f 180/1/2 170/1/2 179/1/2
f 181/1/2 170/1/2 180/1/2
f 182/1/2 170/1/2 181/1/2
f 183/1/2 170/1/2 182/1/2
f 184/1/2 170/1/2 183/1/2
f 185/1/2 170/1/2 184/1/2
f 186/1/2 170/1/2 185/1/2
f 187/1/2 170/1/2 186/1/2
f 188/1/2 170/1/2 187/1/2
f 189/1/2 170/1/2 188/1/2
f 190/1/2 188/1/2 187/1/2
f 191/1/2 188/1/2 190/1/2
f 194/4/2 193/4/2 192/4/2
f 195/4/2 193/4/2 194/4/2
f 198/1/2 197/1/2 196/1/2
f 199/1/2 197/1/2 198/1/2
f 200/1/3 201/1/3 202/1/3
f 202/1/3 201/1/3 203/1/3
f 204/2/3 205/2/3 211/2/3
f 211/2/3 205/2/3 212/2/3
f 212/2/3 205/2/3 213/2/3
f 205/3/3 206/3/3 214/3/3
f 213/2/3 205/2/3 214/2/3
f 206/2/3 207/2/3 215/2/3
f 214/3/3 206/3/3 215/3/3
f 207/3/3 208/3/3 216/3/3
f 215/2/3 207/2/3 216/2/3
f 208/2/3 209/2/3 217/2/3
f 216/3/3 208/3/3 217/3/3
f 217/2/3 209/2/3 218/2/3
f 218/2/3 209/2/3 219/2/3
f 209/3/3 210/3/3 220/3/3
f 219/2/3 209/2/3 220/2/3
f 220/3/3 210/3/3 221/3/3
f 204/2/3 211/2/3 222/2/3
f 211/3/3 212/3/3 223/3/3
f 222/2/3 211/2/3 223/2/3
f 212/2/3 213/2/3 224/2/3
f 223/3/3 212/3/3 224/3/3
f 224/2/3 213/2/3 225/2/3
f 213/3/3 214/3/3 226/3/3
f 225/2/3 213/2/3 226/2/3
f 214/2/3 215/2/3 227/2/3
f 226/3/3 214/3/3 227/3/3
f 215/3/3 216/3/3 228/3/3
f 227/2/3 215/2/3 228/2/3
f 216/2/3 217/2/3 229/2/3
f 228/3/3 216/3/3 229/3/3
f 217/2/3 218/2/3 229/2/3
f 229/2/3 218/2/3 230/2/3
f 218/3/3 219/3/3 231/3/3
f 230/2/3 218/2/3 231/2/3
f 219/2/3 220/2/3 232/2/3
f 231/3/3 219/3/3 232/3/3
f 220/2/3 221/2/3 232/2/3
f 222/3/3 223/3/3 233/3/3
f 204/2/3 222/2/3 233/2/3
f 223/2/3 224/2/3 234/2/3
f 233/3/3 223/3/3 234/3/3
f 224/3/3 225/3/3 235/3/3
f 234/2/3 224/2/3 235/2/3
f 225/2/3 226/2/3 236/2/3
f 235/3/3 225/3/3 236/3/3
f 226/2/3 227/2/3 236/2/3
f 228/2/3 229/2/3 236/2/3
f 227/2/3 228/2/3 236/2/3
f 236/2/3 229/2/3 237/2/3
f 229/3/3 230/3/3 238/3/3
f 237/2/3 229/2/3 238/2/3
f 230/2/3 231/2/3 239/2/3
f 238/3/3 230/3/3 239/3/3
f 231/2/3 232/2/3 239/2/3
f 237/3/3 238/3/3 240/3/3
f 238/2/3 239/2/3 241/2/3
f 240/3/3 238/3/3 241/3/3
f 239/2/3 232/2/3 242/2/3
f 241/2/3 239/2/3 242/2/3
f 240/2/3 241/2/3 242/2/3
f 232/2/3 221/2/3 242/2/3
f 242/2/3 221/2/3 243/2/3
f 240/2/3 242/2/3 244/2/3
f 242/3/3 243/3/3 244/3/3
f 243/2/3 221/2/3 245/2/3
f 244/3/3 243/3/3 245/3/3
f 240/2/3 244/2/3 246/2/3
f 244/2/3 245/2/3 246/2/3
f 246/2/3 245/2/3 247/2/3
f 246/3/3 247/3/3 248/3/3
f 247/2/3 245/2/3 249/2/3
f 248/3/3 247/3/3 249/3/3
f 249/2/3 245/2/3 250/2/3
f 204/2/3 233/2/3 251/2/3
f 233/2/3 234/2/3 251/2/3
f 251/2/3 234/2/3 252/2/3
f 248/2/3 249/2/3 253/2/3
f 249/3/3 250/3/3 254/3/3
f 253/2/3 249/2/3 254/2/3
f 250/2/3 245/2/3 255/2/3
f 254/3/3 250/3/3 255/3/3
f 204/2/3 251/2/3 256/2/3
f 256/2/3 251/2/3 257/2/3
f 251/3/3 252/3/3 258/3/3
f 257/2/3 251/2/3 258/2/3
f 258/3/3 252/3/3 259/3/3
f 253/3/3 254/3/3 261/3/3
f 254/2/3 255/2/3 262/2/3
f 261/3/3 254/3/3 262/3/3
f 255/2/3 245/2/3 263/2/3
f 262/2/3 255/2/3 263/2/3
f 263/2/3 245/2/3 264/2/3
f 245/2/3 221/2/3 265/2/3
f 264/2/3 245/2/3 265/2/3
f 265/2/3 221/2/3 266/2/3
f 204/2/3 256/2/3 267/2/3
f 256/3/3 257/3/3 268/3/3
f 267/2/3 256/2/3 268/2/3
f 257/2/3 258/2/3 269/2/3
f 268/3/3 257/3/3 269/3/3
f 258/2/3 259/2/3 269/2/3
f 269/2/3 259/2/3 270/2/3
f 259/3/3 260/3/3 271/3/3
f 270/2/3 259/2/3 271/2/3
f 261/2/3 262/2/3 272/2/3
f 271/3/3 260/3/3 272/3/3
f 260/2/3 261/2/3 272/2/3
f 262/2/3 263/2/3 272/2/3
f 263/3/3 264/3/3 273/3/3
f 272/2/3 263/2/3 273/2/3
f 264/2/3 265/2/3 274/2/3
f 273/3/3 264/3/3 274/3/3
f 265/3/3 266/3/3 275/3/3
f 274/2/3 265/2/3 275/2/3
f 266/2/3 221/2/3 276/2/3
f 275/3/3 266/3/3 276/3/3
f 276/2/3 221/2/3 277/2/3
f 267/3/3 268/3/3 278/3/3
f 268/2/3 269/2/3 279/2/3
f 278/3/3 268/3/3 279/3/3
f 269/3/3 270/3/3 280/3/3
f 279/2/3 269/2/3 280/2/3
f 271/2/3 272/2/3 281/2/3
f 280/3/3 270/3/3 281/3/3
f 270/2/3 271/2/3 281/2/3
f 274/2/3 275/2/3 281/2/3
f 275/2/3 276/2/3 281/2/3
f 272/2/3 273/2/3 281/2/3
f 273/2/3 274/2/3 281/2/3
f 281/2/3 276/2/3 282/2/3
f 282/2/3 276/2/3 283/2/3
f 283/2/3 276/2/3 284/2/3
f 276/3/3 277/3/3 285/3/3
f 284/2/3 276/2/3 285/2/3
f 285/3/3 277/3/3 286/3/3
f 278/2/3 279/2/3 287/2/3
f 279/3/3 280/3/3 288/3/3
f 287/2/3 279/2/3 288/2/3
f 280/2/3 281/2/3 289/2/3
f 288/3/3 280/3/3 289/3/3
f 281/2/3 282/2/3 289/2/3
f 282/3/3 283/3/3 290/3/3
f 289/2/3 282/2/3 290/2/3
f 283/2/3 284/2/3 291/2/3
f 290/3/3 283/3/3 291/3/3
f 284/3/3 285/3/3 292/3/3
f 291/2/3 284/2/3 292/2/3
f 285/2/3 286/2/3 293/2/3
f 292/3/3 285/3/3 293/3/3
f 293/2/3 286/2/3 294/2/3
f 287/3/3 288/3/3 295/3/3
f 289/2/3 290/2/3 296/2/3
f 295/3/3 288/3/3 296/3/3
f 291/2/3 292/2/3 296/2/3
f 288/2/3 289/2/3 296/2/3
f 292/2/3 293/2/3 296/2/3
f 290/2/3 291/2/3 296/2/3
f 293/3/3 294/3/3 297/3/3
f 296/2/3 293/2/3 297/2/3
f 297/3/3 294/3/3 298/3/3
f 299/2/3 300/2/3 301/2/3
f 299/2/3 301/2/3 302/2/3
f 302/2/3 301/2/3 303/2/3
f 304/2/3 305/2/3 306/2/3
f 306/2/3 305/2/3 307/2/3
f 304/2/3 306/2/3 308/2/3
f 306/3/3 307/3/3 309/3/3
f 308/2/3 306/2/3 309/2/3
f 309/3/3 307/3/3 310/3/3
f 304/2/3 308/2/3 311/2/3
f 308/3/3 309/3/3 311/3/3
f 309/2/3 310/2/3 312/2/3
f 311/3/3 309/3/3 312/3/3
f 312/2/3 310/2/3 313/2/3
f 304/2/3 311/2/3 314/2/3
f 311/2/3 312/2/3 314/2/3
f 314/2/3 312/2/3 315/2/3
f 312/3/3 313/3/3 316/3/3
f 315/2/3 312/2/3 316/2/3
f 316/3/3 313/3/3 317/3/3
f 314/3/3 315/3/3 318/3/3
f 304/2/3 314/2/3 318/2/3
f 316/2/3 317/2/3 319/2/3
f 318/3/3 315/3/3 319/3/3
f 315/2/3 316/2/3 319/2/3
f 319/2/3 317/2/3 320/2/3
f 320/2/3 317/2/3 321/2/3
f 304/2/3 318/2/3 322/2/3
f 318/2/3 319/2/3 322/2/3
f 319/2/3 320/2/3 322/2/3
f 320/3/3 321/3/3 323/3/3
f 322/2/3 320/2/3 323/2/3
f 323/3/3 321/3/3 324/3/3
f 325/1/3 326/1/3 328/1/3
f 329/9/3 330/9/3 331/9/3
f 331/9/3 330/9/3 332/9/3
f 327/1/3 328/1/3 333/1/3
f 328/1/3 326/1/3 334/1/3
f 333/1/3 328/1/3 334/1/3
f 337/8/3 338/8/3 340/8/3
f 340/8/3 338/8/3 341/8/3
f 338/9/3 339/9/3 342/9/3
f 341/8/3 338/8/3 342/8/3
f 342/9/3 339/9/3 343/9/3
f 337/8/3 340/8/3 344/8/3
f 342/8/3 343/8/3 345/8/3
f 341/8/3 342/8/3 345/8/3
f 345/8/3 343/8/3 346/8/3
f 346/8/3 343/8/3 347/8/3
f 344/8/3 345/8/3 348/8/3
f 345/8/3 346/8/3 348/8/3
f 346/9/3 347/9/3 348/9/3
f 347/8/3 343/8/3 349/8/3
f 348/9/3 347/9/3 349/9/3
f 349/8/3 343/8/3 350/8/3
f 348/8/3 349/8/3 351/8/3
f 349/9/3 350/9/3 351/9/3
f 351/9/3 350/9/3 352/9/3
f 344/8/3 348/8/3 353/8/3
f 348/8/3 351/8/3 353/8/3
f 351/8/3 352/8/3 353/8/3
f 353/8/3 352/8/3 354/8/3
f 344/8/3 353/8/3 355/8/3
f 353/9/3 354/9/3 355/9/3
f 354/8/3 352/8/3 356/8/3
f 355/9/3 354/9/3 356/9/3
f 356/8/3 352/8/3 357/8/3
f 337/8/3 344/8/3 358/8/3
f 344/8/3 355/8/3 358/8/3
f 355/8/3 356/8/3 358/8/3
f 356/9/3 357/9/3 359/9/3
f 358/8/3 356/8/3 359/8/3
f 359/9/3 357/9/3 360/9/3
f 335/1/3 336/1/3 361/1/3
f 361/1/3 336/1/3 362/1/3
f 363/2/3 364/2/3 365/2/3
f 365/2/3 364/2/3 366/2/3
f 366/2/3 364/2/3 367/2/3
f 367/2/3 364/2/3 368/2/3
f 363/2/3 365/2/3 369/2/3
f 369/2/3 365/2/3 370/2/3
f 365/3/3 366/3/3 371/3/3
f 370/2/3 365/2/3 371/2/3
f 366/2/3 367/2/3 372/2/3
f 371/3/3 366/3/3 372/3/3
f 367/3/3 368/3/3 373/3/3
f 372/2/3 367/2/3 373/2/3
f 368/2/3 364/2/3 374/2/3
f 373/3/3 368/3/3 374/3/3
f 374/2/3 364/2/3 375/2/3
f 375/2/3 364/2/3 376/2/3
f 376/2/3 364/2/3 377/2/3
f 377/2/3 364/2/3 378/2/3
f 378/2/3 364/2/3 379/2/3
f 379/2/3 364/2/3 380/2/3
f 369/3/3 370/3/3 381/3/3
f 372/2/3 373/2/3 382/2/3
f 381/3/3 370/3/3 382/3/3
f 370/2/3 371/2/3 382/2/3
f 371/2/3 372/2/3 382/2/3
f 373/2/3 374/2/3 382/2/3
f 374/2/3 375/2/3 382/2/3
f 375/3/3 376/3/3 383/3/3
f 382/2/3 375/2/3 383/2/3
f 376/2/3 377/2/3 384/2/3
f 383/3/3 376/3/3 384/3/3
f 377/3/3 378/3/3 385/3/3
f 384/2/3 377/2/3 385/2/3
f 378/2/3 379/2/3 386/2/3
f 385/3/3 378/3/3 386/3/3
f 379/3/3 380/3/3 387/3/3
f 386/2/3 379/2/3 387/2/3
f 387/3/3 380/3/3 388/3/3
f 380/2/3 364/2/3 389/2/3
f 388/3/3 380/3/3 389/3/3
f 389/2/3 364/2/3 390/2/3
f 389/3/3 390/3/3 391/3/3
f 390/2/3 364/2/3 392/2/3
f 391/3/3 390/3/3 392/3/3
f 392/2/3 364/2/3 393/2/3
f 391/2/3 392/2/3 394/2/3
f 392/3/3 393/3/3 395/3/3
f 394/2/3 392/2/3 395/2/3
f 393/2/3 364/2/3 396/2/3
f 395/3/3 393/3/3 396/3/3
f 394/3/3 395/3/3 397/3/3
f 397/3/3 395/3/3 398/3/3
f 398/3/3 395/3/3 399/3/3
f 395/2/3 396/2/3 400/2/3
f 399/3/3 395/3/3 400/3/3
f 399/2/3 400/2/3 401/2/3
f 400/2/3 396/2/3 402/2/3
f 401/2/3 400/2/3 402/2/3
f 401/3/3 402/3/3 403/3/3
f 402/2/3 396/2/3 404/2/3
f 403/3/3 402/3/3 404/3/3
f 396/2/3 364/2/3 405/2/3
f 404/2/3 396/2/3 405/2/3
f 403/2/3 404/2/3 406/2/3
f 404/3/3 405/3/3 407/3/3
f 406/2/3 404/2/3 407/2/3
f 405/2/3 364/2/3 408/2/3
f 407/3/3 405/3/3 408/3/3
f 406/3/3 407/3/3 421/3/3
f 407/2/3 408/2/3 422/2/3
f 421/3/3 407/3/3 422/3/3
f 409/3/3 410/3/3 423/3/3
f 423/3/3 410/3/3 424/3/3
f 410/2/3 411/2/3 425/2/3
f 411/3/3 412/3/3 425/3/3
f 412/2/3 413/2/3 426/2/3
f 425/3/3 412/3/3 426/3/3
f 413/3/3 414/3/3 427/3/3
f 426/2/3 413/2/3 427/2/3
f 414/2/3 415/2/3 428/2/3
f 427/3/3 414/3/3 428/3/3
f 415/3/3 416/3/3 429/3/3
f 428/2/3 415/2/3 429/2/3
f 416/2/3 417/2/3 430/2/3
f 429/3/3 416/3/3 430/3/3
f 417/3/3 418/3/3 431/3/3
f 430/2/3 417/2/3 431/2/3
f 418/2/3 419/2/3 432/2/3
f 431/3/3 418/3/3 432/3/3
f 419/3/3 420/3/3 433/3/3
f 432/2/3 419/2/3 433/2/3
f 420/3/3 421/3/3 433/3/3
f 421/2/3 422/2/3 434/2/3
f 433/3/3 421/3/3 434/3/3
f 422/2/3 408/2/3 435/2/3
f 434/2/3 422/2/3 435/2/3
f 424/3/3 410/3/3 436/3/3
f 423/2/3 424/2/3 436/2/3
f 431/2/3 432/2/3 437/2/3
f 436/3/3 410/3/3 437/3/3
f 433/2/3 434/2/3 437/2/3
f 432/2/3 433/2/3 437/2/3
f 410/2/3 425/2/3 437/2/3
f 430/2/3 431/2/3 437/2/3
f 429/2/3 430/2/3 437/2/3
f 428/2/3 429/2/3 437/2/3
f 427/2/3 428/2/3 437/2/3
f 426/2/3 427/2/3 437/2/3
f 425/2/3 426/2/3 437/2/3
f 434/3/3 435/3/3 438/3/3
f 437/2/3 434/2/3 438/2/3
f 435/2/3 408/2/3 439/2/3
f 438/3/3 435/3/3 439/3/3
f 423/2/3 436/2/3 440/2/3
f 437/2/3 438/2/3 440/2/3
f 438/2/3 439/2/3 440/2/3
f 436/2/3 437/2/3 440/2/3
f 439/2/3 408/2/3 441/2/3
f 440/2/3 439/2/3 441/2/3
f 408/2/3 364/2/3 441/2/3
f 442/1/3 443/1/3 444/1/3
f 444/1/3 443/1/3 445/1/3
f 446/1/3 447/1/3 448/1/3
f 448/1/3 447/1/3 449/1/3
f 450/1/3 451/1/3 452/1/3
f 452/1/3 451/1/3 453/1/3
f 454/1/3 455/1/3 456/1/3
f 456/1/3 455/1/3 457/1/3
f 458/1/3 459/1/3 460/1/3
f 460/1/3 459/1/3 461/1/3
f 462/1/3 463/1/3 464/1/3
f 464/1/3 463/1/3 465/1/3
f 466/1/3 467/1/3 468/1/3
f 468/1/3 467/1/3 469/1/3
f 470/1/3 471/1/3 472/1/3
f 472/1/3 471/1/3 473/1/3
f 474/1/3 475/1/3 476/1/3
f 476/1/3 475/1/3 477/1/3
f 478/4/3 479/4/3 480/4/3
f 480/4/3 479/4/3 481/4/3
f 484/2/4 483/2/4 482/2/4
f 485/2/4 483/2/4 484/2/4
f 486/2/4 484/2/4 482/2/4
f 487/3/4 485/3/4 484/3/4
f 487/2/4 484/2/4 486/2/4
f 488/3/4 485/3/4 487/3/4
f 491/9/4 490/9/4 489/9/4
f 492/9/4 490/9/4 491/9/4
f 495/2/4 494/2/4 493/2/4
f 496/2/4 494/2/4 495/2/4
f 499/1/4 498/1/4 497/1/4
f 500/1/4 498/1/4 499/1/4
f 503/1/4 502/1/4 501/1/4
f 505/1/4 503/1/4 501/1/4
f 505/1/4 504/1/4 503/1/4
f 506/1/4 504/1/4 505/1/4
f 507/1/4 505/1/4 501/1/4
f 508/1/4 505/1/4 507/1/4
f 511/1/4 510/1/4 509/1/4
f 513/1/4 512/1/4 511/1/4
f 517/1/4 511/1/4 509/1/4
f 517/1/4 513/1/4 511/1/4
f 517/1/4 514/1/4 513/1/4
f 518/2/4 516/2/4 515/2/4
f 519/1/4 517/1/4 516/1/4
f 519/2/4 516/2/4 518/2/4
f 520/1/4 514/1/4 517/1/4
f 520/1/4 517/1/4 519/1/4
f 522/1/4 519/1/4 518/1/4
f 522/1/4 521/1/4 520/1/4
f 522/1/4 520/1/4 519/1/4
f 524/1/4 523/1/4 522/1/4
f 526/1/4 522/1/4 518/1/4
f 526/1/4 525/1/4 524/1/4
f 526/1/4 524/1/4 522/1/4
f 527/1/4 525/1/4 526/1/4
f 528/1/4 526/1/4 518/1/4
f 528/7/4 527/7/4 526/7/4
f 529/7/4 527/7/4 528/7/4
f 530/1/4 529/1/4 528/1/4
f 530/7/4 527/7/4 529/7/4
f 531/1/4 525/1/4 527/1/4
f 531/7/4 527/7/4 530/7/4
f 532/1/4 530/1/4 528/1/4
f 532/1/4 528/1/4 518/1/4
f 532/1/4 531/1/4 530/1/4
f 533/1/4 525/1/4 531/1/4
f 533/1/4 531/1/4 532/1/4
f 536/1/4 535/1/4 534/1/4
f 537/1/4 535/1/4 536/1/4
f 540/4/4 539/4/4 538/4/4
f 541/4/4 539/4/4 540/4/4
f 542/2/5 543/2/5 547/2/5
f 543/3/5 544/3/5 548/3/5
f 547/2/5 543/2/5 548/2/5
f 544/2/5 545/2/5 549/2/5
f 548/3/5 544/3/5 549/3/5
f 545/3/5 546/3/5 550/3/5
f 549/2/5 545/2/5 550/2/5
f 550/3/5 546/3/5 551/3/5
f 542/2/5 547/2/5 553/2/5
f 548/1/5 549/1/5 554/1/5
f 547/1/5 548/1/5 554/1/5
f 553/2/5 547/2/5 554/2/5
f 549/1/5 550/1/5 554/1/5
f 552/2/5 553/2/5 555/2/5
f 553/1/5 554/1/5 556/1/5
f 555/2/5 553/2/5 556/2/5
f 554/1/5 550/1/5 557/1/5
f 556/1/5 554/1/5 557/1/5
f 555/1/5 556/1/5 557/1/5
f 550/2/5 551/2/5 557/2/5
f 557/2/5 551/2/5 558/2/5
f 557/1/5 558/1/5 560/1/5
f 558/2/5 559/2/5 560/2/5
f 560/2/5 559/2/5 561/2/5
f 552/2/5 555/2/5 562/2/5
f 555/1/5 557/1/5 563/1/5
f 562/2/5 555/2/5 563/2/5
f 557/1/5 560/1/5 563/1/5
f 560/1/5 561/1/5 563/1/5
f 563/1/5 561/1/5 564/1/5
f 563/2/5 564/2/5 567/2/5
f 564/1/5 561/1/5 567/1/5
f 561/2/5 559/2/5 568/2/5
f 567/1/5 561/1/5 568/1/5
f 568/2/5 559/2/5 569/2/5
f 565/8/5 566/8/5 571/8/5
f 571/8/5 566/8/5 572/8/5
f 563/2/5 567/2/5 575/2/5
f 569/2/5 570/2/5 575/2/5
f 567/2/5 568/2/5 575/2/5
f 568/2/5 569/2/5 575/2/5
f 570/3/5 571/3/5 576/3/5
f 575/2/5 570/2/5 576/2/5
f 571/2/5 572/2/5 577/2/5
f 576/3/5 571/3/5 577/3/5
f 572/3/5 573/3/5 578/3/5
f 577/2/5 572/2/5 578/2/5
f 573/2/5 574/2/5 579/2/5
f 578/3/5 573/3/5 579/3/5
f 579/2/5 574/2/5 580/2/5
f 563/2/5 575/2/5 583/2/5
f 577/1/5 578/1/5 584/1/5
f 583/2/5 575/2/5 584/2/5
f 576/1/5 577/1/5 584/1/5
f 579/1/5 580/1/5 584/1/5
f 578/1/5 579/1/5 584/1/5
f 575/1/5 576/1/5 584/1/5
f 584/1/5 580/1/5 585/1/5
f 581/1/5 582/1/5 586/1/5
f 586/1/5 582/1/5 587/1/5
f 588/9/5 589/9/5 590/9/5
f 590/9/5 589/9/5 591/9/5
f 588/9/5 590/9/5 592/9/5
f 592/9/5 590/9/5 593/9/5
f 594/3/5 595/3/5 600/3/5
f 595/2/5 596/2/5 601/2/5
f 600/3/5 595/3/5 601/3/5
f 596/3/5 597/3/5 602/3/5
f 601/2/5 596/2/5 602/2/5
f 597/2/5 598/2/5 603/2/5
f 602/3/5 597/3/5 603/3/5
f 598/3/5 599/3/5 604/3/5
f 603/2/5 598/2/5 604/2/5
f 604/3/5 599/3/5 605/3/5
f 602/1/5 603/1/5 606/1/5
f 600/1/5 601/1/5 606/1/5
f 604/1/5 605/1/5 606/1/5
f 603/1/5 604/1/5 606/1/5
f 601/1/5 602/1/5 606/1/5
f 606/1/5 605/1/5 607/1/5
f 608/1/5 609/1/5 610/1/5
f 610/1/5 609/1/5 611/1/5
f 611/1/5 609/1/5 612/1/5
f 612/1/5 609/1/5 613/1/5
f 613/1/5 609/1/5 614/1/5
f 614/1/5 609/1/5 615/1/5
f 608/1/5 610/1/5 616/1/5
f 615/1/5 609/1/5 617/1/5
f 608/1/5 616/1/5 618/1/5
f 618/1/5 616/1/5 619/1/5
f 617/1/5 609/1/5 620/1/5
f 620/1/5 609/1/5 621/1/5
f 621/1/5 609/1/5 622/1/5
f 622/1/5 609/1/5 623/1/5
f 623/1/5 609/1/5 624/1/5
f 624/1/5 609/1/5 625/1/5
f 625/1/5 609/1/5 626/1/5
f 626/1/5 609/1/5 627/1/5
f 627/1/5 609/1/5 628/1/5
f 628/1/5 609/1/5 629/1/5
f 630/4/5 631/4/5 632/4/5
f 632/4/5 631/4/5 633/4/5
f 634/1/5 635/1/5 636/1/5
f 636/1/5 635/1/5 637/1/5
f 640/1/6 639/1/6 638/1/6
f 641/1/6 639/1/6 640/1/6
f 644/1/6 643/1/6 642/1/6
f 645/1/6 643/1/6 644/1/6
f 646/2/6 645/2/6 644/2/6
f 647/2/6 645/2/6 646/2/6
f 648/1/6 647/1/6 646/1/6
f 649/1/6 647/1/6 648/1/6
f 652/9/6 651/9/6 650/9/6
f 653/9/6 651/9/6 652/9/6
f 654/9/6 652/9/6 650/9/6
f 655/9/6 652/9/6 654/9/6
f 659/2/6 657/2/6 656/2/6
f 660/3/6 658/3/6 657/3/6
f 660/2/6 657/2/6 659/2/6
f 661/3/6 658/3/6 660/3/6
f 668/9/6 663/9/6 662/9/6
f 669/8/6 664/8/6 663/8/6
f 669/9/6 663/9/6 668/9/6
f 670/8/6 664/8/6 669/8/6
f 671/9/6 665/9/6 664/9/6
f 671/8/6 664/8/6 670/8/6
f 672/8/6 666/8/6 665/8/6
f 672/9/6 665/9/6 671/9/6
f 673/8/6 666/8/6 672/8/6
f 674/8/6 666/8/6 673/8/6
f 675/8/6 666/8/6 674/8/6
f 676/9/6 667/9/6 666/9/6
f 676/8/6 666/8/6 675/8/6
f 677/9/6 667/9/6 676/9/6
f 680/2/6 679/2/6 678/2/6
f 681/2/6 679/2/6 680/2/6
f 684/1/6 683/1/6 682/1/6
f 685/1/6 683/1/6 684/1/6
f 688/4/6 687/4/6 686/4/6
f 689/4/6 687/4/6 688/4/6
f 692/1/6 691/1/6 690/1/6
f 693/1/6 691/1/6 692/1/6
f 694/1/6 692/1/6 690/1/6
f 695/1/6 692/1/6 694/1/6
f 698/1/6 697/1/6 696/1/6
f 699/1/6 697/1/6 698/1/6
f 700/1/6 698/1/6 696/1/6
f 701/1/6 698/1/6 700/1/6
f 704/1/6 703/1/6 702/1/6
f 705/1/6 703/1/6 704/1/6
f 706/1/6 704/1/6 702/1/6
f 707/1/6 704/1/6 706/1/6
f 710/1/6 709/1/6 708/1/6
f 711/1/6 709/1/6 710/1/6
f 712/1/6 710/1/6 708/1/6
f 713/1/6 710/1/6 712/1/6
f 716/1/6 715/1/6 714/1/6
f 717/1/6 715/1/6 716/1/6
f 718/1/6 716/1/6 714/1/6
f 719/1/6 716/1/6 718/1/6
f 722/1/6 721/1/6 720/1/6
f 723/1/6 721/1/6 722/1/6
f 724/1/6 722/1/6 720/1/6
f 726/1/6 724/1/6 720/1/6
f 726/1/6 725/1/6 724/1/6
f 727/1/6 725/1/6 726/1/6
f 730/1/6 729/1/6 728/1/6
f 731/1/6 729/1/6 730/1/6
f 732/1/6 730/1/6 728/1/6
f 733/1/6 730/1/6 732/1/6
f 734/1/6 729/1/6 731/1/6
f 735/1/6 729/1/6 734/1/6
f 738/1/6 737/1/6 736/1/6
f 739/1/6 737/1/6 738/1/6
f 740/1/6 738/1/6 736/1/6
f 741/1/6 737/1/6 739/1/6
f 742/1/6 740/1/6 736/1/6
f 742/1/6 741/1/6 740/1/6
f 743/1/6 737/1/6 741/1/6
f 743/1/6 741/1/6 742/1/6
f 746/1/6 745/1/6 744/1/6
f 747/1/6 745/1/6 746/1/6
