# MagicaVoxel @ Ephtracy

# group
o 

# material
mtllib drzewko-22.mtl
usemtl palette

# normals
vn -1 0 0
vn 1 0 0
vn 0 0 1
vn 0 0 -1
vn 0 -1 0
vn 0 1 0

# texcoords
vt 0.537109 0.5
vt 0.658203 0.5
vt 0.783203 0.5
vt 0.994141 0.5

# verts
v -9.8 4 2.5
v -9.8 4 2.4
v -9.8 4.9 2.5
v -9.8 4.9 2.4
v -9.8 5.1 2.5
v -9.8 5.1 2.4
v -9.7 3.9 2.5
v -9.7 3.9 2.4
v -9.7 4 2.5
v -9.7 4 2.4
v -9.7 5.1 2.5
v -9.7 5.1 2.4
v -9.7 5.2 2.5
v -9.7 5.2 2.4
v -9.1 4.4 2.5
v -9.1 4.4 2.4
v -9.1 4.5 2.5
v -9.1 4.5 2.4
v -9.2 4.4 2.5
v -9.2 4.4 2.4
v -9.2 4.5 2.5
v -9.2 4.5 2.4
v -8.6 3.9 2.5
v -8.6 3.9 2.4
v -8.6 4 2.5
v -8.6 4 2.4
v -8.6 5.1 2.5
v -8.6 5.1 2.4
v -8.6 5.2 2.5
v -8.6 5.2 2.4
v -8.5 4 2.5
v -8.5 4 2.4
v -8.5 4.1 2.5
v -8.5 4.1 2.4
v -8.5 5.1 2.5
v -8.5 5.1 2.4
v -9.8 4 2.5
v -9.8 4.9 2.5
v -9.8 5.1 2.5
v -9.7 3.9 2.5
v -9.7 4 2.5
v -9.7 4.2 2.5
v -9.7 4.4 2.5
v -9.7 4.9 2.5
v -9.7 5.1 2.5
v -9.7 5.2 2.5
v -9.6 4.4 2.5
v -9.6 4.6 2.5
v -9.6 5.1 2.5
v -9.6 5.2 2.5
v -9.5 4.3 2.5
v -9.5 4.4 2.5
v -9.5 4.6 2.5
v -9.5 4.7 2.5
v -9.5 5.1 2.5
v -9.5 5.2 2.5
v -9.4 4.3 2.5
v -9.4 4.4 2.5
v -9.4 4.7 2.5
v -9.4 4.9 2.5
v -9.3 4.3 2.5
v -9.3 4.5 2.5
v -9.3 4.6 2.5
v -9.3 4.7 2.5
v -9.3 4.9 2.5
v -9.3 5 2.5
v -9.2 4.3 2.5
v -9.2 4.4 2.5
v -9.2 4.5 2.5
v -9.2 4.6 2.5
v -9.2 4.7 2.5
v -9.2 4.8 2.5
v -9.2 5 2.5
v -9.2 5.1 2.5
v -9.1 3.9 2.5
v -9.1 4 2.5
v -9.1 4.3 2.5
v -9.1 4.4 2.5
v -9.1 4.5 2.5
v -9.1 4.6 2.5
v -9.1 4.7 2.5
v -9.1 4.8 2.5
v -9.1 5 2.5
v -9.1 5.1 2.5
v -9 3.9 2.5
v -9 4 2.5
v -9 4.3 2.5
v -9 4.5 2.5
v -9 4.6 2.5
v -9 4.7 2.5
v -9 4.9 2.5
v -9 5 2.5
v -8.9 3.9 2.5
v -8.9 4 2.5
v -8.9 4.3 2.5
v -8.9 4.4 2.5
v -8.9 4.7 2.5
v -8.9 4.9 2.5
v -8.8 4.3 2.5
v -8.8 4.4 2.5
v -8.8 4.6 2.5
v -8.8 4.7 2.5
v -8.7 4.4 2.5
v -8.7 4.6 2.5
v -8.6 3.9 2.5
v -8.6 4 2.5
v -8.6 4.1 2.5
v -8.6 4.2 2.5
v -8.6 4.4 2.5
v -8.6 5.1 2.5
v -8.6 5.2 2.5
v -8.5 4 2.5
v -8.5 4.1 2.5
v -8.5 5.1 2.5
v -9.8 4 2.4
v -9.8 4.9 2.4
v -9.8 5.1 2.4
v -9.7 3.9 2.4
v -9.7 4 2.4
v -9.7 4.2 2.4
v -9.7 4.4 2.4
v -9.7 4.9 2.4
v -9.7 5.1 2.4
v -9.7 5.2 2.4
v -9.6 4.4 2.4
v -9.6 4.6 2.4
v -9.6 5.1 2.4
v -9.6 5.2 2.4
v -9.5 4.3 2.4
v -9.5 4.4 2.4
v -9.5 4.6 2.4
v -9.5 4.7 2.4
v -9.5 5.1 2.4
v -9.5 5.2 2.4
v -9.4 4.3 2.4
v -9.4 4.4 2.4
v -9.4 4.7 2.4
v -9.4 4.9 2.4
v -9.3 4.3 2.4
v -9.3 4.5 2.4
v -9.3 4.6 2.4
v -9.3 4.7 2.4
v -9.3 4.9 2.4
v -9.3 5 2.4
v -9.2 4.3 2.4
v -9.2 4.4 2.4
v -9.2 4.5 2.4
v -9.2 4.6 2.4
v -9.2 4.7 2.4
v -9.2 4.8 2.4
v -9.2 5 2.4
v -9.2 5.1 2.4
v -9.1 3.9 2.4
v -9.1 4 2.4
v -9.1 4.3 2.4
v -9.1 4.4 2.4
v -9.1 4.5 2.4
v -9.1 4.6 2.4
v -9.1 4.7 2.4
v -9.1 4.8 2.4
v -9.1 5 2.4
v -9.1 5.1 2.4
v -9 3.9 2.4
v -9 4 2.4
v -9 4.3 2.4
v -9 4.5 2.4
v -9 4.6 2.4
v -9 4.7 2.4
v -9 4.9 2.4
v -9 5 2.4
v -8.9 3.9 2.4
v -8.9 4 2.4
v -8.9 4.3 2.4
v -8.9 4.4 2.4
v -8.9 4.7 2.4
v -8.9 4.9 2.4
v -8.8 4.3 2.4
v -8.8 4.4 2.4
v -8.8 4.6 2.4
v -8.8 4.7 2.4
v -8.7 4.4 2.4
v -8.7 4.6 2.4
v -8.6 3.9 2.4
v -8.6 4 2.4
v -8.6 4.1 2.4
v -8.6 4.2 2.4
v -8.6 4.4 2.4
v -8.6 5.1 2.4
v -8.6 5.2 2.4
v -8.5 4 2.4
v -8.5 4.1 2.4
v -8.5 5.1 2.4
v -9.7 3.9 2.5
v -9.1 3.9 2.5
v -9 3.9 2.5
v -8.9 3.9 2.5
v -8.6 3.9 2.5
v -9.7 3.9 2.4
v -9.1 3.9 2.4
v -9 3.9 2.4
v -8.9 3.9 2.4
v -8.6 3.9 2.4
v -9.8 4 2.5
v -9.7 4 2.5
v -8.6 4 2.5
v -8.5 4 2.5
v -9.8 4 2.4
v -9.7 4 2.4
v -8.6 4 2.4
v -8.5 4 2.4
v -9.2 4.5 2.5
v -9.1 4.5 2.5
v -9.2 4.5 2.4
v -9.1 4.5 2.4
v -9.2 4.4 2.5
v -9.1 4.4 2.5
v -9.2 4.4 2.4
v -9.1 4.4 2.4
v -9.8 5.1 2.5
v -9.7 5.1 2.5
v -8.6 5.1 2.5
v -8.5 5.1 2.5
v -9.8 5.1 2.4
v -9.7 5.1 2.4
v -8.6 5.1 2.4
v -8.5 5.1 2.4
v -9.7 5.2 2.5
v -9.6 5.2 2.5
v -9.5 5.2 2.5
v -8.6 5.2 2.5
v -9.7 5.2 2.4
v -9.6 5.2 2.4
v -9.5 5.2 2.4
v -8.6 5.2 2.4

# faces
f 3/3/1 2/3/1 1/3/1
f 4/3/1 2/3/1 3/3/1
f 5/4/1 4/4/1 3/4/1
f 6/4/1 4/4/1 5/4/1
f 9/3/1 8/3/1 7/3/1
f 10/3/1 8/3/1 9/3/1
f 13/3/1 12/3/1 11/3/1
f 14/3/1 12/3/1 13/3/1
f 17/3/1 16/3/1 15/3/1
f 18/3/1 16/3/1 17/3/1
f 19/3/2 20/3/2 21/3/2
f 21/3/2 20/3/2 22/3/2
f 23/4/2 24/4/2 25/4/2
f 25/4/2 24/4/2 26/4/2
f 27/3/2 28/3/2 29/3/2
f 29/3/2 28/3/2 30/3/2
f 31/4/2 32/4/2 33/4/2
f 33/4/2 32/4/2 34/4/2
f 33/3/2 34/3/2 35/3/2
f 35/3/2 34/3/2 36/3/2
f 41/3/3 38/3/3 37/3/3
f 42/3/3 38/3/3 41/3/3
f 43/3/3 38/3/3 42/3/3
f 44/4/3 39/4/3 38/4/3
f 44/3/3 38/3/3 43/3/3
f 45/4/3 39/4/3 44/4/3
f 47/2/3 43/2/3 42/2/3
f 47/1/3 44/1/3 43/1/3
f 47/1/3 45/1/3 44/1/3
f 48/1/3 45/1/3 47/1/3
f 49/3/3 46/3/3 45/3/3
f 49/1/3 45/1/3 48/1/3
f 50/3/3 46/3/3 49/3/3
f 51/2/3 48/2/3 47/2/3
f 51/2/3 47/2/3 42/2/3
f 52/2/3 48/2/3 51/2/3
f 53/1/3 49/1/3 48/1/3
f 53/2/3 48/2/3 52/2/3
f 54/1/3 49/1/3 53/1/3
f 55/4/3 50/4/3 49/4/3
f 55/1/3 49/1/3 54/1/3
f 56/4/3 50/4/3 55/4/3
f 57/3/3 52/3/3 51/3/3
f 57/2/3 51/2/3 42/2/3
f 58/2/3 54/2/3 53/2/3
f 58/3/3 52/3/3 57/3/3
f 58/2/3 53/2/3 52/2/3
f 59/1/3 55/1/3 54/1/3
f 59/2/3 54/2/3 58/2/3
f 60/1/3 55/1/3 59/1/3
f 61/2/3 57/2/3 42/2/3
f 61/2/3 58/2/3 57/2/3
f 61/2/3 60/2/3 59/2/3
f 61/2/3 59/2/3 58/2/3
f 62/2/3 60/2/3 61/2/3
f 63/2/3 60/2/3 62/2/3
f 64/2/3 60/2/3 63/2/3
f 65/1/3 55/1/3 60/1/3
f 65/2/3 60/2/3 64/2/3
f 66/1/3 55/1/3 65/1/3
f 67/2/3 61/2/3 42/2/3
f 67/3/3 62/3/3 61/3/3
f 68/3/3 62/3/3 67/3/3
f 69/2/3 63/2/3 62/2/3
f 69/3/3 62/3/3 68/3/3
f 70/3/3 64/3/3 63/3/3
f 70/2/3 63/2/3 69/2/3
f 71/2/3 66/2/3 65/2/3
f 71/3/3 64/3/3 70/3/3
f 71/2/3 65/2/3 64/2/3
f 72/2/3 66/2/3 71/2/3
f 73/1/3 55/1/3 66/1/3
f 73/2/3 66/2/3 72/2/3
f 74/3/3 56/3/3 55/3/3
f 74/1/3 55/1/3 73/1/3
f 75/3/3 41/3/3 40/3/3
f 76/1/3 42/1/3 41/1/3
f 76/3/3 41/3/3 75/3/3
f 77/2/3 68/2/3 67/2/3
f 77/2/3 67/2/3 42/2/3
f 78/2/3 68/2/3 77/2/3
f 79/3/3 72/3/3 71/3/3
f 79/3/3 70/3/3 69/3/3
f 79/3/3 71/3/3 70/3/3
f 80/3/3 72/3/3 79/3/3
f 81/3/3 72/3/3 80/3/3
f 82/2/3 74/2/3 73/2/3
f 82/3/3 72/3/3 81/3/3
f 82/2/3 73/2/3 72/2/3
f 83/2/3 74/2/3 82/2/3
f 84/3/3 56/3/3 74/3/3
f 84/2/3 74/2/3 83/2/3
f 85/4/3 76/4/3 75/4/3
f 86/1/3 42/1/3 76/1/3
f 86/4/3 76/4/3 85/4/3
f 87/3/3 78/3/3 77/3/3
f 87/2/3 77/2/3 42/2/3
f 87/3/3 79/3/3 78/3/3
f 88/2/3 80/2/3 79/2/3
f 88/3/3 79/3/3 87/3/3
f 89/3/3 81/3/3 80/3/3
f 89/2/3 80/2/3 88/2/3
f 90/2/3 83/2/3 82/2/3
f 90/3/3 81/3/3 89/3/3
f 90/2/3 82/2/3 81/2/3
f 91/2/3 83/2/3 90/2/3
f 92/1/3 84/1/3 83/1/3
f 92/2/3 83/2/3 91/2/3
f 93/3/3 86/3/3 85/3/3
f 94/1/3 42/1/3 86/1/3
f 94/3/3 86/3/3 93/3/3
f 95/2/3 89/2/3 88/2/3
f 95/2/3 88/2/3 87/2/3
f 95/2/3 87/2/3 42/2/3
f 95/2/3 91/2/3 90/2/3
f 95/2/3 90/2/3 89/2/3
f 96/2/3 91/2/3 95/2/3
f 97/2/3 91/2/3 96/2/3
f 98/1/3 92/1/3 91/1/3
f 98/2/3 91/2/3 97/2/3
f 99/2/3 95/2/3 42/2/3
f 99/3/3 96/3/3 95/3/3
f 100/2/3 97/2/3 96/2/3
f 100/3/3 96/3/3 99/3/3
f 101/2/3 97/2/3 100/2/3
f 102/1/3 98/1/3 97/1/3
f 102/2/3 97/2/3 101/2/3
f 103/2/3 101/2/3 100/2/3
f 103/2/3 100/2/3 99/2/3
f 104/1/3 102/1/3 101/1/3
f 104/2/3 101/2/3 103/2/3
f 105/4/3 94/4/3 93/4/3
f 106/1/3 42/1/3 94/1/3
f 106/4/3 94/4/3 105/4/3
f 107/1/3 42/1/3 106/1/3
f 108/2/3 99/2/3 42/2/3
f 108/1/3 42/1/3 107/1/3
f 108/2/3 103/2/3 99/2/3
f 109/1/3 104/1/3 103/1/3
f 109/2/3 103/2/3 108/2/3
f 110/1/3 102/1/3 104/1/3
f 110/1/3 104/1/3 109/1/3
f 110/1/3 84/1/3 92/1/3
f 110/3/3 56/3/3 84/3/3
f 110/1/3 92/1/3 98/1/3
f 110/1/3 98/1/3 102/1/3
f 111/3/3 56/3/3 110/3/3
f 112/4/3 107/4/3 106/4/3
f 113/3/3 109/3/3 108/3/3
f 113/4/3 107/4/3 112/4/3
f 113/3/3 108/3/3 107/3/3
f 113/3/3 110/3/3 109/3/3
f 114/3/3 110/3/3 113/3/3
f 115/3/4 116/3/4 119/3/4
f 119/3/4 116/3/4 120/3/4
f 120/3/4 116/3/4 121/3/4
f 116/4/4 117/4/4 122/4/4
f 121/3/4 116/3/4 122/3/4
f 122/4/4 117/4/4 123/4/4
f 120/2/4 121/2/4 125/2/4
f 121/1/4 122/1/4 125/1/4
f 122/1/4 123/1/4 125/1/4
f 125/1/4 123/1/4 126/1/4
f 123/3/4 124/3/4 127/3/4
f 126/1/4 123/1/4 127/1/4
f 127/3/4 124/3/4 128/3/4
f 125/2/4 126/2/4 129/2/4
f 120/2/4 125/2/4 129/2/4
f 129/2/4 126/2/4 130/2/4
f 126/1/4 127/1/4 131/1/4
f 130/2/4 126/2/4 131/2/4
f 131/1/4 127/1/4 132/1/4
f 127/4/4 128/4/4 133/4/4
f 132/1/4 127/1/4 133/1/4
f 133/4/4 128/4/4 134/4/4
f 129/3/4 130/3/4 135/3/4
f 120/2/4 129/2/4 135/2/4
f 131/2/4 132/2/4 136/2/4
f 135/3/4 130/3/4 136/3/4
f 130/2/4 131/2/4 136/2/4
f 132/1/4 133/1/4 137/1/4
f 136/2/4 132/2/4 137/2/4
f 137/1/4 133/1/4 138/1/4
f 120/2/4 135/2/4 139/2/4
f 135/2/4 136/2/4 139/2/4
f 137/2/4 138/2/4 139/2/4
f 136/2/4 137/2/4 139/2/4
f 139/2/4 138/2/4 140/2/4
f 140/2/4 138/2/4 141/2/4
f 141/2/4 138/2/4 142/2/4
f 138/1/4 133/1/4 143/1/4
f 142/2/4 138/2/4 143/2/4
f 143/1/4 133/1/4 144/1/4
f 120/2/4 139/2/4 145/2/4
f 139/3/4 140/3/4 145/3/4
f 145/3/4 140/3/4 146/3/4
f 140/2/4 141/2/4 147/2/4
f 146/3/4 140/3/4 147/3/4
f 141/3/4 142/3/4 148/3/4
f 147/2/4 141/2/4 148/2/4
f 143/2/4 144/2/4 149/2/4
f 148/3/4 142/3/4 149/3/4
f 142/2/4 143/2/4 149/2/4
f 149/2/4 144/2/4 150/2/4
f 144/1/4 133/1/4 151/1/4
f 150/2/4 144/2/4 151/2/4
f 133/3/4 134/3/4 152/3/4
f 151/1/4 133/1/4 152/1/4
f 118/3/4 119/3/4 153/3/4
f 119/1/4 120/1/4 154/1/4
f 153/3/4 119/3/4 154/3/4
f 145/2/4 146/2/4 155/2/4
f 120/2/4 145/2/4 155/2/4
f 155/2/4 146/2/4 156/2/4
f 149/3/4 150/3/4 157/3/4
f 147/3/4 148/3/4 157/3/4
f 148/3/4 149/3/4 157/3/4
f 157/3/4 150/3/4 158/3/4
f 158/3/4 150/3/4 159/3/4
f 151/2/4 152/2/4 160/2/4
f 159/3/4 150/3/4 160/3/4
f 150/2/4 151/2/4 160/2/4
f 160/2/4 152/2/4 161/2/4
f 152/3/4 134/3/4 162/3/4
f 161/2/4 152/2/4 162/2/4
f 153/4/4 154/4/4 163/4/4
f 154/1/4 120/1/4 164/1/4
f 163/4/4 154/4/4 164/4/4
f 155/3/4 156/3/4 165/3/4
f 120/2/4 155/2/4 165/2/4
f 156/3/4 157/3/4 165/3/4
f 157/2/4 158/2/4 166/2/4
f 165/3/4 157/3/4 166/3/4
f 158/3/4 159/3/4 167/3/4
f 166/2/4 158/2/4 167/2/4
f 160/2/4 161/2/4 168/2/4
f 167/3/4 159/3/4 168/3/4
f 159/2/4 160/2/4 168/2/4
f 168/2/4 161/2/4 169/2/4
f 161/1/4 162/1/4 170/1/4
f 169/2/4 161/2/4 170/2/4
f 163/3/4 164/3/4 171/3/4
f 164/1/4 120/1/4 172/1/4
f 171/3/4 164/3/4 172/3/4
f 166/2/4 167/2/4 173/2/4
f 165/2/4 166/2/4 173/2/4
f 120/2/4 165/2/4 173/2/4
f 168/2/4 169/2/4 173/2/4
f 167/2/4 168/2/4 173/2/4
f 173/2/4 169/2/4 174/2/4
f 174/2/4 169/2/4 175/2/4
f 169/1/4 170/1/4 176/1/4
f 175/2/4 169/2/4 176/2/4
f 120/2/4 173/2/4 177/2/4
f 173/3/4 174/3/4 177/3/4
f 174/2/4 175/2/4 178/2/4
f 177/3/4 174/3/4 178/3/4
f 178/2/4 175/2/4 179/2/4
f 175/1/4 176/1/4 180/1/4
f 179/2/4 175/2/4 180/2/4
f 178/2/4 179/2/4 181/2/4
f 177/2/4 178/2/4 181/2/4
f 179/1/4 180/1/4 182/1/4
f 181/2/4 179/2/4 182/2/4
f 171/4/4 172/4/4 183/4/4
f 172/1/4 120/1/4 184/1/4
f 183/4/4 172/4/4 184/4/4
f 184/1/4 120/1/4 185/1/4
f 120/2/4 177/2/4 186/2/4
f 185/1/4 120/1/4 186/1/4
f 177/2/4 181/2/4 186/2/4
f 181/1/4 182/1/4 187/1/4
f 186/2/4 181/2/4 187/2/4
f 182/1/4 180/1/4 188/1/4
f 187/1/4 182/1/4 188/1/4
f 170/1/4 162/1/4 188/1/4
f 162/3/4 134/3/4 188/3/4
f 176/1/4 170/1/4 188/1/4
f 180/1/4 176/1/4 188/1/4
f 188/3/4 134/3/4 189/3/4
f 184/4/4 185/4/4 190/4/4
f 186/3/4 187/3/4 191/3/4
f 190/4/4 185/4/4 191/4/4
f 185/3/4 186/3/4 191/3/4
f 187/3/4 188/3/4 191/3/4
f 191/3/4 188/3/4 192/3/4
f 198/3/5 194/3/5 193/3/5
f 199/4/5 195/4/5 194/4/5
f 199/3/5 194/3/5 198/3/5
f 200/3/5 196/3/5 195/3/5
f 200/4/5 195/4/5 199/4/5
f 201/4/5 197/4/5 196/4/5
f 201/3/5 196/3/5 200/3/5
f 202/4/5 197/4/5 201/4/5
f 207/3/5 204/3/5 203/3/5
f 208/3/5 204/3/5 207/3/5
f 209/4/5 206/4/5 205/4/5
f 210/4/5 206/4/5 209/4/5
f 213/3/5 212/3/5 211/3/5
f 214/3/5 212/3/5 213/3/5
f 215/2/6 216/2/6 217/2/6
f 217/2/6 216/2/6 218/2/6
f 219/4/6 220/4/6 223/4/6
f 223/4/6 220/4/6 224/4/6
f 221/3/6 222/3/6 225/3/6
f 225/3/6 222/3/6 226/3/6
f 227/3/6 228/3/6 231/3/6
f 228/4/6 229/4/6 232/4/6
f 231/3/6 228/3/6 232/3/6
f 229/3/6 230/3/6 233/3/6
f 232/4/6 229/4/6 233/4/6
f 233/3/6 230/3/6 234/3/6
