# MagicaVoxel @ Ephtracy

# group
o 

# material
mtllib drzewko-29.mtl
usemtl palette

# normals
vn 1 0 0
vn -1 0 0
vn 0 0 1
vn 0 0 -1
vn 0 -1 0
vn 0 1 0

# texcoords
vt 0.912109 0.5
vt 0.916016 0.5
vt 0.919922 0.5
vt 0.923828 0.5
vt 0.927734 0.5

# verts
v -48.8 14.4 -7.2
v -48.8 14.4 -7.3
v -48.8 14.4 -7.4
v -48.8 14.5 -7.2
v -48.8 14.5 -7.3
v -48.8 14.5 -7.4
v -48.9 14.3 -7.1
v -48.9 14.3 -7.2
v -48.9 14.3 -7.3
v -48.9 14.3 -7.4
v -48.9 14.3 -7.5
v -48.9 14.4 -7.1
v -48.9 14.4 -7.2
v -48.9 14.4 -7.3
v -48.9 14.4 -7.4
v -48.9 14.4 -7.5
v -48.9 14.5 -6.9
v -48.9 14.5 -7
v -48.9 14.5 -7.1
v -48.9 14.5 -7.2
v -48.9 14.5 -7.3
v -48.9 14.5 -7.4
v -48.9 14.5 -7.5
v -48.9 14.5 -7.6
v -48.9 14.5 -7.7
v -48.9 14.6 -6.9
v -48.9 14.6 -7
v -48.9 14.6 -7.2
v -48.9 14.6 -7.3
v -48.9 14.6 -7.4
v -48.9 14.6 -7.6
v -48.9 14.6 -7.7
v -48.9 14.7 -6.8
v -48.9 14.7 -6.9
v -48.9 14.7 -7.7
v -48.9 14.7 -7.8
v -48.9 14.8 -6.8
v -48.9 14.8 -6.9
v -48.9 14.8 -7.7
v -48.9 14.8 -7.8
v -48.9 14.9 -6.9
v -48.9 14.9 -7
v -48.9 14.9 -7.1
v -48.9 14.9 -7.2
v -48.9 14.9 -7.3
v -48.9 14.9 -7.5
v -48.9 14.9 -7.6
v -48.9 14.9 -7.7
v -48.9 15 -6.9
v -48.9 15 -7
v -48.9 15 -7.1
v -48.9 15 -7.2
v -48.9 15 -7.3
v -48.9 15 -7.4
v -48.9 15 -7.5
v -48.9 15 -7.6
v -48.9 15 -7.7
v -48.9 15.1 -7.1
v -48.9 15.1 -7.2
v -48.9 15.1 -7.4
v -48.9 15.1 -7.5
v -49 14.3 -7
v -49 14.3 -7.1
v -49 14.3 -7.5
v -49 14.3 -7.6
v -49 14.4 -6.9
v -49 14.4 -7
v -49 14.4 -7.1
v -49 14.4 -7.5
v -49 14.4 -7.6
v -49 14.4 -7.7
v -49 14.5 -6.9
v -49 14.5 -7
v -49 14.5 -7.6
v -49 14.5 -7.7
v -49 14.7 -6.7
v -49 14.7 -6.8
v -49 14.7 -7.8
v -49 14.7 -7.9
v -49 14.8 -6.7
v -49 14.8 -6.8
v -49 14.8 -7.8
v -49 14.8 -7.9
v -49 15 -7
v -49 15 -7.1
v -49 15 -7.5
v -49 15 -7.6
v -49 15.1 -7
v -49 15.1 -7.1
v -49 15.1 -7.5
v -49 15.1 -7.6
v -49.1 14.2 -7.1
v -49.1 14.2 -7.2
v -49.1 14.2 -7.3
v -49.1 14.2 -7.4
v -49.1 14.2 -7.5
v -49.1 14.3 -7.1
v -49.1 14.3 -7.2
v -49.1 14.3 -7.3
v -49.1 14.3 -7.4
v -49.1 14.3 -7.5
v -49.1 14.6 -6.7
v -49.1 14.6 -6.8
v -49.1 14.6 -7.8
v -49.1 14.6 -7.9
v -49.1 14.7 -6.7
v -49.1 14.7 -6.8
v -49.1 14.7 -7.8
v -49.1 14.7 -7.9
v -49.1 14.9 -6.8
v -49.1 14.9 -6.9
v -49.1 14.9 -7.2
v -49.1 14.9 -7.4
v -49.1 14.9 -7.7
v -49.1 14.9 -7.8
v -49.1 15 -6.8
v -49.1 15 -6.9
v -49.1 15 -7.2
v -49.1 15 -7.3
v -49.1 15 -7.4
v -49.1 15 -7.7
v -49.1 15 -7.8
v -49.1 15.1 -7.2
v -49.1 15.1 -7.3
v -49.1 15.1 -7.4
v -49.2 13.9 -7.2
v -49.2 13.9 -7.4
v -49.2 14 -7.1
v -49.2 14 -7.2
v -49.2 14 -7.4
v -49.2 14 -7.5
v -49.2 14.1 -7
v -49.2 14.1 -7.1
v -49.2 14.1 -7.2
v -49.2 14.1 -7.4
v -49.2 14.1 -7.5
v -49.2 14.1 -7.6
v -49.2 14.2 -7
v -49.2 14.2 -7.1
v -49.2 14.2 -7.5
v -49.2 14.2 -7.6
v -49.2 14.3 -7
v -49.2 14.3 -7.1
v -49.2 14.3 -7.5
v -49.2 14.3 -7.6
v -49.2 14.4 -6.8
v -49.2 14.4 -6.9
v -49.2 14.4 -7
v -49.2 14.4 -7.1
v -49.2 14.4 -7.5
v -49.2 14.4 -7.6
v -49.2 14.4 -7.7
v -49.2 14.4 -7.8
v -49.2 14.5 -6.7
v -49.2 14.5 -6.8
v -49.2 14.5 -6.9
v -49.2 14.5 -7.7
v -49.2 14.5 -7.8
v -49.2 14.5 -7.9
v -49.2 14.6 -6.7
v -49.2 14.6 -6.8
v -49.2 14.6 -7.8
v -49.2 14.6 -7.9
v -49.2 14.8 -7.2
v -49.2 14.8 -7.3
v -49.2 14.8 -7.4
v -49.2 14.9 -7.2
v -49.2 14.9 -7.3
v -49.2 14.9 -7.4
v -49.3 14.2 -7
v -49.3 14.2 -7.1
v -49.3 14.2 -7.5
v -49.3 14.2 -7.6
v -49.3 14.3 -6.9
v -49.3 14.3 -7
v -49.3 14.3 -7.1
v -49.3 14.3 -7.5
v -49.3 14.3 -7.6
v -49.3 14.3 -7.7
v -49.3 14.4 -6.9
v -49.3 14.4 -7
v -49.3 14.4 -7.6
v -49.3 14.4 -7.7
v -49.3 14.9 -7
v -49.3 14.9 -7.1
v -49.3 14.9 -7.5
v -49.3 14.9 -7.6
v -49.3 15 -6.8
v -49.3 15 -6.9
v -49.3 15 -7
v -49.3 15 -7.1
v -49.3 15 -7.7
v -49.3 15 -7.8
v -49.3 15.1 -6.8
v -49.3 15.1 -6.9
v -49.3 15.1 -7
v -49.3 15.1 -7.1
v -49.3 15.1 -7.5
v -49.3 15.1 -7.6
v -49.3 15.1 -7.7
v -49.3 15.1 -7.8
v -49.4 13.9 -7.2
v -49.4 13.9 -7.3
v -49.4 13.9 -7.4
v -49.4 14 -7.2
v -49.4 14 -7.3
v -49.4 14 -7.4
v -49.4 14.1 -7.2
v -49.4 14.1 -7.3
v -49.4 14.1 -7.4
v -49.4 14.2 -7.1
v -49.4 14.2 -7.2
v -49.4 14.2 -7.4
v -49.4 14.2 -7.5
v -49.4 14.3 -6.8
v -49.4 14.3 -6.9
v -49.4 14.3 -7.1
v -49.4 14.3 -7.2
v -49.4 14.3 -7.4
v -49.4 14.3 -7.5
v -49.4 14.3 -7.7
v -49.4 14.3 -7.8
v -49.4 14.4 -6.8
v -49.4 14.4 -6.9
v -49.4 14.4 -7.1
v -49.4 14.4 -7.2
v -49.4 14.4 -7.4
v -49.4 14.4 -7.5
v -49.4 14.4 -7.7
v -49.4 14.4 -7.8
v -49.4 14.9 -6.9
v -49.4 14.9 -7
v -49.4 14.9 -7.1
v -49.4 14.9 -7.2
v -49.4 14.9 -7.3
v -49.4 14.9 -7.4
v -49.4 14.9 -7.5
v -49.4 14.9 -7.6
v -49.4 14.9 -7.7
v -49.4 15 -6.9
v -49.4 15 -7
v -49.4 15 -7.1
v -49.4 15 -7.3
v -49.4 15 -7.4
v -49.4 15 -7.5
v -49.4 15 -7.6
v -49.4 15 -7.7
v -49.5 14.3 -6.6
v -49.5 14.3 -6.7
v -49.5 14.3 -7.9
v -49.5 14.3 -8
v -49.5 14.4 -6.6
v -49.5 14.4 -6.7
v -49.5 14.4 -7.9
v -49.5 14.4 -8
v -49.5 14.5 -7
v -49.5 14.5 -7.1
v -49.5 14.5 -7.5
v -49.5 14.5 -7.6
v -49.5 14.6 -7
v -49.5 14.6 -7.1
v -49.5 14.6 -7.5
v -49.5 14.6 -7.6
v -49.5 14.7 -7
v -49.5 14.7 -7.1
v -49.5 14.7 -7.5
v -49.5 14.7 -7.6
v -49.5 14.8 -7
v -49.5 14.8 -7.1
v -49.5 14.8 -7.5
v -49.5 14.8 -7.6
v -49.5 15.1 -6.9
v -49.5 15.1 -7
v -49.5 15.1 -7.6
v -49.5 15.1 -7.7
v -49.5 15.2 -6.9
v -49.5 15.2 -7
v -49.5 15.2 -7.6
v -49.5 15.2 -7.7
v -49.6 14.2 -7.2
v -49.6 14.2 -7.3
v -49.6 14.2 -7.4
v -49.6 14.3 -7.3
v -49.6 14.3 -7.4
v -49.6 14.4 -6.9
v -49.6 14.4 -7
v -49.6 14.4 -7.1
v -49.6 14.4 -7.2
v -49.6 14.4 -7.3
v -49.6 14.4 -7.4
v -49.6 14.4 -7.5
v -49.6 14.4 -7.6
v -49.6 14.4 -7.7
v -49.6 14.5 -6.9
v -49.6 14.5 -7
v -49.6 14.5 -7.1
v -49.6 14.5 -7.5
v -49.6 14.5 -7.6
v -49.6 14.5 -7.7
v -49.7 14.3 -6.7
v -49.7 14.3 -6.8
v -49.7 14.3 -7.8
v -49.7 14.3 -7.9
v -49.7 14.4 -6.7
v -49.7 14.4 -6.8
v -49.7 14.4 -7.1
v -49.7 14.4 -7.2
v -49.7 14.4 -7.4
v -49.7 14.4 -7.5
v -49.7 14.4 -7.8
v -49.7 14.4 -7.9
v -49.7 14.5 -7.1
v -49.7 14.5 -7.2
v -49.7 14.5 -7.4
v -49.7 14.5 -7.5
v -49.7 14.8 -7
v -49.7 14.8 -7.1
v -49.7 14.8 -7.5
v -49.7 14.8 -7.6
v -49.7 14.9 -7
v -49.7 14.9 -7.1
v -49.7 14.9 -7.5
v -49.7 14.9 -7.6
v -49.7 15 -7.1
v -49.7 15 -7.2
v -49.7 15 -7.4
v -49.7 15 -7.5
v -49.7 15.1 -7.1
v -49.7 15.1 -7.2
v -49.7 15.1 -7.4
v -49.7 15.1 -7.5
v -49.8 14.9 -7.1
v -49.8 14.9 -7.2
v -49.8 14.9 -7.4
v -49.8 14.9 -7.5
v -49.8 15 -7.1
v -49.8 15 -7.2
v -49.8 15 -7.4
v -49.8 15 -7.5
v -48.9 14.4 -7.2
v -48.9 14.4 -7.3
v -48.9 14.4 -7.4
v -48.9 14.5 -7.2
v -48.9 14.5 -7.3
v -48.9 14.5 -7.4
v -49 14.4 -7.1
v -49 14.4 -7.2
v -49 14.4 -7.4
v -49 14.4 -7.5
v -49 14.5 -6.9
v -49 14.5 -7
v -49 14.5 -7.1
v -49 14.5 -7.2
v -49 14.5 -7.3
v -49 14.5 -7.4
v -49 14.5 -7.5
v -49 14.5 -7.6
v -49 14.5 -7.7
v -49 14.6 -6.9
v -49 14.6 -7
v -49 14.6 -7.2
v -49 14.6 -7.3
v -49 14.6 -7.4
v -49 14.6 -7.6
v -49 14.6 -7.7
v -49 14.7 -6.8
v -49 14.7 -6.9
v -49 14.7 -7.7
v -49 14.7 -7.8
v -49 14.8 -6.8
v -49 14.8 -6.9
v -49 14.8 -7.7
v -49 14.8 -7.8
v -49 14.9 -6.9
v -49 14.9 -7
v -49 14.9 -7.2
v -49 14.9 -7.3
v -49 14.9 -7.4
v -49 14.9 -7.6
v -49 14.9 -7.7
v -49 15 -6.9
v -49 15 -7
v -49 15 -7.1
v -49 15 -7.2
v -49 15 -7.3
v -49 15 -7.4
v -49 15 -7.5
v -49 15 -7.6
v -49 15 -7.7
v -49 15.1 -7.1
v -49 15.1 -7.2
v -49 15.1 -7.4
v -49 15.1 -7.5
v -49.1 14.3 -7
v -49.1 14.3 -7.1
v -49.1 14.3 -7.2
v -49.1 14.3 -7.4
v -49.1 14.3 -7.5
v -49.1 14.3 -7.6
v -49.1 14.4 -6.9
v -49.1 14.4 -7
v -49.1 14.4 -7.1
v -49.1 14.4 -7.2
v -49.1 14.4 -7.4
v -49.1 14.4 -7.5
v -49.1 14.4 -7.6
v -49.1 14.4 -7.7
v -49.1 14.5 -6.9
v -49.1 14.5 -7
v -49.1 14.5 -7.6
v -49.1 14.5 -7.7
v -49.1 14.7 -6.7
v -49.1 14.7 -6.8
v -49.1 14.7 -7.8
v -49.1 14.7 -7.9
v -49.1 14.8 -6.7
v -49.1 14.8 -6.8
v -49.1 14.8 -7.8
v -49.1 14.8 -7.9
v -49.1 14.9 -7.1
v -49.1 14.9 -7.2
v -49.1 14.9 -7.4
v -49.1 14.9 -7.5
v -49.1 15 -7
v -49.1 15 -7.1
v -49.1 15 -7.2
v -49.1 15 -7.4
v -49.1 15 -7.5
v -49.1 15 -7.6
v -49.1 15.1 -7
v -49.1 15.1 -7.1
v -49.1 15.1 -7.5
v -49.1 15.1 -7.6
v -49.2 14.2 -7.1
v -49.2 14.2 -7.2
v -49.2 14.2 -7.3
v -49.2 14.2 -7.4
v -49.2 14.2 -7.5
v -49.2 14.3 -7.1
v -49.2 14.3 -7.2
v -49.2 14.3 -7.3
v -49.2 14.3 -7.4
v -49.2 14.3 -7.5
v -49.2 14.4 -7.2
v -49.2 14.4 -7.3
v -49.2 14.4 -7.4
v -49.2 15 -7.2
v -49.2 15 -7.3
v -49.2 15 -7.4
v -49.2 15.1 -7.2
v -49.2 15.1 -7.3
v -49.2 15.1 -7.4
v -49.3 13.9 -7.2
v -49.3 13.9 -7.4
v -49.3 14 -7.1
v -49.3 14 -7.2
v -49.3 14 -7.4
v -49.3 14 -7.5
v -49.3 14.1 -7
v -49.3 14.1 -7.1
v -49.3 14.1 -7.2
v -49.3 14.1 -7.4
v -49.3 14.1 -7.5
v -49.3 14.1 -7.6
v -49.3 14.2 -7
v -49.3 14.2 -7.1
v -49.3 14.2 -7.5
v -49.3 14.2 -7.6
v -49.3 14.5 -6.7
v -49.3 14.5 -6.8
v -49.3 14.5 -7.8
v -49.3 14.5 -7.9
v -49.3 14.6 -6.7
v -49.3 14.6 -6.8
v -49.3 14.6 -7.8
v -49.3 14.6 -7.9
v -49.3 14.7 -6.7
v -49.3 14.7 -6.8
v -49.3 14.7 -7.8
v -49.3 14.7 -7.9
v -49.3 14.9 -7.2
v -49.3 14.9 -7.3
v -49.3 14.9 -7.4
v -49.3 15 -7.2
v -49.3 15 -7.3
v -49.3 15 -7.4
v -49.4 14.2 -7
v -49.4 14.2 -7.1
v -49.4 14.2 -7.5
v -49.4 14.2 -7.6
v -49.4 14.3 -7
v -49.4 14.3 -7.1
v -49.4 14.3 -7.5
v -49.4 14.3 -7.6
v -49.4 14.9 -6.8
v -49.4 14.9 -6.9
v -49.4 14.9 -7
v -49.4 14.9 -7.1
v -49.4 14.9 -7.5
v -49.4 14.9 -7.6
v -49.4 14.9 -7.7
v -49.4 14.9 -7.8
v -49.4 15 -6.8
v -49.4 15 -6.9
v -49.4 15 -7
v -49.4 15 -7.1
v -49.4 15 -7.5
v -49.4 15 -7.6
v -49.4 15 -7.7
v -49.4 15 -7.8
v -49.4 15.1 -6.8
v -49.4 15.1 -6.9
v -49.4 15.1 -7.7
v -49.4 15.1 -7.8
v -49.5 13.9 -7.2
v -49.5 13.9 -7.3
v -49.5 13.9 -7.4
v -49.5 14 -7.2
v -49.5 14 -7.3
v -49.5 14 -7.4
v -49.5 14.1 -7.2
v -49.5 14.1 -7.3
v -49.5 14.1 -7.4
v -49.5 14.3 -6.8
v -49.5 14.3 -6.9
v -49.5 14.3 -7.7
v -49.5 14.3 -7.8
v -49.5 14.4 -6.8
v -49.5 14.4 -6.9
v -49.5 14.4 -7.7
v -49.5 14.4 -7.8
v -49.5 14.8 -7.2
v -49.5 14.8 -7.3
v -49.5 14.8 -7.4
v -49.5 14.9 -7.1
v -49.5 14.9 -7.2
v -49.5 14.9 -7.3
v -49.5 14.9 -7.4
v -49.5 14.9 -7.5
v -49.5 15 -7
v -49.5 15 -7.1
v -49.5 15 -7.3
v -49.5 15 -7.4
v -49.5 15 -7.5
v -49.5 15 -7.6
v -49.5 15.1 -7
v -49.5 15.1 -7.1
v -49.5 15.1 -7.5
v -49.5 15.1 -7.6
v -49.6 14.2 -7.1
v -49.6 14.2 -7.2
v -49.6 14.2 -7.4
v -49.6 14.2 -7.5
v -49.6 14.3 -7.1
v -49.6 14.3 -7.2
v -49.6 14.3 -7.4
v -49.6 14.3 -7.5
v -49.6 14.5 -7
v -49.6 14.5 -7.1
v -49.6 14.5 -7.5
v -49.6 14.5 -7.6
v -49.6 14.6 -7
v -49.6 14.6 -7.1
v -49.6 14.6 -7.5
v -49.6 14.6 -7.6
v -49.6 14.7 -7
v -49.6 14.7 -7.1
v -49.6 14.7 -7.5
v -49.6 14.7 -7.6
v -49.6 14.8 -7
v -49.6 14.8 -7.1
v -49.6 14.8 -7.5
v -49.6 14.8 -7.6
v -49.6 15.1 -6.9
v -49.6 15.1 -7
v -49.6 15.1 -7.6
v -49.6 15.1 -7.7
v -49.6 15.2 -6.9
v -49.6 15.2 -7
v -49.6 15.2 -7.6
v -49.6 15.2 -7.7
v -49.7 14.2 -7.2
v -49.7 14.2 -7.3
v -49.7 14.2 -7.4
v -49.7 14.3 -6.6
v -49.7 14.3 -6.7
v -49.7 14.3 -7
v -49.7 14.3 -7.1
v -49.7 14.3 -7.2
v -49.7 14.3 -7.3
v -49.7 14.3 -7.4
v -49.7 14.3 -7.5
v -49.7 14.3 -7.6
v -49.7 14.3 -7.9
v -49.7 14.3 -8
v -49.7 14.4 -6.6
v -49.7 14.4 -6.7
v -49.7 14.4 -6.8
v -49.7 14.4 -6.9
v -49.7 14.4 -7
v -49.7 14.4 -7.1
v -49.7 14.4 -7.2
v -49.7 14.4 -7.3
v -49.7 14.4 -7.4
v -49.7 14.4 -7.5
v -49.7 14.4 -7.6
v -49.7 14.4 -7.7
v -49.7 14.4 -7.8
v -49.7 14.4 -7.9
v -49.7 14.4 -8
v -49.7 14.5 -6.8
v -49.7 14.5 -6.9
v -49.7 14.5 -7.1
v -49.7 14.5 -7.5
v -49.7 14.5 -7.6
v -49.7 14.5 -7.7
v -49.7 14.5 -7.8
v -49.7 14.9 -6.9
v -49.7 14.9 -7
v -49.7 14.9 -7.6
v -49.7 14.9 -7.7
v -49.7 15 -6.9
v -49.7 15 -7
v -49.7 15 -7.6
v -49.7 15 -7.7
v -49.8 14.3 -6.7
v -49.8 14.3 -6.8
v -49.8 14.3 -6.9
v -49.8 14.3 -7
v -49.8 14.3 -7.1
v -49.8 14.3 -7.2
v -49.8 14.3 -7.4
v -49.8 14.3 -7.5
v -49.8 14.3 -7.6
v -49.8 14.3 -7.7
v -49.8 14.3 -7.8
v -49.8 14.3 -7.9
v -49.8 14.4 -6.7
v -49.8 14.4 -6.8
v -49.8 14.4 -6.9
v -49.8 14.4 -7
v -49.8 14.4 -7.1
v -49.8 14.4 -7.2
v -49.8 14.4 -7.4
v -49.8 14.4 -7.5
v -49.8 14.4 -7.6
v -49.8 14.4 -7.7
v -49.8 14.4 -7.8
v -49.8 14.4 -7.9
v -49.8 14.5 -7.1
v -49.8 14.5 -7.2
v -49.8 14.5 -7.4
v -49.8 14.5 -7.5
v -49.8 14.8 -7
v -49.8 14.8 -7.1
v -49.8 14.8 -7.5
v -49.8 14.8 -7.6
v -49.8 14.9 -7
v -49.8 14.9 -7.1
v -49.8 14.9 -7.5
v -49.8 14.9 -7.6
v -49.8 15 -7.1
v -49.8 15 -7.2
v -49.8 15 -7.4
v -49.8 15 -7.5
v -49.8 15.1 -7.1
v -49.8 15.1 -7.2
v -49.8 15.1 -7.4
v -49.8 15.1 -7.5
v -49.9 14.9 -7.1
v -49.9 14.9 -7.2
v -49.9 14.9 -7.4
v -49.9 14.9 -7.5
v -49.9 15 -7.1
v -49.9 15 -7.2
v -49.9 15 -7.4
v -49.9 15 -7.5
v -49.5 14.3 -6.6
v -49.5 14.4 -6.6
v -49.6 14.3 -6.6
v -49.6 14.4 -6.6
v -49.7 14.3 -6.6
v -49.7 14.4 -6.6
v -49 14.7 -6.7
v -49 14.8 -6.7
v -49.1 14.6 -6.7
v -49.1 14.7 -6.7
v -49.1 14.8 -6.7
v -49.2 14.5 -6.7
v -49.2 14.6 -6.7
v -49.3 14.5 -6.7
v -49.3 14.6 -6.7
v -49.3 14.7 -6.7
v -49.7 14.3 -6.7
v -49.7 14.4 -6.7
v -49.8 14.3 -6.7
v -49.8 14.4 -6.7
v -48.9 14.7 -6.8
v -48.9 14.8 -6.8
v -49 14.7 -6.8
v -49 14.8 -6.8
v -49.1 14.9 -6.8
v -49.1 15 -6.8
v -49.2 14.4 -6.8
v -49.2 14.5 -6.8
v -49.3 14.4 -6.8
v -49.3 14.5 -6.8
v -49.3 14.9 -6.8
v -49.3 15 -6.8
v -49.3 15.1 -6.8
v -49.4 14.3 -6.8
v -49.4 14.4 -6.8
v -49.4 14.5 -6.8
v -49.4 14.9 -6.8
v -49.4 15 -6.8
v -49.4 15.1 -6.8
v -49.5 14.3 -6.8
v -49.5 14.4 -6.8
v -49.5 14.5 -6.8
v -49.7 14.4 -6.8
v -49.7 14.5 -6.8
v -48.9 14.5 -6.9
v -48.9 14.6 -6.9
v -48.9 14.9 -6.9
v -48.9 15 -6.9
v -49 14.4 -6.9
v -49 14.5 -6.9
v -49 14.6 -6.9
v -49 14.9 -6.9
v -49 15 -6.9
v -49.1 14.4 -6.9
v -49.1 14.5 -6.9
v -49.3 14.3 -6.9
v -49.3 14.4 -6.9
v -49.4 14.3 -6.9
v -49.4 14.4 -6.9
v -49.4 14.9 -6.9
v -49.4 15 -6.9
v -49.5 14.3 -6.9
v -49.5 14.4 -6.9
v -49.5 14.9 -6.9
v -49.5 15 -6.9
v -49.5 15.1 -6.9
v -49.5 15.2 -6.9
v -49.6 14.3 -6.9
v -49.6 14.4 -6.9
v -49.6 14.9 -6.9
v -49.6 15 -6.9
v -49.6 15.1 -6.9
v -49.6 15.2 -6.9
v -49.7 14.3 -6.9
v -49.7 14.4 -6.9
v -49.7 14.9 -6.9
v -49.7 15 -6.9
v -49.8 14.3 -6.9
v -49.8 14.4 -6.9
v -49 14.3 -7
v -49 14.4 -7
v -49 15 -7
v -49 15.1 -7
v -49.1 14.3 -7
v -49.1 14.4 -7
v -49.1 15 -7
v -49.1 15.1 -7
v -49.2 14.1 -7
v -49.2 14.2 -7
v -49.2 14.3 -7
v -49.2 14.4 -7
v -49.3 14.1 -7
v -49.3 14.2 -7
v -49.3 14.3 -7
v -49.3 14.4 -7
v -49.3 14.9 -7
v -49.3 15 -7
v -49.3 15.1 -7
v -49.4 14.2 -7
v -49.4 14.3 -7
v -49.4 14.9 -7
v -49.4 15 -7
v -49.5 14.5 -7
v -49.5 14.6 -7
v -49.5 14.7 -7
v -49.5 14.8 -7
v -49.5 15 -7
v -49.5 15.1 -7
v -49.6 14.5 -7
v -49.6 14.6 -7
v -49.6 14.7 -7
v -49.6 14.8 -7
v -49.7 14.8 -7
v -49.7 14.9 -7
v -49.8 14.8 -7
v -49.8 14.9 -7
v -48.9 14.3 -7.1
v -48.9 14.4 -7.1
v -48.9 14.5 -7.1
v -48.9 14.9 -7.1
v -48.9 15 -7.1
v -48.9 15.1 -7.1
v -49 14.3 -7.1
v -49 14.4 -7.1
v -49 14.5 -7.1
v -49 14.9 -7.1
v -49 15 -7.1
v -49 15.1 -7.1
v -49.1 14.2 -7.1
v -49.1 14.3 -7.1
v -49.1 14.9 -7.1
v -49.1 15 -7.1
v -49.2 14 -7.1
v -49.2 14.1 -7.1
v -49.2 14.2 -7.1
v -49.2 14.3 -7.1
v -49.3 14 -7.1
v -49.3 14.1 -7.1
v -49.4 14.2 -7.1
v -49.4 14.3 -7.1
v -49.4 14.9 -7.1
v -49.4 15 -7.1
v -49.5 14.2 -7.1
v -49.5 14.3 -7.1
v -49.5 14.9 -7.1
v -49.5 15 -7.1
v -49.6 14.2 -7.1
v -49.6 14.3 -7.1
v -49.7 14.3 -7.1
v -49.7 14.4 -7.1
v -49.7 14.5 -7.1
v -49.7 15 -7.1
v -49.7 15.1 -7.1
v -49.8 14.3 -7.1
v -49.8 14.4 -7.1
v -49.8 14.5 -7.1
v -49.8 14.9 -7.1
v -49.8 15 -7.1
v -49.8 15.1 -7.1
v -49.9 14.9 -7.1
v -49.9 15 -7.1
v -48.8 14.4 -7.2
v -48.8 14.5 -7.2
v -48.9 14.4 -7.2
v -48.9 14.5 -7.2
v -48.9 14.6 -7.2
v -49 14.5 -7.2
v -49 14.6 -7.2
v -49.1 14.3 -7.2
v -49.1 14.4 -7.2
v -49.1 14.9 -7.2
v -49.1 15 -7.2
v -49.1 15.1 -7.2
v -49.2 13.9 -7.2
v -49.2 14 -7.2
v -49.2 14.3 -7.2
v -49.2 14.4 -7.2
v -49.2 14.8 -7.2
v -49.2 14.9 -7.2
v -49.2 15 -7.2
v -49.2 15.1 -7.2
v -49.3 13.9 -7.2
v -49.3 14 -7.2
v -49.3 14.8 -7.2
v -49.3 14.9 -7.2
v -49.3 15 -7.2
v -49.4 13.9 -7.2
v -49.4 14 -7.2
v -49.4 14.1 -7.2
v -49.4 14.9 -7.2
v -49.5 13.9 -7.2
v -49.5 14 -7.2
v -49.5 14.1 -7.2
v -49.5 14.8 -7.2
v -49.5 14.9 -7.2
v -49.6 14.2 -7.2
v -49.6 14.3 -7.2
v -49.7 14.2 -7.2
v -49.7 14.3 -7.2
v -48.9 14.4 -7.4
v -48.9 14.5 -7.4
v -48.9 15 -7.4
v -48.9 15.1 -7.4
v -49 14.4 -7.4
v -49 14.5 -7.4
v -49 14.9 -7.4
v -49 15 -7.4
v -49 15.1 -7.4
v -49.1 14.9 -7.4
v -49.1 15 -7.4
v -49.2 14 -7.4
v -49.2 14.1 -7.4
v -49.3 14 -7.4
v -49.3 14.1 -7.4
v -49.4 14.2 -7.4
v -49.4 14.3 -7.4
v -49.4 14.4 -7.4
v -49.5 14.2 -7.4
v -49.5 14.3 -7.4
v -49.5 14.4 -7.4
v -49.6 14.2 -7.4
v -49.6 14.3 -7.4
v -49.6 14.4 -7.4
v -49.7 14.3 -7.4
v -49.7 14.4 -7.4
v -49.7 14.5 -7.4
v -49.7 15 -7.4
v -49.7 15.1 -7.4
v -49.8 14.3 -7.4
v -49.8 14.4 -7.4
v -49.8 14.5 -7.4
v -49.8 14.9 -7.4
v -49.8 15 -7.4
v -49.8 15.1 -7.4
v -49.9 14.9 -7.4
v -49.9 15 -7.4
v -49 15 -7.5
v -49 15.1 -7.5
v -49.1 15 -7.5
v -49.1 15.1 -7.5
v -49.2 14.1 -7.5
v -49.2 14.2 -7.5
v -49.2 14.3 -7.5
v -49.2 14.4 -7.5
v -49.3 14.1 -7.5
v -49.3 14.2 -7.5
v -49.3 14.3 -7.5
v -49.3 14.9 -7.5
v -49.3 15.1 -7.5
v -49.4 14.2 -7.5
v -49.4 14.3 -7.5
v -49.4 14.4 -7.5
v -49.4 14.9 -7.5
v -49.4 15 -7.5
v -49.4 15.1 -7.5
v -49.5 14.5 -7.5
v -49.5 14.6 -7.5
v -49.5 14.7 -7.5
v -49.5 14.8 -7.5
v -49.5 15 -7.5
v -49.5 15.1 -7.5
v -49.6 14.4 -7.5
v -49.6 14.5 -7.5
v -49.6 14.6 -7.5
v -49.6 14.7 -7.5
v -49.6 14.8 -7.5
v -49.7 14.4 -7.5
v -49.7 14.5 -7.5
v -49.7 14.8 -7.5
v -49.7 14.9 -7.5
v -49.8 14.8 -7.5
v -49.8 14.9 -7.5
v -48.9 14.5 -7.6
v -48.9 14.6 -7.6
v -48.9 14.9 -7.6
v -48.9 15 -7.6
v -49 14.4 -7.6
v -49 14.5 -7.6
v -49 14.6 -7.6
v -49 14.9 -7.6
v -49 15 -7.6
v -49.1 14.4 -7.6
v -49.1 14.5 -7.6
v -49.4 14.9 -7.6
v -49.4 15 -7.6
v -49.5 14.9 -7.6
v -49.5 15 -7.6
v -49.5 15.1 -7.6
v -49.5 15.2 -7.6
v -49.6 14.9 -7.6
v -49.6 15 -7.6
v -49.6 15.1 -7.6
v -49.6 15.2 -7.6
v -49.7 14.3 -7.6
v -49.7 14.4 -7.6
v -49.7 14.9 -7.6
v -49.7 15 -7.6
v -49.8 14.3 -7.6
v -49.8 14.4 -7.6
v -48.9 14.7 -7.7
v -48.9 14.8 -7.7
v -49 14.7 -7.7
v -49 14.8 -7.7
v -49.1 14.9 -7.7
v -49.1 15 -7.7
v -49.2 14.4 -7.7
v -49.2 14.5 -7.7
v -49.2 14.9 -7.7
v -49.2 15 -7.7
v -49.3 14.4 -7.7
v -49.3 15 -7.7
v -49.3 15.1 -7.7
v -49.4 14.4 -7.7
v -49.4 14.5 -7.7
v -49.4 14.9 -7.7
v -49.4 15 -7.7
v -49.4 15.1 -7.7
v -49.5 14.4 -7.7
v -49.5 14.5 -7.7
v -49.6 14.4 -7.7
v -49.6 14.5 -7.7
v -49 14.7 -7.8
v -49 14.8 -7.8
v -49.1 14.6 -7.8
v -49.1 14.7 -7.8
v -49.1 14.8 -7.8
v -49.2 14.5 -7.8
v -49.2 14.6 -7.8
v -49.2 14.7 -7.8
v -49.3 14.5 -7.8
v -49.3 14.6 -7.8
v -49.3 14.7 -7.8
v -49.7 14.3 -7.8
v -49.7 14.4 -7.8
v -49.8 14.3 -7.8
v -49.8 14.4 -7.8
v -49.5 14.3 -7.9
v -49.5 14.4 -7.9
v -49.6 14.3 -7.9
v -49.6 14.4 -7.9
v -49.7 14.3 -7.9
v -49.7 14.4 -7.9
v -49.5 14.3 -6.7
v -49.5 14.4 -6.7
v -49.6 14.3 -6.7
v -49.6 14.4 -6.7
v -49.7 14.3 -6.7
v -49.7 14.4 -6.7
v -49 14.7 -6.8
v -49 14.8 -6.8
v -49.1 14.6 -6.8
v -49.1 14.7 -6.8
v -49.1 14.8 -6.8
v -49.2 14.5 -6.8
v -49.2 14.6 -6.8
v -49.3 14.5 -6.8
v -49.3 14.6 -6.8
v -49.3 14.7 -6.8
v -49.7 14.3 -6.8
v -49.7 14.4 -6.8
v -49.8 14.3 -6.8
v -49.8 14.4 -6.8
v -48.9 14.7 -6.9
v -48.9 14.8 -6.9
v -49 14.7 -6.9
v -49 14.8 -6.9
v -49.1 14.9 -6.9
v -49.1 15 -6.9
v -49.2 14.4 -6.9
v -49.2 14.5 -6.9
v -49.3 14.4 -6.9
v -49.3 14.5 -6.9
v -49.3 14.9 -6.9
v -49.3 15 -6.9
v -49.3 15.1 -6.9
v -49.4 14.4 -6.9
v -49.4 14.5 -6.9
v -49.4 14.9 -6.9
v -49.4 15 -6.9
v -49.4 15.1 -6.9
v -49.5 14.4 -6.9
v -49.5 14.5 -6.9
v -49.6 14.4 -6.9
v -49.6 14.5 -6.9
v -48.9 14.5 -7
v -48.9 14.6 -7
v -48.9 14.9 -7
v -48.9 15 -7
v -49 14.4 -7
v -49 14.5 -7
v -49 14.6 -7
v -49 14.9 -7
v -49 15 -7
v -49.1 14.4 -7
v -49.1 14.5 -7
v -49.4 14.9 -7
v -49.4 15 -7
v -49.5 14.9 -7
v -49.5 15 -7
v -49.5 15.1 -7
v -49.5 15.2 -7
v -49.6 14.9 -7
v -49.6 15 -7
v -49.6 15.1 -7
v -49.6 15.2 -7
v -49.7 14.3 -7
v -49.7 14.4 -7
v -49.7 14.9 -7
v -49.7 15 -7
v -49.8 14.3 -7
v -49.8 14.4 -7
v -49 15 -7.1
v -49 15.1 -7.1
v -49.1 15 -7.1
v -49.1 15.1 -7.1
v -49.2 14.1 -7.1
v -49.2 14.2 -7.1
v -49.2 14.3 -7.1
v -49.2 14.4 -7.1
v -49.3 14.1 -7.1
v -49.3 14.2 -7.1
v -49.3 14.3 -7.1
v -49.3 14.4 -7.1
v -49.3 14.9 -7.1
v -49.3 15 -7.1
v -49.3 15.1 -7.1
v -49.4 14.2 -7.1
v -49.4 14.3 -7.1
v -49.4 14.4 -7.1
v -49.4 14.9 -7.1
v -49.4 15 -7.1
v -49.5 14.5 -7.1
v -49.5 14.6 -7.1
v -49.5 14.7 -7.1
v -49.5 14.8 -7.1
v -49.5 15 -7.1
v -49.5 15.1 -7.1
v -49.6 14.4 -7.1
v -49.6 14.5 -7.1
v -49.6 14.6 -7.1
v -49.6 14.7 -7.1
v -49.6 14.8 -7.1
v -49.7 14.4 -7.1
v -49.7 14.5 -7.1
v -49.7 14.8 -7.1
v -49.7 14.9 -7.1
v -49.8 14.8 -7.1
v -49.8 14.9 -7.1
v -48.9 14.4 -7.2
v -48.9 14.5 -7.2
v -48.9 15 -7.2
v -48.9 15.1 -7.2
v -49 14.4 -7.2
v -49 14.5 -7.2
v -49 14.9 -7.2
v -49 15 -7.2
v -49 15.1 -7.2
v -49.1 14.9 -7.2
v -49.1 15 -7.2
v -49.2 14 -7.2
v -49.2 14.1 -7.2
v -49.3 14 -7.2
v -49.3 14.1 -7.2
v -49.4 14.2 -7.2
v -49.4 14.3 -7.2
v -49.4 14.4 -7.2
v -49.5 14.2 -7.2
v -49.5 14.3 -7.2
v -49.5 14.4 -7.2
v -49.6 14.2 -7.2
v -49.6 14.4 -7.2
v -49.7 14.3 -7.2
v -49.7 14.4 -7.2
v -49.7 14.5 -7.2
v -49.7 15 -7.2
v -49.7 15.1 -7.2
v -49.8 14.3 -7.2
v -49.8 14.4 -7.2
v -49.8 14.5 -7.2
v -49.8 14.9 -7.2
v -49.8 15 -7.2
v -49.8 15.1 -7.2
v -49.9 14.9 -7.2
v -49.9 15 -7.2
v -48.8 14.4 -7.4
v -48.8 14.5 -7.4
v -48.9 14.4 -7.4
v -48.9 14.5 -7.4
v -48.9 14.6 -7.4
v -49 14.5 -7.4
v -49 14.6 -7.4
v -49.1 14.3 -7.4
v -49.1 14.4 -7.4
v -49.1 14.9 -7.4
v -49.1 15 -7.4
v -49.1 15.1 -7.4
v -49.2 13.9 -7.4
v -49.2 14 -7.4
v -49.2 14.3 -7.4
v -49.2 14.4 -7.4
v -49.2 14.8 -7.4
v -49.2 14.9 -7.4
v -49.2 15 -7.4
v -49.2 15.1 -7.4
v -49.3 13.9 -7.4
v -49.3 14 -7.4
v -49.3 14.8 -7.4
v -49.3 14.9 -7.4
v -49.3 15 -7.4
v -49.4 13.9 -7.4
v -49.4 14 -7.4
v -49.4 14.1 -7.4
v -49.4 14.8 -7.4
v -49.4 14.9 -7.4
v -49.5 13.9 -7.4
v -49.5 14 -7.4
v -49.5 14.1 -7.4
v -49.5 14.8 -7.4
v -49.5 14.9 -7.4
v -49.6 14.2 -7.4
v -49.6 14.3 -7.4
v -49.7 14.2 -7.4
v -49.7 14.3 -7.4
v -48.9 14.3 -7.5
v -48.9 14.4 -7.5
v -48.9 14.5 -7.5
v -48.9 14.9 -7.5
v -48.9 15 -7.5
v -48.9 15.1 -7.5
v -49 14.3 -7.5
v -49 14.4 -7.5
v -49 14.5 -7.5
v -49 14.9 -7.5
v -49 15 -7.5
v -49 15.1 -7.5
v -49.1 14.2 -7.5
v -49.1 14.3 -7.5
v -49.1 14.9 -7.5
v -49.1 15 -7.5
v -49.2 14 -7.5
v -49.2 14.1 -7.5
v -49.2 14.2 -7.5
v -49.2 14.3 -7.5
v -49.3 14 -7.5
v -49.3 14.1 -7.5
v -49.4 14.2 -7.5
v -49.4 14.3 -7.5
v -49.4 14.9 -7.5
v -49.4 15 -7.5
v -49.5 14.2 -7.5
v -49.5 14.3 -7.5
v -49.5 14.9 -7.5
v -49.5 15 -7.5
v -49.6 14.2 -7.5
v -49.6 14.3 -7.5
v -49.7 14.3 -7.5
v -49.7 14.4 -7.5
v -49.7 14.5 -7.5
v -49.7 15 -7.5
v -49.7 15.1 -7.5
v -49.8 14.3 -7.5
v -49.8 14.4 -7.5
v -49.8 14.5 -7.5
v -49.8 14.9 -7.5
v -49.8 15 -7.5
v -49.8 15.1 -7.5
v -49.9 14.9 -7.5
v -49.9 15 -7.5
v -49 14.3 -7.6
v -49 14.4 -7.6
v -49 15 -7.6
v -49 15.1 -7.6
v -49.1 14.3 -7.6
v -49.1 14.4 -7.6
v -49.1 15 -7.6
v -49.1 15.1 -7.6
v -49.2 14.1 -7.6
v -49.2 14.2 -7.6
v -49.2 14.3 -7.6
v -49.2 14.4 -7.6
v -49.3 14.1 -7.6
v -49.3 14.2 -7.6
v -49.3 14.3 -7.6
v -49.3 14.4 -7.6
v -49.3 14.9 -7.6
v -49.3 15.1 -7.6
v -49.4 14.2 -7.6
v -49.4 14.3 -7.6
v -49.4 14.9 -7.6
v -49.4 15 -7.6
v -49.4 15.1 -7.6
v -49.5 14.5 -7.6
v -49.5 14.6 -7.6
v -49.5 14.7 -7.6
v -49.5 14.8 -7.6
v -49.5 15 -7.6
v -49.5 15.1 -7.6
v -49.6 14.5 -7.6
v -49.6 14.6 -7.6
v -49.6 14.7 -7.6
v -49.6 14.8 -7.6
v -49.7 14.8 -7.6
v -49.7 14.9 -7.6
v -49.8 14.8 -7.6
v -49.8 14.9 -7.6
v -48.9 14.5 -7.7
v -48.9 14.6 -7.7
v -48.9 14.9 -7.7
v -48.9 15 -7.7
v -49 14.4 -7.7
v -49 14.5 -7.7
v -49 14.6 -7.7
v -49 14.9 -7.7
v -49 15 -7.7
v -49.1 14.4 -7.7
v -49.1 14.5 -7.7
v -49.3 14.3 -7.7
v -49.3 14.4 -7.7
v -49.4 14.3 -7.7
v -49.4 14.4 -7.7
v -49.4 14.9 -7.7
v -49.4 15 -7.7
v -49.5 14.3 -7.7
v -49.5 14.4 -7.7
v -49.5 14.9 -7.7
v -49.5 15 -7.7
v -49.5 15.1 -7.7
v -49.5 15.2 -7.7
v -49.6 14.4 -7.7
v -49.6 14.9 -7.7
v -49.6 15 -7.7
v -49.6 15.1 -7.7
v -49.6 15.2 -7.7
v -49.7 14.3 -7.7
v -49.7 14.4 -7.7
v -49.7 14.9 -7.7
v -49.7 15 -7.7
v -49.8 14.3 -7.7
v -49.8 14.4 -7.7
v -48.9 14.7 -7.8
v -48.9 14.8 -7.8
v -49 14.7 -7.8
v -49 14.8 -7.8
v -49.1 14.9 -7.8
v -49.1 15 -7.8
v -49.2 14.4 -7.8
v -49.2 14.5 -7.8
v -49.2 14.9 -7.8
v -49.2 15 -7.8
v -49.3 14.5 -7.8
v -49.3 15 -7.8
v -49.3 15.1 -7.8
v -49.4 14.3 -7.8
v -49.4 14.4 -7.8
v -49.4 14.5 -7.8
v -49.4 14.9 -7.8
v -49.4 15 -7.8
v -49.4 15.1 -7.8
v -49.5 14.3 -7.8
v -49.5 14.4 -7.8
v -49.5 14.5 -7.8
v -49.6 14.4 -7.8
v -49.6 14.5 -7.8
v -49.7 14.4 -7.8
v -49.7 14.5 -7.8
v -49 14.7 -7.9
v -49 14.8 -7.9
v -49.1 14.6 -7.9
v -49.1 14.7 -7.9
v -49.1 14.8 -7.9
v -49.2 14.5 -7.9
v -49.2 14.6 -7.9
v -49.2 14.7 -7.9
v -49.3 14.5 -7.9
v -49.3 14.6 -7.9
v -49.3 14.7 -7.9
v -49.7 14.3 -7.9
v -49.7 14.4 -7.9
v -49.8 14.3 -7.9
v -49.8 14.4 -7.9
v -49.5 14.3 -8
v -49.5 14.4 -8
v -49.6 14.3 -8
v -49.6 14.4 -8
v -49.7 14.3 -8
v -49.7 14.4 -8
v -49.2 13.9 -7.2
v -49.3 13.9 -7.2
v -49.4 13.9 -7.2
v -49.5 13.9 -7.2
v -49.4 13.9 -7.3
v -49.5 13.9 -7.3
v -49.2 13.9 -7.4
v -49.3 13.9 -7.4
v -49.4 13.9 -7.4
v -49.5 13.9 -7.4
v -49.2 14 -7.1
v -49.3 14 -7.1
v -49.2 14 -7.2
v -49.3 14 -7.2
v -49.2 14 -7.4
v -49.3 14 -7.4
v -49.2 14 -7.5
v -49.3 14 -7.5
v -49.2 14.1 -7
v -49.3 14.1 -7
v -49.2 14.1 -7.1
v -49.3 14.1 -7.1
v -49.2 14.1 -7.5
v -49.3 14.1 -7.5
v -49.2 14.1 -7.6
v -49.3 14.1 -7.6
v -49.3 14.2 -7
v -49.4 14.2 -7
v -49.1 14.2 -7.1
v -49.2 14.2 -7.1
v -49.3 14.2 -7.1
v -49.4 14.2 -7.1
v -49.5 14.2 -7.1
v -49.6 14.2 -7.1
v -49.1 14.2 -7.2
v -49.2 14.2 -7.2
v -49.4 14.2 -7.2
v -49.5 14.2 -7.2
v -49.6 14.2 -7.2
v -49.7 14.2 -7.2
v -49.1 14.2 -7.3
v -49.2 14.2 -7.3
v -49.6 14.2 -7.3
v -49.7 14.2 -7.3
v -49.1 14.2 -7.4
v -49.2 14.2 -7.4
v -49.4 14.2 -7.4
v -49.5 14.2 -7.4
v -49.6 14.2 -7.4
v -49.7 14.2 -7.4
v -49.1 14.2 -7.5
v -49.2 14.2 -7.5
v -49.3 14.2 -7.5
v -49.4 14.2 -7.5
v -49.5 14.2 -7.5
v -49.6 14.2 -7.5
v -49.3 14.2 -7.6
v -49.4 14.2 -7.6
v -49.5 14.3 -6.6
v -49.6 14.3 -6.6
v -49.7 14.3 -6.6
v -49.5 14.3 -6.7
v -49.6 14.3 -6.7
v -49.7 14.3 -6.7
v -49.8 14.3 -6.7
v -49.4 14.3 -6.8
v -49.5 14.3 -6.8
v -49.7 14.3 -6.8
v -49.8 14.3 -6.8
v -49.3 14.3 -6.9
v -49.4 14.3 -6.9
v -49.5 14.3 -6.9
v -49.6 14.3 -6.9
v -49.7 14.3 -6.9
v -49.8 14.3 -6.9
v -49 14.3 -7
v -49.1 14.3 -7
v -49.2 14.3 -7
v -49.3 14.3 -7
v -49.4 14.3 -7
v -49.5 14.3 -7
v -49.6 14.3 -7
v -49.7 14.3 -7
v -49.8 14.3 -7
v -48.9 14.3 -7.1
v -49 14.3 -7.1
v -49.1 14.3 -7.1
v -49.2 14.3 -7.1
v -49.3 14.3 -7.1
v -49.4 14.3 -7.1
v -49.5 14.3 -7.1
v -49.6 14.3 -7.1
v -49.7 14.3 -7.1
v -49.8 14.3 -7.1
v -48.9 14.3 -7.2
v -49 14.3 -7.2
v -49.1 14.3 -7.2
v -49.6 14.3 -7.2
v -49.7 14.3 -7.2
v -49.8 14.3 -7.2
v -48.9 14.3 -7.3
v -49 14.3 -7.3
v -49.1 14.3 -7.3
v -48.9 14.3 -7.4
v -49 14.3 -7.4
v -49.1 14.3 -7.4
v -49.6 14.3 -7.4
v -49.7 14.3 -7.4
v -49.8 14.3 -7.4
v -48.9 14.3 -7.5
v -49 14.3 -7.5
v -49.1 14.3 -7.5
v -49.2 14.3 -7.5
v -49.3 14.3 -7.5
v -49.4 14.3 -7.5
v -49.5 14.3 -7.5
v -49.6 14.3 -7.5
v -49.7 14.3 -7.5
v -49.8 14.3 -7.5
v -49 14.3 -7.6
v -49.1 14.3 -7.6
v -49.2 14.3 -7.6
v -49.3 14.3 -7.6
v -49.4 14.3 -7.6
v -49.5 14.3 -7.6
v -49.7 14.3 -7.6
v -49.8 14.3 -7.6
v -49.3 14.3 -7.7
v -49.4 14.3 -7.7
v -49.5 14.3 -7.7
v -49.7 14.3 -7.7
v -49.8 14.3 -7.7
v -49.4 14.3 -7.8
v -49.5 14.3 -7.8
v -49.7 14.3 -7.8
v -49.8 14.3 -7.8
v -49.5 14.3 -7.9
v -49.6 14.3 -7.9
v -49.7 14.3 -7.9
v -49.8 14.3 -7.9
v -49.5 14.3 -8
v -49.6 14.3 -8
v -49.7 14.3 -8
v -49.2 14.4 -6.8
v -49.3 14.4 -6.8
v -49.4 14.4 -6.8
v -49.5 14.4 -6.8
v -49.7 14.4 -6.8
v -49 14.4 -6.9
v -49.1 14.4 -6.9
v -49.2 14.4 -6.9
v -49.3 14.4 -6.9
v -49.4 14.4 -6.9
v -49.5 14.4 -6.9
v -49.6 14.4 -6.9
v -49.7 14.4 -6.9
v -49 14.4 -7
v -49.1 14.4 -7
v -48.8 14.4 -7.2
v -48.9 14.4 -7.2
v -48.8 14.4 -7.3
v -48.9 14.4 -7.3
v -48.8 14.4 -7.4
v -48.9 14.4 -7.4
v -49 14.4 -7.6
v -49.1 14.4 -7.6
v -49 14.4 -7.7
v -49.1 14.4 -7.7
v -49.2 14.4 -7.7
v -49.3 14.4 -7.7
v -49.4 14.4 -7.7
v -49.5 14.4 -7.7
v -49.6 14.4 -7.7
v -49.7 14.4 -7.7
v -49.2 14.4 -7.8
v -49.4 14.4 -7.8
v -49.5 14.4 -7.8
v -49.6 14.4 -7.8
v -49.7 14.4 -7.8
v -49.2 14.5 -6.7
v -49.3 14.5 -6.7
v -49.2 14.5 -6.8
v -49.3 14.5 -6.8
v -48.9 14.5 -6.9
v -49 14.5 -6.9
v -48.9 14.5 -7
v -49 14.5 -7
v -49.5 14.5 -7
v -49.6 14.5 -7
v -49.5 14.5 -7.1
v -49.6 14.5 -7.1
v -48.9 14.5 -7.2
v -49 14.5 -7.2
v -48.9 14.5 -7.3
v -49 14.5 -7.3
v -48.9 14.5 -7.4
v -49 14.5 -7.4
v -49.5 14.5 -7.5
v -49.6 14.5 -7.5
v -48.9 14.5 -7.6
v -49 14.5 -7.6
v -49.5 14.5 -7.6
v -49.6 14.5 -7.6
v -48.9 14.5 -7.7
v -49 14.5 -7.7
v -49.2 14.5 -7.8
v -49.3 14.5 -7.8
v -49.2 14.5 -7.9
v -49.3 14.5 -7.9
v -49.1 14.6 -6.7
v -49.2 14.6 -6.7
v -49.1 14.6 -6.8
v -49.2 14.6 -6.8
v -49.1 14.6 -7.8
v -49.2 14.6 -7.8
v -49.1 14.6 -7.9
v -49.2 14.6 -7.9
v -49 14.7 -6.7
v -49.1 14.7 -6.7
v -48.9 14.7 -6.8
v -49 14.7 -6.8
v -49.1 14.7 -6.8
v -48.9 14.7 -6.9
v -49 14.7 -6.9
v -49.5 14.7 -7
v -49.6 14.7 -7
v -49.5 14.7 -7.1
v -49.6 14.7 -7.1
v -49.5 14.7 -7.5
v -49.6 14.7 -7.5
v -49.5 14.7 -7.6
v -49.6 14.7 -7.6
v -48.9 14.7 -7.7
v -49 14.7 -7.7
v -48.9 14.7 -7.8
v -49 14.7 -7.8
v -49.1 14.7 -7.8
v -49 14.7 -7.9
v -49.1 14.7 -7.9
v -49.7 14.8 -7
v -49.8 14.8 -7
v -49.7 14.8 -7.1
v -49.8 14.8 -7.1
v -49.2 14.8 -7.2
v -49.3 14.8 -7.2
v -49.5 14.8 -7.2
v -49.2 14.8 -7.3
v -49.3 14.8 -7.3
v -49.4 14.8 -7.3
v -49.5 14.8 -7.3
v -49.2 14.8 -7.4
v -49.3 14.8 -7.4
v -49.4 14.8 -7.4
v -49.5 14.8 -7.4
v -49.7 14.8 -7.5
v -49.8 14.8 -7.5
v -49.7 14.8 -7.6
v -49.8 14.8 -7.6
v -49.1 14.9 -6.8
v -49.3 14.9 -6.8
v -49.4 14.9 -6.8
v -48.9 14.9 -6.9
v -49 14.9 -6.9
v -49.1 14.9 -6.9
v -49.3 14.9 -6.9
v -49.4 14.9 -6.9
v -49.5 14.9 -6.9
v -49.6 14.9 -6.9
v -49.7 14.9 -6.9
v -48.9 14.9 -7
v -49 14.9 -7
v -49.3 14.9 -7
v -49.4 14.9 -7
v -49.5 14.9 -7
v -49.6 14.9 -7
v -49.7 14.9 -7
v -48.9 14.9 -7.1
v -49 14.9 -7.1
v -49.1 14.9 -7.1
v -49.3 14.9 -7.1
v -49.4 14.9 -7.1
v -49.5 14.9 -7.1
v -49.8 14.9 -7.1
v -49.9 14.9 -7.1
v -48.9 14.9 -7.2
v -49 14.9 -7.2
v -49.1 14.9 -7.2
v -49.2 14.9 -7.2
v -49.4 14.9 -7.2
v -49.5 14.9 -7.2
v -49.8 14.9 -7.2
v -49.9 14.9 -7.2
v -48.9 14.9 -7.3
v -49 14.9 -7.3
v -49.2 14.9 -7.3
v -49 14.9 -7.4
v -49.1 14.9 -7.4
v -49.2 14.9 -7.4
v -49.4 14.9 -7.4
v -49.5 14.9 -7.4
v -49.8 14.9 -7.4
v -49.9 14.9 -7.4
v -48.9 14.9 -7.5
v -49 14.9 -7.5
v -49.1 14.9 -7.5
v -49.3 14.9 -7.5
v -49.4 14.9 -7.5
v -49.5 14.9 -7.5
v -49.8 14.9 -7.5
v -49.9 14.9 -7.5
v -48.9 14.9 -7.6
v -49 14.9 -7.6
v -49.3 14.9 -7.6
v -49.4 14.9 -7.6
v -49.5 14.9 -7.6
v -49.6 14.9 -7.6
v -49.7 14.9 -7.6
v -48.9 14.9 -7.7
v -49 14.9 -7.7
v -49.1 14.9 -7.7
v -49.2 14.9 -7.7
v -49.4 14.9 -7.7
v -49.5 14.9 -7.7
v -49.6 14.9 -7.7
v -49.7 14.9 -7.7
v -49.1 14.9 -7.8
v -49.2 14.9 -7.8
v -49.4 14.9 -7.8
v -49 15 -7
v -49.1 15 -7
v -49.4 15 -7
v -49.5 15 -7
v -49 15 -7.1
v -49.1 15 -7.1
v -49.4 15 -7.1
v -49.5 15 -7.1
v -49.7 15 -7.1
v -49.8 15 -7.1
v -49.7 15 -7.2
v -49.8 15 -7.2
v -49.7 15 -7.4
v -49.8 15 -7.4
v -49 15 -7.5
v -49.1 15 -7.5
v -49.4 15 -7.5
v -49.5 15 -7.5
v -49.7 15 -7.5
v -49.8 15 -7.5
v -49 15 -7.6
v -49.1 15 -7.6
v -49.4 15 -7.6
v -49.5 15 -7.6
v -49.5 15.1 -6.9
v -49.6 15.1 -6.9
v -49.5 15.1 -7
v -49.6 15.1 -7
v -49.5 15.1 -7.6
v -49.6 15.1 -7.6
v -49.5 15.1 -7.7
v -49.6 15.1 -7.7
v -49.2 14 -7.2
v -49.3 14 -7.2
v -49.2 14 -7.4
v -49.3 14 -7.4
v -49.2 14.1 -7.1
v -49.3 14.1 -7.1
v -49.2 14.1 -7.2
v -49.3 14.1 -7.2
v -49.4 14.1 -7.2
v -49.5 14.1 -7.2
v -49.4 14.1 -7.3
v -49.5 14.1 -7.3
v -49.2 14.1 -7.4
v -49.3 14.1 -7.4
v -49.4 14.1 -7.4
v -49.5 14.1 -7.4
v -49.2 14.1 -7.5
v -49.3 14.1 -7.5
v -49.2 14.2 -7
v -49.3 14.2 -7
v -49.2 14.2 -7.1
v -49.3 14.2 -7.1
v -49.2 14.2 -7.5
v -49.3 14.2 -7.5
v -49.2 14.2 -7.6
v -49.3 14.2 -7.6
v -49.1 14.3 -7.1
v -49.2 14.3 -7.1
v -49.1 14.3 -7.2
v -49.2 14.3 -7.2
v -49.1 14.3 -7.4
v -49.2 14.3 -7.4
v -49.1 14.3 -7.5
v -49.2 14.3 -7.5
v -49.5 14.4 -6.6
v -49.6 14.4 -6.6
v -49.7 14.4 -6.6
v -49.5 14.4 -6.7
v -49.6 14.4 -6.7
v -49.7 14.4 -6.7
v -49.8 14.4 -6.7
v -49.7 14.4 -6.8
v -49.8 14.4 -6.8
v -49.3 14.4 -6.9
v -49.4 14.4 -6.9
v -49.5 14.4 -6.9
v -49.6 14.4 -6.9
v -49.7 14.4 -6.9
v -49.8 14.4 -6.9
v -49 14.4 -7
v -49.1 14.4 -7
v -49.2 14.4 -7
v -49.3 14.4 -7
v -49.4 14.4 -7
v -49.5 14.4 -7
v -49.6 14.4 -7
v -49.7 14.4 -7
v -49.8 14.4 -7
v -49 14.4 -7.1
v -49.1 14.4 -7.1
v -49.2 14.4 -7.1
v -49.3 14.4 -7.1
v -49.4 14.4 -7.1
v -49.5 14.4 -7.1
v -49.6 14.4 -7.1
v -49.7 14.4 -7.1
v -48.9 14.4 -7.2
v -49 14.4 -7.2
v -49.1 14.4 -7.2
v -49.2 14.4 -7.2
v -49.4 14.4 -7.2
v -49.5 14.4 -7.2
v -49.6 14.4 -7.2
v -49.7 14.4 -7.2
v -48.9 14.4 -7.3
v -49 14.4 -7.3
v -49.1 14.4 -7.3
v -49.2 14.4 -7.3
v -49.6 14.4 -7.3
v -49.7 14.4 -7.3
v -48.9 14.4 -7.4
v -49 14.4 -7.4
v -49.1 14.4 -7.4
v -49.2 14.4 -7.4
v -49.4 14.4 -7.4
v -49.5 14.4 -7.4
v -49.6 14.4 -7.4
v -49.7 14.4 -7.4
v -49 14.4 -7.5
v -49.1 14.4 -7.5
v -49.2 14.4 -7.5
v -49.4 14.4 -7.5
v -49.5 14.4 -7.5
v -49.6 14.4 -7.5
v -49.7 14.4 -7.5
v -49 14.4 -7.6
v -49.1 14.4 -7.6
v -49.2 14.4 -7.6
v -49.3 14.4 -7.6
v -49.4 14.4 -7.6
v -49.5 14.4 -7.6
v -49.6 14.4 -7.6
v -49.7 14.4 -7.6
v -49.8 14.4 -7.6
v -49.3 14.4 -7.7
v -49.4 14.4 -7.7
v -49.5 14.4 -7.7
v -49.6 14.4 -7.7
v -49.7 14.4 -7.7
v -49.8 14.4 -7.7
v -49.7 14.4 -7.8
v -49.8 14.4 -7.8
v -49.5 14.4 -7.9
v -49.6 14.4 -7.9
v -49.7 14.4 -7.9
v -49.8 14.4 -7.9
v -49.5 14.4 -8
v -49.6 14.4 -8
v -49.7 14.4 -8
v -49.2 14.5 -6.8
v -49.3 14.5 -6.8
v -49.4 14.5 -6.8
v -49.5 14.5 -6.8
v -49.7 14.5 -6.8
v -49 14.5 -6.9
v -49.1 14.5 -6.9
v -49.2 14.5 -6.9
v -49.3 14.5 -6.9
v -49.4 14.5 -6.9
v -49.5 14.5 -6.9
v -49.6 14.5 -6.9
v -49.7 14.5 -6.9
v -49 14.5 -7
v -49.1 14.5 -7
v -49.6 14.5 -7
v -48.9 14.5 -7.1
v -49 14.5 -7.1
v -49.6 14.5 -7.1
v -49.7 14.5 -7.1
v -49.8 14.5 -7.1
v -48.8 14.5 -7.2
v -48.9 14.5 -7.2
v -49 14.5 -7.2
v -49.7 14.5 -7.2
v -49.8 14.5 -7.2
v -48.8 14.5 -7.3
v -48.9 14.5 -7.3
v -48.8 14.5 -7.4
v -48.9 14.5 -7.4
v -49 14.5 -7.4
v -49.7 14.5 -7.4
v -49.8 14.5 -7.4
v -48.9 14.5 -7.5
v -49 14.5 -7.5
v -49.6 14.5 -7.5
v -49.7 14.5 -7.5
v -49.8 14.5 -7.5
v -49 14.5 -7.6
v -49.1 14.5 -7.6
v -49.6 14.5 -7.6
v -49.7 14.5 -7.6
v -49 14.5 -7.7
v -49.1 14.5 -7.7
v -49.2 14.5 -7.7
v -49.4 14.5 -7.7
v -49.5 14.5 -7.7
v -49.6 14.5 -7.7
v -49.7 14.5 -7.7
v -49.2 14.5 -7.8
v -49.3 14.5 -7.8
v -49.4 14.5 -7.8
v -49.5 14.5 -7.8
v -49.6 14.5 -7.8
v -49.7 14.5 -7.8
v -48.9 14.6 -6.9
v -49 14.6 -6.9
v -48.9 14.6 -7
v -49 14.6 -7
v -49.5 14.6 -7
v -49.6 14.6 -7
v -49.5 14.6 -7.1
v -49.6 14.6 -7.1
v -48.9 14.6 -7.2
v -49 14.6 -7.2
v -48.9 14.6 -7.3
v -49 14.6 -7.3
v -48.9 14.6 -7.4
v -49 14.6 -7.4
v -49.5 14.6 -7.5
v -49.6 14.6 -7.5
v -48.9 14.6 -7.6
v -49 14.6 -7.6
v -49.5 14.6 -7.6
v -49.6 14.6 -7.6
v -48.9 14.6 -7.7
v -49 14.6 -7.7
v -49.1 14.7 -6.7
v -49.3 14.7 -6.7
v -49.1 14.7 -6.8
v -49.3 14.7 -6.8
v -49.1 14.7 -7.8
v -49.2 14.7 -7.8
v -49.3 14.7 -7.8
v -49.1 14.7 -7.9
v -49.2 14.7 -7.9
v -49.3 14.7 -7.9
v -49 14.8 -6.7
v -49.1 14.8 -6.7
v -48.9 14.8 -6.8
v -49 14.8 -6.8
v -49.1 14.8 -6.8
v -48.9 14.8 -6.9
v -49 14.8 -6.9
v -49.5 14.8 -7
v -49.6 14.8 -7
v -49.5 14.8 -7.1
v -49.6 14.8 -7.1
v -49.5 14.8 -7.5
v -49.6 14.8 -7.5
v -49.5 14.8 -7.6
v -49.6 14.8 -7.6
v -48.9 14.8 -7.7
v -49 14.8 -7.7
v -48.9 14.8 -7.8
v -49 14.8 -7.8
v -49.1 14.8 -7.8
v -49 14.8 -7.9
v -49.1 14.8 -7.9
v -49.7 14.9 -7
v -49.8 14.9 -7
v -49.7 14.9 -7.1
v -49.8 14.9 -7.1
v -49.3 14.9 -7.2
v -49.4 14.9 -7.2
v -49.3 14.9 -7.3
v -49.4 14.9 -7.3
v -49.3 14.9 -7.4
v -49.4 14.9 -7.4
v -49.7 14.9 -7.5
v -49.8 14.9 -7.5
v -49.7 14.9 -7.6
v -49.8 14.9 -7.6
v -49.1 15 -6.8
v -49.3 15 -6.8
v -48.9 15 -6.9
v -49 15 -6.9
v -49.1 15 -6.9
v -49.3 15 -6.9
v -49.4 15 -6.9
v -49.5 15 -6.9
v -49.6 15 -6.9
v -49.7 15 -6.9
v -48.9 15 -7
v -49 15 -7
v -49.4 15 -7
v -49.5 15 -7
v -49.6 15 -7
v -49.7 15 -7
v -49 15 -7.1
v -49.1 15 -7.1
v -49.4 15 -7.1
v -49.5 15 -7.1
v -49.8 15 -7.1
v -49.9 15 -7.1
v -48.9 15 -7.2
v -49 15 -7.2
v -49.1 15 -7.2
v -49.2 15 -7.2
v -49.3 15 -7.2
v -49.8 15 -7.2
v -49.9 15 -7.2
v -48.9 15 -7.3
v -49 15 -7.3
v -49.2 15 -7.3
v -49.3 15 -7.3
v -49.4 15 -7.3
v -49.5 15 -7.3
v -48.9 15 -7.4
v -49 15 -7.4
v -49.1 15 -7.4
v -49.2 15 -7.4
v -49.3 15 -7.4
v -49.4 15 -7.4
v -49.5 15 -7.4
v -49.8 15 -7.4
v -49.9 15 -7.4
v -49 15 -7.5
v -49.1 15 -7.5
v -49.4 15 -7.5
v -49.5 15 -7.5
v -49.8 15 -7.5
v -49.9 15 -7.5
v -48.9 15 -7.6
v -49 15 -7.6
v -49.4 15 -7.6
v -49.5 15 -7.6
v -49.6 15 -7.6
v -49.7 15 -7.6
v -48.9 15 -7.7
v -49 15 -7.7
v -49.1 15 -7.7
v -49.2 15 -7.7
v -49.3 15 -7.7
v -49.4 15 -7.7
v -49.5 15 -7.7
v -49.6 15 -7.7
v -49.7 15 -7.7
v -49.1 15 -7.8
v -49.2 15 -7.8
v -49.3 15 -7.8
v -49.3 15.1 -6.8
v -49.4 15.1 -6.8
v -49.3 15.1 -6.9
v -49.4 15.1 -6.9
v -49 15.1 -7
v -49.1 15.1 -7
v -49.3 15.1 -7
v -49.5 15.1 -7
v -48.9 15.1 -7.1
v -49 15.1 -7.1
v -49.1 15.1 -7.1
v -49.3 15.1 -7.1
v -49.5 15.1 -7.1
v -49.7 15.1 -7.1
v -49.8 15.1 -7.1
v -48.9 15.1 -7.2
v -49 15.1 -7.2
v -49.1 15.1 -7.2
v -49.2 15.1 -7.2
v -49.7 15.1 -7.2
v -49.8 15.1 -7.2
v -49.1 15.1 -7.3
v -49.2 15.1 -7.3
v -48.9 15.1 -7.4
v -49 15.1 -7.4
v -49.1 15.1 -7.4
v -49.2 15.1 -7.4
v -49.7 15.1 -7.4
v -49.8 15.1 -7.4
v -48.9 15.1 -7.5
v -49 15.1 -7.5
v -49.1 15.1 -7.5
v -49.3 15.1 -7.5
v -49.4 15.1 -7.5
v -49.5 15.1 -7.5
v -49.7 15.1 -7.5
v -49.8 15.1 -7.5
v -49 15.1 -7.6
v -49.1 15.1 -7.6
v -49.3 15.1 -7.6
v -49.4 15.1 -7.6
v -49.5 15.1 -7.6
v -49.3 15.1 -7.7
v -49.4 15.1 -7.7
v -49.3 15.1 -7.8
v -49.4 15.1 -7.8
v -49.5 15.2 -6.9
v -49.6 15.2 -6.9
v -49.5 15.2 -7
v -49.6 15.2 -7
v -49.5 15.2 -7.6
v -49.6 15.2 -7.6
v -49.5 15.2 -7.7
v -49.6 15.2 -7.7

# faces
f 1/4/1 2/4/1 4/4/1
f 2/3/1 3/3/1 5/3/1
f 4/4/1 2/4/1 5/4/1
f 5/3/1 3/3/1 6/3/1
f 7/2/1 8/2/1 12/2/1
f 8/1/1 9/1/1 13/1/1
f 12/2/1 8/2/1 13/2/1
f 9/4/1 10/4/1 14/4/1
f 13/1/1 9/1/1 14/1/1
f 10/3/1 11/3/1 15/3/1
f 14/4/1 10/4/1 15/4/1
f 15/3/1 11/3/1 16/3/1
f 12/5/1 13/5/1 19/5/1
f 19/5/1 13/5/1 20/5/1
f 15/4/1 16/4/1 22/4/1
f 22/4/1 16/4/1 23/4/1
f 17/5/1 18/5/1 26/5/1
f 26/5/1 18/5/1 27/5/1
f 20/2/1 21/2/1 28/2/1
f 21/1/1 22/1/1 29/1/1
f 28/2/1 21/2/1 29/2/1
f 29/1/1 22/1/1 30/1/1
f 24/4/1 25/4/1 31/4/1
f 31/4/1 25/4/1 32/4/1
f 33/5/1 34/5/1 37/5/1
f 37/5/1 34/5/1 38/5/1
f 35/2/1 36/2/1 39/2/1
f 39/2/1 36/2/1 40/2/1
f 41/5/1 42/5/1 49/5/1
f 49/5/1 42/5/1 50/5/1
f 43/5/1 44/5/1 51/5/1
f 44/1/1 45/1/1 52/1/1
f 51/5/1 44/5/1 52/5/1
f 45/3/1 46/3/1 53/3/1
f 52/1/1 45/1/1 53/1/1
f 53/3/1 46/3/1 54/3/1
f 54/3/1 46/3/1 55/3/1
f 47/1/1 48/1/1 56/1/1
f 56/1/1 48/1/1 57/1/1
f 51/3/1 52/3/1 58/3/1
f 58/3/1 52/3/1 59/3/1
f 54/5/1 55/5/1 60/5/1
f 60/5/1 55/5/1 61/5/1
f 62/2/1 63/2/1 67/2/1
f 67/2/1 63/2/1 68/2/1
f 64/4/1 65/4/1 69/4/1
f 69/4/1 65/4/1 70/4/1
f 66/5/1 67/5/1 72/5/1
f 72/5/1 67/5/1 73/5/1
f 70/4/1 71/4/1 74/4/1
f 74/4/1 71/4/1 75/4/1
f 76/2/1 77/2/1 80/2/1
f 80/2/1 77/2/1 81/2/1
f 78/1/1 79/1/1 82/1/1
f 82/1/1 79/1/1 83/1/1
f 84/3/1 85/3/1 88/3/1
f 88/3/1 85/3/1 89/3/1
f 86/1/1 87/1/1 90/1/1
f 90/1/1 87/1/1 91/1/1
f 92/1/1 93/1/1 97/1/1
f 93/3/1 94/3/1 98/3/1
f 97/1/1 93/1/1 98/1/1
f 94/2/1 95/2/1 99/2/1
f 98/3/1 94/3/1 99/3/1
f 95/1/1 96/1/1 100/1/1
f 99/2/1 95/2/1 100/2/1
f 100/1/1 96/1/1 101/1/1
f 102/2/1 103/2/1 106/2/1
f 106/2/1 103/2/1 107/2/1
f 104/4/1 105/4/1 108/4/1
f 108/4/1 105/4/1 109/4/1
f 110/3/1 111/3/1 116/3/1
f 116/3/1 111/3/1 117/3/1
f 112/2/1 113/2/1 118/2/1
f 118/2/1 113/2/1 119/2/1
f 119/2/1 113/2/1 120/2/1
f 114/3/1 115/3/1 121/3/1
f 121/3/1 115/3/1 122/3/1
f 118/5/1 119/5/1 123/5/1
f 119/2/1 120/2/1 124/2/1
f 123/5/1 119/5/1 124/5/1
f 124/2/1 120/2/1 125/2/1
f 126/2/1 127/2/1 129/2/1
f 129/2/1 127/2/1 130/2/1
f 128/4/1 129/4/1 133/4/1
f 133/4/1 129/4/1 134/4/1
f 130/5/1 131/5/1 135/5/1
f 135/5/1 131/5/1 136/5/1
f 132/3/1 133/3/1 138/3/1
f 138/3/1 133/3/1 139/3/1
f 136/3/1 137/3/1 140/3/1
f 140/3/1 137/3/1 141/3/1
f 142/4/1 143/4/1 148/4/1
f 148/4/1 143/4/1 149/4/1
f 144/2/1 145/2/1 150/2/1
f 150/2/1 145/2/1 151/2/1
f 146/2/1 147/2/1 155/2/1
f 155/2/1 147/2/1 156/2/1
f 152/3/1 153/3/1 157/3/1
f 157/3/1 153/3/1 158/3/1
f 154/3/1 155/3/1 160/3/1
f 160/3/1 155/3/1 161/3/1
f 158/4/1 159/4/1 162/4/1
f 162/4/1 159/4/1 163/4/1
f 164/1/1 165/1/1 167/1/1
f 165/2/1 166/2/1 168/2/1
f 167/1/1 165/1/1 168/1/1
f 168/2/1 166/2/1 169/2/1
f 170/2/1 171/2/1 175/2/1
f 175/2/1 171/2/1 176/2/1
f 172/1/1 173/1/1 177/1/1
f 177/1/1 173/1/1 178/1/1
f 174/4/1 175/4/1 180/4/1
f 180/4/1 175/4/1 181/4/1
f 178/3/1 179/3/1 182/3/1
f 182/3/1 179/3/1 183/3/1
f 184/4/1 185/4/1 190/4/1
f 190/4/1 185/4/1 191/4/1
f 188/1/1 189/1/1 194/1/1
f 194/1/1 189/1/1 195/1/1
f 190/1/1 191/1/1 196/1/1
f 196/1/1 191/1/1 197/1/1
f 186/4/1 187/4/1 198/4/1
f 198/4/1 187/4/1 199/4/1
f 192/2/1 193/2/1 200/2/1
f 200/2/1 193/2/1 201/2/1
f 202/2/1 203/2/1 205/2/1
f 203/3/1 204/3/1 206/3/1
f 205/2/1 203/2/1 206/2/1
f 206/3/1 204/3/1 207/3/1
f 205/4/1 206/4/1 208/4/1
f 206/5/1 207/5/1 209/5/1
f 208/4/1 206/4/1 209/4/1
f 209/5/1 207/5/1 210/5/1
f 211/5/1 212/5/1 217/5/1
f 217/5/1 212/5/1 218/5/1
f 213/4/1 214/4/1 219/4/1
f 219/4/1 214/4/1 220/4/1
f 215/3/1 216/3/1 223/3/1
f 223/3/1 216/3/1 224/3/1
f 217/2/1 218/2/1 225/2/1
f 225/2/1 218/2/1 226/2/1
f 219/3/1 220/3/1 227/3/1
f 227/3/1 220/3/1 228/3/1
f 221/4/1 222/4/1 229/4/1
f 229/4/1 222/4/1 230/4/1
f 231/1/1 232/1/1 240/1/1
f 240/1/1 232/1/1 241/1/1
f 233/1/1 234/1/1 242/1/1
f 234/1/1 235/1/1 242/1/1
f 235/2/1 236/2/1 243/2/1
f 242/1/1 235/1/1 243/1/1
f 236/1/1 237/1/1 244/1/1
f 243/2/1 236/2/1 244/2/1
f 244/1/1 237/1/1 245/1/1
f 238/4/1 239/4/1 246/4/1
f 246/4/1 239/4/1 247/4/1
f 248/2/1 249/2/1 252/2/1
f 252/2/1 249/2/1 253/2/1
f 250/1/1 251/1/1 254/1/1
f 254/1/1 251/1/1 255/1/1
f 256/1/1 257/1/1 260/1/1
f 260/1/1 257/1/1 261/1/1
f 258/3/1 259/3/1 262/3/1
f 262/3/1 259/3/1 263/3/1
f 264/3/1 265/3/1 268/3/1
f 268/3/1 265/3/1 269/3/1
f 266/4/1 267/4/1 270/4/1
f 270/4/1 267/4/1 271/4/1
f 272/1/1 273/1/1 276/1/1
f 276/1/1 273/1/1 277/1/1
f 274/3/1 275/3/1 278/3/1
f 278/3/1 275/3/1 279/3/1
f 280/1/1 281/1/1 283/1/1
f 281/4/1 282/4/1 283/4/1
f 283/4/1 282/4/1 284/4/1
f 280/1/1 283/1/1 288/1/1
f 283/2/1 284/2/1 289/2/1
f 288/1/1 283/1/1 289/1/1
f 289/2/1 284/2/1 290/2/1
f 286/3/1 287/3/1 294/3/1
f 285/3/1 286/3/1 294/3/1
f 294/3/1 287/3/1 295/3/1
f 295/3/1 287/3/1 296/3/1
f 291/2/1 292/2/1 297/2/1
f 292/4/1 293/4/1 298/4/1
f 297/2/1 292/2/1 298/2/1
f 298/4/1 293/4/1 299/4/1
f 300/5/1 301/5/1 304/5/1
f 304/5/1 301/5/1 305/5/1
f 302/1/1 303/1/1 310/1/1
f 310/1/1 303/1/1 311/1/1
f 306/2/1 307/2/1 312/2/1
f 312/2/1 307/2/1 313/2/1
f 308/3/1 309/3/1 314/3/1
f 314/3/1 309/3/1 315/3/1
f 316/1/1 317/1/1 320/1/1
f 320/1/1 317/1/1 321/1/1
f 318/5/1 319/5/1 322/5/1
f 322/5/1 319/5/1 323/5/1
f 324/4/1 325/4/1 328/4/1
f 328/4/1 325/4/1 329/4/1
f 326/5/1 327/5/1 330/5/1
f 330/5/1 327/5/1 331/5/1
f 332/5/1 333/5/1 336/5/1
f 336/5/1 333/5/1 337/5/1
f 334/2/1 335/2/1 338/2/1
f 338/2/1 335/2/1 339/2/1
f 343/4/2 341/4/2 340/4/2
f 344/3/2 342/3/2 341/3/2
f 344/4/2 341/4/2 343/4/2
f 345/3/2 342/3/2 344/3/2
f 352/5/2 347/5/2 346/5/2
f 353/5/2 347/5/2 352/5/2
f 355/4/2 349/4/2 348/4/2
f 356/4/2 349/4/2 355/4/2
f 359/5/2 351/5/2 350/5/2
f 360/5/2 351/5/2 359/5/2
f 361/2/2 354/2/2 353/2/2
f 362/1/2 355/1/2 354/1/2
f 362/2/2 354/2/2 361/2/2
f 363/1/2 355/1/2 362/1/2
f 364/4/2 358/4/2 357/4/2
f 365/4/2 358/4/2 364/4/2
f 370/5/2 367/5/2 366/5/2
f 371/5/2 367/5/2 370/5/2
f 372/2/2 369/2/2 368/2/2
f 373/2/2 369/2/2 372/2/2
f 381/5/2 375/5/2 374/5/2
f 382/5/2 375/5/2 381/5/2
f 384/1/2 377/1/2 376/1/2
f 385/3/2 378/3/2 377/3/2
f 385/1/2 377/1/2 384/1/2
f 386/3/2 378/3/2 385/3/2
f 388/1/2 380/1/2 379/1/2
f 389/1/2 380/1/2 388/1/2
f 390/3/2 384/3/2 383/3/2
f 391/3/2 384/3/2 390/3/2
f 392/5/2 387/5/2 386/5/2
f 393/5/2 387/5/2 392/5/2
f 401/2/2 395/2/2 394/2/2
f 402/1/2 396/1/2 395/1/2
f 402/2/2 395/2/2 401/2/2
f 403/1/2 396/1/2 402/1/2
f 404/5/2 398/5/2 397/5/2
f 405/4/2 399/4/2 398/4/2
f 405/5/2 398/5/2 404/5/2
f 406/4/2 399/4/2 405/4/2
f 408/5/2 401/5/2 400/5/2
f 409/5/2 401/5/2 408/5/2
f 410/4/2 407/4/2 406/4/2
f 411/4/2 407/4/2 410/4/2
f 416/2/2 413/2/2 412/2/2
f 417/2/2 413/2/2 416/2/2
f 418/1/2 415/1/2 414/1/2
f 419/1/2 415/1/2 418/1/2
f 425/3/2 421/3/2 420/3/2
f 426/3/2 421/3/2 425/3/2
f 427/1/2 423/1/2 422/1/2
f 428/1/2 423/1/2 427/1/2
f 430/3/2 425/3/2 424/3/2
f 431/3/2 425/3/2 430/3/2
f 432/1/2 429/1/2 428/1/2
f 433/1/2 429/1/2 432/1/2
f 439/1/2 435/1/2 434/1/2
f 440/3/2 436/3/2 435/3/2
f 440/1/2 435/1/2 439/1/2
f 441/2/2 437/2/2 436/2/2
f 441/3/2 436/3/2 440/3/2
f 442/1/2 438/1/2 437/1/2
f 442/2/2 437/2/2 441/2/2
f 443/1/2 438/1/2 442/1/2
f 444/3/2 441/3/2 440/3/2
f 445/5/2 442/5/2 441/5/2
f 445/3/2 441/3/2 444/3/2
f 446/5/2 442/5/2 445/5/2
f 450/5/2 448/5/2 447/5/2
f 451/2/2 449/2/2 448/2/2
f 451/5/2 448/5/2 450/5/2
f 452/2/2 449/2/2 451/2/2
f 456/2/2 454/2/2 453/2/2
f 457/2/2 454/2/2 456/2/2
f 460/4/2 456/4/2 455/4/2
f 461/4/2 456/4/2 460/4/2
f 462/5/2 458/5/2 457/5/2
f 463/5/2 458/5/2 462/5/2
f 465/3/2 460/3/2 459/3/2
f 466/3/2 460/3/2 465/3/2
f 467/3/2 464/3/2 463/3/2
f 468/3/2 464/3/2 467/3/2
f 473/3/2 470/3/2 469/3/2
f 474/3/2 470/3/2 473/3/2
f 475/4/2 472/4/2 471/4/2
f 476/4/2 472/4/2 475/4/2
f 477/2/2 474/2/2 473/2/2
f 478/2/2 474/2/2 477/2/2
f 479/5/2 476/5/2 475/5/2
f 480/5/2 476/5/2 479/5/2
f 484/3/2 482/3/2 481/3/2
f 485/4/2 483/4/2 482/4/2
f 485/3/2 482/3/2 484/3/2
f 486/4/2 483/4/2 485/4/2
f 491/2/2 488/2/2 487/2/2
f 492/2/2 488/2/2 491/2/2
f 493/1/2 490/1/2 489/1/2
f 494/1/2 490/1/2 493/1/2
f 503/4/2 496/4/2 495/4/2
f 504/4/2 496/4/2 503/4/2
f 505/4/2 498/4/2 497/4/2
f 506/4/2 498/4/2 505/4/2
f 507/4/2 500/4/2 499/4/2
f 508/4/2 500/4/2 507/4/2
f 509/4/2 502/4/2 501/4/2
f 510/4/2 502/4/2 509/4/2
f 511/1/2 504/1/2 503/1/2
f 512/1/2 504/1/2 511/1/2
f 513/2/2 510/2/2 509/2/2
f 514/2/2 510/2/2 513/2/2
f 518/2/2 516/2/2 515/2/2
f 519/3/2 517/3/2 516/3/2
f 519/2/2 516/2/2 518/2/2
f 520/3/2 517/3/2 519/3/2
f 521/4/2 519/4/2 518/4/2
f 522/5/2 520/5/2 519/5/2
f 522/4/2 519/4/2 521/4/2
f 523/5/2 520/5/2 522/5/2
f 528/3/2 525/3/2 524/3/2
f 529/3/2 525/3/2 528/3/2
f 530/4/2 527/4/2 526/4/2
f 531/4/2 527/4/2 530/4/2
f 536/4/2 533/4/2 532/4/2
f 537/1/2 534/1/2 533/1/2
f 537/4/2 533/4/2 536/4/2
f 538/1/2 534/1/2 537/1/2
f 541/1/2 536/1/2 535/1/2
f 541/1/2 537/1/2 536/1/2
f 542/2/2 538/2/2 537/2/2
f 542/1/2 537/1/2 541/1/2
f 543/1/2 539/1/2 538/1/2
f 543/2/2 538/2/2 542/2/2
f 544/1/2 539/1/2 543/1/2
f 546/1/2 541/1/2 540/1/2
f 547/1/2 541/1/2 546/1/2
f 548/5/2 545/5/2 544/5/2
f 549/5/2 545/5/2 548/5/2
f 554/1/2 551/1/2 550/1/2
f 555/1/2 551/1/2 554/1/2
f 556/3/2 553/3/2 552/3/2
f 557/3/2 553/3/2 556/3/2
f 562/1/2 559/1/2 558/1/2
f 563/1/2 559/1/2 562/1/2
f 564/3/2 561/3/2 560/3/2
f 565/3/2 561/3/2 564/3/2
f 570/3/2 567/3/2 566/3/2
f 571/3/2 567/3/2 570/3/2
f 572/4/2 569/4/2 568/4/2
f 573/4/2 569/4/2 572/4/2
f 578/1/2 575/1/2 574/1/2
f 579/1/2 575/1/2 578/1/2
f 580/3/2 577/3/2 576/3/2
f 581/3/2 577/3/2 580/3/2
f 589/1/2 583/1/2 582/1/2
f 590/4/2 584/4/2 583/4/2
f 590/1/2 583/1/2 589/1/2
f 591/4/2 584/4/2 590/4/2
f 596/5/2 586/5/2 585/5/2
f 597/5/2 586/5/2 596/5/2
f 600/3/2 588/3/2 587/3/2
f 601/3/2 588/3/2 600/3/2
f 602/1/2 590/1/2 589/1/2
f 603/2/2 591/2/2 590/2/2
f 603/1/2 590/1/2 602/1/2
f 604/2/2 591/2/2 603/2/2
f 605/2/2 593/2/2 592/2/2
f 606/2/2 593/2/2 605/2/2
f 609/5/2 595/5/2 594/5/2
f 610/5/2 595/5/2 609/5/2
f 611/1/2 599/1/2 598/1/2
f 612/3/2 601/3/2 600/3/2
f 612/1/2 599/1/2 611/1/2
f 612/3/2 600/3/2 599/3/2
f 613/3/2 601/3/2 612/3/2
f 614/2/2 606/2/2 605/2/2
f 615/4/2 607/4/2 606/4/2
f 615/2/2 606/2/2 614/2/2
f 616/5/2 608/5/2 607/5/2
f 616/4/2 607/4/2 615/4/2
f 617/5/2 608/5/2 616/5/2
f 622/5/2 619/5/2 618/5/2
f 623/5/2 619/5/2 622/5/2
f 624/2/2 621/2/2 620/2/2
f 625/2/2 621/2/2 624/2/2
f 638/5/2 627/5/2 626/5/2
f 639/5/2 627/5/2 638/5/2
f 640/1/2 629/1/2 628/1/2
f 641/1/2 629/1/2 640/1/2
f 642/1/2 631/1/2 630/1/2
f 643/1/2 631/1/2 642/1/2
f 644/4/2 633/4/2 632/4/2
f 645/4/2 633/4/2 644/4/2
f 646/4/2 635/4/2 634/4/2
f 647/4/2 635/4/2 646/4/2
f 648/1/2 637/1/2 636/1/2
f 649/1/2 637/1/2 648/1/2
f 650/2/2 643/2/2 642/2/2
f 651/2/2 643/2/2 650/2/2
f 652/3/2 645/3/2 644/3/2
f 653/3/2 645/3/2 652/3/2
f 658/1/2 655/1/2 654/1/2
f 659/1/2 655/1/2 658/1/2
f 660/5/2 657/5/2 656/5/2
f 661/5/2 657/5/2 660/5/2
f 666/4/2 663/4/2 662/4/2
f 667/4/2 663/4/2 666/4/2
f 668/5/2 665/5/2 664/5/2
f 669/5/2 665/5/2 668/5/2
f 674/5/2 671/5/2 670/5/2
f 675/5/2 671/5/2 674/5/2
f 676/2/2 673/2/2 672/2/2
f 677/2/2 673/2/2 676/2/2
f 678/2/3 679/2/3 680/2/3
f 680/2/3 679/2/3 681/2/3
f 680/5/3 681/5/3 682/5/3
f 682/5/3 681/5/3 683/5/3
f 684/2/3 685/2/3 687/2/3
f 687/2/3 685/2/3 688/2/3
f 686/2/3 687/2/3 690/2/3
f 689/3/3 690/3/3 691/3/3
f 690/2/3 687/2/3 692/2/3
f 691/3/3 690/3/3 692/3/3
f 692/2/3 687/2/3 693/2/3
f 694/5/3 695/5/3 696/5/3
f 696/5/3 695/5/3 697/5/3
f 698/5/3 699/5/3 700/5/3
f 700/5/3 699/5/3 701/5/3
f 704/2/3 705/2/3 706/2/3
f 706/2/3 705/2/3 707/2/3
f 702/3/3 703/3/3 708/3/3
f 708/3/3 703/3/3 709/3/3
f 706/1/3 707/1/3 712/1/3
f 712/1/3 707/1/3 713/1/3
f 708/4/3 709/4/3 714/4/3
f 709/1/3 710/1/3 715/1/3
f 714/4/3 709/4/3 715/4/3
f 715/1/3 710/1/3 716/1/3
f 712/3/3 713/3/3 717/3/3
f 711/3/3 712/3/3 717/3/3
f 717/3/3 713/3/3 718/3/3
f 718/3/3 713/3/3 719/3/3
f 718/1/3 719/1/3 720/1/3
f 720/1/3 719/1/3 721/1/3
f 722/5/3 723/5/3 727/5/3
f 727/5/3 723/5/3 728/5/3
f 724/5/3 725/5/3 729/5/3
f 729/5/3 725/5/3 730/5/3
f 726/5/3 727/5/3 731/5/3
f 731/5/3 727/5/3 732/5/3
f 733/4/3 734/4/3 735/4/3
f 735/4/3 734/4/3 736/4/3
f 737/1/3 738/1/3 741/1/3
f 741/1/3 738/1/3 742/1/3
f 739/4/3 740/4/3 745/4/3
f 745/4/3 740/4/3 746/4/3
f 741/2/3 742/2/3 747/2/3
f 747/2/3 742/2/3 748/2/3
f 743/1/3 744/1/3 749/1/3
f 749/1/3 744/1/3 750/1/3
f 745/2/3 746/2/3 751/2/3
f 751/2/3 746/2/3 752/2/3
f 747/5/3 748/5/3 753/5/3
f 753/5/3 748/5/3 754/5/3
f 751/1/3 752/1/3 755/1/3
f 755/1/3 752/1/3 756/1/3
f 757/2/3 758/2/3 761/2/3
f 761/2/3 758/2/3 762/2/3
f 759/3/3 760/3/3 763/3/3
f 763/3/3 760/3/3 764/3/3
f 765/3/3 766/3/3 769/3/3
f 769/3/3 766/3/3 770/3/3
f 767/4/3 768/4/3 771/4/3
f 771/4/3 768/4/3 772/4/3
f 770/2/3 771/2/3 776/2/3
f 776/2/3 771/2/3 777/2/3
f 773/4/3 774/4/3 778/4/3
f 774/1/3 775/1/3 779/1/3
f 778/4/3 774/4/3 779/4/3
f 779/1/3 775/1/3 784/1/3
f 784/1/3 775/1/3 785/1/3
f 780/1/3 781/1/3 786/1/3
f 786/1/3 781/1/3 787/1/3
f 782/3/3 783/3/3 788/3/3
f 788/3/3 783/3/3 789/3/3
f 790/1/3 791/1/3 792/1/3
f 792/1/3 791/1/3 793/1/3
f 794/2/3 795/2/3 800/2/3
f 795/5/3 796/5/3 801/5/3
f 800/2/3 795/2/3 801/2/3
f 801/5/3 796/5/3 802/5/3
f 797/5/3 798/5/3 803/5/3
f 798/3/3 799/3/3 804/3/3
f 803/5/3 798/5/3 804/5/3
f 804/3/3 799/3/3 805/3/3
f 803/3/3 804/3/3 808/3/3
f 808/3/3 804/3/3 809/3/3
f 806/1/3 807/1/3 812/1/3
f 812/1/3 807/1/3 813/1/3
f 810/4/3 811/4/3 814/4/3
f 814/4/3 811/4/3 815/4/3
f 816/5/3 817/5/3 820/5/3
f 820/5/3 817/5/3 821/5/3
f 818/1/3 819/1/3 822/1/3
f 822/1/3 819/1/3 823/1/3
f 820/1/3 821/1/3 824/1/3
f 824/1/3 821/1/3 825/1/3
f 826/1/3 827/1/3 831/1/3
f 827/2/3 828/2/3 832/2/3
f 831/1/3 827/1/3 832/1/3
f 832/2/3 828/2/3 833/2/3
f 829/4/3 830/4/3 835/4/3
f 835/4/3 830/4/3 836/4/3
f 834/5/3 835/5/3 837/5/3
f 837/5/3 835/5/3 838/5/3
f 839/4/3 840/4/3 841/4/3
f 841/4/3 840/4/3 842/4/3
f 842/2/3 843/2/3 844/2/3
f 844/2/3 843/2/3 845/2/3
f 846/3/3 847/3/3 853/3/3
f 853/3/3 847/3/3 854/3/3
f 848/2/3 849/2/3 856/2/3
f 849/5/3 850/5/3 857/5/3
f 856/2/3 849/2/3 857/2/3
f 857/5/3 850/5/3 858/5/3
f 851/2/3 852/2/3 859/2/3
f 859/2/3 852/2/3 860/2/3
f 855/1/3 856/1/3 861/1/3
f 856/3/3 857/3/3 862/3/3
f 861/1/3 856/1/3 862/1/3
f 862/3/3 857/3/3 863/3/3
f 861/4/3 862/4/3 867/4/3
f 864/2/3 865/2/3 868/2/3
f 865/4/3 866/4/3 869/4/3
f 868/2/3 865/2/3 869/2/3
f 869/4/3 866/4/3 870/4/3
f 861/4/3 867/4/3 871/4/3
f 871/4/3 867/4/3 872/4/3
f 873/1/3 874/1/3 875/1/3
f 875/1/3 874/1/3 876/1/3
f 877/4/3 878/4/3 881/4/3
f 881/4/3 878/4/3 882/4/3
f 879/5/3 880/5/3 884/5/3
f 884/5/3 880/5/3 885/5/3
f 883/1/3 884/1/3 886/1/3
f 886/1/3 884/1/3 887/1/3
f 888/5/3 889/5/3 890/5/3
f 890/5/3 889/5/3 891/5/3
f 892/4/3 893/4/3 895/4/3
f 893/3/3 894/3/3 896/3/3
f 895/4/3 893/4/3 896/4/3
f 896/3/3 894/3/3 897/3/3
f 895/3/3 896/3/3 898/3/3
f 896/2/3 897/2/3 899/2/3
f 898/3/3 896/3/3 899/3/3
f 899/2/3 897/2/3 900/2/3
f 901/4/3 902/4/3 906/4/3
f 902/3/3 903/3/3 907/3/3
f 906/4/3 902/4/3 907/4/3
f 907/3/3 903/3/3 908/3/3
f 904/5/3 905/5/3 910/5/3
f 910/5/3 905/5/3 911/5/3
f 909/2/3 910/2/3 912/2/3
f 912/2/3 910/2/3 913/2/3
f 914/1/3 915/1/3 916/1/3
f 916/1/3 915/1/3 917/1/3
f 918/3/3 919/3/3 922/3/3
f 922/3/3 919/3/3 923/3/3
f 920/2/3 921/2/3 924/2/3
f 923/1/3 924/1/3 927/1/3
f 924/2/3 921/2/3 928/2/3
f 927/1/3 924/1/3 928/1/3
f 928/2/3 921/2/3 929/2/3
f 925/4/3 926/4/3 930/4/3
f 930/4/3 926/4/3 931/4/3
f 931/4/3 926/4/3 932/4/3
f 931/5/3 932/5/3 937/5/3
f 937/5/3 932/5/3 938/5/3
f 933/3/3 934/3/3 940/3/3
f 940/3/3 934/3/3 941/3/3
f 935/4/3 936/4/3 942/4/3
f 942/4/3 936/4/3 943/4/3
f 939/2/3 940/2/3 944/2/3
f 944/2/3 940/2/3 945/2/3
f 946/5/3 947/5/3 948/5/3
f 948/5/3 947/5/3 949/5/3
f 950/4/3 951/4/3 955/4/3
f 955/4/3 951/4/3 956/4/3
f 952/1/3 953/1/3 957/1/3
f 957/1/3 953/1/3 958/1/3
f 954/4/3 955/4/3 959/4/3
f 959/4/3 955/4/3 960/4/3
f 961/4/3 962/4/3 963/4/3
f 963/4/3 962/4/3 964/4/3
f 963/1/3 964/1/3 967/1/3
f 967/1/3 964/1/3 968/1/3
f 965/3/3 966/3/3 969/3/3
f 969/3/3 966/3/3 970/3/3
f 967/2/3 968/2/3 973/2/3
f 973/2/3 968/2/3 974/2/3
f 971/4/3 972/4/3 975/4/3
f 975/4/3 972/4/3 976/4/3
f 977/2/3 978/2/3 979/2/3
f 979/2/3 978/2/3 980/2/3
f 981/3/3 982/3/3 985/3/3
f 985/3/3 982/3/3 986/3/3
f 983/3/3 984/3/3 987/3/3
f 985/4/3 986/4/3 988/4/3
f 987/3/3 984/3/3 990/3/3
f 990/3/3 984/3/3 991/3/3
f 985/4/3 988/4/3 992/4/3
f 988/2/3 989/2/3 993/2/3
f 992/4/3 988/4/3 993/4/3
f 993/2/3 989/2/3 994/2/3
f 990/5/3 991/5/3 995/5/3
f 995/5/3 991/5/3 996/5/3
f 995/3/3 996/3/3 997/3/3
f 997/3/3 996/3/3 998/3/3
f 999/1/3 1000/1/3 1002/1/3
f 1002/1/3 1000/1/3 1003/1/3
f 1001/4/3 1002/4/3 1005/4/3
f 1005/4/3 1002/4/3 1006/4/3
f 1004/4/3 1005/4/3 1007/4/3
f 1005/5/3 1006/5/3 1008/5/3
f 1007/4/3 1005/4/3 1008/4/3
f 1008/5/3 1006/5/3 1009/5/3
f 1010/1/3 1011/1/3 1012/1/3
f 1012/1/3 1011/1/3 1013/1/3
f 1014/1/3 1015/1/3 1016/1/3
f 1016/1/3 1015/1/3 1017/1/3
f 1016/5/3 1017/5/3 1018/5/3
f 1018/5/3 1017/5/3 1019/5/3
f 1022/2/4 1021/2/4 1020/2/4
f 1023/2/4 1021/2/4 1022/2/4
f 1024/5/4 1023/5/4 1022/5/4
f 1025/5/4 1023/5/4 1024/5/4
f 1029/2/4 1027/2/4 1026/2/4
f 1030/2/4 1027/2/4 1029/2/4
f 1032/2/4 1029/2/4 1028/2/4
f 1033/3/4 1032/3/4 1031/3/4
f 1034/2/4 1029/2/4 1032/2/4
f 1034/3/4 1032/3/4 1033/3/4
f 1035/2/4 1029/2/4 1034/2/4
f 1038/5/4 1037/5/4 1036/5/4
f 1039/5/4 1037/5/4 1038/5/4
f 1042/5/4 1041/5/4 1040/5/4
f 1043/5/4 1041/5/4 1042/5/4
f 1048/2/4 1047/2/4 1046/2/4
f 1049/2/4 1047/2/4 1048/2/4
f 1050/3/4 1045/3/4 1044/3/4
f 1051/3/4 1045/3/4 1050/3/4
f 1053/1/4 1049/1/4 1048/1/4
f 1054/1/4 1049/1/4 1053/1/4
f 1055/4/4 1051/4/4 1050/4/4
f 1056/1/4 1052/1/4 1051/1/4
f 1056/4/4 1051/4/4 1055/4/4
f 1057/1/4 1052/1/4 1056/1/4
f 1058/3/4 1054/3/4 1053/3/4
f 1059/3/4 1054/3/4 1058/3/4
f 1060/1/4 1059/1/4 1058/1/4
f 1061/1/4 1059/1/4 1060/1/4
f 1067/5/4 1063/5/4 1062/5/4
f 1068/5/4 1063/5/4 1067/5/4
f 1069/5/4 1065/5/4 1064/5/4
f 1070/5/4 1065/5/4 1069/5/4
f 1071/5/4 1067/5/4 1066/5/4
f 1072/5/4 1067/5/4 1071/5/4
f 1075/1/4 1074/1/4 1073/1/4
f 1076/1/4 1074/1/4 1075/1/4
f 1079/2/4 1076/2/4 1075/2/4
f 1080/2/4 1076/2/4 1079/2/4
f 1081/1/4 1078/1/4 1077/1/4
f 1082/1/4 1078/1/4 1081/1/4
f 1085/5/4 1080/5/4 1079/5/4
f 1086/5/4 1080/5/4 1085/5/4
f 1087/1/4 1084/1/4 1083/1/4
f 1088/1/4 1084/1/4 1087/1/4
f 1091/3/4 1090/3/4 1089/3/4
f 1092/3/4 1090/3/4 1091/3/4
f 1097/3/4 1094/3/4 1093/3/4
f 1098/3/4 1094/3/4 1097/3/4
f 1099/4/4 1096/4/4 1095/4/4
f 1100/4/4 1096/4/4 1099/4/4
f 1104/2/4 1099/2/4 1098/2/4
f 1105/5/4 1100/5/4 1099/5/4
f 1105/2/4 1099/2/4 1104/2/4
f 1106/5/4 1100/5/4 1105/5/4
f 1107/4/4 1102/4/4 1101/4/4
f 1108/1/4 1103/1/4 1102/1/4
f 1108/4/4 1102/4/4 1107/4/4
f 1113/1/4 1103/1/4 1108/1/4
f 1114/1/4 1103/1/4 1113/1/4
f 1116/1/4 1110/1/4 1109/1/4
f 1117/1/4 1110/1/4 1116/1/4
f 1118/3/4 1112/3/4 1111/3/4
f 1119/3/4 1112/3/4 1118/3/4
f 1120/3/4 1116/3/4 1115/3/4
f 1121/3/4 1116/3/4 1120/3/4
f 1124/1/4 1123/1/4 1122/1/4
f 1125/1/4 1123/1/4 1124/1/4
f 1130/5/4 1127/5/4 1126/5/4
f 1131/5/4 1127/5/4 1130/5/4
f 1133/3/4 1129/3/4 1128/3/4
f 1134/3/4 1129/3/4 1133/3/4
f 1135/3/4 1133/3/4 1132/3/4
f 1136/3/4 1133/3/4 1135/3/4
f 1139/4/4 1138/4/4 1137/4/4
f 1140/4/4 1138/4/4 1139/4/4
f 1144/5/4 1142/5/4 1141/5/4
f 1145/2/4 1143/2/4 1142/2/4
f 1145/5/4 1142/5/4 1144/5/4
f 1146/2/4 1143/2/4 1145/2/4
f 1147/1/4 1145/1/4 1144/1/4
f 1147/1/4 1146/1/4 1145/1/4
f 1148/1/4 1146/1/4 1147/1/4
f 1154/1/4 1150/1/4 1149/1/4
f 1155/2/4 1151/2/4 1150/2/4
f 1155/1/4 1150/1/4 1154/1/4
f 1156/2/4 1151/2/4 1155/2/4
f 1158/4/4 1153/4/4 1152/4/4
f 1159/4/4 1153/4/4 1158/4/4
f 1160/5/4 1158/5/4 1157/5/4
f 1161/5/4 1158/5/4 1160/5/4
f 1164/3/4 1163/3/4 1162/3/4
f 1165/3/4 1163/3/4 1164/3/4
f 1167/1/4 1166/1/4 1165/1/4
f 1168/1/4 1166/1/4 1167/1/4
f 1176/5/4 1170/5/4 1169/5/4
f 1177/5/4 1170/5/4 1176/5/4
f 1179/2/4 1172/2/4 1171/2/4
f 1179/2/4 1173/2/4 1172/2/4
f 1180/2/4 1173/2/4 1179/2/4
f 1181/2/4 1173/2/4 1180/2/4
f 1182/2/4 1175/2/4 1174/2/4
f 1183/2/4 1175/2/4 1182/2/4
f 1184/2/4 1179/2/4 1178/2/4
f 1185/4/4 1180/4/4 1179/4/4
f 1185/2/4 1179/2/4 1184/2/4
f 1186/4/4 1180/4/4 1185/4/4
f 1190/5/4 1185/5/4 1184/5/4
f 1191/5/4 1185/5/4 1190/5/4
f 1192/3/4 1188/3/4 1187/3/4
f 1193/5/4 1189/5/4 1188/5/4
f 1193/3/4 1188/3/4 1192/3/4
f 1194/5/4 1189/5/4 1193/5/4
f 1195/1/4 1191/1/4 1190/1/4
f 1196/1/4 1191/1/4 1195/1/4
f 1199/4/4 1198/4/4 1197/4/4
f 1200/4/4 1198/4/4 1199/4/4
f 1207/3/4 1202/3/4 1201/3/4
f 1208/4/4 1203/4/4 1202/4/4
f 1208/3/4 1202/3/4 1207/3/4
f 1209/4/4 1203/4/4 1208/4/4
f 1210/3/4 1205/3/4 1204/3/4
f 1211/5/4 1206/5/4 1205/5/4
f 1211/3/4 1205/3/4 1210/3/4
f 1212/5/4 1206/5/4 1211/5/4
f 1215/1/4 1211/1/4 1210/1/4
f 1216/1/4 1211/1/4 1215/1/4
f 1219/1/4 1214/1/4 1213/1/4
f 1220/1/4 1214/1/4 1219/1/4
f 1221/5/4 1218/5/4 1217/5/4
f 1222/5/4 1218/5/4 1221/5/4
f 1227/4/4 1224/4/4 1223/4/4
f 1228/4/4 1224/4/4 1227/4/4
f 1229/1/4 1226/1/4 1225/1/4
f 1230/1/4 1226/1/4 1229/1/4
f 1231/3/4 1228/3/4 1227/3/4
f 1232/3/4 1228/3/4 1231/3/4
f 1238/4/4 1234/4/4 1233/4/4
f 1239/3/4 1235/3/4 1234/3/4
f 1239/4/4 1234/4/4 1238/4/4
f 1240/3/4 1235/3/4 1239/3/4
f 1242/5/4 1237/5/4 1236/5/4
f 1243/5/4 1237/5/4 1242/5/4
f 1244/2/4 1242/2/4 1241/2/4
f 1245/2/4 1242/2/4 1244/2/4
f 1250/4/4 1247/4/4 1246/4/4
f 1251/4/4 1247/4/4 1250/4/4
f 1252/1/4 1249/1/4 1248/1/4
f 1253/1/4 1249/1/4 1252/1/4
f 1258/3/4 1255/3/4 1254/3/4
f 1259/3/4 1255/3/4 1258/3/4
f 1260/2/4 1257/2/4 1256/2/4
f 1261/2/4 1257/2/4 1260/2/4
f 1264/1/4 1260/1/4 1259/1/4
f 1265/1/4 1260/1/4 1264/1/4
f 1266/4/4 1263/4/4 1262/4/4
f 1267/4/4 1263/4/4 1266/4/4
f 1268/4/4 1263/4/4 1267/4/4
f 1273/5/4 1268/5/4 1267/5/4
f 1274/5/4 1268/5/4 1273/5/4
f 1275/3/4 1270/3/4 1269/3/4
f 1276/3/4 1270/3/4 1275/3/4
f 1277/4/4 1272/4/4 1271/4/4
f 1278/4/4 1272/4/4 1277/4/4
f 1281/5/4 1280/5/4 1279/5/4
f 1282/5/4 1280/5/4 1281/5/4
f 1288/4/4 1284/4/4 1283/4/4
f 1289/4/4 1284/4/4 1288/4/4
f 1290/1/4 1286/1/4 1285/1/4
f 1291/1/4 1286/1/4 1290/1/4
f 1292/4/4 1288/4/4 1287/4/4
f 1293/4/4 1288/4/4 1292/4/4
f 1296/3/4 1295/3/4 1294/3/4
f 1297/3/4 1295/3/4 1296/3/4
f 1302/4/4 1299/4/4 1298/4/4
f 1303/4/4 1299/4/4 1302/4/4
f 1306/3/4 1301/3/4 1300/3/4
f 1307/1/4 1303/1/4 1302/1/4
f 1308/1/4 1303/1/4 1307/1/4
f 1309/3/4 1305/3/4 1304/3/4
f 1310/3/4 1305/3/4 1309/3/4
f 1311/3/4 1306/3/4 1300/3/4
f 1312/3/4 1306/3/4 1311/3/4
f 1313/2/4 1308/2/4 1307/2/4
f 1314/2/4 1308/2/4 1313/2/4
f 1315/4/4 1312/4/4 1311/4/4
f 1316/4/4 1312/4/4 1315/4/4
f 1319/2/4 1318/2/4 1317/2/4
f 1320/2/4 1318/2/4 1319/2/4
f 1325/3/4 1322/3/4 1321/3/4
f 1326/3/4 1322/3/4 1325/3/4
f 1327/3/4 1324/3/4 1323/3/4
f 1328/4/4 1326/4/4 1325/4/4
f 1331/3/4 1327/3/4 1323/3/4
f 1332/3/4 1327/3/4 1331/3/4
f 1333/4/4 1328/4/4 1325/4/4
f 1334/2/4 1329/2/4 1328/2/4
f 1334/4/4 1328/4/4 1333/4/4
f 1335/2/4 1329/2/4 1334/2/4
f 1336/4/4 1331/4/4 1330/4/4
f 1337/5/4 1332/5/4 1331/5/4
f 1337/4/4 1331/4/4 1336/4/4
f 1338/5/4 1332/5/4 1337/5/4
f 1339/3/4 1338/3/4 1337/3/4
f 1340/3/4 1338/3/4 1339/3/4
f 1341/5/4 1340/5/4 1339/5/4
f 1342/5/4 1340/5/4 1341/5/4
f 1346/1/4 1344/1/4 1343/1/4
f 1347/1/4 1344/1/4 1346/1/4
f 1349/4/4 1346/4/4 1345/4/4
f 1350/4/4 1346/4/4 1349/4/4
f 1351/4/4 1349/4/4 1348/4/4
f 1352/5/4 1350/5/4 1349/5/4
f 1352/4/4 1349/4/4 1351/4/4
f 1353/5/4 1350/5/4 1352/5/4
f 1356/1/4 1355/1/4 1354/1/4
f 1357/1/4 1355/1/4 1356/1/4
f 1360/1/4 1359/1/4 1358/1/4
f 1361/1/4 1359/1/4 1360/1/4
f 1362/5/4 1361/5/4 1360/5/4
f 1363/5/4 1361/5/4 1362/5/4
f 1366/2/5 1367/2/5 1368/2/5
f 1368/2/5 1367/2/5 1369/2/5
f 1364/2/5 1365/2/5 1370/2/5
f 1370/2/5 1365/2/5 1371/2/5
f 1368/3/5 1369/3/5 1372/3/5
f 1372/3/5 1369/3/5 1373/3/5
f 1374/4/5 1375/4/5 1376/4/5
f 1376/4/5 1375/4/5 1377/4/5
f 1378/5/5 1379/5/5 1380/5/5
f 1380/5/5 1379/5/5 1381/5/5
f 1382/3/5 1383/3/5 1384/3/5
f 1384/3/5 1383/3/5 1385/3/5
f 1386/3/5 1387/3/5 1388/3/5
f 1388/3/5 1387/3/5 1389/3/5
f 1390/2/5 1391/2/5 1394/2/5
f 1394/2/5 1391/2/5 1395/2/5
f 1392/1/5 1393/1/5 1398/1/5
f 1398/1/5 1393/1/5 1399/1/5
f 1395/5/5 1396/5/5 1400/5/5
f 1396/1/5 1397/1/5 1401/1/5
f 1400/5/5 1396/5/5 1401/5/5
f 1401/1/5 1397/1/5 1402/1/5
f 1398/3/5 1399/3/5 1404/3/5
f 1404/3/5 1399/3/5 1405/3/5
f 1402/1/5 1403/1/5 1406/1/5
f 1406/1/5 1403/1/5 1407/1/5
f 1404/2/5 1405/2/5 1408/2/5
f 1408/2/5 1405/2/5 1409/2/5
f 1406/4/5 1407/4/5 1412/4/5
f 1412/4/5 1407/4/5 1413/4/5
f 1408/1/5 1409/1/5 1414/1/5
f 1414/1/5 1409/1/5 1415/1/5
f 1410/4/5 1411/4/5 1417/4/5
f 1411/3/5 1412/3/5 1418/3/5
f 1417/4/5 1411/4/5 1418/4/5
f 1418/3/5 1412/3/5 1419/3/5
f 1416/1/5 1417/1/5 1420/1/5
f 1420/1/5 1417/1/5 1421/1/5
f 1422/2/5 1423/2/5 1425/2/5
f 1423/5/5 1424/5/5 1426/5/5
f 1425/2/5 1423/2/5 1426/2/5
f 1426/5/5 1424/5/5 1427/5/5
f 1427/5/5 1428/5/5 1431/5/5
f 1431/5/5 1428/5/5 1432/5/5
f 1429/3/5 1430/3/5 1434/3/5
f 1434/3/5 1430/3/5 1435/3/5
f 1433/4/5 1434/4/5 1442/4/5
f 1434/5/5 1435/5/5 1443/5/5
f 1442/4/5 1434/4/5 1443/4/5
f 1435/4/5 1436/4/5 1444/4/5
f 1443/5/5 1435/5/5 1444/5/5
f 1436/2/5 1437/2/5 1445/2/5
f 1444/4/5 1436/4/5 1445/4/5
f 1437/1/5 1438/1/5 1446/1/5
f 1445/2/5 1437/2/5 1446/2/5
f 1446/1/5 1438/1/5 1447/1/5
f 1439/2/5 1440/2/5 1449/2/5
f 1449/2/5 1440/2/5 1450/2/5
f 1441/4/5 1442/4/5 1451/4/5
f 1451/4/5 1442/4/5 1452/4/5
f 1443/2/5 1444/2/5 1453/2/5
f 1444/2/5 1445/2/5 1453/2/5
f 1453/2/5 1445/2/5 1454/2/5
f 1445/3/5 1446/3/5 1455/3/5
f 1454/2/5 1445/2/5 1455/2/5
f 1455/3/5 1446/3/5 1456/3/5
f 1448/2/5 1449/2/5 1458/2/5
f 1449/1/5 1450/1/5 1459/1/5
f 1458/2/5 1449/2/5 1459/2/5
f 1459/1/5 1450/1/5 1460/1/5
f 1455/5/5 1456/5/5 1461/5/5
f 1456/1/5 1457/1/5 1462/1/5
f 1461/5/5 1456/5/5 1462/5/5
f 1462/1/5 1457/1/5 1463/1/5
f 1458/1/5 1459/1/5 1464/1/5
f 1459/4/5 1460/4/5 1465/4/5
f 1464/1/5 1459/1/5 1465/1/5
f 1465/4/5 1460/4/5 1466/4/5
f 1464/4/5 1465/4/5 1467/4/5
f 1465/5/5 1466/5/5 1468/5/5
f 1467/4/5 1465/4/5 1468/4/5
f 1468/5/5 1466/5/5 1469/5/5
f 1467/3/5 1468/3/5 1473/3/5
f 1468/5/5 1469/5/5 1474/5/5
f 1473/3/5 1468/3/5 1474/3/5
f 1474/5/5 1469/5/5 1475/5/5
f 1470/2/5 1471/2/5 1480/2/5
f 1471/4/5 1472/4/5 1481/4/5
f 1480/2/5 1471/2/5 1481/2/5
f 1481/4/5 1472/4/5 1482/4/5
f 1474/4/5 1475/4/5 1483/4/5
f 1483/4/5 1475/4/5 1484/4/5
f 1476/2/5 1477/2/5 1485/2/5
f 1485/2/5 1477/2/5 1486/2/5
f 1478/1/5 1479/1/5 1487/1/5
f 1479/2/5 1480/2/5 1488/2/5
f 1480/2/5 1481/2/5 1488/2/5
f 1487/1/5 1479/1/5 1488/1/5
f 1488/2/5 1481/2/5 1489/2/5
f 1486/3/5 1487/3/5 1491/3/5
f 1487/4/5 1488/4/5 1492/4/5
f 1491/3/5 1487/3/5 1492/3/5
f 1488/3/5 1489/3/5 1493/3/5
f 1492/4/5 1488/4/5 1493/4/5
f 1489/4/5 1490/4/5 1494/4/5
f 1493/3/5 1489/3/5 1494/3/5
f 1494/4/5 1490/4/5 1495/4/5
f 1492/4/5 1493/4/5 1496/4/5
f 1496/4/5 1493/4/5 1497/4/5
f 1498/1/5 1499/1/5 1502/1/5
f 1502/1/5 1499/1/5 1503/1/5
f 1500/1/5 1501/1/5 1504/1/5
f 1501/5/5 1502/5/5 1505/5/5
f 1504/1/5 1501/1/5 1505/1/5
f 1505/5/5 1502/5/5 1506/5/5
f 1507/2/5 1508/2/5 1514/2/5
f 1508/1/5 1509/1/5 1515/1/5
f 1514/2/5 1508/2/5 1515/2/5
f 1515/1/5 1509/1/5 1516/1/5
f 1510/1/5 1511/1/5 1517/1/5
f 1517/1/5 1511/1/5 1518/1/5
f 1518/1/5 1511/1/5 1519/1/5
f 1512/5/5 1513/5/5 1520/5/5
f 1520/5/5 1513/5/5 1521/5/5
f 1522/4/5 1523/4/5 1524/4/5
f 1524/4/5 1523/4/5 1525/4/5
f 1524/3/5 1525/3/5 1526/3/5
f 1526/3/5 1525/3/5 1527/3/5
f 1528/4/5 1529/4/5 1530/4/5
f 1530/4/5 1529/4/5 1531/4/5
f 1532/3/5 1533/3/5 1538/3/5
f 1533/3/5 1534/3/5 1538/3/5
f 1538/3/5 1534/3/5 1539/3/5
f 1535/3/5 1536/3/5 1540/3/5
f 1536/5/5 1537/5/5 1541/5/5
f 1540/3/5 1536/3/5 1541/3/5
f 1541/5/5 1537/5/5 1542/5/5
f 1543/3/5 1544/3/5 1545/3/5
f 1545/3/5 1544/3/5 1546/3/5
f 1547/5/5 1548/5/5 1549/5/5
f 1549/5/5 1548/5/5 1550/5/5
f 1551/1/5 1552/1/5 1553/1/5
f 1553/1/5 1552/1/5 1554/1/5
f 1555/2/5 1556/2/5 1557/2/5
f 1557/2/5 1556/2/5 1558/2/5
f 1557/1/5 1558/1/5 1559/1/5
f 1559/1/5 1558/1/5 1560/1/5
f 1561/3/5 1562/3/5 1565/3/5
f 1565/3/5 1562/3/5 1566/3/5
f 1563/4/5 1564/4/5 1567/4/5
f 1567/4/5 1564/4/5 1568/4/5
f 1569/4/5 1570/4/5 1571/4/5
f 1571/4/5 1570/4/5 1572/4/5
f 1573/2/5 1574/2/5 1575/2/5
f 1575/2/5 1574/2/5 1576/2/5
f 1577/4/5 1578/4/5 1579/4/5
f 1579/4/5 1578/4/5 1580/4/5
f 1581/2/5 1582/2/5 1584/2/5
f 1584/2/5 1582/2/5 1585/2/5
f 1583/5/5 1584/5/5 1586/5/5
f 1586/5/5 1584/5/5 1587/5/5
f 1588/3/5 1589/3/5 1590/3/5
f 1590/3/5 1589/3/5 1591/3/5
f 1592/4/5 1593/4/5 1594/4/5
f 1594/4/5 1593/4/5 1595/4/5
f 1596/2/5 1597/2/5 1598/2/5
f 1598/2/5 1597/2/5 1599/2/5
f 1599/1/5 1600/1/5 1601/1/5
f 1601/1/5 1600/1/5 1602/1/5
f 1603/1/5 1604/1/5 1605/1/5
f 1605/1/5 1604/1/5 1606/1/5
f 1607/1/5 1608/1/5 1610/1/5
f 1608/4/5 1609/4/5 1611/4/5
f 1610/1/5 1608/1/5 1611/1/5
f 1611/4/5 1609/4/5 1612/4/5
f 1612/4/5 1609/4/5 1613/4/5
f 1610/2/5 1611/2/5 1614/2/5
f 1611/5/5 1612/5/5 1615/5/5
f 1614/2/5 1611/2/5 1615/2/5
f 1612/1/5 1613/1/5 1616/1/5
f 1615/5/5 1612/5/5 1616/5/5
f 1616/1/5 1613/1/5 1617/1/5
f 1618/5/5 1619/5/5 1620/5/5
f 1620/5/5 1619/5/5 1621/5/5
f 1622/3/5 1623/3/5 1627/3/5
f 1623/4/5 1624/4/5 1628/4/5
f 1627/3/5 1623/3/5 1628/3/5
f 1628/4/5 1624/4/5 1629/4/5
f 1625/5/5 1626/5/5 1633/5/5
f 1633/5/5 1626/5/5 1634/5/5
f 1629/1/5 1630/1/5 1636/1/5
f 1630/2/5 1631/2/5 1637/2/5
f 1636/1/5 1630/1/5 1637/1/5
f 1631/5/5 1632/5/5 1638/5/5
f 1637/2/5 1631/2/5 1638/2/5
f 1638/5/5 1632/5/5 1639/5/5
f 1635/4/5 1636/4/5 1643/4/5
f 1643/4/5 1636/4/5 1644/4/5
f 1640/5/5 1641/5/5 1648/5/5
f 1641/3/5 1642/3/5 1649/3/5
f 1648/5/5 1641/5/5 1649/5/5
f 1649/3/5 1642/3/5 1650/3/5
f 1644/1/5 1645/1/5 1652/1/5
f 1652/1/5 1645/1/5 1653/1/5
f 1646/5/5 1647/5/5 1654/5/5
f 1654/5/5 1647/5/5 1655/5/5
f 1648/1/5 1649/1/5 1656/1/5
f 1656/1/5 1649/1/5 1657/1/5
f 1650/2/5 1651/2/5 1658/2/5
f 1656/3/5 1657/3/5 1659/3/5
f 1650/2/5 1658/2/5 1660/2/5
f 1660/2/5 1658/2/5 1661/2/5
f 1656/3/5 1659/3/5 1666/3/5
f 1659/1/5 1660/1/5 1667/1/5
f 1666/3/5 1659/3/5 1667/3/5
f 1667/1/5 1660/1/5 1668/1/5
f 1662/1/5 1663/1/5 1670/1/5
f 1670/1/5 1663/1/5 1671/1/5
f 1664/2/5 1665/2/5 1672/2/5
f 1672/2/5 1665/2/5 1673/2/5
f 1669/4/5 1670/4/5 1676/4/5
f 1676/4/5 1670/4/5 1677/4/5
f 1674/1/5 1675/1/5 1681/1/5
f 1681/1/5 1675/1/5 1682/1/5
f 1677/4/5 1678/4/5 1685/4/5
f 1678/1/5 1679/1/5 1686/1/5
f 1685/4/5 1678/4/5 1686/4/5
f 1679/2/5 1680/2/5 1687/2/5
f 1686/1/5 1679/1/5 1687/1/5
f 1687/2/5 1680/2/5 1688/2/5
f 1683/3/5 1684/3/5 1689/3/5
f 1684/4/5 1685/4/5 1690/4/5
f 1689/3/5 1684/3/5 1690/3/5
f 1690/4/5 1685/4/5 1691/4/5
f 1692/3/5 1693/3/5 1696/3/5
f 1696/3/5 1693/3/5 1697/3/5
f 1694/1/5 1695/1/5 1698/1/5
f 1698/1/5 1695/1/5 1699/1/5
f 1700/4/5 1701/4/5 1702/4/5
f 1702/4/5 1701/4/5 1703/4/5
f 1704/5/5 1705/5/5 1710/5/5
f 1710/5/5 1705/5/5 1711/5/5
f 1706/1/5 1707/1/5 1712/1/5
f 1712/1/5 1707/1/5 1713/1/5
f 1708/5/5 1709/5/5 1714/5/5
f 1714/5/5 1709/5/5 1715/5/5
f 1716/1/5 1717/1/5 1718/1/5
f 1718/1/5 1717/1/5 1719/1/5
f 1720/3/5 1721/3/5 1722/3/5
f 1722/3/5 1721/3/5 1723/3/5
f 1726/2/6 1725/2/6 1724/2/6
f 1727/2/6 1725/2/6 1726/2/6
f 1730/4/6 1729/4/6 1728/4/6
f 1731/4/6 1729/4/6 1730/4/6
f 1734/4/6 1733/4/6 1732/4/6
f 1735/4/6 1733/4/6 1734/4/6
f 1738/5/6 1735/5/6 1734/5/6
f 1739/5/6 1735/5/6 1738/5/6
f 1740/5/6 1737/5/6 1736/5/6
f 1741/5/6 1737/5/6 1740/5/6
f 1744/3/6 1743/3/6 1742/3/6
f 1745/3/6 1743/3/6 1744/3/6
f 1748/3/6 1747/3/6 1746/3/6
f 1749/3/6 1747/3/6 1748/3/6
f 1752/1/6 1751/1/6 1750/1/6
f 1753/1/6 1751/1/6 1752/1/6
f 1756/1/6 1755/1/6 1754/1/6
f 1757/1/6 1755/1/6 1756/1/6
f 1761/2/6 1759/2/6 1758/2/6
f 1762/5/6 1760/5/6 1759/5/6
f 1762/2/6 1759/2/6 1761/2/6
f 1763/5/6 1760/5/6 1762/5/6
f 1765/5/6 1764/5/6 1763/5/6
f 1766/5/6 1764/5/6 1765/5/6
f 1776/4/6 1768/4/6 1767/4/6
f 1777/5/6 1769/5/6 1768/5/6
f 1777/4/6 1768/4/6 1776/4/6
f 1778/4/6 1770/4/6 1769/4/6
f 1778/5/6 1769/5/6 1777/5/6
f 1779/4/6 1770/4/6 1778/4/6
f 1780/1/6 1772/1/6 1771/1/6
f 1781/1/6 1772/1/6 1780/1/6
f 1782/2/6 1774/2/6 1773/2/6
f 1783/2/6 1774/2/6 1782/2/6
f 1784/4/6 1776/4/6 1775/4/6
f 1785/5/6 1777/5/6 1776/5/6
f 1785/4/6 1776/4/6 1784/4/6
f 1786/2/6 1779/2/6 1778/2/6
f 1786/5/6 1777/5/6 1785/5/6
f 1786/2/6 1778/2/6 1777/2/6
f 1787/2/6 1779/2/6 1786/2/6
f 1788/2/6 1779/2/6 1787/2/6
f 1791/1/6 1783/1/6 1782/1/6
f 1792/1/6 1783/1/6 1791/1/6
f 1794/2/6 1787/2/6 1786/2/6
f 1795/1/6 1788/1/6 1787/1/6
f 1795/2/6 1787/2/6 1794/2/6
f 1796/5/6 1789/5/6 1788/5/6
f 1796/1/6 1788/1/6 1795/1/6
f 1797/5/6 1789/5/6 1796/5/6
f 1798/1/6 1791/1/6 1790/1/6
f 1799/4/6 1792/4/6 1791/4/6
f 1799/1/6 1791/1/6 1798/1/6
f 1800/3/6 1793/3/6 1792/3/6
f 1800/4/6 1792/4/6 1799/4/6
f 1801/3/6 1793/3/6 1800/3/6
f 1802/1/6 1797/1/6 1796/1/6
f 1803/1/6 1797/1/6 1802/1/6
f 1804/4/6 1799/4/6 1798/4/6
f 1805/5/6 1801/5/6 1800/5/6
f 1805/4/6 1799/4/6 1804/4/6
f 1805/5/6 1800/5/6 1799/5/6
f 1806/5/6 1801/5/6 1805/5/6
f 1807/5/6 1801/5/6 1806/5/6
f 1810/2/6 1803/2/6 1802/2/6
f 1811/2/6 1803/2/6 1810/2/6
f 1812/5/6 1806/5/6 1805/5/6
f 1813/5/6 1806/5/6 1812/5/6
f 1815/3/6 1809/3/6 1808/3/6
f 1816/2/6 1811/2/6 1810/2/6
f 1816/2/6 1810/2/6 1809/2/6
f 1816/3/6 1809/3/6 1815/3/6
f 1817/2/6 1811/2/6 1816/2/6
f 1818/2/6 1811/2/6 1817/2/6
f 1819/4/6 1813/4/6 1812/4/6
f 1820/4/6 1813/4/6 1819/4/6
f 1821/2/6 1815/2/6 1814/2/6
f 1822/2/6 1815/2/6 1821/2/6
f 1823/1/6 1816/1/6 1815/1/6
f 1823/2/6 1815/2/6 1822/2/6
f 1824/2/6 1817/2/6 1816/2/6
f 1824/1/6 1816/1/6 1823/1/6
f 1825/2/6 1817/2/6 1824/2/6
f 1828/3/6 1823/3/6 1822/3/6
f 1829/4/6 1824/4/6 1823/4/6
f 1829/3/6 1823/3/6 1828/3/6
f 1830/3/6 1825/3/6 1824/3/6
f 1830/4/6 1824/4/6 1829/4/6
f 1831/3/6 1825/3/6 1830/3/6
f 1832/4/6 1827/4/6 1826/4/6
f 1833/4/6 1827/4/6 1832/4/6
f 1838/1/6 1835/1/6 1834/1/6
f 1839/1/6 1835/1/6 1838/1/6
f 1840/1/6 1837/1/6 1836/1/6
f 1841/5/6 1838/5/6 1837/5/6
f 1841/1/6 1837/1/6 1840/1/6
f 1842/5/6 1838/5/6 1841/5/6
f 1850/2/6 1844/2/6 1843/2/6
f 1851/1/6 1845/1/6 1844/1/6
f 1851/2/6 1844/2/6 1850/2/6
f 1852/3/6 1846/3/6 1845/3/6
f 1852/1/6 1845/1/6 1851/1/6
f 1853/1/6 1847/1/6 1846/1/6
f 1853/3/6 1846/3/6 1852/3/6
f 1854/1/6 1847/1/6 1853/1/6
f 1855/1/6 1847/1/6 1854/1/6
f 1856/5/6 1849/5/6 1848/5/6
f 1857/5/6 1849/5/6 1856/5/6
f 1858/3/6 1855/3/6 1854/3/6
f 1861/3/6 1855/3/6 1858/3/6
f 1862/3/6 1855/3/6 1861/3/6
f 1865/5/6 1860/5/6 1859/5/6
f 1866/5/6 1860/5/6 1865/5/6
f 1867/2/6 1863/2/6 1862/2/6
f 1868/2/6 1863/2/6 1867/2/6
f 1869/4/6 1865/4/6 1864/4/6
f 1870/4/6 1865/4/6 1869/4/6
f 1871/3/6 1870/3/6 1869/3/6
f 1872/3/6 1870/3/6 1871/3/6
f 1876/4/6 1873/4/6 1872/4/6
f 1877/4/6 1873/4/6 1876/4/6
f 1879/3/6 1875/3/6 1874/3/6
f 1880/3/6 1875/3/6 1879/3/6
f 1883/2/6 1879/2/6 1878/2/6
f 1884/2/6 1879/2/6 1883/2/6
f 1885/4/6 1882/4/6 1881/4/6
f 1886/4/6 1882/4/6 1885/4/6
f 1890/4/6 1884/4/6 1883/4/6
f 1891/4/6 1884/4/6 1890/4/6
f 1892/3/6 1888/3/6 1887/3/6
f 1893/3/6 1888/3/6 1892/3/6
f 1894/5/6 1889/5/6 1888/5/6
f 1894/3/6 1888/3/6 1893/3/6
f 1895/3/6 1890/3/6 1889/3/6
f 1895/5/6 1889/5/6 1894/5/6
f 1896/5/6 1891/5/6 1890/5/6
f 1896/3/6 1890/3/6 1895/3/6
f 1897/5/6 1891/5/6 1896/5/6
f 1900/5/6 1899/5/6 1898/5/6
f 1901/5/6 1899/5/6 1900/5/6
f 1904/1/6 1903/1/6 1902/1/6
f 1905/1/6 1903/1/6 1904/1/6
f 1908/2/6 1907/2/6 1906/2/6
f 1909/2/6 1907/2/6 1908/2/6
f 1910/1/6 1909/1/6 1908/1/6
f 1911/1/6 1909/1/6 1910/1/6
f 1916/3/6 1913/3/6 1912/3/6
f 1917/3/6 1913/3/6 1916/3/6
f 1918/4/6 1915/4/6 1914/4/6
f 1919/4/6 1915/4/6 1918/4/6
f 1922/2/6 1921/2/6 1920/2/6
f 1923/2/6 1921/2/6 1922/2/6
f 1927/4/6 1925/4/6 1924/4/6
f 1928/5/6 1926/5/6 1925/5/6
f 1928/4/6 1925/4/6 1927/4/6
f 1929/5/6 1926/5/6 1928/5/6
f 1933/2/6 1931/2/6 1930/2/6
f 1934/2/6 1931/2/6 1933/2/6
f 1935/5/6 1933/5/6 1932/5/6
f 1936/5/6 1933/5/6 1935/5/6
f 1939/3/6 1938/3/6 1937/3/6
f 1940/3/6 1938/3/6 1939/3/6
f 1943/4/6 1942/4/6 1941/4/6
f 1944/4/6 1942/4/6 1943/4/6
f 1947/2/6 1946/2/6 1945/2/6
f 1948/2/6 1946/2/6 1947/2/6
f 1950/1/6 1949/1/6 1948/1/6
f 1951/1/6 1949/1/6 1950/1/6
f 1954/1/6 1953/1/6 1952/1/6
f 1955/1/6 1953/1/6 1954/1/6
f 1958/4/6 1957/4/6 1956/4/6
f 1959/4/6 1957/4/6 1958/4/6
f 1960/5/6 1959/5/6 1958/5/6
f 1961/5/6 1959/5/6 1960/5/6
f 1964/5/6 1963/5/6 1962/5/6
f 1965/5/6 1963/5/6 1964/5/6
f 1970/3/6 1967/3/6 1966/3/6
f 1971/3/6 1967/3/6 1970/3/6
f 1976/5/6 1969/5/6 1968/5/6
f 1977/5/6 1969/5/6 1976/5/6
f 1978/1/6 1973/1/6 1972/1/6
f 1979/2/6 1974/2/6 1973/2/6
f 1979/1/6 1973/1/6 1978/1/6
f 1980/5/6 1975/5/6 1974/5/6
f 1980/2/6 1974/2/6 1979/2/6
f 1981/5/6 1975/5/6 1980/5/6
f 1989/3/6 1983/3/6 1982/3/6
f 1990/3/6 1983/3/6 1989/3/6
f 1993/5/6 1987/5/6 1986/5/6
f 1994/5/6 1987/5/6 1993/5/6
f 1995/1/6 1989/1/6 1988/1/6
f 1996/1/6 1989/1/6 1995/1/6
f 1997/3/6 1992/3/6 1991/3/6
f 1998/3/6 1992/3/6 1997/3/6
f 1999/1/6 1985/1/6 1984/1/6
f 2000/1/6 1985/1/6 1999/1/6
f 2001/3/6 1996/3/6 1995/3/6
f 2002/3/6 1996/3/6 2001/3/6
f 2004/4/6 1998/4/6 1997/4/6
f 2005/4/6 1998/4/6 2004/4/6
f 2006/2/6 2000/2/6 1999/2/6
f 2007/2/6 2000/2/6 2006/2/6
f 2010/1/6 2003/1/6 2002/1/6
f 2011/1/6 2003/1/6 2010/1/6
f 2012/1/6 2007/1/6 2006/1/6
f 2013/1/6 2007/1/6 2012/1/6
f 2014/2/6 2009/2/6 2008/2/6
f 2015/2/6 2009/2/6 2014/2/6
f 2022/1/6 2017/1/6 2016/1/6
f 2023/1/6 2017/1/6 2022/1/6
f 2027/4/6 2019/4/6 2018/4/6
f 2028/1/6 2020/1/6 2019/1/6
f 2028/4/6 2019/4/6 2027/4/6
f 2029/2/6 2021/2/6 2020/2/6
f 2029/1/6 2020/1/6 2028/1/6
f 2030/2/6 2021/2/6 2029/2/6
f 2031/3/6 2025/3/6 2024/3/6
f 2032/4/6 2026/4/6 2025/4/6
f 2032/3/6 2025/3/6 2031/3/6
f 2033/4/6 2026/4/6 2032/4/6
f 2036/1/6 2035/1/6 2034/1/6
f 2037/1/6 2035/1/6 2036/1/6
f 2043/3/6 2039/3/6 2038/3/6
f 2044/3/6 2039/3/6 2043/3/6
f 2045/1/6 2041/1/6 2040/1/6
f 2046/1/6 2041/1/6 2045/1/6
f 2049/3/6 2043/3/6 2042/3/6
f 2050/3/6 2043/3/6 2049/3/6
f 2053/4/6 2048/4/6 2047/4/6
f 2054/4/6 2048/4/6 2053/4/6
f 2055/5/6 2052/5/6 2051/5/6
f 2056/5/6 2052/5/6 2055/5/6
f 2059/2/6 2056/2/6 2055/2/6
f 2060/2/6 2056/2/6 2059/2/6
f 2063/5/6 2058/5/6 2057/5/6
f 2064/5/6 2058/5/6 2063/5/6
f 2069/5/6 2062/5/6 2061/5/6
f 2070/5/6 2062/5/6 2069/5/6
f 2071/1/6 2065/1/6 2064/1/6
f 2072/1/6 2065/1/6 2071/1/6
f 2073/4/6 2067/4/6 2066/4/6
f 2074/5/6 2068/5/6 2067/5/6
f 2074/4/6 2067/4/6 2073/4/6
f 2075/5/6 2068/5/6 2074/5/6
f 2078/2/6 2077/2/6 2076/2/6
f 2079/2/6 2077/2/6 2078/2/6
f 2082/1/6 2081/1/6 2080/1/6
f 2083/1/6 2081/1/6 2082/1/6
f 2086/3/6 2085/3/6 2084/3/6
f 2087/3/6 2085/3/6 2086/3/6
