# MagicaVoxel @ Ephtracy

# group
o 

# material
mtllib drzewko-67.mtl
usemtl palette

# normals
vn -1 0 0
vn 1 0 0
vn 0 0 1
vn 0 0 -1
vn 0 -1 0
vn 0 1 0

# texcoords
vt 0.767578 0.5
vt 0.958984 0.5

# verts
v -81.5 9.2 -0.5
v -81.5 9.2 -1.2
v -81.5 9.4 -0.5
v -81.5 9.4 -1.2
v -81.4 9.3 -0.4
v -81.4 9.3 -0.5
v -81.4 9.3 -1.2
v -81.4 9.3 -1.3
v -81.4 9.4 -0.4
v -81.4 9.4 -0.5
v -81.4 9.4 -1.2
v -81.4 9.4 -1.3
v -81.3 9.1 -0.7
v -81.3 9.1 -1
v -81.3 9.2 -0.7
v -81.3 9.2 -1
v -81.3 9.4 -0.5
v -81.3 9.4 -1.2
v -81.3 9.5 -0.5
v -81.3 9.5 -0.7
v -81.3 9.5 -1
v -81.3 9.5 -1.2
v -81.3 9.6 -0.7
v -81.3 9.6 -1
v -81.2 9 -0.7
v -81.2 9 -1
v -81.2 9.1 -0.6
v -81.2 9.1 -0.7
v -81.2 9.1 -1
v -81.2 9.1 -1.1
v -81.2 9.2 -0.6
v -81.2 9.2 -0.7
v -81.2 9.2 -1
v -81.2 9.2 -1.1
v -81.2 9.5 -0.6
v -81.2 9.5 -0.7
v -81.2 9.5 -1
v -81.2 9.5 -1.1
v -81.2 9.6 -0.6
v -81.2 9.6 -0.7
v -81.2 9.6 -1
v -81.2 9.6 -1.1
v -81.2 9.7 -0.7
v -81.2 9.7 -1
v -81.1 8.9 -0.7
v -81.1 8.9 -1
v -81.1 9 -0.6
v -81.1 9 -0.7
v -81.1 9 -1
v -81.1 9 -1.1
v -81.1 9.1 -0.6
v -81.1 9.1 -0.7
v -81.1 9.1 -1
v -81.1 9.1 -1.1
v -81.1 9.6 -0.6
v -81.1 9.6 -0.7
v -81.1 9.6 -1
v -81.1 9.6 -1.1
v -81.1 9.7 -0.6
v -81.1 9.7 -0.7
v -81.1 9.7 -0.9
v -81.1 9.7 -1
v -81.1 9.7 -1.1
v -81.1 9.8 -0.7
v -81.1 9.8 -0.9
v -81 9.7 -0.9
v -81 9.7 -1
v -81 9.8 -0.8
v -81 9.8 -0.9
v -81 10.1 -0.8
v -81 10.1 -1
v -80.9 10.1 -0.8
v -80.9 10.1 -1
v -80.9 10.2 -0.8
v -80.9 10.2 -1
v -80.8 10.2 -0.9
v -80.8 10.2 -1
v -80.8 10.3 -0.9
v -80.8 10.3 -1
v -80.7 10.3 -0.9
v -80.7 10.3 -1
v -80.7 10.4 -0.9
v -80.7 10.4 -1
v -80.6 10.4 -0.8
v -80.6 10.4 -0.9
v -80.6 10.4 -1
v -80.6 10.5 -0.8
v -80.6 10.5 -1
v -80.5 10.1 -0.8
v -80.5 10.1 -1
v -80.5 10.3 -0.8
v -80.5 10.3 -1
v -80.4 10 -0.8
v -80.4 10 -1
v -80.4 10.1 -0.8
v -80.4 10.1 -1
v -80.4 10.3 -0.8
v -80.4 10.3 -1
v -80.4 10.4 -0.8
v -80.4 10.4 -1
v -80.3 9.5 -0.9
v -80.3 9.5 -1
v -80.3 9.7 -0.9
v -80.3 9.7 -1
v -80.3 9.9 -0.8
v -80.3 9.9 -1
v -80.3 10 -0.8
v -80.3 10 -1
v -80.2 9.4 -0.9
v -80.2 9.4 -1
v -80.2 9.5 -0.9
v -80.2 9.5 -1
v -80.2 9.7 -0.9
v -80.2 9.7 -1
v -80.2 9.8 -0.9
v -80.2 9.8 -1
v -80.2 10.2 -0.9
v -80.2 10.2 -1
v -80.2 10.3 -0.9
v -80.2 10.3 -1
v -80.1 9.8 -0.8
v -80.1 9.8 -0.9
v -80.1 9.8 -1
v -80.1 9.9 -0.8
v -80.1 9.9 -1
v -80.1 10 -0.9
v -80.1 10 -1
v -80.1 10.2 -0.9
v -80.1 10.2 -1
v -80 9.5 -0.9
v -80 9.5 -1
v -80 9.7 -0.9
v -80 9.7 -1
v -80 10.3 -0.8
v -80 10.3 -1
v -80 10.4 -0.8
v -80 10.4 -1
v -79.9 1.1 -0.7
v -79.9 1.1 -1
v -79.9 1.2 -0.7
v -79.9 1.2 -1
v -79.9 10.2 -0.8
v -79.9 10.2 -1
v -79.9 10.3 -0.8
v -79.9 10.3 -1
v -79.8 1.1 -0.6
v -79.8 1.1 -0.7
v -79.8 1.2 -0.6
v -79.8 1.2 -0.7
v -79.8 1.2 -1
v -79.8 1.3 -0.7
v -79.8 1.3 -1
v -79.8 8 -0.9
v -79.8 8 -1
v -79.8 8.1 -0.9
v -79.8 8.1 -1
v -79.8 8.5 -0.8
v -79.8 8.5 -1
v -79.8 9.8 -0.8
v -79.8 9.8 -1
v -79.8 9.9 -0.8
v -79.8 9.9 -1
v -79.8 10.2 -0.8
v -79.8 10.2 -1
v -79.7 1.1 -0.5
v -79.7 1.1 -0.6
v -79.7 1.2 -0.5
v -79.7 1.2 -0.6
v -79.7 1.2 -0.7
v -79.7 1.3 -0.6
v -79.7 1.3 -0.7
v -79.7 1.3 -1
v -79.7 1.4 -0.7
v -79.7 1.4 -0.8
v -79.7 1.7 -0.8
v -79.7 1.7 -1
v -79.7 8 -0.8
v -79.7 8 -0.9
v -79.7 8 -1
v -79.7 8 -1.1
v -79.7 8.1 -0.8
v -79.7 8.1 -0.9
v -79.7 8.1 -1
v -79.7 8.1 -1.1
v -79.7 10.6 -0.8
v -79.7 10.6 -1
v -79.7 10.7 -0.8
v -79.7 10.7 -1
v -79.6 1.7 -0.8
v -79.6 1.7 -1
v -79.6 8 -0.8
v -79.6 8 -1
v -79.6 8.1 -0.8
v -79.6 8.1 -1
v -79.6 8.8 -0.8
v -79.6 8.8 -1
v -79.6 8.9 -0.8
v -79.6 8.9 -1
v -79.6 9.7 -0.8
v -79.6 9.7 -1
v -79.6 9.8 -0.8
v -79.6 9.8 -1
v -79.6 10.6 -0.8
v -79.6 10.6 -1
v -79.6 10.7 -0.8
v -79.6 10.7 -1
v -79.6 10.8 -0.8
v -79.6 10.8 -1
v -81 9.6 -1
v -81 9.6 -1.1
v -81 9.7 -1
v -81 9.7 -1.1
v -80.9 8.9 -0.7
v -80.9 8.9 -1
v -80.9 9 -0.6
v -80.9 9 -0.7
v -80.9 9 -1
v -80.9 9 -1.1
v -80.9 9.1 -0.6
v -80.9 9.1 -0.7
v -80.9 9.1 -1
v -80.9 9.1 -1.1
v -80.9 9.6 -0.6
v -80.9 9.6 -0.7
v -80.9 9.7 -0.6
v -80.9 9.7 -0.7
v -80.9 9.7 -1
v -80.9 9.8 -0.7
v -80.9 9.8 -0.8
v -80.9 10 -0.8
v -80.9 10 -1
v -80.8 9 -0.7
v -80.8 9 -1
v -80.8 9.1 -0.6
v -80.8 9.1 -0.7
v -80.8 9.1 -0.9
v -80.8 9.1 -1
v -80.8 9.1 -1.1
v -80.8 9.2 -0.6
v -80.8 9.2 -0.7
v -80.8 9.2 -0.9
v -80.8 9.2 -1.1
v -80.8 9.5 -0.6
v -80.8 9.5 -0.7
v -80.8 9.5 -1
v -80.8 9.5 -1.1
v -80.8 9.6 -0.6
v -80.8 9.6 -0.7
v -80.8 9.6 -1
v -80.8 9.6 -1.1
v -80.8 9.7 -0.7
v -80.8 9.7 -1
v -80.8 10 -0.8
v -80.8 10 -1
v -80.8 10.2 -0.8
v -80.8 10.2 -0.9
v -80.8 10.2 -1
v -80.7 9.1 -0.7
v -80.7 9.1 -0.9
v -80.7 9.2 -0.7
v -80.7 9.2 -0.9
v -80.7 9.4 -0.5
v -80.7 9.4 -1.2
v -80.7 9.5 -0.5
v -80.7 9.5 -0.7
v -80.7 9.5 -1
v -80.7 9.5 -1.2
v -80.7 9.6 -0.7
v -80.7 9.6 -1
v -80.7 10.2 -0.9
v -80.7 10.2 -1
v -80.7 10.3 -0.9
v -80.7 10.3 -1
v -80.6 9.3 -0.4
v -80.6 9.3 -0.5
v -80.6 9.3 -1.1
v -80.6 9.3 -1.2
v -80.6 9.3 -1.3
v -80.6 9.4 -0.4
v -80.6 9.4 -0.5
v -80.6 9.4 -1.1
v -80.6 9.4 -1.3
v -80.6 10.3 -0.9
v -80.6 10.3 -1
v -80.6 10.4 -0.9
v -80.6 10.4 -1
v -80.5 9.2 -0.5
v -80.5 9.2 -1.2
v -80.5 9.3 -1.1
v -80.5 9.3 -1.2
v -80.5 9.4 -0.5
v -80.5 9.4 -1.1
v -80.4 10.1 -0.8
v -80.4 10.1 -1
v -80.4 10.3 -0.8
v -80.4 10.3 -1
v -80.3 10 -0.8
v -80.3 10 -1
v -80.3 10.1 -0.8
v -80.3 10.1 -1
v -80.3 10.3 -0.8
v -80.3 10.3 -1
v -80.3 10.4 -0.8
v -80.3 10.4 -1
v -80.2 9.5 -0.9
v -80.2 9.5 -1
v -80.2 9.7 -0.9
v -80.2 9.7 -1
v -80.1 9.7 -0.9
v -80.1 9.7 -1
v -80.1 9.8 -0.9
v -80.1 9.8 -1
v -80.1 9.9 -0.8
v -80.1 9.9 -1
v -80.1 10 -0.8
v -80.1 10 -0.9
v -80.1 10 -1
v -80.1 10.2 -0.9
v -80.1 10.2 -1
v -80.1 10.3 -0.9
v -80.1 10.3 -1
v -80 9.4 -0.9
v -80 9.4 -1
v -80 9.5 -0.9
v -80 9.5 -1
v -80 10 -0.9
v -80 10 -1
v -80 10.2 -0.9
v -80 10.2 -1
v -80 10.4 -0.8
v -80 10.4 -1
v -80 10.5 -0.8
v -80 10.5 -1
v -79.9 9.5 -0.9
v -79.9 9.5 -1
v -79.9 9.7 -0.9
v -79.9 9.7 -1
v -79.9 10.3 -0.8
v -79.9 10.3 -1
v -79.9 10.4 -0.8
v -79.9 10.4 -1
v -79.8 10.2 -0.8
v -79.8 10.2 -1
v -79.8 10.3 -0.8
v -79.8 10.3 -1
v -79.7 8.5 -0.8
v -79.7 8.5 -1
v -79.7 8.8 -0.8
v -79.7 8.8 -1
v -79.7 8.9 -0.8
v -79.7 8.9 -1
v -79.7 9.7 -0.8
v -79.7 9.7 -1
v -79.7 9.8 -0.8
v -79.7 9.8 -1
v -79.7 10.2 -0.8
v -79.7 10.2 -1
v -79.5 1.8 -0.8
v -79.5 1.8 -1
v -79.5 8 -0.8
v -79.5 8 -1
v -79.5 8.1 -0.8
v -79.5 8.1 -1
v -79.5 10.6 -0.8
v -79.5 10.6 -1
v -79.5 10.7 -0.8
v -79.5 10.7 -1
v -79.5 10.8 -0.8
v -79.5 10.8 -1
v -79.4 1.7 -0.8
v -79.4 1.7 -1
v -79.4 1.8 -0.8
v -79.4 1.8 -1
v -79.4 8 -0.8
v -79.4 8 -0.9
v -79.4 8 -1
v -79.4 8 -1.1
v -79.4 8.1 -0.8
v -79.4 8.1 -0.9
v -79.4 8.1 -1
v -79.4 8.1 -1.1
v -79.4 10.6 -0.8
v -79.4 10.6 -1
v -79.4 10.7 -0.8
v -79.4 10.7 -1
v -79.3 1.1 -0.5
v -79.3 1.1 -0.6
v -79.3 1.2 -0.5
v -79.3 1.2 -0.6
v -79.3 1.2 -0.7
v -79.3 1.3 -0.6
v -79.3 1.3 -0.7
v -79.3 1.3 -1
v -79.3 1.4 -0.7
v -79.3 1.4 -0.8
v -79.3 1.7 -0.8
v -79.3 1.7 -1
v -79.3 8 -0.9
v -79.3 8 -1
v -79.3 8.1 -0.9
v -79.3 8.1 -1
v -79.2 1.1 -0.6
v -79.2 1.1 -0.7
v -79.2 1.2 -0.6
v -79.2 1.2 -0.7
v -79.2 1.2 -1
v -79.2 1.3 -0.7
v -79.2 1.3 -1
v -79.1 1.1 -0.7
v -79.1 1.1 -1
v -79.1 1.2 -0.7
v -79.1 1.2 -1
v -81.4 9.3 -0.4
v -81.4 9.4 -0.4
v -80.6 9.3 -0.4
v -80.6 9.4 -0.4
v -81.5 9.2 -0.5
v -81.5 9.4 -0.5
v -81.4 9.3 -0.5
v -81.4 9.4 -0.5
v -81.3 9.4 -0.5
v -81.3 9.5 -0.5
v -80.7 9.4 -0.5
v -80.7 9.5 -0.5
v -80.6 9.3 -0.5
v -80.6 9.4 -0.5
v -80.5 9.2 -0.5
v -80.5 9.4 -0.5
v -79.7 1.1 -0.5
v -79.7 1.2 -0.5
v -79.3 1.1 -0.5
v -79.3 1.2 -0.5
v -81.2 9.1 -0.6
v -81.2 9.2 -0.6
v -81.2 9.5 -0.6
v -81.2 9.6 -0.6
v -81.1 9 -0.6
v -81.1 9.1 -0.6
v -81.1 9.6 -0.6
v -81.1 9.7 -0.6
v -80.9 9 -0.6
v -80.9 9.1 -0.6
v -80.9 9.6 -0.6
v -80.9 9.7 -0.6
v -80.8 9.1 -0.6
v -80.8 9.2 -0.6
v -80.8 9.5 -0.6
v -80.8 9.6 -0.6
v -79.8 1.1 -0.6
v -79.8 1.2 -0.6
v -79.7 1.1 -0.6
v -79.7 1.2 -0.6
v -79.7 1.3 -0.6
v -79.3 1.1 -0.6
v -79.3 1.2 -0.6
v -79.3 1.3 -0.6
v -79.2 1.1 -0.6
v -79.2 1.2 -0.6
v -81.3 9.1 -0.7
v -81.3 9.2 -0.7
v -81.3 9.5 -0.7
v -81.3 9.6 -0.7
v -81.2 9 -0.7
v -81.2 9.1 -0.7
v -81.2 9.2 -0.7
v -81.2 9.5 -0.7
v -81.2 9.6 -0.7
v -81.2 9.7 -0.7
v -81.1 8.9 -0.7
v -81.1 9 -0.7
v -81.1 9.1 -0.7
v -81.1 9.6 -0.7
v -81.1 9.7 -0.7
v -81.1 9.8 -0.7
v -80.9 8.9 -0.7
v -80.9 9 -0.7
v -80.9 9.1 -0.7
v -80.9 9.6 -0.7
v -80.9 9.7 -0.7
v -80.9 9.8 -0.7
v -80.8 9 -0.7
v -80.8 9.1 -0.7
v -80.8 9.2 -0.7
v -80.8 9.5 -0.7
v -80.8 9.6 -0.7
v -80.8 9.7 -0.7
v -80.7 9.1 -0.7
v -80.7 9.2 -0.7
v -80.7 9.5 -0.7
v -80.7 9.6 -0.7
v -79.9 1.1 -0.7
v -79.9 1.2 -0.7
v -79.8 1.1 -0.7
v -79.8 1.2 -0.7
v -79.8 1.3 -0.7
v -79.7 1.2 -0.7
v -79.7 1.3 -0.7
v -79.7 1.4 -0.7
v -79.3 1.2 -0.7
v -79.3 1.3 -0.7
v -79.3 1.4 -0.7
v -79.2 1.1 -0.7
v -79.2 1.2 -0.7
v -79.2 1.3 -0.7
v -79.1 1.1 -0.7
v -79.1 1.2 -0.7
v -81 9.8 -0.8
v -81 10.1 -0.8
v -80.9 9.8 -0.8
v -80.9 10 -0.8
v -80.9 10.1 -0.8
v -80.9 10.2 -0.8
v -80.8 10 -0.8
v -80.8 10.2 -0.8
v -80.6 10.4 -0.8
v -80.6 10.5 -0.8
v -80.5 10.1 -0.8
v -80.5 10.3 -0.8
v -80.4 10 -0.8
v -80.4 10.1 -0.8
v -80.4 10.3 -0.8
v -80.4 10.4 -0.8
v -80.3 9.9 -0.8
v -80.3 10 -0.8
v -80.3 10.1 -0.8
v -80.3 10.3 -0.8
v -80.3 10.4 -0.8
v -80.1 9.8 -0.8
v -80.1 9.9 -0.8
v -80.1 10 -0.8
v -80 10.3 -0.8
v -80 10.4 -0.8
v -80 10.5 -0.8
v -79.9 10.2 -0.8
v -79.9 10.3 -0.8
v -79.9 10.4 -0.8
v -79.8 8.5 -0.8
v -79.8 9.8 -0.8
v -79.8 9.9 -0.8
v -79.8 10.2 -0.8
v -79.8 10.3 -0.8
v -79.7 1.4 -0.8
v -79.7 1.7 -0.8
v -79.7 8 -0.8
v -79.7 8.1 -0.8
v -79.7 8.5 -0.8
v -79.7 8.8 -0.8
v -79.7 8.9 -0.8
v -79.7 9.7 -0.8
v -79.7 9.8 -0.8
v -79.7 10.2 -0.8
v -79.7 10.6 -0.8
v -79.7 10.7 -0.8
v -79.6 1.7 -0.8
v -79.6 8 -0.8
v -79.6 8.1 -0.8
v -79.6 8.8 -0.8
v -79.6 8.9 -0.8
v -79.6 9.7 -0.8
v -79.6 9.8 -0.8
v -79.6 10.6 -0.8
v -79.6 10.7 -0.8
v -79.6 10.8 -0.8
v -79.5 1.8 -0.8
v -79.5 8 -0.8
v -79.5 8.1 -0.8
v -79.5 10.6 -0.8
v -79.5 10.7 -0.8
v -79.5 10.8 -0.8
v -79.4 1.7 -0.8
v -79.4 1.8 -0.8
v -79.4 8 -0.8
v -79.4 8.1 -0.8
v -79.4 10.6 -0.8
v -79.4 10.7 -0.8
v -79.3 1.4 -0.8
v -79.3 1.7 -0.8
v -80.8 10.2 -0.9
v -80.8 10.3 -0.9
v -80.7 10.2 -0.9
v -80.7 10.3 -0.9
v -80.7 10.4 -0.9
v -80.6 10.3 -0.9
v -80.6 10.4 -0.9
v -80.3 9.5 -0.9
v -80.3 9.7 -0.9
v -80.2 9.4 -0.9
v -80.2 9.5 -0.9
v -80.2 9.7 -0.9
v -80.2 9.8 -0.9
v -80.2 10.2 -0.9
v -80.2 10.3 -0.9
v -80.1 9.7 -0.9
v -80.1 9.8 -0.9
v -80.1 10 -0.9
v -80.1 10.2 -0.9
v -80.1 10.3 -0.9
v -80 9.4 -0.9
v -80 9.5 -0.9
v -80 9.7 -0.9
v -80 10 -0.9
v -80 10.2 -0.9
v -79.9 9.5 -0.9
v -79.9 9.7 -0.9
v -79.8 8 -0.9
v -79.8 8.1 -0.9
v -79.7 8 -0.9
v -79.7 8.1 -0.9
v -79.4 8 -0.9
v -79.4 8.1 -0.9
v -79.3 8 -0.9
v -79.3 8.1 -0.9
v -81.1 9.7 -0.9
v -81.1 9.8 -0.9
v -81 9.7 -0.9
v -81 9.8 -0.9
v -80.8 9.1 -0.9
v -80.8 9.2 -0.9
v -80.7 9.1 -0.9
v -80.7 9.2 -0.9
v -81.3 9.1 -1
v -81.3 9.2 -1
v -81.3 9.5 -1
v -81.3 9.6 -1
v -81.2 9 -1
v -81.2 9.1 -1
v -81.2 9.2 -1
v -81.2 9.5 -1
v -81.2 9.6 -1
v -81.2 9.7 -1
v -81.1 8.9 -1
v -81.1 9 -1
v -81.1 9.1 -1
v -81.1 9.6 -1
v -81.1 9.7 -1
v -81 9.6 -1
v -81 9.7 -1
v -81 10.1 -1
v -80.9 8.9 -1
v -80.9 9 -1
v -80.9 9.1 -1
v -80.9 9.7 -1
v -80.9 10 -1
v -80.9 10.1 -1
v -80.9 10.2 -1
v -80.8 9 -1
v -80.8 9.1 -1
v -80.8 9.5 -1
v -80.8 9.6 -1
v -80.8 9.7 -1
v -80.8 10 -1
v -80.8 10.2 -1
v -80.8 10.3 -1
v -80.7 9.5 -1
v -80.7 9.6 -1
v -80.7 10.2 -1
v -80.7 10.3 -1
v -80.7 10.4 -1
v -80.6 10.3 -1
v -80.6 10.4 -1
v -80.6 10.5 -1
v -80.5 10.1 -1
v -80.5 10.3 -1
v -80.4 10 -1
v -80.4 10.1 -1
v -80.4 10.3 -1
v -80.4 10.4 -1
v -80.3 9.5 -1
v -80.3 9.7 -1
v -80.3 9.9 -1
v -80.3 10 -1
v -80.3 10.1 -1
v -80.3 10.3 -1
v -80.3 10.4 -1
v -80.2 9.4 -1
v -80.2 9.5 -1
v -80.2 9.7 -1
v -80.2 9.8 -1
v -80.2 10.2 -1
v -80.2 10.3 -1
v -80.1 9.7 -1
v -80.1 9.8 -1
v -80.1 9.9 -1
v -80.1 10 -1
v -80.1 10.2 -1
v -80.1 10.3 -1
v -80 9.4 -1
v -80 9.5 -1
v -80 9.7 -1
v -80 10 -1
v -80 10.2 -1
v -80 10.3 -1
v -80 10.4 -1
v -80 10.5 -1
v -79.9 1.1 -1
v -79.9 1.2 -1
v -79.9 9.5 -1
v -79.9 9.7 -1
v -79.9 10.2 -1
v -79.9 10.3 -1
v -79.9 10.4 -1
v -79.8 1.2 -1
v -79.8 1.3 -1
v -79.8 8 -1
v -79.8 8.1 -1
v -79.8 8.5 -1
v -79.8 9.8 -1
v -79.8 9.9 -1
v -79.8 10.2 -1
v -79.8 10.3 -1
v -79.7 1.3 -1
v -79.7 1.7 -1
v -79.7 8 -1
v -79.7 8.1 -1
v -79.7 8.5 -1
v -79.7 8.8 -1
v -79.7 8.9 -1
v -79.7 9.7 -1
v -79.7 9.8 -1
v -79.7 10.2 -1
v -79.7 10.6 -1
v -79.7 10.7 -1
v -79.6 1.7 -1
v -79.6 8 -1
v -79.6 8.1 -1
v -79.6 8.8 -1
v -79.6 8.9 -1
v -79.6 9.7 -1
v -79.6 9.8 -1
v -79.6 10.6 -1
v -79.6 10.7 -1
v -79.6 10.8 -1
v -79.5 1.8 -1
v -79.5 8 -1
v -79.5 8.1 -1
v -79.5 10.6 -1
v -79.5 10.7 -1
v -79.5 10.8 -1
v -79.4 1.7 -1
v -79.4 1.8 -1
v -79.4 8 -1
v -79.4 8.1 -1
v -79.4 10.6 -1
v -79.4 10.7 -1
v -79.3 1.3 -1
v -79.3 1.7 -1
v -79.3 8 -1
v -79.3 8.1 -1
v -79.2 1.2 -1
v -79.2 1.3 -1
v -79.1 1.1 -1
v -79.1 1.2 -1
v -81.2 9.1 -1.1
v -81.2 9.2 -1.1
v -81.2 9.5 -1.1
v -81.2 9.6 -1.1
v -81.1 9 -1.1
v -81.1 9.1 -1.1
v -81.1 9.6 -1.1
v -81.1 9.7 -1.1
v -81 9.6 -1.1
v -81 9.7 -1.1
v -80.9 9 -1.1
v -80.9 9.1 -1.1
v -80.8 9.1 -1.1
v -80.8 9.2 -1.1
v -80.8 9.5 -1.1
v -80.8 9.6 -1.1
v -80.6 9.3 -1.1
v -80.6 9.4 -1.1
v -80.5 9.3 -1.1
v -80.5 9.4 -1.1
v -79.7 8 -1.1
v -79.7 8.1 -1.1
v -79.4 8 -1.1
v -79.4 8.1 -1.1
v -81.5 9.2 -1.2
v -81.5 9.4 -1.2
v -81.4 9.3 -1.2
v -81.4 9.4 -1.2
v -81.3 9.4 -1.2
v -81.3 9.5 -1.2
v -80.7 9.4 -1.2
v -80.7 9.5 -1.2
v -80.6 9.3 -1.2
v -80.5 9.2 -1.2
v -80.5 9.3 -1.2
v -81.4 9.3 -1.3
v -81.4 9.4 -1.3
v -80.6 9.3 -1.3
v -80.6 9.4 -1.3
v -79.7 1.1 -0.5
v -79.3 1.1 -0.5
v -79.8 1.1 -0.6
v -79.7 1.1 -0.6
v -79.3 1.1 -0.6
v -79.2 1.1 -0.6
v -79.9 1.1 -0.7
v -79.8 1.1 -0.7
v -79.2 1.1 -0.7
v -79.1 1.1 -0.7
v -79.9 1.1 -1
v -79.1 1.1 -1
v -79.7 8 -0.8
v -79.6 8 -0.8
v -79.5 8 -0.8
v -79.4 8 -0.8
v -79.8 8 -0.9
v -79.7 8 -0.9
v -79.4 8 -0.9
v -79.3 8 -0.9
v -79.8 8 -1
v -79.7 8 -1
v -79.6 8 -1
v -79.5 8 -1
v -79.4 8 -1
v -79.3 8 -1
v -79.7 8 -1.1
v -79.4 8 -1.1
v -79.8 8.5 -0.8
v -79.7 8.5 -0.8
v -79.8 8.5 -1
v -79.7 8.5 -1
v -79.7 8.8 -0.8
v -79.6 8.8 -0.8
v -79.7 8.8 -1
v -79.6 8.8 -1
v -81.1 8.9 -0.7
v -80.9 8.9 -0.7
v -81.1 8.9 -1
v -80.9 8.9 -1
v -81.1 9 -0.6
v -80.9 9 -0.6
v -81.2 9 -0.7
v -81.1 9 -0.7
v -80.9 9 -0.7
v -80.8 9 -0.7
v -81.2 9 -1
v -81.1 9 -1
v -80.9 9 -1
v -80.8 9 -1
v -81.1 9 -1.1
v -80.9 9 -1.1
v -81.2 9.1 -0.6
v -81.1 9.1 -0.6
v -80.9 9.1 -0.6
v -80.8 9.1 -0.6
v -81.3 9.1 -0.7
v -81.2 9.1 -0.7
v -81.1 9.1 -0.7
v -80.9 9.1 -0.7
v -80.8 9.1 -0.7
v -80.7 9.1 -0.7
v -80.8 9.1 -0.9
v -80.7 9.1 -0.9
v -81.3 9.1 -1
v -81.2 9.1 -1
v -81.1 9.1 -1
v -80.9 9.1 -1
v -80.8 9.1 -1
v -81.2 9.1 -1.1
v -81.1 9.1 -1.1
v -80.9 9.1 -1.1
v -80.8 9.1 -1.1
v -81.5 9.2 -0.5
v -80.5 9.2 -0.5
v -81.2 9.2 -0.6
v -80.8 9.2 -0.6
v -81.3 9.2 -0.7
v -81.2 9.2 -0.7
v -80.8 9.2 -0.7
v -80.7 9.2 -0.7
v -80.8 9.2 -0.9
v -80.7 9.2 -0.9
v -81.3 9.2 -1
v -81.2 9.2 -1
v -81.2 9.2 -1.1
v -80.8 9.2 -1.1
v -81.5 9.2 -1.2
v -80.5 9.2 -1.2
v -81.4 9.3 -0.4
v -80.6 9.3 -0.4
v -81.4 9.3 -0.5
v -80.6 9.3 -0.5
v -81.4 9.3 -1.2
v -80.6 9.3 -1.2
v -81.4 9.3 -1.3
v -80.6 9.3 -1.3
v -80.2 9.4 -0.9
v -80 9.4 -0.9
v -80.2 9.4 -1
v -80 9.4 -1
v -80.3 9.5 -0.9
v -80.2 9.5 -0.9
v -80 9.5 -0.9
v -79.9 9.5 -0.9
v -80.3 9.5 -1
v -80.2 9.5 -1
v -80 9.5 -1
v -79.9 9.5 -1
v -79.7 9.7 -0.8
v -79.6 9.7 -0.8
v -80.2 9.7 -0.9
v -80.1 9.7 -0.9
v -80.2 9.7 -1
v -80.1 9.7 -1
v -79.7 9.7 -1
v -79.6 9.7 -1
v -80.1 9.8 -0.8
v -79.8 9.8 -0.8
v -80.1 9.8 -0.9
v -80.1 9.8 -1
v -79.8 9.8 -1
v -80.3 9.9 -0.8
v -80.1 9.9 -0.8
v -80.3 9.9 -1
v -80.1 9.9 -1
v -80.9 10 -0.8
v -80.8 10 -0.8
v -80.4 10 -0.8
v -80.3 10 -0.8
v -80.1 10 -0.9
v -80 10 -0.9
v -80.9 10 -1
v -80.8 10 -1
v -80.4 10 -1
v -80.3 10 -1
v -80.1 10 -1
v -80 10 -1
v -80.5 10.1 -0.8
v -80.4 10.1 -0.8
v -80.5 10.1 -1
v -80.4 10.1 -1
v -79.9 10.2 -0.8
v -79.8 10.2 -0.8
v -80.8 10.2 -0.9
v -80.7 10.2 -0.9
v -80.2 10.2 -0.9
v -80.1 10.2 -0.9
v -80.8 10.2 -1
v -80.7 10.2 -1
v -80.2 10.2 -1
v -80.1 10.2 -1
v -79.9 10.2 -1
v -79.8 10.2 -1
v -80.4 10.3 -0.8
v -80.3 10.3 -0.8
v -80 10.3 -0.8
v -79.9 10.3 -0.8
v -80.7 10.3 -0.9
v -80.6 10.3 -0.9
v -80.7 10.3 -1
v -80.6 10.3 -1
v -80.4 10.3 -1
v -80.3 10.3 -1
v -80 10.3 -1
v -79.9 10.3 -1
v -80.6 10.4 -0.8
v -80.4 10.4 -0.8
v -80.3 10.4 -0.8
v -80 10.4 -0.8
v -80.6 10.4 -0.9
v -80.6 10.4 -1
v -80.4 10.4 -1
v -80.3 10.4 -1
v -80 10.4 -1
v -79.7 10.6 -0.8
v -79.6 10.6 -0.8
v -79.5 10.6 -0.8
v -79.4 10.6 -0.8
v -79.7 10.6 -1
v -79.6 10.6 -1
v -79.5 10.6 -1
v -79.4 10.6 -1
v -79.7 1.2 -0.5
v -79.3 1.2 -0.5
v -79.8 1.2 -0.6
v -79.7 1.2 -0.6
v -79.3 1.2 -0.6
v -79.2 1.2 -0.6
v -79.9 1.2 -0.7
v -79.8 1.2 -0.7
v -79.7 1.2 -0.7
v -79.3 1.2 -0.7
v -79.2 1.2 -0.7
v -79.1 1.2 -0.7
v -79.9 1.2 -1
v -79.8 1.2 -1
v -79.2 1.2 -1
v -79.1 1.2 -1
v -79.7 1.3 -0.6
v -79.3 1.3 -0.6
v -79.8 1.3 -0.7
v -79.7 1.3 -0.7
v -79.3 1.3 -0.7
v -79.2 1.3 -0.7
v -79.8 1.3 -1
v -79.7 1.3 -1
v -79.3 1.3 -1
v -79.2 1.3 -1
v -79.7 1.4 -0.7
v -79.3 1.4 -0.7
v -79.7 1.4 -0.8
v -79.3 1.4 -0.8
v -79.7 1.7 -0.8
v -79.6 1.7 -0.8
v -79.4 1.7 -0.8
v -79.3 1.7 -0.8
v -79.7 1.7 -1
v -79.6 1.7 -1
v -79.4 1.7 -1
v -79.3 1.7 -1
v -79.5 1.8 -0.8
v -79.4 1.8 -0.8
v -79.5 1.8 -1
v -79.4 1.8 -1
v -79.7 8.1 -0.8
v -79.6 8.1 -0.8
v -79.5 8.1 -0.8
v -79.4 8.1 -0.8
v -79.8 8.1 -0.9
v -79.7 8.1 -0.9
v -79.4 8.1 -0.9
v -79.3 8.1 -0.9
v -79.8 8.1 -1
v -79.7 8.1 -1
v -79.6 8.1 -1
v -79.5 8.1 -1
v -79.4 8.1 -1
v -79.3 8.1 -1
v -79.7 8.1 -1.1
v -79.4 8.1 -1.1
v -79.7 8.9 -0.8
v -79.6 8.9 -0.8
v -79.7 8.9 -1
v -79.6 8.9 -1
v -80.6 9.3 -1.1
v -80.5 9.3 -1.1
v -80.6 9.3 -1.2
v -80.5 9.3 -1.2
v -81.4 9.4 -0.4
v -80.6 9.4 -0.4
v -81.5 9.4 -0.5
v -81.4 9.4 -0.5
v -81.3 9.4 -0.5
v -80.7 9.4 -0.5
v -80.6 9.4 -0.5
v -80.5 9.4 -0.5
v -80.6 9.4 -1.1
v -80.5 9.4 -1.1
v -81.5 9.4 -1.2
v -81.4 9.4 -1.2
v -81.3 9.4 -1.2
v -80.7 9.4 -1.2
v -81.4 9.4 -1.3
v -80.6 9.4 -1.3
v -81.3 9.5 -0.5
v -80.7 9.5 -0.5
v -81.2 9.5 -0.6
v -80.8 9.5 -0.6
v -81.3 9.5 -0.7
v -81.2 9.5 -0.7
v -80.8 9.5 -0.7
v -80.7 9.5 -0.7
v -80.2 9.5 -0.9
v -80 9.5 -0.9
v -81.3 9.5 -1
v -81.2 9.5 -1
v -80.8 9.5 -1
v -80.7 9.5 -1
v -80.2 9.5 -1
v -80 9.5 -1
v -81.2 9.5 -1.1
v -80.8 9.5 -1.1
v -81.3 9.5 -1.2
v -80.7 9.5 -1.2
v -81.2 9.6 -0.6
v -81.1 9.6 -0.6
v -80.9 9.6 -0.6
v -80.8 9.6 -0.6
v -81.3 9.6 -0.7
v -81.2 9.6 -0.7
v -81.1 9.6 -0.7
v -80.9 9.6 -0.7
v -80.8 9.6 -0.7
v -80.7 9.6 -0.7
v -81.3 9.6 -1
v -81.2 9.6 -1
v -81.1 9.6 -1
v -81 9.6 -1
v -80.8 9.6 -1
v -80.7 9.6 -1
v -81.2 9.6 -1.1
v -81.1 9.6 -1.1
v -81 9.6 -1.1
v -80.8 9.6 -1.1
v -81.1 9.7 -0.6
v -80.9 9.7 -0.6
v -81.2 9.7 -0.7
v -81.1 9.7 -0.7
v -80.9 9.7 -0.7
v -80.8 9.7 -0.7
v -81.1 9.7 -0.9
v -81 9.7 -0.9
v -80.3 9.7 -0.9
v -80.2 9.7 -0.9
v -80 9.7 -0.9
v -79.9 9.7 -0.9
v -81.2 9.7 -1
v -81.1 9.7 -1
v -81 9.7 -1
v -80.9 9.7 -1
v -80.8 9.7 -1
v -80.3 9.7 -1
v -80.2 9.7 -1
v -80 9.7 -1
v -79.9 9.7 -1
v -81.1 9.7 -1.1
v -81 9.7 -1.1
v -81.1 9.8 -0.7
v -80.9 9.8 -0.7
v -81 9.8 -0.8
v -80.9 9.8 -0.8
v -79.7 9.8 -0.8
v -79.6 9.8 -0.8
v -81.1 9.8 -0.9
v -81 9.8 -0.9
v -80.2 9.8 -0.9
v -80.1 9.8 -0.9
v -80.2 9.8 -1
v -80.1 9.8 -1
v -79.7 9.8 -1
v -79.6 9.8 -1
v -80.1 9.9 -0.8
v -79.8 9.9 -0.8
v -80.1 9.9 -1
v -79.8 9.9 -1
v -80.3 10 -0.8
v -80.1 10 -0.8
v -80.1 10 -0.9
v -80.3 10 -1
v -80.1 10 -1
v -81 10.1 -0.8
v -80.9 10.1 -0.8
v -80.4 10.1 -0.8
v -80.3 10.1 -0.8
v -81 10.1 -1
v -80.9 10.1 -1
v -80.4 10.1 -1
v -80.3 10.1 -1
v -80.9 10.2 -0.8
v -80.8 10.2 -0.8
v -79.8 10.2 -0.8
v -79.7 10.2 -0.8
v -80.8 10.2 -0.9
v -80.1 10.2 -0.9
v -80 10.2 -0.9
v -80.9 10.2 -1
v -80.8 10.2 -1
v -80.1 10.2 -1
v -80 10.2 -1
v -79.8 10.2 -1
v -79.7 10.2 -1
v -80.5 10.3 -0.8
v -80.4 10.3 -0.8
v -79.9 10.3 -0.8
v -79.8 10.3 -0.8
v -80.8 10.3 -0.9
v -80.7 10.3 -0.9
v -80.2 10.3 -0.9
v -80.1 10.3 -0.9
v -80.8 10.3 -1
v -80.7 10.3 -1
v -80.5 10.3 -1
v -80.4 10.3 -1
v -80.2 10.3 -1
v -80.1 10.3 -1
v -79.9 10.3 -1
v -79.8 10.3 -1
v -80 10.4 -0.8
v -79.9 10.4 -0.8
v -80.7 10.4 -0.9
v -80.6 10.4 -0.9
v -80.7 10.4 -1
v -80.6 10.4 -1
v -80 10.4 -1
v -79.9 10.4 -1
v -80.6 10.5 -0.8
v -80 10.5 -0.8
v -80.6 10.5 -1
v -80 10.5 -1
v -79.7 10.7 -0.8
v -79.6 10.7 -0.8
v -79.5 10.7 -0.8
v -79.4 10.7 -0.8
v -79.7 10.7 -1
v -79.6 10.7 -1
v -79.5 10.7 -1
v -79.4 10.7 -1
v -79.6 10.8 -0.8
v -79.5 10.8 -0.8
v -79.6 10.8 -1
v -79.5 10.8 -1

# faces
f 3/2/1 2/2/1 1/2/1
f 4/2/1 2/2/1 3/2/1
f 9/2/1 6/2/1 5/2/1
f 10/2/1 6/2/1 9/2/1
f 11/2/1 8/2/1 7/2/1
f 12/2/1 8/2/1 11/2/1
f 15/1/1 14/1/1 13/1/1
f 16/1/1 14/1/1 15/1/1
f 19/2/1 18/2/1 17/2/1
f 20/2/1 18/2/1 19/2/1
f 21/2/1 18/2/1 20/2/1
f 22/2/1 18/2/1 21/2/1
f 23/2/1 21/2/1 20/2/1
f 24/2/1 21/2/1 23/2/1
f 28/1/1 26/1/1 25/1/1
f 29/1/1 26/1/1 28/1/1
f 31/1/1 28/1/1 27/1/1
f 32/1/1 28/1/1 31/1/1
f 33/1/1 30/1/1 29/1/1
f 34/1/1 30/1/1 33/1/1
f 39/2/1 36/2/1 35/2/1
f 40/2/1 36/2/1 39/2/1
f 41/2/1 38/2/1 37/2/1
f 42/2/1 38/2/1 41/2/1
f 43/2/1 41/2/1 40/2/1
f 44/2/1 41/2/1 43/2/1
f 48/1/1 46/1/1 45/1/1
f 49/1/1 46/1/1 48/1/1
f 51/1/1 48/1/1 47/1/1
f 52/1/1 48/1/1 51/1/1
f 53/1/1 50/1/1 49/1/1
f 54/1/1 50/1/1 53/1/1
f 59/2/1 56/2/1 55/2/1
f 60/2/1 56/2/1 59/2/1
f 62/2/1 58/2/1 57/2/1
f 63/2/1 58/2/1 62/2/1
f 64/2/1 61/2/1 60/2/1
f 65/2/1 61/2/1 64/2/1
f 69/2/1 67/2/1 66/2/1
f 70/2/1 69/2/1 68/2/1
f 71/2/1 67/2/1 69/2/1
f 71/2/1 69/2/1 70/2/1
f 74/2/1 73/2/1 72/2/1
f 75/2/1 73/2/1 74/2/1
f 78/2/1 77/2/1 76/2/1
f 79/2/1 77/2/1 78/2/1
f 82/2/1 81/2/1 80/2/1
f 83/2/1 81/2/1 82/2/1
f 87/2/1 85/2/1 84/2/1
f 87/2/1 86/2/1 85/2/1
f 88/2/1 86/2/1 87/2/1
f 91/2/1 90/2/1 89/2/1
f 92/2/1 90/2/1 91/2/1
f 95/2/1 94/2/1 93/2/1
f 96/2/1 94/2/1 95/2/1
f 99/2/1 98/2/1 97/2/1
f 100/2/1 98/2/1 99/2/1
f 103/2/1 102/2/1 101/2/1
f 104/2/1 102/2/1 103/2/1
f 107/2/1 106/2/1 105/2/1
f 108/2/1 106/2/1 107/2/1
f 111/2/1 110/2/1 109/2/1
f 112/2/1 110/2/1 111/2/1
f 115/2/1 114/2/1 113/2/1
f 116/2/1 114/2/1 115/2/1
f 119/2/1 118/2/1 117/2/1
f 120/2/1 118/2/1 119/2/1
f 124/2/1 122/2/1 121/2/1
f 124/2/1 123/2/1 122/2/1
f 125/2/1 123/2/1 124/2/1
f 128/2/1 127/2/1 126/2/1
f 129/2/1 127/2/1 128/2/1
f 132/2/1 131/2/1 130/2/1
f 133/2/1 131/2/1 132/2/1
f 136/2/1 135/2/1 134/2/1
f 137/2/1 135/2/1 136/2/1
f 140/2/1 139/2/1 138/2/1
f 141/2/1 139/2/1 140/2/1
f 144/2/1 143/2/1 142/2/1
f 145/2/1 143/2/1 144/2/1
f 148/2/1 147/2/1 146/2/1
f 149/2/1 147/2/1 148/2/1
f 151/2/1 150/2/1 149/2/1
f 152/2/1 150/2/1 151/2/1
f 155/2/1 154/2/1 153/2/1
f 156/2/1 154/2/1 155/2/1
f 159/2/1 158/2/1 157/2/1
f 160/2/1 158/2/1 159/2/1
f 163/2/1 162/2/1 161/2/1
f 164/2/1 162/2/1 163/2/1
f 167/2/1 166/2/1 165/2/1
f 168/2/1 166/2/1 167/2/1
f 170/2/1 169/2/1 168/2/1
f 171/2/1 169/2/1 170/2/1
f 173/2/1 172/2/1 171/2/1
f 174/2/1 172/2/1 173/2/1
f 175/2/1 172/2/1 174/2/1
f 176/2/1 172/2/1 175/2/1
f 181/2/1 178/2/1 177/2/1
f 182/2/1 178/2/1 181/2/1
f 183/2/1 180/2/1 179/2/1
f 184/2/1 180/2/1 183/2/1
f 187/2/1 186/2/1 185/2/1
f 188/2/1 186/2/1 187/2/1
f 191/2/1 190/2/1 189/2/1
f 192/2/1 190/2/1 191/2/1
f 195/2/1 194/2/1 193/2/1
f 196/2/1 194/2/1 195/2/1
f 199/2/1 198/2/1 197/2/1
f 200/2/1 198/2/1 199/2/1
f 203/2/1 202/2/1 201/2/1
f 204/2/1 202/2/1 203/2/1
f 207/2/1 206/2/1 205/2/1
f 208/2/1 206/2/1 207/2/1
f 209/2/2 210/2/2 211/2/2
f 211/2/2 210/2/2 212/2/2
f 213/1/2 214/1/2 216/1/2
f 216/1/2 214/1/2 217/1/2
f 215/1/2 216/1/2 219/1/2
f 219/1/2 216/1/2 220/1/2
f 217/1/2 218/1/2 221/1/2
f 221/1/2 218/1/2 222/1/2
f 223/2/2 224/2/2 225/2/2
f 225/2/2 224/2/2 226/2/2
f 226/2/2 227/2/2 228/2/2
f 228/2/2 227/2/2 229/2/2
f 229/2/2 227/2/2 230/2/2
f 230/2/2 227/2/2 231/2/2
f 232/1/2 233/1/2 235/1/2
f 235/1/2 233/1/2 236/1/2
f 236/1/2 233/1/2 237/1/2
f 234/1/2 235/1/2 239/1/2
f 239/1/2 235/1/2 240/1/2
f 237/1/2 238/1/2 241/1/2
f 236/1/2 237/1/2 241/1/2
f 241/1/2 238/1/2 242/1/2
f 243/2/2 244/2/2 247/2/2
f 247/2/2 244/2/2 248/2/2
f 245/2/2 246/2/2 249/2/2
f 249/2/2 246/2/2 250/2/2
f 248/2/2 249/2/2 251/2/2
f 251/2/2 249/2/2 252/2/2
f 253/2/2 254/2/2 255/2/2
f 255/2/2 254/2/2 256/2/2
f 256/2/2 254/2/2 257/2/2
f 258/1/2 259/1/2 260/1/2
f 260/1/2 259/1/2 261/1/2
f 262/2/2 263/2/2 264/2/2
f 264/2/2 263/2/2 265/2/2
f 265/2/2 263/2/2 266/2/2
f 266/2/2 263/2/2 267/2/2
f 265/2/2 266/2/2 268/2/2
f 268/2/2 266/2/2 269/2/2
f 270/2/2 271/2/2 272/2/2
f 272/2/2 271/2/2 273/2/2
f 274/2/2 275/2/2 279/2/2
f 279/2/2 275/2/2 280/2/2
f 277/2/2 278/2/2 281/2/2
f 276/2/2 277/2/2 281/2/2
f 281/2/2 278/2/2 282/2/2
f 283/2/2 284/2/2 285/2/2
f 285/2/2 284/2/2 286/2/2
f 287/2/2 288/2/2 289/2/2
f 289/2/2 288/2/2 290/2/2
f 287/2/2 289/2/2 291/2/2
f 291/2/2 289/2/2 292/2/2
f 293/2/2 294/2/2 295/2/2
f 295/2/2 294/2/2 296/2/2
f 297/2/2 298/2/2 299/2/2
f 299/2/2 298/2/2 300/2/2
f 301/2/2 302/2/2 303/2/2
f 303/2/2 302/2/2 304/2/2
f 305/2/2 306/2/2 307/2/2
f 307/2/2 306/2/2 308/2/2
f 309/2/2 310/2/2 311/2/2
f 311/2/2 310/2/2 312/2/2
f 313/2/2 314/2/2 315/2/2
f 315/2/2 314/2/2 316/2/2
f 316/2/2 314/2/2 317/2/2
f 318/2/2 319/2/2 320/2/2
f 320/2/2 319/2/2 321/2/2
f 322/2/2 323/2/2 324/2/2
f 324/2/2 323/2/2 325/2/2
f 326/2/2 327/2/2 328/2/2
f 328/2/2 327/2/2 329/2/2
f 330/2/2 331/2/2 332/2/2
f 332/2/2 331/2/2 333/2/2
f 334/2/2 335/2/2 336/2/2
f 336/2/2 335/2/2 337/2/2
f 338/2/2 339/2/2 340/2/2
f 340/2/2 339/2/2 341/2/2
f 342/2/2 343/2/2 344/2/2
f 344/2/2 343/2/2 345/2/2
f 346/2/2 347/2/2 348/2/2
f 348/2/2 347/2/2 349/2/2
f 350/2/2 351/2/2 352/2/2
f 352/2/2 351/2/2 353/2/2
f 354/2/2 355/2/2 356/2/2
f 356/2/2 355/2/2 357/2/2
f 358/2/2 359/2/2 360/2/2
f 360/2/2 359/2/2 361/2/2
f 362/2/2 363/2/2 364/2/2
f 364/2/2 363/2/2 365/2/2
f 366/2/2 367/2/2 368/2/2
f 368/2/2 367/2/2 369/2/2
f 370/2/2 371/2/2 372/2/2
f 372/2/2 371/2/2 373/2/2
f 374/2/2 375/2/2 378/2/2
f 378/2/2 375/2/2 379/2/2
f 376/2/2 377/2/2 380/2/2
f 380/2/2 377/2/2 381/2/2
f 382/2/2 383/2/2 384/2/2
f 384/2/2 383/2/2 385/2/2
f 386/2/2 387/2/2 388/2/2
f 388/2/2 387/2/2 389/2/2
f 389/2/2 390/2/2 391/2/2
f 391/2/2 390/2/2 392/2/2
f 392/2/2 393/2/2 394/2/2
f 394/2/2 393/2/2 395/2/2
f 395/2/2 393/2/2 396/2/2
f 396/2/2 393/2/2 397/2/2
f 398/2/2 399/2/2 400/2/2
f 400/2/2 399/2/2 401/2/2
f 402/2/2 403/2/2 404/2/2
f 404/2/2 403/2/2 405/2/2
f 405/2/2 406/2/2 407/2/2
f 407/2/2 406/2/2 408/2/2
f 409/2/2 410/2/2 411/2/2
f 411/2/2 410/2/2 412/2/2
f 415/2/3 414/2/3 413/2/3
f 416/2/3 414/2/3 415/2/3
f 419/2/3 418/2/3 417/2/3
f 420/2/3 418/2/3 419/2/3
f 423/2/3 422/2/3 421/2/3
f 424/2/3 422/2/3 423/2/3
f 425/2/3 419/2/3 417/2/3
f 427/2/3 425/2/3 417/2/3
f 427/2/3 426/2/3 425/2/3
f 428/2/3 426/2/3 427/2/3
f 431/2/3 430/2/3 429/2/3
f 432/2/3 430/2/3 431/2/3
f 438/1/3 434/1/3 433/1/3
f 439/2/3 436/2/3 435/2/3
f 441/1/3 438/1/3 437/1/3
f 442/1/3 434/1/3 438/1/3
f 442/1/3 438/1/3 441/1/3
f 443/2/3 440/2/3 439/2/3
f 443/2/3 439/2/3 435/2/3
f 444/2/3 440/2/3 443/2/3
f 445/1/3 434/1/3 442/1/3
f 446/1/3 434/1/3 445/1/3
f 447/2/3 443/2/3 435/2/3
f 448/2/3 443/2/3 447/2/3
f 451/2/3 450/2/3 449/2/3
f 452/2/3 450/2/3 451/2/3
f 455/2/3 453/2/3 452/2/3
f 456/2/3 453/2/3 455/2/3
f 457/2/3 455/2/3 454/2/3
f 458/2/3 455/2/3 457/2/3
f 464/1/3 460/1/3 459/1/3
f 465/1/3 460/1/3 464/1/3
f 466/2/3 462/2/3 461/2/3
f 467/2/3 462/2/3 466/2/3
f 470/1/3 464/1/3 463/1/3
f 471/1/3 464/1/3 470/1/3
f 472/2/3 468/2/3 467/2/3
f 473/2/3 468/2/3 472/2/3
f 475/1/3 470/1/3 469/1/3
f 476/1/3 470/1/3 475/1/3
f 479/2/3 474/2/3 473/2/3
f 480/2/3 474/2/3 479/2/3
f 481/1/3 477/1/3 476/1/3
f 482/1/3 477/1/3 481/1/3
f 485/2/3 479/2/3 478/2/3
f 486/2/3 479/2/3 485/2/3
f 487/1/3 483/1/3 482/1/3
f 488/1/3 483/1/3 487/1/3
f 489/2/3 485/2/3 484/2/3
f 490/2/3 485/2/3 489/2/3
f 493/2/3 492/2/3 491/2/3
f 494/2/3 492/2/3 493/2/3
f 496/2/3 495/2/3 494/2/3
f 497/2/3 495/2/3 496/2/3
f 500/2/3 498/2/3 497/2/3
f 501/2/3 498/2/3 500/2/3
f 503/2/3 500/2/3 499/2/3
f 504/2/3 500/2/3 503/2/3
f 505/2/3 503/2/3 502/2/3
f 506/2/3 503/2/3 505/2/3
f 509/2/3 508/2/3 507/2/3
f 510/2/3 508/2/3 509/2/3
f 511/2/3 508/2/3 510/2/3
f 513/2/3 512/2/3 511/2/3
f 513/2/3 511/2/3 510/2/3
f 514/2/3 512/2/3 513/2/3
f 520/2/3 518/2/3 517/2/3
f 521/2/3 518/2/3 520/2/3
f 522/2/3 516/2/3 515/2/3
f 524/2/3 520/2/3 519/2/3
f 525/2/3 520/2/3 524/2/3
f 526/2/3 522/2/3 521/2/3
f 527/2/3 516/2/3 522/2/3
f 527/2/3 522/2/3 526/2/3
f 529/2/3 524/2/3 523/2/3
f 530/2/3 524/2/3 529/2/3
f 532/2/3 516/2/3 527/2/3
f 533/2/3 516/2/3 532/2/3
f 535/2/3 532/2/3 531/2/3
f 536/2/3 532/2/3 535/2/3
f 538/2/3 529/2/3 528/2/3
f 539/2/3 529/2/3 538/2/3
f 540/2/3 535/2/3 534/2/3
f 541/2/3 535/2/3 540/2/3
f 546/2/3 539/2/3 538/2/3
f 546/2/3 538/2/3 537/2/3
f 546/2/3 540/2/3 539/2/3
f 547/2/3 540/2/3 546/2/3
f 548/2/3 540/2/3 547/2/3
f 549/2/3 540/2/3 548/2/3
f 550/2/3 540/2/3 549/2/3
f 551/2/3 540/2/3 550/2/3
f 554/2/3 543/2/3 542/2/3
f 555/2/3 545/2/3 544/2/3
f 556/2/3 545/2/3 555/2/3
f 557/2/3 548/2/3 547/2/3
f 558/2/3 548/2/3 557/2/3
f 559/2/3 550/2/3 549/2/3
f 560/2/3 550/2/3 559/2/3
f 561/2/3 553/2/3 552/2/3
f 562/2/3 553/2/3 561/2/3
f 564/2/3 560/2/3 559/2/3
f 564/2/3 563/2/3 562/2/3
f 564/2/3 562/2/3 561/2/3
f 564/2/3 561/2/3 560/2/3
f 564/2/3 558/2/3 557/2/3
f 564/2/3 559/2/3 558/2/3
f 564/2/3 556/2/3 555/2/3
f 564/2/3 557/2/3 556/2/3
f 564/2/3 555/2/3 554/2/3
f 565/2/3 563/2/3 564/2/3
f 566/2/3 563/2/3 565/2/3
f 567/2/3 563/2/3 566/2/3
f 568/2/3 563/2/3 567/2/3
f 569/2/3 563/2/3 568/2/3
f 570/2/3 554/2/3 542/2/3
f 570/2/3 564/2/3 554/2/3
f 571/2/3 564/2/3 570/2/3
f 572/2/3 566/2/3 565/2/3
f 573/2/3 566/2/3 572/2/3
f 574/2/3 568/2/3 567/2/3
f 575/2/3 568/2/3 574/2/3
f 576/2/3 570/2/3 542/2/3
f 577/2/3 570/2/3 576/2/3
f 580/2/3 579/2/3 578/2/3
f 581/2/3 579/2/3 580/2/3
f 583/2/3 582/2/3 581/2/3
f 584/2/3 582/2/3 583/2/3
f 588/2/3 586/2/3 585/2/3
f 589/2/3 586/2/3 588/2/3
f 593/2/3 590/2/3 589/2/3
f 594/2/3 590/2/3 593/2/3
f 596/2/3 592/2/3 591/2/3
f 597/2/3 592/2/3 596/2/3
f 598/2/3 588/2/3 587/2/3
f 599/2/3 588/2/3 598/2/3
f 601/2/3 596/2/3 595/2/3
f 602/2/3 596/2/3 601/2/3
f 603/2/3 600/2/3 599/2/3
f 604/2/3 600/2/3 603/2/3
f 607/2/3 606/2/3 605/2/3
f 608/2/3 606/2/3 607/2/3
f 611/2/3 610/2/3 609/2/3
f 612/2/3 610/2/3 611/2/3
f 613/2/4 614/2/4 615/2/4
f 615/2/4 614/2/4 616/2/4
f 617/1/4 618/1/4 619/1/4
f 619/1/4 618/1/4 620/1/4
f 621/1/4 622/1/4 626/1/4
f 626/1/4 622/1/4 627/1/4
f 623/2/4 624/2/4 628/2/4
f 628/2/4 624/2/4 629/2/4
f 625/1/4 626/1/4 632/1/4
f 632/1/4 626/1/4 633/1/4
f 629/2/4 630/2/4 634/2/4
f 634/2/4 630/2/4 635/2/4
f 631/1/4 632/1/4 639/1/4
f 639/1/4 632/1/4 640/1/4
f 636/2/4 637/2/4 642/2/4
f 637/2/4 638/2/4 642/2/4
f 642/2/4 638/2/4 643/2/4
f 643/2/4 638/2/4 644/2/4
f 640/1/4 641/1/4 646/1/4
f 646/1/4 641/1/4 647/1/4
f 636/2/4 642/2/4 649/2/4
f 649/2/4 642/2/4 650/2/4
f 644/2/4 645/2/4 651/2/4
f 643/2/4 644/2/4 651/2/4
f 651/2/4 645/2/4 652/2/4
f 648/2/4 649/2/4 654/2/4
f 654/2/4 649/2/4 655/2/4
f 652/2/4 653/2/4 656/2/4
f 656/2/4 653/2/4 657/2/4
f 657/2/4 658/2/4 659/2/4
f 659/2/4 658/2/4 660/2/4
f 662/2/4 663/2/4 665/2/4
f 665/2/4 663/2/4 666/2/4
f 660/2/4 661/2/4 667/2/4
f 664/2/4 665/2/4 671/2/4
f 671/2/4 665/2/4 672/2/4
f 666/2/4 667/2/4 673/2/4
f 667/2/4 661/2/4 674/2/4
f 673/2/4 667/2/4 674/2/4
f 668/2/4 669/2/4 676/2/4
f 676/2/4 669/2/4 677/2/4
f 677/2/4 678/2/4 681/2/4
f 681/2/4 678/2/4 682/2/4
f 670/2/4 671/2/4 683/2/4
f 683/2/4 671/2/4 684/2/4
f 679/2/4 680/2/4 685/2/4
f 685/2/4 680/2/4 686/2/4
f 675/2/4 676/2/4 687/2/4
f 687/2/4 676/2/4 688/2/4
f 684/2/4 685/2/4 690/2/4
f 690/2/4 685/2/4 691/2/4
f 674/2/4 661/2/4 693/2/4
f 693/2/4 661/2/4 694/2/4
f 688/2/4 689/2/4 697/2/4
f 697/2/4 689/2/4 698/2/4
f 692/2/4 693/2/4 700/2/4
f 700/2/4 693/2/4 701/2/4
f 695/2/4 696/2/4 702/2/4
f 682/2/4 683/2/4 707/2/4
f 707/2/4 683/2/4 708/2/4
f 699/2/4 700/2/4 709/2/4
f 709/2/4 700/2/4 710/2/4
f 702/2/4 703/2/4 711/2/4
f 704/2/4 705/2/4 713/2/4
f 713/2/4 705/2/4 714/2/4
f 707/2/4 708/2/4 715/2/4
f 706/2/4 707/2/4 715/2/4
f 708/2/4 709/2/4 715/2/4
f 715/2/4 709/2/4 716/2/4
f 716/2/4 709/2/4 717/2/4
f 717/2/4 709/2/4 718/2/4
f 718/2/4 709/2/4 719/2/4
f 719/2/4 709/2/4 720/2/4
f 711/2/4 712/2/4 723/2/4
f 716/2/4 717/2/4 726/2/4
f 726/2/4 717/2/4 727/2/4
f 718/2/4 719/2/4 728/2/4
f 728/2/4 719/2/4 729/2/4
f 721/2/4 722/2/4 730/2/4
f 730/2/4 722/2/4 731/2/4
f 723/2/4 724/2/4 733/2/4
f 733/2/4 724/2/4 734/2/4
f 728/2/4 729/2/4 735/2/4
f 726/2/4 727/2/4 735/2/4
f 731/2/4 732/2/4 735/2/4
f 730/2/4 731/2/4 735/2/4
f 729/2/4 730/2/4 735/2/4
f 725/2/4 726/2/4 735/2/4
f 727/2/4 728/2/4 735/2/4
f 735/2/4 732/2/4 736/2/4
f 736/2/4 732/2/4 737/2/4
f 737/2/4 732/2/4 738/2/4
f 723/2/4 733/2/4 739/2/4
f 711/2/4 723/2/4 739/2/4
f 739/2/4 733/2/4 740/2/4
f 736/2/4 737/2/4 743/2/4
f 743/2/4 737/2/4 744/2/4
f 702/2/4 711/2/4 745/2/4
f 711/2/4 739/2/4 745/2/4
f 745/2/4 739/2/4 746/2/4
f 741/2/4 742/2/4 747/2/4
f 747/2/4 742/2/4 748/2/4
f 695/2/4 702/2/4 749/2/4
f 702/2/4 745/2/4 749/2/4
f 749/2/4 745/2/4 750/2/4
f 695/2/4 749/2/4 751/2/4
f 751/2/4 749/2/4 752/2/4
f 753/1/4 754/1/4 758/1/4
f 755/2/4 756/2/4 759/2/4
f 755/2/4 759/2/4 761/2/4
f 759/2/4 760/2/4 761/2/4
f 761/2/4 760/2/4 762/2/4
f 757/1/4 758/1/4 763/1/4
f 758/1/4 754/1/4 764/1/4
f 763/1/4 758/1/4 764/1/4
f 764/1/4 754/1/4 765/1/4
f 765/1/4 754/1/4 766/1/4
f 755/2/4 761/2/4 767/2/4
f 767/2/4 761/2/4 768/2/4
f 769/2/4 770/2/4 771/2/4
f 771/2/4 770/2/4 772/2/4
f 773/2/4 774/2/4 775/2/4
f 775/2/4 774/2/4 776/2/4
f 777/2/4 778/2/4 779/2/4
f 779/2/4 778/2/4 780/2/4
f 781/2/4 782/2/4 783/2/4
f 783/2/4 782/2/4 784/2/4
f 777/2/4 779/2/4 785/2/4
f 777/2/4 785/2/4 786/2/4
f 786/2/4 785/2/4 787/2/4
f 788/2/4 789/2/4 790/2/4
f 790/2/4 789/2/4 791/2/4
f 795/2/5 793/2/5 792/2/5
f 796/2/5 793/2/5 795/2/5
f 799/2/5 795/2/5 794/2/5
f 799/2/5 797/2/5 796/2/5
f 799/2/5 796/2/5 795/2/5
f 800/2/5 797/2/5 799/2/5
f 802/2/5 799/2/5 798/2/5
f 802/2/5 801/2/5 800/2/5
f 802/2/5 800/2/5 799/2/5
f 803/2/5 801/2/5 802/2/5
f 809/2/5 805/2/5 804/2/5
f 810/2/5 807/2/5 806/2/5
f 812/2/5 809/2/5 808/2/5
f 813/2/5 805/2/5 809/2/5
f 813/2/5 809/2/5 812/2/5
f 814/2/5 805/2/5 813/2/5
f 815/2/5 811/2/5 810/2/5
f 815/2/5 810/2/5 806/2/5
f 816/2/5 811/2/5 815/2/5
f 817/2/5 811/2/5 816/2/5
f 818/2/5 814/2/5 813/2/5
f 818/2/5 816/2/5 815/2/5
f 818/2/5 815/2/5 814/2/5
f 819/2/5 816/2/5 818/2/5
f 822/2/5 821/2/5 820/2/5
f 823/2/5 821/2/5 822/2/5
f 826/2/5 825/2/5 824/2/5
f 827/2/5 825/2/5 826/2/5
f 830/1/5 829/1/5 828/1/5
f 831/1/5 829/1/5 830/1/5
f 835/1/5 833/1/5 832/1/5
f 836/1/5 833/1/5 835/1/5
f 838/1/5 835/1/5 834/1/5
f 839/1/5 835/1/5 838/1/5
f 840/1/5 837/1/5 836/1/5
f 841/1/5 837/1/5 840/1/5
f 842/1/5 840/1/5 839/1/5
f 843/1/5 840/1/5 842/1/5
f 849/1/5 845/1/5 844/1/5
f 850/1/5 845/1/5 849/1/5
f 851/1/5 847/1/5 846/1/5
f 852/1/5 847/1/5 851/1/5
f 854/1/5 853/1/5 852/1/5
f 855/1/5 853/1/5 854/1/5
f 856/1/5 849/1/5 848/1/5
f 857/1/5 849/1/5 856/1/5
f 861/1/5 858/1/5 857/1/5
f 862/1/5 858/1/5 861/1/5
f 863/1/5 860/1/5 859/1/5
f 864/1/5 860/1/5 863/1/5
f 867/2/5 866/2/5 865/2/5
f 868/2/5 866/2/5 867/2/5
f 869/2/5 867/2/5 865/2/5
f 870/2/5 867/2/5 869/2/5
f 871/2/5 866/2/5 868/2/5
f 872/2/5 866/2/5 871/2/5
f 874/2/5 866/2/5 872/2/5
f 875/2/5 869/2/5 865/2/5
f 877/2/5 876/2/5 875/2/5
f 878/2/5 874/2/5 873/2/5
f 879/2/5 877/2/5 875/2/5
f 879/2/5 878/2/5 877/2/5
f 879/2/5 875/2/5 865/2/5
f 880/2/5 874/2/5 878/2/5
f 880/2/5 878/2/5 879/2/5
f 880/2/5 866/2/5 874/2/5
f 883/2/5 882/2/5 881/2/5
f 884/2/5 882/2/5 883/2/5
f 887/2/5 886/2/5 885/2/5
f 888/2/5 886/2/5 887/2/5
f 891/2/5 890/2/5 889/2/5
f 892/2/5 890/2/5 891/2/5
f 897/2/5 894/2/5 893/2/5
f 898/2/5 894/2/5 897/2/5
f 899/2/5 896/2/5 895/2/5
f 900/2/5 896/2/5 899/2/5
f 905/2/5 904/2/5 903/2/5
f 906/2/5 904/2/5 905/2/5
f 907/2/5 902/2/5 901/2/5
f 908/2/5 902/2/5 907/2/5
f 911/2/5 910/2/5 909/2/5
f 912/2/5 910/2/5 911/2/5
f 913/2/5 910/2/5 912/2/5
f 916/2/5 915/2/5 914/2/5
f 917/2/5 915/2/5 916/2/5
f 924/2/5 919/2/5 918/2/5
f 925/2/5 919/2/5 924/2/5
f 926/2/5 921/2/5 920/2/5
f 927/2/5 921/2/5 926/2/5
f 928/2/5 923/2/5 922/2/5
f 929/2/5 923/2/5 928/2/5
f 932/2/5 931/2/5 930/2/5
f 933/2/5 931/2/5 932/2/5
f 940/2/5 937/2/5 936/2/5
f 941/2/5 937/2/5 940/2/5
f 942/2/5 939/2/5 938/2/5
f 943/2/5 939/2/5 942/2/5
f 944/2/5 935/2/5 934/2/5
f 945/2/5 935/2/5 944/2/5
f 952/2/5 951/2/5 950/2/5
f 953/2/5 951/2/5 952/2/5
f 954/2/5 947/2/5 946/2/5
f 955/2/5 947/2/5 954/2/5
f 956/2/5 949/2/5 948/2/5
f 957/2/5 949/2/5 956/2/5
f 962/2/5 959/2/5 958/2/5
f 963/2/5 959/2/5 962/2/5
f 964/2/5 959/2/5 963/2/5
f 965/2/5 961/2/5 960/2/5
f 966/2/5 961/2/5 965/2/5
f 971/2/5 968/2/5 967/2/5
f 972/2/5 968/2/5 971/2/5
f 973/2/5 970/2/5 969/2/5
f 974/2/5 970/2/5 973/2/5
f 975/2/6 976/2/6 978/2/6
f 978/2/6 976/2/6 979/2/6
f 977/2/6 978/2/6 982/2/6
f 982/2/6 978/2/6 983/2/6
f 979/2/6 980/2/6 984/2/6
f 984/2/6 980/2/6 985/2/6
f 981/2/6 982/2/6 987/2/6
f 987/2/6 982/2/6 988/2/6
f 985/2/6 986/2/6 989/2/6
f 989/2/6 986/2/6 990/2/6
f 991/2/6 992/2/6 994/2/6
f 994/2/6 992/2/6 995/2/6
f 993/2/6 994/2/6 997/2/6
f 997/2/6 994/2/6 998/2/6
f 995/2/6 996/2/6 999/2/6
f 999/2/6 996/2/6 1000/2/6
f 1001/2/6 1002/2/6 1003/2/6
f 1003/2/6 1002/2/6 1004/2/6
f 1005/2/6 1006/2/6 1009/2/6
f 1009/2/6 1006/2/6 1010/2/6
f 1007/2/6 1008/2/6 1011/2/6
f 1011/2/6 1008/2/6 1012/2/6
f 1013/2/6 1014/2/6 1015/2/6
f 1015/2/6 1014/2/6 1016/2/6
f 1017/2/6 1018/2/6 1022/2/6
f 1019/2/6 1020/2/6 1023/2/6
f 1021/2/6 1022/2/6 1025/2/6
f 1022/2/6 1018/2/6 1026/2/6
f 1025/2/6 1022/2/6 1026/2/6
f 1026/2/6 1018/2/6 1027/2/6
f 1023/2/6 1024/2/6 1028/2/6
f 1019/2/6 1023/2/6 1028/2/6
f 1028/2/6 1024/2/6 1029/2/6
f 1029/2/6 1024/2/6 1030/2/6
f 1026/2/6 1027/2/6 1031/2/6
f 1028/2/6 1029/2/6 1031/2/6
f 1027/2/6 1028/2/6 1031/2/6
f 1031/2/6 1029/2/6 1032/2/6
f 1033/2/6 1034/2/6 1035/2/6
f 1035/2/6 1034/2/6 1036/2/6
f 1037/2/6 1038/2/6 1039/2/6
f 1039/2/6 1038/2/6 1040/2/6
f 1041/2/6 1042/2/6 1044/2/6
f 1044/2/6 1042/2/6 1045/2/6
f 1045/2/6 1042/2/6 1046/2/6
f 1046/2/6 1042/2/6 1047/2/6
f 1047/2/6 1048/2/6 1049/2/6
f 1046/2/6 1047/2/6 1049/2/6
f 1049/2/6 1048/2/6 1050/2/6
f 1043/2/6 1044/2/6 1051/2/6
f 1044/2/6 1045/2/6 1051/2/6
f 1051/2/6 1045/2/6 1052/2/6
f 1052/2/6 1045/2/6 1053/2/6
f 1046/2/6 1049/2/6 1054/2/6
f 1052/2/6 1053/2/6 1055/2/6
f 1053/2/6 1054/2/6 1055/2/6
f 1054/2/6 1049/2/6 1056/2/6
f 1055/2/6 1054/2/6 1056/2/6
f 1057/2/6 1058/2/6 1059/2/6
f 1059/2/6 1058/2/6 1060/2/6
f 1057/2/6 1059/2/6 1061/2/6
f 1061/2/6 1059/2/6 1062/2/6
f 1060/2/6 1058/2/6 1063/2/6
f 1063/2/6 1058/2/6 1064/2/6
f 1065/2/6 1066/2/6 1071/2/6
f 1071/2/6 1066/2/6 1072/2/6
f 1067/2/6 1068/2/6 1073/2/6
f 1069/2/6 1070/2/6 1074/2/6
f 1067/2/6 1073/2/6 1075/2/6
f 1073/2/6 1074/2/6 1075/2/6
f 1074/2/6 1070/2/6 1076/2/6
f 1075/2/6 1074/2/6 1076/2/6
f 1077/2/6 1078/2/6 1082/2/6
f 1082/2/6 1078/2/6 1083/2/6
f 1079/2/6 1080/2/6 1084/2/6
f 1084/2/6 1080/2/6 1085/2/6
f 1081/2/6 1082/2/6 1087/2/6
f 1087/2/6 1082/2/6 1088/2/6
f 1085/2/6 1086/2/6 1091/2/6
f 1091/2/6 1086/2/6 1092/2/6
f 1088/2/6 1089/2/6 1093/2/6
f 1093/2/6 1089/2/6 1094/2/6
f 1090/2/6 1091/2/6 1095/2/6
f 1095/2/6 1091/2/6 1096/2/6
f 1097/2/6 1098/2/6 1100/2/6
f 1100/2/6 1098/2/6 1101/2/6
f 1099/2/6 1100/2/6 1103/2/6
f 1099/2/6 1103/2/6 1109/2/6
f 1103/2/6 1104/2/6 1109/2/6
f 1109/2/6 1104/2/6 1110/2/6
f 1110/2/6 1104/2/6 1111/2/6
f 1101/2/6 1102/2/6 1112/2/6
f 1112/2/6 1102/2/6 1113/2/6
f 1105/2/6 1106/2/6 1114/2/6
f 1114/2/6 1106/2/6 1115/2/6
f 1107/2/6 1108/2/6 1116/2/6
f 1116/2/6 1108/2/6 1117/2/6
f 1110/2/6 1111/2/6 1118/2/6
f 1118/2/6 1111/2/6 1119/2/6
f 1120/2/6 1121/2/6 1122/2/6
f 1122/2/6 1121/2/6 1123/2/6
f 1120/2/6 1122/2/6 1126/2/6
f 1126/2/6 1122/2/6 1127/2/6
f 1128/2/6 1129/2/6 1130/2/6
f 1130/2/6 1129/2/6 1131/2/6
f 1124/2/6 1125/2/6 1132/2/6
f 1132/2/6 1125/2/6 1133/2/6
f 1134/2/6 1135/2/6 1136/2/6
f 1136/2/6 1135/2/6 1137/2/6
f 1138/2/6 1139/2/6 1140/2/6
f 1138/2/6 1140/2/6 1141/2/6
f 1141/2/6 1140/2/6 1142/2/6
f 1143/2/6 1144/2/6 1147/2/6
f 1147/2/6 1144/2/6 1148/2/6
f 1145/2/6 1146/2/6 1149/2/6
f 1149/2/6 1146/2/6 1150/2/6
f 1151/2/6 1152/2/6 1155/2/6
f 1151/2/6 1155/2/6 1158/2/6
f 1158/2/6 1155/2/6 1159/2/6
f 1156/2/6 1157/2/6 1160/2/6
f 1160/2/6 1157/2/6 1161/2/6
f 1153/2/6 1154/2/6 1162/2/6
f 1162/2/6 1154/2/6 1163/2/6
f 1168/2/6 1169/2/6 1172/2/6
f 1172/2/6 1169/2/6 1173/2/6
f 1164/2/6 1165/2/6 1174/2/6
f 1174/2/6 1165/2/6 1175/2/6
f 1170/2/6 1171/2/6 1176/2/6
f 1176/2/6 1171/2/6 1177/2/6
f 1166/2/6 1167/2/6 1178/2/6
f 1178/2/6 1167/2/6 1179/2/6
f 1182/2/6 1183/2/6 1184/2/6
f 1184/2/6 1183/2/6 1185/2/6
f 1180/2/6 1181/2/6 1186/2/6
f 1186/2/6 1181/2/6 1187/2/6
f 1188/2/6 1189/2/6 1190/2/6
f 1190/2/6 1189/2/6 1191/2/6
f 1192/2/6 1193/2/6 1196/2/6
f 1196/2/6 1193/2/6 1197/2/6
f 1194/2/6 1195/2/6 1198/2/6
f 1198/2/6 1195/2/6 1199/2/6
f 1200/2/6 1201/2/6 1202/2/6
f 1202/2/6 1201/2/6 1203/2/6
