# MagicaVoxel @ Ephtracy

# group
o 

# material
mtllib drzewko-4.mtl
usemtl palette

# normals
vn 0 -1 0
vn 0 1 0
vn -1 0 0
vn 1 0 0
vn 0 0 1
vn 0 0 -1

# texcoords
vt 0.380859 0.5
vt 0.595703 0.5
vt 0.880859 0.5
vt 0.943359 0.5

# verts
v -33.8 3.8 2
v -33.7 3.8 2
v -33.6 3.8 2
v -33.5 3.8 2
v -33.4 3.8 2
v -33.3 3.8 2
v -33.2 3.8 2
v -33.1 3.8 2
v -33 3.8 2
v -32.9 3.8 2
v -32.8 3.8 2
v -32.7 3.8 2
v -32.6 3.8 2
v -32.5 3.8 2
v -33.8 3.8 1.9
v -33.7 3.8 1.9
v -33.6 3.8 1.9
v -33.5 3.8 1.9
v -33.4 3.8 1.9
v -33.3 3.8 1.9
v -33.2 3.8 1.9
v -33.1 3.8 1.9
v -33 3.8 1.9
v -32.9 3.8 1.9
v -32.8 3.8 1.9
v -32.7 3.8 1.9
v -32.6 3.8 1.9
v -32.5 3.8 1.9
v -33.7 3.9 2
v -33.6 3.9 2
v -33.5 3.9 2
v -33.4 3.9 2
v -33.3 3.9 2
v -33.2 3.9 2
v -33.1 3.9 2
v -33 3.9 2
v -32.9 3.9 2
v -32.8 3.9 2
v -32.7 3.9 2
v -32.6 3.9 2
v -33.7 3.9 1.9
v -33.6 3.9 1.9
v -33.5 3.9 1.9
v -33.4 3.9 1.9
v -33.3 3.9 1.9
v -33.2 3.9 1.9
v -33.1 3.9 1.9
v -33 3.9 1.9
v -32.9 3.9 1.9
v -32.8 3.9 1.9
v -32.7 3.9 1.9
v -32.6 3.9 1.9
v -32.8 4 0.5
v -32.7 4 0.5
v -32.8 4 0.4
v -32.7 4 0.4
v -33.8 5.1 1.9
v -33.7 5.1 1.9
v -33.6 5.1 1.9
v -33.5 5.1 1.9
v -33.4 5.1 1.9
v -33.3 5.1 1.9
v -33.2 5.1 1.9
v -33 5.1 1.9
v -32.9 5.1 1.9
v -32.8 5.1 1.9
v -32.7 5.1 1.9
v -32.6 5.1 1.9
v -32.5 5.1 1.9
v -33.6 5.1 1.8
v -33.5 5.1 1.8
v -33.3 5.1 1.8
v -33.2 5.1 1.8
v -32.9 5.1 1.8
v -32.8 5.1 1.8
v -32.7 5.1 1.8
v -32.6 5.1 1.8
v -33 5.1 1.7
v -32.9 5.1 1.7
v -32.8 5.1 1.7
v -32.7 5.1 1.7
v -32.6 5.1 1.7
v -32.5 5.1 1.7
v -33.8 5.1 1.6
v -33.7 5.1 1.6
v -33.6 5.1 1.6
v -33.5 5.1 1.6
v -33.4 5.1 1.6
v -33 5.1 1.6
v -32.9 5.1 1.6
v -32.8 5.1 1.6
v -32.7 5.1 1.6
v -32.6 5.1 1.6
v -32.5 5.1 1.6
v -33.8 5.1 1.5
v -33.7 5.1 1.5
v -33.6 5.1 1.5
v -33.5 5.1 1.5
v -33.4 5.1 1.5
v -32.7 5.1 1.5
v -32.6 5.1 1.5
v -33.8 5.1 1.4
v -33.6 5.1 1.4
v -33.5 5.1 1.4
v -32.7 5.1 1.4
v -32.6 5.1 1.4
v -32.5 5.1 1.4
v -32.8 4.1 0.5
v -32.7 4.1 0.5
v -32.8 4.1 0.4
v -32.7 4.1 0.4
v -33.8 5.2 2
v -33.7 5.2 2
v -33.6 5.2 2
v -33.5 5.2 2
v -32.7 5.2 2
v -32.6 5.2 2
v -32.5 5.2 2
v -33.6 5.2 1.9
v -33.5 5.2 1.9
v -33.3 5.2 1.9
v -33.2 5.2 1.9
v -32.8 5.2 1.9
v -32.7 5.2 1.9
v -33.6 5.2 1.8
v -33.5 5.2 1.8
v -33.3 5.2 1.8
v -33.2 5.2 1.8
v -32.9 5.2 1.8
v -32.8 5.2 1.8
v -32.7 5.2 1.8
v -32.6 5.2 1.8
v -33 5.2 1.7
v -32.9 5.2 1.7
v -32.8 5.2 1.7
v -32.7 5.2 1.7
v -32.6 5.2 1.7
v -32.5 5.2 1.7
v -33.8 5.2 1.6
v -33.7 5.2 1.6
v -33.6 5.2 1.6
v -33.5 5.2 1.6
v -33.4 5.2 1.6
v -33 5.2 1.6
v -32.9 5.2 1.6
v -32.8 5.2 1.6
v -32.7 5.2 1.6
v -32.6 5.2 1.6
v -32.5 5.2 1.6
v -33.8 5.2 1.5
v -33.7 5.2 1.5
v -33.6 5.2 1.5
v -33.5 5.2 1.5
v -33.4 5.2 1.5
v -32.7 5.2 1.5
v -32.6 5.2 1.5
v -33.8 5.2 1.4
v -33.6 5.2 1.4
v -33.5 5.2 1.4
v -32.7 5.2 1.4
v -32.6 5.2 1.4
v -32.5 5.2 1.4
v -33.8 3.8 2
v -33.8 3.8 1.9
v -33.8 3.9 2
v -33.8 3.9 1.9
v -33.8 4 2
v -33.8 4 1.9
v -33.8 4.1 2
v -33.8 4.1 1.9
v -33.8 5.1 1.9
v -33.8 5.1 1.6
v -33.8 5.1 1.5
v -33.8 5.1 1.4
v -33.8 5.2 2
v -33.8 5.2 1.6
v -33.8 5.2 1.5
v -33.8 5.2 1.4
v -33.6 3.8 2
v -33.6 3.8 1.9
v -33.6 3.9 2
v -33.6 3.9 1.9
v -33.4 3.8 2
v -33.4 3.8 1.9
v -33.4 3.9 2
v -33.4 3.9 1.9
v -33.2 3.8 2
v -33.2 3.8 1.9
v -33.2 3.9 2
v -33.2 3.9 1.9
v -33 3.8 2
v -33 3.8 1.9
v -33 3.9 2
v -33 3.9 1.9
v -32.8 3.8 2
v -32.8 3.8 1.9
v -32.8 3.9 2
v -32.8 3.9 1.9
v -32.8 4 0.5
v -32.8 4 0.4
v -32.8 4.1 0.5
v -32.8 4.1 0.4
v -32.6 3.8 2
v -32.6 3.8 1.9
v -32.6 3.9 2
v -32.6 3.9 1.9
v -33.7 3.8 2
v -33.7 3.8 1.9
v -33.7 3.9 2
v -33.7 3.9 1.9
v -33.5 3.8 2
v -33.5 3.8 1.9
v -33.5 3.9 2
v -33.5 3.9 1.9
v -33.3 3.8 2
v -33.3 3.8 1.9
v -33.3 3.9 2
v -33.3 3.9 1.9
v -33.1 3.8 2
v -33.1 3.8 1.9
v -33.1 3.9 2
v -33.1 3.9 1.9
v -32.9 3.8 2
v -32.9 3.8 1.9
v -32.9 3.9 2
v -32.9 3.9 1.9
v -32.7 3.8 2
v -32.7 3.8 1.9
v -32.7 3.9 2
v -32.7 3.9 1.9
v -32.7 4 0.5
v -32.7 4 0.4
v -32.7 4.1 0.5
v -32.7 4.1 0.4
v -32.5 3.8 2
v -32.5 3.8 1.9
v -32.5 3.9 2
v -32.5 3.9 1.9
v -32.5 4 2
v -32.5 4 1.9
v -32.5 4.1 2
v -32.5 4.1 1.9
v -32.5 4.9 2
v -32.5 4.9 1.9
v -32.5 5 2
v -32.5 5 1.9
v -32.5 5.1 1.9
v -32.5 5.1 1.7
v -32.5 5.1 1.6
v -32.5 5.1 1.4
v -32.5 5.2 2
v -32.5 5.2 1.7
v -32.5 5.2 1.6
v -32.5 5.2 1.4
v -33.8 3.8 2
v -33.8 3.9 2
v -33.8 4 2
v -33.8 4.1 2
v -33.8 5.2 2
v -33.7 3.8 2
v -33.7 3.9 2
v -33.7 4 2
v -33.7 4.1 2
v -33.7 4.8 2
v -33.7 4.9 2
v -33.7 5.2 2
v -33.6 3.8 2
v -33.6 3.9 2
v -33.6 4 2
v -33.6 4.1 2
v -33.6 4.2 2
v -33.6 4.4 2
v -33.6 4.5 2
v -33.6 4.8 2
v -33.6 4.9 2
v -33.6 5.1 2
v -33.6 5.2 2
v -33.5 3.8 2
v -33.5 3.9 2
v -33.5 4 2
v -33.5 4.1 2
v -33.5 4.2 2
v -33.5 4.3 2
v -33.5 4.4 2
v -33.5 4.5 2
v -33.5 4.6 2
v -33.5 4.7 2
v -33.5 4.8 2
v -33.5 4.9 2
v -33.5 5 2
v -33.5 5.1 2
v -33.5 5.2 2
v -33.4 3.8 2
v -33.4 3.9 2
v -33.4 4.1 2
v -33.4 4.2 2
v -33.4 4.3 2
v -33.4 4.6 2
v -33.4 4.7 2
v -33.4 4.8 2
v -33.4 4.9 2
v -33.4 5 2
v -33.4 5.1 2
v -33.3 3.8 2
v -33.3 3.9 2
v -33.3 4.1 2
v -33.3 4.2 2
v -33.3 4.6 2
v -33.3 4.7 2
v -33.3 4.8 2
v -33.3 4.9 2
v -33.3 5 2
v -33.3 5.1 2
v -33.2 3.8 2
v -33.2 3.9 2
v -33.2 4.5 2
v -33.2 4.6 2
v -33.2 4.7 2
v -33.2 4.8 2
v -33.2 4.9 2
v -33.2 5 2
v -33.1 3.8 2
v -33.1 3.9 2
v -33.1 4.5 2
v -33.1 4.6 2
v -33.1 4.7 2
v -33.1 4.8 2
v -33.1 4.9 2
v -33.1 5 2
v -33 3.8 2
v -33 3.9 2
v -33 4 2
v -33 4.2 2
v -33 4.3 2
v -33 4.6 2
v -33 4.7 2
v -33 4.8 2
v -33 4.9 2
v -33 5 2
v -33 5.1 2
v -32.9 3.8 2
v -32.9 3.9 2
v -32.9 4 2
v -32.9 4.2 2
v -32.9 4.3 2
v -32.9 4.4 2
v -32.9 4.6 2
v -32.9 4.7 2
v -32.9 4.8 2
v -32.9 4.9 2
v -32.9 5 2
v -32.9 5.1 2
v -32.8 3.8 2
v -32.8 3.9 2
v -32.8 4.1 2
v -32.8 4.2 2
v -32.8 4.3 2
v -32.8 4.4 2
v -32.8 4.5 2
v -32.8 4.6 2
v -32.8 4.7 2
v -32.8 4.8 2
v -32.8 4.9 2
v -32.8 5 2
v -32.8 5.1 2
v -32.7 3.8 2
v -32.7 3.9 2
v -32.7 4 2
v -32.7 4.1 2
v -32.7 4.2 2
v -32.7 4.4 2
v -32.7 4.5 2
v -32.7 5.2 2
v -32.6 3.8 2
v -32.6 3.9 2
v -32.6 4 2
v -32.6 4.1 2
v -32.6 4.9 2
v -32.6 5 2
v -32.6 5.2 2
v -32.5 3.8 2
v -32.5 3.9 2
v -32.5 4 2
v -32.5 4.1 2
v -32.5 4.9 2
v -32.5 5 2
v -32.5 5.2 2
v -32.8 4 0.5
v -32.8 4.1 0.5
v -32.7 4 0.5
v -32.7 4.1 0.5
v -33.8 3.8 1.9
v -33.8 3.9 1.9
v -33.8 4 1.9
v -33.8 4.1 1.9
v -33.8 5.1 1.9
v -33.7 3.8 1.9
v -33.7 3.9 1.9
v -33.7 4 1.9
v -33.7 4.1 1.9
v -33.7 4.8 1.9
v -33.7 4.9 1.9
v -33.7 5.1 1.9
v -33.6 3.8 1.9
v -33.6 3.9 1.9
v -33.6 4 1.9
v -33.6 4.1 1.9
v -33.6 4.2 1.9
v -33.6 4.4 1.9
v -33.6 4.5 1.9
v -33.6 4.8 1.9
v -33.6 4.9 1.9
v -33.6 5.1 1.9
v -33.5 3.8 1.9
v -33.5 3.9 1.9
v -33.5 4 1.9
v -33.5 4.1 1.9
v -33.5 4.2 1.9
v -33.5 4.3 1.9
v -33.5 4.4 1.9
v -33.5 4.5 1.9
v -33.5 4.6 1.9
v -33.5 4.7 1.9
v -33.5 4.8 1.9
v -33.5 4.9 1.9
v -33.5 5 1.9
v -33.5 5.1 1.9
v -33.4 3.8 1.9
v -33.4 3.9 1.9
v -33.4 4.1 1.9
v -33.4 4.2 1.9
v -33.4 4.3 1.9
v -33.4 4.6 1.9
v -33.4 4.7 1.9
v -33.4 4.8 1.9
v -33.4 4.9 1.9
v -33.4 5 1.9
v -33.4 5.1 1.9
v -33.3 3.8 1.9
v -33.3 3.9 1.9
v -33.3 4.1 1.9
v -33.3 4.2 1.9
v -33.3 4.6 1.9
v -33.3 4.7 1.9
v -33.3 4.8 1.9
v -33.3 4.9 1.9
v -33.3 5 1.9
v -33.3 5.1 1.9
v -33.2 3.8 1.9
v -33.2 3.9 1.9
v -33.2 4.5 1.9
v -33.2 4.6 1.9
v -33.2 4.7 1.9
v -33.2 4.8 1.9
v -33.2 4.9 1.9
v -33.2 5 1.9
v -33.2 5.1 1.9
v -33.1 3.8 1.9
v -33.1 3.9 1.9
v -33.1 4.5 1.9
v -33.1 4.6 1.9
v -33.1 4.7 1.9
v -33.1 4.8 1.9
v -33.1 4.9 1.9
v -33.1 5 1.9
v -33 3.8 1.9
v -33 3.9 1.9
v -33 4 1.9
v -33 4.2 1.9
v -33 4.3 1.9
v -33 4.6 1.9
v -33 4.7 1.9
v -33 4.8 1.9
v -33 4.9 1.9
v -33 5 1.9
v -33 5.1 1.9
v -32.9 3.8 1.9
v -32.9 3.9 1.9
v -32.9 4 1.9
v -32.9 4.2 1.9
v -32.9 4.3 1.9
v -32.9 4.4 1.9
v -32.9 4.6 1.9
v -32.9 4.7 1.9
v -32.9 4.8 1.9
v -32.9 4.9 1.9
v -32.9 5 1.9
v -32.9 5.1 1.9
v -32.8 3.8 1.9
v -32.8 3.9 1.9
v -32.8 4.1 1.9
v -32.8 4.2 1.9
v -32.8 4.3 1.9
v -32.8 4.4 1.9
v -32.8 4.5 1.9
v -32.8 4.6 1.9
v -32.8 4.7 1.9
v -32.8 4.8 1.9
v -32.8 4.9 1.9
v -32.8 5 1.9
v -32.8 5.1 1.9
v -32.7 3.8 1.9
v -32.7 3.9 1.9
v -32.7 4 1.9
v -32.7 4.1 1.9
v -32.7 4.2 1.9
v -32.7 4.4 1.9
v -32.7 4.5 1.9
v -32.7 5.1 1.9
v -32.6 3.8 1.9
v -32.6 3.9 1.9
v -32.6 4 1.9
v -32.6 4.1 1.9
v -32.6 4.9 1.9
v -32.6 5 1.9
v -32.6 5.1 1.9
v -32.5 3.8 1.9
v -32.5 3.9 1.9
v -32.5 4 1.9
v -32.5 4.1 1.9
v -32.5 4.9 1.9
v -32.5 5 1.9
v -32.5 5.1 1.9
v -33.8 5.1 1.4
v -33.8 5.2 1.4
v -33.6 5.1 1.4
v -33.6 5.2 1.4
v -33.5 5.1 1.4
v -33.5 5.2 1.4
v -32.7 5.1 1.4
v -32.7 5.2 1.4
v -32.6 5.1 1.4
v -32.6 5.2 1.4
v -32.5 5.1 1.4
v -32.5 5.2 1.4
v -32.8 4 0.4
v -32.8 4.1 0.4
v -32.7 4 0.4
v -32.7 4.1 0.4

# faces
f 15/2/1 2/2/1 1/2/1
f 16/2/1 2/2/1 15/2/1
f 17/2/1 4/2/1 3/2/1
f 18/2/1 4/2/1 17/2/1
f 19/2/1 6/2/1 5/2/1
f 20/2/1 6/2/1 19/2/1
f 21/2/1 8/2/1 7/2/1
f 22/2/1 8/2/1 21/2/1
f 23/2/1 10/2/1 9/2/1
f 24/2/1 10/2/1 23/2/1
f 25/2/1 12/2/1 11/2/1
f 26/2/1 12/2/1 25/2/1
f 27/2/1 14/2/1 13/2/1
f 28/2/1 14/2/1 27/2/1
f 41/4/1 30/4/1 29/4/1
f 42/4/1 30/4/1 41/4/1
f 43/4/1 32/4/1 31/4/1
f 44/4/1 32/4/1 43/4/1
f 45/4/1 34/4/1 33/4/1
f 46/4/1 34/4/1 45/4/1
f 47/4/1 36/4/1 35/4/1
f 48/4/1 36/4/1 47/4/1
f 49/4/1 38/4/1 37/4/1
f 50/4/1 38/4/1 49/4/1
f 51/3/1 40/3/1 39/3/1
f 52/3/1 40/3/1 51/3/1
f 55/2/1 54/2/1 53/2/1
f 56/2/1 54/2/1 55/2/1
f 70/2/1 59/2/1 58/2/1
f 70/4/1 60/4/1 59/4/1
f 71/1/1 61/1/1 60/1/1
f 71/4/1 60/4/1 70/4/1
f 71/1/1 62/1/1 61/1/1
f 72/3/1 63/3/1 62/3/1
f 72/1/1 62/1/1 71/1/1
f 73/1/1 64/1/1 63/1/1
f 73/3/1 63/3/1 72/3/1
f 73/1/1 65/1/1 64/1/1
f 73/1/1 66/1/1 65/1/1
f 74/1/1 66/1/1 73/1/1
f 75/4/1 67/4/1 66/4/1
f 75/1/1 66/1/1 74/1/1
f 76/2/1 68/2/1 67/2/1
f 76/4/1 67/4/1 75/4/1
f 77/4/1 69/4/1 68/4/1
f 77/2/1 68/2/1 76/2/1
f 78/1/1 74/1/1 73/1/1
f 78/1/1 71/1/1 70/1/1
f 78/1/1 72/1/1 71/1/1
f 78/1/1 73/1/1 72/1/1
f 79/4/1 75/4/1 74/4/1
f 79/1/1 74/1/1 78/1/1
f 80/1/1 76/1/1 75/1/1
f 80/4/1 75/4/1 79/4/1
f 81/3/1 77/3/1 76/3/1
f 81/1/1 76/1/1 80/1/1
f 82/4/1 69/4/1 77/4/1
f 82/3/1 77/3/1 81/3/1
f 83/4/1 69/4/1 82/4/1
f 84/4/1 58/4/1 57/4/1
f 85/2/1 70/2/1 58/2/1
f 85/4/1 58/4/1 84/4/1
f 86/1/1 78/1/1 70/1/1
f 86/2/1 70/2/1 85/2/1
f 87/1/1 78/1/1 86/1/1
f 88/1/1 78/1/1 87/1/1
f 89/4/1 79/4/1 78/4/1
f 89/1/1 78/1/1 88/1/1
f 90/1/1 80/1/1 79/1/1
f 90/4/1 79/4/1 89/4/1
f 91/4/1 81/4/1 80/4/1
f 91/1/1 80/1/1 90/1/1
f 92/2/1 82/2/1 81/2/1
f 92/4/1 81/4/1 91/4/1
f 93/3/1 83/3/1 82/3/1
f 93/2/1 82/2/1 92/2/1
f 94/3/1 83/3/1 93/3/1
f 95/3/1 85/3/1 84/3/1
f 96/2/1 86/2/1 85/2/1
f 96/3/1 85/3/1 95/3/1
f 96/2/1 87/2/1 86/2/1
f 97/2/1 87/2/1 96/2/1
f 98/3/1 88/3/1 87/3/1
f 98/2/1 87/2/1 97/2/1
f 99/2/1 90/2/1 89/2/1
f 99/3/1 88/3/1 98/3/1
f 99/2/1 89/2/1 88/2/1
f 99/2/1 91/2/1 90/2/1
f 99/2/1 93/2/1 92/2/1
f 99/2/1 92/2/1 91/2/1
f 100/2/1 93/2/1 99/2/1
f 101/4/1 94/4/1 93/4/1
f 101/2/1 93/2/1 100/2/1
f 102/4/1 97/4/1 96/4/1
f 102/4/1 96/4/1 95/4/1
f 103/3/1 98/3/1 97/3/1
f 103/4/1 97/4/1 102/4/1
f 104/4/1 100/4/1 99/4/1
f 104/3/1 98/3/1 103/3/1
f 104/4/1 99/4/1 98/4/1
f 105/3/1 101/3/1 100/3/1
f 105/4/1 100/4/1 104/4/1
f 106/4/1 94/4/1 101/4/1
f 106/3/1 101/3/1 105/3/1
f 107/4/1 94/4/1 106/4/1
f 108/2/2 109/2/2 110/2/2
f 110/2/2 109/2/2 111/2/2
f 113/2/2 114/2/2 119/2/2
f 114/3/2 115/3/2 119/3/2
f 115/1/2 116/1/2 120/1/2
f 119/3/2 115/3/2 120/3/2
f 120/1/2 116/1/2 121/1/2
f 121/1/2 116/1/2 122/1/2
f 122/1/2 116/1/2 123/1/2
f 116/2/2 117/2/2 124/2/2
f 123/1/2 116/1/2 124/1/2
f 113/2/2 119/2/2 125/2/2
f 119/4/2 120/4/2 125/4/2
f 120/1/2 121/1/2 126/1/2
f 125/4/2 120/4/2 126/4/2
f 121/3/2 122/3/2 127/3/2
f 126/1/2 121/1/2 127/1/2
f 122/1/2 123/1/2 128/1/2
f 127/3/2 122/3/2 128/3/2
f 128/1/2 123/1/2 129/1/2
f 123/4/2 124/4/2 130/4/2
f 129/1/2 123/1/2 130/1/2
f 124/2/2 117/2/2 131/2/2
f 130/4/2 124/4/2 131/4/2
f 117/4/2 118/4/2 132/4/2
f 131/2/2 117/2/2 132/2/2
f 126/1/2 127/1/2 133/1/2
f 128/1/2 129/1/2 133/1/2
f 125/1/2 126/1/2 133/1/2
f 127/1/2 128/1/2 133/1/2
f 129/4/2 130/4/2 134/4/2
f 133/1/2 129/1/2 134/1/2
f 130/1/2 131/1/2 135/1/2
f 134/4/2 130/4/2 135/4/2
f 131/3/2 132/3/2 136/3/2
f 135/1/2 131/1/2 136/1/2
f 132/4/2 118/4/2 137/4/2
f 136/3/2 132/3/2 137/3/2
f 137/4/2 118/4/2 138/4/2
f 112/4/2 113/4/2 139/4/2
f 113/2/2 125/2/2 140/2/2
f 139/4/2 113/4/2 140/4/2
f 125/1/2 133/1/2 141/1/2
f 140/2/2 125/2/2 141/2/2
f 141/1/2 133/1/2 142/1/2
f 142/1/2 133/1/2 143/1/2
f 133/4/2 134/4/2 144/4/2
f 143/1/2 133/1/2 144/1/2
f 134/1/2 135/1/2 145/1/2
f 144/4/2 134/4/2 145/4/2
f 135/4/2 136/4/2 146/4/2
f 145/1/2 135/1/2 146/1/2
f 136/2/2 137/2/2 147/2/2
f 146/4/2 136/4/2 147/4/2
f 137/3/2 138/3/2 148/3/2
f 147/2/2 137/2/2 148/2/2
f 148/3/2 138/3/2 149/3/2
f 139/3/2 140/3/2 150/3/2
f 140/2/2 141/2/2 151/2/2
f 150/3/2 140/3/2 151/3/2
f 141/2/2 142/2/2 151/2/2
f 151/2/2 142/2/2 152/2/2
f 142/3/2 143/3/2 153/3/2
f 152/2/2 142/2/2 153/2/2
f 144/2/2 145/2/2 154/2/2
f 153/3/2 143/3/2 154/3/2
f 143/2/2 144/2/2 154/2/2
f 145/2/2 146/2/2 154/2/2
f 147/2/2 148/2/2 154/2/2
f 146/2/2 147/2/2 154/2/2
f 154/2/2 148/2/2 155/2/2
f 148/4/2 149/4/2 156/4/2
f 155/2/2 148/2/2 156/2/2
f 151/4/2 152/4/2 157/4/2
f 150/4/2 151/4/2 157/4/2
f 152/3/2 153/3/2 158/3/2
f 157/4/2 152/4/2 158/4/2
f 154/4/2 155/4/2 159/4/2
f 158/3/2 153/3/2 159/3/2
f 153/4/2 154/4/2 159/4/2
f 155/3/2 156/3/2 160/3/2
f 159/4/2 155/4/2 160/4/2
f 156/4/2 149/4/2 161/4/2
f 160/3/2 156/3/2 161/3/2
f 161/4/2 149/4/2 162/4/2
f 165/2/3 164/2/3 163/2/3
f 166/2/3 164/2/3 165/2/3
f 167/4/3 166/4/3 165/4/3
f 168/4/3 166/4/3 167/4/3
f 169/3/3 168/3/3 167/3/3
f 170/3/3 168/3/3 169/3/3
f 171/4/3 170/4/3 169/4/3
f 175/4/3 171/4/3 169/4/3
f 175/4/3 172/4/3 171/4/3
f 176/3/3 173/3/3 172/3/3
f 176/4/3 172/4/3 175/4/3
f 177/4/3 174/4/3 173/4/3
f 177/3/3 173/3/3 176/3/3
f 178/4/3 174/4/3 177/4/3
f 181/2/3 180/2/3 179/2/3
f 182/2/3 180/2/3 181/2/3
f 185/2/3 184/2/3 183/2/3
f 186/2/3 184/2/3 185/2/3
f 189/2/3 188/2/3 187/2/3
f 190/2/3 188/2/3 189/2/3
f 193/2/3 192/2/3 191/2/3
f 194/2/3 192/2/3 193/2/3
f 197/2/3 196/2/3 195/2/3
f 198/2/3 196/2/3 197/2/3
f 201/2/3 200/2/3 199/2/3
f 202/2/3 200/2/3 201/2/3
f 205/2/3 204/2/3 203/2/3
f 206/2/3 204/2/3 205/2/3
f 207/2/4 208/2/4 209/2/4
f 209/2/4 208/2/4 210/2/4
f 211/2/4 212/2/4 213/2/4
f 213/2/4 212/2/4 214/2/4
f 215/2/4 216/2/4 217/2/4
f 217/2/4 216/2/4 218/2/4
f 219/2/4 220/2/4 221/2/4
f 221/2/4 220/2/4 222/2/4
f 223/2/4 224/2/4 225/2/4
f 225/2/4 224/2/4 226/2/4
f 227/2/4 228/2/4 229/2/4
f 229/2/4 228/2/4 230/2/4
f 231/2/4 232/2/4 233/2/4
f 233/2/4 232/2/4 234/2/4
f 235/2/4 236/2/4 237/2/4
f 237/2/4 236/2/4 238/2/4
f 237/4/4 238/4/4 239/4/4
f 239/4/4 238/4/4 240/4/4
f 239/3/4 240/3/4 241/3/4
f 241/3/4 240/3/4 242/3/4
f 241/4/4 242/4/4 243/4/4
f 243/4/4 242/4/4 244/4/4
f 243/3/4 244/3/4 245/3/4
f 245/3/4 244/3/4 246/3/4
f 245/4/4 246/4/4 247/4/4
f 245/4/4 247/4/4 251/4/4
f 247/4/4 248/4/4 251/4/4
f 248/3/4 249/3/4 252/3/4
f 251/4/4 248/4/4 252/4/4
f 249/4/4 250/4/4 253/4/4
f 252/3/4 249/3/4 253/3/4
f 253/4/4 250/4/4 254/4/4
f 260/2/5 256/2/5 255/2/5
f 261/4/5 257/4/5 256/4/5
f 261/2/5 256/2/5 260/2/5
f 262/3/5 258/3/5 257/3/5
f 262/4/5 257/4/5 261/4/5
f 263/4/5 259/4/5 258/4/5
f 263/3/5 258/3/5 262/3/5
f 264/4/5 259/4/5 263/4/5
f 265/4/5 259/4/5 264/4/5
f 266/4/5 259/4/5 265/4/5
f 268/4/5 262/4/5 261/4/5
f 269/2/5 263/2/5 262/2/5
f 269/2/5 264/2/5 263/2/5
f 269/4/5 262/4/5 268/4/5
f 270/2/5 264/2/5 269/2/5
f 271/2/5 264/2/5 270/2/5
f 272/2/5 264/2/5 271/2/5
f 273/2/5 264/2/5 272/2/5
f 274/3/5 265/3/5 264/3/5
f 274/2/5 264/2/5 273/2/5
f 275/2/5 266/2/5 265/2/5
f 275/3/5 265/3/5 274/3/5
f 276/2/5 266/2/5 275/2/5
f 277/2/5 266/2/5 276/2/5
f 278/2/5 268/2/5 267/2/5
f 279/3/5 269/3/5 268/3/5
f 279/2/5 268/2/5 278/2/5
f 280/2/5 270/2/5 269/2/5
f 280/3/5 269/3/5 279/3/5
f 281/3/5 271/3/5 270/3/5
f 281/2/5 270/2/5 280/2/5
f 282/1/5 272/1/5 271/1/5
f 282/3/5 271/3/5 281/3/5
f 283/1/5 272/1/5 282/1/5
f 284/4/5 273/4/5 272/4/5
f 284/1/5 272/1/5 283/1/5
f 285/1/5 274/1/5 273/1/5
f 285/4/5 273/4/5 284/4/5
f 285/1/5 275/1/5 274/1/5
f 285/1/5 276/1/5 275/1/5
f 286/1/5 276/1/5 285/1/5
f 287/1/5 276/1/5 286/1/5
f 288/1/5 276/1/5 287/1/5
f 289/1/5 276/1/5 288/1/5
f 290/1/5 276/1/5 289/1/5
f 291/3/5 277/3/5 276/3/5
f 291/1/5 276/1/5 290/1/5
f 292/3/5 277/3/5 291/3/5
f 294/4/5 280/4/5 279/4/5
f 295/2/5 281/2/5 280/2/5
f 295/1/5 282/1/5 281/1/5
f 296/4/5 283/4/5 282/4/5
f 296/1/5 282/1/5 295/1/5
f 297/1/5 284/1/5 283/1/5
f 297/4/5 283/4/5 296/4/5
f 297/1/5 285/1/5 284/1/5
f 297/1/5 286/1/5 285/1/5
f 298/2/5 287/2/5 286/2/5
f 298/1/5 286/1/5 297/1/5
f 299/1/5 288/1/5 287/1/5
f 299/2/5 287/2/5 298/2/5
f 300/2/5 289/2/5 288/2/5
f 300/1/5 288/1/5 299/1/5
f 301/1/5 290/1/5 289/1/5
f 301/2/5 289/2/5 300/2/5
f 302/2/5 291/2/5 290/2/5
f 302/1/5 290/1/5 301/1/5
f 303/1/5 292/1/5 291/1/5
f 303/2/5 291/2/5 302/2/5
f 304/2/5 294/2/5 293/2/5
f 305/4/5 280/4/5 294/4/5
f 305/2/5 294/2/5 304/2/5
f 306/3/5 296/3/5 295/3/5
f 306/2/5 295/2/5 280/2/5
f 307/1/5 297/1/5 296/1/5
f 307/3/5 296/3/5 306/3/5
f 307/1/5 298/1/5 297/1/5
f 307/1/5 299/1/5 298/1/5
f 308/1/5 299/1/5 307/1/5
f 309/2/5 302/2/5 301/2/5
f 309/1/5 299/1/5 308/1/5
f 309/2/5 300/2/5 299/2/5
f 309/2/5 301/2/5 300/2/5
f 310/2/5 302/2/5 309/2/5
f 311/2/5 302/2/5 310/2/5
f 312/1/5 303/1/5 302/1/5
f 312/2/5 302/2/5 311/2/5
f 313/1/5 292/1/5 303/1/5
f 313/1/5 303/1/5 312/1/5
f 315/4/5 280/4/5 305/4/5
f 316/1/5 308/1/5 307/1/5
f 316/1/5 307/1/5 306/1/5
f 317/2/5 309/2/5 308/2/5
f 317/1/5 308/1/5 316/1/5
f 317/2/5 310/2/5 309/2/5
f 318/2/5 310/2/5 317/2/5
f 319/3/5 311/3/5 310/3/5
f 319/2/5 310/2/5 318/2/5
f 320/2/5 313/2/5 312/2/5
f 320/3/5 311/3/5 319/3/5
f 320/2/5 312/2/5 311/2/5
f 321/2/5 313/2/5 320/2/5
f 322/2/5 315/2/5 314/2/5
f 323/4/5 280/4/5 315/4/5
f 323/2/5 315/2/5 322/2/5
f 324/2/5 317/2/5 316/2/5
f 324/2/5 318/2/5 317/2/5
f 324/1/5 316/1/5 306/1/5
f 325/2/5 318/2/5 324/2/5
f 326/3/5 319/3/5 318/3/5
f 326/2/5 318/2/5 325/2/5
f 327/4/5 320/4/5 319/4/5
f 327/3/5 319/3/5 326/3/5
f 328/3/5 321/3/5 320/3/5
f 328/4/5 320/4/5 327/4/5
f 329/2/5 313/2/5 321/2/5
f 329/3/5 321/3/5 328/3/5
f 331/4/5 280/4/5 323/4/5
f 332/2/5 306/2/5 280/2/5
f 332/4/5 280/4/5 331/4/5
f 333/1/5 325/1/5 324/1/5
f 333/1/5 324/1/5 306/1/5
f 334/1/5 325/1/5 333/1/5
f 335/2/5 327/2/5 326/2/5
f 335/1/5 325/1/5 334/1/5
f 335/2/5 326/2/5 325/2/5
f 336/2/5 327/2/5 335/2/5
f 337/3/5 328/3/5 327/3/5
f 337/2/5 327/2/5 336/2/5
f 338/2/5 329/2/5 328/2/5
f 338/3/5 328/3/5 337/3/5
f 339/2/5 313/2/5 329/2/5
f 339/2/5 329/2/5 338/2/5
f 340/1/5 292/1/5 313/1/5
f 340/2/5 313/2/5 339/2/5
f 341/2/5 331/2/5 330/2/5
f 342/3/5 332/3/5 331/3/5
f 342/2/5 331/2/5 341/2/5
f 343/2/5 306/2/5 332/2/5
f 343/3/5 332/3/5 342/3/5
f 344/4/5 334/4/5 333/4/5
f 344/1/5 333/1/5 306/1/5
f 345/1/5 335/1/5 334/1/5
f 345/4/5 334/4/5 344/4/5
f 346/1/5 335/1/5 345/1/5
f 347/3/5 336/3/5 335/3/5
f 347/1/5 335/1/5 346/1/5
f 348/2/5 339/2/5 338/2/5
f 348/3/5 336/3/5 347/3/5
f 348/2/5 337/2/5 336/2/5
f 348/2/5 338/2/5 337/2/5
f 349/2/5 339/2/5 348/2/5
f 350/2/5 339/2/5 349/2/5
f 351/1/5 340/1/5 339/1/5
f 351/2/5 339/2/5 350/2/5
f 352/1/5 292/1/5 340/1/5
f 352/1/5 340/1/5 351/1/5
f 354/4/5 343/4/5 342/4/5
f 355/1/5 345/1/5 344/1/5
f 355/2/5 306/2/5 343/2/5
f 355/1/5 344/1/5 306/1/5
f 356/1/5 345/1/5 355/1/5
f 357/3/5 346/3/5 345/3/5
f 357/1/5 345/1/5 356/1/5
f 358/1/5 347/1/5 346/1/5
f 358/3/5 346/3/5 357/3/5
f 359/1/5 347/1/5 358/1/5
f 360/2/5 348/2/5 347/2/5
f 360/1/5 347/1/5 359/1/5
f 361/1/5 349/1/5 348/1/5
f 361/2/5 348/2/5 360/2/5
f 362/2/5 350/2/5 349/2/5
f 362/1/5 349/1/5 361/1/5
f 363/1/5 351/1/5 350/1/5
f 363/2/5 350/2/5 362/2/5
f 364/2/5 352/2/5 351/2/5
f 364/1/5 351/1/5 363/1/5
f 365/1/5 292/1/5 352/1/5
f 365/2/5 352/2/5 364/2/5
f 366/2/5 354/2/5 353/2/5
f 367/4/5 343/4/5 354/4/5
f 367/2/5 354/2/5 366/2/5
f 368/2/5 355/2/5 343/2/5
f 368/4/5 343/4/5 367/4/5
f 369/4/5 356/4/5 355/4/5
f 369/2/5 355/2/5 368/2/5
f 370/1/5 357/1/5 356/1/5
f 370/4/5 356/4/5 369/4/5
f 370/1/5 358/1/5 357/1/5
f 371/4/5 359/4/5 358/4/5
f 371/1/5 358/1/5 370/1/5
f 372/1/5 364/1/5 363/1/5
f 372/4/5 359/4/5 371/4/5
f 372/1/5 361/1/5 360/1/5
f 372/1/5 365/1/5 364/1/5
f 372/1/5 362/1/5 361/1/5
f 372/1/5 360/1/5 359/1/5
f 372/1/5 363/1/5 362/1/5
f 373/1/5 292/1/5 365/1/5
f 373/1/5 365/1/5 372/1/5
f 375/3/5 368/3/5 367/3/5
f 376/2/5 371/2/5 370/2/5
f 376/2/5 369/2/5 368/2/5
f 376/3/5 368/3/5 375/3/5
f 376/2/5 373/2/5 372/2/5
f 376/2/5 372/2/5 371/2/5
f 376/2/5 370/2/5 369/2/5
f 377/2/5 373/2/5 376/2/5
f 378/2/5 373/2/5 377/2/5
f 379/2/5 373/2/5 378/2/5
f 380/2/5 373/2/5 379/2/5
f 381/2/5 375/2/5 374/2/5
f 382/4/5 376/4/5 375/4/5
f 382/2/5 375/2/5 381/2/5
f 383/3/5 377/3/5 376/3/5
f 383/4/5 376/4/5 382/4/5
f 384/4/5 378/4/5 377/4/5
f 384/3/5 377/3/5 383/3/5
f 385/3/5 379/3/5 378/3/5
f 385/4/5 378/4/5 384/4/5
f 386/4/5 380/4/5 379/4/5
f 386/3/5 379/3/5 385/3/5
f 387/4/5 380/4/5 386/4/5
f 390/2/5 389/2/5 388/2/5
f 391/2/5 389/2/5 390/2/5
f 392/2/6 393/2/6 397/2/6
f 393/4/6 394/4/6 398/4/6
f 397/2/6 393/2/6 398/2/6
f 394/3/6 395/3/6 399/3/6
f 398/4/6 394/4/6 399/4/6
f 395/4/6 396/4/6 400/4/6
f 399/3/6 395/3/6 400/3/6
f 400/4/6 396/4/6 401/4/6
f 401/4/6 396/4/6 402/4/6
f 402/4/6 396/4/6 403/4/6
f 398/4/6 399/4/6 405/4/6
f 399/2/6 400/2/6 406/2/6
f 400/2/6 401/2/6 406/2/6
f 405/4/6 399/4/6 406/4/6
f 406/2/6 401/2/6 407/2/6
f 407/2/6 401/2/6 408/2/6
f 408/2/6 401/2/6 409/2/6
f 409/2/6 401/2/6 410/2/6
f 401/3/6 402/3/6 411/3/6
f 410/2/6 401/2/6 411/2/6
f 402/2/6 403/2/6 412/2/6
f 411/3/6 402/3/6 412/3/6
f 412/2/6 403/2/6 413/2/6
f 404/2/6 405/2/6 414/2/6
f 405/3/6 406/3/6 415/3/6
f 414/2/6 405/2/6 415/2/6
f 406/2/6 407/2/6 416/2/6
f 415/3/6 406/3/6 416/3/6
f 407/3/6 408/3/6 417/3/6
f 416/2/6 407/2/6 417/2/6
f 408/1/6 409/1/6 418/1/6
f 417/3/6 408/3/6 418/3/6
f 418/1/6 409/1/6 419/1/6
f 409/4/6 410/4/6 420/4/6
f 419/1/6 409/1/6 420/1/6
f 410/1/6 411/1/6 421/1/6
f 420/4/6 410/4/6 421/4/6
f 411/1/6 412/1/6 421/1/6
f 412/1/6 413/1/6 421/1/6
f 421/1/6 413/1/6 422/1/6
f 422/1/6 413/1/6 423/1/6
f 423/1/6 413/1/6 424/1/6
f 424/1/6 413/1/6 425/1/6
f 425/1/6 413/1/6 426/1/6
f 426/1/6 413/1/6 427/1/6
f 415/4/6 416/4/6 429/4/6
f 416/2/6 417/2/6 430/2/6
f 417/1/6 418/1/6 430/1/6
f 418/4/6 419/4/6 431/4/6
f 430/1/6 418/1/6 431/1/6
f 419/1/6 420/1/6 432/1/6
f 431/4/6 419/4/6 432/4/6
f 420/1/6 421/1/6 432/1/6
f 421/1/6 422/1/6 432/1/6
f 422/2/6 423/2/6 433/2/6
f 432/1/6 422/1/6 433/1/6
f 423/1/6 424/1/6 434/1/6
f 433/2/6 423/2/6 434/2/6
f 424/2/6 425/2/6 435/2/6
f 434/1/6 424/1/6 435/1/6
f 425/1/6 426/1/6 436/1/6
f 435/2/6 425/2/6 436/2/6
f 426/2/6 427/2/6 437/2/6
f 436/1/6 426/1/6 437/1/6
f 437/2/6 427/2/6 438/2/6
f 428/2/6 429/2/6 439/2/6
f 429/4/6 416/4/6 440/4/6
f 439/2/6 429/2/6 440/2/6
f 430/3/6 431/3/6 441/3/6
f 416/2/6 430/2/6 441/2/6
f 431/1/6 432/1/6 442/1/6
f 441/3/6 431/3/6 442/3/6
f 432/1/6 433/1/6 442/1/6
f 433/1/6 434/1/6 442/1/6
f 442/1/6 434/1/6 443/1/6
f 435/2/6 436/2/6 444/2/6
f 443/1/6 434/1/6 444/1/6
f 434/2/6 435/2/6 444/2/6
f 436/2/6 437/2/6 444/2/6
f 444/2/6 437/2/6 445/2/6
f 445/2/6 437/2/6 446/2/6
f 437/1/6 438/1/6 447/1/6
f 446/2/6 437/2/6 447/2/6
f 447/1/6 438/1/6 448/1/6
f 440/4/6 416/4/6 450/4/6
f 442/1/6 443/1/6 451/1/6
f 441/1/6 442/1/6 451/1/6
f 443/2/6 444/2/6 452/2/6
f 451/1/6 443/1/6 452/1/6
f 444/2/6 445/2/6 452/2/6
f 452/2/6 445/2/6 453/2/6
f 445/3/6 446/3/6 454/3/6
f 453/2/6 445/2/6 454/2/6
f 447/2/6 448/2/6 455/2/6
f 454/3/6 446/3/6 455/3/6
f 446/2/6 447/2/6 455/2/6
f 455/2/6 448/2/6 456/2/6
f 456/2/6 448/2/6 457/2/6
f 449/2/6 450/2/6 458/2/6
f 450/4/6 416/4/6 459/4/6
f 458/2/6 450/2/6 459/2/6
f 452/2/6 453/2/6 460/2/6
f 441/1/6 451/1/6 460/1/6
f 451/2/6 452/2/6 460/2/6
f 460/2/6 453/2/6 461/2/6
f 453/3/6 454/3/6 462/3/6
f 461/2/6 453/2/6 462/2/6
f 454/4/6 455/4/6 463/4/6
f 462/3/6 454/3/6 463/3/6
f 455/3/6 456/3/6 464/3/6
f 463/4/6 455/4/6 464/4/6
f 456/2/6 457/2/6 465/2/6
f 464/3/6 456/3/6 465/3/6
f 459/4/6 416/4/6 467/4/6
f 416/2/6 441/2/6 468/2/6
f 467/4/6 416/4/6 468/4/6
f 460/1/6 461/1/6 469/1/6
f 441/1/6 460/1/6 469/1/6
f 469/1/6 461/1/6 470/1/6
f 461/2/6 462/2/6 471/2/6
f 470/1/6 461/1/6 471/1/6
f 462/2/6 463/2/6 471/2/6
f 471/2/6 463/2/6 472/2/6
f 463/3/6 464/3/6 473/3/6
f 472/2/6 463/2/6 473/2/6
f 464/2/6 465/2/6 474/2/6
f 473/3/6 464/3/6 474/3/6
f 465/2/6 457/2/6 475/2/6
f 474/2/6 465/2/6 475/2/6
f 475/2/6 457/2/6 476/2/6
f 466/2/6 467/2/6 477/2/6
f 467/3/6 468/3/6 478/3/6
f 477/2/6 467/2/6 478/2/6
f 468/2/6 441/2/6 479/2/6
f 478/3/6 468/3/6 479/3/6
f 469/4/6 470/4/6 480/4/6
f 441/1/6 469/1/6 480/1/6
f 470/1/6 471/1/6 481/1/6
f 480/4/6 470/4/6 481/4/6
f 481/1/6 471/1/6 482/1/6
f 471/3/6 472/3/6 483/3/6
f 482/1/6 471/1/6 483/1/6
f 472/2/6 473/2/6 484/2/6
f 483/3/6 472/3/6 484/3/6
f 473/2/6 474/2/6 484/2/6
f 474/2/6 475/2/6 484/2/6
f 484/2/6 475/2/6 485/2/6
f 485/2/6 475/2/6 486/2/6
f 475/1/6 476/1/6 487/1/6
f 486/2/6 475/2/6 487/2/6
f 487/1/6 476/1/6 488/1/6
f 478/4/6 479/4/6 490/4/6
f 480/1/6 481/1/6 491/1/6
f 479/2/6 441/2/6 491/2/6
f 441/1/6 480/1/6 491/1/6
f 491/1/6 481/1/6 492/1/6
f 481/3/6 482/3/6 493/3/6
f 492/1/6 481/1/6 493/1/6
f 482/1/6 483/1/6 494/1/6
f 493/3/6 482/3/6 494/3/6
f 494/1/6 483/1/6 495/1/6
f 483/2/6 484/2/6 496/2/6
f 495/1/6 483/1/6 496/1/6
f 484/1/6 485/1/6 497/1/6
f 496/2/6 484/2/6 497/2/6
f 485/2/6 486/2/6 498/2/6
f 497/1/6 485/1/6 498/1/6
f 486/1/6 487/1/6 499/1/6
f 498/2/6 486/2/6 499/2/6
f 487/2/6 488/2/6 500/2/6
f 499/1/6 487/1/6 500/1/6
f 500/2/6 488/2/6 501/2/6
f 489/2/6 490/2/6 502/2/6
f 490/4/6 479/4/6 503/4/6
f 502/2/6 490/2/6 503/2/6
f 479/2/6 491/2/6 504/2/6
f 503/4/6 479/4/6 504/4/6
f 491/4/6 492/4/6 505/4/6
f 504/2/6 491/2/6 505/2/6
f 492/1/6 493/1/6 506/1/6
f 505/4/6 492/4/6 506/4/6
f 493/1/6 494/1/6 506/1/6
f 494/4/6 495/4/6 507/4/6
f 506/1/6 494/1/6 507/1/6
f 498/1/6 499/1/6 508/1/6
f 507/4/6 495/4/6 508/4/6
f 496/1/6 497/1/6 508/1/6
f 499/1/6 500/1/6 508/1/6
f 500/1/6 501/1/6 508/1/6
f 495/1/6 496/1/6 508/1/6
f 497/1/6 498/1/6 508/1/6
f 508/1/6 501/1/6 509/1/6
f 503/3/6 504/3/6 511/3/6
f 504/2/6 505/2/6 512/2/6
f 508/2/6 509/2/6 512/2/6
f 511/3/6 504/3/6 512/3/6
f 506/2/6 507/2/6 512/2/6
f 507/2/6 508/2/6 512/2/6
f 505/2/6 506/2/6 512/2/6
f 512/2/6 509/2/6 513/2/6
f 513/2/6 509/2/6 514/2/6
f 514/2/6 509/2/6 515/2/6
f 515/2/6 509/2/6 516/2/6
f 510/2/6 511/2/6 517/2/6
f 511/4/6 512/4/6 518/4/6
f 517/2/6 511/2/6 518/2/6
f 512/3/6 513/3/6 519/3/6
f 518/4/6 512/4/6 519/4/6
f 513/4/6 514/4/6 520/4/6
f 519/3/6 513/3/6 520/3/6
f 514/3/6 515/3/6 521/3/6
f 520/4/6 514/4/6 521/4/6
f 515/4/6 516/4/6 522/4/6
f 521/3/6 515/3/6 522/3/6
f 522/4/6 516/4/6 523/4/6
f 524/4/6 525/4/6 526/4/6
f 526/4/6 525/4/6 527/4/6
f 526/3/6 527/3/6 528/3/6
f 528/3/6 527/3/6 529/3/6
f 528/4/6 529/4/6 530/4/6
f 530/4/6 529/4/6 531/4/6
f 530/3/6 531/3/6 532/3/6
f 532/3/6 531/3/6 533/3/6
f 532/4/6 533/4/6 534/4/6
f 534/4/6 533/4/6 535/4/6
f 536/2/6 537/2/6 538/2/6
f 538/2/6 537/2/6 539/2/6
