# MagicaVoxel @ Ephtracy

# group
o 

# material
mtllib drzewko-50.mtl
usemtl palette

# normals
vn 0 1 0
vn 0 -1 0
vn 0 0 1
vn 0 0 -1
vn -1 0 0
vn 1 0 0

# texcoords
vt 0.607422 0.5
vt 0.728516 0.5
vt 0.912109 0.5
vt 0.962891 0.5
vt 0.966797 0.5
vt 0.974609 0.5

# verts
v -19.4 3.7 -10
v -19.4 3.7 -10.1
v -19.1 3.7 -10
v -19.1 3.7 -10.1
v -19.5 3.6 -10
v -19.5 3.6 -10.1
v -19.4 3.6 -9.9
v -19.4 3.6 -10
v -19.4 3.6 -10.1
v -19.2 3.6 -9.9
v -19.2 3.6 -10
v -19.1 3.6 -10
v -19.1 3.6 -10.1
v -19 3.6 -10
v -19 3.6 -10.1
v -19 3.1 -10
v -19 3.1 -10.1
v -18.9 3.1 -10
v -18.9 3.1 -10.1
v -19.6 2.9 -10
v -19.6 2.9 -10.1
v -19.5 2.9 -10
v -19.5 2.9 -10.1
v -19.4 2.8 -9.9
v -19.4 2.8 -10
v -19.3 2.8 -9.9
v -19.3 2.8 -10
v -19.3 2.7 -9.9
v -19.3 2.7 -10
v -19.2 2.7 -9.9
v -19.2 2.7 -10
v -19 2.7 -9.9
v -19 2.7 -10
v -18.9 2.7 -9.9
v -18.9 2.7 -10
v -19.5 2.6 -9.9
v -19.5 2.6 -10
v -19.3 2.6 -9.9
v -19.3 2.6 -10
v -19.2 2.6 -9.9
v -19.2 2.6 -10
v -19 2.6 -9.9
v -19 2.6 -10
v -18.9 2.6 -10
v -18.9 2.6 -10.1
v -18.8 2.6 -10
v -18.8 2.6 -10.1
v -19.2 1.9 -9.9
v -19.2 1.9 -10
v -19.1 1.9 -9.9
v -19.1 1.9 -10
v -19.3 3.5 -9.9
v -19.3 3.5 -10
v -19.2 3.5 -9.9
v -19.2 3.5 -10
v -19.4 3.4 -9.9
v -19.4 3.4 -10
v -19.3 3.4 -9.9
v -19.3 3.4 -10
v -19.4 2.7 -9.9
v -19.4 2.7 -10
v -19.3 2.7 -9.9
v -19.3 2.7 -10
v -19.3 2.6 -9.9
v -19.3 2.6 -10
v -19.2 2.6 -9.9
v -19.2 2.6 -10
v -19 2.6 -9.9
v -19 2.6 -10
v -18.9 2.6 -9.9
v -18.9 2.6 -10
v -19.6 2.5 -10
v -19.6 2.5 -10.1
v -19.5 2.5 -9.9
v -19.5 2.5 -10
v -19.5 2.5 -10.1
v -19.3 2.5 -9.9
v -19.3 2.5 -10
v -19.2 2.5 -9.9
v -19.2 2.5 -10
v -19.1 2.5 -9.9
v -19.1 2.5 -10
v -19 2.4 -10
v -19 2.4 -10.1
v -18.8 2.4 -10
v -18.8 2.4 -10.1
v -19.1 2.2 -9.9
v -19.1 2.2 -10
v -19.1 2.2 -10.1
v -19 2.2 -9.9
v -19 2.2 -10
v -19 2.2 -10.1
v -19.5 2.1 -10
v -19.5 2.1 -10.1
v -19.4 2.1 -10
v -19.4 2.1 -10.1
v -19.4 1.8 -10
v -19.4 1.8 -10.1
v -19.2 1.8 -9.9
v -19.2 1.8 -10
v -19.1 1.8 -9.9
v -19.1 1.8 -10.1
v -19.4 3.6 -9.9
v -19.2 3.6 -9.9
v -19.3 3.5 -9.9
v -19.2 3.5 -9.9
v -19.4 3.4 -9.9
v -19.3 3.4 -9.9
v -19.4 2.8 -9.9
v -19.3 2.8 -9.9
v -19.4 2.7 -9.9
v -19.3 2.7 -9.9
v -19.2 2.7 -9.9
v -19 2.7 -9.9
v -18.9 2.7 -9.9
v -19.5 2.6 -9.9
v -19.3 2.6 -9.9
v -19.2 2.6 -9.9
v -19 2.6 -9.9
v -18.9 2.6 -9.9
v -19.5 2.5 -9.9
v -19.3 2.5 -9.9
v -19.2 2.5 -9.9
v -19.1 2.5 -9.9
v -19 2.5 -9.9
v -19.1 2.2 -9.9
v -19 2.2 -9.9
v -19.2 1.9 -9.9
v -19.1 1.9 -9.9
v -19.2 1.8 -9.9
v -19.1 1.8 -9.9
v -19.4 3.7 -10
v -19.1 3.7 -10
v -19.5 3.6 -10
v -19.4 3.6 -10
v -19.2 3.6 -10
v -19.1 3.6 -10
v -19 3.6 -10
v -19.3 3.5 -10
v -19.2 3.5 -10
v -19 3.5 -10
v -19.4 3.4 -10
v -19.3 3.4 -10
v -19.3 3.3 -10
v -19.2 3.3 -10
v -19.1 3.3 -10
v -19 3.3 -10
v -19.4 3.2 -10
v -19.3 3.2 -10
v -19.1 3.2 -10
v -19 3.2 -10
v -19.2 3.1 -10
v -19.1 3.1 -10
v -19 3.1 -10
v -18.9 3.1 -10
v -19.2 3 -10
v -19.1 3 -10
v -19 3 -10
v -19.6 2.9 -10
v -19.5 2.9 -10
v -19.4 2.9 -10
v -19.1 2.9 -10
v -19 2.9 -10
v -19.4 2.8 -10
v -19.3 2.8 -10
v -19.4 2.7 -10
v -19.3 2.7 -10
v -19.2 2.7 -10
v -19 2.7 -10
v -18.9 2.7 -10
v -19.5 2.6 -10
v -19.3 2.6 -10
v -19.2 2.6 -10
v -19 2.6 -10
v -18.9 2.6 -10
v -18.8 2.6 -10
v -19.6 2.5 -10
v -19.5 2.5 -10
v -19.3 2.5 -10
v -19.2 2.5 -10
v -19.1 2.5 -10
v -19 2.5 -10
v -19 2.4 -10
v -18.8 2.4 -10
v -19.5 2.2 -10
v -19.4 2.2 -10
v -19.3 2.2 -10
v -19.1 2.2 -10
v -19.5 2.1 -10
v -19.4 2.1 -10
v -19.3 2 -10
v -19.2 2 -10
v -19.2 1.9 -10
v -19.1 1.9 -10
v -19.4 1.8 -10
v -19.2 1.8 -10
v -19.4 3.7 -10.1
v -19.1 3.7 -10.1
v -19.5 3.6 -10.1
v -19.4 3.6 -10.1
v -19.1 3.6 -10.1
v -19 3.6 -10.1
v -19.2 3.5 -10.1
v -19 3.5 -10.1
v -19.3 3.3 -10.1
v -19.2 3.3 -10.1
v -19.1 3.3 -10.1
v -19 3.3 -10.1
v -19.4 3.2 -10.1
v -19.3 3.2 -10.1
v -19.1 3.2 -10.1
v -19 3.2 -10.1
v -19.2 3.1 -10.1
v -19.1 3.1 -10.1
v -19 3.1 -10.1
v -18.9 3.1 -10.1
v -19.2 3 -10.1
v -19.1 3 -10.1
v -19 3 -10.1
v -19.6 2.9 -10.1
v -19.5 2.9 -10.1
v -19.4 2.9 -10.1
v -19.1 2.9 -10.1
v -19 2.9 -10.1
v -19.1 2.6 -10.1
v -19 2.6 -10.1
v -18.9 2.6 -10.1
v -18.8 2.6 -10.1
v -19.6 2.5 -10.1
v -19.5 2.5 -10.1
v -19.1 2.5 -10.1
v -19 2.5 -10.1
v -19 2.4 -10.1
v -18.8 2.4 -10.1
v -19.5 2.2 -10.1
v -19.4 2.2 -10.1
v -19.3 2.2 -10.1
v -19.1 2.2 -10.1
v -19 2.2 -10.1
v -19.5 2.1 -10.1
v -19.4 2.1 -10.1
v -19.3 2 -10.1
v -19.2 2 -10.1
v -19.2 1.9 -10.1
v -19.1 1.9 -10.1
v -19.4 1.8 -10.1
v -19.1 1.8 -10.1
v -19.6 2.9 -10
v -19.6 2.5 -10
v -19.6 2.9 -10.1
v -19.6 2.5 -10.1
v -19.5 2.6 -9.9
v -19.5 2.5 -9.9
v -19.5 3.6 -10
v -19.5 2.9 -10
v -19.5 2.6 -10
v -19.5 2.5 -10
v -19.5 2.2 -10
v -19.5 2.1 -10
v -19.5 3.6 -10.1
v -19.5 2.9 -10.1
v -19.5 2.5 -10.1
v -19.5 2.2 -10.1
v -19.5 2.1 -10.1
v -19.4 3.6 -9.9
v -19.4 3.4 -9.9
v -19.4 2.8 -9.9
v -19.4 2.7 -9.9
v -19.4 3.7 -10
v -19.4 3.6 -10
v -19.4 3.4 -10
v -19.4 2.8 -10
v -19.4 2.7 -10
v -19.4 2.1 -10
v -19.4 1.8 -10
v -19.4 3.7 -10.1
v -19.4 3.6 -10.1
v -19.4 2.1 -10.1
v -19.4 1.8 -10.1
v -19.3 2.7 -9.9
v -19.3 2.6 -9.9
v -19.3 2.7 -10
v -19.3 2.6 -10
v -19.2 2.6 -9.9
v -19.2 2.5 -9.9
v -19.2 1.9 -9.9
v -19.2 1.8 -9.9
v -19.2 2.6 -10
v -19.2 2.5 -10
v -19.2 1.9 -10
v -19.2 1.8 -10
v -19.1 2.5 -9.9
v -19.1 2.2 -9.9
v -19.1 2.5 -10
v -19.1 2.2 -10
v -19 2.7 -9.9
v -19 2.6 -9.9
v -19 2.7 -10
v -19 2.6 -10
v -19.3 3.5 -9.9
v -19.3 3.4 -9.9
v -19.3 2.8 -9.9
v -19.3 2.7 -9.9
v -19.3 2.6 -9.9
v -19.3 2.5 -9.9
v -19.3 3.5 -10
v -19.3 3.4 -10
v -19.3 2.8 -10
v -19.3 2.7 -10
v -19.3 2.6 -10
v -19.3 2.5 -10
v -19.2 3.6 -9.9
v -19.2 3.5 -9.9
v -19.2 2.7 -9.9
v -19.2 2.6 -9.9
v -19.2 3.6 -10
v -19.2 3.5 -10
v -19.2 2.7 -10
v -19.2 2.6 -10
v -19.1 1.9 -9.9
v -19.1 1.8 -9.9
v -19.1 3.7 -10
v -19.1 3.6 -10
v -19.1 2.2 -10
v -19.1 1.9 -10
v -19.1 3.7 -10.1
v -19.1 3.6 -10.1
v -19.1 2.2 -10.1
v -19.1 1.9 -10.1
v -19.1 1.8 -10.1
v -19 2.6 -9.9
v -19 2.5 -9.9
v -19 2.2 -9.9
v -19 3.6 -10
v -19 3.5 -10
v -19 3.3 -10
v -19 3.2 -10
v -19 3.1 -10
v -19 2.6 -10
v -19 2.5 -10
v -19 2.4 -10
v -19 2.2 -10
v -19 3.6 -10.1
v -19 3.5 -10.1
v -19 3.3 -10.1
v -19 3.2 -10.1
v -19 3.1 -10.1
v -19 2.4 -10.1
v -19 2.2 -10.1
v -18.9 2.7 -9.9
v -18.9 2.6 -9.9
v -18.9 3.1 -10
v -18.9 2.7 -10
v -18.9 2.6 -10
v -18.9 3.1 -10.1
v -18.9 2.6 -10.1
v -18.8 2.6 -10
v -18.8 2.4 -10
v -18.8 2.6 -10.1
v -18.8 2.4 -10.1

# faces
f 3/6/1 2/6/1 1/6/1
f 4/6/1 2/6/1 3/6/1
f 8/6/1 6/6/1 5/6/1
f 9/6/1 6/6/1 8/6/1
f 10/6/1 8/6/1 7/6/1
f 11/6/1 8/6/1 10/6/1
f 14/6/1 13/6/1 12/6/1
f 15/6/1 13/6/1 14/6/1
f 18/6/1 17/6/1 16/6/1
f 19/6/1 17/6/1 18/6/1
f 22/6/1 21/6/1 20/6/1
f 23/6/1 21/6/1 22/6/1
f 26/6/1 25/6/1 24/6/1
f 27/6/1 25/6/1 26/6/1
f 30/6/1 29/6/1 28/6/1
f 31/6/1 29/6/1 30/6/1
f 34/6/1 33/6/1 32/6/1
f 35/6/1 33/6/1 34/6/1
f 38/6/1 37/6/1 36/6/1
f 39/6/1 37/6/1 38/6/1
f 42/6/1 41/6/1 40/6/1
f 43/6/1 41/6/1 42/6/1
f 46/6/1 45/6/1 44/6/1
f 47/6/1 45/6/1 46/6/1
f 50/6/1 49/6/1 48/6/1
f 51/6/1 49/6/1 50/6/1
f 52/6/2 53/6/2 54/6/2
f 54/6/2 53/6/2 55/6/2
f 56/6/2 57/6/2 58/6/2
f 58/6/2 57/6/2 59/6/2
f 60/6/2 61/6/2 62/6/2
f 62/6/2 61/6/2 63/6/2
f 64/6/2 65/6/2 66/6/2
f 66/6/2 65/6/2 67/6/2
f 68/6/2 69/6/2 70/6/2
f 70/6/2 69/6/2 71/6/2
f 72/6/2 73/6/2 75/6/2
f 75/6/2 73/6/2 76/6/2
f 74/6/2 75/6/2 77/6/2
f 77/6/2 75/6/2 78/6/2
f 79/6/2 80/6/2 81/6/2
f 81/6/2 80/6/2 82/6/2
f 83/6/2 84/6/2 85/6/2
f 85/6/2 84/6/2 86/6/2
f 87/4/2 88/4/2 90/4/2
f 88/6/2 89/6/2 91/6/2
f 90/4/2 88/4/2 91/4/2
f 91/6/2 89/6/2 92/6/2
f 93/3/2 94/3/2 95/3/2
f 95/3/2 94/3/2 96/3/2
f 97/6/2 98/6/2 100/6/2
f 99/6/2 100/6/2 101/6/2
f 100/6/2 98/6/2 102/6/2
f 101/6/2 100/6/2 102/6/2
f 105/6/3 104/6/3 103/6/3
f 106/6/3 104/6/3 105/6/3
f 107/6/3 105/6/3 103/6/3
f 108/6/3 105/6/3 107/6/3
f 111/6/3 110/6/3 109/6/3
f 112/6/3 110/6/3 111/6/3
f 117/6/3 113/6/3 112/6/3
f 118/6/3 113/6/3 117/6/3
f 119/6/3 115/6/3 114/6/3
f 120/6/3 115/6/3 119/6/3
f 121/6/3 117/6/3 116/6/3
f 122/6/3 117/6/3 121/6/3
f 123/6/3 119/6/3 118/6/3
f 124/6/3 119/6/3 123/6/3
f 125/6/3 119/6/3 124/6/3
f 126/4/3 125/4/3 124/4/3
f 127/4/3 125/4/3 126/4/3
f 130/6/3 129/6/3 128/6/3
f 131/6/3 129/6/3 130/6/3
f 135/6/3 133/6/3 132/6/3
f 136/6/3 133/6/3 135/6/3
f 137/6/3 133/6/3 136/6/3
f 140/6/3 138/6/3 137/6/3
f 140/6/3 137/6/3 136/6/3
f 141/6/3 138/6/3 140/6/3
f 142/6/3 135/6/3 134/6/3
f 143/6/3 140/6/3 139/6/3
f 144/6/3 140/6/3 143/6/3
f 144/6/3 143/6/3 142/6/3
f 145/2/3 141/2/3 140/2/3
f 145/6/3 140/6/3 144/6/3
f 146/2/3 141/2/3 145/2/3
f 147/2/3 141/2/3 146/2/3
f 148/6/3 142/6/3 134/6/3
f 148/6/3 144/6/3 142/6/3
f 149/5/3 145/5/3 144/5/3
f 149/6/3 144/6/3 148/6/3
f 149/5/3 146/5/3 145/5/3
f 150/6/3 147/6/3 146/6/3
f 150/5/3 146/5/3 149/5/3
f 151/6/3 147/6/3 150/6/3
f 152/5/3 149/5/3 148/5/3
f 152/5/3 150/5/3 149/5/3
f 152/5/3 151/5/3 150/5/3
f 153/5/3 151/5/3 152/5/3
f 154/5/3 151/5/3 153/5/3
f 156/6/3 153/6/3 152/6/3
f 156/5/3 152/5/3 148/5/3
f 157/5/3 154/5/3 153/5/3
f 157/6/3 153/6/3 156/6/3
f 158/6/3 155/6/3 154/6/3
f 158/5/3 154/5/3 157/5/3
f 160/6/3 148/6/3 134/6/3
f 161/5/3 156/5/3 148/5/3
f 161/5/3 157/5/3 156/5/3
f 161/6/3 148/6/3 160/6/3
f 162/6/3 158/6/3 157/6/3
f 162/5/3 157/5/3 161/5/3
f 163/6/3 155/6/3 158/6/3
f 163/6/3 158/6/3 162/6/3
f 164/5/3 162/5/3 161/5/3
f 164/5/3 161/5/3 160/5/3
f 164/5/3 163/5/3 162/5/3
f 165/5/3 163/5/3 164/5/3
f 166/5/3 164/5/3 160/5/3
f 167/5/3 163/5/3 165/5/3
f 168/5/3 163/5/3 167/5/3
f 169/6/3 155/6/3 163/6/3
f 169/5/3 163/5/3 168/5/3
f 170/6/3 155/6/3 169/6/3
f 171/6/3 160/6/3 159/6/3
f 171/5/3 166/5/3 160/5/3
f 171/5/3 167/5/3 166/5/3
f 172/5/3 167/5/3 171/5/3
f 173/5/3 169/5/3 168/5/3
f 174/5/3 169/5/3 173/5/3
f 177/6/3 171/6/3 159/6/3
f 178/6/3 171/6/3 177/6/3
f 179/5/3 173/5/3 172/5/3
f 180/5/3 173/5/3 179/5/3
f 182/6/3 175/6/3 174/6/3
f 182/6/3 176/6/3 175/6/3
f 183/6/3 176/6/3 182/6/3
f 184/6/3 176/6/3 183/6/3
f 185/4/3 181/4/3 180/4/3
f 185/4/3 180/4/3 179/4/3
f 185/4/3 179/4/3 178/4/3
f 186/4/3 181/4/3 185/4/3
f 187/4/3 181/4/3 186/4/3
f 188/4/3 181/4/3 187/4/3
f 189/3/3 186/3/3 185/3/3
f 190/6/3 187/6/3 186/6/3
f 190/3/3 186/3/3 189/3/3
f 191/2/3 188/2/3 187/2/3
f 191/6/3 187/6/3 190/6/3
f 192/2/3 188/2/3 191/2/3
f 193/6/3 192/6/3 191/6/3
f 193/2/3 188/2/3 192/2/3
f 194/2/3 188/2/3 193/2/3
f 195/6/3 191/6/3 190/6/3
f 195/6/3 193/6/3 191/6/3
f 196/6/3 193/6/3 195/6/3
f 197/6/4 198/6/4 200/6/4
f 200/6/4 198/6/4 201/6/4
f 199/6/4 200/6/4 203/6/4
f 201/6/4 202/6/4 203/6/4
f 200/6/4 201/6/4 203/6/4
f 203/6/4 202/6/4 204/6/4
f 199/6/4 203/6/4 205/6/4
f 203/2/4 204/2/4 206/2/4
f 205/6/4 203/6/4 206/6/4
f 206/2/4 204/2/4 207/2/4
f 207/2/4 204/2/4 208/2/4
f 199/6/4 205/6/4 209/6/4
f 205/5/4 206/5/4 210/5/4
f 209/6/4 205/6/4 210/6/4
f 206/5/4 207/5/4 210/5/4
f 207/6/4 208/6/4 211/6/4
f 210/5/4 207/5/4 211/5/4
f 211/6/4 208/6/4 212/6/4
f 209/5/4 210/5/4 213/5/4
f 210/5/4 211/5/4 213/5/4
f 211/5/4 212/5/4 213/5/4
f 213/5/4 212/5/4 214/5/4
f 214/5/4 212/5/4 215/5/4
f 213/6/4 214/6/4 217/6/4
f 209/5/4 213/5/4 217/5/4
f 214/5/4 215/5/4 218/5/4
f 217/6/4 214/6/4 218/6/4
f 215/6/4 216/6/4 219/6/4
f 218/5/4 215/5/4 219/5/4
f 199/6/4 209/6/4 221/6/4
f 209/5/4 217/5/4 222/5/4
f 217/5/4 218/5/4 222/5/4
f 221/6/4 209/6/4 222/6/4
f 218/6/4 219/6/4 223/6/4
f 222/5/4 218/5/4 223/5/4
f 219/6/4 216/6/4 224/6/4
f 223/6/4 219/6/4 224/6/4
f 222/5/4 223/5/4 225/5/4
f 221/5/4 222/5/4 225/5/4
f 223/5/4 224/5/4 225/5/4
f 224/6/4 216/6/4 226/6/4
f 225/5/4 224/5/4 226/5/4
f 226/6/4 216/6/4 227/6/4
f 220/6/4 221/6/4 229/6/4
f 221/5/4 225/5/4 230/5/4
f 229/6/4 221/6/4 230/6/4
f 225/1/4 226/1/4 231/1/4
f 230/5/4 225/5/4 231/5/4
f 227/6/4 228/6/4 232/6/4
f 231/1/4 226/1/4 232/1/4
f 226/6/4 227/6/4 232/6/4
f 232/6/4 228/6/4 233/6/4
f 231/6/4 232/6/4 233/6/4
f 233/6/4 228/6/4 234/6/4
f 230/4/4 231/4/4 235/4/4
f 235/4/4 231/4/4 236/4/4
f 236/4/4 231/4/4 237/4/4
f 231/6/4 233/6/4 238/6/4
f 237/4/4 231/4/4 238/4/4
f 238/6/4 233/6/4 239/6/4
f 235/3/4 236/3/4 240/3/4
f 236/6/4 237/6/4 241/6/4
f 240/3/4 236/3/4 241/3/4
f 237/2/4 238/2/4 242/2/4
f 241/6/4 237/6/4 242/6/4
f 242/2/4 238/2/4 243/2/4
f 242/6/4 243/6/4 244/6/4
f 243/2/4 238/2/4 244/2/4
f 244/2/4 238/2/4 245/2/4
f 241/6/4 242/6/4 246/6/4
f 242/6/4 244/6/4 246/6/4
f 244/6/4 245/6/4 246/6/4
f 246/6/4 245/6/4 247/6/4
f 250/6/5 249/6/5 248/6/5
f 251/6/5 249/6/5 250/6/5
f 256/6/5 253/6/5 252/6/5
f 257/6/5 253/6/5 256/6/5
f 260/6/5 255/6/5 254/6/5
f 261/6/5 255/6/5 260/6/5
f 262/4/5 258/4/5 257/4/5
f 263/3/5 259/3/5 258/3/5
f 263/4/5 258/4/5 262/4/5
f 264/3/5 259/3/5 263/3/5
f 270/6/5 266/6/5 265/6/5
f 271/6/5 266/6/5 270/6/5
f 272/6/5 268/6/5 267/6/5
f 273/6/5 268/6/5 272/6/5
f 276/6/5 270/6/5 269/6/5
f 277/6/5 270/6/5 276/6/5
f 278/6/5 275/6/5 274/6/5
f 279/6/5 275/6/5 278/6/5
f 282/6/5 281/6/5 280/6/5
f 283/6/5 281/6/5 282/6/5
f 288/6/5 285/6/5 284/6/5
f 289/6/5 285/6/5 288/6/5
f 290/6/5 287/6/5 286/6/5
f 291/6/5 287/6/5 290/6/5
f 294/4/5 293/4/5 292/4/5
f 295/4/5 293/4/5 294/4/5
f 298/6/5 297/6/5 296/6/5
f 299/6/5 297/6/5 298/6/5
f 300/6/6 301/6/6 306/6/6
f 306/6/6 301/6/6 307/6/6
f 302/6/6 303/6/6 308/6/6
f 308/6/6 303/6/6 309/6/6
f 304/6/6 305/6/6 310/6/6
f 310/6/6 305/6/6 311/6/6
f 312/6/6 313/6/6 316/6/6
f 316/6/6 313/6/6 317/6/6
f 314/6/6 315/6/6 318/6/6
f 318/6/6 315/6/6 319/6/6
f 320/6/6 321/6/6 325/6/6
f 322/6/6 323/6/6 326/6/6
f 326/6/6 323/6/6 327/6/6
f 324/2/6 325/2/6 328/2/6
f 325/6/6 321/6/6 329/6/6
f 328/2/6 325/2/6 329/2/6
f 329/6/6 321/6/6 330/6/6
f 331/6/6 332/6/6 339/6/6
f 332/4/6 333/4/6 340/4/6
f 339/6/6 332/6/6 340/6/6
f 340/4/6 333/4/6 341/4/6
f 341/4/6 333/4/6 342/4/6
f 334/6/6 335/6/6 343/6/6
f 335/2/6 336/2/6 344/2/6
f 343/6/6 335/6/6 344/6/6
f 336/6/6 337/6/6 345/6/6
f 344/2/6 336/2/6 345/2/6
f 337/5/6 338/5/6 346/5/6
f 345/6/6 337/6/6 346/6/6
f 346/5/6 338/5/6 347/5/6
f 341/6/6 342/6/6 348/6/6
f 348/6/6 342/6/6 349/6/6
f 350/6/6 351/6/6 353/6/6
f 353/6/6 351/6/6 354/6/6
f 352/6/6 353/6/6 355/6/6
f 353/6/6 354/6/6 355/6/6
f 355/6/6 354/6/6 356/6/6
f 357/6/6 358/6/6 359/6/6
f 359/6/6 358/6/6 360/6/6
