# MagicaVoxel @ Ephtracy

# group
o 

# material
mtllib drzewko-79.mtl
usemtl palette

# normals
vn -1 0 0
vn 1 0 0
vn 0 0 1
vn 0 0 -1
vn 0 -1 0
vn 0 1 0

# texcoords
vt 0.193359 0.5
vt 0.978516 0.5

# verts
v -43.1 0.8 10
v -43.1 0.8 9.8
v -43.1 0.8 9.1
v -43.1 0.8 8.9
v -43.1 0.9 10.1
v -43.1 0.9 10
v -43.1 0.9 9.8
v -43.1 0.9 9.2
v -43.1 0.9 9.1
v -43.1 0.9 9
v -43.1 0.9 8.9
v -43.1 1 9.1
v -43.1 1 9
v -43.1 1.2 10.1
v -43.1 1.2 10
v -43.1 1.2 9.9
v -43.1 1.3 10
v -43.1 1.3 9.9
v -43.1 1.3 9.2
v -43.1 1.4 9.8
v -43.1 1.4 9.7
v -43.1 1.4 9.6
v -43.1 1.4 9.4
v -43.1 1.5 9.7
v -43.1 1.5 9.6
v -43.1 1.5 9.5
v -43.1 1.5 9.4
v -43.1 1.5 9.3
v -43.1 1.6 9.9
v -43.1 1.6 9.8
v -43.1 1.6 9.5
v -43.1 1.6 9.4
v -43.1 1.6 9.3
v -43.1 1.6 9.2
v -43.1 1.7 9.8
v -43.1 1.7 9.5
v -43.1 1.7 9.2
v -43.1 1.7 9.1
v -43.1 1.7 9
v -43.1 1.8 9
v -43.1 1.8 8.9
v -43.1 1.8 8.8
v -43.1 1.8 8.7
v -43.1 1.9 9.1
v -43.1 1.9 9
v -43.1 1.9 8.9
v -43.1 1.9 8.8
v -43.1 2 9
v -43.1 2 8.9
v -43.1 2.1 8.9
v -43.1 2.1 8.7
v -41.4 0.8 10
v -41.4 0.8 9.8
v -41.4 0.8 9.1
v -41.4 0.8 8.9
v -41.4 0.9 10.1
v -41.4 0.9 10
v -41.4 0.9 9.8
v -41.4 0.9 9.2
v -41.4 0.9 9.1
v -41.4 0.9 9
v -41.4 0.9 8.9
v -41.4 1 9.1
v -41.4 1 9
v -41.4 1.2 10.1
v -41.4 1.2 10
v -41.4 1.2 9.9
v -41.4 1.2 9.3
v -41.4 1.2 9.2
v -41.4 1.3 10
v -41.4 1.3 9.9
v -41.4 1.3 9.7
v -41.4 1.3 9.6
v -41.4 1.3 9.4
v -41.4 1.3 9.3
v -41.4 1.3 9.2
v -41.4 1.4 9.9
v -41.4 1.4 9.8
v -41.4 1.4 9.7
v -41.4 1.4 9.6
v -41.4 1.4 9.4
v -41.4 1.5 9.7
v -41.4 1.5 9.6
v -41.4 1.5 9.5
v -41.4 1.5 9.4
v -41.4 1.5 9.3
v -41.4 1.5 9.2
v -41.4 1.5 9.1
v -41.4 1.6 9.9
v -41.4 1.6 9.8
v -41.4 1.6 9.5
v -41.4 1.6 9.4
v -41.4 1.6 9.3
v -41.4 1.6 9.2
v -41.4 1.7 9.8
v -41.4 1.7 9.5
v -41.4 1.8 9.1
v -41.4 1.8 9
v -41.4 1.8 8.8
v -41.4 1.8 8.7
v -41.4 1.9 9.1
v -41.4 1.9 9
v -41.4 1.9 8.9
v -41.4 1.9 8.8
v -41.4 2 9
v -41.4 2 8.9
v -41.4 2 8.8
v -41.4 2.1 8.9
v -41.4 2.1 8.7
v -43 0.8 10
v -43 0.8 9.8
v -43 0.8 9.1
v -43 0.8 8.9
v -43 0.9 10.1
v -43 0.9 10
v -43 0.9 9.8
v -43 0.9 9.2
v -43 0.9 9.1
v -43 0.9 9
v -43 0.9 8.9
v -43 1 9.1
v -43 1 9
v -43 1.2 10.1
v -43 1.2 10
v -43 1.2 9.9
v -43 1.3 10
v -43 1.3 9.9
v -43 1.3 9.7
v -43 1.3 9.6
v -43 1.3 9.4
v -43 1.3 9.3
v -43 1.3 9.2
v -43 1.4 9.9
v -43 1.4 9.8
v -43 1.4 9.7
v -43 1.4 9.6
v -43 1.4 9.4
v -43 1.5 9.7
v -43 1.5 9.6
v -43 1.5 9.5
v -43 1.5 9.4
v -43 1.5 9.3
v -43 1.5 9.2
v -43 1.5 9.1
v -43 1.6 9.9
v -43 1.6 9.8
v -43 1.6 9.5
v -43 1.6 9.4
v -43 1.6 9.3
v -43 1.6 9.2
v -43 1.7 9.8
v -43 1.7 9.5
v -43 1.8 9.1
v -43 1.8 9
v -43 1.8 8.8
v -43 1.8 8.7
v -43 1.9 9.1
v -43 1.9 9
v -43 1.9 8.9
v -43 1.9 8.8
v -43 2 9
v -43 2 8.9
v -43 2 8.8
v -43 2.1 8.9
v -43 2.1 8.7
v -41.3 0.8 10
v -41.3 0.8 9.8
v -41.3 0.8 9.1
v -41.3 0.8 8.9
v -41.3 0.9 10.1
v -41.3 0.9 10
v -41.3 0.9 9.8
v -41.3 0.9 9.2
v -41.3 0.9 9.1
v -41.3 0.9 9
v -41.3 0.9 8.9
v -41.3 1 9.1
v -41.3 1 9
v -41.3 1.2 10.1
v -41.3 1.2 10
v -41.3 1.2 9.9
v -41.3 1.2 9.3
v -41.3 1.2 9.2
v -41.3 1.3 10
v -41.3 1.3 9.9
v -41.3 1.3 9.3
v -41.3 1.4 9.8
v -41.3 1.4 9.7
v -41.3 1.4 9.6
v -41.3 1.4 9.4
v -41.3 1.5 9.7
v -41.3 1.5 9.6
v -41.3 1.5 9.5
v -41.3 1.5 9.4
v -41.3 1.5 9.3
v -41.3 1.6 9.9
v -41.3 1.6 9.8
v -41.3 1.6 9.5
v -41.3 1.6 9.4
v -41.3 1.6 9.3
v -41.3 1.6 9.2
v -41.3 1.7 9.8
v -41.3 1.7 9.5
v -41.3 1.7 9.2
v -41.3 1.7 9.1
v -41.3 1.7 9
v -41.3 1.8 9
v -41.3 1.8 8.9
v -41.3 1.8 8.8
v -41.3 1.8 8.7
v -41.3 1.9 9.1
v -41.3 1.9 9
v -41.3 1.9 8.9
v -41.3 1.9 8.8
v -41.3 2 9
v -41.3 2 8.9
v -41.3 2.1 8.9
v -41.3 2.1 8.7
v -43.1 0.9 10.1
v -43.1 1.2 10.1
v -43 0.9 10.1
v -43 1.2 10.1
v -41.4 0.9 10.1
v -41.4 1.2 10.1
v -41.3 0.9 10.1
v -41.3 1.2 10.1
v -43.1 0.8 10
v -43.1 0.9 10
v -43.1 1.2 10
v -43.1 1.3 10
v -43 0.8 10
v -43 0.9 10
v -43 1.2 10
v -43 1.3 10
v -41.4 0.8 10
v -41.4 0.9 10
v -41.4 1.2 10
v -41.4 1.3 10
v -41.3 0.8 10
v -41.3 0.9 10
v -41.3 1.2 10
v -41.3 1.3 10
v -43.1 1.3 9.9
v -43.1 1.6 9.9
v -43 1.3 9.9
v -43 1.4 9.9
v -43 1.6 9.9
v -41.4 1.3 9.9
v -41.4 1.4 9.9
v -41.4 1.6 9.9
v -41.3 1.3 9.9
v -41.3 1.6 9.9
v -43.1 1.6 9.8
v -43.1 1.7 9.8
v -43 1.6 9.8
v -43 1.7 9.8
v -41.4 1.6 9.8
v -41.4 1.7 9.8
v -41.3 1.6 9.8
v -41.3 1.7 9.8
v -43.1 1.4 9.7
v -43.1 1.5 9.7
v -43 1.4 9.7
v -43 1.5 9.7
v -41.4 1.4 9.7
v -41.4 1.5 9.7
v -41.3 1.4 9.7
v -41.3 1.5 9.7
v -43 1.3 9.6
v -43 1.4 9.6
v -41.4 1.3 9.6
v -41.4 1.4 9.6
v -43.1 1.5 9.5
v -43.1 1.6 9.5
v -43 1.5 9.5
v -43 1.6 9.5
v -41.4 1.5 9.5
v -41.4 1.6 9.5
v -41.3 1.5 9.5
v -41.3 1.6 9.5
v -43.1 1.4 9.4
v -43.1 1.5 9.4
v -43 1.4 9.4
v -43 1.5 9.4
v -41.4 1.4 9.4
v -41.4 1.5 9.4
v -41.3 1.4 9.4
v -41.3 1.5 9.4
v -43.1 1.5 9.3
v -43.1 1.6 9.3
v -43 1.3 9.3
v -43 1.5 9.3
v -43 1.6 9.3
v -41.4 1.2 9.3
v -41.4 1.3 9.3
v -41.4 1.5 9.3
v -41.4 1.6 9.3
v -41.3 1.2 9.3
v -41.3 1.3 9.3
v -41.3 1.5 9.3
v -41.3 1.6 9.3
v -43.1 0.9 9.2
v -43.1 1.3 9.2
v -43.1 1.6 9.2
v -43.1 1.7 9.2
v -43 0.9 9.2
v -43 1.3 9.2
v -43 1.5 9.2
v -43 1.6 9.2
v -43 1.7 9.2
v -41.4 0.9 9.2
v -41.4 1.2 9.2
v -41.4 1.5 9.2
v -41.4 1.6 9.2
v -41.4 1.7 9.2
v -41.3 0.9 9.2
v -41.3 1.2 9.2
v -41.3 1.6 9.2
v -41.3 1.7 9.2
v -43.1 0.8 9.1
v -43.1 0.9 9.1
v -43.1 1.7 9.1
v -43.1 1.9 9.1
v -43 0.8 9.1
v -43 0.9 9.1
v -43 1.7 9.1
v -43 1.8 9.1
v -43 1.9 9.1
v -41.4 0.8 9.1
v -41.4 0.9 9.1
v -41.4 1.7 9.1
v -41.4 1.8 9.1
v -41.4 1.9 9.1
v -41.3 0.8 9.1
v -41.3 0.9 9.1
v -41.3 1.7 9.1
v -41.3 1.9 9.1
v -43.1 1.9 9
v -43.1 2 9
v -43 1.8 9
v -43 1.9 9
v -43 2 9
v -41.4 1.8 9
v -41.4 1.9 9
v -41.4 2 9
v -41.3 1.9 9
v -41.3 2 9
v -43.1 2 8.9
v -43.1 2.1 8.9
v -43 1.9 8.9
v -43 2 8.9
v -43 2.1 8.9
v -41.4 1.9 8.9
v -41.4 2 8.9
v -41.4 2.1 8.9
v -41.3 2 8.9
v -41.3 2.1 8.9
v -43.1 1.8 8.8
v -43.1 1.9 8.8
v -43 1.8 8.8
v -43 1.9 8.8
v -41.4 1.8 8.8
v -41.4 1.9 8.8
v -41.3 1.8 8.8
v -41.3 1.9 8.8
v -43.1 0.9 10
v -43.1 1.2 10
v -43 0.9 10
v -43 1.2 10
v -41.4 0.9 10
v -41.4 1.2 10
v -41.3 0.9 10
v -41.3 1.2 10
v -43.1 1.2 9.9
v -43.1 1.3 9.9
v -43 1.2 9.9
v -43 1.3 9.9
v -41.4 1.2 9.9
v -41.4 1.3 9.9
v -41.3 1.2 9.9
v -41.3 1.3 9.9
v -43.1 0.8 9.8
v -43.1 0.9 9.8
v -43.1 1.4 9.8
v -43.1 1.6 9.8
v -43 0.8 9.8
v -43 0.9 9.8
v -43 1.4 9.8
v -43 1.6 9.8
v -41.4 0.8 9.8
v -41.4 0.9 9.8
v -41.4 1.4 9.8
v -41.4 1.6 9.8
v -41.3 0.8 9.8
v -41.3 0.9 9.8
v -41.3 1.4 9.8
v -41.3 1.6 9.8
v -43 1.3 9.7
v -43 1.4 9.7
v -41.4 1.3 9.7
v -41.4 1.4 9.7
v -43.1 1.4 9.6
v -43.1 1.5 9.6
v -43 1.4 9.6
v -43 1.5 9.6
v -41.4 1.4 9.6
v -41.4 1.5 9.6
v -41.3 1.4 9.6
v -41.3 1.5 9.6
v -43.1 1.6 9.5
v -43.1 1.7 9.5
v -43 1.6 9.5
v -43 1.7 9.5
v -41.4 1.6 9.5
v -41.4 1.7 9.5
v -41.3 1.6 9.5
v -41.3 1.7 9.5
v -43.1 1.5 9.4
v -43.1 1.6 9.4
v -43 1.3 9.4
v -43 1.4 9.4
v -43 1.5 9.4
v -43 1.6 9.4
v -41.4 1.3 9.4
v -41.4 1.4 9.4
v -41.4 1.5 9.4
v -41.4 1.6 9.4
v -41.3 1.5 9.4
v -41.3 1.6 9.4
v -43 1.3 9.2
v -43 1.5 9.2
v -41.4 1.3 9.2
v -41.4 1.5 9.2
v -43.1 1 9.1
v -43.1 1.7 9.1
v -43 1 9.1
v -43 1.5 9.1
v -43 1.7 9.1
v -41.4 1 9.1
v -41.4 1.5 9.1
v -41.4 1.7 9.1
v -41.3 1 9.1
v -41.3 1.7 9.1
v -43.1 0.9 9
v -43.1 1 9
v -43.1 1.7 9
v -43.1 1.8 9
v -43 0.9 9
v -43 1 9
v -43 1.7 9
v -43 1.8 9
v -41.4 0.9 9
v -41.4 1 9
v -41.4 1.7 9
v -41.4 1.8 9
v -41.3 0.9 9
v -41.3 1 9
v -41.3 1.7 9
v -41.3 1.8 9
v -43.1 0.8 8.9
v -43.1 0.9 8.9
v -43.1 1.8 8.9
v -43.1 1.9 8.9
v -43 0.8 8.9
v -43 0.9 8.9
v -43 1.8 8.9
v -43 1.9 8.9
v -41.4 0.8 8.9
v -41.4 0.9 8.9
v -41.4 1.8 8.9
v -41.4 1.9 8.9
v -41.3 0.8 8.9
v -41.3 0.9 8.9
v -41.3 1.8 8.9
v -41.3 1.9 8.9
v -43 1.9 8.8
v -43 2 8.8
v -41.4 1.9 8.8
v -41.4 2 8.8
v -43.1 1.8 8.7
v -43.1 2.1 8.7
v -43 1.8 8.7
v -43 2.1 8.7
v -41.4 1.8 8.7
v -41.4 2.1 8.7
v -41.3 1.8 8.7
v -41.3 2.1 8.7
v -43.1 0.8 10
v -43 0.8 10
v -41.4 0.8 10
v -41.3 0.8 10
v -43.1 0.8 9.8
v -43 0.8 9.8
v -41.4 0.8 9.8
v -41.3 0.8 9.8
v -43.1 0.8 9.1
v -43 0.8 9.1
v -41.4 0.8 9.1
v -41.3 0.8 9.1
v -43.1 0.8 8.9
v -43 0.8 8.9
v -41.4 0.8 8.9
v -41.3 0.8 8.9
v -43.1 0.9 10.1
v -43 0.9 10.1
v -41.4 0.9 10.1
v -41.3 0.9 10.1
v -43.1 0.9 10
v -43 0.9 10
v -41.4 0.9 10
v -41.3 0.9 10
v -43.1 0.9 9.2
v -43 0.9 9.2
v -41.4 0.9 9.2
v -41.3 0.9 9.2
v -43.1 0.9 9.1
v -43 0.9 9.1
v -41.4 0.9 9.1
v -41.3 0.9 9.1
v -43.1 1.2 10
v -43 1.2 10
v -41.4 1.2 10
v -41.3 1.2 10
v -43.1 1.2 9.9
v -43 1.2 9.9
v -41.4 1.2 9.9
v -41.3 1.2 9.9
v -41.4 1.2 9.3
v -41.3 1.2 9.3
v -41.4 1.2 9.2
v -41.3 1.2 9.2
v -43.1 1.3 9.9
v -43 1.3 9.9
v -41.4 1.3 9.9
v -41.3 1.3 9.9
v -43 1.3 9.7
v -41.4 1.3 9.7
v -43 1.3 9.6
v -41.4 1.3 9.6
v -43 1.3 9.4
v -41.4 1.3 9.4
v -43 1.3 9.3
v -41.4 1.3 9.3
v -41.3 1.3 9.3
v -43.1 1.3 9.2
v -43 1.3 9.2
v -41.4 1.3 9.2
v -43.1 1.5 9.5
v -43 1.5 9.5
v -41.4 1.5 9.5
v -41.3 1.5 9.5
v -43.1 1.5 9.4
v -43 1.5 9.4
v -41.4 1.5 9.4
v -41.3 1.5 9.4
v -43 1.5 9.2
v -41.4 1.5 9.2
v -43 1.5 9.1
v -41.4 1.5 9.1
v -43.1 1.6 9.8
v -43 1.6 9.8
v -41.4 1.6 9.8
v -41.3 1.6 9.8
v -43.1 1.6 9.5
v -43 1.6 9.5
v -41.4 1.6 9.5
v -41.3 1.6 9.5
v -43.1 1.7 9.1
v -43 1.7 9.1
v -41.4 1.7 9.1
v -41.3 1.7 9.1
v -43.1 1.7 9
v -43 1.7 9
v -41.4 1.7 9
v -41.3 1.7 9
v -43.1 1.8 9
v -43 1.8 9
v -41.4 1.8 9
v -41.3 1.8 9
v -43.1 1.8 8.9
v -43 1.8 8.9
v -41.4 1.8 8.9
v -41.3 1.8 8.9
v -43.1 1.8 8.8
v -43 1.8 8.8
v -41.4 1.8 8.8
v -41.3 1.8 8.8
v -43.1 1.8 8.7
v -43 1.8 8.7
v -41.4 1.8 8.7
v -41.3 1.8 8.7
v -43.1 1.9 8.9
v -43 1.9 8.9
v -41.4 1.9 8.9
v -41.3 1.9 8.9
v -43.1 1.9 8.8
v -43 1.9 8.8
v -41.4 1.9 8.8
v -41.3 1.9 8.8
v -43.1 0.9 10
v -43 0.9 10
v -41.4 0.9 10
v -41.3 0.9 10
v -43.1 0.9 9.8
v -43 0.9 9.8
v -41.4 0.9 9.8
v -41.3 0.9 9.8
v -43.1 0.9 9
v -43 0.9 9
v -41.4 0.9 9
v -41.3 0.9 9
v -43.1 0.9 8.9
v -43 0.9 8.9
v -41.4 0.9 8.9
v -41.3 0.9 8.9
v -43.1 1 9.1
v -43 1 9.1
v -41.4 1 9.1
v -41.3 1 9.1
v -43.1 1 9
v -43 1 9
v -41.4 1 9
v -41.3 1 9
v -43.1 1.2 10.1
v -43 1.2 10.1
v -41.4 1.2 10.1
v -41.3 1.2 10.1
v -43.1 1.2 10
v -43 1.2 10
v -41.4 1.2 10
v -41.3 1.2 10
v -43.1 1.3 10
v -43 1.3 10
v -41.4 1.3 10
v -41.3 1.3 10
v -43.1 1.3 9.9
v -43 1.3 9.9
v -41.4 1.3 9.9
v -41.3 1.3 9.9
v -43 1.4 9.9
v -41.4 1.4 9.9
v -43.1 1.4 9.8
v -43 1.4 9.8
v -41.4 1.4 9.8
v -41.3 1.4 9.8
v -43.1 1.4 9.7
v -43 1.4 9.7
v -41.4 1.4 9.7
v -41.3 1.4 9.7
v -43.1 1.4 9.6
v -43 1.4 9.6
v -41.4 1.4 9.6
v -41.3 1.4 9.6
v -43.1 1.4 9.4
v -43 1.4 9.4
v -41.4 1.4 9.4
v -41.3 1.4 9.4
v -43.1 1.5 9.7
v -43 1.5 9.7
v -41.4 1.5 9.7
v -41.3 1.5 9.7
v -43.1 1.5 9.6
v -43 1.5 9.6
v -41.4 1.5 9.6
v -41.3 1.5 9.6
v -43.1 1.5 9.4
v -43 1.5 9.4
v -41.4 1.5 9.4
v -41.3 1.5 9.4
v -43.1 1.5 9.3
v -43 1.5 9.3
v -41.4 1.5 9.3
v -41.3 1.5 9.3
v -43 1.5 9.2
v -41.4 1.5 9.2
v -43.1 1.6 9.9
v -43 1.6 9.9
v -41.4 1.6 9.9
v -41.3 1.6 9.9
v -43.1 1.6 9.8
v -43 1.6 9.8
v -41.4 1.6 9.8
v -41.3 1.6 9.8
v -43.1 1.6 9.5
v -43 1.6 9.5
v -41.4 1.6 9.5
v -41.3 1.6 9.5
v -43.1 1.6 9.4
v -43 1.6 9.4
v -41.4 1.6 9.4
v -41.3 1.6 9.4
v -43.1 1.6 9.3
v -43 1.6 9.3
v -41.4 1.6 9.3
v -41.3 1.6 9.3
v -43.1 1.6 9.2
v -43 1.6 9.2
v -41.4 1.6 9.2
v -41.3 1.6 9.2
v -43.1 1.7 9.8
v -43 1.7 9.8
v -41.4 1.7 9.8
v -41.3 1.7 9.8
v -43.1 1.7 9.5
v -43 1.7 9.5
v -41.4 1.7 9.5
v -41.3 1.7 9.5
v -43.1 1.7 9.2
v -43 1.7 9.2
v -41.4 1.7 9.2
v -41.3 1.7 9.2
v -43.1 1.7 9.1
v -43 1.7 9.1
v -41.4 1.7 9.1
v -41.3 1.7 9.1
v -43 1.8 9.1
v -41.4 1.8 9.1
v -43 1.8 9
v -41.4 1.8 9
v -43.1 1.9 9.1
v -43 1.9 9.1
v -41.4 1.9 9.1
v -41.3 1.9 9.1
v -43.1 1.9 9
v -43 1.9 9
v -41.4 1.9 9
v -41.3 1.9 9
v -43 1.9 8.9
v -41.4 1.9 8.9
v -43.1 2 9
v -43 2 9
v -41.4 2 9
v -41.3 2 9
v -43.1 2 8.9
v -43 2 8.9
v -41.4 2 8.9
v -41.3 2 8.9
v -43 2 8.8
v -41.4 2 8.8
v -43.1 2.1 8.9
v -43 2.1 8.9
v -41.4 2.1 8.9
v -41.3 2.1 8.9
v -43.1 2.1 8.7
v -43 2.1 8.7
v -41.4 2.1 8.7
v -41.3 2.1 8.7

# faces
f 6/2/1 2/2/1 1/2/1
f 7/2/1 2/2/1 6/2/1
f 9/2/1 4/2/1 3/2/1
f 10/2/1 4/2/1 9/2/1
f 11/2/1 4/2/1 10/2/1
f 12/2/1 9/2/1 8/2/1
f 12/2/1 10/2/1 9/2/1
f 13/2/1 10/2/1 12/2/1
f 14/2/1 6/2/1 5/2/1
f 15/2/1 6/2/1 14/2/1
f 17/2/1 16/2/1 15/2/1
f 18/2/1 16/2/1 17/2/1
f 19/2/1 12/2/1 8/2/1
f 20/2/1 19/2/1 18/2/1
f 21/2/1 19/2/1 20/2/1
f 22/2/1 19/2/1 21/2/1
f 23/2/1 19/2/1 22/2/1
f 24/2/1 22/2/1 21/2/1
f 25/2/1 22/2/1 24/2/1
f 27/2/1 19/2/1 23/2/1
f 28/2/1 19/2/1 27/2/1
f 29/2/1 20/2/1 18/2/1
f 30/2/1 20/2/1 29/2/1
f 31/2/1 27/2/1 26/2/1
f 32/2/1 27/2/1 31/2/1
f 33/2/1 19/2/1 28/2/1
f 34/2/1 12/2/1 19/2/1
f 34/2/1 19/2/1 33/2/1
f 35/2/1 31/2/1 30/2/1
f 36/2/1 31/2/1 35/2/1
f 37/2/1 12/2/1 34/2/1
f 38/2/1 12/2/1 37/2/1
f 40/2/1 39/2/1 38/2/1
f 44/2/1 41/2/1 40/2/1
f 44/2/1 40/2/1 38/2/1
f 45/2/1 41/2/1 44/2/1
f 46/2/1 41/2/1 45/2/1
f 47/2/1 43/2/1 42/2/1
f 48/2/1 46/2/1 45/2/1
f 48/2/1 47/2/1 46/2/1
f 49/2/1 47/2/1 48/2/1
f 50/2/1 47/2/1 49/2/1
f 51/2/1 43/2/1 47/2/1
f 51/2/1 47/2/1 50/2/1
f 57/2/1 53/2/1 52/2/1
f 58/2/1 53/2/1 57/2/1
f 60/2/1 55/2/1 54/2/1
f 61/2/1 55/2/1 60/2/1
f 62/2/1 55/2/1 61/2/1
f 63/2/1 60/2/1 59/2/1
f 63/2/1 61/2/1 60/2/1
f 64/2/1 61/2/1 63/2/1
f 65/2/1 57/2/1 56/2/1
f 66/2/1 57/2/1 65/2/1
f 69/2/1 63/2/1 59/2/1
f 70/2/1 67/2/1 66/2/1
f 71/2/1 67/2/1 70/2/1
f 75/2/1 69/2/1 68/2/1
f 76/2/1 63/2/1 69/2/1
f 76/2/1 69/2/1 75/2/1
f 79/2/1 73/2/1 72/2/1
f 80/2/1 73/2/1 79/2/1
f 81/2/1 75/2/1 74/2/1
f 82/2/1 80/2/1 79/2/1
f 83/2/1 80/2/1 82/2/1
f 85/2/1 75/2/1 81/2/1
f 86/2/1 75/2/1 85/2/1
f 87/2/1 63/2/1 76/2/1
f 88/2/1 63/2/1 87/2/1
f 89/2/1 78/2/1 77/2/1
f 90/2/1 78/2/1 89/2/1
f 91/2/1 85/2/1 84/2/1
f 92/2/1 85/2/1 91/2/1
f 93/2/1 87/2/1 86/2/1
f 94/2/1 87/2/1 93/2/1
f 95/2/1 91/2/1 90/2/1
f 96/2/1 91/2/1 95/2/1
f 101/2/1 98/2/1 97/2/1
f 102/2/1 98/2/1 101/2/1
f 104/2/1 100/2/1 99/2/1
f 105/2/1 103/2/1 102/2/1
f 106/2/1 103/2/1 105/2/1
f 107/2/1 100/2/1 104/2/1
f 108/2/1 107/2/1 106/2/1
f 109/2/1 100/2/1 107/2/1
f 109/2/1 107/2/1 108/2/1
f 110/2/2 111/2/2 115/2/2
f 115/2/2 111/2/2 116/2/2
f 112/2/2 113/2/2 118/2/2
f 118/2/2 113/2/2 119/2/2
f 119/2/2 113/2/2 120/2/2
f 117/2/2 118/2/2 121/2/2
f 118/2/2 119/2/2 121/2/2
f 121/2/2 119/2/2 122/2/2
f 114/2/2 115/2/2 123/2/2
f 123/2/2 115/2/2 124/2/2
f 124/2/2 125/2/2 126/2/2
f 126/2/2 125/2/2 127/2/2
f 117/2/2 121/2/2 132/2/2
f 128/2/2 129/2/2 135/2/2
f 135/2/2 129/2/2 136/2/2
f 130/2/2 131/2/2 137/2/2
f 135/2/2 136/2/2 138/2/2
f 138/2/2 136/2/2 139/2/2
f 137/2/2 131/2/2 141/2/2
f 141/2/2 131/2/2 142/2/2
f 132/2/2 121/2/2 143/2/2
f 143/2/2 121/2/2 144/2/2
f 133/2/2 134/2/2 145/2/2
f 145/2/2 134/2/2 146/2/2
f 140/2/2 141/2/2 147/2/2
f 147/2/2 141/2/2 148/2/2
f 142/2/2 143/2/2 149/2/2
f 149/2/2 143/2/2 150/2/2
f 146/2/2 147/2/2 151/2/2
f 151/2/2 147/2/2 152/2/2
f 153/2/2 154/2/2 157/2/2
f 157/2/2 154/2/2 158/2/2
f 155/2/2 156/2/2 160/2/2
f 158/2/2 159/2/2 161/2/2
f 161/2/2 159/2/2 162/2/2
f 160/2/2 156/2/2 163/2/2
f 162/2/2 163/2/2 164/2/2
f 163/2/2 156/2/2 165/2/2
f 164/2/2 163/2/2 165/2/2
f 166/2/2 167/2/2 171/2/2
f 171/2/2 167/2/2 172/2/2
f 168/2/2 169/2/2 174/2/2
f 174/2/2 169/2/2 175/2/2
f 175/2/2 169/2/2 176/2/2
f 173/2/2 174/2/2 177/2/2
f 174/2/2 175/2/2 177/2/2
f 177/2/2 175/2/2 178/2/2
f 170/2/2 171/2/2 179/2/2
f 179/2/2 171/2/2 180/2/2
f 173/2/2 177/2/2 183/2/2
f 180/2/2 181/2/2 184/2/2
f 184/2/2 181/2/2 185/2/2
f 182/2/2 183/2/2 186/2/2
f 185/2/2 186/2/2 187/2/2
f 187/2/2 186/2/2 188/2/2
f 188/2/2 186/2/2 189/2/2
f 189/2/2 186/2/2 190/2/2
f 188/2/2 189/2/2 191/2/2
f 191/2/2 189/2/2 192/2/2
f 190/2/2 186/2/2 194/2/2
f 186/2/2 183/2/2 195/2/2
f 194/2/2 186/2/2 195/2/2
f 185/2/2 187/2/2 196/2/2
f 196/2/2 187/2/2 197/2/2
f 193/2/2 194/2/2 198/2/2
f 198/2/2 194/2/2 199/2/2
f 195/2/2 183/2/2 200/2/2
f 183/2/2 177/2/2 201/2/2
f 200/2/2 183/2/2 201/2/2
f 197/2/2 198/2/2 202/2/2
f 202/2/2 198/2/2 203/2/2
f 201/2/2 177/2/2 204/2/2
f 204/2/2 177/2/2 205/2/2
f 205/2/2 206/2/2 207/2/2
f 207/2/2 208/2/2 211/2/2
f 205/2/2 207/2/2 211/2/2
f 211/2/2 208/2/2 212/2/2
f 212/2/2 208/2/2 213/2/2
f 209/2/2 210/2/2 214/2/2
f 212/2/2 213/2/2 215/2/2
f 213/2/2 214/2/2 215/2/2
f 215/2/2 214/2/2 216/2/2
f 216/2/2 214/2/2 217/2/2
f 214/2/2 210/2/2 218/2/2
f 217/2/2 214/2/2 218/2/2
f 221/2/3 220/2/3 219/2/3
f 222/2/3 220/2/3 221/2/3
f 225/2/3 224/2/3 223/2/3
f 226/2/3 224/2/3 225/2/3
f 231/2/3 228/2/3 227/2/3
f 232/2/3 228/2/3 231/2/3
f 233/2/3 230/2/3 229/2/3
f 234/2/3 230/2/3 233/2/3
f 239/2/3 236/2/3 235/2/3
f 240/2/3 236/2/3 239/2/3
f 241/2/3 238/2/3 237/2/3
f 242/2/3 238/2/3 241/2/3
f 245/2/3 244/2/3 243/2/3
f 246/2/3 244/2/3 245/2/3
f 247/2/3 244/2/3 246/2/3
f 248/1/3 246/1/3 245/1/3
f 249/1/3 246/1/3 248/1/3
f 251/2/3 249/2/3 248/2/3
f 251/2/3 250/2/3 249/2/3
f 252/2/3 250/2/3 251/2/3
f 255/2/3 254/2/3 253/2/3
f 256/2/3 254/2/3 255/2/3
f 259/2/3 258/2/3 257/2/3
f 260/2/3 258/2/3 259/2/3
f 263/2/3 262/2/3 261/2/3
f 264/2/3 262/2/3 263/2/3
f 267/2/3 266/2/3 265/2/3
f 268/2/3 266/2/3 267/2/3
f 271/1/3 270/1/3 269/1/3
f 272/1/3 270/1/3 271/1/3
f 275/2/3 274/2/3 273/2/3
f 276/2/3 274/2/3 275/2/3
f 279/2/3 278/2/3 277/2/3
f 280/2/3 278/2/3 279/2/3
f 283/2/3 282/2/3 281/2/3
f 284/2/3 282/2/3 283/2/3
f 287/2/3 286/2/3 285/2/3
f 288/2/3 286/2/3 287/2/3
f 292/2/3 290/2/3 289/2/3
f 293/2/3 290/2/3 292/2/3
f 295/1/3 292/1/3 291/1/3
f 296/1/3 292/1/3 295/1/3
f 298/2/3 295/2/3 294/2/3
f 299/2/3 295/2/3 298/2/3
f 300/2/3 297/2/3 296/2/3
f 301/2/3 297/2/3 300/2/3
f 306/2/3 303/2/3 302/2/3
f 307/2/3 303/2/3 306/2/3
f 309/2/3 305/2/3 304/2/3
f 310/2/3 305/2/3 309/2/3
f 313/1/3 309/1/3 308/1/3
f 313/1/3 310/1/3 309/1/3
f 314/1/3 310/1/3 313/1/3
f 315/1/3 310/1/3 314/1/3
f 316/2/3 312/2/3 311/2/3
f 317/2/3 312/2/3 316/2/3
f 318/2/3 315/2/3 314/2/3
f 319/2/3 315/2/3 318/2/3
f 324/2/3 321/2/3 320/2/3
f 325/2/3 321/2/3 324/2/3
f 326/2/3 323/2/3 322/2/3
f 327/2/3 323/2/3 326/2/3
f 328/2/3 323/2/3 327/2/3
f 331/1/3 327/1/3 326/1/3
f 332/1/3 327/1/3 331/1/3
f 334/2/3 330/2/3 329/2/3
f 335/2/3 330/2/3 334/2/3
f 336/2/3 333/2/3 332/2/3
f 336/2/3 332/2/3 331/2/3
f 337/2/3 333/2/3 336/2/3
f 341/2/3 339/2/3 338/2/3
f 342/2/3 339/2/3 341/2/3
f 343/1/3 341/1/3 340/1/3
f 344/1/3 341/1/3 343/1/3
f 346/2/3 345/2/3 344/2/3
f 347/2/3 345/2/3 346/2/3
f 351/2/3 349/2/3 348/2/3
f 352/2/3 349/2/3 351/2/3
f 353/1/3 351/1/3 350/1/3
f 354/1/3 351/1/3 353/1/3
f 356/2/3 355/2/3 354/2/3
f 357/2/3 355/2/3 356/2/3
f 360/2/3 359/2/3 358/2/3
f 361/2/3 359/2/3 360/2/3
f 364/2/3 363/2/3 362/2/3
f 365/2/3 363/2/3 364/2/3
f 366/2/4 367/2/4 368/2/4
f 368/2/4 367/2/4 369/2/4
f 370/2/4 371/2/4 372/2/4
f 372/2/4 371/2/4 373/2/4
f 374/2/4 375/2/4 376/2/4
f 376/2/4 375/2/4 377/2/4
f 378/2/4 379/2/4 380/2/4
f 380/2/4 379/2/4 381/2/4
f 382/2/4 383/2/4 386/2/4
f 386/2/4 383/2/4 387/2/4
f 384/2/4 385/2/4 388/2/4
f 388/2/4 385/2/4 389/2/4
f 390/2/4 391/2/4 394/2/4
f 394/2/4 391/2/4 395/2/4
f 392/2/4 393/2/4 396/2/4
f 396/2/4 393/2/4 397/2/4
f 398/1/4 399/1/4 400/1/4
f 400/1/4 399/1/4 401/1/4
f 402/2/4 403/2/4 404/2/4
f 404/2/4 403/2/4 405/2/4
f 406/2/4 407/2/4 408/2/4
f 408/2/4 407/2/4 409/2/4
f 410/2/4 411/2/4 412/2/4
f 412/2/4 411/2/4 413/2/4
f 414/2/4 415/2/4 416/2/4
f 416/2/4 415/2/4 417/2/4
f 418/2/4 419/2/4 422/2/4
f 422/2/4 419/2/4 423/2/4
f 420/1/4 421/1/4 424/1/4
f 424/1/4 421/1/4 425/1/4
f 426/2/4 427/2/4 428/2/4
f 428/2/4 427/2/4 429/2/4
f 430/1/4 431/1/4 432/1/4
f 432/1/4 431/1/4 433/1/4
f 434/2/4 435/2/4 436/2/4
f 436/2/4 435/2/4 437/2/4
f 437/2/4 435/2/4 438/2/4
f 437/1/4 438/1/4 440/1/4
f 440/1/4 438/1/4 441/1/4
f 439/2/4 440/2/4 442/2/4
f 440/2/4 441/2/4 442/2/4
f 442/2/4 441/2/4 443/2/4
f 444/2/4 445/2/4 448/2/4
f 448/2/4 445/2/4 449/2/4
f 446/2/4 447/2/4 450/2/4
f 450/2/4 447/2/4 451/2/4
f 450/1/4 451/1/4 454/1/4
f 454/1/4 451/1/4 455/1/4
f 452/2/4 453/2/4 456/2/4
f 456/2/4 453/2/4 457/2/4
f 454/2/4 455/2/4 458/2/4
f 458/2/4 455/2/4 459/2/4
f 460/2/4 461/2/4 464/2/4
f 464/2/4 461/2/4 465/2/4
f 462/2/4 463/2/4 466/2/4
f 466/2/4 463/2/4 467/2/4
f 466/1/4 467/1/4 470/1/4
f 470/1/4 467/1/4 471/1/4
f 468/2/4 469/2/4 472/2/4
f 472/2/4 469/2/4 473/2/4
f 470/2/4 471/2/4 474/2/4
f 474/2/4 471/2/4 475/2/4
f 476/1/4 477/1/4 478/1/4
f 478/1/4 477/1/4 479/1/4
f 480/2/4 481/2/4 482/2/4
f 482/2/4 481/2/4 483/2/4
f 484/2/4 485/2/4 486/2/4
f 486/2/4 485/2/4 487/2/4
f 492/2/5 489/2/5 488/2/5
f 493/2/5 489/2/5 492/2/5
f 494/2/5 491/2/5 490/2/5
f 495/2/5 491/2/5 494/2/5
f 500/2/5 497/2/5 496/2/5
f 501/2/5 497/2/5 500/2/5
f 502/2/5 499/2/5 498/2/5
f 503/2/5 499/2/5 502/2/5
f 508/2/5 505/2/5 504/2/5
f 509/2/5 505/2/5 508/2/5
f 510/2/5 507/2/5 506/2/5
f 511/2/5 507/2/5 510/2/5
f 516/2/5 513/2/5 512/2/5
f 517/2/5 513/2/5 516/2/5
f 518/2/5 515/2/5 514/2/5
f 519/2/5 515/2/5 518/2/5
f 524/2/5 521/2/5 520/2/5
f 525/2/5 521/2/5 524/2/5
f 526/2/5 523/2/5 522/2/5
f 527/2/5 523/2/5 526/2/5
f 530/2/5 529/2/5 528/2/5
f 531/2/5 529/2/5 530/2/5
f 536/2/5 533/2/5 532/2/5
f 536/1/5 534/1/5 533/1/5
f 537/2/5 535/2/5 534/2/5
f 537/1/5 534/1/5 536/1/5
f 538/2/5 536/2/5 532/2/5
f 539/2/5 535/2/5 537/2/5
f 540/2/5 538/2/5 532/2/5
f 540/1/5 539/1/5 538/1/5
f 541/2/5 535/2/5 539/2/5
f 541/1/5 539/1/5 540/1/5
f 542/2/5 540/2/5 532/2/5
f 543/2/5 535/2/5 541/2/5
f 544/2/5 535/2/5 543/2/5
f 545/2/5 542/2/5 532/2/5
f 546/1/5 543/1/5 542/1/5
f 546/2/5 542/2/5 545/2/5
f 547/1/5 543/1/5 546/1/5
f 552/2/5 549/2/5 548/2/5
f 553/2/5 549/2/5 552/2/5
f 554/2/5 551/2/5 550/2/5
f 555/2/5 551/2/5 554/2/5
f 558/1/5 557/1/5 556/1/5
f 559/1/5 557/1/5 558/1/5
f 564/2/5 561/2/5 560/2/5
f 565/2/5 561/2/5 564/2/5
f 566/2/5 563/2/5 562/2/5
f 567/2/5 563/2/5 566/2/5
f 572/2/5 569/2/5 568/2/5
f 573/1/5 570/1/5 569/1/5
f 573/2/5 569/2/5 572/2/5
f 574/2/5 571/2/5 570/2/5
f 574/1/5 570/1/5 573/1/5
f 575/2/5 571/2/5 574/2/5
f 580/2/5 577/2/5 576/2/5
f 581/1/5 578/1/5 577/1/5
f 581/2/5 577/2/5 580/2/5
f 582/2/5 579/2/5 578/2/5
f 582/1/5 578/1/5 581/1/5
f 583/2/5 579/2/5 582/2/5
f 588/2/5 585/2/5 584/2/5
f 589/2/5 585/2/5 588/2/5
f 590/2/5 587/2/5 586/2/5
f 591/2/5 587/2/5 590/2/5
f 596/2/5 593/2/5 592/2/5
f 597/1/5 594/1/5 593/1/5
f 597/2/5 593/2/5 596/2/5
f 598/2/5 595/2/5 594/2/5
f 598/1/5 594/1/5 597/1/5
f 599/2/5 595/2/5 598/2/5
f 600/2/6 601/2/6 604/2/6
f 604/2/6 601/2/6 605/2/6
f 602/2/6 603/2/6 606/2/6
f 606/2/6 603/2/6 607/2/6
f 608/2/6 609/2/6 612/2/6
f 612/2/6 609/2/6 613/2/6
f 610/2/6 611/2/6 614/2/6
f 614/2/6 611/2/6 615/2/6
f 616/2/6 617/2/6 620/2/6
f 620/2/6 617/2/6 621/2/6
f 618/2/6 619/2/6 622/2/6
f 622/2/6 619/2/6 623/2/6
f 624/2/6 625/2/6 628/2/6
f 628/2/6 625/2/6 629/2/6
f 626/2/6 627/2/6 630/2/6
f 630/2/6 627/2/6 631/2/6
f 632/2/6 633/2/6 636/2/6
f 636/2/6 633/2/6 637/2/6
f 634/2/6 635/2/6 638/2/6
f 638/2/6 635/2/6 639/2/6
f 640/1/6 641/1/6 643/1/6
f 643/1/6 641/1/6 644/1/6
f 642/2/6 643/2/6 646/2/6
f 643/1/6 644/1/6 647/1/6
f 646/2/6 643/2/6 647/2/6
f 644/2/6 645/2/6 648/2/6
f 647/1/6 644/1/6 648/1/6
f 648/2/6 645/2/6 649/2/6
f 650/2/6 651/2/6 654/2/6
f 651/1/6 652/1/6 655/1/6
f 654/2/6 651/2/6 655/2/6
f 652/2/6 653/2/6 656/2/6
f 655/1/6 652/1/6 656/1/6
f 656/2/6 653/2/6 657/2/6
f 658/2/6 659/2/6 662/2/6
f 662/2/6 659/2/6 663/2/6
f 660/2/6 661/2/6 664/2/6
f 664/2/6 661/2/6 665/2/6
f 666/2/6 667/2/6 670/2/6
f 670/2/6 667/2/6 671/2/6
f 668/2/6 669/2/6 672/2/6
f 672/2/6 669/2/6 673/2/6
f 671/1/6 672/1/6 674/1/6
f 674/1/6 672/1/6 675/1/6
f 676/2/6 677/2/6 680/2/6
f 680/2/6 677/2/6 681/2/6
f 678/2/6 679/2/6 682/2/6
f 682/2/6 679/2/6 683/2/6
f 684/2/6 685/2/6 688/2/6
f 688/2/6 685/2/6 689/2/6
f 686/2/6 687/2/6 690/2/6
f 690/2/6 687/2/6 691/2/6
f 692/2/6 693/2/6 696/2/6
f 696/2/6 693/2/6 697/2/6
f 694/2/6 695/2/6 698/2/6
f 698/2/6 695/2/6 699/2/6
f 700/2/6 701/2/6 704/2/6
f 704/2/6 701/2/6 705/2/6
f 702/2/6 703/2/6 706/2/6
f 706/2/6 703/2/6 707/2/6
f 708/2/6 709/2/6 712/2/6
f 709/1/6 710/1/6 713/1/6
f 712/2/6 709/2/6 713/2/6
f 710/2/6 711/2/6 714/2/6
f 713/1/6 710/1/6 714/1/6
f 714/2/6 711/2/6 715/2/6
f 716/1/6 717/1/6 718/1/6
f 718/1/6 717/1/6 719/1/6
f 720/2/6 721/2/6 724/2/6
f 724/2/6 721/2/6 725/2/6
f 722/2/6 723/2/6 726/2/6
f 726/2/6 723/2/6 727/2/6
f 725/1/6 726/1/6 728/1/6
f 728/1/6 726/1/6 729/1/6
f 730/2/6 731/2/6 734/2/6
f 734/2/6 731/2/6 735/2/6
f 732/2/6 733/2/6 736/2/6
f 736/2/6 733/2/6 737/2/6
f 735/1/6 736/1/6 738/1/6
f 738/1/6 736/1/6 739/1/6
f 740/2/6 741/2/6 744/2/6
f 744/2/6 741/2/6 745/2/6
f 742/2/6 743/2/6 746/2/6
f 746/2/6 743/2/6 747/2/6
