# MagicaVoxel @ Ephtracy

# group
o 

# material
mtllib drzewko-91.mtl
usemtl palette

# normals
vn 1 0 0
vn -1 0 0
vn 0 0 1
vn 0 0 -1
vn 0 -1 0
vn 0 1 0

# texcoords
vt 0.595703 0.5
vt 0.599609 0.5

# verts
v 2.7 6.2 2.7
v 2.7 6.2 2.2
v 2.7 6.7 2.7
v 2.7 6.7 2.2
v 2.6 6.6 2.8
v 2.6 6.6 2.7
v 2.6 6.7 2.8
v 2.6 6.7 2.7
v 2.6 6.7 2.4
v 2.6 6.7 2.2
v 2.6 6.8 2.4
v 2.6 6.8 2.2
v 2.6 6.8 2.1
v 2.6 6.9 3
v 2.6 6.9 2.9
v 2.6 6.9 2.2
v 2.6 6.9 2.1
v 2.6 7 3
v 2.6 7 2.9
v 2.5 6.5 2.8
v 2.5 6.5 2.7
v 2.5 6.6 2.8
v 2.5 6.6 2.7
v 2.5 6.6 2.6
v 2.5 6.6 2.3
v 2.5 6.7 2.6
v 2.5 6.7 2.4
v 2.5 6.7 2.3
v 2.5 6.7 2.2
v 2.5 6.7 2.1
v 2.5 6.8 3
v 2.5 6.8 2.9
v 2.5 6.8 2.7
v 2.5 6.8 2.6
v 2.5 6.8 2.5
v 2.5 6.8 2.4
v 2.5 6.8 2.2
v 2.5 6.8 2.1
v 2.5 6.9 3
v 2.5 6.9 2.9
v 2.5 6.9 2.6
v 2.5 6.9 2.5
v 2.5 6.9 2.2
v 2.5 7 2.9
v 2.5 7 2.7
v 2.5 7 2.6
v 2.5 7 2.4
v 2.5 7 2.2
v 2.5 7.1 2.9
v 2.5 7.1 2.7
v 2.4 6.7 3.1
v 2.4 6.7 2.9
v 2.4 6.8 3.1
v 2.4 6.8 3
v 2.4 6.8 2.9
v 2.3 6.5 2.6
v 2.3 6.5 2.5
v 2.3 6.6 2.5
v 2.3 6.6 2.3
v 2.3 6.7 2.6
v 2.3 6.7 2.4
v 2.3 6.7 2.3
v 2.3 6.7 2.2
v 2.3 6.8 2.3
v 2.3 6.8 2.2
v 2.6 6.6 2.6
v 2.6 6.6 2.3
v 2.6 6.7 2.6
v 2.6 6.7 2.4
v 2.6 6.7 2.3
v 2.5 6.8 2.2
v 2.5 6.8 2.1
v 2.5 6.9 2.2
v 2.5 6.9 2.1
v 2.4 6.5 2.8
v 2.4 6.5 2.7
v 2.4 6.5 2.6
v 2.4 6.5 2.5
v 2.4 6.6 2.8
v 2.4 6.6 2.7
v 2.4 6.6 2.5
v 2.4 6.6 2.3
v 2.4 6.7 2.6
v 2.4 6.7 2.4
v 2.4 6.7 2.3
v 2.4 6.7 2.2
v 2.4 6.8 2.7
v 2.4 6.8 2.6
v 2.4 6.8 2.5
v 2.4 6.8 2.4
v 2.4 6.8 2.3
v 2.4 6.8 2.2
v 2.4 6.9 3
v 2.4 6.9 2.9
v 2.4 6.9 2.6
v 2.4 6.9 2.5
v 2.4 7 3
v 2.4 7 2.9
v 2.4 7 2.7
v 2.4 7 2.6
v 2.4 7 2.4
v 2.4 7 2.2
v 2.4 7.1 2.9
v 2.4 7.1 2.7
v 2.3 6.6 2.8
v 2.3 6.6 2.7
v 2.3 6.7 3
v 2.3 6.7 2.9
v 2.3 6.7 2.8
v 2.3 6.7 2.7
v 2.3 6.7 2.4
v 2.3 6.7 2.3
v 2.3 6.7 2.2
v 2.3 6.7 2.1
v 2.3 6.8 3
v 2.3 6.8 2.4
v 2.3 6.8 2.3
v 2.3 6.8 2.2
v 2.3 6.8 2.1
v 2.3 6.9 3
v 2.3 6.9 2.9
v 2.2 6.2 2.7
v 2.2 6.2 2.2
v 2.2 6.7 3.1
v 2.2 6.7 3
v 2.2 6.7 2.7
v 2.2 6.7 2.3
v 2.2 6.7 2.2
v 2.2 6.8 3.1
v 2.2 6.8 3
v 2.2 6.8 2.3
v 2.2 6.8 2.2
v 2.4 6.7 3.1
v 2.4 6.8 3.1
v 2.2 6.7 3.1
v 2.2 6.8 3.1
v 2.6 6.9 3
v 2.6 7 3
v 2.5 6.8 3
v 2.5 6.9 3
v 2.4 6.8 3
v 2.4 6.9 3
v 2.4 7 3
v 2.3 6.8 3
v 2.3 6.9 3
v 2.5 7 2.9
v 2.5 7.1 2.9
v 2.4 7 2.9
v 2.4 7.1 2.9
v 2.6 6.6 2.8
v 2.6 6.7 2.8
v 2.5 6.5 2.8
v 2.5 6.6 2.8
v 2.4 6.5 2.8
v 2.4 6.6 2.8
v 2.3 6.6 2.8
v 2.3 6.7 2.8
v 2.7 6.2 2.7
v 2.7 6.7 2.7
v 2.6 6.6 2.7
v 2.6 6.7 2.7
v 2.5 6.5 2.7
v 2.5 6.6 2.7
v 2.5 6.8 2.7
v 2.5 7 2.7
v 2.4 6.5 2.7
v 2.4 6.6 2.7
v 2.4 6.8 2.7
v 2.4 7 2.7
v 2.3 6.6 2.7
v 2.3 6.7 2.7
v 2.2 6.2 2.7
v 2.2 6.7 2.7
v 2.5 6.7 2.6
v 2.5 6.8 2.6
v 2.4 6.7 2.6
v 2.4 6.8 2.6
v 2.4 6.5 2.5
v 2.4 6.6 2.5
v 2.3 6.5 2.5
v 2.3 6.6 2.5
v 2.6 6.7 2.4
v 2.6 6.8 2.4
v 2.5 6.7 2.4
v 2.5 6.8 2.4
v 2.5 7 2.4
v 2.4 6.7 2.4
v 2.4 6.8 2.4
v 2.4 7 2.4
v 2.3 6.7 2.4
v 2.3 6.8 2.4
v 2.6 6.6 2.3
v 2.6 6.7 2.3
v 2.5 6.6 2.3
v 2.5 6.7 2.3
v 2.4 6.6 2.3
v 2.4 6.7 2.3
v 2.3 6.6 2.3
v 2.3 6.7 2.3
v 2.3 6.8 2.3
v 2.2 6.7 2.3
v 2.2 6.8 2.3
v 2.6 6.8 2.2
v 2.6 6.9 2.2
v 2.5 6.8 2.2
v 2.5 6.9 2.2
v 2.4 6.7 2.2
v 2.4 6.8 2.2
v 2.3 6.7 2.2
v 2.3 6.8 2.2
v 2.3 6.7 3
v 2.3 6.8 3
v 2.2 6.7 3
v 2.2 6.8 3
v 2.6 6.9 2.9
v 2.6 7 2.9
v 2.5 6.8 2.9
v 2.5 6.9 2.9
v 2.5 7 2.9
v 2.4 6.7 2.9
v 2.4 6.8 2.9
v 2.4 6.9 2.9
v 2.4 7 2.9
v 2.3 6.7 2.9
v 2.3 6.9 2.9
v 2.5 7 2.7
v 2.5 7.1 2.7
v 2.4 7 2.7
v 2.4 7.1 2.7
v 2.6 6.6 2.6
v 2.6 6.7 2.6
v 2.5 6.6 2.6
v 2.5 6.7 2.6
v 2.5 6.9 2.6
v 2.5 7 2.6
v 2.4 6.5 2.6
v 2.4 6.7 2.6
v 2.4 6.9 2.6
v 2.4 7 2.6
v 2.3 6.5 2.6
v 2.3 6.7 2.6
v 2.5 6.8 2.5
v 2.5 6.9 2.5
v 2.4 6.8 2.5
v 2.4 6.9 2.5
v 2.4 6.7 2.3
v 2.4 6.8 2.3
v 2.3 6.7 2.3
v 2.3 6.8 2.3
v 2.7 6.2 2.2
v 2.7 6.7 2.2
v 2.6 6.7 2.2
v 2.6 6.8 2.2
v 2.5 6.7 2.2
v 2.5 6.8 2.2
v 2.5 6.9 2.2
v 2.5 7 2.2
v 2.4 6.8 2.2
v 2.4 7 2.2
v 2.3 6.7 2.2
v 2.3 6.8 2.2
v 2.2 6.2 2.2
v 2.2 6.7 2.2
v 2.2 6.8 2.2
v 2.6 6.8 2.1
v 2.6 6.9 2.1
v 2.5 6.7 2.1
v 2.5 6.8 2.1
v 2.5 6.9 2.1
v 2.3 6.7 2.1
v 2.3 6.8 2.1
v 2.7 6.2 2.7
v 2.2 6.2 2.7
v 2.7 6.2 2.2
v 2.2 6.2 2.2
v 2.5 6.5 2.8
v 2.4 6.5 2.8
v 2.5 6.5 2.7
v 2.4 6.5 2.7
v 2.6 6.6 2.8
v 2.5 6.6 2.8
v 2.4 6.6 2.8
v 2.3 6.6 2.8
v 2.6 6.6 2.7
v 2.5 6.6 2.7
v 2.4 6.6 2.7
v 2.3 6.6 2.7
v 2.4 6.7 3.1
v 2.2 6.7 3.1
v 2.3 6.7 3
v 2.2 6.7 3
v 2.4 6.7 2.9
v 2.3 6.7 2.9
v 2.6 6.7 2.4
v 2.5 6.7 2.4
v 2.4 6.7 2.4
v 2.3 6.7 2.4
v 2.6 6.7 2.3
v 2.5 6.7 2.3
v 2.4 6.7 2.3
v 2.3 6.7 2.3
v 2.5 6.7 2.2
v 2.3 6.7 2.2
v 2.5 6.7 2.1
v 2.3 6.7 2.1
v 2.5 6.8 3
v 2.4 6.8 3
v 2.5 6.8 2.9
v 2.4 6.8 2.9
v 2.5 6.8 2.7
v 2.4 6.8 2.7
v 2.5 6.8 2.6
v 2.4 6.8 2.6
v 2.6 6.8 2.2
v 2.5 6.8 2.2
v 2.6 6.8 2.1
v 2.5 6.8 2.1
v 2.6 6.9 3
v 2.5 6.9 3
v 2.6 6.9 2.9
v 2.5 6.9 2.9
v 2.5 7 2.9
v 2.4 7 2.9
v 2.5 7 2.7
v 2.4 7 2.7
v 2.4 6.5 2.6
v 2.3 6.5 2.6
v 2.4 6.5 2.5
v 2.3 6.5 2.5
v 2.6 6.6 2.6
v 2.5 6.6 2.6
v 2.4 6.6 2.5
v 2.3 6.6 2.5
v 2.6 6.6 2.3
v 2.5 6.6 2.3
v 2.4 6.6 2.3
v 2.3 6.6 2.3
v 2.6 6.7 2.8
v 2.3 6.7 2.8
v 2.7 6.7 2.7
v 2.6 6.7 2.7
v 2.3 6.7 2.7
v 2.2 6.7 2.7
v 2.6 6.7 2.6
v 2.5 6.7 2.6
v 2.4 6.7 2.6
v 2.3 6.7 2.6
v 2.6 6.7 2.4
v 2.3 6.7 2.4
v 2.4 6.7 2.3
v 2.3 6.7 2.3
v 2.2 6.7 2.3
v 2.7 6.7 2.2
v 2.6 6.7 2.2
v 2.4 6.7 2.2
v 2.3 6.7 2.2
v 2.4 6.8 3.1
v 2.2 6.8 3.1
v 2.4 6.8 3
v 2.3 6.8 3
v 2.2 6.8 3
v 2.5 6.8 2.5
v 2.4 6.8 2.5
v 2.6 6.8 2.4
v 2.5 6.8 2.4
v 2.4 6.8 2.4
v 2.3 6.8 2.4
v 2.4 6.8 2.3
v 2.3 6.8 2.3
v 2.2 6.8 2.3
v 2.6 6.8 2.2
v 2.5 6.8 2.2
v 2.4 6.8 2.2
v 2.3 6.8 2.2
v 2.2 6.8 2.2
v 2.5 6.8 2.1
v 2.3 6.8 2.1
v 2.4 6.9 3
v 2.3 6.9 3
v 2.4 6.9 2.9
v 2.3 6.9 2.9
v 2.5 6.9 2.6
v 2.4 6.9 2.6
v 2.5 6.9 2.5
v 2.4 6.9 2.5
v 2.6 6.9 2.2
v 2.5 6.9 2.2
v 2.6 6.9 2.1
v 2.5 6.9 2.1
v 2.6 7 3
v 2.4 7 3
v 2.6 7 2.9
v 2.5 7 2.9
v 2.4 7 2.9
v 2.5 7 2.7
v 2.4 7 2.7
v 2.5 7 2.6
v 2.4 7 2.6
v 2.5 7 2.4
v 2.4 7 2.4
v 2.5 7 2.2
v 2.4 7 2.2
v 2.5 7.1 2.9
v 2.4 7.1 2.9
v 2.5 7.1 2.7
v 2.4 7.1 2.7

# faces
f 1/1/1 2/1/1 3/1/1
f 3/1/1 2/1/1 4/1/1
f 5/2/1 6/2/1 7/2/1
f 7/2/1 6/2/1 8/2/1
f 9/2/1 10/2/1 11/2/1
f 11/2/1 10/2/1 12/2/1
f 12/2/1 13/2/1 16/2/1
f 16/2/1 13/2/1 17/2/1
f 14/2/1 15/2/1 18/2/1
f 18/2/1 15/2/1 19/2/1
f 20/2/1 21/2/1 22/2/1
f 22/2/1 21/2/1 23/2/1
f 24/2/1 25/2/1 26/2/1
f 26/2/1 25/2/1 27/2/1
f 27/2/1 25/2/1 28/2/1
f 26/2/1 27/2/1 34/2/1
f 34/2/1 27/2/1 35/2/1
f 35/2/1 27/2/1 36/2/1
f 29/2/1 30/2/1 37/2/1
f 37/2/1 30/2/1 38/2/1
f 31/2/1 32/2/1 39/2/1
f 39/2/1 32/2/1 40/2/1
f 33/2/1 34/2/1 41/2/1
f 34/2/1 35/2/1 41/2/1
f 41/2/1 35/2/1 42/2/1
f 36/2/1 37/2/1 43/2/1
f 33/2/1 41/2/1 45/2/1
f 45/2/1 41/2/1 46/2/1
f 36/2/1 43/2/1 47/2/1
f 47/2/1 43/2/1 48/2/1
f 44/2/1 45/2/1 49/2/1
f 49/2/1 45/2/1 50/2/1
f 51/2/1 52/2/1 53/2/1
f 53/2/1 52/2/1 54/2/1
f 54/2/1 52/2/1 55/2/1
f 56/1/1 57/1/1 58/1/1
f 56/1/1 58/1/1 60/1/1
f 58/1/1 59/1/1 60/1/1
f 60/1/1 59/1/1 61/1/1
f 61/1/1 59/1/1 62/1/1
f 62/2/1 63/2/1 64/2/1
f 64/2/1 63/2/1 65/2/1
f 68/1/2 67/1/2 66/1/2
f 69/1/2 67/1/2 68/1/2
f 70/1/2 67/1/2 69/1/2
f 73/2/2 72/2/2 71/2/2
f 74/2/2 72/2/2 73/2/2
f 79/2/2 76/2/2 75/2/2
f 80/2/2 76/2/2 79/2/2
f 81/2/2 78/2/2 77/2/2
f 83/2/2 82/2/2 81/2/2
f 83/2/2 81/2/2 77/2/2
f 84/2/2 82/2/2 83/2/2
f 85/2/2 82/2/2 84/2/2
f 88/2/2 84/2/2 83/2/2
f 89/2/2 84/2/2 88/2/2
f 90/2/2 84/2/2 89/2/2
f 91/2/2 86/2/2 85/2/2
f 92/2/2 86/2/2 91/2/2
f 95/2/2 88/2/2 87/2/2
f 95/2/2 89/2/2 88/2/2
f 96/2/2 89/2/2 95/2/2
f 97/2/2 94/2/2 93/2/2
f 98/2/2 94/2/2 97/2/2
f 99/2/2 95/2/2 87/2/2
f 100/2/2 95/2/2 99/2/2
f 101/2/2 92/2/2 91/2/2
f 101/2/2 91/2/2 90/2/2
f 102/2/2 92/2/2 101/2/2
f 103/2/2 99/2/2 98/2/2
f 104/2/2 99/2/2 103/2/2
f 109/2/2 106/2/2 105/2/2
f 110/2/2 106/2/2 109/2/2
f 115/2/2 108/2/2 107/2/2
f 116/2/2 112/2/2 111/2/2
f 117/2/2 112/2/2 116/2/2
f 118/2/2 114/2/2 113/2/2
f 119/2/2 114/2/2 118/2/2
f 120/2/2 108/2/2 115/2/2
f 121/2/2 108/2/2 120/2/2
f 126/1/2 123/1/2 122/1/2
f 127/1/2 123/1/2 126/1/2
f 128/1/2 123/1/2 127/1/2
f 129/2/2 125/2/2 124/2/2
f 130/2/2 125/2/2 129/2/2
f 131/2/2 128/2/2 127/2/2
f 132/2/2 128/2/2 131/2/2
f 133/2/3 134/2/3 135/2/3
f 135/2/3 134/2/3 136/2/3
f 137/2/3 138/2/3 140/2/3
f 139/2/3 140/2/3 141/2/3
f 140/2/3 138/2/3 142/2/3
f 141/2/3 140/2/3 142/2/3
f 142/2/3 138/2/3 143/2/3
f 141/2/3 142/2/3 144/2/3
f 144/2/3 142/2/3 145/2/3
f 146/2/3 147/2/3 148/2/3
f 148/2/3 147/2/3 149/2/3
f 150/2/3 151/2/3 153/2/3
f 152/2/3 153/2/3 154/2/3
f 153/2/3 151/2/3 155/2/3
f 154/2/3 153/2/3 155/2/3
f 155/2/3 151/2/3 156/2/3
f 156/2/3 151/2/3 157/2/3
f 158/1/3 159/1/3 160/1/3
f 160/1/3 159/1/3 161/1/3
f 158/1/3 160/1/3 162/1/3
f 162/1/3 160/1/3 163/1/3
f 158/1/3 162/1/3 166/1/3
f 164/2/3 165/2/3 168/2/3
f 168/2/3 165/2/3 169/2/3
f 166/1/3 167/1/3 170/1/3
f 158/1/3 166/1/3 172/1/3
f 170/1/3 171/1/3 172/1/3
f 166/1/3 170/1/3 172/1/3
f 172/1/3 171/1/3 173/1/3
f 174/2/3 175/2/3 176/2/3
f 176/2/3 175/2/3 177/2/3
f 178/2/3 179/2/3 180/2/3
f 180/2/3 179/2/3 181/2/3
f 182/2/3 183/2/3 184/2/3
f 184/2/3 183/2/3 185/2/3
f 185/2/3 186/2/3 188/2/3
f 188/2/3 186/2/3 189/2/3
f 187/2/3 188/2/3 190/2/3
f 190/2/3 188/2/3 191/2/3
f 192/1/3 193/1/3 194/1/3
f 194/1/3 193/1/3 195/1/3
f 196/1/3 197/1/3 198/1/3
f 198/1/3 197/1/3 199/1/3
f 199/2/3 200/2/3 201/2/3
f 201/2/3 200/2/3 202/2/3
f 203/2/3 204/2/3 205/2/3
f 205/2/3 204/2/3 206/2/3
f 207/2/3 208/2/3 209/2/3
f 209/2/3 208/2/3 210/2/3
f 213/2/4 212/2/4 211/2/4
f 214/2/4 212/2/4 213/2/4
f 218/2/4 216/2/4 215/2/4
f 219/2/4 216/2/4 218/2/4
f 221/2/4 218/2/4 217/2/4
f 221/2/4 219/2/4 218/2/4
f 222/2/4 219/2/4 221/2/4
f 223/2/4 219/2/4 222/2/4
f 224/2/4 221/2/4 220/2/4
f 224/2/4 222/2/4 221/2/4
f 225/2/4 222/2/4 224/2/4
f 228/2/4 227/2/4 226/2/4
f 229/2/4 227/2/4 228/2/4
f 232/1/4 231/1/4 230/1/4
f 233/1/4 231/1/4 232/1/4
f 238/2/4 235/2/4 234/2/4
f 239/2/4 235/2/4 238/2/4
f 240/1/4 237/1/4 236/1/4
f 241/1/4 237/1/4 240/1/4
f 244/2/4 243/2/4 242/2/4
f 245/2/4 243/2/4 244/2/4
f 248/2/4 247/2/4 246/2/4
f 249/2/4 247/2/4 248/2/4
f 252/1/4 251/1/4 250/1/4
f 254/1/4 252/1/4 250/1/4
f 254/2/4 253/2/4 252/2/4
f 255/2/4 253/2/4 254/2/4
f 258/2/4 257/2/4 256/2/4
f 258/2/4 256/2/4 255/2/4
f 259/2/4 257/2/4 258/2/4
f 260/1/4 254/1/4 250/1/4
f 262/1/4 260/1/4 250/1/4
f 263/2/4 261/2/4 260/2/4
f 263/1/4 260/1/4 262/1/4
f 264/2/4 261/2/4 263/2/4
f 268/2/4 266/2/4 265/2/4
f 269/2/4 266/2/4 268/2/4
f 270/2/4 268/2/4 267/2/4
f 271/2/4 268/2/4 270/2/4
f 272/1/5 273/1/5 274/1/5
f 274/1/5 273/1/5 275/1/5
f 276/2/5 277/2/5 278/2/5
f 278/2/5 277/2/5 279/2/5
f 280/2/5 281/2/5 284/2/5
f 284/2/5 281/2/5 285/2/5
f 282/2/5 283/2/5 286/2/5
f 286/2/5 283/2/5 287/2/5
f 288/2/5 289/2/5 290/2/5
f 290/2/5 289/2/5 291/2/5
f 288/2/5 290/2/5 292/2/5
f 292/2/5 290/2/5 293/2/5
f 294/2/5 295/2/5 298/2/5
f 298/2/5 295/2/5 299/2/5
f 296/2/5 297/2/5 300/2/5
f 300/2/5 297/2/5 301/2/5
f 302/2/5 303/2/5 304/2/5
f 304/2/5 303/2/5 305/2/5
f 306/2/5 307/2/5 308/2/5
f 308/2/5 307/2/5 309/2/5
f 310/2/5 311/2/5 312/2/5
f 312/2/5 311/2/5 313/2/5
f 314/2/5 315/2/5 316/2/5
f 316/2/5 315/2/5 317/2/5
f 318/2/5 319/2/5 320/2/5
f 320/2/5 319/2/5 321/2/5
f 322/2/5 323/2/5 324/2/5
f 324/2/5 323/2/5 325/2/5
f 328/1/6 327/1/6 326/1/6
f 329/1/6 327/1/6 328/1/6
f 334/2/6 331/2/6 330/2/6
f 335/2/6 331/2/6 334/2/6
f 336/2/6 333/2/6 332/2/6
f 337/2/6 333/2/6 336/2/6
f 341/2/6 339/2/6 338/2/6
f 342/2/6 339/2/6 341/2/6
f 344/1/6 341/1/6 340/1/6
f 344/1/6 343/1/6 342/1/6
f 344/1/6 342/1/6 341/1/6
f 345/1/6 343/1/6 344/1/6
f 346/1/6 343/1/6 345/1/6
f 347/1/6 343/1/6 346/1/6
f 348/1/6 344/1/6 340/1/6
f 349/1/6 343/1/6 347/1/6
f 351/1/6 343/1/6 349/1/6
f 352/1/6 343/1/6 351/1/6
f 353/1/6 348/1/6 340/1/6
f 354/1/6 348/1/6 353/1/6
f 355/1/6 351/1/6 350/1/6
f 356/1/6 351/1/6 355/1/6
f 359/2/6 358/2/6 357/2/6
f 360/2/6 358/2/6 359/2/6
f 361/2/6 358/2/6 360/2/6
f 365/2/6 363/2/6 362/2/6
f 366/2/6 363/2/6 365/2/6
f 368/2/6 367/2/6 366/2/6
f 369/2/6 367/2/6 368/2/6
f 371/2/6 365/2/6 364/2/6
f 372/2/6 365/2/6 371/2/6
f 374/2/6 370/2/6 369/2/6
f 375/2/6 370/2/6 374/2/6
f 376/2/6 373/2/6 372/2/6
f 376/2/6 374/2/6 373/2/6
f 377/2/6 374/2/6 376/2/6
f 380/2/6 379/2/6 378/2/6
f 381/2/6 379/2/6 380/2/6
f 384/2/6 383/2/6 382/2/6
f 385/2/6 383/2/6 384/2/6
f 388/2/6 387/2/6 386/2/6
f 389/2/6 387/2/6 388/2/6
f 392/2/6 391/2/6 390/2/6
f 393/2/6 391/2/6 392/2/6
f 394/2/6 391/2/6 393/2/6
f 397/2/6 396/2/6 395/2/6
f 398/2/6 396/2/6 397/2/6
f 401/2/6 400/2/6 399/2/6
f 402/2/6 400/2/6 401/2/6
f 405/2/6 404/2/6 403/2/6
f 406/2/6 404/2/6 405/2/6
