# MagicaVoxel @ Ephtracy

# group
o 

# material
mtllib drzewko-84.mtl
usemtl palette

# normals
vn -1 0 0
vn 1 0 0
vn 0 0 1
vn 0 0 -1
vn 0 -1 0
vn 0 1 0

# texcoords
vt 0.783203 0.5
vt 0.787109 0.5
vt 0.951172 0.5
vt 0.955078 0.5

# verts
v 25 4.7 -2.9
v 25 4.7 -3
v 25 5.2 -2.9
v 25 5.2 -3
v 25.1 4.5 -2.9
v 25.1 4.5 -3
v 25.1 4.7 -2.9
v 25.1 4.7 -3
v 25.1 5.2 -2.9
v 25.1 5.2 -3
v 25.1 5.4 -2.9
v 25.1 5.4 -3
v 25.2 4.4 -2.9
v 25.2 4.4 -3
v 25.2 4.5 -2.9
v 25.2 4.5 -3
v 25.2 5.4 -2.9
v 25.2 5.4 -3
v 25.2 5.5 -2.9
v 25.2 5.5 -3
v 25.3 4.3 -2.9
v 25.3 4.3 -3
v 25.3 4.4 -2.9
v 25.3 4.4 -3
v 25.3 5.5 -2.9
v 25.3 5.5 -3
v 25.3 5.6 -2.9
v 25.3 5.6 -3
v 25.4 4.2 -2.9
v 25.4 4.2 -3
v 25.4 4.3 -2.9
v 25.4 4.3 -3
v 25.4 5.6 -2.9
v 25.4 5.6 -3
v 25.4 5.7 -2.9
v 25.4 5.7 -3
v 25.6 4.1 -2.9
v 25.6 4.1 -3
v 25.6 4.2 -2.9
v 25.6 4.2 -3
v 25.6 5.7 -2.9
v 25.6 5.7 -3
v 25.6 5.8 -2.9
v 25.6 5.8 -3
v 25.8 0.7 -2.9
v 25.8 0.7 -3
v 25.8 4.1 -2.9
v 25.8 4.1 -3
v 25.9 0.7 -2.9
v 25.9 0.7 -3
v 25.9 4.1 -2.9
v 25.9 4.1 -3
v 26.1 4.1 -2.9
v 26.1 4.1 -3
v 26.1 4.2 -2.9
v 26.1 4.2 -3
v 26.1 5.7 -2.9
v 26.1 5.7 -3
v 26.1 5.8 -2.9
v 26.1 5.8 -3
v 26.3 4.2 -2.9
v 26.3 4.2 -3
v 26.3 4.3 -2.9
v 26.3 4.3 -3
v 26.3 5.6 -2.9
v 26.3 5.6 -3
v 26.3 5.7 -2.9
v 26.3 5.7 -3
v 26.4 4.3 -2.9
v 26.4 4.3 -3
v 26.4 4.4 -2.9
v 26.4 4.4 -3
v 26.4 5.5 -2.9
v 26.4 5.5 -3
v 26.4 5.6 -2.9
v 26.4 5.6 -3
v 26.5 4.4 -2.9
v 26.5 4.4 -3
v 26.5 4.5 -2.9
v 26.5 4.5 -3
v 26.5 5.4 -2.9
v 26.5 5.4 -3
v 26.5 5.5 -2.9
v 26.5 5.5 -3
v 26.6 4.5 -2.9
v 26.6 4.5 -3
v 26.6 4.7 -2.9
v 26.6 4.7 -3
v 26.6 5.2 -2.9
v 26.6 5.2 -3
v 26.6 5.4 -2.9
v 26.6 5.4 -3
v 26.7 4.7 -2.9
v 26.7 4.7 -3
v 26.7 5.2 -2.9
v 26.7 5.2 -3
v 25 4.7 -2.9
v 25 5.2 -2.9
v 25.1 4.5 -2.9
v 25.1 4.7 -2.9
v 25.1 5.2 -2.9
v 25.1 5.4 -2.9
v 25.2 4.4 -2.9
v 25.2 4.5 -2.9
v 25.2 4.7 -2.9
v 25.2 5.2 -2.9
v 25.2 5.4 -2.9
v 25.2 5.5 -2.9
v 25.3 4.3 -2.9
v 25.3 4.4 -2.9
v 25.3 4.5 -2.9
v 25.3 5.4 -2.9
v 25.3 5.5 -2.9
v 25.3 5.6 -2.9
v 25.4 4.2 -2.9
v 25.4 4.3 -2.9
v 25.4 4.4 -2.9
v 25.4 4.8 -2.9
v 25.4 5.1 -2.9
v 25.4 5.5 -2.9
v 25.4 5.6 -2.9
v 25.4 5.7 -2.9
v 25.6 4.1 -2.9
v 25.6 4.2 -2.9
v 25.6 4.3 -2.9
v 25.6 5.6 -2.9
v 25.6 5.7 -2.9
v 25.6 5.8 -2.9
v 25.8 0.7 -2.9
v 25.8 4.1 -2.9
v 25.9 0.7 -2.9
v 25.9 4.1 -2.9
v 26.1 4.1 -2.9
v 26.1 4.2 -2.9
v 26.1 4.3 -2.9
v 26.1 5.6 -2.9
v 26.1 5.7 -2.9
v 26.1 5.8 -2.9
v 26.3 4.2 -2.9
v 26.3 4.3 -2.9
v 26.3 4.4 -2.9
v 26.3 4.8 -2.9
v 26.3 5.1 -2.9
v 26.3 5.5 -2.9
v 26.3 5.6 -2.9
v 26.3 5.7 -2.9
v 26.4 4.3 -2.9
v 26.4 4.4 -2.9
v 26.4 4.5 -2.9
v 26.4 5.4 -2.9
v 26.4 5.5 -2.9
v 26.4 5.6 -2.9
v 26.5 4.4 -2.9
v 26.5 4.5 -2.9
v 26.5 4.7 -2.9
v 26.5 5.2 -2.9
v 26.5 5.4 -2.9
v 26.5 5.5 -2.9
v 26.6 4.5 -2.9
v 26.6 4.7 -2.9
v 26.6 5.2 -2.9
v 26.6 5.4 -2.9
v 26.7 4.7 -2.9
v 26.7 5.2 -2.9
v 25 4.7 -3
v 25 5.2 -3
v 25.1 4.5 -3
v 25.1 4.7 -3
v 25.1 5.2 -3
v 25.1 5.4 -3
v 25.2 4.4 -3
v 25.2 4.5 -3
v 25.2 4.7 -3
v 25.2 5.2 -3
v 25.2 5.4 -3
v 25.2 5.5 -3
v 25.3 4.3 -3
v 25.3 4.4 -3
v 25.3 4.5 -3
v 25.3 5.4 -3
v 25.3 5.5 -3
v 25.3 5.6 -3
v 25.4 4.2 -3
v 25.4 4.3 -3
v 25.4 4.4 -3
v 25.4 4.8 -3
v 25.4 5.1 -3
v 25.4 5.5 -3
v 25.4 5.6 -3
v 25.4 5.7 -3
v 25.6 4.1 -3
v 25.6 4.2 -3
v 25.6 4.3 -3
v 25.6 5.6 -3
v 25.6 5.7 -3
v 25.6 5.8 -3
v 25.8 0.7 -3
v 25.8 4.1 -3
v 25.9 0.7 -3
v 25.9 4.1 -3
v 26.1 4.1 -3
v 26.1 4.2 -3
v 26.1 4.3 -3
v 26.1 5.6 -3
v 26.1 5.7 -3
v 26.1 5.8 -3
v 26.3 4.2 -3
v 26.3 4.3 -3
v 26.3 4.4 -3
v 26.3 4.8 -3
v 26.3 5.1 -3
v 26.3 5.5 -3
v 26.3 5.6 -3
v 26.3 5.7 -3
v 26.4 4.3 -3
v 26.4 4.4 -3
v 26.4 4.5 -3
v 26.4 5.4 -3
v 26.4 5.5 -3
v 26.4 5.6 -3
v 26.5 4.4 -3
v 26.5 4.5 -3
v 26.5 4.7 -3
v 26.5 5.2 -3
v 26.5 5.4 -3
v 26.5 5.5 -3
v 26.6 4.5 -3
v 26.6 4.7 -3
v 26.6 5.2 -3
v 26.6 5.4 -3
v 26.7 4.7 -3
v 26.7 5.2 -3
v 25.8 0.7 -2.9
v 25.9 0.7 -2.9
v 25.8 0.7 -3
v 25.9 0.7 -3
v 25.6 4.1 -2.9
v 25.8 4.1 -2.9
v 25.9 4.1 -2.9
v 26.1 4.1 -2.9
v 25.6 4.1 -3
v 25.8 4.1 -3
v 25.9 4.1 -3
v 26.1 4.1 -3
v 25.4 4.2 -2.9
v 25.6 4.2 -2.9
v 26.1 4.2 -2.9
v 26.3 4.2 -2.9
v 25.4 4.2 -3
v 25.6 4.2 -3
v 26.1 4.2 -3
v 26.3 4.2 -3
v 25.3 4.3 -2.9
v 25.4 4.3 -2.9
v 26.3 4.3 -2.9
v 26.4 4.3 -2.9
v 25.3 4.3 -3
v 25.4 4.3 -3
v 26.3 4.3 -3
v 26.4 4.3 -3
v 25.2 4.4 -2.9
v 25.3 4.4 -2.9
v 26.4 4.4 -2.9
v 26.5 4.4 -2.9
v 25.2 4.4 -3
v 25.3 4.4 -3
v 26.4 4.4 -3
v 26.5 4.4 -3
v 25.1 4.5 -2.9
v 25.2 4.5 -2.9
v 26.5 4.5 -2.9
v 26.6 4.5 -2.9
v 25.1 4.5 -3
v 25.2 4.5 -3
v 26.5 4.5 -3
v 26.6 4.5 -3
v 25 4.7 -2.9
v 25.1 4.7 -2.9
v 26.6 4.7 -2.9
v 26.7 4.7 -2.9
v 25 4.7 -3
v 25.1 4.7 -3
v 26.6 4.7 -3
v 26.7 4.7 -3
v 25 5.2 -2.9
v 25.1 5.2 -2.9
v 26.6 5.2 -2.9
v 26.7 5.2 -2.9
v 25 5.2 -3
v 25.1 5.2 -3
v 26.6 5.2 -3
v 26.7 5.2 -3
v 25.1 5.4 -2.9
v 25.2 5.4 -2.9
v 26.5 5.4 -2.9
v 26.6 5.4 -2.9
v 25.1 5.4 -3
v 25.2 5.4 -3
v 26.5 5.4 -3
v 26.6 5.4 -3
v 25.2 5.5 -2.9
v 25.3 5.5 -2.9
v 26.4 5.5 -2.9
v 26.5 5.5 -2.9
v 25.2 5.5 -3
v 25.3 5.5 -3
v 26.4 5.5 -3
v 26.5 5.5 -3
v 25.3 5.6 -2.9
v 25.4 5.6 -2.9
v 26.3 5.6 -2.9
v 26.4 5.6 -2.9
v 25.3 5.6 -3
v 25.4 5.6 -3
v 26.3 5.6 -3
v 26.4 5.6 -3
v 25.4 5.7 -2.9
v 25.6 5.7 -2.9
v 26.1 5.7 -2.9
v 26.3 5.7 -2.9
v 25.4 5.7 -3
v 25.6 5.7 -3
v 26.1 5.7 -3
v 26.3 5.7 -3
v 25.6 5.8 -2.9
v 26.1 5.8 -2.9
v 25.6 5.8 -3
v 26.1 5.8 -3

# faces
f 3/1/1 2/1/1 1/1/1
f 4/1/1 2/1/1 3/1/1
f 7/1/1 6/1/1 5/1/1
f 8/1/1 6/1/1 7/1/1
f 11/1/1 10/1/1 9/1/1
f 12/1/1 10/1/1 11/1/1
f 15/1/1 14/1/1 13/1/1
f 16/1/1 14/1/1 15/1/1
f 19/1/1 18/1/1 17/1/1
f 20/1/1 18/1/1 19/1/1
f 23/1/1 22/1/1 21/1/1
f 24/1/1 22/1/1 23/1/1
f 27/1/1 26/1/1 25/1/1
f 28/1/1 26/1/1 27/1/1
f 31/1/1 30/1/1 29/1/1
f 32/1/1 30/1/1 31/1/1
f 35/1/1 34/1/1 33/1/1
f 36/1/1 34/1/1 35/1/1
f 39/1/1 38/1/1 37/1/1
f 40/1/1 38/1/1 39/1/1
f 43/1/1 42/1/1 41/1/1
f 44/1/1 42/1/1 43/1/1
f 47/2/1 46/2/1 45/2/1
f 48/2/1 46/2/1 47/2/1
f 49/2/2 50/2/2 51/2/2
f 51/2/2 50/2/2 52/2/2
f 53/1/2 54/1/2 55/1/2
f 55/1/2 54/1/2 56/1/2
f 57/1/2 58/1/2 59/1/2
f 59/1/2 58/1/2 60/1/2
f 61/1/2 62/1/2 63/1/2
f 63/1/2 62/1/2 64/1/2
f 65/1/2 66/1/2 67/1/2
f 67/1/2 66/1/2 68/1/2
f 69/1/2 70/1/2 71/1/2
f 71/1/2 70/1/2 72/1/2
f 73/1/2 74/1/2 75/1/2
f 75/1/2 74/1/2 76/1/2
f 77/1/2 78/1/2 79/1/2
f 79/1/2 78/1/2 80/1/2
f 81/1/2 82/1/2 83/1/2
f 83/1/2 82/1/2 84/1/2
f 85/1/2 86/1/2 87/1/2
f 87/1/2 86/1/2 88/1/2
f 89/1/2 90/1/2 91/1/2
f 91/1/2 90/1/2 92/1/2
f 93/1/2 94/1/2 95/1/2
f 95/1/2 94/1/2 96/1/2
f 100/1/3 98/1/3 97/1/3
f 101/1/3 98/1/3 100/1/3
f 104/1/3 100/1/3 99/1/3
f 105/4/3 101/4/3 100/4/3
f 105/1/3 100/1/3 104/1/3
f 106/1/3 102/1/3 101/1/3
f 106/4/3 101/4/3 105/4/3
f 107/1/3 102/1/3 106/1/3
f 110/1/3 104/1/3 103/1/3
f 111/4/3 105/4/3 104/4/3
f 111/4/3 106/4/3 105/4/3
f 111/1/3 104/1/3 110/1/3
f 111/4/3 107/4/3 106/4/3
f 112/1/3 108/1/3 107/1/3
f 112/4/3 107/4/3 111/4/3
f 113/1/3 108/1/3 112/1/3
f 116/1/3 110/1/3 109/1/3
f 117/4/3 111/4/3 110/4/3
f 117/4/3 112/4/3 111/4/3
f 117/1/3 110/1/3 116/1/3
f 117/4/3 113/4/3 112/4/3
f 118/4/3 113/4/3 117/4/3
f 119/4/3 113/4/3 118/4/3
f 120/1/3 114/1/3 113/1/3
f 120/4/3 113/4/3 119/4/3
f 121/1/3 114/1/3 120/1/3
f 124/1/3 116/1/3 115/1/3
f 125/4/3 117/4/3 116/4/3
f 125/4/3 118/4/3 117/4/3
f 125/1/3 116/1/3 124/1/3
f 126/1/3 122/1/3 121/1/3
f 126/4/3 120/4/3 119/4/3
f 126/4/3 121/4/3 120/4/3
f 127/1/3 122/1/3 126/1/3
f 130/1/3 124/1/3 123/1/3
f 131/2/3 130/2/3 129/2/3
f 132/1/3 124/1/3 130/1/3
f 132/2/3 130/2/3 131/2/3
f 133/1/3 124/1/3 132/1/3
f 134/4/3 125/4/3 124/4/3
f 134/1/3 124/1/3 133/1/3
f 135/4/3 118/4/3 125/4/3
f 135/4/3 125/4/3 134/4/3
f 136/4/3 126/4/3 119/4/3
f 136/4/3 127/4/3 126/4/3
f 137/1/3 128/1/3 127/1/3
f 137/4/3 127/4/3 136/4/3
f 138/1/3 128/1/3 137/1/3
f 139/1/3 135/1/3 134/1/3
f 140/4/3 118/4/3 135/4/3
f 140/1/3 135/1/3 139/1/3
f 141/4/3 118/4/3 140/4/3
f 142/3/3 119/3/3 118/3/3
f 142/4/3 118/4/3 141/4/3
f 143/4/3 136/4/3 119/4/3
f 143/3/3 119/3/3 142/3/3
f 144/4/3 136/4/3 143/4/3
f 145/1/3 137/1/3 136/1/3
f 145/4/3 136/4/3 144/4/3
f 146/1/3 137/1/3 145/1/3
f 147/1/3 141/1/3 140/1/3
f 148/4/3 142/4/3 141/4/3
f 148/1/3 141/1/3 147/1/3
f 148/4/3 144/4/3 143/4/3
f 148/4/3 143/4/3 142/4/3
f 149/4/3 144/4/3 148/4/3
f 150/4/3 144/4/3 149/4/3
f 151/1/3 145/1/3 144/1/3
f 151/4/3 144/4/3 150/4/3
f 152/1/3 145/1/3 151/1/3
f 153/1/3 149/1/3 148/1/3
f 154/4/3 150/4/3 149/4/3
f 154/1/3 149/1/3 153/1/3
f 155/4/3 150/4/3 154/4/3
f 156/4/3 150/4/3 155/4/3
f 157/1/3 151/1/3 150/1/3
f 157/4/3 150/4/3 156/4/3
f 158/1/3 151/1/3 157/1/3
f 159/1/3 155/1/3 154/1/3
f 160/4/3 156/4/3 155/4/3
f 160/1/3 155/1/3 159/1/3
f 161/1/3 157/1/3 156/1/3
f 161/4/3 156/4/3 160/4/3
f 162/1/3 157/1/3 161/1/3
f 163/1/3 161/1/3 160/1/3
f 164/1/3 161/1/3 163/1/3
f 165/1/4 166/1/4 168/1/4
f 168/1/4 166/1/4 169/1/4
f 167/1/4 168/1/4 172/1/4
f 168/4/4 169/4/4 173/4/4
f 172/1/4 168/1/4 173/1/4
f 169/1/4 170/1/4 174/1/4
f 173/4/4 169/4/4 174/4/4
f 174/1/4 170/1/4 175/1/4
f 171/1/4 172/1/4 178/1/4
f 172/4/4 173/4/4 179/4/4
f 173/4/4 174/4/4 179/4/4
f 178/1/4 172/1/4 179/1/4
f 174/4/4 175/4/4 179/4/4
f 175/1/4 176/1/4 180/1/4
f 179/4/4 175/4/4 180/4/4
f 180/1/4 176/1/4 181/1/4
f 177/1/4 178/1/4 184/1/4
f 178/4/4 179/4/4 185/4/4
f 179/4/4 180/4/4 185/4/4
f 184/1/4 178/1/4 185/1/4
f 180/4/4 181/4/4 185/4/4
f 185/4/4 181/4/4 186/4/4
f 186/4/4 181/4/4 187/4/4
f 181/1/4 182/1/4 188/1/4
f 187/4/4 181/4/4 188/4/4
f 188/1/4 182/1/4 189/1/4
f 183/1/4 184/1/4 192/1/4
f 184/4/4 185/4/4 193/4/4
f 185/4/4 186/4/4 193/4/4
f 192/1/4 184/1/4 193/1/4
f 189/1/4 190/1/4 194/1/4
f 187/4/4 188/4/4 194/4/4
f 188/4/4 189/4/4 194/4/4
f 194/1/4 190/1/4 195/1/4
f 191/1/4 192/1/4 198/1/4
f 197/2/4 198/2/4 199/2/4
f 198/1/4 192/1/4 200/1/4
f 199/2/4 198/2/4 200/2/4
f 200/1/4 192/1/4 201/1/4
f 192/4/4 193/4/4 202/4/4
f 201/1/4 192/1/4 202/1/4
f 193/4/4 186/4/4 203/4/4
f 202/4/4 193/4/4 203/4/4
f 187/4/4 194/4/4 204/4/4
f 194/4/4 195/4/4 204/4/4
f 195/1/4 196/1/4 205/1/4
f 204/4/4 195/4/4 205/4/4
f 205/1/4 196/1/4 206/1/4
f 202/1/4 203/1/4 207/1/4
f 203/4/4 186/4/4 208/4/4
f 207/1/4 203/1/4 208/1/4
f 208/4/4 186/4/4 209/4/4
f 186/3/4 187/3/4 210/3/4
f 209/4/4 186/4/4 210/4/4
f 187/4/4 204/4/4 211/4/4
f 210/3/4 187/3/4 211/3/4
f 211/4/4 204/4/4 212/4/4
f 204/1/4 205/1/4 213/1/4
f 212/4/4 204/4/4 213/4/4
f 213/1/4 205/1/4 214/1/4
f 208/1/4 209/1/4 215/1/4
f 209/4/4 210/4/4 216/4/4
f 215/1/4 209/1/4 216/1/4
f 211/4/4 212/4/4 216/4/4
f 210/4/4 211/4/4 216/4/4
f 216/4/4 212/4/4 217/4/4
f 217/4/4 212/4/4 218/4/4
f 212/1/4 213/1/4 219/1/4
f 218/4/4 212/4/4 219/4/4
f 219/1/4 213/1/4 220/1/4
f 216/1/4 217/1/4 221/1/4
f 217/4/4 218/4/4 222/4/4
f 221/1/4 217/1/4 222/1/4
f 222/4/4 218/4/4 223/4/4
f 223/4/4 218/4/4 224/4/4
f 218/1/4 219/1/4 225/1/4
f 224/4/4 218/4/4 225/4/4
f 225/1/4 219/1/4 226/1/4
f 222/1/4 223/1/4 227/1/4
f 223/4/4 224/4/4 228/4/4
f 227/1/4 223/1/4 228/1/4
f 224/1/4 225/1/4 229/1/4
f 228/4/4 224/4/4 229/4/4
f 229/1/4 225/1/4 230/1/4
f 228/1/4 229/1/4 231/1/4
f 231/1/4 229/1/4 232/1/4
f 235/2/5 234/2/5 233/2/5
f 236/2/5 234/2/5 235/2/5
f 241/1/5 238/1/5 237/1/5
f 242/1/5 238/1/5 241/1/5
f 243/1/5 240/1/5 239/1/5
f 244/1/5 240/1/5 243/1/5
f 249/1/5 246/1/5 245/1/5
f 250/1/5 246/1/5 249/1/5
f 251/1/5 248/1/5 247/1/5
f 252/1/5 248/1/5 251/1/5
f 257/1/5 254/1/5 253/1/5
f 258/1/5 254/1/5 257/1/5
f 259/1/5 256/1/5 255/1/5
f 260/1/5 256/1/5 259/1/5
f 265/1/5 262/1/5 261/1/5
f 266/1/5 262/1/5 265/1/5
f 267/1/5 264/1/5 263/1/5
f 268/1/5 264/1/5 267/1/5
f 273/1/5 270/1/5 269/1/5
f 274/1/5 270/1/5 273/1/5
f 275/1/5 272/1/5 271/1/5
f 276/1/5 272/1/5 275/1/5
f 281/1/5 278/1/5 277/1/5
f 282/1/5 278/1/5 281/1/5
f 283/1/5 280/1/5 279/1/5
f 284/1/5 280/1/5 283/1/5
f 285/1/6 286/1/6 289/1/6
f 289/1/6 286/1/6 290/1/6
f 287/1/6 288/1/6 291/1/6
f 291/1/6 288/1/6 292/1/6
f 293/1/6 294/1/6 297/1/6
f 297/1/6 294/1/6 298/1/6
f 295/1/6 296/1/6 299/1/6
f 299/1/6 296/1/6 300/1/6
f 301/1/6 302/1/6 305/1/6
f 305/1/6 302/1/6 306/1/6
f 303/1/6 304/1/6 307/1/6
f 307/1/6 304/1/6 308/1/6
f 309/1/6 310/1/6 313/1/6
f 313/1/6 310/1/6 314/1/6
f 311/1/6 312/1/6 315/1/6
f 315/1/6 312/1/6 316/1/6
f 317/1/6 318/1/6 321/1/6
f 321/1/6 318/1/6 322/1/6
f 319/1/6 320/1/6 323/1/6
f 323/1/6 320/1/6 324/1/6
f 325/1/6 326/1/6 327/1/6
f 327/1/6 326/1/6 328/1/6
