# MagicaVoxel @ Ephtracy

# group
o 

# material
mtllib drzewko-18.mtl
usemtl palette

# normals
vn -1 0 0
vn 1 0 0
vn 0 0 1
vn 0 0 -1
vn 0 -1 0
vn 0 1 0

# texcoords
vt 0.271484 0.5
vt 0.599609 0.5
vt 0.861328 0.5
vt 0.912109 0.5
vt 0.978516 0.5
vt 0.982422 0.5
vt 0.994141 0.5

# verts
v -37.3 0.8 9
v -37.3 0.8 8.9
v -37.3 0.8 8.7
v -37.3 0.9 9
v -37.3 0.9 8.9
v -37.3 0.9 8.8
v -37.3 0.9 8.7
v -37.3 1 8.9
v -37.3 1 8.8
v -37.3 2 8.9
v -37.3 2 8.8
v -37.3 2.1 9
v -37.3 2.1 8.7
v -37.3 2.2 9
v -37.3 2.2 8.9
v -37.3 2.2 8.8
v -37.3 2.2 8.7
v -37.3 2.3 8.9
v -37.3 2.3 8.8
v -37.2 0.9 9
v -37.2 0.9 8.9
v -37.2 0.9 8.8
v -37.2 0.9 8.7
v -37.2 1 9
v -37.2 1 8.9
v -37.2 1 8.8
v -37.2 1.1 9
v -37.2 1.1 8.9
v -37.2 2 9
v -37.2 2 8.9
v -37.2 2 8.8
v -37.2 2 8.7
v -37.2 2.1 8.9
v -37.2 2.1 8.8
v -37.2 2.2 8.8
v -37.2 2.2 8.7
v -37.2 2.3 8.8
v -37.2 2.3 8.7
v -36.9 1.2 8.9
v -36.9 1.2 8.7
v -36.9 1.3 9
v -36.9 1.3 8.9
v -36.9 1.3 8.7
v -36.9 1.3 8.6
v -36.9 1.4 9
v -36.9 1.4 8.9
v -36.9 1.5 9
v -36.9 1.5 8.9
v -36.9 1.5 8.8
v -36.9 1.6 8.9
v -36.9 1.6 8.8
v -36.9 1.7 8.9
v -36.9 1.7 8.8
v -36.9 1.8 9.1
v -36.9 1.8 9
v -36.9 1.8 8.9
v -36.9 1.8 8.8
v -36.9 1.8 8.6
v -36.9 1.8 8.5
v -36.9 1.9 9.1
v -36.9 1.9 8.5
v -36.8 1.1 8.9
v -36.8 1.1 8.8
v -36.8 1.1 8.7
v -36.8 1.2 9
v -36.8 1.2 8.9
v -36.8 1.2 8.8
v -36.8 1.2 8.7
v -36.8 1.2 8.6
v -36.8 1.3 9.1
v -36.8 1.3 9
v -36.8 1.3 8.9
v -36.8 1.3 8.7
v -36.8 1.3 8.6
v -36.8 1.3 8.5
v -36.8 1.4 9.1
v -36.8 1.4 9
v -36.8 1.5 9
v -36.8 1.6 9.1
v -36.8 1.6 9
v -36.8 1.7 9.1
v -36.8 1.7 9
v -36.8 1.8 9.1
v -36.8 1.8 9
v -36.8 1.8 8.6
v -36.8 1.8 8.5
v -36.8 1.9 8.8
v -36.8 1.9 8.6
v -36.8 2 8.8
v -36.8 2 8.6
v -36.7 1.1 9
v -36.7 1.1 8.9
v -36.7 1.1 8.7
v -36.7 1.1 8.6
v -36.7 1.2 9.1
v -36.7 1.2 9
v -36.7 1.2 8.9
v -36.7 1.2 8.7
v -36.7 1.2 8.6
v -36.7 1.2 8.5
v -36.7 1.3 9.1
v -36.7 1.3 9
v -36.7 1.3 8.8
v -36.7 1.3 8.7
v -36.7 1.3 8.6
v -36.7 1.3 8.5
v -36.7 1.7 8.9
v -36.7 1.7 8.8
v -36.7 1.7 8.7
v -36.7 1.7 8.6
v -36.7 1.8 8.8
v -36.7 1.8 8.6
v -36.7 2 8.9
v -36.7 2 8.8
v -36.6 1.6 9
v -36.6 1.6 8.8
v -36.6 1.7 9
v -36.6 1.7 8.9
v -36.6 1.7 8.8
v -36.5 1.3 9
v -36.5 1.3 8.9
v -36.5 1.6 9
v -36.5 1.6 8.9
v -36.5 1.7 9
v -36.5 1.7 8.9
v -36.5 1.8 9
v -36.5 1.8 8.9
v -36.4 1.3 8.9
v -36.4 1.3 8.7
v -36.4 1.6 8.9
v -36.4 1.6 8.7
v -36.4 1.7 8.9
v -36.4 1.7 8.8
v -36.4 1.7 8.7
v -36.4 1.7 8.6
v -36.4 1.8 9
v -36.4 1.8 8.9
v -36.4 1.8 8.8
v -36.4 1.8 8.7
v -36.4 1.8 8.6
v -36.4 1.9 9
v -36.4 1.9 8.6
v -37.1 0.9 9
v -37.1 0.9 8.9
v -37.1 0.9 8.8
v -37.1 0.9 8.7
v -37.1 1 9
v -37.1 1 8.9
v -37.1 1 8.8
v -37.1 1.1 9
v -37.1 1.1 8.9
v -37.1 2 9
v -37.1 2 8.9
v -37.1 2 8.8
v -37.1 2 8.7
v -37.1 2.1 8.9
v -37.1 2.1 8.8
v -37.1 2.2 8.8
v -37.1 2.2 8.7
v -37.1 2.3 8.8
v -37.1 2.3 8.7
v -37 0.8 9
v -37 0.8 8.9
v -37 0.8 8.7
v -37 0.9 9
v -37 0.9 8.9
v -37 0.9 8.8
v -37 0.9 8.7
v -37 1 8.9
v -37 1 8.8
v -37 1.5 8.9
v -37 1.5 8.8
v -37 1.6 8.9
v -37 1.6 8.8
v -37 1.7 8.9
v -37 1.7 8.8
v -37 1.8 8.9
v -37 1.8 8.8
v -37 2 8.9
v -37 2 8.8
v -37 2.1 9
v -37 2.1 8.7
v -37 2.2 9
v -37 2.2 8.9
v -37 2.2 8.8
v -37 2.2 8.7
v -37 2.3 8.9
v -37 2.3 8.8
v -36.8 1.3 8.9
v -36.8 1.3 8.7
v -36.8 1.7 9
v -36.8 1.7 8.9
v -36.8 1.7 8.7
v -36.8 1.7 8.6
v -36.8 1.8 9
v -36.8 1.8 8.8
v -36.8 1.8 8.6
v -36.8 1.9 9
v -36.8 1.9 8.8
v -36.7 1.3 9
v -36.7 1.3 8.9
v -36.7 1.7 9
v -36.7 1.7 8.9
v -36.6 1.7 8.9
v -36.6 1.7 8.8
v -36.6 1.9 8.8
v -36.6 1.9 8.6
v -36.6 2 8.9
v -36.6 2 8.6
v -36.5 1.1 9
v -36.5 1.1 8.9
v -36.5 1.1 8.7
v -36.5 1.1 8.6
v -36.5 1.2 9.1
v -36.5 1.2 9
v -36.5 1.2 8.9
v -36.5 1.2 8.7
v -36.5 1.2 8.6
v -36.5 1.2 8.5
v -36.5 1.3 9.1
v -36.5 1.3 9
v -36.5 1.3 8.8
v -36.5 1.3 8.7
v -36.5 1.3 8.6
v -36.5 1.3 8.5
v -36.5 1.6 8.8
v -36.5 1.6 8.7
v -36.5 1.7 8.7
v -36.5 1.7 8.6
v -36.5 1.8 8.8
v -36.5 1.8 8.7
v -36.5 1.8 8.6
v -36.5 1.9 8.8
v -36.5 1.9 8.6
v -36.4 1.1 8.9
v -36.4 1.1 8.8
v -36.4 1.1 8.7
v -36.4 1.2 9
v -36.4 1.2 8.9
v -36.4 1.2 8.8
v -36.4 1.2 8.7
v -36.4 1.2 8.6
v -36.4 1.3 9.1
v -36.4 1.3 9
v -36.4 1.3 8.9
v -36.4 1.3 8.7
v -36.4 1.3 8.6
v -36.4 1.3 8.5
v -36.4 1.4 9.1
v -36.4 1.4 9
v -36.4 1.6 8.6
v -36.4 1.7 8.6
v -36.4 1.7 8.5
v -36.4 1.8 9.1
v -36.4 1.8 9
v -36.4 1.8 8.6
v -36.4 1.8 8.5
v -36.3 1.2 8.9
v -36.3 1.2 8.7
v -36.3 1.3 9
v -36.3 1.3 8.9
v -36.3 1.3 8.7
v -36.3 1.3 8.6
v -36.3 1.6 8.7
v -36.3 1.6 8.6
v -36.3 1.7 8.7
v -36.3 1.7 8.6
v -36.3 1.8 9.1
v -36.3 1.8 9
v -36.3 1.8 8.6
v -36.3 1.8 8.5
v -36.3 1.9 9.1
v -36.3 1.9 8.5
v -36.9 1.8 9.1
v -36.9 1.9 9.1
v -36.8 1.3 9.1
v -36.8 1.4 9.1
v -36.8 1.6 9.1
v -36.8 1.7 9.1
v -36.8 1.8 9.1
v -36.8 1.9 9.1
v -36.7 1.2 9.1
v -36.7 1.3 9.1
v -36.7 1.4 9.1
v -36.7 1.6 9.1
v -36.7 1.7 9.1
v -36.7 1.8 9.1
v -36.7 1.9 9.1
v -36.6 1.2 9.1
v -36.6 1.3 9.1
v -36.6 1.7 9.1
v -36.6 1.8 9.1
v -36.6 1.9 9.1
v -36.5 1.2 9.1
v -36.5 1.3 9.1
v -36.5 1.4 9.1
v -36.5 1.8 9.1
v -36.5 1.9 9.1
v -36.4 1.3 9.1
v -36.4 1.4 9.1
v -36.4 1.8 9.1
v -36.3 1.8 9.1
v -36.3 1.9 9.1
v -37.3 0.8 9
v -37.3 0.9 9
v -37.3 2.1 9
v -37.3 2.2 9
v -37.2 0.9 9
v -37.2 1 9
v -37.2 1.1 9
v -37.2 2 9
v -37.1 0.9 9
v -37.1 1 9
v -37.1 1.1 9
v -37.1 2 9
v -37 0.8 9
v -37 0.9 9
v -37 2.1 9
v -37 2.2 9
v -36.9 1.3 9
v -36.9 1.4 9
v -36.9 1.5 9
v -36.9 1.8 9
v -36.8 1.2 9
v -36.8 1.3 9
v -36.8 1.4 9
v -36.8 1.5 9
v -36.8 1.6 9
v -36.8 1.7 9
v -36.8 1.8 9
v -36.7 1.1 9
v -36.7 1.2 9
v -36.7 1.3 9
v -36.6 1.2 9
v -36.5 1.1 9
v -36.5 1.2 9
v -36.5 1.3 9
v -36.4 1.2 9
v -36.4 1.3 9
v -36.4 1.4 9
v -36.4 1.8 9
v -36.3 1.3 9
v -36.3 1.8 9
v -37.3 0.9 8.9
v -37.3 1 8.9
v -37.3 2 8.9
v -37.3 2.2 8.9
v -37.3 2.3 8.9
v -37.2 0.9 8.9
v -37.2 1 8.9
v -37.2 1.1 8.9
v -37.2 2 8.9
v -37.2 2.1 8.9
v -37.1 0.9 8.9
v -37.1 1 8.9
v -37.1 1.1 8.9
v -37.1 2 8.9
v -37.1 2.1 8.9
v -37 0.9 8.9
v -37 1 8.9
v -37 1.5 8.9
v -37 1.6 8.9
v -37 1.7 8.9
v -37 1.8 8.9
v -37 2 8.9
v -37 2.2 8.9
v -37 2.3 8.9
v -36.9 1.2 8.9
v -36.9 1.3 8.9
v -36.9 1.5 8.9
v -36.9 1.6 8.9
v -36.9 1.7 8.9
v -36.9 1.8 8.9
v -36.8 1.1 8.9
v -36.8 1.2 8.9
v -36.8 1.3 8.9
v -36.7 1.1 8.9
v -36.7 1.2 8.9
v -36.7 1.7 8.9
v -36.7 2 8.9
v -36.6 1.7 8.9
v -36.6 2 8.9
v -36.5 1.1 8.9
v -36.5 1.2 8.9
v -36.4 1.1 8.9
v -36.4 1.2 8.9
v -36.4 1.3 8.9
v -36.3 1.2 8.9
v -36.3 1.3 8.9
v -36.8 1.8 8.8
v -36.8 1.9 8.8
v -36.8 2 8.8
v -36.7 1.3 8.8
v -36.7 1.7 8.8
v -36.7 1.8 8.8
v -36.7 2 8.8
v -36.6 1.6 8.8
v -36.6 1.7 8.8
v -36.6 1.9 8.8
v -36.5 1.3 8.8
v -36.5 1.6 8.8
v -36.5 1.7 8.8
v -36.5 1.8 8.8
v -36.5 1.9 8.8
v -36.4 1.7 8.8
v -36.4 1.8 8.8
v -36.8 1.3 8.7
v -36.8 1.7 8.7
v -36.7 1.3 8.7
v -36.7 1.7 8.7
v -36.5 1.3 8.7
v -36.5 1.6 8.7
v -36.4 1.3 8.7
v -36.4 1.6 8.7
v -36.8 1.7 8.6
v -36.8 1.8 8.6
v -36.7 1.7 8.6
v -36.7 1.8 8.6
v -36.5 1.7 8.6
v -36.5 1.8 8.6
v -36.5 1.9 8.6
v -36.4 1.7 8.6
v -36.4 1.8 8.6
v -36.4 1.9 8.6
v -36.8 1.7 9
v -36.8 1.8 9
v -36.8 1.9 9
v -36.7 1.3 9
v -36.7 1.7 9
v -36.7 1.8 9
v -36.7 1.9 9
v -36.6 1.6 9
v -36.6 1.7 9
v -36.6 1.8 9
v -36.6 1.9 9
v -36.5 1.3 9
v -36.5 1.6 9
v -36.5 1.7 9
v -36.5 1.8 9
v -36.5 1.9 9
v -36.4 1.8 9
v -36.4 1.9 9
v -36.8 1.3 8.9
v -36.8 1.7 8.9
v -36.7 1.3 8.9
v -36.7 1.7 8.9
v -36.5 1.3 8.9
v -36.5 1.6 8.9
v -36.5 1.7 8.9
v -36.5 1.8 8.9
v -36.4 1.3 8.9
v -36.4 1.6 8.9
v -36.4 1.7 8.9
v -36.4 1.8 8.9
v -37.3 0.9 8.8
v -37.3 1 8.8
v -37.3 2 8.8
v -37.3 2.2 8.8
v -37.3 2.3 8.8
v -37.2 0.9 8.8
v -37.2 1 8.8
v -37.2 2 8.8
v -37.2 2.1 8.8
v -37.2 2.2 8.8
v -37.2 2.3 8.8
v -37.1 0.9 8.8
v -37.1 1 8.8
v -37.1 2 8.8
v -37.1 2.1 8.8
v -37.1 2.2 8.8
v -37.1 2.3 8.8
v -37 0.9 8.8
v -37 1 8.8
v -37 1.5 8.8
v -37 1.6 8.8
v -37 1.7 8.8
v -37 1.8 8.8
v -37 2 8.8
v -37 2.2 8.8
v -37 2.3 8.8
v -36.9 1.5 8.8
v -36.9 1.6 8.8
v -36.9 1.7 8.8
v -36.9 1.8 8.8
v -37.3 0.8 8.7
v -37.3 0.9 8.7
v -37.3 2.1 8.7
v -37.3 2.2 8.7
v -37.2 0.9 8.7
v -37.2 2 8.7
v -37.2 2.2 8.7
v -37.2 2.3 8.7
v -37.1 0.9 8.7
v -37.1 2 8.7
v -37.1 2.2 8.7
v -37.1 2.3 8.7
v -37 0.8 8.7
v -37 0.9 8.7
v -37 2.1 8.7
v -37 2.2 8.7
v -36.9 1.2 8.7
v -36.9 1.3 8.7
v -36.8 1.1 8.7
v -36.8 1.2 8.7
v -36.8 1.3 8.7
v -36.7 1.1 8.7
v -36.7 1.2 8.7
v -36.5 1.1 8.7
v -36.5 1.2 8.7
v -36.5 1.7 8.7
v -36.5 1.8 8.7
v -36.4 1.1 8.7
v -36.4 1.2 8.7
v -36.4 1.3 8.7
v -36.4 1.7 8.7
v -36.4 1.8 8.7
v -36.3 1.2 8.7
v -36.3 1.3 8.7
v -36.9 1.3 8.6
v -36.9 1.8 8.6
v -36.8 1.2 8.6
v -36.8 1.3 8.6
v -36.8 1.8 8.6
v -36.8 1.9 8.6
v -36.8 2 8.6
v -36.7 1.1 8.6
v -36.7 1.2 8.6
v -36.7 1.3 8.6
v -36.6 1.9 8.6
v -36.6 2 8.6
v -36.5 1.1 8.6
v -36.5 1.2 8.6
v -36.5 1.3 8.6
v -36.4 1.2 8.6
v -36.4 1.3 8.6
v -36.4 1.6 8.6
v -36.4 1.7 8.6
v -36.4 1.8 8.6
v -36.3 1.3 8.6
v -36.3 1.6 8.6
v -36.3 1.7 8.6
v -36.3 1.8 8.6
v -36.9 1.8 8.5
v -36.9 1.9 8.5
v -36.8 1.3 8.5
v -36.8 1.8 8.5
v -36.7 1.2 8.5
v -36.7 1.3 8.5
v -36.5 1.2 8.5
v -36.5 1.3 8.5
v -36.5 1.7 8.5
v -36.5 1.8 8.5
v -36.4 1.3 8.5
v -36.4 1.7 8.5
v -36.4 1.8 8.5
v -36.3 1.8 8.5
v -36.3 1.9 8.5
v -37.3 0.8 9
v -37 0.8 9
v -37.3 0.8 8.9
v -37 0.8 8.9
v -37.3 0.8 8.7
v -37 0.8 8.7
v -36.7 1.1 9
v -36.5 1.1 9
v -36.8 1.1 8.9
v -36.7 1.1 8.9
v -36.5 1.1 8.9
v -36.4 1.1 8.9
v -36.8 1.1 8.8
v -36.7 1.1 8.8
v -36.5 1.1 8.8
v -36.4 1.1 8.8
v -36.8 1.1 8.7
v -36.7 1.1 8.7
v -36.5 1.1 8.7
v -36.4 1.1 8.7
v -36.7 1.1 8.6
v -36.5 1.1 8.6
v -36.7 1.2 9.1
v -36.6 1.2 9.1
v -36.5 1.2 9.1
v -36.8 1.2 9
v -36.7 1.2 9
v -36.6 1.2 9
v -36.5 1.2 9
v -36.4 1.2 9
v -36.9 1.2 8.9
v -36.8 1.2 8.9
v -36.7 1.2 8.9
v -36.5 1.2 8.9
v -36.4 1.2 8.9
v -36.3 1.2 8.9
v -36.8 1.2 8.8
v -36.4 1.2 8.8
v -36.9 1.2 8.7
v -36.8 1.2 8.7
v -36.7 1.2 8.7
v -36.5 1.2 8.7
v -36.4 1.2 8.7
v -36.3 1.2 8.7
v -36.8 1.2 8.6
v -36.7 1.2 8.6
v -36.5 1.2 8.6
v -36.4 1.2 8.6
v -36.7 1.2 8.5
v -36.5 1.2 8.5
v -36.8 1.3 9.1
v -36.7 1.3 9.1
v -36.5 1.3 9.1
v -36.4 1.3 9.1
v -36.9 1.3 9
v -36.8 1.3 9
v -36.7 1.3 9
v -36.5 1.3 9
v -36.4 1.3 9
v -36.3 1.3 9
v -36.9 1.3 8.9
v -36.8 1.3 8.9
v -36.4 1.3 8.9
v -36.3 1.3 8.9
v -36.9 1.3 8.7
v -36.8 1.3 8.7
v -36.4 1.3 8.7
v -36.3 1.3 8.7
v -36.9 1.3 8.6
v -36.8 1.3 8.6
v -36.7 1.3 8.6
v -36.5 1.3 8.6
v -36.4 1.3 8.6
v -36.3 1.3 8.6
v -36.8 1.3 8.5
v -36.7 1.3 8.5
v -36.5 1.3 8.5
v -36.4 1.3 8.5
v -37 1.5 8.9
v -36.9 1.5 8.9
v -37 1.5 8.8
v -36.9 1.5 8.8
v -36.6 1.6 9
v -36.5 1.6 9
v -36.5 1.6 8.9
v -36.4 1.6 8.9
v -36.6 1.6 8.8
v -36.5 1.6 8.8
v -36.5 1.6 8.7
v -36.4 1.6 8.7
v -37 1.7 8.9
v -36.9 1.7 8.9
v -36.7 1.7 8.9
v -36.6 1.7 8.9
v -37 1.7 8.8
v -36.9 1.7 8.8
v -36.7 1.7 8.8
v -36.6 1.7 8.8
v -36.9 1.8 9.1
v -36.8 1.8 9.1
v -36.4 1.8 9.1
v -36.3 1.8 9.1
v -36.9 1.8 9
v -36.8 1.8 9
v -36.4 1.8 9
v -36.3 1.8 9
v -36.8 1.8 8.8
v -36.7 1.8 8.8
v -36.9 1.8 8.6
v -36.8 1.8 8.6
v -36.7 1.8 8.6
v -36.4 1.8 8.6
v -36.3 1.8 8.6
v -36.9 1.8 8.5
v -36.8 1.8 8.5
v -36.4 1.8 8.5
v -36.3 1.8 8.5
v -37.3 2.1 9
v -37 2.1 9
v -37.2 2.1 8.9
v -37.1 2.1 8.9
v -37.2 2.1 8.8
v -37.1 2.1 8.8
v -37.3 2.1 8.7
v -37 2.1 8.7
v -37.3 0.9 9
v -37.2 0.9 9
v -37.1 0.9 9
v -37 0.9 9
v -37.3 0.9 8.9
v -37.2 0.9 8.9
v -37.1 0.9 8.9
v -37 0.9 8.9
v -37.3 0.9 8.8
v -37.2 0.9 8.8
v -37.1 0.9 8.8
v -37 0.9 8.8
v -37.3 0.9 8.7
v -37.2 0.9 8.7
v -37.1 0.9 8.7
v -37 0.9 8.7
v -36.7 1.3 9
v -36.5 1.3 9
v -36.8 1.3 8.9
v -36.7 1.3 8.9
v -36.5 1.3 8.9
v -36.4 1.3 8.9
v -36.7 1.3 8.8
v -36.5 1.3 8.8
v -36.8 1.3 8.7
v -36.7 1.3 8.7
v -36.5 1.3 8.7
v -36.4 1.3 8.7
v -37 1.6 8.9
v -36.9 1.6 8.9
v -37 1.6 8.8
v -36.9 1.6 8.8
v -36.8 1.7 9
v -36.7 1.7 9
v -36.6 1.7 9
v -36.5 1.7 9
v -36.8 1.7 8.9
v -36.7 1.7 8.9
v -36.6 1.7 8.9
v -36.5 1.7 8.9
v -36.4 1.7 8.9
v -36.6 1.7 8.8
v -36.5 1.7 8.8
v -36.4 1.7 8.8
v -36.8 1.7 8.7
v -36.7 1.7 8.7
v -36.5 1.7 8.7
v -36.4 1.7 8.7
v -36.8 1.7 8.6
v -36.7 1.7 8.6
v -36.5 1.7 8.6
v -36.4 1.7 8.6
v -36.5 1.8 9
v -36.4 1.8 9
v -37 1.8 8.9
v -36.9 1.8 8.9
v -36.5 1.8 8.9
v -36.4 1.8 8.9
v -37 1.8 8.8
v -36.9 1.8 8.8
v -36.5 1.8 8.8
v -36.4 1.8 8.8
v -36.5 1.8 8.7
v -36.4 1.8 8.7
v -36.9 1.9 9.1
v -36.8 1.9 9.1
v -36.7 1.9 9.1
v -36.6 1.9 9.1
v -36.5 1.9 9.1
v -36.3 1.9 9.1
v -36.8 1.9 9
v -36.7 1.9 9
v -36.6 1.9 9
v -36.5 1.9 9
v -36.4 1.9 9
v -36.8 1.9 8.8
v -36.6 1.9 8.8
v -36.5 1.9 8.8
v -36.8 1.9 8.6
v -36.6 1.9 8.6
v -36.5 1.9 8.6
v -36.4 1.9 8.6
v -36.9 1.9 8.5
v -36.3 1.9 8.5
v -37.2 2 9
v -37.1 2 9
v -37.3 2 8.9
v -37.2 2 8.9
v -37.1 2 8.9
v -37 2 8.9
v -36.7 2 8.9
v -36.6 2 8.9
v -37.3 2 8.8
v -37.2 2 8.8
v -37.1 2 8.8
v -37 2 8.8
v -36.8 2 8.8
v -36.7 2 8.8
v -37.2 2 8.7
v -37.1 2 8.7
v -36.8 2 8.6
v -36.6 2 8.6
v -37.3 2.2 9
v -37 2.2 9
v -37.3 2.2 8.9
v -37 2.2 8.9
v -37.3 2.2 8.8
v -37.2 2.2 8.8
v -37.1 2.2 8.8
v -37 2.2 8.8
v -37.3 2.2 8.7
v -37.2 2.2 8.7
v -37.1 2.2 8.7
v -37 2.2 8.7
v -37.3 2.3 8.9
v -37 2.3 8.9
v -37.3 2.3 8.8
v -37.2 2.3 8.8
v -37.1 2.3 8.8
v -37 2.3 8.8
v -37.2 2.3 8.7
v -37.1 2.3 8.7

# faces
f 4/6/1 2/6/1 1/6/1
f 5/5/1 3/5/1 2/5/1
f 5/6/1 2/6/1 4/6/1
f 6/5/1 3/5/1 5/5/1
f 7/5/1 3/5/1 6/5/1
f 8/6/1 6/6/1 5/6/1
f 9/6/1 6/6/1 8/6/1
f 10/5/1 9/5/1 8/5/1
f 11/5/1 9/5/1 10/5/1
f 14/5/1 13/5/1 12/5/1
f 15/5/1 13/5/1 14/5/1
f 16/5/1 13/5/1 15/5/1
f 17/5/1 13/5/1 16/5/1
f 18/5/1 16/5/1 15/5/1
f 19/5/1 16/5/1 18/5/1
f 24/5/1 21/5/1 20/5/1
f 25/5/1 21/5/1 24/5/1
f 26/5/1 23/5/1 22/5/1
f 27/6/1 25/6/1 24/6/1
f 28/6/1 25/6/1 27/6/1
f 29/5/1 28/5/1 27/5/1
f 30/5/1 28/5/1 29/5/1
f 31/5/1 23/5/1 26/5/1
f 32/5/1 23/5/1 31/5/1
f 33/5/1 31/5/1 30/5/1
f 34/5/1 31/5/1 33/5/1
f 37/5/1 36/5/1 35/5/1
f 38/5/1 36/5/1 37/5/1
f 42/5/1 40/5/1 39/5/1
f 43/5/1 40/5/1 42/5/1
f 45/5/1 42/5/1 41/5/1
f 45/5/1 44/5/1 43/5/1
f 45/5/1 43/5/1 42/5/1
f 46/5/1 44/5/1 45/5/1
f 47/6/1 46/6/1 45/6/1
f 48/5/1 44/5/1 46/5/1
f 48/6/1 46/6/1 47/6/1
f 49/5/1 44/5/1 48/5/1
f 50/5/1 48/5/1 47/5/1
f 51/5/1 44/5/1 49/5/1
f 52/5/1 50/5/1 47/5/1
f 52/5/1 51/5/1 50/5/1
f 53/5/1 44/5/1 51/5/1
f 53/5/1 51/5/1 52/5/1
f 55/5/1 52/5/1 47/5/1
f 56/5/1 52/5/1 55/5/1
f 57/5/1 44/5/1 53/5/1
f 58/5/1 44/5/1 57/5/1
f 60/5/1 56/5/1 55/5/1
f 60/5/1 59/5/1 58/5/1
f 60/5/1 58/5/1 57/5/1
f 60/5/1 57/5/1 56/5/1
f 60/5/1 55/5/1 54/5/1
f 61/5/1 59/5/1 60/5/1
f 66/6/1 63/6/1 62/6/1
f 67/5/1 64/5/1 63/5/1
f 67/6/1 63/6/1 66/6/1
f 68/5/1 64/5/1 67/5/1
f 71/6/1 66/6/1 65/6/1
f 72/6/1 66/6/1 71/6/1
f 73/5/1 69/5/1 68/5/1
f 74/5/1 69/5/1 73/5/1
f 76/6/1 71/6/1 70/6/1
f 77/6/1 71/6/1 76/6/1
f 78/5/1 77/5/1 76/5/1
f 79/5/1 78/5/1 76/5/1
f 80/5/1 78/5/1 79/5/1
f 81/1/1 80/1/1 79/1/1
f 82/1/1 80/1/1 81/1/1
f 83/5/1 82/5/1 81/5/1
f 84/5/1 82/5/1 83/5/1
f 85/5/1 75/5/1 74/5/1
f 86/5/1 75/5/1 85/5/1
f 89/2/1 88/2/1 87/2/1
f 90/2/1 88/2/1 89/2/1
f 96/5/1 92/5/1 91/5/1
f 97/5/1 92/5/1 96/5/1
f 98/5/1 94/5/1 93/5/1
f 99/5/1 94/5/1 98/5/1
f 101/6/1 96/6/1 95/6/1
f 102/6/1 96/6/1 101/6/1
f 105/5/1 100/5/1 99/5/1
f 106/5/1 100/5/1 105/5/1
f 108/7/1 104/7/1 103/7/1
f 109/7/1 104/7/1 108/7/1
f 111/2/1 108/2/1 107/2/1
f 111/7/1 110/7/1 109/7/1
f 111/7/1 109/7/1 108/7/1
f 112/7/1 110/7/1 111/7/1
f 113/2/1 111/2/1 107/2/1
f 114/2/1 111/2/1 113/2/1
f 117/4/1 116/4/1 115/4/1
f 118/4/1 116/4/1 117/4/1
f 119/4/1 116/4/1 118/4/1
f 122/5/1 121/5/1 120/5/1
f 123/5/1 121/5/1 122/5/1
f 126/4/1 125/4/1 124/4/1
f 127/4/1 125/4/1 126/4/1
f 130/5/1 129/5/1 128/5/1
f 131/5/1 129/5/1 130/5/1
f 137/5/1 133/5/1 132/5/1
f 138/5/1 133/5/1 137/5/1
f 139/5/1 135/5/1 134/5/1
f 140/5/1 135/5/1 139/5/1
f 141/5/1 138/5/1 137/5/1
f 141/5/1 137/5/1 136/5/1
f 141/5/1 140/5/1 139/5/1
f 141/5/1 139/5/1 138/5/1
f 142/5/1 140/5/1 141/5/1
f 143/5/2 144/5/2 147/5/2
f 147/5/2 144/5/2 148/5/2
f 145/5/2 146/5/2 149/5/2
f 147/6/2 148/6/2 150/6/2
f 150/6/2 148/6/2 151/6/2
f 150/5/2 151/5/2 152/5/2
f 152/5/2 151/5/2 153/5/2
f 149/5/2 146/5/2 154/5/2
f 154/5/2 146/5/2 155/5/2
f 153/5/2 154/5/2 156/5/2
f 156/5/2 154/5/2 157/5/2
f 158/5/2 159/5/2 160/5/2
f 160/5/2 159/5/2 161/5/2
f 162/6/2 163/6/2 165/6/2
f 163/5/2 164/5/2 166/5/2
f 165/6/2 163/6/2 166/6/2
f 166/5/2 164/5/2 167/5/2
f 167/5/2 164/5/2 168/5/2
f 166/6/2 167/6/2 169/6/2
f 169/6/2 167/6/2 170/6/2
f 169/5/2 170/5/2 171/5/2
f 171/5/2 170/5/2 172/5/2
f 173/5/2 174/5/2 175/5/2
f 175/5/2 174/5/2 176/5/2
f 177/5/2 178/5/2 179/5/2
f 179/5/2 178/5/2 180/5/2
f 181/5/2 182/5/2 183/5/2
f 183/5/2 182/5/2 184/5/2
f 184/5/2 182/5/2 185/5/2
f 185/5/2 182/5/2 186/5/2
f 184/5/2 185/5/2 187/5/2
f 187/5/2 185/5/2 188/5/2
f 189/5/2 190/5/2 192/5/2
f 192/5/2 190/5/2 193/5/2
f 191/5/2 192/5/2 195/5/2
f 193/5/2 194/5/2 195/5/2
f 192/5/2 193/5/2 195/5/2
f 195/5/2 194/5/2 196/5/2
f 196/5/2 194/5/2 197/5/2
f 195/5/2 196/5/2 198/5/2
f 198/5/2 196/5/2 199/5/2
f 200/5/2 201/5/2 202/5/2
f 202/5/2 201/5/2 203/5/2
f 204/2/2 205/2/2 206/2/2
f 204/2/2 206/2/2 208/2/2
f 206/2/2 207/2/2 208/2/2
f 208/2/2 207/2/2 209/2/2
f 210/5/2 211/5/2 215/5/2
f 215/5/2 211/5/2 216/5/2
f 212/5/2 213/5/2 217/5/2
f 217/5/2 213/5/2 218/5/2
f 214/5/2 215/5/2 220/5/2
f 220/5/2 215/5/2 221/5/2
f 218/5/2 219/5/2 224/5/2
f 224/5/2 219/5/2 225/5/2
f 222/7/2 223/7/2 226/7/2
f 226/7/2 223/7/2 227/7/2
f 228/7/2 229/7/2 231/7/2
f 231/7/2 229/7/2 232/7/2
f 230/7/2 231/7/2 233/7/2
f 231/7/2 232/7/2 233/7/2
f 233/7/2 232/7/2 234/7/2
f 235/6/2 236/6/2 239/6/2
f 236/5/2 237/5/2 240/5/2
f 239/6/2 236/6/2 240/6/2
f 240/5/2 237/5/2 241/5/2
f 238/5/2 239/5/2 244/5/2
f 244/5/2 239/5/2 245/5/2
f 241/5/2 242/5/2 246/5/2
f 246/5/2 242/5/2 247/5/2
f 243/6/2 244/6/2 249/6/2
f 249/6/2 244/6/2 250/6/2
f 247/5/2 248/5/2 251/5/2
f 251/5/2 248/5/2 252/5/2
f 252/5/2 248/5/2 253/5/2
f 249/5/2 250/5/2 254/5/2
f 254/5/2 250/5/2 255/5/2
f 252/6/2 253/6/2 256/6/2
f 256/6/2 253/6/2 257/6/2
f 258/5/2 259/5/2 261/5/2
f 261/5/2 259/5/2 262/5/2
f 260/5/2 261/5/2 264/5/2
f 262/5/2 263/5/2 264/5/2
f 261/5/2 262/5/2 264/5/2
f 264/5/2 263/5/2 265/5/2
f 260/5/2 264/5/2 266/5/2
f 264/6/2 265/6/2 266/6/2
f 266/6/2 265/6/2 267/6/2
f 260/5/2 266/5/2 269/5/2
f 266/5/2 267/5/2 269/5/2
f 269/5/2 267/5/2 270/5/2
f 269/5/2 270/5/2 272/5/2
f 270/5/2 271/5/2 272/5/2
f 268/5/2 269/5/2 272/5/2
f 272/5/2 271/5/2 273/5/2
f 280/5/3 275/5/3 274/5/3
f 281/5/3 275/5/3 280/5/3
f 283/6/3 277/6/3 276/6/3
f 284/5/3 278/5/3 277/5/3
f 284/6/3 277/6/3 283/6/3
f 285/1/3 279/1/3 278/1/3
f 285/5/3 278/5/3 284/5/3
f 286/5/3 280/5/3 279/5/3
f 286/1/3 279/1/3 285/1/3
f 287/1/3 281/1/3 280/1/3
f 287/5/3 280/5/3 286/5/3
f 288/1/3 281/1/3 287/1/3
f 289/6/3 283/6/3 282/6/3
f 290/5/3 284/5/3 283/5/3
f 290/6/3 283/6/3 289/6/3
f 290/5/3 285/5/3 284/5/3
f 290/5/3 286/5/3 285/5/3
f 291/1/3 287/1/3 286/1/3
f 291/5/3 286/5/3 290/5/3
f 292/3/3 288/3/3 287/3/3
f 292/1/3 287/1/3 291/1/3
f 293/3/3 288/3/3 292/3/3
f 294/5/3 291/5/3 290/5/3
f 294/5/3 290/5/3 289/5/3
f 294/5/3 292/5/3 291/5/3
f 295/5/3 292/5/3 294/5/3
f 296/5/3 292/5/3 295/5/3
f 297/1/3 293/1/3 292/1/3
f 297/5/3 292/5/3 296/5/3
f 298/1/3 293/1/3 297/1/3
f 299/6/3 296/6/3 295/6/3
f 300/5/3 298/5/3 297/5/3
f 300/6/3 296/6/3 299/6/3
f 300/5/3 297/5/3 296/5/3
f 301/5/3 298/5/3 300/5/3
f 302/5/3 298/5/3 301/5/3
f 303/5/3 298/5/3 302/5/3
f 308/6/3 305/6/3 304/6/3
f 312/6/3 308/6/3 304/6/3
f 312/5/3 309/5/3 308/5/3
f 313/6/3 310/6/3 309/6/3
f 313/5/3 309/5/3 312/5/3
f 314/5/3 311/5/3 310/5/3
f 314/6/3 310/6/3 313/6/3
f 315/5/3 311/5/3 314/5/3
f 316/6/3 312/6/3 304/6/3
f 317/6/3 312/6/3 316/6/3
f 318/5/3 307/5/3 306/5/3
f 319/5/3 307/5/3 318/5/3
f 325/5/3 321/5/3 320/5/3
f 326/6/3 322/6/3 321/6/3
f 326/5/3 321/5/3 325/5/3
f 327/5/3 323/5/3 322/5/3
f 327/6/3 322/6/3 326/6/3
f 328/5/3 323/5/3 327/5/3
f 329/5/3 323/5/3 328/5/3
f 330/5/3 323/5/3 329/5/3
f 332/6/3 325/6/3 324/6/3
f 333/6/3 325/6/3 332/6/3
f 334/5/3 332/5/3 331/5/3
f 335/5/3 334/5/3 331/5/3
f 336/5/3 334/5/3 335/5/3
f 338/5/3 337/5/3 336/5/3
f 339/5/3 337/5/3 338/5/3
f 342/5/3 341/5/3 340/5/3
f 342/5/3 340/5/3 339/5/3
f 343/5/3 341/5/3 342/5/3
f 349/6/3 345/6/3 344/6/3
f 350/5/3 346/5/3 345/5/3
f 350/6/3 345/6/3 349/6/3
f 351/5/3 346/5/3 350/5/3
f 352/5/3 346/5/3 351/5/3
f 357/5/3 353/5/3 352/5/3
f 358/5/3 353/5/3 357/5/3
f 359/6/3 355/6/3 354/6/3
f 360/5/3 356/5/3 355/5/3
f 360/6/3 355/6/3 359/6/3
f 360/5/3 357/5/3 356/5/3
f 361/5/3 357/5/3 360/5/3
f 362/5/3 357/5/3 361/5/3
f 363/5/3 357/5/3 362/5/3
f 364/5/3 357/5/3 363/5/3
f 365/5/3 357/5/3 364/5/3
f 366/5/3 348/5/3 347/5/3
f 367/5/3 348/5/3 366/5/3
f 370/5/3 362/5/3 361/5/3
f 371/5/3 362/5/3 370/5/3
f 372/5/3 364/5/3 363/5/3
f 373/5/3 364/5/3 372/5/3
f 375/5/3 369/5/3 368/5/3
f 376/5/3 369/5/3 375/5/3
f 377/6/3 375/6/3 374/6/3
f 378/6/3 375/6/3 377/6/3
f 381/2/3 380/2/3 379/2/3
f 382/2/3 380/2/3 381/2/3
f 385/6/3 384/6/3 383/6/3
f 386/6/3 384/6/3 385/6/3
f 388/5/3 387/5/3 386/5/3
f 389/5/3 387/5/3 388/5/3
f 395/2/3 391/2/3 390/2/3
f 395/2/3 392/2/3 391/2/3
f 396/2/3 392/2/3 395/2/3
f 397/7/3 394/7/3 393/7/3
f 398/7/3 394/7/3 397/7/3
f 400/7/3 397/7/3 393/7/3
f 401/7/3 397/7/3 400/7/3
f 402/7/3 399/7/3 398/7/3
f 403/7/3 399/7/3 402/7/3
f 404/7/3 399/7/3 403/7/3
f 405/4/3 403/4/3 402/4/3
f 406/4/3 403/4/3 405/4/3
f 409/5/3 408/5/3 407/5/3
f 410/5/3 408/5/3 409/5/3
f 413/5/3 412/5/3 411/5/3
f 414/5/3 412/5/3 413/5/3
f 417/5/3 416/5/3 415/5/3
f 418/5/3 416/5/3 417/5/3
f 422/6/3 420/6/3 419/6/3
f 423/5/3 421/5/3 420/5/3
f 423/6/3 420/6/3 422/6/3
f 424/5/3 421/5/3 423/5/3
f 425/5/4 426/5/4 429/5/4
f 426/1/4 427/1/4 430/1/4
f 429/5/4 426/5/4 430/5/4
f 430/1/4 427/1/4 431/1/4
f 428/5/4 429/5/4 432/5/4
f 429/1/4 430/1/4 433/1/4
f 432/5/4 429/5/4 433/5/4
f 430/3/4 431/3/4 434/3/4
f 433/1/4 430/1/4 434/1/4
f 434/3/4 431/3/4 435/3/4
f 428/5/4 432/5/4 436/5/4
f 436/5/4 432/5/4 437/5/4
f 433/5/4 434/5/4 438/5/4
f 434/1/4 435/1/4 439/1/4
f 438/5/4 434/5/4 439/5/4
f 439/1/4 435/1/4 440/1/4
f 439/5/4 440/5/4 441/5/4
f 441/5/4 440/5/4 442/5/4
f 443/5/4 444/5/4 445/5/4
f 445/5/4 444/5/4 446/5/4
f 447/5/4 448/5/4 451/5/4
f 451/5/4 448/5/4 452/5/4
f 449/4/4 450/4/4 453/4/4
f 453/4/4 450/4/4 454/4/4
f 455/6/4 456/6/4 460/6/4
f 456/5/4 457/5/4 461/5/4
f 460/6/4 456/6/4 461/6/4
f 461/5/4 457/5/4 462/5/4
f 458/5/4 459/5/4 464/5/4
f 464/5/4 459/5/4 465/5/4
f 462/5/4 463/5/4 468/5/4
f 468/5/4 463/5/4 469/5/4
f 466/6/4 467/6/4 472/6/4
f 467/5/4 468/5/4 473/5/4
f 472/6/4 467/6/4 473/6/4
f 473/5/4 468/5/4 474/5/4
f 474/5/4 468/5/4 475/5/4
f 475/5/4 468/5/4 476/5/4
f 476/5/4 468/5/4 477/5/4
f 477/5/4 468/5/4 478/5/4
f 470/5/4 471/5/4 479/5/4
f 479/5/4 471/5/4 480/5/4
f 474/5/4 475/5/4 481/5/4
f 481/5/4 475/5/4 482/5/4
f 476/5/4 477/5/4 483/5/4
f 483/5/4 477/5/4 484/5/4
f 485/5/4 486/5/4 489/5/4
f 487/5/4 488/5/4 491/5/4
f 489/5/4 490/5/4 493/5/4
f 485/5/4 489/5/4 493/5/4
f 493/5/4 490/5/4 494/5/4
f 491/5/4 492/5/4 495/5/4
f 487/5/4 491/5/4 495/5/4
f 495/5/4 492/5/4 496/5/4
f 485/5/4 493/5/4 497/5/4
f 497/5/4 493/5/4 498/5/4
f 487/5/4 495/5/4 499/5/4
f 499/5/4 495/5/4 500/5/4
f 501/5/4 502/5/4 504/5/4
f 504/5/4 502/5/4 505/5/4
f 503/5/4 504/5/4 506/5/4
f 506/5/4 504/5/4 507/5/4
f 508/5/4 509/5/4 512/5/4
f 512/5/4 509/5/4 513/5/4
f 510/4/4 511/4/4 515/4/4
f 515/4/4 511/4/4 516/4/4
f 513/5/4 514/5/4 517/5/4
f 517/5/4 514/5/4 518/5/4
f 519/5/4 520/5/4 522/5/4
f 522/5/4 520/5/4 523/5/4
f 521/5/4 522/5/4 527/5/4
f 527/5/4 522/5/4 528/5/4
f 524/2/4 525/2/4 529/2/4
f 529/2/4 525/2/4 530/2/4
f 526/5/4 527/5/4 531/5/4
f 531/5/4 527/5/4 532/5/4
f 532/5/4 533/5/4 534/5/4
f 534/5/4 533/5/4 535/5/4
f 535/5/4 536/5/4 539/5/4
f 536/6/4 537/6/4 540/6/4
f 539/5/4 536/5/4 540/5/4
f 537/5/4 538/5/4 541/5/4
f 540/6/4 537/6/4 541/6/4
f 541/5/4 538/5/4 542/5/4
f 543/5/4 544/5/4 546/5/4
f 545/5/4 546/5/4 548/5/4
f 547/5/4 548/5/4 549/5/4
f 548/5/4 546/5/4 550/5/4
f 549/5/4 548/5/4 550/5/4
f 550/5/4 546/5/4 551/5/4
f 546/5/4 544/5/4 552/5/4
f 551/5/4 546/5/4 552/5/4
f 550/5/4 551/5/4 553/5/4
f 551/6/4 552/6/4 554/6/4
f 553/5/4 551/5/4 554/5/4
f 552/5/4 544/5/4 555/5/4
f 554/6/4 552/6/4 555/6/4
f 555/5/4 544/5/4 556/5/4
f 556/5/4 544/5/4 557/5/4
f 560/6/5 559/6/5 558/6/5
f 561/6/5 559/6/5 560/6/5
f 562/5/5 561/5/5 560/5/5
f 563/5/5 561/5/5 562/5/5
f 567/5/5 565/5/5 564/5/5
f 568/5/5 565/5/5 567/5/5
f 570/6/5 567/6/5 566/6/5
f 571/5/5 568/5/5 567/5/5
f 571/6/5 567/6/5 570/6/5
f 572/6/5 569/6/5 568/6/5
f 572/5/5 568/5/5 571/5/5
f 573/6/5 569/6/5 572/6/5
f 574/5/5 571/5/5 570/5/5
f 574/5/5 572/5/5 571/5/5
f 574/5/5 573/5/5 572/5/5
f 575/5/5 573/5/5 574/5/5
f 576/5/5 573/5/5 575/5/5
f 577/5/5 573/5/5 576/5/5
f 578/5/5 576/5/5 575/5/5
f 579/5/5 576/5/5 578/5/5
f 584/6/5 581/6/5 580/6/5
f 585/5/5 582/5/5 581/5/5
f 585/6/5 581/6/5 584/6/5
f 586/5/5 582/5/5 585/5/5
f 589/6/5 584/6/5 583/6/5
f 590/6/5 584/6/5 589/6/5
f 591/5/5 587/5/5 586/5/5
f 592/5/5 587/5/5 591/5/5
f 594/5/5 589/5/5 588/5/5
f 595/5/5 593/5/5 592/5/5
f 596/5/5 594/5/5 588/5/5
f 597/5/5 594/5/5 596/5/5
f 600/5/5 593/5/5 595/5/5
f 601/5/5 593/5/5 600/5/5
f 602/5/5 598/5/5 597/5/5
f 603/5/5 598/5/5 602/5/5
f 604/5/5 600/5/5 599/5/5
f 605/5/5 600/5/5 604/5/5
f 606/5/5 604/5/5 603/5/5
f 607/5/5 604/5/5 606/5/5
f 613/6/5 609/6/5 608/6/5
f 614/6/5 609/6/5 613/6/5
f 615/6/5 611/6/5 610/6/5
f 616/6/5 611/6/5 615/6/5
f 618/5/5 613/5/5 612/5/5
f 619/5/5 613/5/5 618/5/5
f 620/5/5 617/5/5 616/5/5
f 621/5/5 617/5/5 620/5/5
f 626/5/5 623/5/5 622/5/5
f 627/5/5 623/5/5 626/5/5
f 630/5/5 625/5/5 624/5/5
f 631/5/5 625/5/5 630/5/5
f 632/5/5 628/5/5 627/5/5
f 633/5/5 628/5/5 632/5/5
f 634/5/5 630/5/5 629/5/5
f 635/5/5 630/5/5 634/5/5
f 638/5/5 637/5/5 636/5/5
f 639/5/5 637/5/5 638/5/5
f 642/4/5 641/4/5 640/4/5
f 644/4/5 642/4/5 640/4/5
f 644/4/5 643/4/5 642/4/5
f 645/4/5 643/4/5 644/4/5
f 646/4/5 643/4/5 645/4/5
f 647/4/5 643/4/5 646/4/5
f 652/5/5 649/5/5 648/5/5
f 653/5/5 649/5/5 652/5/5
f 654/2/5 651/2/5 650/2/5
f 655/2/5 651/2/5 654/2/5
f 660/5/5 657/5/5 656/5/5
f 661/5/5 657/5/5 660/5/5
f 662/5/5 659/5/5 658/5/5
f 663/5/5 659/5/5 662/5/5
f 667/2/5 665/2/5 664/2/5
f 668/2/5 665/2/5 667/2/5
f 671/5/5 667/5/5 666/5/5
f 672/5/5 667/5/5 671/5/5
f 673/5/5 670/5/5 669/5/5
f 674/5/5 670/5/5 673/5/5
f 677/5/5 676/5/5 675/5/5
f 678/5/5 676/5/5 677/5/5
f 679/5/5 677/5/5 675/5/5
f 680/5/5 676/5/5 678/5/5
f 681/5/5 679/5/5 675/5/5
f 681/5/5 680/5/5 679/5/5
f 682/5/5 676/5/5 680/5/5
f 682/5/5 680/5/5 681/5/5
f 683/6/6 684/6/6 687/6/6
f 687/6/6 684/6/6 688/6/6
f 685/6/6 686/6/6 689/6/6
f 689/6/6 686/6/6 690/6/6
f 691/5/6 692/5/6 695/5/6
f 695/5/6 692/5/6 696/5/6
f 693/5/6 694/5/6 697/5/6
f 697/5/6 694/5/6 698/5/6
f 699/5/6 700/5/6 702/5/6
f 702/5/6 700/5/6 703/5/6
f 701/5/6 702/5/6 705/5/6
f 703/5/6 704/5/6 705/5/6
f 702/5/6 703/5/6 705/5/6
f 705/5/6 704/5/6 706/5/6
f 701/5/6 705/5/6 707/5/6
f 707/5/6 705/5/6 708/5/6
f 706/5/6 704/5/6 709/5/6
f 709/5/6 704/5/6 710/5/6
f 711/5/6 712/5/6 713/5/6
f 713/5/6 712/5/6 714/5/6
f 715/5/6 716/5/6 719/5/6
f 719/5/6 716/5/6 720/5/6
f 717/4/6 718/4/6 721/4/6
f 721/4/6 718/4/6 722/4/6
f 722/4/6 723/4/6 724/4/6
f 721/4/6 722/4/6 724/4/6
f 724/4/6 723/4/6 725/4/6
f 725/4/6 723/4/6 726/4/6
f 727/5/6 728/5/6 731/5/6
f 731/5/6 728/5/6 732/5/6
f 729/5/6 730/5/6 733/5/6
f 733/5/6 730/5/6 734/5/6
f 735/4/6 736/4/6 739/4/6
f 739/4/6 736/4/6 740/4/6
f 737/5/6 738/5/6 741/5/6
f 741/5/6 738/5/6 742/5/6
f 743/4/6 744/4/6 745/4/6
f 745/4/6 744/4/6 746/4/6
f 747/5/6 748/5/6 753/5/6
f 748/1/6 749/1/6 753/1/6
f 749/3/6 750/3/6 754/3/6
f 753/1/6 749/1/6 754/1/6
f 750/1/6 751/1/6 755/1/6
f 754/3/6 750/3/6 755/3/6
f 751/5/6 752/5/6 756/5/6
f 755/1/6 751/1/6 756/1/6
f 756/5/6 752/5/6 757/5/6
f 747/5/6 753/5/6 758/5/6
f 747/5/6 758/5/6 761/5/6
f 759/7/6 760/7/6 762/7/6
f 762/7/6 760/7/6 763/7/6
f 757/5/6 752/5/6 764/5/6
f 762/5/6 763/5/6 765/5/6
f 763/5/6 764/5/6 765/5/6
f 747/5/6 761/5/6 765/5/6
f 761/5/6 762/5/6 765/5/6
f 764/5/6 752/5/6 766/5/6
f 765/5/6 764/5/6 766/5/6
f 767/5/6 768/5/6 770/5/6
f 770/5/6 768/5/6 771/5/6
f 769/5/6 770/5/6 775/5/6
f 775/5/6 770/5/6 776/5/6
f 771/5/6 772/5/6 777/5/6
f 777/5/6 772/5/6 778/5/6
f 773/2/6 774/2/6 780/2/6
f 776/5/6 777/5/6 781/5/6
f 781/5/6 777/5/6 782/5/6
f 779/2/6 780/2/6 783/2/6
f 780/2/6 774/2/6 784/2/6
f 783/2/6 780/2/6 784/2/6
f 785/5/6 786/5/6 787/5/6
f 787/5/6 786/5/6 788/5/6
f 789/5/6 790/5/6 793/5/6
f 793/5/6 790/5/6 794/5/6
f 791/5/6 792/5/6 795/5/6
f 795/5/6 792/5/6 796/5/6
f 797/5/6 798/5/6 799/5/6
f 799/5/6 798/5/6 800/5/6
f 800/5/6 798/5/6 801/5/6
f 801/5/6 798/5/6 802/5/6
f 800/5/6 801/5/6 803/5/6
f 803/5/6 801/5/6 804/5/6
