# MagicaVoxel @ Ephtracy

# group
o 

# material
mtllib drzewko-7.mtl
usemtl palette

# normals
vn -1 0 0
vn 1 0 0
vn 0 0 1
vn 0 0 -1
vn 0 -1 0
vn 0 1 0

# texcoords
vt 0.767578 0.5
vt 0.958984 0.5
vt 0.982422 0.5

# verts
v 57 0 -10.6
v 57 0 -10.7
v 57 0 -10.9
v 57 0.1 -10.6
v 57 0.1 -10.7
v 57 0.1 -10.9
v 57.1 0 -10.5
v 57.1 0 -10.6
v 57.1 0 -10.9
v 57.1 0 -11.1
v 57.1 0.1 -10.5
v 57.1 0.1 -10.6
v 57.1 0.1 -10.7
v 57.1 0.1 -10.9
v 57.1 0.1 -11.1
v 57.1 0.2 -10.7
v 57.1 0.2 -10.9
v 57.2 0 -10.4
v 57.2 0 -10.5
v 57.2 0 -11.1
v 57.2 0 -11.2
v 57.2 0.1 -10.4
v 57.2 0.1 -10.5
v 57.2 0.1 -10.6
v 57.2 0.1 -10.7
v 57.2 0.1 -10.9
v 57.2 0.1 -11
v 57.2 0.1 -11.1
v 57.2 0.1 -11.2
v 57.2 0.2 -10.6
v 57.2 0.2 -10.7
v 57.2 0.2 -10.8
v 57.2 0.2 -10.9
v 57.2 0.2 -11
v 57.2 0.6 -10.7
v 57.2 0.6 -10.8
v 57.3 0.1 -10.5
v 57.3 0.1 -10.6
v 57.3 0.1 -11
v 57.3 0.1 -11.1
v 57.3 0.2 -10.5
v 57.3 0.2 -10.6
v 57.3 0.2 -10.7
v 57.3 0.2 -10.8
v 57.3 0.2 -11
v 57.3 0.2 -11.1
v 57.3 0.6 -10.6
v 57.3 0.6 -10.7
v 57.3 0.6 -10.8
v 57.3 0.7 -10.6
v 57.3 0.7 -10.7
v 57.3 4.5 -10.6
v 57.3 4.5 -10.7
v 57.3 4.6 -10.6
v 57.3 4.6 -10.7
v 57.3 6.9 -10.6
v 57.3 6.9 -10.7
v 57.3 7 -10.9
v 57.3 7 -11
v 57.3 9.1 -10.9
v 57.3 9.1 -11
v 57.3 9.6 -10.7
v 57.3 9.6 -10.9
v 57.3 9.9 -10.9
v 57.3 9.9 -11
v 57.3 10 -10.9
v 57.3 10 -11
v 57.3 10.2 -10.9
v 57.3 10.2 -11
v 57.4 8.2 -10.9
v 57.4 8.2 -11
v 57.4 8.3 -10.9
v 57.4 8.3 -11
v 57.5 7.4 -10.8
v 57.5 7.4 -10.9
v 57.5 7.5 -10.8
v 57.5 7.6 -10.8
v 57.5 7.9 -10.8
v 57.5 7.9 -10.9
v 57.5 8 -10.9
v 57.5 8 -11
v 57.5 8.2 -10.8
v 57.5 8.2 -11
v 57.5 8.3 -10.9
v 57.5 8.3 -11
v 57.5 9.1 -10.9
v 57.5 9.1 -11
v 57.5 9.2 -10.9
v 57.5 9.2 -11
v 57.5 9.5 -10.9
v 57.5 9.5 -11
v 57.5 9.6 -10.9
v 57.5 9.6 -11
v 57.5 9.7 -10.9
v 57.5 9.7 -11
v 57.6 9.7 -10.8
v 57.6 9.7 -10.9
v 57.6 9.7 -11
v 57.6 9.8 -10.8
v 57.6 9.8 -11
v 57.7 9.8 -10.8
v 57.7 9.8 -11
v 57.7 9.9 -10.8
v 57.7 9.9 -11
v 57.8 8.2 -10.7
v 57.8 8.2 -11.2
v 57.8 8.3 -10.7
v 57.8 8.3 -11.2
v 57.8 9.9 -10.8
v 57.8 9.9 -11
v 57.8 10 -10.8
v 57.8 10 -11
v 57.9 8.2 -10.5
v 57.9 8.2 -10.7
v 57.9 8.2 -11.2
v 57.9 8.2 -11.4
v 57.9 8.3 -10.7
v 57.9 8.3 -11.2
v 57.9 8.4 -10.5
v 57.9 8.4 -11.4
v 58 7.7 -10.9
v 58 7.7 -11
v 58 7.8 -10.8
v 58 7.8 -10.9
v 58 7.8 -11
v 58 7.8 -11.1
v 58 7.9 -10.7
v 58 7.9 -10.8
v 58 7.9 -11.1
v 58 7.9 -11.2
v 58 8 -10.7
v 58 8 -10.8
v 58 8 -11.1
v 58 8 -11.2
v 58 8.1 -10.8
v 58 8.1 -10.9
v 58 8.1 -11
v 58 8.1 -11.1
v 58 8.2 -10.4
v 58 8.2 -10.5
v 58 8.2 -10.9
v 58 8.2 -11
v 58 8.4 -10.4
v 58 8.4 -10.5
v 58 9.3 -10.9
v 58 9.3 -11
v 58 9.6 -10.9
v 58 9.6 -11
v 58.1 7.6 -10.8
v 58.1 7.6 -11.1
v 58.1 7.7 -10.7
v 58.1 7.7 -10.8
v 58.1 7.7 -10.9
v 58.1 7.7 -11
v 58.1 7.7 -11.1
v 58.1 7.7 -11.2
v 58.1 7.8 -10.6
v 58.1 7.8 -10.7
v 58.1 7.8 -10.8
v 58.1 7.8 -10.9
v 58.1 7.8 -11
v 58.1 7.8 -11.1
v 58.1 7.8 -11.2
v 58.1 7.8 -11.3
v 58.1 7.9 -10.7
v 58.1 7.9 -10.8
v 58.1 7.9 -11.1
v 58.1 7.9 -11.2
v 58.1 8 -10.7
v 58.1 8 -10.8
v 58.1 8 -11.1
v 58.1 8 -11.2
v 58.1 8.1 -10.6
v 58.1 8.1 -10.7
v 58.1 8.1 -10.8
v 58.1 8.1 -10.9
v 58.1 8.1 -11
v 58.1 8.1 -11.1
v 58.1 8.1 -11.2
v 58.1 8.1 -11.3
v 58.1 8.2 -10.3
v 58.1 8.2 -10.4
v 58.1 8.2 -10.7
v 58.1 8.2 -10.8
v 58.1 8.2 -10.9
v 58.1 8.2 -11
v 58.1 8.2 -11.1
v 58.1 8.2 -11.2
v 58.1 8.2 -11.4
v 58.1 8.2 -11.5
v 58.1 8.3 -10.3
v 58.1 8.3 -10.4
v 58.1 8.3 -10.8
v 58.1 8.3 -11.1
v 58.1 8.4 -10.5
v 58.1 8.4 -11.4
v 58.1 8.4 -11.5
v 58.1 8.5 -10.5
v 58.1 8.5 -11.4
v 58.1 9.2 -10.9
v 58.1 9.2 -11
v 58.1 9.3 -10.9
v 58.1 9.3 -11
v 58.1 9.6 -10.9
v 58.1 9.6 -11
v 58.1 9.7 -10.9
v 58.1 9.7 -11
v 58.2 7.5 -10.9
v 58.2 7.5 -11
v 58.2 7.6 -10.7
v 58.2 7.6 -10.8
v 58.2 7.6 -10.9
v 58.2 7.6 -11
v 58.2 7.6 -11.1
v 58.2 7.6 -11.2
v 58.2 7.7 -10.6
v 58.2 7.7 -10.7
v 58.2 7.7 -10.8
v 58.2 7.7 -11.1
v 58.2 7.7 -11.2
v 58.2 7.7 -11.3
v 58.2 7.8 -10.6
v 58.2 7.8 -10.7
v 58.2 7.8 -11.2
v 58.2 7.8 -11.3
v 58.2 7.9 -10.5
v 58.2 7.9 -10.6
v 58.2 7.9 -11.3
v 58.2 7.9 -11.4
v 58.2 8 -10.5
v 58.2 8 -10.6
v 58.2 8 -11.3
v 58.2 8 -11.4
v 58.2 8.1 -10.6
v 58.2 8.1 -10.7
v 58.2 8.1 -11.2
v 58.2 8.1 -11.3
v 58.2 8.2 -10.6
v 58.2 8.2 -10.7
v 58.2 8.2 -10.8
v 58.2 8.2 -11.1
v 58.2 8.2 -11.2
v 58.2 8.2 -11.3
v 58.2 8.2 -11.5
v 58.2 8.2 -11.6
v 58.2 8.3 -10.7
v 58.2 8.3 -10.8
v 58.2 8.3 -11.1
v 58.2 8.3 -11.2
v 58.2 8.3 -11.5
v 58.2 8.3 -11.6
v 58.2 8.5 -10.6
v 58.2 8.5 -11.3
v 58.2 8.6 -10.6
v 58.2 8.6 -11.3
v 58.2 8.9 -10.8
v 58.2 8.9 -11.1
v 58.2 9 -10.8
v 58.2 9 -11.1
v 58.2 9.1 -10.9
v 58.2 9.1 -11
v 58.2 9.2 -10.9
v 58.2 9.2 -11
v 58.3 7.5 -10.8
v 58.3 7.5 -10.9
v 58.3 7.5 -11
v 58.3 7.5 -11.1
v 58.3 7.6 -10.6
v 58.3 7.6 -10.7
v 58.3 7.6 -10.8
v 58.3 7.6 -10.9
v 58.3 7.6 -11
v 58.3 7.6 -11.1
v 58.3 7.6 -11.2
v 58.3 7.6 -11.3
v 58.3 7.7 -10.6
v 58.3 7.7 -10.7
v 58.3 7.7 -11.2
v 58.3 7.7 -11.3
v 58.3 7.8 -10.5
v 58.3 7.8 -10.6
v 58.3 7.8 -11.3
v 58.3 7.8 -11.4
v 58.3 7.9 -10.5
v 58.3 7.9 -10.6
v 58.3 7.9 -11.3
v 58.3 7.9 -11.4
v 58.3 8 -10.5
v 58.3 8 -10.6
v 58.3 8 -11.3
v 58.3 8 -11.4
v 58.3 8.1 -10.5
v 58.3 8.1 -10.6
v 58.3 8.1 -11.3
v 58.3 8.1 -11.4
v 58.3 8.2 -10.6
v 58.3 8.2 -10.7
v 58.3 8.2 -11.2
v 58.3 8.2 -11.3
v 58.3 8.3 -10.6
v 58.3 8.3 -10.7
v 58.3 8.3 -11.2
v 58.3 8.3 -11.3
v 58.3 8.6 -10.8
v 58.3 8.6 -11
v 58.3 8.6 -11.1
v 58.3 8.8 -10.8
v 58.3 8.8 -10.9
v 58.3 8.8 -11
v 58.3 8.8 -11.1
v 58.3 8.9 -10.9
v 58.3 8.9 -11
v 58.4 7.5 -10.7
v 58.4 7.5 -10.8
v 58.4 7.5 -11.1
v 58.4 7.5 -11.2
v 58.4 7.6 -10.7
v 58.4 7.6 -10.8
v 58.4 7.6 -11.1
v 58.4 7.6 -11.2
v 58.4 7.7 -10.5
v 58.4 7.7 -10.6
v 58.4 7.7 -11.3
v 58.4 7.7 -11.4
v 58.4 7.8 -10.5
v 58.4 7.8 -10.6
v 58.4 7.8 -11.3
v 58.4 7.8 -11.4
v 58.4 8.1 -10.5
v 58.4 8.1 -10.6
v 58.4 8.1 -11.3
v 58.4 8.1 -11.4
v 58.4 8.2 -10.5
v 58.4 8.2 -10.6
v 58.4 8.2 -11.3
v 58.4 8.2 -11.4
v 58.4 9 -10.9
v 58.4 9 -11
v 58.4 9.1 -10.9
v 58.4 9.1 -11
v 58.4 9.8 -10.9
v 58.4 9.8 -11
v 58.4 9.9 -10.9
v 58.4 9.9 -11
v 58.5 9.7 -10.9
v 58.5 9.7 -11
v 58.5 9.8 -10.9
v 58.5 9.8 -11
v 58.6 9.2 -10.9
v 58.6 9.2 -11
v 58.6 9.3 -10.9
v 58.6 9.3 -11
v 58.6 9.5 -10.9
v 58.6 9.5 -11
v 58.6 9.7 -10.9
v 58.6 9.7 -11
v 58.7 9.3 -10.9
v 58.7 9.3 -11
v 58.7 9.5 -10.9
v 58.7 9.5 -11
v 58.8 8.2 -10.4
v 58.8 8.2 -10.5
v 58.8 8.2 -11.4
v 58.8 8.2 -11.5
v 58.8 8.3 -10.4
v 58.8 8.3 -10.5
v 58.8 8.3 -11.4
v 58.8 8.3 -11.5
v 58.9 8.2 -10.5
v 58.9 8.2 -10.7
v 58.9 8.2 -11.2
v 58.9 8.2 -11.4
v 58.9 8.3 -10.5
v 58.9 8.3 -10.7
v 58.9 8.3 -11.2
v 58.9 8.3 -11.4
v 59 8.2 -10.7
v 59 8.2 -10.8
v 59 8.2 -10.9
v 59 8.2 -11
v 59 8.2 -11.1
v 59 8.2 -11.2
v 59 8.3 -10.7
v 59 8.3 -10.8
v 59 8.3 -10.9
v 59 8.3 -11
v 59 8.3 -11.1
v 59 8.3 -11.2
v 57.4 0.6 -10.9
v 57.4 0.6 -11
v 57.4 0.7 -10.6
v 57.4 0.7 -10.7
v 57.4 2.6 -10.7
v 57.4 2.7 -10.7
v 57.4 2.7 -10.9
v 57.4 2.8 -10.7
v 57.4 2.8 -10.9
v 57.4 2.9 -10.7
v 57.4 4.4 -10.7
v 57.4 4.5 -10.6
v 57.4 4.5 -10.7
v 57.4 4.6 -10.6
v 57.4 4.6 -10.7
v 57.4 4.8 -10.7
v 57.4 6.9 -10.6
v 57.4 6.9 -10.7
v 57.4 6.9 -10.9
v 57.4 6.9 -11
v 57.4 7 -10.7
v 57.4 7 -10.9
v 57.4 7.5 -10.7
v 57.4 7.5 -10.8
v 57.4 7.6 -10.7
v 57.4 7.6 -10.8
v 57.4 8.2 -10.8
v 57.4 8.2 -10.9
v 57.4 8.3 -10.8
v 57.4 8.3 -10.9
v 57.4 9.1 -10.7
v 57.4 9.1 -10.9
v 57.4 9.2 -10.7
v 57.4 9.2 -11
v 57.4 9.5 -10.7
v 57.4 9.5 -11
v 57.4 9.6 -10.9
v 57.4 9.6 -11
v 57.4 9.9 -10.9
v 57.4 9.9 -11
v 57.4 10 -10.9
v 57.4 10 -11
v 57.4 10.1 -10.9
v 57.4 10.1 -11
v 57.4 10.2 -10.9
v 57.4 10.2 -11
v 57.5 0.1 -10.5
v 57.5 0.1 -10.6
v 57.5 0.1 -11
v 57.5 0.1 -11.1
v 57.5 0.2 -10.5
v 57.5 0.2 -10.6
v 57.5 0.2 -10.7
v 57.5 0.2 -10.9
v 57.5 0.2 -11
v 57.5 0.2 -11.1
v 57.5 0.6 -10.6
v 57.5 0.6 -10.7
v 57.5 0.6 -10.9
v 57.5 0.6 -11
v 57.5 2.6 -10.7
v 57.5 2.6 -10.8
v 57.5 2.7 -10.7
v 57.5 2.7 -10.8
v 57.5 2.7 -10.9
v 57.5 2.8 -10.7
v 57.5 2.8 -10.8
v 57.5 2.8 -10.9
v 57.5 2.9 -10.7
v 57.5 2.9 -10.8
v 57.5 4.4 -10.7
v 57.5 4.4 -10.8
v 57.5 4.5 -10.7
v 57.5 4.5 -10.8
v 57.5 4.6 -10.7
v 57.5 4.6 -10.8
v 57.5 4.8 -10.7
v 57.5 4.8 -10.8
v 57.5 6.9 -10.9
v 57.5 6.9 -11
v 57.5 7 -10.7
v 57.5 7 -11
v 57.5 7.5 -10.7
v 57.5 7.5 -10.8
v 57.5 7.6 -10.7
v 57.5 7.6 -10.8
v 57.5 8.2 -10.8
v 57.5 8.2 -10.9
v 57.5 8.3 -10.8
v 57.5 8.3 -10.9
v 57.5 9.1 -10.7
v 57.5 9.1 -10.9
v 57.5 9.2 -10.7
v 57.5 9.2 -10.9
v 57.5 9.5 -10.7
v 57.5 9.5 -10.9
v 57.5 9.6 -10.7
v 57.5 9.6 -10.9
v 57.5 10 -10.9
v 57.5 10 -11
v 57.5 10.1 -10.9
v 57.5 10.1 -11
v 57.6 0 -10.4
v 57.6 0 -10.5
v 57.6 0 -11.1
v 57.6 0 -11.2
v 57.6 0.1 -10.4
v 57.6 0.1 -10.5
v 57.6 0.1 -10.6
v 57.6 0.1 -10.7
v 57.6 0.1 -10.9
v 57.6 0.1 -11
v 57.6 0.1 -11.1
v 57.6 0.1 -11.2
v 57.6 0.2 -10.6
v 57.6 0.2 -10.7
v 57.6 0.2 -10.9
v 57.6 0.2 -11
v 57.6 0.6 -10.7
v 57.6 0.6 -10.9
v 57.6 7.4 -10.8
v 57.6 7.4 -10.9
v 57.6 7.9 -10.8
v 57.6 7.9 -10.9
v 57.6 8 -10.9
v 57.6 8 -11
v 57.6 8.2 -10.8
v 57.6 8.2 -10.9
v 57.6 9.7 -10.9
v 57.6 9.7 -11
v 57.7 0 -10.5
v 57.7 0 -10.6
v 57.7 0 -11
v 57.7 0 -11.1
v 57.7 0.1 -10.5
v 57.7 0.1 -10.6
v 57.7 0.1 -10.7
v 57.7 0.1 -10.8
v 57.7 0.1 -10.9
v 57.7 0.1 -11
v 57.7 0.1 -11.1
v 57.7 0.2 -10.7
v 57.7 0.2 -10.9
v 57.7 9.7 -10.8
v 57.7 9.7 -11
v 57.7 9.8 -10.8
v 57.7 9.8 -11
v 57.8 0 -10.6
v 57.8 0 -10.7
v 57.8 0 -10.8
v 57.8 0 -11
v 57.8 0.1 -10.6
v 57.8 0.1 -10.7
v 57.8 0.1 -10.8
v 57.8 0.1 -11
v 57.8 9.8 -10.8
v 57.8 9.8 -11
v 57.8 9.9 -10.8
v 57.8 9.9 -11
v 58 8.2 -10.8
v 58 8.2 -10.9
v 58 8.2 -11
v 58 8.2 -11.2
v 58 8.3 -10.8
v 58 8.3 -11.2
v 58.1 8.2 -10.5
v 58.1 8.2 -10.7
v 58.1 8.2 -10.8
v 58.1 8.2 -11.2
v 58.1 8.2 -11.4
v 58.1 8.3 -10.5
v 58.1 8.3 -10.8
v 58.1 8.3 -11.2
v 58.1 8.3 -11.4
v 58.1 9.3 -10.9
v 58.1 9.3 -11
v 58.1 9.6 -10.9
v 58.1 9.6 -11
v 58.2 8.2 -10.4
v 58.2 8.2 -10.5
v 58.2 8.2 -11.4
v 58.2 8.2 -11.5
v 58.2 8.3 -10.4
v 58.2 8.3 -10.5
v 58.2 8.3 -11.4
v 58.2 8.3 -11.5
v 58.2 9.2 -10.9
v 58.2 9.2 -11
v 58.2 9.3 -10.9
v 58.2 9.3 -11
v 58.2 9.6 -10.9
v 58.2 9.6 -11
v 58.2 9.7 -10.9
v 58.2 9.7 -11
v 58.4 9.9 -10.8
v 58.4 9.9 -10.9
v 58.4 9.9 -11
v 58.4 10 -10.8
v 58.4 10 -11
v 58.5 7.5 -10.7
v 58.5 7.5 -10.8
v 58.5 7.5 -11.1
v 58.5 7.5 -11.2
v 58.5 7.6 -10.7
v 58.5 7.6 -10.8
v 58.5 7.6 -11.1
v 58.5 7.6 -11.2
v 58.5 7.7 -10.5
v 58.5 7.7 -10.6
v 58.5 7.7 -11.3
v 58.5 7.7 -11.4
v 58.5 7.8 -10.5
v 58.5 7.8 -10.6
v 58.5 7.8 -11.3
v 58.5 7.8 -11.4
v 58.5 8.1 -10.5
v 58.5 8.1 -10.6
v 58.5 8.1 -11.3
v 58.5 8.1 -11.4
v 58.5 8.2 -10.5
v 58.5 8.2 -10.6
v 58.5 8.2 -11.3
v 58.5 8.2 -11.4
v 58.5 9 -10.9
v 58.5 9 -11
v 58.5 9.1 -10.9
v 58.5 9.1 -11
v 58.5 9.8 -10.9
v 58.5 9.8 -11
v 58.5 9.9 -10.9
v 58.5 9.9 -11
v 58.6 7.5 -10.8
v 58.6 7.5 -10.9
v 58.6 7.5 -11
v 58.6 7.5 -11.1
v 58.6 7.6 -10.6
v 58.6 7.6 -10.7
v 58.6 7.6 -10.8
v 58.6 7.6 -10.9
v 58.6 7.6 -11
v 58.6 7.6 -11.1
v 58.6 7.6 -11.2
v 58.6 7.6 -11.3
v 58.6 7.7 -10.6
v 58.6 7.7 -10.7
v 58.6 7.7 -11.2
v 58.6 7.7 -11.3
v 58.6 7.8 -10.5
v 58.6 7.8 -10.6
v 58.6 7.8 -11.3
v 58.6 7.8 -11.4
v 58.6 7.9 -10.5
v 58.6 7.9 -10.6
v 58.6 7.9 -11.3
v 58.6 7.9 -11.4
v 58.6 8 -10.5
v 58.6 8 -10.6
v 58.6 8 -11.3
v 58.6 8 -11.4
v 58.6 8.1 -10.5
v 58.6 8.1 -10.6
v 58.6 8.1 -11.3
v 58.6 8.1 -11.4
v 58.6 8.2 -10.6
v 58.6 8.2 -10.7
v 58.6 8.2 -11.2
v 58.6 8.2 -11.3
v 58.6 8.3 -10.6
v 58.6 8.3 -10.7
v 58.6 8.3 -11.2
v 58.6 8.3 -11.3
v 58.6 8.6 -10.8
v 58.6 8.6 -11.1
v 58.6 8.8 -10.8
v 58.6 8.8 -10.9
v 58.6 8.8 -11
v 58.6 8.8 -11.1
v 58.6 8.9 -10.9
v 58.6 8.9 -11
v 58.6 9.1 -10.9
v 58.6 9.1 -11
v 58.6 9.2 -10.9
v 58.6 9.2 -11
v 58.6 9.7 -10.9
v 58.6 9.7 -11
v 58.6 9.8 -10.9
v 58.6 9.8 -11
v 58.7 7.5 -10.9
v 58.7 7.5 -11
v 58.7 7.6 -10.7
v 58.7 7.6 -10.8
v 58.7 7.6 -10.9
v 58.7 7.6 -11
v 58.7 7.6 -11.1
v 58.7 7.6 -11.2
v 58.7 7.7 -10.6
v 58.7 7.7 -10.7
v 58.7 7.7 -10.8
v 58.7 7.7 -11.1
v 58.7 7.7 -11.2
v 58.7 7.7 -11.3
v 58.7 7.8 -10.6
v 58.7 7.8 -10.7
v 58.7 7.8 -11.2
v 58.7 7.8 -11.3
v 58.7 7.9 -10.5
v 58.7 7.9 -10.6
v 58.7 7.9 -11.3
v 58.7 7.9 -11.4
v 58.7 8 -10.5
v 58.7 8 -10.6
v 58.7 8 -11.3
v 58.7 8 -11.4
v 58.7 8.1 -10.6
v 58.7 8.1 -10.7
v 58.7 8.1 -11.2
v 58.7 8.1 -11.3
v 58.7 8.2 -10.6
v 58.7 8.2 -10.7
v 58.7 8.2 -10.8
v 58.7 8.2 -11.1
v 58.7 8.2 -11.2
v 58.7 8.2 -11.3
v 58.7 8.3 -10.7
v 58.7 8.3 -10.8
v 58.7 8.3 -11.1
v 58.7 8.3 -11.2
v 58.7 8.5 -10.6
v 58.7 8.5 -11.3
v 58.7 8.6 -10.6
v 58.7 8.6 -11.3
v 58.7 8.9 -10.8
v 58.7 8.9 -11.1
v 58.7 9 -10.8
v 58.7 9 -11.1
v 58.7 9.2 -10.9
v 58.7 9.2 -11
v 58.7 9.3 -10.9
v 58.7 9.3 -11
v 58.7 9.6 -10.9
v 58.7 9.6 -11
v 58.7 9.7 -10.9
v 58.7 9.7 -11
v 58.8 7.6 -10.8
v 58.8 7.6 -11.1
v 58.8 7.7 -10.7
v 58.8 7.7 -10.8
v 58.8 7.7 -10.9
v 58.8 7.7 -11
v 58.8 7.7 -11.1
v 58.8 7.7 -11.2
v 58.8 7.8 -10.6
v 58.8 7.8 -10.7
v 58.8 7.8 -10.8
v 58.8 7.8 -10.9
v 58.8 7.8 -11
v 58.8 7.8 -11.1
v 58.8 7.8 -11.2
v 58.8 7.8 -11.3
v 58.8 7.9 -10.7
v 58.8 7.9 -10.8
v 58.8 7.9 -11.1
v 58.8 7.9 -11.2
v 58.8 8 -10.7
v 58.8 8 -10.8
v 58.8 8 -11.1
v 58.8 8 -11.2
v 58.8 8.1 -10.6
v 58.8 8.1 -10.7
v 58.8 8.1 -10.8
v 58.8 8.1 -10.9
v 58.8 8.1 -11
v 58.8 8.1 -11.1
v 58.8 8.1 -11.2
v 58.8 8.1 -11.3
v 58.8 8.2 -10.3
v 58.8 8.2 -10.4
v 58.8 8.2 -10.7
v 58.8 8.2 -10.8
v 58.8 8.2 -10.9
v 58.8 8.2 -11
v 58.8 8.2 -11.1
v 58.8 8.2 -11.2
v 58.8 8.2 -11.5
v 58.8 8.2 -11.6
v 58.8 8.3 -10.3
v 58.8 8.3 -10.4
v 58.8 8.3 -10.8
v 58.8 8.3 -11.1
v 58.8 8.3 -11.5
v 58.8 8.3 -11.6
v 58.8 8.4 -10.5
v 58.8 8.4 -11.4
v 58.8 8.5 -10.5
v 58.8 8.5 -11.4
v 58.8 9.3 -10.9
v 58.8 9.3 -11
v 58.8 9.6 -10.9
v 58.8 9.6 -11
v 58.9 7.7 -10.9
v 58.9 7.7 -11
v 58.9 7.8 -10.8
v 58.9 7.8 -10.9
v 58.9 7.8 -11
v 58.9 7.8 -11.1
v 58.9 7.9 -10.7
v 58.9 7.9 -10.8
v 58.9 7.9 -11.1
v 58.9 7.9 -11.2
v 58.9 8 -10.7
v 58.9 8 -10.8
v 58.9 8 -11.1
v 58.9 8 -11.2
v 58.9 8.1 -10.8
v 58.9 8.1 -10.9
v 58.9 8.1 -11
v 58.9 8.1 -11.1
v 58.9 8.2 -10.4
v 58.9 8.2 -10.5
v 58.9 8.2 -10.9
v 58.9 8.2 -11
v 58.9 8.2 -11.4
v 58.9 8.2 -11.5
v 58.9 8.4 -10.4
v 58.9 8.4 -10.5
v 58.9 8.4 -11.4
v 58.9 8.4 -11.5
v 59 8.2 -10.5
v 59 8.2 -10.7
v 59 8.2 -11.2
v 59 8.2 -11.4
v 59 8.3 -10.7
v 59 8.3 -10.8
v 59 8.3 -10.9
v 59 8.3 -11
v 59 8.3 -11.1
v 59 8.3 -11.2
v 59 8.4 -10.5
v 59 8.4 -10.9
v 59 8.4 -11
v 59 8.4 -11.4
v 59.1 8.2 -10.7
v 59.1 8.2 -10.8
v 59.1 8.2 -10.9
v 59.1 8.2 -11
v 59.1 8.2 -11.1
v 59.1 8.2 -11.2
v 59.1 8.3 -10.7
v 59.1 8.3 -10.8
v 59.1 8.3 -10.9
v 59.1 8.3 -11
v 59.1 8.3 -11.1
v 59.1 8.3 -11.2
v 58.1 8.2 -10.3
v 58.1 8.3 -10.3
v 58.2 8.2 -10.3
v 58.2 8.3 -10.3
v 58.4 8.2 -10.3
v 58.4 8.3 -10.3
v 58.6 8.2 -10.3
v 58.6 8.3 -10.3
v 58.8 8.2 -10.3
v 58.8 8.3 -10.3
v 57.2 0 -10.4
v 57.2 0.1 -10.4
v 57.3 0 -10.4
v 57.3 0.1 -10.4
v 57.6 0 -10.4
v 57.6 0.1 -10.4
v 58 8.2 -10.4
v 58 8.4 -10.4
v 58.1 8.2 -10.4
v 58.1 8.3 -10.4
v 58.2 8.3 -10.4
v 58.2 8.4 -10.4
v 58.4 8.3 -10.4
v 58.4 8.4 -10.4
v 58.6 8.3 -10.4
v 58.8 8.2 -10.4
v 58.8 8.3 -10.4
v 58.9 8.2 -10.4
v 58.9 8.4 -10.4
v 57.1 0 -10.5
v 57.1 0.1 -10.5
v 57.2 0 -10.5
v 57.2 0.1 -10.5
v 57.3 0.1 -10.5
v 57.3 0.2 -10.5
v 57.5 0.1 -10.5
v 57.5 0.2 -10.5
v 57.6 0 -10.5
v 57.6 0.1 -10.5
v 57.7 0 -10.5
v 57.7 0.1 -10.5
v 57.9 8.2 -10.5
v 57.9 8.4 -10.5
v 58 8.2 -10.5
v 58 8.4 -10.5
v 58.1 8.4 -10.5
v 58.1 8.5 -10.5
v 58.2 7.9 -10.5
v 58.2 8 -10.5
v 58.2 8.4 -10.5
v 58.3 7.8 -10.5
v 58.3 7.9 -10.5
v 58.3 8 -10.5
v 58.3 8.1 -10.5
v 58.4 7.7 -10.5
v 58.4 7.8 -10.5
v 58.4 8.1 -10.5
v 58.4 8.2 -10.5
v 58.4 8.4 -10.5
v 58.5 7.7 -10.5
v 58.5 7.8 -10.5
v 58.5 8.1 -10.5
v 58.5 8.2 -10.5
v 58.6 7.8 -10.5
v 58.6 7.9 -10.5
v 58.6 8 -10.5
v 58.6 8.1 -10.5
v 58.7 7.9 -10.5
v 58.7 8 -10.5
v 58.8 8.4 -10.5
v 58.8 8.5 -10.5
v 58.9 8.2 -10.5
v 58.9 8.4 -10.5
v 59 8.2 -10.5
v 59 8.4 -10.5
v 57 0 -10.6
v 57 0.1 -10.6
v 57.1 0 -10.6
v 57.1 0.1 -10.6
v 57.2 0.1 -10.6
v 57.2 0.2 -10.6
v 57.3 0.1 -10.6
v 57.3 0.2 -10.6
v 57.3 0.6 -10.6
v 57.3 0.7 -10.6
v 57.3 4.5 -10.6
v 57.3 4.6 -10.6
v 57.3 6.9 -10.6
v 57.4 0.7 -10.6
v 57.4 4.5 -10.6
v 57.4 4.6 -10.6
v 57.4 6.9 -10.6
v 57.5 0.1 -10.6
v 57.5 0.2 -10.6
v 57.5 0.6 -10.6
v 57.6 0.1 -10.6
v 57.6 0.2 -10.6
v 57.7 0 -10.6
v 57.7 0.1 -10.6
v 57.8 0 -10.6
v 57.8 0.1 -10.6
v 58.1 7.8 -10.6
v 58.1 8.1 -10.6
v 58.2 7.7 -10.6
v 58.2 7.8 -10.6
v 58.2 7.9 -10.6
v 58.2 8 -10.6
v 58.2 8.1 -10.6
v 58.2 8.2 -10.6
v 58.2 8.5 -10.6
v 58.2 8.6 -10.6
v 58.3 7.6 -10.6
v 58.3 7.7 -10.6
v 58.3 7.8 -10.6
v 58.3 7.9 -10.6
v 58.3 8 -10.6
v 58.3 8.1 -10.6
v 58.3 8.2 -10.6
v 58.3 8.3 -10.6
v 58.4 7.7 -10.6
v 58.4 7.8 -10.6
v 58.4 8.1 -10.6
v 58.4 8.2 -10.6
v 58.4 8.5 -10.6
v 58.4 8.6 -10.6
v 58.5 7.7 -10.6
v 58.5 7.8 -10.6
v 58.5 8.1 -10.6
v 58.5 8.2 -10.6
v 58.5 8.5 -10.6
v 58.5 8.6 -10.6
v 58.6 7.6 -10.6
v 58.6 7.7 -10.6
v 58.6 7.8 -10.6
v 58.6 7.9 -10.6
v 58.6 8 -10.6
v 58.6 8.1 -10.6
v 58.6 8.2 -10.6
v 58.6 8.3 -10.6
v 58.7 7.7 -10.6
v 58.7 7.8 -10.6
v 58.7 7.9 -10.6
v 58.7 8 -10.6
v 58.7 8.1 -10.6
v 58.7 8.2 -10.6
v 58.7 8.5 -10.6
v 58.7 8.6 -10.6
v 58.8 7.8 -10.6
v 58.8 8.1 -10.6
v 57.1 0.1 -10.7
v 57.1 0.2 -10.7
v 57.2 0.1 -10.7
v 57.2 0.2 -10.7
v 57.2 0.6 -10.7
v 57.3 0.2 -10.7
v 57.3 0.6 -10.7
v 57.3 0.7 -10.7
v 57.3 6.9 -10.7
v 57.3 9.6 -10.7
v 57.4 0.7 -10.7
v 57.4 2.6 -10.7
v 57.4 2.7 -10.7
v 57.4 2.8 -10.7
v 57.4 2.9 -10.7
v 57.4 4.4 -10.7
v 57.4 4.5 -10.7
v 57.4 4.6 -10.7
v 57.4 4.8 -10.7
v 57.4 6.9 -10.7
v 57.4 7 -10.7
v 57.4 7.5 -10.7
v 57.4 7.6 -10.7
v 57.4 9.1 -10.7
v 57.4 9.2 -10.7
v 57.4 9.5 -10.7
v 57.5 0.2 -10.7
v 57.5 0.6 -10.7
v 57.5 2.6 -10.7
v 57.5 2.7 -10.7
v 57.5 2.8 -10.7
v 57.5 2.9 -10.7
v 57.5 4.4 -10.7
v 57.5 4.5 -10.7
v 57.5 4.6 -10.7
v 57.5 4.8 -10.7
v 57.5 7 -10.7
v 57.5 7.5 -10.7
v 57.5 7.6 -10.7
v 57.5 9.1 -10.7
v 57.5 9.2 -10.7
v 57.5 9.5 -10.7
v 57.5 9.6 -10.7
v 57.6 0.1 -10.7
v 57.6 0.2 -10.7
v 57.6 0.6 -10.7
v 57.7 0.1 -10.7
v 57.7 0.2 -10.7
v 57.8 8.2 -10.7
v 57.8 8.3 -10.7
v 57.9 8.2 -10.7
v 57.9 8.3 -10.7
v 58 7.9 -10.7
v 58 8 -10.7
v 58.1 7.7 -10.7
v 58.1 7.8 -10.7
v 58.1 7.9 -10.7
v 58.1 8 -10.7
v 58.1 8.1 -10.7
v 58.1 8.2 -10.7
v 58.2 7.6 -10.7
v 58.2 7.7 -10.7
v 58.2 7.8 -10.7
v 58.2 8.1 -10.7
v 58.2 8.2 -10.7
v 58.2 8.3 -10.7
v 58.3 7.6 -10.7
v 58.3 7.7 -10.7
v 58.3 8.2 -10.7
v 58.3 8.3 -10.7
v 58.4 7.5 -10.7
v 58.4 7.6 -10.7
v 58.5 7.5 -10.7
v 58.5 7.6 -10.7
v 58.6 7.6 -10.7
v 58.6 7.7 -10.7
v 58.6 8.2 -10.7
v 58.6 8.3 -10.7
v 58.7 7.6 -10.7
v 58.7 7.7 -10.7
v 58.7 7.8 -10.7
v 58.7 8.1 -10.7
v 58.7 8.2 -10.7
v 58.7 8.3 -10.7
v 58.8 7.7 -10.7
v 58.8 7.8 -10.7
v 58.8 7.9 -10.7
v 58.8 8 -10.7
v 58.8 8.1 -10.7
v 58.8 8.2 -10.7
v 58.9 7.9 -10.7
v 58.9 8 -10.7
v 59 8.2 -10.7
v 59 8.3 -10.7
v 59.1 8.2 -10.7
v 59.1 8.3 -10.7
v 57.4 8.2 -10.8
v 57.4 8.3 -10.8
v 57.5 7.4 -10.8
v 57.5 7.5 -10.8
v 57.5 7.6 -10.8
v 57.5 7.9 -10.8
v 57.5 8.2 -10.8
v 57.5 8.3 -10.8
v 57.6 7.4 -10.8
v 57.6 7.9 -10.8
v 57.6 8.2 -10.8
v 57.6 9.7 -10.8
v 57.6 9.8 -10.8
v 57.7 9.7 -10.8
v 57.7 9.8 -10.8
v 57.7 9.9 -10.8
v 57.8 9.8 -10.8
v 57.8 9.9 -10.8
v 57.8 10 -10.8
v 58 7.8 -10.8
v 58 7.9 -10.8
v 58 8 -10.8
v 58 8.1 -10.8
v 58.1 7.6 -10.8
v 58.1 7.7 -10.8
v 58.1 7.8 -10.8
v 58.1 7.9 -10.8
v 58.1 8 -10.8
v 58.1 8.1 -10.8
v 58.1 8.2 -10.8
v 58.1 8.3 -10.8
v 58.2 7.6 -10.8
v 58.2 7.7 -10.8
v 58.2 8.2 -10.8
v 58.2 8.3 -10.8
v 58.2 8.9 -10.8
v 58.2 9 -10.8
v 58.3 7.5 -10.8
v 58.3 7.6 -10.8
v 58.3 8.6 -10.8
v 58.3 8.8 -10.8
v 58.4 7.5 -10.8
v 58.4 7.6 -10.8
v 58.4 8.6 -10.8
v 58.4 8.8 -10.8
v 58.4 8.9 -10.8
v 58.4 9 -10.8
v 58.4 9.9 -10.8
v 58.4 10 -10.8
v 58.5 7.5 -10.8
v 58.5 7.6 -10.8
v 58.5 8.9 -10.8
v 58.5 9 -10.8
v 58.6 7.5 -10.8
v 58.6 7.6 -10.8
v 58.6 8.6 -10.8
v 58.6 8.8 -10.8
v 58.7 7.6 -10.8
v 58.7 7.7 -10.8
v 58.7 8.2 -10.8
v 58.7 8.3 -10.8
v 58.7 8.9 -10.8
v 58.7 9 -10.8
v 58.8 7.6 -10.8
v 58.8 7.7 -10.8
v 58.8 7.8 -10.8
v 58.8 7.9 -10.8
v 58.8 8 -10.8
v 58.8 8.1 -10.8
v 58.8 8.2 -10.8
v 58.8 8.3 -10.8
v 58.9 7.8 -10.8
v 58.9 7.9 -10.8
v 58.9 8 -10.8
v 58.9 8.1 -10.8
v 57.3 9.6 -10.9
v 57.3 9.9 -10.9
v 57.3 10 -10.9
v 57.3 10.2 -10.9
v 57.4 9.6 -10.9
v 57.4 9.9 -10.9
v 57.4 10 -10.9
v 57.4 10.1 -10.9
v 57.4 10.2 -10.9
v 57.5 8.2 -10.9
v 57.5 8.3 -10.9
v 57.5 9.1 -10.9
v 57.5 9.2 -10.9
v 57.5 9.5 -10.9
v 57.5 9.6 -10.9
v 57.5 9.7 -10.9
v 57.5 10 -10.9
v 57.5 10.1 -10.9
v 57.6 8.2 -10.9
v 57.6 9.7 -10.9
v 58 7.7 -10.9
v 58 7.8 -10.9
v 58 8.1 -10.9
v 58 8.2 -10.9
v 58 9.3 -10.9
v 58 9.6 -10.9
v 58.1 7.7 -10.9
v 58.1 7.8 -10.9
v 58.1 8.1 -10.9
v 58.1 8.2 -10.9
v 58.1 9.2 -10.9
v 58.1 9.3 -10.9
v 58.1 9.6 -10.9
v 58.1 9.7 -10.9
v 58.2 7.5 -10.9
v 58.2 7.6 -10.9
v 58.2 9.1 -10.9
v 58.2 9.2 -10.9
v 58.2 9.3 -10.9
v 58.2 9.6 -10.9
v 58.2 9.7 -10.9
v 58.3 7.5 -10.9
v 58.3 7.6 -10.9
v 58.3 8.8 -10.9
v 58.3 8.9 -10.9
v 58.3 9.1 -10.9
v 58.3 9.2 -10.9
v 58.4 8.8 -10.9
v 58.4 8.9 -10.9
v 58.4 9 -10.9
v 58.4 9.1 -10.9
v 58.4 9.2 -10.9
v 58.4 9.8 -10.9
v 58.4 9.9 -10.9
v 58.5 8.9 -10.9
v 58.5 9 -10.9
v 58.5 9.1 -10.9
v 58.5 9.2 -10.9
v 58.5 9.7 -10.9
v 58.5 9.8 -10.9
v 58.5 9.9 -10.9
v 58.6 7.5 -10.9
v 58.6 7.6 -10.9
v 58.6 8.8 -10.9
v 58.6 8.9 -10.9
v 58.6 9.1 -10.9
v 58.6 9.2 -10.9
v 58.6 9.3 -10.9
v 58.6 9.5 -10.9
v 58.6 9.7 -10.9
v 58.6 9.8 -10.9
v 58.7 7.5 -10.9
v 58.7 7.6 -10.9
v 58.7 9.2 -10.9
v 58.7 9.3 -10.9
v 58.7 9.5 -10.9
v 58.7 9.6 -10.9
v 58.7 9.7 -10.9
v 58.8 7.7 -10.9
v 58.8 7.8 -10.9
v 58.8 8.1 -10.9
v 58.8 8.2 -10.9
v 58.8 9.3 -10.9
v 58.8 9.6 -10.9
v 58.9 7.7 -10.9
v 58.9 7.8 -10.9
v 58.9 8.1 -10.9
v 58.9 8.2 -10.9
v 58 8.2 -11.2
v 58 8.3 -11.2
v 58.1 8.2 -11.2
v 58.1 8.3 -11.2
v 58.9 8.2 -11.2
v 58.9 8.3 -11.2
v 59 8.2 -11.2
v 59 8.3 -11.2
v 58.1 8.2 -11.4
v 58.1 8.3 -11.4
v 58.2 8.2 -11.4
v 58.2 8.3 -11.4
v 58.8 8.2 -11.4
v 58.8 8.3 -11.4
v 58.9 8.2 -11.4
v 58.9 8.3 -11.4
v 58.2 8.2 -11.5
v 58.2 8.3 -11.5
v 58.8 8.2 -11.5
v 58.8 8.3 -11.5
v 58.2 8.2 -10.4
v 58.2 8.3 -10.4
v 58.4 8.2 -10.4
v 58.4 8.3 -10.4
v 58.6 8.2 -10.4
v 58.6 8.3 -10.4
v 58.8 8.2 -10.4
v 58.8 8.3 -10.4
v 58.1 8.2 -10.5
v 58.1 8.3 -10.5
v 58.2 8.2 -10.5
v 58.2 8.3 -10.5
v 58.8 8.2 -10.5
v 58.8 8.3 -10.5
v 58.9 8.2 -10.5
v 58.9 8.3 -10.5
v 58.9 8.2 -10.7
v 58.9 8.3 -10.7
v 59 8.2 -10.7
v 59 8.3 -10.7
v 57.2 0.2 -10.8
v 57.2 0.6 -10.8
v 57.3 0.2 -10.8
v 57.3 0.6 -10.8
v 57.4 7.5 -10.8
v 57.4 7.6 -10.8
v 57.5 7.5 -10.8
v 57.5 7.6 -10.8
v 58 8.2 -10.8
v 58 8.3 -10.8
v 58.1 8.2 -10.8
v 58.1 8.3 -10.8
v 57 0 -10.9
v 57 0.1 -10.9
v 57.1 0 -10.9
v 57.1 0.1 -10.9
v 57.1 0.2 -10.9
v 57.2 0.1 -10.9
v 57.2 0.2 -10.9
v 57.3 7 -10.9
v 57.3 9.1 -10.9
v 57.4 0.6 -10.9
v 57.4 2.7 -10.9
v 57.4 2.8 -10.9
v 57.4 6.9 -10.9
v 57.4 7 -10.9
v 57.4 8.2 -10.9
v 57.4 8.3 -10.9
v 57.4 9.1 -10.9
v 57.5 0.2 -10.9
v 57.5 0.6 -10.9
v 57.5 2.7 -10.9
v 57.5 2.8 -10.9
v 57.5 6.9 -10.9
v 57.5 7.4 -10.9
v 57.5 7.9 -10.9
v 57.5 8 -10.9
v 57.6 0.1 -10.9
v 57.6 0.2 -10.9
v 57.6 0.6 -10.9
v 57.6 7.4 -10.9
v 57.6 7.9 -10.9
v 57.6 8 -10.9
v 57.7 0.1 -10.9
v 57.7 0.2 -10.9
v 57.2 0.1 -11
v 57.2 0.2 -11
v 57.3 0.1 -11
v 57.3 0.2 -11
v 57.3 7 -11
v 57.3 9.1 -11
v 57.3 9.9 -11
v 57.3 10 -11
v 57.3 10.2 -11
v 57.4 0.6 -11
v 57.4 6.9 -11
v 57.4 8.2 -11
v 57.4 8.3 -11
v 57.4 9.2 -11
v 57.4 9.5 -11
v 57.4 9.6 -11
v 57.4 9.9 -11
v 57.4 10 -11
v 57.4 10.1 -11
v 57.4 10.2 -11
v 57.5 0.1 -11
v 57.5 0.2 -11
v 57.5 0.6 -11
v 57.5 6.9 -11
v 57.5 7 -11
v 57.5 8 -11
v 57.5 8.2 -11
v 57.5 8.3 -11
v 57.5 9.1 -11
v 57.5 9.2 -11
v 57.5 9.5 -11
v 57.5 9.6 -11
v 57.5 9.7 -11
v 57.5 10 -11
v 57.5 10.1 -11
v 57.6 0.1 -11
v 57.6 0.2 -11
v 57.6 8 -11
v 57.6 9.7 -11
v 57.6 9.8 -11
v 57.7 0 -11
v 57.7 0.1 -11
v 57.7 9.7 -11
v 57.7 9.8 -11
v 57.7 9.9 -11
v 57.8 0 -11
v 57.8 0.1 -11
v 57.8 9.8 -11
v 57.8 9.9 -11
v 57.8 10 -11
v 58 7.7 -11
v 58 7.8 -11
v 58 8.1 -11
v 58 8.2 -11
v 58 9.3 -11
v 58 9.6 -11
v 58.1 7.7 -11
v 58.1 7.8 -11
v 58.1 8.1 -11
v 58.1 8.2 -11
v 58.1 9.2 -11
v 58.1 9.3 -11
v 58.1 9.6 -11
v 58.1 9.7 -11
v 58.2 7.5 -11
v 58.2 7.6 -11
v 58.2 9.1 -11
v 58.2 9.2 -11
v 58.2 9.3 -11
v 58.2 9.6 -11
v 58.2 9.7 -11
v 58.3 7.5 -11
v 58.3 7.6 -11
v 58.3 8.8 -11
v 58.3 8.9 -11
v 58.3 9.1 -11
v 58.3 9.2 -11
v 58.4 8.8 -11
v 58.4 8.9 -11
v 58.4 9 -11
v 58.4 9.1 -11
v 58.4 9.2 -11
v 58.4 9.8 -11
v 58.4 9.9 -11
v 58.4 10 -11
v 58.5 9 -11
v 58.5 9.1 -11
v 58.5 9.2 -11
v 58.5 9.7 -11
v 58.5 9.8 -11
v 58.5 9.9 -11
v 58.6 7.5 -11
v 58.6 7.6 -11
v 58.6 8.8 -11
v 58.6 8.9 -11
v 58.6 9.1 -11
v 58.6 9.2 -11
v 58.6 9.3 -11
v 58.6 9.5 -11
v 58.6 9.7 -11
v 58.6 9.8 -11
v 58.7 7.5 -11
v 58.7 7.6 -11
v 58.7 9.2 -11
v 58.7 9.3 -11
v 58.7 9.5 -11
v 58.7 9.6 -11
v 58.7 9.7 -11
v 58.8 7.7 -11
v 58.8 7.8 -11
v 58.8 8.1 -11
v 58.8 8.2 -11
v 58.8 9.3 -11
v 58.8 9.6 -11
v 58.9 7.7 -11
v 58.9 7.8 -11
v 58.9 8.1 -11
v 58.9 8.2 -11
v 57.1 0 -11.1
v 57.1 0.1 -11.1
v 57.2 0 -11.1
v 57.2 0.1 -11.1
v 57.3 0.1 -11.1
v 57.3 0.2 -11.1
v 57.5 0.1 -11.1
v 57.5 0.2 -11.1
v 57.6 0 -11.1
v 57.6 0.1 -11.1
v 57.7 0 -11.1
v 57.7 0.1 -11.1
v 58 7.8 -11.1
v 58 7.9 -11.1
v 58 8 -11.1
v 58 8.1 -11.1
v 58.1 7.6 -11.1
v 58.1 7.7 -11.1
v 58.1 7.8 -11.1
v 58.1 7.9 -11.1
v 58.1 8 -11.1
v 58.1 8.1 -11.1
v 58.1 8.2 -11.1
v 58.1 8.3 -11.1
v 58.2 7.6 -11.1
v 58.2 7.7 -11.1
v 58.2 8.2 -11.1
v 58.2 8.3 -11.1
v 58.2 8.9 -11.1
v 58.2 9 -11.1
v 58.3 7.5 -11.1
v 58.3 7.6 -11.1
v 58.3 8.6 -11.1
v 58.3 8.8 -11.1
v 58.4 7.5 -11.1
v 58.4 7.6 -11.1
v 58.5 7.5 -11.1
v 58.5 7.6 -11.1
v 58.6 7.5 -11.1
v 58.6 7.6 -11.1
v 58.6 8.6 -11.1
v 58.6 8.8 -11.1
v 58.7 7.6 -11.1
v 58.7 7.7 -11.1
v 58.7 8.2 -11.1
v 58.7 8.3 -11.1
v 58.7 8.9 -11.1
v 58.7 9 -11.1
v 58.8 7.6 -11.1
v 58.8 7.7 -11.1
v 58.8 7.8 -11.1
v 58.8 7.9 -11.1
v 58.8 8 -11.1
v 58.8 8.1 -11.1
v 58.8 8.2 -11.1
v 58.8 8.3 -11.1
v 58.9 7.8 -11.1
v 58.9 7.9 -11.1
v 58.9 8 -11.1
v 58.9 8.1 -11.1
v 57.2 0 -11.2
v 57.2 0.1 -11.2
v 57.6 0 -11.2
v 57.6 0.1 -11.2
v 57.8 8.2 -11.2
v 57.8 8.3 -11.2
v 57.9 8.2 -11.2
v 57.9 8.3 -11.2
v 58 7.9 -11.2
v 58 8 -11.2
v 58.1 7.7 -11.2
v 58.1 7.8 -11.2
v 58.1 7.9 -11.2
v 58.1 8 -11.2
v 58.1 8.1 -11.2
v 58.1 8.2 -11.2
v 58.2 7.6 -11.2
v 58.2 7.7 -11.2
v 58.2 7.8 -11.2
v 58.2 8.1 -11.2
v 58.2 8.2 -11.2
v 58.2 8.3 -11.2
v 58.3 7.6 -11.2
v 58.3 7.7 -11.2
v 58.3 8.2 -11.2
v 58.3 8.3 -11.2
v 58.4 7.5 -11.2
v 58.4 7.6 -11.2
v 58.5 7.5 -11.2
v 58.5 7.6 -11.2
v 58.6 7.6 -11.2
v 58.6 7.7 -11.2
v 58.6 8.2 -11.2
v 58.6 8.3 -11.2
v 58.7 7.6 -11.2
v 58.7 7.7 -11.2
v 58.7 7.8 -11.2
v 58.7 8.1 -11.2
v 58.7 8.2 -11.2
v 58.7 8.3 -11.2
v 58.8 7.7 -11.2
v 58.8 7.8 -11.2
v 58.8 7.9 -11.2
v 58.8 8 -11.2
v 58.8 8.1 -11.2
v 58.8 8.2 -11.2
v 58.9 7.9 -11.2
v 58.9 8 -11.2
v 59 8.2 -11.2
v 59 8.3 -11.2
v 59.1 8.2 -11.2
v 59.1 8.3 -11.2
v 58.1 7.8 -11.3
v 58.1 8.1 -11.3
v 58.2 7.7 -11.3
v 58.2 7.8 -11.3
v 58.2 7.9 -11.3
v 58.2 8 -11.3
v 58.2 8.1 -11.3
v 58.2 8.2 -11.3
v 58.2 8.5 -11.3
v 58.2 8.6 -11.3
v 58.3 7.6 -11.3
v 58.3 7.7 -11.3
v 58.3 7.8 -11.3
v 58.3 7.9 -11.3
v 58.3 8 -11.3
v 58.3 8.1 -11.3
v 58.3 8.2 -11.3
v 58.3 8.3 -11.3
v 58.4 7.7 -11.3
v 58.4 7.8 -11.3
v 58.4 8.1 -11.3
v 58.4 8.2 -11.3
v 58.5 7.7 -11.3
v 58.5 7.8 -11.3
v 58.5 8.1 -11.3
v 58.5 8.2 -11.3
v 58.6 7.6 -11.3
v 58.6 7.7 -11.3
v 58.6 7.8 -11.3
v 58.6 7.9 -11.3
v 58.6 8 -11.3
v 58.6 8.1 -11.3
v 58.6 8.2 -11.3
v 58.6 8.3 -11.3
v 58.7 7.7 -11.3
v 58.7 7.8 -11.3
v 58.7 7.9 -11.3
v 58.7 8 -11.3
v 58.7 8.1 -11.3
v 58.7 8.2 -11.3
v 58.7 8.5 -11.3
v 58.7 8.6 -11.3
v 58.8 7.8 -11.3
v 58.8 8.1 -11.3
v 57.9 8.2 -11.4
v 57.9 8.4 -11.4
v 58.1 8.2 -11.4
v 58.1 8.4 -11.4
v 58.1 8.5 -11.4
v 58.2 7.9 -11.4
v 58.2 8 -11.4
v 58.3 7.8 -11.4
v 58.3 7.9 -11.4
v 58.3 8 -11.4
v 58.3 8.1 -11.4
v 58.4 7.7 -11.4
v 58.4 7.8 -11.4
v 58.4 8.1 -11.4
v 58.4 8.2 -11.4
v 58.5 7.7 -11.4
v 58.5 7.8 -11.4
v 58.5 8.1 -11.4
v 58.5 8.2 -11.4
v 58.6 7.8 -11.4
v 58.6 7.9 -11.4
v 58.6 8 -11.4
v 58.6 8.1 -11.4
v 58.7 7.9 -11.4
v 58.7 8 -11.4
v 58.8 8.4 -11.4
v 58.8 8.5 -11.4
v 58.9 8.2 -11.4
v 58.9 8.4 -11.4
v 59 8.2 -11.4
v 59 8.4 -11.4
v 58.1 8.2 -11.5
v 58.1 8.4 -11.5
v 58.2 8.2 -11.5
v 58.2 8.3 -11.5
v 58.8 8.2 -11.5
v 58.8 8.3 -11.5
v 58.9 8.2 -11.5
v 58.9 8.4 -11.5
v 58.2 8.2 -11.6
v 58.2 8.3 -11.6
v 58.8 8.2 -11.6
v 58.8 8.3 -11.6
v 57.2 0 -10.4
v 57.3 0 -10.4
v 57.6 0 -10.4
v 57.1 0 -10.5
v 57.2 0 -10.5
v 57.3 0 -10.5
v 57.4 0 -10.5
v 57.6 0 -10.5
v 57.7 0 -10.5
v 57 0 -10.6
v 57.1 0 -10.6
v 57.2 0 -10.6
v 57.3 0 -10.6
v 57.4 0 -10.6
v 57.7 0 -10.6
v 57.8 0 -10.6
v 57 0 -10.7
v 57.2 0 -10.7
v 57.7 0 -10.7
v 57.8 0 -10.7
v 57.7 0 -10.8
v 57.8 0 -10.8
v 57 0 -10.9
v 57.1 0 -10.9
v 57.7 0 -11
v 57.8 0 -11
v 57.1 0 -11.1
v 57.2 0 -11.1
v 57.6 0 -11.1
v 57.7 0 -11.1
v 57.2 0 -11.2
v 57.6 0 -11.2
v 57.3 0.7 -10.6
v 57.4 0.7 -10.6
v 57.3 0.7 -10.7
v 57.4 0.7 -10.7
v 57.4 6.9 -10.9
v 57.5 6.9 -10.9
v 57.4 6.9 -11
v 57.5 6.9 -11
v 57.5 7.4 -10.8
v 57.6 7.4 -10.8
v 57.5 7.4 -10.9
v 57.6 7.4 -10.9
v 57.4 7.5 -10.7
v 57.5 7.5 -10.7
v 58.4 7.5 -10.7
v 58.5 7.5 -10.7
v 57.4 7.5 -10.8
v 57.5 7.5 -10.8
v 58.3 7.5 -10.8
v 58.4 7.5 -10.8
v 58.5 7.5 -10.8
v 58.6 7.5 -10.8
v 58.2 7.5 -10.9
v 58.3 7.5 -10.9
v 58.6 7.5 -10.9
v 58.7 7.5 -10.9
v 58.2 7.5 -11
v 58.3 7.5 -11
v 58.6 7.5 -11
v 58.7 7.5 -11
v 58.3 7.5 -11.1
v 58.4 7.5 -11.1
v 58.5 7.5 -11.1
v 58.6 7.5 -11.1
v 58.4 7.5 -11.2
v 58.5 7.5 -11.2
v 58.3 7.6 -10.6
v 58.6 7.6 -10.6
v 58.2 7.6 -10.7
v 58.3 7.6 -10.7
v 58.4 7.6 -10.7
v 58.5 7.6 -10.7
v 58.6 7.6 -10.7
v 58.7 7.6 -10.7
v 58.1 7.6 -10.8
v 58.2 7.6 -10.8
v 58.3 7.6 -10.8
v 58.4 7.6 -10.8
v 58.5 7.6 -10.8
v 58.6 7.6 -10.8
v 58.7 7.6 -10.8
v 58.8 7.6 -10.8
v 58.2 7.6 -10.9
v 58.3 7.6 -10.9
v 58.6 7.6 -10.9
v 58.7 7.6 -10.9
v 58.2 7.6 -11
v 58.3 7.6 -11
v 58.6 7.6 -11
v 58.7 7.6 -11
v 58.1 7.6 -11.1
v 58.2 7.6 -11.1
v 58.3 7.6 -11.1
v 58.4 7.6 -11.1
v 58.5 7.6 -11.1
v 58.6 7.6 -11.1
v 58.7 7.6 -11.1
v 58.8 7.6 -11.1
v 58.2 7.6 -11.2
v 58.3 7.6 -11.2
v 58.4 7.6 -11.2
v 58.5 7.6 -11.2
v 58.6 7.6 -11.2
v 58.7 7.6 -11.2
v 58.3 7.6 -11.3
v 58.6 7.6 -11.3
v 58.4 7.7 -10.5
v 58.5 7.7 -10.5
v 58.2 7.7 -10.6
v 58.3 7.7 -10.6
v 58.4 7.7 -10.6
v 58.5 7.7 -10.6
v 58.6 7.7 -10.6
v 58.7 7.7 -10.6
v 58.1 7.7 -10.7
v 58.2 7.7 -10.7
v 58.3 7.7 -10.7
v 58.6 7.7 -10.7
v 58.7 7.7 -10.7
v 58.8 7.7 -10.7
v 58.1 7.7 -10.8
v 58.2 7.7 -10.8
v 58.7 7.7 -10.8
v 58.8 7.7 -10.8
v 58 7.7 -10.9
v 58.1 7.7 -10.9
v 58.8 7.7 -10.9
v 58.9 7.7 -10.9
v 58 7.7 -11
v 58.1 7.7 -11
v 58.8 7.7 -11
v 58.9 7.7 -11
v 58.1 7.7 -11.1
v 58.2 7.7 -11.1
v 58.7 7.7 -11.1
v 58.8 7.7 -11.1
v 58.1 7.7 -11.2
v 58.2 7.7 -11.2
v 58.3 7.7 -11.2
v 58.6 7.7 -11.2
v 58.7 7.7 -11.2
v 58.8 7.7 -11.2
v 58.2 7.7 -11.3
v 58.3 7.7 -11.3
v 58.4 7.7 -11.3
v 58.5 7.7 -11.3
v 58.6 7.7 -11.3
v 58.7 7.7 -11.3
v 58.4 7.7 -11.4
v 58.5 7.7 -11.4
v 58.3 7.8 -10.5
v 58.4 7.8 -10.5
v 58.5 7.8 -10.5
v 58.6 7.8 -10.5
v 58.1 7.8 -10.6
v 58.2 7.8 -10.6
v 58.3 7.8 -10.6
v 58.4 7.8 -10.6
v 58.5 7.8 -10.6
v 58.6 7.8 -10.6
v 58.7 7.8 -10.6
v 58.8 7.8 -10.6
v 58.1 7.8 -10.7
v 58.2 7.8 -10.7
v 58.7 7.8 -10.7
v 58.8 7.8 -10.7
v 58 7.8 -10.8
v 58.1 7.8 -10.8
v 58.8 7.8 -10.8
v 58.9 7.8 -10.8
v 58 7.8 -10.9
v 58.1 7.8 -10.9
v 58.8 7.8 -10.9
v 58.9 7.8 -10.9
v 58 7.8 -11
v 58.1 7.8 -11
v 58.8 7.8 -11
v 58.9 7.8 -11
v 58 7.8 -11.1
v 58.1 7.8 -11.1
v 58.8 7.8 -11.1
v 58.9 7.8 -11.1
v 58.1 7.8 -11.2
v 58.2 7.8 -11.2
v 58.7 7.8 -11.2
v 58.8 7.8 -11.2
v 58.1 7.8 -11.3
v 58.2 7.8 -11.3
v 58.3 7.8 -11.3
v 58.4 7.8 -11.3
v 58.5 7.8 -11.3
v 58.6 7.8 -11.3
v 58.7 7.8 -11.3
v 58.8 7.8 -11.3
v 58.3 7.8 -11.4
v 58.4 7.8 -11.4
v 58.5 7.8 -11.4
v 58.6 7.8 -11.4
v 58.2 7.9 -10.5
v 58.3 7.9 -10.5
v 58.6 7.9 -10.5
v 58.7 7.9 -10.5
v 58.2 7.9 -10.6
v 58.3 7.9 -10.6
v 58.6 7.9 -10.6
v 58.7 7.9 -10.6
v 58 7.9 -10.7
v 58.1 7.9 -10.7
v 58.8 7.9 -10.7
v 58.9 7.9 -10.7
v 58 7.9 -10.8
v 58.1 7.9 -10.8
v 58.8 7.9 -10.8
v 58.9 7.9 -10.8
v 58 7.9 -11.1
v 58.1 7.9 -11.1
v 58.8 7.9 -11.1
v 58.9 7.9 -11.1
v 58 7.9 -11.2
v 58.1 7.9 -11.2
v 58.8 7.9 -11.2
v 58.9 7.9 -11.2
v 58.2 7.9 -11.3
v 58.3 7.9 -11.3
v 58.6 7.9 -11.3
v 58.7 7.9 -11.3
v 58.2 7.9 -11.4
v 58.3 7.9 -11.4
v 58.6 7.9 -11.4
v 58.7 7.9 -11.4
v 57.5 8 -10.9
v 57.6 8 -10.9
v 57.5 8 -11
v 57.6 8 -11
v 58.1 8.2 -10.3
v 58.2 8.2 -10.3
v 58.4 8.2 -10.3
v 58.6 8.2 -10.3
v 58.8 8.2 -10.3
v 58 8.2 -10.4
v 58.1 8.2 -10.4
v 58.2 8.2 -10.4
v 58.4 8.2 -10.4
v 58.6 8.2 -10.4
v 58.8 8.2 -10.4
v 58.9 8.2 -10.4
v 57.9 8.2 -10.5
v 58 8.2 -10.5
v 58.1 8.2 -10.5
v 58.2 8.2 -10.5
v 58.8 8.2 -10.5
v 58.9 8.2 -10.5
v 59 8.2 -10.5
v 57.8 8.2 -10.7
v 57.9 8.2 -10.7
v 58.1 8.2 -10.7
v 58.9 8.2 -10.7
v 59 8.2 -10.7
v 59.1 8.2 -10.7
v 57.4 8.2 -10.8
v 57.5 8.2 -10.8
v 58 8.2 -10.8
v 58.1 8.2 -10.8
v 59 8.2 -10.8
v 59.1 8.2 -10.8
v 57.4 8.2 -10.9
v 58 8.2 -10.9
v 59 8.2 -10.9
v 59.1 8.2 -10.9
v 57.4 8.2 -11
v 57.5 8.2 -11
v 58 8.2 -11
v 59 8.2 -11
v 59.1 8.2 -11
v 59 8.2 -11.1
v 59.1 8.2 -11.1
v 57.8 8.2 -11.2
v 57.9 8.2 -11.2
v 58 8.2 -11.2
v 58.1 8.2 -11.2
v 58.9 8.2 -11.2
v 59 8.2 -11.2
v 59.1 8.2 -11.2
v 57.9 8.2 -11.4
v 58.1 8.2 -11.4
v 58.2 8.2 -11.4
v 58.8 8.2 -11.4
v 58.9 8.2 -11.4
v 59 8.2 -11.4
v 58.1 8.2 -11.5
v 58.2 8.2 -11.5
v 58.8 8.2 -11.5
v 58.9 8.2 -11.5
v 58.2 8.2 -11.6
v 58.8 8.2 -11.6
v 58.2 8.3 -10.4
v 58.4 8.3 -10.4
v 58.6 8.3 -10.4
v 58.8 8.3 -10.4
v 58.1 8.3 -10.5
v 58.2 8.3 -10.5
v 58.4 8.3 -10.5
v 58.8 8.3 -10.5
v 58.9 8.3 -10.5
v 58.3 8.3 -10.6
v 58.6 8.3 -10.6
v 58.2 8.3 -10.7
v 58.3 8.3 -10.7
v 58.6 8.3 -10.7
v 58.7 8.3 -10.7
v 58.9 8.3 -10.7
v 59 8.3 -10.7
v 58 8.3 -10.8
v 58.1 8.3 -10.8
v 58.2 8.3 -10.8
v 58.7 8.3 -10.8
v 58.8 8.3 -10.8
v 59 8.3 -10.8
v 58.9 8.3 -10.9
v 59 8.3 -10.9
v 58.9 8.3 -11
v 59 8.3 -11
v 58.1 8.3 -11.1
v 58.2 8.3 -11.1
v 58.7 8.3 -11.1
v 58.8 8.3 -11.1
v 59 8.3 -11.1
v 58 8.3 -11.2
v 58.1 8.3 -11.2
v 58.2 8.3 -11.2
v 58.3 8.3 -11.2
v 58.6 8.3 -11.2
v 58.7 8.3 -11.2
v 58.9 8.3 -11.2
v 59 8.3 -11.2
v 58.3 8.3 -11.3
v 58.6 8.3 -11.3
v 58.1 8.3 -11.4
v 58.2 8.3 -11.4
v 58.8 8.3 -11.4
v 58.9 8.3 -11.4
v 58.2 8.3 -11.5
v 58.8 8.3 -11.5
v 58.2 8.9 -10.8
v 58.4 8.9 -10.8
v 58.5 8.9 -10.8
v 58.7 8.9 -10.8
v 58.3 8.9 -10.9
v 58.4 8.9 -10.9
v 58.5 8.9 -10.9
v 58.6 8.9 -10.9
v 58.3 8.9 -11
v 58.4 8.9 -11
v 58.6 8.9 -11
v 58.2 8.9 -11.1
v 58.7 8.9 -11.1
v 57.4 9.1 -10.7
v 57.5 9.1 -10.7
v 57.3 9.1 -10.9
v 57.4 9.1 -10.9
v 57.5 9.1 -10.9
v 58.2 9.1 -10.9
v 58.3 9.1 -10.9
v 58.4 9.1 -10.9
v 58.5 9.1 -10.9
v 58.6 9.1 -10.9
v 57.3 9.1 -11
v 57.5 9.1 -11
v 58.2 9.1 -11
v 58.3 9.1 -11
v 58.4 9.1 -11
v 58.5 9.1 -11
v 58.6 9.1 -11
v 58.1 9.2 -10.9
v 58.2 9.2 -10.9
v 58.6 9.2 -10.9
v 58.7 9.2 -10.9
v 58.1 9.2 -11
v 58.2 9.2 -11
v 58.6 9.2 -11
v 58.7 9.2 -11
v 58 9.3 -10.9
v 58.1 9.3 -10.9
v 58.7 9.3 -10.9
v 58.8 9.3 -10.9
v 58 9.3 -11
v 58.1 9.3 -11
v 58.7 9.3 -11
v 58.8 9.3 -11
v 57.4 9.5 -10.7
v 57.5 9.5 -10.7
v 57.5 9.5 -10.9
v 58.6 9.5 -10.9
v 58.7 9.5 -10.9
v 57.4 9.5 -11
v 57.5 9.5 -11
v 58.6 9.5 -11
v 58.7 9.5 -11
v 58.1 9.6 -10.9
v 58.2 9.6 -10.9
v 58.1 9.6 -11
v 58.2 9.6 -11
v 57.6 9.7 -10.8
v 57.7 9.7 -10.8
v 57.6 9.7 -10.9
v 58.5 9.7 -10.9
v 58.6 9.7 -10.9
v 57.6 9.7 -11
v 57.7 9.7 -11
v 58.5 9.7 -11
v 58.6 9.7 -11
v 57.7 9.8 -10.8
v 57.8 9.8 -10.8
v 58.4 9.8 -10.9
v 58.5 9.8 -10.9
v 57.7 9.8 -11
v 57.8 9.8 -11
v 58.4 9.8 -11
v 58.5 9.8 -11
v 57.8 9.9 -10.8
v 58.4 9.9 -10.8
v 58.4 9.9 -10.9
v 57.8 9.9 -11
v 58.4 9.9 -11
v 57.4 10 -10.9
v 57.5 10 -10.9
v 57.4 10 -11
v 57.5 10 -11
v 57.2 0.1 -10.4
v 57.3 0.1 -10.4
v 57.6 0.1 -10.4
v 57.1 0.1 -10.5
v 57.2 0.1 -10.5
v 57.3 0.1 -10.5
v 57.5 0.1 -10.5
v 57.6 0.1 -10.5
v 57.7 0.1 -10.5
v 57 0.1 -10.6
v 57.1 0.1 -10.6
v 57.2 0.1 -10.6
v 57.3 0.1 -10.6
v 57.5 0.1 -10.6
v 57.6 0.1 -10.6
v 57.7 0.1 -10.6
v 57.8 0.1 -10.6
v 57 0.1 -10.7
v 57.1 0.1 -10.7
v 57.2 0.1 -10.7
v 57.6 0.1 -10.7
v 57.7 0.1 -10.7
v 57.8 0.1 -10.7
v 57.7 0.1 -10.8
v 57.8 0.1 -10.8
v 57 0.1 -10.9
v 57.1 0.1 -10.9
v 57.2 0.1 -10.9
v 57.6 0.1 -10.9
v 57.7 0.1 -10.9
v 57.2 0.1 -11
v 57.3 0.1 -11
v 57.5 0.1 -11
v 57.6 0.1 -11
v 57.7 0.1 -11
v 57.8 0.1 -11
v 57.1 0.1 -11.1
v 57.2 0.1 -11.1
v 57.3 0.1 -11.1
v 57.5 0.1 -11.1
v 57.6 0.1 -11.1
v 57.7 0.1 -11.1
v 57.2 0.1 -11.2
v 57.6 0.1 -11.2
v 57.3 0.2 -10.5
v 57.5 0.2 -10.5
v 57.2 0.2 -10.6
v 57.3 0.2 -10.6
v 57.5 0.2 -10.6
v 57.6 0.2 -10.6
v 57.1 0.2 -10.7
v 57.2 0.2 -10.7
v 57.3 0.2 -10.7
v 57.5 0.2 -10.7
v 57.6 0.2 -10.7
v 57.7 0.2 -10.7
v 57.2 0.2 -10.8
v 57.3 0.2 -10.8
v 57.1 0.2 -10.9
v 57.2 0.2 -10.9
v 57.5 0.2 -10.9
v 57.6 0.2 -10.9
v 57.7 0.2 -10.9
v 57.2 0.2 -11
v 57.3 0.2 -11
v 57.5 0.2 -11
v 57.6 0.2 -11
v 57.3 0.2 -11.1
v 57.5 0.2 -11.1
v 57.3 0.6 -10.6
v 57.5 0.6 -10.6
v 57.2 0.6 -10.7
v 57.3 0.6 -10.7
v 57.5 0.6 -10.7
v 57.6 0.6 -10.7
v 57.2 0.6 -10.8
v 57.3 0.6 -10.8
v 57.4 0.6 -10.9
v 57.5 0.6 -10.9
v 57.6 0.6 -10.9
v 57.4 0.6 -11
v 57.5 0.6 -11
v 57.3 6.9 -10.6
v 57.4 6.9 -10.6
v 57.3 6.9 -10.7
v 57.4 6.9 -10.7
v 57.4 7 -10.7
v 57.5 7 -10.7
v 57.3 7 -10.9
v 57.4 7 -10.9
v 57.3 7 -11
v 57.5 7 -11
v 57.4 7.6 -10.7
v 57.5 7.6 -10.7
v 57.4 7.6 -10.8
v 57.5 7.6 -10.8
v 58.2 8 -10.5
v 58.3 8 -10.5
v 58.6 8 -10.5
v 58.7 8 -10.5
v 58.2 8 -10.6
v 58.3 8 -10.6
v 58.6 8 -10.6
v 58.7 8 -10.6
v 58 8 -10.7
v 58.1 8 -10.7
v 58.8 8 -10.7
v 58.9 8 -10.7
v 58 8 -10.8
v 58.1 8 -10.8
v 58.8 8 -10.8
v 58.9 8 -10.8
v 58 8 -11.1
v 58.1 8 -11.1
v 58.8 8 -11.1
v 58.9 8 -11.1
v 58 8 -11.2
v 58.1 8 -11.2
v 58.8 8 -11.2
v 58.9 8 -11.2
v 58.2 8 -11.3
v 58.3 8 -11.3
v 58.6 8 -11.3
v 58.7 8 -11.3
v 58.2 8 -11.4
v 58.3 8 -11.4
v 58.6 8 -11.4
v 58.7 8 -11.4
v 58.3 8.1 -10.5
v 58.4 8.1 -10.5
v 58.5 8.1 -10.5
v 58.6 8.1 -10.5
v 58.1 8.1 -10.6
v 58.2 8.1 -10.6
v 58.3 8.1 -10.6
v 58.4 8.1 -10.6
v 58.5 8.1 -10.6
v 58.6 8.1 -10.6
v 58.7 8.1 -10.6
v 58.8 8.1 -10.6
v 58.1 8.1 -10.7
v 58.2 8.1 -10.7
v 58.7 8.1 -10.7
v 58.8 8.1 -10.7
v 58 8.1 -10.8
v 58.1 8.1 -10.8
v 58.8 8.1 -10.8
v 58.9 8.1 -10.8
v 58 8.1 -10.9
v 58.1 8.1 -10.9
v 58.8 8.1 -10.9
v 58.9 8.1 -10.9
v 58 8.1 -11
v 58.1 8.1 -11
v 58.8 8.1 -11
v 58.9 8.1 -11
v 58 8.1 -11.1
v 58.1 8.1 -11.1
v 58.8 8.1 -11.1
v 58.9 8.1 -11.1
v 58.1 8.1 -11.2
v 58.2 8.1 -11.2
v 58.7 8.1 -11.2
v 58.8 8.1 -11.2
v 58.1 8.1 -11.3
v 58.2 8.1 -11.3
v 58.3 8.1 -11.3
v 58.4 8.1 -11.3
v 58.5 8.1 -11.3
v 58.6 8.1 -11.3
v 58.7 8.1 -11.3
v 58.8 8.1 -11.3
v 58.3 8.1 -11.4
v 58.4 8.1 -11.4
v 58.5 8.1 -11.4
v 58.6 8.1 -11.4
v 58.4 8.2 -10.5
v 58.5 8.2 -10.5
v 58.2 8.2 -10.6
v 58.3 8.2 -10.6
v 58.4 8.2 -10.6
v 58.5 8.2 -10.6
v 58.6 8.2 -10.6
v 58.7 8.2 -10.6
v 58.1 8.2 -10.7
v 58.2 8.2 -10.7
v 58.3 8.2 -10.7
v 58.6 8.2 -10.7
v 58.7 8.2 -10.7
v 58.8 8.2 -10.7
v 57.5 8.2 -10.8
v 57.6 8.2 -10.8
v 58.1 8.2 -10.8
v 58.2 8.2 -10.8
v 58.7 8.2 -10.8
v 58.8 8.2 -10.8
v 57.5 8.2 -10.9
v 57.6 8.2 -10.9
v 58 8.2 -10.9
v 58.1 8.2 -10.9
v 58.8 8.2 -10.9
v 58.9 8.2 -10.9
v 58 8.2 -11
v 58.1 8.2 -11
v 58.8 8.2 -11
v 58.9 8.2 -11
v 58.1 8.2 -11.1
v 58.2 8.2 -11.1
v 58.7 8.2 -11.1
v 58.8 8.2 -11.1
v 58.1 8.2 -11.2
v 58.2 8.2 -11.2
v 58.3 8.2 -11.2
v 58.6 8.2 -11.2
v 58.7 8.2 -11.2
v 58.8 8.2 -11.2
v 58.2 8.2 -11.3
v 58.3 8.2 -11.3
v 58.4 8.2 -11.3
v 58.5 8.2 -11.3
v 58.6 8.2 -11.3
v 58.7 8.2 -11.3
v 58.4 8.2 -11.4
v 58.5 8.2 -11.4
v 58.1 8.3 -10.3
v 58.2 8.3 -10.3
v 58.4 8.3 -10.3
v 58.6 8.3 -10.3
v 58.8 8.3 -10.3
v 58.1 8.3 -10.4
v 58.2 8.3 -10.4
v 58.4 8.3 -10.4
v 58.6 8.3 -10.4
v 58.8 8.3 -10.4
v 57.8 8.3 -10.7
v 57.9 8.3 -10.7
v 59 8.3 -10.7
v 59.1 8.3 -10.7
v 57.4 8.3 -10.8
v 57.5 8.3 -10.8
v 59 8.3 -10.8
v 59.1 8.3 -10.8
v 57.4 8.3 -10.9
v 57.5 8.3 -10.9
v 59 8.3 -10.9
v 59.1 8.3 -10.9
v 57.4 8.3 -11
v 57.5 8.3 -11
v 59 8.3 -11
v 59.1 8.3 -11
v 59 8.3 -11.1
v 59.1 8.3 -11.1
v 57.8 8.3 -11.2
v 57.9 8.3 -11.2
v 59 8.3 -11.2
v 59.1 8.3 -11.2
v 58.2 8.3 -11.5
v 58.8 8.3 -11.5
v 58.2 8.3 -11.6
v 58.8 8.3 -11.6
v 58 8.4 -10.4
v 58.2 8.4 -10.4
v 58.4 8.4 -10.4
v 58.9 8.4 -10.4
v 57.9 8.4 -10.5
v 58 8.4 -10.5
v 58.1 8.4 -10.5
v 58.2 8.4 -10.5
v 58.4 8.4 -10.5
v 58.8 8.4 -10.5
v 58.9 8.4 -10.5
v 59 8.4 -10.5
v 58.9 8.4 -10.9
v 59 8.4 -10.9
v 58.9 8.4 -11
v 59 8.4 -11
v 57.9 8.4 -11.4
v 58.1 8.4 -11.4
v 58.8 8.4 -11.4
v 58.9 8.4 -11.4
v 59 8.4 -11.4
v 58.1 8.4 -11.5
v 58.9 8.4 -11.5
v 58.1 8.5 -10.5
v 58.8 8.5 -10.5
v 58.2 8.5 -10.6
v 58.4 8.5 -10.6
v 58.5 8.5 -10.6
v 58.7 8.5 -10.6
v 58.2 8.5 -11.3
v 58.7 8.5 -11.3
v 58.1 8.5 -11.4
v 58.8 8.5 -11.4
v 58.2 8.6 -10.6
v 58.4 8.6 -10.6
v 58.5 8.6 -10.6
v 58.7 8.6 -10.6
v 58.4 8.6 -10.7
v 58.5 8.6 -10.7
v 58.3 8.6 -10.8
v 58.4 8.6 -10.8
v 58.6 8.6 -10.8
v 58.3 8.6 -11
v 58.3 8.6 -11.1
v 58.6 8.6 -11.1
v 58.2 8.6 -11.3
v 58.7 8.6 -11.3
v 58.3 8.8 -10.8
v 58.4 8.8 -10.8
v 58.6 8.8 -10.8
v 58.3 8.8 -10.9
v 58.4 8.8 -10.9
v 58.6 8.8 -10.9
v 58.3 8.8 -11
v 58.4 8.8 -11
v 58.6 8.8 -11
v 58.3 8.8 -11.1
v 58.6 8.8 -11.1
v 58.2 9 -10.8
v 58.4 9 -10.8
v 58.5 9 -10.8
v 58.7 9 -10.8
v 58.4 9 -10.9
v 58.5 9 -10.9
v 58.4 9 -11
v 58.5 9 -11
v 58.2 9 -11.1
v 58.7 9 -11.1
v 57.4 9.2 -10.7
v 57.5 9.2 -10.7
v 57.5 9.2 -10.9
v 58.2 9.2 -10.9
v 58.3 9.2 -10.9
v 58.4 9.2 -10.9
v 58.5 9.2 -10.9
v 58.6 9.2 -10.9
v 57.4 9.2 -11
v 57.5 9.2 -11
v 58.2 9.2 -11
v 58.3 9.2 -11
v 58.4 9.2 -11
v 58.5 9.2 -11
v 58.6 9.2 -11
v 58.1 9.3 -10.9
v 58.2 9.3 -10.9
v 58.6 9.3 -10.9
v 58.7 9.3 -10.9
v 58.1 9.3 -11
v 58.2 9.3 -11
v 58.6 9.3 -11
v 58.7 9.3 -11
v 57.3 9.6 -10.7
v 57.5 9.6 -10.7
v 57.3 9.6 -10.9
v 57.4 9.6 -10.9
v 57.5 9.6 -10.9
v 58 9.6 -10.9
v 58.1 9.6 -10.9
v 58.7 9.6 -10.9
v 58.8 9.6 -10.9
v 57.4 9.6 -11
v 57.5 9.6 -11
v 58 9.6 -11
v 58.1 9.6 -11
v 58.7 9.6 -11
v 58.8 9.6 -11
v 57.5 9.7 -10.9
v 57.6 9.7 -10.9
v 58.1 9.7 -10.9
v 58.2 9.7 -10.9
v 58.6 9.7 -10.9
v 58.7 9.7 -10.9
v 57.5 9.7 -11
v 57.6 9.7 -11
v 58.1 9.7 -11
v 58.2 9.7 -11
v 58.6 9.7 -11
v 58.7 9.7 -11
v 57.6 9.8 -10.8
v 57.7 9.8 -10.8
v 58.5 9.8 -10.9
v 58.6 9.8 -10.9
v 57.6 9.8 -11
v 57.7 9.8 -11
v 58.5 9.8 -11
v 58.6 9.8 -11
v 57.7 9.9 -10.8
v 57.8 9.9 -10.8
v 58.4 9.9 -10.9
v 58.5 9.9 -10.9
v 57.7 9.9 -11
v 57.8 9.9 -11
v 58.4 9.9 -11
v 58.5 9.9 -11
v 57.8 10 -10.8
v 58.4 10 -10.8
v 57.8 10 -11
v 58.4 10 -11
v 57.4 10.1 -10.9
v 57.5 10.1 -10.9
v 57.4 10.1 -11
v 57.5 10.1 -11
v 57.3 10.2 -10.9
v 57.4 10.2 -10.9
v 57.3 10.2 -11
v 57.4 10.2 -11

# faces
f 4/3/1 2/3/1 1/3/1
f 5/2/1 3/2/1 2/2/1
f 5/3/1 2/3/1 4/3/1
f 6/2/1 3/2/1 5/2/1
f 11/3/1 8/3/1 7/3/1
f 12/3/1 8/3/1 11/3/1
f 14/2/1 10/2/1 9/2/1
f 15/2/1 10/2/1 14/2/1
f 16/2/1 14/2/1 13/2/1
f 17/2/1 14/2/1 16/2/1
f 22/2/1 19/2/1 18/2/1
f 23/2/1 19/2/1 22/2/1
f 28/2/1 21/2/1 20/2/1
f 29/2/1 21/2/1 28/2/1
f 30/3/1 25/3/1 24/3/1
f 31/3/1 25/3/1 30/3/1
f 33/2/1 27/2/1 26/2/1
f 34/2/1 27/2/1 33/2/1
f 35/2/1 32/2/1 31/2/1
f 36/2/1 32/2/1 35/2/1
f 41/3/1 38/3/1 37/3/1
f 42/3/1 38/3/1 41/3/1
f 45/2/1 40/2/1 39/2/1
f 46/2/1 40/2/1 45/2/1
f 47/2/1 43/2/1 42/2/1
f 48/2/1 43/2/1 47/2/1
f 49/2/1 45/2/1 44/2/1
f 51/2/1 49/2/1 48/2/1
f 52/2/1 51/2/1 50/2/1
f 53/2/1 49/2/1 51/2/1
f 53/2/1 51/2/1 52/2/1
f 54/3/1 53/3/1 52/3/1
f 55/2/1 49/2/1 53/2/1
f 55/3/1 53/3/1 54/3/1
f 56/2/1 55/2/1 54/2/1
f 57/2/1 49/2/1 55/2/1
f 57/2/1 55/2/1 56/2/1
f 58/2/1 45/2/1 49/2/1
f 58/2/1 49/2/1 57/2/1
f 59/2/1 45/2/1 58/2/1
f 60/2/1 58/2/1 57/2/1
f 62/2/1 60/2/1 57/2/1
f 62/2/1 61/2/1 60/2/1
f 63/2/1 61/2/1 62/2/1
f 64/2/1 61/2/1 63/2/1
f 65/2/1 61/2/1 64/2/1
f 66/3/1 65/3/1 64/3/1
f 67/3/1 65/3/1 66/3/1
f 68/2/1 67/2/1 66/2/1
f 69/2/1 67/2/1 68/2/1
f 72/2/1 71/2/1 70/2/1
f 73/2/1 71/2/1 72/2/1
f 76/3/1 75/3/1 74/3/1
f 77/3/1 75/3/1 76/3/1
f 78/3/1 75/3/1 77/3/1
f 79/3/1 75/3/1 78/3/1
f 80/2/1 79/2/1 78/2/1
f 82/2/1 80/2/1 78/2/1
f 82/2/1 81/2/1 80/2/1
f 83/2/1 81/2/1 82/2/1
f 86/2/1 85/2/1 84/2/1
f 87/2/1 85/2/1 86/2/1
f 90/2/1 89/2/1 88/2/1
f 91/2/1 89/2/1 90/2/1
f 94/2/1 93/2/1 92/2/1
f 95/2/1 93/2/1 94/2/1
f 99/2/1 97/2/1 96/2/1
f 99/2/1 98/2/1 97/2/1
f 100/2/1 98/2/1 99/2/1
f 103/2/1 102/2/1 101/2/1
f 104/2/1 102/2/1 103/2/1
f 107/2/1 106/2/1 105/2/1
f 108/2/1 106/2/1 107/2/1
f 111/2/1 110/2/1 109/2/1
f 112/2/1 110/2/1 111/2/1
f 117/2/1 114/2/1 113/2/1
f 118/2/1 116/2/1 115/2/1
f 119/2/1 117/2/1 113/2/1
f 119/2/1 118/2/1 117/2/1
f 120/2/1 116/2/1 118/2/1
f 120/2/1 118/2/1 119/2/1
f 124/1/1 122/1/1 121/1/1
f 125/1/1 122/1/1 124/1/1
f 128/1/1 124/1/1 123/1/1
f 128/1/1 126/1/1 125/1/1
f 128/1/1 125/1/1 124/1/1
f 129/1/1 126/1/1 128/1/1
f 131/1/1 128/1/1 127/1/1
f 131/1/1 130/1/1 129/1/1
f 131/1/1 129/1/1 128/1/1
f 132/1/1 130/1/1 131/1/1
f 133/1/1 130/1/1 132/1/1
f 134/1/1 130/1/1 133/1/1
f 135/1/1 133/1/1 132/1/1
f 136/1/1 133/1/1 135/1/1
f 137/1/1 133/1/1 136/1/1
f 138/1/1 133/1/1 137/1/1
f 141/1/1 137/1/1 136/1/1
f 142/1/1 137/1/1 141/1/1
f 143/2/1 140/2/1 139/2/1
f 144/2/1 140/2/1 143/2/1
f 147/2/1 146/2/1 145/2/1
f 148/2/1 146/2/1 147/2/1
f 152/1/1 150/1/1 149/1/1
f 153/1/1 150/1/1 152/1/1
f 154/1/1 150/1/1 153/1/1
f 155/1/1 150/1/1 154/1/1
f 158/1/1 152/1/1 151/1/1
f 158/1/1 153/1/1 152/1/1
f 159/1/1 153/1/1 158/1/1
f 160/1/1 153/1/1 159/1/1
f 161/1/1 155/1/1 154/1/1
f 161/1/1 156/1/1 155/1/1
f 162/1/1 156/1/1 161/1/1
f 163/1/1 156/1/1 162/1/1
f 165/1/1 159/1/1 158/1/1
f 165/1/1 158/1/1 157/1/1
f 166/1/1 159/1/1 165/1/1
f 167/1/1 164/1/1 163/1/1
f 167/1/1 163/1/1 162/1/1
f 168/1/1 164/1/1 167/1/1
f 169/1/1 165/1/1 157/1/1
f 172/1/1 164/1/1 168/1/1
f 173/1/1 170/1/1 169/1/1
f 173/1/1 169/1/1 157/1/1
f 174/1/1 170/1/1 173/1/1
f 175/1/1 170/1/1 174/1/1
f 178/1/1 172/1/1 171/1/1
f 179/1/1 164/1/1 172/1/1
f 179/1/1 172/1/1 178/1/1
f 180/1/1 164/1/1 179/1/1
f 183/1/1 176/1/1 175/1/1
f 183/1/1 175/1/1 174/1/1
f 184/1/1 176/1/1 183/1/1
f 185/1/1 176/1/1 184/1/1
f 186/1/1 178/1/1 177/1/1
f 186/1/1 179/1/1 178/1/1
f 187/1/1 179/1/1 186/1/1
f 188/1/1 179/1/1 187/1/1
f 191/3/1 182/3/1 181/3/1
f 192/3/1 182/3/1 191/3/1
f 193/1/1 185/1/1 184/1/1
f 193/1/1 187/1/1 186/1/1
f 193/1/1 186/1/1 185/1/1
f 194/1/1 187/1/1 193/1/1
f 196/2/1 190/2/1 189/2/1
f 197/2/1 190/2/1 196/2/1
f 198/2/1 196/2/1 195/2/1
f 199/2/1 196/2/1 198/2/1
f 202/3/1 201/3/1 200/3/1
f 203/3/1 201/3/1 202/3/1
f 206/2/1 205/2/1 204/2/1
f 207/2/1 205/2/1 206/2/1
f 212/1/1 209/1/1 208/1/1
f 213/1/1 209/1/1 212/1/1
f 217/1/1 211/1/1 210/1/1
f 218/1/1 211/1/1 217/1/1
f 219/1/1 215/1/1 214/1/1
f 220/1/1 215/1/1 219/1/1
f 222/1/1 217/1/1 216/1/1
f 223/1/1 217/1/1 222/1/1
f 224/1/1 221/1/1 220/1/1
f 225/1/1 221/1/1 224/1/1
f 230/1/1 227/1/1 226/1/1
f 231/1/1 227/1/1 230/1/1
f 232/1/1 229/1/1 228/1/1
f 233/1/1 229/1/1 232/1/1
f 238/1/1 235/1/1 234/1/1
f 239/1/1 235/1/1 238/1/1
f 242/1/1 237/1/1 236/1/1
f 243/1/1 237/1/1 242/1/1
f 246/1/1 240/1/1 239/1/1
f 247/1/1 240/1/1 246/1/1
f 248/1/1 242/1/1 241/1/1
f 249/1/1 242/1/1 248/1/1
f 250/2/1 245/2/1 244/2/1
f 251/2/1 245/2/1 250/2/1
f 254/2/1 253/2/1 252/2/1
f 255/2/1 253/2/1 254/2/1
f 258/2/1 257/2/1 256/2/1
f 259/2/1 257/2/1 258/2/1
f 262/2/1 261/2/1 260/2/1
f 263/2/1 261/2/1 262/2/1
f 270/1/1 265/1/1 264/1/1
f 271/1/1 265/1/1 270/1/1
f 272/1/1 267/1/1 266/1/1
f 273/1/1 267/1/1 272/1/1
f 276/1/1 269/1/1 268/1/1
f 277/1/1 269/1/1 276/1/1
f 278/1/1 275/1/1 274/1/1
f 279/1/1 275/1/1 278/1/1
f 284/1/1 281/1/1 280/1/1
f 285/1/1 281/1/1 284/1/1
f 286/1/1 283/1/1 282/1/1
f 287/1/1 283/1/1 286/1/1
f 292/1/1 289/1/1 288/1/1
f 293/1/1 289/1/1 292/1/1
f 294/1/1 291/1/1 290/1/1
f 295/1/1 291/1/1 294/1/1
f 300/1/1 297/1/1 296/1/1
f 301/1/1 297/1/1 300/1/1
f 302/1/1 299/1/1 298/1/1
f 303/1/1 299/1/1 302/1/1
f 307/3/1 305/3/1 304/3/1
f 308/3/1 305/3/1 307/3/1
f 309/2/1 306/2/1 305/2/1
f 309/3/1 305/3/1 308/3/1
f 310/2/1 306/2/1 309/2/1
f 311/3/1 309/3/1 308/3/1
f 312/3/1 309/3/1 311/3/1
f 317/1/1 314/1/1 313/1/1
f 318/1/1 314/1/1 317/1/1
f 319/1/1 316/1/1 315/1/1
f 320/1/1 316/1/1 319/1/1
f 325/1/1 322/1/1 321/1/1
f 326/1/1 322/1/1 325/1/1
f 327/1/1 324/1/1 323/1/1
f 328/1/1 324/1/1 327/1/1
f 333/1/1 330/1/1 329/1/1
f 334/1/1 330/1/1 333/1/1
f 335/1/1 332/1/1 331/1/1
f 336/1/1 332/1/1 335/1/1
f 339/3/1 338/3/1 337/3/1
f 340/3/1 338/3/1 339/3/1
f 343/2/1 342/2/1 341/2/1
f 344/2/1 342/2/1 343/2/1
f 347/2/1 346/2/1 345/2/1
f 348/2/1 346/2/1 347/2/1
f 351/2/1 350/2/1 349/2/1
f 352/2/1 350/2/1 351/2/1
f 355/2/1 354/2/1 353/2/1
f 356/2/1 354/2/1 355/2/1
f 359/2/1 358/2/1 357/2/1
f 360/2/1 358/2/1 359/2/1
f 365/2/1 362/2/1 361/2/1
f 366/2/1 362/2/1 365/2/1
f 367/2/1 364/2/1 363/2/1
f 368/2/1 364/2/1 367/2/1
f 373/2/1 370/2/1 369/2/1
f 374/2/1 370/2/1 373/2/1
f 375/2/1 372/2/1 371/2/1
f 376/2/1 372/2/1 375/2/1
f 383/2/1 378/2/1 377/2/1
f 384/3/1 379/3/1 378/3/1
f 384/2/1 378/2/1 383/2/1
f 385/2/1 380/2/1 379/2/1
f 385/3/1 379/3/1 384/3/1
f 386/3/1 381/3/1 380/3/1
f 386/2/1 380/2/1 385/2/1
f 387/2/1 382/2/1 381/2/1
f 387/3/1 381/3/1 386/3/1
f 388/2/1 382/2/1 387/2/1
f 391/2/2 392/2/2 393/2/2
f 391/2/2 393/2/2 394/2/2
f 389/2/2 390/2/2 395/2/2
f 391/2/2 394/2/2 396/2/2
f 395/2/2 390/2/2 397/2/2
f 391/2/2 396/2/2 398/2/2
f 391/2/2 398/2/2 399/2/2
f 391/2/2 399/2/2 400/2/2
f 400/2/2 399/2/2 401/2/2
f 400/3/2 401/3/2 402/3/2
f 402/3/2 401/3/2 403/3/2
f 402/2/2 403/2/2 404/2/2
f 402/2/2 404/2/2 405/2/2
f 405/2/2 404/2/2 406/2/2
f 397/2/2 390/2/2 407/2/2
f 407/2/2 390/2/2 408/2/2
f 409/2/2 410/2/2 411/2/2
f 411/2/2 410/2/2 412/2/2
f 412/2/2 410/2/2 414/2/2
f 414/2/2 410/2/2 415/2/2
f 413/2/2 414/2/2 415/2/2
f 415/2/2 410/2/2 416/2/2
f 413/2/2 415/2/2 417/2/2
f 413/2/2 417/2/2 419/2/2
f 417/2/2 418/2/2 419/2/2
f 419/2/2 418/2/2 420/2/2
f 421/2/2 422/2/2 423/2/2
f 423/2/2 422/2/2 424/2/2
f 425/2/2 426/2/2 427/2/2
f 427/2/2 426/2/2 428/2/2
f 427/3/2 428/3/2 429/3/2
f 429/3/2 428/3/2 430/3/2
f 431/2/2 432/2/2 433/2/2
f 433/2/2 432/2/2 434/2/2
f 435/3/2 436/3/2 439/3/2
f 439/3/2 436/3/2 440/3/2
f 437/2/2 438/2/2 443/2/2
f 443/2/2 438/2/2 444/2/2
f 440/2/2 441/2/2 445/2/2
f 445/2/2 441/2/2 446/2/2
f 442/2/2 443/2/2 447/2/2
f 447/2/2 443/2/2 448/2/2
f 446/2/2 447/2/2 449/2/2
f 449/2/2 447/2/2 450/2/2
f 449/3/2 450/3/2 451/3/2
f 450/2/2 447/2/2 452/2/2
f 451/3/2 450/3/2 452/3/2
f 452/2/2 447/2/2 453/2/2
f 451/2/2 452/2/2 454/2/2
f 452/3/2 453/3/2 455/3/2
f 454/2/2 452/2/2 455/2/2
f 455/3/2 453/3/2 456/3/2
f 454/3/2 455/3/2 457/3/2
f 455/2/2 456/2/2 458/2/2
f 457/3/2 455/3/2 458/3/2
f 457/2/2 458/2/2 459/2/2
f 458/2/2 456/2/2 460/2/2
f 459/2/2 458/2/2 460/2/2
f 459/3/2 460/3/2 461/3/2
f 460/2/2 456/2/2 462/2/2
f 461/3/2 460/3/2 462/3/2
f 461/2/2 462/2/2 463/2/2
f 462/2/2 456/2/2 464/2/2
f 463/2/2 462/2/2 464/2/2
f 463/3/2 464/3/2 465/3/2
f 464/2/2 456/2/2 466/2/2
f 465/3/2 464/3/2 466/3/2
f 465/2/2 466/2/2 467/2/2
f 466/2/2 456/2/2 467/2/2
f 465/2/2 467/2/2 469/2/2
f 467/2/2 468/2/2 469/2/2
f 469/2/2 468/2/2 470/2/2
f 471/3/2 472/3/2 473/3/2
f 473/3/2 472/3/2 474/3/2
f 475/2/2 476/2/2 477/2/2
f 477/2/2 476/2/2 478/2/2
f 479/2/2 480/2/2 481/2/2
f 481/2/2 480/2/2 482/2/2
f 483/2/2 484/2/2 485/2/2
f 485/2/2 484/2/2 486/2/2
f 487/3/2 488/3/2 489/3/2
f 489/3/2 488/3/2 490/3/2
f 491/3/2 492/3/2 495/3/2
f 495/3/2 492/3/2 496/3/2
f 493/2/2 494/2/2 501/2/2
f 501/2/2 494/2/2 502/2/2
f 497/2/2 498/2/2 503/2/2
f 503/2/2 498/2/2 504/2/2
f 499/2/2 500/2/2 505/2/2
f 505/2/2 500/2/2 506/2/2
f 504/2/2 505/2/2 507/2/2
f 507/2/2 505/2/2 508/2/2
f 509/3/2 510/3/2 511/3/2
f 511/3/2 510/3/2 512/3/2
f 511/2/2 512/2/2 513/2/2
f 511/2/2 513/2/2 515/2/2
f 513/2/2 514/2/2 515/2/2
f 515/2/2 514/2/2 516/2/2
f 516/2/2 514/2/2 517/2/2
f 517/2/2 514/2/2 518/2/2
f 519/3/2 520/3/2 523/3/2
f 523/3/2 520/3/2 524/3/2
f 521/2/2 522/2/2 528/2/2
f 528/2/2 522/2/2 529/2/2
f 526/2/2 527/2/2 530/2/2
f 525/2/2 526/2/2 530/2/2
f 530/2/2 527/2/2 531/2/2
f 532/2/2 533/2/2 534/2/2
f 534/2/2 533/2/2 535/2/2
f 536/2/2 537/2/2 540/2/2
f 537/3/2 538/3/2 541/3/2
f 540/2/2 537/2/2 541/2/2
f 538/2/2 539/2/2 542/2/2
f 541/3/2 538/3/2 542/3/2
f 542/2/2 539/2/2 543/2/2
f 544/2/2 545/2/2 546/2/2
f 546/2/2 545/2/2 547/2/2
f 548/2/2 549/2/2 552/2/2
f 550/2/2 551/2/2 552/2/2
f 549/2/2 550/2/2 552/2/2
f 552/2/2 551/2/2 553/2/2
f 554/2/2 555/2/2 559/2/2
f 555/2/2 556/2/2 559/2/2
f 559/2/2 556/2/2 560/2/2
f 557/2/2 558/2/2 561/2/2
f 561/2/2 558/2/2 562/2/2
f 563/2/2 564/2/2 565/2/2
f 565/2/2 564/2/2 566/2/2
f 567/2/2 568/2/2 571/2/2
f 571/2/2 568/2/2 572/2/2
f 569/2/2 570/2/2 573/2/2
f 573/2/2 570/2/2 574/2/2
f 575/3/2 576/3/2 577/3/2
f 577/3/2 576/3/2 578/3/2
f 579/2/2 580/2/2 581/2/2
f 581/2/2 580/2/2 582/2/2
f 583/2/2 584/2/2 586/2/2
f 584/2/2 585/2/2 586/2/2
f 586/2/2 585/2/2 587/2/2
f 588/1/2 589/1/2 592/1/2
f 592/1/2 589/1/2 593/1/2
f 590/1/2 591/1/2 594/1/2
f 594/1/2 591/1/2 595/1/2
f 596/1/2 597/1/2 600/1/2
f 600/1/2 597/1/2 601/1/2
f 598/1/2 599/1/2 602/1/2
f 602/1/2 599/1/2 603/1/2
f 604/1/2 605/1/2 608/1/2
f 608/1/2 605/1/2 609/1/2
f 606/1/2 607/1/2 610/1/2
f 610/1/2 607/1/2 611/1/2
f 612/3/2 613/3/2 614/3/2
f 614/3/2 613/3/2 615/3/2
f 616/2/2 617/2/2 618/2/2
f 618/2/2 617/2/2 619/2/2
f 620/1/2 621/1/2 626/1/2
f 626/1/2 621/1/2 627/1/2
f 622/1/2 623/1/2 628/1/2
f 628/1/2 623/1/2 629/1/2
f 624/1/2 625/1/2 632/1/2
f 632/1/2 625/1/2 633/1/2
f 630/1/2 631/1/2 634/1/2
f 634/1/2 631/1/2 635/1/2
f 636/1/2 637/1/2 640/1/2
f 640/1/2 637/1/2 641/1/2
f 638/1/2 639/1/2 642/1/2
f 642/1/2 639/1/2 643/1/2
f 644/1/2 645/1/2 648/1/2
f 648/1/2 645/1/2 649/1/2
f 646/1/2 647/1/2 650/1/2
f 650/1/2 647/1/2 651/1/2
f 652/1/2 653/1/2 656/1/2
f 656/1/2 653/1/2 657/1/2
f 654/1/2 655/1/2 658/1/2
f 658/1/2 655/1/2 659/1/2
f 660/2/2 661/2/2 662/2/2
f 662/2/2 661/2/2 663/2/2
f 663/2/2 661/2/2 664/2/2
f 664/2/2 661/2/2 665/2/2
f 663/2/2 664/2/2 666/2/2
f 666/2/2 664/2/2 667/2/2
f 668/3/2 669/3/2 670/3/2
f 670/3/2 669/3/2 671/3/2
f 672/2/2 673/2/2 674/2/2
f 674/2/2 673/2/2 675/2/2
f 676/1/2 677/1/2 680/1/2
f 680/1/2 677/1/2 681/1/2
f 678/1/2 679/1/2 685/1/2
f 685/1/2 679/1/2 686/1/2
f 682/1/2 683/1/2 687/1/2
f 687/1/2 683/1/2 688/1/2
f 684/1/2 685/1/2 690/1/2
f 690/1/2 685/1/2 691/1/2
f 688/1/2 689/1/2 692/1/2
f 692/1/2 689/1/2 693/1/2
f 694/1/2 695/1/2 698/1/2
f 698/1/2 695/1/2 699/1/2
f 696/1/2 697/1/2 700/1/2
f 700/1/2 697/1/2 701/1/2
f 702/1/2 703/1/2 706/1/2
f 706/1/2 703/1/2 707/1/2
f 704/1/2 705/1/2 710/1/2
f 710/1/2 705/1/2 711/1/2
f 707/1/2 708/1/2 712/1/2
f 712/1/2 708/1/2 713/1/2
f 709/1/2 710/1/2 714/1/2
f 714/1/2 710/1/2 715/1/2
f 716/2/2 717/2/2 718/2/2
f 718/2/2 717/2/2 719/2/2
f 720/2/2 721/2/2 722/2/2
f 722/2/2 721/2/2 723/2/2
f 724/2/2 725/2/2 726/2/2
f 726/2/2 725/2/2 727/2/2
f 728/2/2 729/2/2 730/2/2
f 730/2/2 729/2/2 731/2/2
f 732/1/2 733/1/2 735/1/2
f 735/1/2 733/1/2 736/1/2
f 736/1/2 733/1/2 737/1/2
f 737/1/2 733/1/2 738/1/2
f 734/1/2 735/1/2 741/1/2
f 735/1/2 736/1/2 741/1/2
f 741/1/2 736/1/2 742/1/2
f 742/1/2 736/1/2 743/1/2
f 737/1/2 738/1/2 744/1/2
f 738/1/2 739/1/2 744/1/2
f 744/1/2 739/1/2 745/1/2
f 745/1/2 739/1/2 746/1/2
f 741/1/2 742/1/2 748/1/2
f 740/1/2 741/1/2 748/1/2
f 748/1/2 742/1/2 749/1/2
f 746/1/2 747/1/2 750/1/2
f 745/1/2 746/1/2 750/1/2
f 750/1/2 747/1/2 751/1/2
f 740/1/2 748/1/2 752/1/2
f 751/1/2 747/1/2 755/1/2
f 752/1/2 753/1/2 756/1/2
f 740/1/2 752/1/2 756/1/2
f 756/1/2 753/1/2 757/1/2
f 757/1/2 753/1/2 758/1/2
f 754/1/2 755/1/2 761/1/2
f 755/1/2 747/1/2 762/1/2
f 761/1/2 755/1/2 762/1/2
f 762/1/2 747/1/2 763/1/2
f 758/1/2 759/1/2 766/1/2
f 757/1/2 758/1/2 766/1/2
f 766/1/2 759/1/2 767/1/2
f 767/1/2 759/1/2 768/1/2
f 760/1/2 761/1/2 769/1/2
f 761/1/2 762/1/2 769/1/2
f 769/1/2 762/1/2 770/1/2
f 770/1/2 762/1/2 771/1/2
f 764/2/2 765/2/2 774/2/2
f 774/2/2 765/2/2 775/2/2
f 767/1/2 768/1/2 776/1/2
f 769/1/2 770/1/2 776/1/2
f 768/1/2 769/1/2 776/1/2
f 776/1/2 770/1/2 777/1/2
f 772/2/2 773/2/2 778/2/2
f 778/2/2 773/2/2 779/2/2
f 780/2/2 781/2/2 782/2/2
f 782/2/2 781/2/2 783/2/2
f 784/2/2 785/2/2 786/2/2
f 786/2/2 785/2/2 787/2/2
f 788/1/2 789/1/2 791/1/2
f 791/1/2 789/1/2 792/1/2
f 790/1/2 791/1/2 795/1/2
f 792/1/2 793/1/2 795/1/2
f 791/1/2 792/1/2 795/1/2
f 795/1/2 793/1/2 796/1/2
f 794/1/2 795/1/2 798/1/2
f 796/1/2 797/1/2 798/1/2
f 795/1/2 796/1/2 798/1/2
f 798/1/2 797/1/2 799/1/2
f 799/1/2 797/1/2 800/1/2
f 800/1/2 797/1/2 801/1/2
f 799/1/2 800/1/2 802/1/2
f 802/1/2 800/1/2 803/1/2
f 803/1/2 800/1/2 804/1/2
f 804/1/2 800/1/2 805/1/2
f 803/1/2 804/1/2 808/1/2
f 808/1/2 804/1/2 809/1/2
f 806/2/2 807/2/2 812/2/2
f 812/2/2 807/2/2 813/2/2
f 810/2/2 811/2/2 814/2/2
f 814/2/2 811/2/2 815/2/2
f 816/2/2 817/2/2 820/2/2
f 818/2/2 819/2/2 825/2/2
f 816/2/2 820/2/2 826/2/2
f 820/2/2 821/2/2 826/2/2
f 821/2/2 822/2/2 826/2/2
f 822/3/2 823/3/2 827/3/2
f 826/2/2 822/2/2 827/2/2
f 823/2/2 824/2/2 828/2/2
f 827/3/2 823/3/2 828/3/2
f 824/2/2 825/2/2 828/2/2
f 825/2/2 819/2/2 829/2/2
f 828/2/2 825/2/2 829/2/2
f 830/2/2 831/2/2 836/2/2
f 831/3/2 832/3/2 837/3/2
f 836/2/2 831/2/2 837/2/2
f 832/2/2 833/2/2 838/2/2
f 837/3/2 832/3/2 838/3/2
f 833/3/2 834/3/2 839/3/2
f 838/2/2 833/2/2 839/2/2
f 834/2/2 835/2/2 840/2/2
f 839/3/2 834/3/2 840/3/2
f 840/2/2 835/2/2 841/2/2
f 844/3/3 843/3/3 842/3/3
f 845/3/3 843/3/3 844/3/3
f 846/2/3 845/2/3 844/2/3
f 847/2/3 845/2/3 846/2/3
f 848/3/3 847/3/3 846/3/3
f 849/3/3 847/3/3 848/3/3
f 850/2/3 849/2/3 848/2/3
f 851/2/3 849/2/3 850/2/3
f 854/2/3 853/2/3 852/2/3
f 855/2/3 853/2/3 854/2/3
f 856/3/3 855/3/3 854/3/3
f 857/3/3 855/3/3 856/3/3
f 860/2/3 859/2/3 858/2/3
f 861/2/3 859/2/3 860/2/3
f 862/2/3 859/2/3 861/2/3
f 863/2/3 859/2/3 862/2/3
f 864/3/3 863/3/3 862/3/3
f 865/3/3 863/3/3 864/3/3
f 866/2/3 865/2/3 864/2/3
f 868/2/3 865/2/3 866/2/3
f 869/2/3 868/2/3 867/2/3
f 870/2/3 865/2/3 868/2/3
f 870/2/3 868/2/3 869/2/3
f 873/3/3 872/3/3 871/3/3
f 874/3/3 872/3/3 873/3/3
f 877/3/3 876/3/3 875/3/3
f 878/3/3 876/3/3 877/3/3
f 881/3/3 880/3/3 879/3/3
f 882/3/3 880/3/3 881/3/3
f 885/2/3 884/2/3 883/2/3
f 886/2/3 884/2/3 885/2/3
f 891/2/3 888/2/3 887/2/3
f 893/1/3 890/1/3 889/1/3
f 894/1/3 890/1/3 893/1/3
f 897/1/3 893/1/3 892/1/3
f 897/1/3 895/1/3 894/1/3
f 897/1/3 894/1/3 893/1/3
f 898/1/3 895/1/3 897/1/3
f 900/2/3 888/2/3 891/2/3
f 901/1/3 899/1/3 898/1/3
f 901/1/3 897/1/3 896/1/3
f 901/1/3 898/1/3 897/1/3
f 902/1/3 899/1/3 901/1/3
f 903/1/3 899/1/3 902/1/3
f 904/1/3 899/1/3 903/1/3
f 905/1/3 903/1/3 902/1/3
f 906/1/3 903/1/3 905/1/3
f 907/1/3 903/1/3 906/1/3
f 908/1/3 903/1/3 907/1/3
f 909/1/3 907/1/3 906/1/3
f 910/1/3 907/1/3 909/1/3
f 911/2/3 888/2/3 900/2/3
f 912/2/3 888/2/3 911/2/3
f 915/2/3 914/2/3 913/2/3
f 916/2/3 914/2/3 915/2/3
f 919/3/3 918/3/3 917/3/3
f 920/3/3 918/3/3 919/3/3
f 923/3/3 922/3/3 921/3/3
f 924/3/3 922/3/3 923/3/3
f 930/2/3 927/2/3 926/2/3
f 931/3/3 928/3/3 927/3/3
f 931/2/3 927/2/3 930/2/3
f 932/2/3 929/2/3 928/2/3
f 932/3/3 928/3/3 931/3/3
f 933/2/3 929/2/3 932/2/3
f 935/2/3 925/2/3 924/2/3
f 936/2/3 925/2/3 935/2/3
f 937/2/3 935/2/3 934/2/3
f 938/2/3 935/2/3 937/2/3
f 941/2/3 940/2/3 939/2/3
f 942/2/3 940/2/3 941/2/3
f 946/1/3 944/1/3 943/1/3
f 947/1/3 944/1/3 946/1/3
f 948/1/3 944/1/3 947/1/3
f 949/1/3 944/1/3 948/1/3
f 954/1/3 946/1/3 945/1/3
f 954/1/3 947/1/3 946/1/3
f 955/1/3 947/1/3 954/1/3
f 956/1/3 947/1/3 955/1/3
f 957/1/3 950/1/3 949/1/3
f 957/1/3 949/1/3 948/1/3
f 958/1/3 950/1/3 957/1/3
f 959/1/3 950/1/3 958/1/3
f 961/1/3 955/1/3 954/1/3
f 961/1/3 954/1/3 953/1/3
f 962/1/3 955/1/3 961/1/3
f 963/1/3 960/1/3 959/1/3
f 963/1/3 959/1/3 958/1/3
f 964/1/3 960/1/3 963/1/3
f 965/2/3 952/2/3 951/2/3
f 966/2/3 952/2/3 965/2/3
f 967/1/3 961/1/3 953/1/3
f 970/1/3 960/1/3 964/1/3
f 971/3/3 966/3/3 965/3/3
f 972/3/3 966/3/3 971/3/3
f 973/1/3 968/1/3 967/1/3
f 973/1/3 967/1/3 953/1/3
f 974/1/3 968/1/3 973/1/3
f 975/1/3 968/1/3 974/1/3
f 978/1/3 970/1/3 969/1/3
f 979/1/3 960/1/3 970/1/3
f 979/1/3 970/1/3 978/1/3
f 980/1/3 960/1/3 979/1/3
f 981/1/3 976/1/3 975/1/3
f 981/1/3 975/1/3 974/1/3
f 982/1/3 976/1/3 981/1/3
f 983/1/3 976/1/3 982/1/3
f 984/1/3 978/1/3 977/1/3
f 984/1/3 979/1/3 978/1/3
f 985/1/3 979/1/3 984/1/3
f 986/1/3 979/1/3 985/1/3
f 987/2/3 972/2/3 971/2/3
f 988/2/3 972/2/3 987/2/3
f 989/1/3 985/1/3 984/1/3
f 989/1/3 983/1/3 982/1/3
f 989/1/3 984/1/3 983/1/3
f 990/1/3 985/1/3 989/1/3
f 993/2/3 992/2/3 991/2/3
f 994/2/3 992/2/3 993/2/3
f 996/2/3 995/2/3 994/2/3
f 997/2/3 995/2/3 996/2/3
f 1001/2/3 998/2/3 997/2/3
f 1010/2/3 1000/2/3 999/2/3
f 1011/2/3 1000/2/3 1010/2/3
f 1012/2/3 1000/2/3 1011/2/3
f 1013/2/3 1000/2/3 1012/2/3
f 1014/2/3 1000/2/3 1013/2/3
f 1015/2/3 1000/2/3 1014/2/3
f 1016/2/3 1000/2/3 1015/2/3
f 1018/2/3 1001/2/3 997/2/3
f 1018/2/3 1002/2/3 1001/2/3
f 1019/3/3 1003/3/3 1002/3/3
f 1019/2/3 1002/2/3 1018/2/3
f 1020/2/3 1004/2/3 1003/2/3
f 1020/3/3 1003/3/3 1019/3/3
f 1021/3/3 1005/3/3 1004/3/3
f 1021/2/3 1004/2/3 1020/2/3
f 1022/2/3 1006/2/3 1005/2/3
f 1022/3/3 1005/3/3 1021/3/3
f 1023/3/3 1007/3/3 1006/3/3
f 1023/2/3 1006/2/3 1022/2/3
f 1024/2/3 1008/2/3 1007/2/3
f 1024/3/3 1007/3/3 1023/3/3
f 1025/3/3 1009/3/3 1008/3/3
f 1025/2/3 1008/2/3 1024/2/3
f 1026/2/3 1010/2/3 1009/2/3
f 1026/3/3 1009/3/3 1025/3/3
f 1026/2/3 1011/2/3 1010/2/3
f 1027/2/3 1011/2/3 1026/2/3
f 1028/3/3 1013/3/3 1012/3/3
f 1029/3/3 1013/3/3 1028/3/3
f 1030/2/3 1015/2/3 1014/2/3
f 1031/2/3 1015/2/3 1030/2/3
f 1032/2/3 1000/2/3 1016/2/3
f 1033/2/3 1000/2/3 1032/2/3
f 1035/2/3 1018/2/3 1017/2/3
f 1036/2/3 1018/2/3 1035/2/3
f 1037/2/3 1035/2/3 1034/2/3
f 1038/2/3 1035/2/3 1037/2/3
f 1041/2/3 1040/2/3 1039/2/3
f 1042/2/3 1040/2/3 1041/2/3
f 1047/1/3 1044/1/3 1043/1/3
f 1048/1/3 1044/1/3 1047/1/3
f 1052/1/3 1046/1/3 1045/1/3
f 1053/1/3 1046/1/3 1052/1/3
f 1054/1/3 1050/1/3 1049/1/3
f 1055/1/3 1050/1/3 1054/1/3
f 1057/1/3 1052/1/3 1051/1/3
f 1058/1/3 1052/1/3 1057/1/3
f 1059/1/3 1056/1/3 1055/1/3
f 1060/1/3 1056/1/3 1059/1/3
f 1063/1/3 1062/1/3 1061/1/3
f 1064/1/3 1062/1/3 1063/1/3
f 1069/1/3 1066/1/3 1065/1/3
f 1070/1/3 1066/1/3 1069/1/3
f 1073/1/3 1068/1/3 1067/1/3
f 1074/1/3 1068/1/3 1073/1/3
f 1075/1/3 1071/1/3 1070/1/3
f 1076/1/3 1071/1/3 1075/1/3
f 1079/1/3 1073/1/3 1072/1/3
f 1080/1/3 1073/1/3 1079/1/3
f 1081/1/3 1078/1/3 1077/1/3
f 1082/1/3 1078/1/3 1081/1/3
f 1085/2/3 1084/2/3 1083/2/3
f 1086/2/3 1084/2/3 1085/2/3
f 1093/2/3 1088/2/3 1087/2/3
f 1094/2/3 1088/2/3 1093/2/3
f 1095/3/3 1092/3/3 1091/3/3
f 1095/3/3 1090/3/3 1089/3/3
f 1095/3/3 1091/3/3 1090/3/3
f 1096/2/3 1093/2/3 1092/2/3
f 1096/3/3 1092/3/3 1095/3/3
f 1097/2/3 1093/2/3 1096/2/3
f 1100/2/3 1099/2/3 1098/2/3
f 1101/2/3 1099/2/3 1100/2/3
f 1103/2/3 1102/2/3 1101/2/3
f 1104/2/3 1102/2/3 1103/2/3
f 1112/1/3 1107/1/3 1106/1/3
f 1113/1/3 1107/1/3 1112/1/3
f 1114/1/3 1109/1/3 1108/1/3
f 1115/1/3 1109/1/3 1114/1/3
f 1118/1/3 1111/1/3 1110/1/3
f 1119/1/3 1111/1/3 1118/1/3
f 1120/1/3 1117/1/3 1116/1/3
f 1121/1/3 1117/1/3 1120/1/3
f 1128/1/3 1125/1/3 1124/1/3
f 1129/1/3 1125/1/3 1128/1/3
f 1130/3/3 1127/3/3 1126/3/3
f 1131/3/3 1127/3/3 1130/3/3
f 1132/2/3 1123/2/3 1122/2/3
f 1133/2/3 1123/2/3 1132/2/3
f 1134/2/3 1105/2/3 1104/2/3
f 1135/2/3 1105/2/3 1134/2/3
f 1138/3/3 1133/3/3 1132/3/3
f 1139/3/3 1133/3/3 1138/3/3
f 1140/1/3 1137/1/3 1136/1/3
f 1141/1/3 1137/1/3 1140/1/3
f 1142/2/3 1131/2/3 1130/2/3
f 1143/2/3 1131/2/3 1142/2/3
f 1148/2/3 1139/2/3 1138/2/3
f 1149/2/3 1139/2/3 1148/2/3
f 1150/1/3 1145/1/3 1144/1/3
f 1151/1/3 1145/1/3 1150/1/3
f 1156/1/3 1147/1/3 1146/1/3
f 1157/1/3 1147/1/3 1156/1/3
f 1158/1/3 1153/1/3 1152/1/3
f 1159/1/3 1153/1/3 1158/1/3
f 1160/1/3 1155/1/3 1154/1/3
f 1161/1/3 1155/1/3 1160/1/3
f 1166/2/3 1163/2/3 1162/2/3
f 1167/3/3 1164/3/3 1163/3/3
f 1167/2/3 1163/2/3 1166/2/3
f 1168/2/3 1165/2/3 1164/2/3
f 1168/3/3 1164/3/3 1167/3/3
f 1169/2/3 1165/2/3 1168/2/3
f 1170/2/3 1165/2/3 1169/2/3
f 1178/3/3 1169/3/3 1168/3/3
f 1179/3/3 1169/3/3 1178/3/3
f 1180/2/3 1177/2/3 1176/2/3
f 1180/2/3 1172/2/3 1171/2/3
f 1180/2/3 1173/2/3 1172/2/3
f 1180/2/3 1176/2/3 1175/2/3
f 1180/2/3 1175/2/3 1174/2/3
f 1180/2/3 1174/2/3 1173/2/3
f 1181/2/3 1177/2/3 1180/2/3
f 1188/1/3 1183/1/3 1182/1/3
f 1189/1/3 1183/1/3 1188/1/3
f 1190/1/3 1185/1/3 1184/1/3
f 1191/1/3 1185/1/3 1190/1/3
f 1193/2/3 1187/2/3 1186/2/3
f 1194/2/3 1187/2/3 1193/2/3
f 1199/3/3 1193/3/3 1192/3/3
f 1200/3/3 1193/3/3 1199/3/3
f 1201/2/3 1195/2/3 1194/2/3
f 1202/2/3 1195/2/3 1201/2/3
f 1203/1/3 1197/1/3 1196/1/3
f 1204/1/3 1197/1/3 1203/1/3
f 1207/2/3 1199/2/3 1198/2/3
f 1208/2/3 1199/2/3 1207/2/3
f 1209/3/3 1206/3/3 1205/3/3
f 1210/3/3 1206/3/3 1209/3/3
f 1212/3/3 1208/3/3 1207/3/3
f 1213/3/3 1208/3/3 1212/3/3
f 1216/2/3 1210/2/3 1209/2/3
f 1217/3/3 1212/3/3 1211/3/3
f 1218/2/3 1213/2/3 1212/2/3
f 1218/3/3 1212/3/3 1217/3/3
f 1219/2/3 1213/2/3 1218/2/3
f 1221/2/3 1215/2/3 1214/2/3
f 1222/2/3 1215/2/3 1221/2/3
f 1225/2/3 1216/2/3 1209/2/3
f 1226/2/3 1216/2/3 1225/2/3
f 1227/3/3 1219/3/3 1218/3/3
f 1228/3/3 1219/3/3 1227/3/3
f 1231/2/3 1221/2/3 1220/2/3
f 1232/2/3 1221/2/3 1231/2/3
f 1233/1/3 1224/1/3 1223/1/3
f 1234/1/3 1224/1/3 1233/1/3
f 1235/2/3 1229/2/3 1228/2/3
f 1236/2/3 1229/2/3 1235/2/3
f 1237/2/3 1231/2/3 1230/2/3
f 1238/2/3 1231/2/3 1237/2/3
f 1239/2/3 1231/2/3 1238/2/3
f 1244/2/3 1238/2/3 1237/2/3
f 1244/2/3 1237/2/3 1236/2/3
f 1245/2/3 1238/2/3 1244/2/3
f 1246/1/3 1241/1/3 1240/1/3
f 1247/1/3 1241/1/3 1246/1/3
f 1248/1/3 1243/1/3 1242/1/3
f 1249/1/3 1243/1/3 1248/1/3
f 1252/2/3 1251/2/3 1250/2/3
f 1253/2/3 1251/2/3 1252/2/3
f 1256/2/3 1255/2/3 1254/2/3
f 1257/2/3 1255/2/3 1256/2/3
f 1260/2/3 1259/2/3 1258/2/3
f 1261/2/3 1259/2/3 1260/2/3
f 1264/2/3 1263/2/3 1262/2/3
f 1265/2/3 1263/2/3 1264/2/3
f 1268/2/3 1267/2/3 1266/2/3
f 1269/2/3 1267/2/3 1268/2/3
f 1270/2/4 1271/2/4 1272/2/4
f 1272/2/4 1271/2/4 1273/2/4
f 1272/3/4 1273/3/4 1274/3/4
f 1274/3/4 1273/3/4 1275/3/4
f 1274/2/4 1275/2/4 1276/2/4
f 1276/2/4 1275/2/4 1277/2/4
f 1278/2/4 1279/2/4 1280/2/4
f 1280/2/4 1279/2/4 1281/2/4
f 1282/2/4 1283/2/4 1284/2/4
f 1284/2/4 1283/2/4 1285/2/4
f 1286/2/4 1287/2/4 1288/2/4
f 1288/2/4 1287/2/4 1289/2/4
f 1290/2/4 1291/2/4 1292/2/4
f 1292/2/4 1291/2/4 1293/2/4
f 1294/3/4 1295/3/4 1296/3/4
f 1296/3/4 1295/3/4 1297/3/4
f 1298/2/4 1299/2/4 1300/2/4
f 1300/2/4 1299/2/4 1301/2/4
f 1302/2/4 1303/2/4 1304/2/4
f 1304/2/4 1303/2/4 1305/2/4
f 1305/2/4 1306/2/4 1307/2/4
f 1307/2/4 1306/2/4 1308/2/4
f 1309/2/4 1310/2/4 1315/2/4
f 1315/2/4 1310/2/4 1316/2/4
f 1316/2/4 1310/2/4 1317/2/4
f 1317/2/4 1310/2/4 1318/2/4
f 1311/2/4 1312/2/4 1320/2/4
f 1312/3/4 1313/3/4 1321/3/4
f 1320/2/4 1312/2/4 1321/2/4
f 1313/2/4 1314/2/4 1322/2/4
f 1321/3/4 1313/3/4 1322/3/4
f 1322/2/4 1314/2/4 1323/2/4
f 1319/2/4 1320/2/4 1328/2/4
f 1328/2/4 1320/2/4 1329/2/4
f 1324/3/4 1325/3/4 1330/3/4
f 1325/2/4 1326/2/4 1331/2/4
f 1330/3/4 1325/3/4 1331/3/4
f 1331/2/4 1326/2/4 1332/2/4
f 1327/2/4 1328/2/4 1333/2/4
f 1333/2/4 1328/2/4 1334/2/4
f 1335/2/4 1336/2/4 1337/2/4
f 1337/2/4 1336/2/4 1338/2/4
f 1338/2/4 1339/2/4 1344/2/4
f 1344/2/4 1339/2/4 1345/2/4
f 1340/2/4 1341/2/4 1348/2/4
f 1348/2/4 1341/2/4 1349/2/4
f 1349/2/4 1341/2/4 1350/2/4
f 1341/3/4 1342/3/4 1351/3/4
f 1350/2/4 1341/2/4 1351/2/4
f 1342/2/4 1343/2/4 1352/2/4
f 1351/3/4 1342/3/4 1352/3/4
f 1352/2/4 1343/2/4 1353/2/4
f 1353/2/4 1343/2/4 1354/2/4
f 1338/2/4 1344/2/4 1356/2/4
f 1356/2/4 1344/2/4 1357/2/4
f 1345/2/4 1339/2/4 1358/2/4
f 1358/2/4 1339/2/4 1359/2/4
f 1346/2/4 1347/2/4 1361/2/4
f 1361/2/4 1347/2/4 1362/2/4
f 1340/2/4 1348/2/4 1363/2/4
f 1363/2/4 1348/2/4 1364/2/4
f 1349/2/4 1350/2/4 1365/2/4
f 1365/2/4 1350/2/4 1366/2/4
f 1352/3/4 1353/3/4 1368/3/4
f 1368/3/4 1353/3/4 1369/3/4
f 1355/2/4 1356/2/4 1370/2/4
f 1370/2/4 1356/2/4 1371/2/4
f 1363/2/4 1364/2/4 1372/2/4
f 1361/2/4 1362/2/4 1372/2/4
f 1366/2/4 1367/2/4 1372/2/4
f 1364/2/4 1365/2/4 1372/2/4
f 1365/2/4 1366/2/4 1372/2/4
f 1362/2/4 1363/2/4 1372/2/4
f 1360/2/4 1361/2/4 1372/2/4
f 1372/2/4 1367/2/4 1373/2/4
f 1373/2/4 1374/2/4 1377/2/4
f 1377/2/4 1374/2/4 1378/2/4
f 1375/2/4 1376/2/4 1380/2/4
f 1380/2/4 1376/2/4 1381/2/4
f 1378/2/4 1379/2/4 1382/2/4
f 1382/2/4 1379/2/4 1383/2/4
f 1385/1/4 1386/1/4 1391/1/4
f 1391/1/4 1386/1/4 1392/1/4
f 1387/1/4 1388/1/4 1393/1/4
f 1393/1/4 1388/1/4 1394/1/4
f 1389/2/4 1390/2/4 1396/2/4
f 1396/2/4 1390/2/4 1397/2/4
f 1395/3/4 1396/3/4 1402/3/4
f 1402/3/4 1396/3/4 1403/3/4
f 1397/2/4 1398/2/4 1404/2/4
f 1404/2/4 1398/2/4 1405/2/4
f 1399/1/4 1400/1/4 1406/1/4
f 1406/1/4 1400/1/4 1407/1/4
f 1401/2/4 1402/2/4 1410/2/4
f 1410/2/4 1402/2/4 1411/2/4
f 1408/3/4 1409/3/4 1412/3/4
f 1412/3/4 1409/3/4 1413/3/4
f 1410/3/4 1411/3/4 1415/3/4
f 1415/3/4 1411/3/4 1416/3/4
f 1383/2/4 1384/2/4 1418/2/4
f 1418/2/4 1384/2/4 1419/2/4
f 1414/3/4 1415/3/4 1420/3/4
f 1415/2/4 1416/2/4 1421/2/4
f 1420/3/4 1415/3/4 1421/3/4
f 1421/2/4 1416/2/4 1422/2/4
f 1417/2/4 1418/2/4 1424/2/4
f 1424/2/4 1418/2/4 1425/2/4
f 1412/2/4 1413/2/4 1428/2/4
f 1428/2/4 1413/2/4 1429/2/4
f 1421/3/4 1422/3/4 1430/3/4
f 1430/3/4 1422/3/4 1431/3/4
f 1423/2/4 1424/2/4 1434/2/4
f 1434/2/4 1424/2/4 1435/2/4
f 1426/1/4 1427/1/4 1436/1/4
f 1436/1/4 1427/1/4 1437/1/4
f 1431/2/4 1432/2/4 1438/2/4
f 1438/2/4 1432/2/4 1439/2/4
f 1433/2/4 1434/2/4 1440/2/4
f 1440/2/4 1434/2/4 1441/2/4
f 1441/2/4 1434/2/4 1442/2/4
f 1440/2/4 1441/2/4 1447/2/4
f 1439/2/4 1440/2/4 1447/2/4
f 1447/2/4 1441/2/4 1448/2/4
f 1443/1/4 1444/1/4 1449/1/4
f 1449/1/4 1444/1/4 1450/1/4
f 1445/1/4 1446/1/4 1451/1/4
f 1451/1/4 1446/1/4 1452/1/4
f 1453/2/4 1454/2/4 1455/2/4
f 1455/2/4 1454/2/4 1456/2/4
f 1457/2/4 1458/2/4 1459/2/4
f 1459/2/4 1458/2/4 1460/2/4
f 1461/2/4 1462/2/4 1463/2/4
f 1463/2/4 1462/2/4 1464/2/4
f 1465/1/4 1466/1/4 1471/1/4
f 1471/1/4 1466/1/4 1472/1/4
f 1467/1/4 1468/1/4 1473/1/4
f 1473/1/4 1468/1/4 1474/1/4
f 1469/1/4 1470/1/4 1477/1/4
f 1477/1/4 1470/1/4 1478/1/4
f 1475/1/4 1476/1/4 1479/1/4
f 1479/1/4 1476/1/4 1480/1/4
f 1483/1/4 1484/1/4 1487/1/4
f 1487/1/4 1484/1/4 1488/1/4
f 1489/1/4 1490/1/4 1491/1/4
f 1491/1/4 1490/1/4 1492/1/4
f 1485/2/4 1486/2/4 1493/2/4
f 1493/2/4 1486/2/4 1494/2/4
f 1481/2/4 1482/2/4 1499/2/4
f 1499/2/4 1482/2/4 1500/2/4
f 1495/1/4 1496/1/4 1501/1/4
f 1501/1/4 1496/1/4 1502/1/4
f 1497/1/4 1498/1/4 1507/1/4
f 1507/1/4 1498/1/4 1508/1/4
f 1503/1/4 1504/1/4 1509/1/4
f 1509/1/4 1504/1/4 1510/1/4
f 1505/1/4 1506/1/4 1511/1/4
f 1511/1/4 1506/1/4 1512/1/4
f 1513/2/4 1514/2/4 1515/2/4
f 1515/2/4 1514/2/4 1516/2/4
f 1517/2/4 1518/2/4 1519/2/4
f 1519/2/4 1518/2/4 1520/2/4
f 1521/1/4 1522/1/4 1525/1/4
f 1525/1/4 1522/1/4 1526/1/4
f 1523/1/4 1524/1/4 1530/1/4
f 1530/1/4 1524/1/4 1531/1/4
f 1527/1/4 1528/1/4 1532/1/4
f 1532/1/4 1528/1/4 1533/1/4
f 1529/1/4 1530/1/4 1535/1/4
f 1535/1/4 1530/1/4 1536/1/4
f 1533/1/4 1534/1/4 1537/1/4
f 1537/1/4 1534/1/4 1538/1/4
f 1539/1/4 1540/1/4 1541/1/4
f 1541/1/4 1540/1/4 1542/1/4
f 1543/1/4 1544/1/4 1547/1/4
f 1547/1/4 1544/1/4 1548/1/4
f 1545/1/4 1546/1/4 1551/1/4
f 1551/1/4 1546/1/4 1552/1/4
f 1548/1/4 1549/1/4 1553/1/4
f 1553/1/4 1549/1/4 1554/1/4
f 1550/1/4 1551/1/4 1557/1/4
f 1557/1/4 1551/1/4 1558/1/4
f 1555/1/4 1556/1/4 1559/1/4
f 1559/1/4 1556/1/4 1560/1/4
f 1561/2/4 1562/2/4 1563/2/4
f 1563/2/4 1562/2/4 1564/2/4
f 1565/1/4 1566/1/4 1568/1/4
f 1568/1/4 1566/1/4 1569/1/4
f 1569/1/4 1566/1/4 1570/1/4
f 1570/1/4 1566/1/4 1571/1/4
f 1567/1/4 1568/1/4 1576/1/4
f 1568/1/4 1569/1/4 1576/1/4
f 1576/1/4 1569/1/4 1577/1/4
f 1577/1/4 1569/1/4 1578/1/4
f 1571/1/4 1572/1/4 1579/1/4
f 1570/1/4 1571/1/4 1579/1/4
f 1579/1/4 1572/1/4 1580/1/4
f 1580/1/4 1572/1/4 1581/1/4
f 1576/1/4 1577/1/4 1583/1/4
f 1575/1/4 1576/1/4 1583/1/4
f 1583/1/4 1577/1/4 1584/1/4
f 1581/1/4 1582/1/4 1585/1/4
f 1580/1/4 1581/1/4 1585/1/4
f 1585/1/4 1582/1/4 1586/1/4
f 1575/1/4 1583/1/4 1587/1/4
f 1586/1/4 1582/1/4 1590/1/4
f 1587/1/4 1588/1/4 1591/1/4
f 1575/1/4 1587/1/4 1591/1/4
f 1591/1/4 1588/1/4 1592/1/4
f 1592/1/4 1588/1/4 1593/1/4
f 1589/1/4 1590/1/4 1596/1/4
f 1590/1/4 1582/1/4 1597/1/4
f 1596/1/4 1590/1/4 1597/1/4
f 1597/1/4 1582/1/4 1598/1/4
f 1593/1/4 1594/1/4 1599/1/4
f 1592/1/4 1593/1/4 1599/1/4
f 1599/1/4 1594/1/4 1600/1/4
f 1600/1/4 1594/1/4 1601/1/4
f 1595/1/4 1596/1/4 1602/1/4
f 1596/1/4 1597/1/4 1602/1/4
f 1602/1/4 1597/1/4 1603/1/4
f 1603/1/4 1597/1/4 1604/1/4
f 1573/2/4 1574/2/4 1605/2/4
f 1605/2/4 1574/2/4 1606/2/4
f 1602/1/4 1603/1/4 1607/1/4
f 1600/1/4 1601/1/4 1607/1/4
f 1601/1/4 1602/1/4 1607/1/4
f 1607/1/4 1603/1/4 1608/1/4
f 1609/2/4 1610/2/4 1611/2/4
f 1611/2/4 1610/2/4 1612/2/4
f 1614/1/4 1615/1/4 1617/1/4
f 1617/1/4 1615/1/4 1618/1/4
f 1616/1/4 1617/1/4 1621/1/4
f 1618/1/4 1619/1/4 1621/1/4
f 1617/1/4 1618/1/4 1621/1/4
f 1621/1/4 1619/1/4 1622/1/4
f 1620/1/4 1621/1/4 1624/1/4
f 1622/1/4 1623/1/4 1624/1/4
f 1621/1/4 1622/1/4 1624/1/4
f 1624/1/4 1623/1/4 1625/1/4
f 1625/1/4 1623/1/4 1626/1/4
f 1626/1/4 1623/1/4 1627/1/4
f 1625/1/4 1626/1/4 1628/1/4
f 1628/1/4 1626/1/4 1629/1/4
f 1629/1/4 1626/1/4 1630/1/4
f 1630/1/4 1626/1/4 1631/1/4
f 1629/1/4 1630/1/4 1632/1/4
f 1632/1/4 1630/1/4 1633/1/4
f 1612/2/4 1613/2/4 1634/2/4
f 1634/2/4 1613/2/4 1635/2/4
f 1636/2/4 1637/2/4 1638/2/4
f 1638/2/4 1637/2/4 1639/2/4
f 1640/2/4 1641/2/4 1642/2/4
f 1642/2/4 1641/2/4 1643/2/4
f 1643/2/4 1641/2/4 1645/2/4
f 1644/2/4 1645/2/4 1646/2/4
f 1645/2/4 1641/2/4 1647/2/4
f 1646/2/4 1645/2/4 1647/2/4
f 1648/2/4 1649/2/4 1650/2/4
f 1650/2/4 1649/2/4 1651/2/4
f 1656/2/5 1653/2/5 1652/2/5
f 1657/3/5 1654/3/5 1653/3/5
f 1657/2/5 1653/2/5 1656/2/5
f 1658/3/5 1654/3/5 1657/3/5
f 1659/3/5 1654/3/5 1658/3/5
f 1662/3/5 1656/3/5 1655/3/5
f 1662/3/5 1657/3/5 1656/3/5
f 1663/3/5 1657/3/5 1662/3/5
f 1664/2/5 1658/2/5 1657/2/5
f 1664/3/5 1657/3/5 1663/3/5
f 1665/3/5 1660/3/5 1659/3/5
f 1665/2/5 1658/2/5 1664/2/5
f 1665/3/5 1659/3/5 1658/3/5
f 1666/3/5 1660/3/5 1665/3/5
f 1668/3/5 1662/3/5 1661/3/5
f 1668/3/5 1663/3/5 1662/3/5
f 1669/2/5 1664/2/5 1663/2/5
f 1669/3/5 1663/3/5 1668/3/5
f 1669/2/5 1667/2/5 1666/2/5
f 1669/2/5 1665/2/5 1664/2/5
f 1669/2/5 1666/2/5 1665/2/5
f 1670/2/5 1667/2/5 1669/2/5
f 1671/2/5 1667/2/5 1670/2/5
f 1672/2/5 1669/2/5 1668/2/5
f 1672/2/5 1670/2/5 1669/2/5
f 1672/3/5 1671/3/5 1670/3/5
f 1673/3/5 1671/3/5 1672/3/5
f 1674/2/5 1672/2/5 1668/2/5
f 1674/2/5 1673/2/5 1672/2/5
f 1675/2/5 1673/2/5 1674/2/5
f 1676/2/5 1673/2/5 1675/2/5
f 1677/2/5 1673/2/5 1676/2/5
f 1678/2/5 1676/2/5 1675/2/5
f 1679/2/5 1676/2/5 1678/2/5
f 1680/2/5 1676/2/5 1679/2/5
f 1681/2/5 1676/2/5 1680/2/5
f 1682/2/5 1680/2/5 1679/2/5
f 1683/2/5 1680/2/5 1682/2/5
f 1686/2/5 1685/2/5 1684/2/5
f 1687/2/5 1685/2/5 1686/2/5
f 1690/2/5 1689/2/5 1688/2/5
f 1691/2/5 1689/2/5 1690/2/5
f 1694/3/5 1693/3/5 1692/3/5
f 1695/3/5 1693/3/5 1694/3/5
f 1700/3/5 1697/3/5 1696/3/5
f 1701/3/5 1697/3/5 1700/3/5
f 1703/1/5 1699/1/5 1698/1/5
f 1704/1/5 1699/1/5 1703/1/5
f 1707/1/5 1705/1/5 1704/1/5
f 1707/1/5 1704/1/5 1703/1/5
f 1707/1/5 1703/1/5 1702/1/5
f 1708/1/5 1705/1/5 1707/1/5
f 1710/1/5 1707/1/5 1706/1/5
f 1710/1/5 1709/1/5 1708/1/5
f 1710/1/5 1708/1/5 1707/1/5
f 1711/1/5 1709/1/5 1710/1/5
f 1712/1/5 1709/1/5 1711/1/5
f 1713/1/5 1709/1/5 1712/1/5
f 1714/1/5 1712/1/5 1711/1/5
f 1715/1/5 1712/1/5 1714/1/5
f 1716/1/5 1712/1/5 1715/1/5
f 1717/1/5 1712/1/5 1716/1/5
f 1718/1/5 1716/1/5 1715/1/5
f 1719/1/5 1716/1/5 1718/1/5
f 1723/1/5 1721/1/5 1720/1/5
f 1724/1/5 1721/1/5 1723/1/5
f 1725/1/5 1721/1/5 1724/1/5
f 1726/1/5 1721/1/5 1725/1/5
f 1729/1/5 1723/1/5 1722/1/5
f 1729/1/5 1724/1/5 1723/1/5
f 1730/1/5 1724/1/5 1729/1/5
f 1731/1/5 1724/1/5 1730/1/5
f 1732/1/5 1726/1/5 1725/1/5
f 1732/1/5 1727/1/5 1726/1/5
f 1733/1/5 1727/1/5 1732/1/5
f 1734/1/5 1727/1/5 1733/1/5
f 1736/1/5 1730/1/5 1729/1/5
f 1736/1/5 1729/1/5 1728/1/5
f 1737/1/5 1730/1/5 1736/1/5
f 1738/1/5 1735/1/5 1734/1/5
f 1738/1/5 1734/1/5 1733/1/5
f 1739/1/5 1735/1/5 1738/1/5
f 1740/1/5 1736/1/5 1728/1/5
f 1743/1/5 1735/1/5 1739/1/5
f 1744/1/5 1741/1/5 1740/1/5
f 1744/1/5 1740/1/5 1728/1/5
f 1745/1/5 1741/1/5 1744/1/5
f 1746/1/5 1741/1/5 1745/1/5
f 1749/1/5 1743/1/5 1742/1/5
f 1750/1/5 1735/1/5 1743/1/5
f 1750/1/5 1743/1/5 1749/1/5
f 1751/1/5 1735/1/5 1750/1/5
f 1752/1/5 1747/1/5 1746/1/5
f 1752/1/5 1746/1/5 1745/1/5
f 1753/1/5 1747/1/5 1752/1/5
f 1754/1/5 1747/1/5 1753/1/5
f 1755/1/5 1749/1/5 1748/1/5
f 1755/1/5 1750/1/5 1749/1/5
f 1756/1/5 1750/1/5 1755/1/5
f 1757/1/5 1750/1/5 1756/1/5
f 1758/1/5 1754/1/5 1753/1/5
f 1758/1/5 1756/1/5 1755/1/5
f 1758/1/5 1755/1/5 1754/1/5
f 1759/1/5 1756/1/5 1758/1/5
f 1764/1/5 1761/1/5 1760/1/5
f 1765/1/5 1761/1/5 1764/1/5
f 1769/1/5 1763/1/5 1762/1/5
f 1770/1/5 1763/1/5 1769/1/5
f 1771/1/5 1767/1/5 1766/1/5
f 1772/1/5 1767/1/5 1771/1/5
f 1774/1/5 1769/1/5 1768/1/5
f 1775/1/5 1769/1/5 1774/1/5
f 1776/1/5 1773/1/5 1772/1/5
f 1777/1/5 1773/1/5 1776/1/5
f 1782/1/5 1779/1/5 1778/1/5
f 1783/1/5 1779/1/5 1782/1/5
f 1784/1/5 1781/1/5 1780/1/5
f 1785/1/5 1781/1/5 1784/1/5
f 1790/1/5 1787/1/5 1786/1/5
f 1791/1/5 1787/1/5 1790/1/5
f 1794/1/5 1789/1/5 1788/1/5
f 1795/1/5 1789/1/5 1794/1/5
f 1796/1/5 1792/1/5 1791/1/5
f 1797/1/5 1792/1/5 1796/1/5
f 1800/1/5 1794/1/5 1793/1/5
f 1801/1/5 1794/1/5 1800/1/5
f 1802/1/5 1799/1/5 1798/1/5
f 1803/1/5 1799/1/5 1802/1/5
f 1810/1/5 1805/1/5 1804/1/5
f 1811/1/5 1805/1/5 1810/1/5
f 1812/1/5 1807/1/5 1806/1/5
f 1813/1/5 1807/1/5 1812/1/5
f 1816/1/5 1809/1/5 1808/1/5
f 1817/1/5 1809/1/5 1816/1/5
f 1818/1/5 1815/1/5 1814/1/5
f 1819/1/5 1815/1/5 1818/1/5
f 1824/1/5 1821/1/5 1820/1/5
f 1825/1/5 1821/1/5 1824/1/5
f 1826/1/5 1823/1/5 1822/1/5
f 1827/1/5 1823/1/5 1826/1/5
f 1832/1/5 1829/1/5 1828/1/5
f 1833/1/5 1829/1/5 1832/1/5
f 1834/1/5 1831/1/5 1830/1/5
f 1835/1/5 1831/1/5 1834/1/5
f 1840/1/5 1837/1/5 1836/1/5
f 1841/1/5 1837/1/5 1840/1/5
f 1846/1/5 1839/1/5 1838/1/5
f 1847/1/5 1839/1/5 1846/1/5
f 1848/1/5 1843/1/5 1842/1/5
f 1849/1/5 1843/1/5 1848/1/5
f 1850/1/5 1845/1/5 1844/1/5
f 1851/1/5 1845/1/5 1850/1/5
f 1856/1/5 1853/1/5 1852/1/5
f 1857/1/5 1853/1/5 1856/1/5
f 1858/1/5 1855/1/5 1854/1/5
f 1859/1/5 1855/1/5 1858/1/5
f 1864/1/5 1861/1/5 1860/1/5
f 1865/1/5 1861/1/5 1864/1/5
f 1866/1/5 1863/1/5 1862/1/5
f 1867/1/5 1863/1/5 1866/1/5
f 1872/1/5 1869/1/5 1868/1/5
f 1873/1/5 1869/1/5 1872/1/5
f 1874/1/5 1871/1/5 1870/1/5
f 1875/1/5 1871/1/5 1874/1/5
f 1880/1/5 1877/1/5 1876/1/5
f 1881/1/5 1877/1/5 1880/1/5
f 1882/1/5 1879/1/5 1878/1/5
f 1883/1/5 1879/1/5 1882/1/5
f 1886/2/5 1885/2/5 1884/2/5
f 1887/2/5 1885/2/5 1886/2/5
f 1894/3/5 1889/3/5 1888/3/5
f 1895/2/5 1890/2/5 1889/2/5
f 1895/3/5 1889/3/5 1894/3/5
f 1896/3/5 1891/3/5 1890/3/5
f 1896/2/5 1890/2/5 1895/2/5
f 1897/2/5 1892/2/5 1891/2/5
f 1897/3/5 1891/3/5 1896/3/5
f 1898/2/5 1892/2/5 1897/2/5
f 1901/2/5 1894/2/5 1893/2/5
f 1901/2/5 1895/2/5 1894/2/5
f 1902/2/5 1895/2/5 1901/2/5
f 1903/2/5 1895/2/5 1902/2/5
f 1904/2/5 1899/2/5 1898/2/5
f 1905/2/5 1899/2/5 1904/2/5
f 1908/2/5 1901/2/5 1900/2/5
f 1908/2/5 1902/2/5 1901/2/5
f 1909/2/5 1902/2/5 1908/2/5
f 1910/2/5 1906/2/5 1905/2/5
f 1911/2/5 1906/2/5 1910/2/5
f 1915/2/5 1909/2/5 1908/2/5
f 1915/2/5 1908/2/5 1907/2/5
f 1916/2/5 1909/2/5 1915/2/5
f 1917/2/5 1912/2/5 1911/2/5
f 1918/2/5 1912/2/5 1917/2/5
f 1919/2/5 1914/2/5 1913/2/5
f 1920/2/5 1915/2/5 1907/2/5
f 1921/3/5 1918/3/5 1917/3/5
f 1922/3/5 1918/3/5 1921/3/5
f 1923/2/5 1914/2/5 1919/2/5
f 1924/2/5 1914/2/5 1923/2/5
f 1925/2/5 1920/2/5 1907/2/5
f 1926/2/5 1922/2/5 1921/2/5
f 1927/2/5 1922/2/5 1926/2/5
f 1928/3/5 1927/3/5 1926/3/5
f 1929/3/5 1927/3/5 1928/3/5
f 1930/2/5 1925/2/5 1907/2/5
f 1931/2/5 1925/2/5 1930/2/5
f 1932/2/5 1925/2/5 1931/2/5
f 1935/2/5 1929/2/5 1928/2/5
f 1936/2/5 1929/2/5 1935/2/5
f 1937/2/5 1933/2/5 1932/2/5
f 1937/2/5 1932/2/5 1931/2/5
f 1938/2/5 1933/2/5 1937/2/5
f 1941/2/5 1935/2/5 1934/2/5
f 1942/2/5 1935/2/5 1941/2/5
f 1943/2/5 1939/2/5 1938/2/5
f 1944/2/5 1939/2/5 1943/2/5
f 1945/2/5 1941/2/5 1940/2/5
f 1946/2/5 1941/2/5 1945/2/5
f 1947/2/5 1945/2/5 1944/2/5
f 1948/2/5 1945/2/5 1947/2/5
f 1954/3/5 1950/3/5 1949/3/5
f 1955/2/5 1952/2/5 1951/2/5
f 1955/2/5 1951/2/5 1950/2/5
f 1955/3/5 1950/3/5 1954/3/5
f 1956/2/5 1952/2/5 1955/2/5
f 1958/2/5 1954/2/5 1953/2/5
f 1958/2/5 1957/2/5 1956/2/5
f 1958/2/5 1956/2/5 1955/2/5
f 1958/2/5 1955/2/5 1954/2/5
f 1959/2/5 1957/2/5 1958/2/5
f 1960/2/5 1958/2/5 1953/2/5
f 1961/2/5 1958/2/5 1960/2/5
f 1962/2/5 1957/2/5 1959/2/5
f 1963/2/5 1957/2/5 1962/2/5
f 1964/2/5 1957/2/5 1963/2/5
f 1967/2/5 1960/2/5 1953/2/5
f 1968/2/5 1960/2/5 1967/2/5
f 1969/2/5 1965/2/5 1964/2/5
f 1969/2/5 1964/2/5 1963/2/5
f 1970/2/5 1965/2/5 1969/2/5
f 1971/2/5 1965/2/5 1970/2/5
f 1972/2/5 1971/2/5 1970/2/5
f 1973/2/5 1971/2/5 1972/2/5
f 1974/2/5 1972/2/5 1970/2/5
f 1974/3/5 1973/3/5 1972/3/5
f 1975/3/5 1973/3/5 1974/3/5
f 1976/2/5 1967/2/5 1966/2/5
f 1979/2/5 1974/2/5 1970/2/5
f 1979/2/5 1975/2/5 1974/2/5
f 1980/2/5 1975/2/5 1979/2/5
f 1981/2/5 1977/2/5 1976/2/5
f 1981/2/5 1976/2/5 1966/2/5
f 1982/2/5 1977/2/5 1981/2/5
f 1983/2/5 1977/2/5 1982/2/5
f 1986/2/5 1980/2/5 1979/2/5
f 1986/2/5 1979/2/5 1978/2/5
f 1987/2/5 1980/2/5 1986/2/5
f 1988/2/5 1980/2/5 1987/2/5
f 1989/2/5 1984/2/5 1983/2/5
f 1989/2/5 1983/2/5 1982/2/5
f 1990/2/5 1987/2/5 1986/2/5
f 1990/2/5 1986/2/5 1985/2/5
f 1991/2/5 1989/2/5 1982/2/5
f 1991/2/5 1990/2/5 1989/2/5
f 1992/2/5 1990/2/5 1991/2/5
f 1993/2/5 1987/2/5 1990/2/5
f 1993/2/5 1990/2/5 1992/2/5
f 1994/2/5 1987/2/5 1993/2/5
f 1995/2/5 1993/2/5 1992/2/5
f 1996/2/5 1993/2/5 1995/2/5
f 2001/2/5 1998/2/5 1997/2/5
f 2002/3/5 1999/3/5 1998/3/5
f 2002/2/5 1998/2/5 2001/2/5
f 2003/2/5 2000/2/5 1999/2/5
f 2003/3/5 1999/3/5 2002/3/5
f 2004/2/5 2000/2/5 2003/2/5
f 2005/2/5 2001/2/5 1997/2/5
f 2007/2/5 2000/2/5 2004/2/5
f 2008/2/5 2006/2/5 2005/2/5
f 2008/2/5 2007/2/5 2006/2/5
f 2008/2/5 2005/2/5 1997/2/5
f 2009/2/5 2000/2/5 2007/2/5
f 2009/2/5 2007/2/5 2008/2/5
f 2013/2/5 2011/2/5 2010/2/5
f 2014/2/5 2011/2/5 2013/2/5
f 2020/2/5 2013/2/5 2012/2/5
f 2020/2/5 2014/2/5 2013/2/5
f 2021/2/5 2014/2/5 2020/2/5
f 2022/2/5 2016/2/5 2015/2/5
f 2023/3/5 2017/3/5 2016/3/5
f 2023/2/5 2016/2/5 2022/2/5
f 2024/3/5 2017/3/5 2023/3/5
f 2025/3/5 2019/3/5 2018/3/5
f 2026/3/5 2019/3/5 2025/3/5
f 2031/3/5 2028/3/5 2027/3/5
f 2032/3/5 2028/3/5 2031/3/5
f 2033/2/5 2030/2/5 2029/2/5
f 2034/2/5 2030/2/5 2033/2/5
f 2039/2/5 2036/2/5 2035/2/5
f 2040/2/5 2036/2/5 2039/2/5
f 2041/2/5 2038/2/5 2037/2/5
f 2042/2/5 2038/2/5 2041/2/5
f 2045/2/5 2044/2/5 2043/2/5
f 2048/2/5 2045/2/5 2043/2/5
f 2049/2/5 2045/2/5 2048/2/5
f 2050/2/5 2047/2/5 2046/2/5
f 2051/2/5 2047/2/5 2050/2/5
f 2054/2/5 2053/2/5 2052/2/5
f 2055/2/5 2053/2/5 2054/2/5
f 2058/2/5 2057/2/5 2056/2/5
f 2061/2/5 2057/2/5 2058/2/5
f 2062/2/5 2057/2/5 2061/2/5
f 2063/2/5 2060/2/5 2059/2/5
f 2064/2/5 2060/2/5 2063/2/5
f 2069/2/5 2066/2/5 2065/2/5
f 2070/2/5 2066/2/5 2069/2/5
f 2071/2/5 2068/2/5 2067/2/5
f 2072/2/5 2068/2/5 2071/2/5
f 2075/2/5 2074/2/5 2073/2/5
f 2076/2/5 2075/2/5 2073/2/5
f 2077/2/5 2075/2/5 2076/2/5
f 2080/3/5 2079/3/5 2078/3/5
f 2081/3/5 2079/3/5 2080/3/5
f 2082/2/6 2083/2/6 2086/2/6
f 2083/3/6 2084/3/6 2087/3/6
f 2086/2/6 2083/2/6 2087/2/6
f 2087/3/6 2084/3/6 2088/3/6
f 2088/3/6 2084/3/6 2089/3/6
f 2085/3/6 2086/3/6 2092/3/6
f 2086/3/6 2087/3/6 2092/3/6
f 2092/3/6 2087/3/6 2093/3/6
f 2093/3/6 2087/3/6 2094/3/6
f 2088/3/6 2089/3/6 2095/3/6
f 2089/3/6 2090/3/6 2095/3/6
f 2095/3/6 2090/3/6 2096/3/6
f 2096/3/6 2090/3/6 2097/3/6
f 2092/3/6 2093/3/6 2099/3/6
f 2091/3/6 2092/3/6 2099/3/6
f 2099/3/6 2093/3/6 2100/3/6
f 2100/3/6 2093/3/6 2101/3/6
f 2097/2/6 2098/2/6 2102/2/6
f 2096/2/6 2097/2/6 2102/2/6
f 2102/2/6 2098/2/6 2103/2/6
f 2103/2/6 2098/2/6 2104/2/6
f 2103/3/6 2104/3/6 2105/3/6
f 2105/3/6 2104/3/6 2106/3/6
f 2099/2/6 2100/2/6 2107/2/6
f 2107/2/6 2100/2/6 2108/2/6
f 2105/2/6 2106/2/6 2111/2/6
f 2108/2/6 2109/2/6 2112/2/6
f 2110/2/6 2111/2/6 2115/2/6
f 2111/2/6 2106/2/6 2116/2/6
f 2115/2/6 2111/2/6 2116/2/6
f 2116/2/6 2106/2/6 2117/2/6
f 2112/2/6 2113/2/6 2118/2/6
f 2108/2/6 2112/2/6 2118/2/6
f 2118/2/6 2113/2/6 2119/2/6
f 2119/2/6 2113/2/6 2120/2/6
f 2114/2/6 2115/2/6 2121/2/6
f 2115/2/6 2116/2/6 2121/2/6
f 2121/2/6 2116/2/6 2122/2/6
f 2122/2/6 2116/2/6 2123/2/6
f 2119/2/6 2120/2/6 2124/2/6
f 2121/2/6 2122/2/6 2124/2/6
f 2120/2/6 2121/2/6 2124/2/6
f 2124/2/6 2122/2/6 2125/2/6
f 2126/3/6 2127/3/6 2129/3/6
f 2129/3/6 2127/3/6 2130/3/6
f 2128/3/6 2129/3/6 2133/3/6
f 2133/3/6 2129/3/6 2134/3/6
f 2130/2/6 2131/2/6 2135/2/6
f 2135/2/6 2131/2/6 2136/2/6
f 2132/2/6 2133/2/6 2138/2/6
f 2132/2/6 2138/2/6 2140/2/6
f 2138/2/6 2139/2/6 2140/2/6
f 2140/2/6 2139/2/6 2141/2/6
f 2136/2/6 2137/2/6 2143/2/6
f 2143/2/6 2137/2/6 2144/2/6
f 2141/2/6 2139/2/6 2145/2/6
f 2145/2/6 2139/2/6 2146/2/6
f 2142/2/6 2143/2/6 2147/2/6
f 2147/2/6 2143/2/6 2148/2/6
f 2146/2/6 2147/2/6 2149/2/6
f 2149/2/6 2147/2/6 2150/2/6
f 2151/2/6 2152/2/6 2154/2/6
f 2154/2/6 2152/2/6 2155/2/6
f 2153/2/6 2154/2/6 2157/2/6
f 2157/2/6 2154/2/6 2158/2/6
f 2155/2/6 2156/2/6 2160/2/6
f 2160/2/6 2156/2/6 2161/2/6
f 2159/2/6 2160/2/6 2162/2/6
f 2162/2/6 2160/2/6 2163/2/6
f 2164/2/6 2165/2/6 2166/2/6
f 2166/2/6 2165/2/6 2167/2/6
f 2168/2/6 2169/2/6 2171/2/6
f 2170/2/6 2171/2/6 2172/2/6
f 2171/2/6 2169/2/6 2173/2/6
f 2172/2/6 2171/2/6 2173/2/6
f 2174/3/6 2175/3/6 2176/3/6
f 2176/3/6 2175/3/6 2177/3/6
f 2178/1/6 2179/1/6 2182/1/6
f 2182/1/6 2179/1/6 2183/1/6
f 2180/1/6 2181/1/6 2184/1/6
f 2184/1/6 2181/1/6 2185/1/6
f 2186/1/6 2187/1/6 2190/1/6
f 2190/1/6 2187/1/6 2191/1/6
f 2188/1/6 2189/1/6 2192/1/6
f 2192/1/6 2189/1/6 2193/1/6
f 2194/1/6 2195/1/6 2198/1/6
f 2198/1/6 2195/1/6 2199/1/6
f 2196/1/6 2197/1/6 2200/1/6
f 2200/1/6 2197/1/6 2201/1/6
f 2202/1/6 2203/1/6 2206/1/6
f 2206/1/6 2203/1/6 2207/1/6
f 2204/1/6 2205/1/6 2208/1/6
f 2208/1/6 2205/1/6 2209/1/6
f 2210/1/6 2211/1/6 2216/1/6
f 2216/1/6 2211/1/6 2217/1/6
f 2212/1/6 2213/1/6 2218/1/6
f 2218/1/6 2213/1/6 2219/1/6
f 2214/1/6 2215/1/6 2222/1/6
f 2222/1/6 2215/1/6 2223/1/6
f 2220/1/6 2221/1/6 2224/1/6
f 2224/1/6 2221/1/6 2225/1/6
f 2226/1/6 2227/1/6 2230/1/6
f 2230/1/6 2227/1/6 2231/1/6
f 2228/1/6 2229/1/6 2232/1/6
f 2232/1/6 2229/1/6 2233/1/6
f 2234/1/6 2235/1/6 2238/1/6
f 2238/1/6 2235/1/6 2239/1/6
f 2236/1/6 2237/1/6 2240/1/6
f 2240/1/6 2237/1/6 2241/1/6
f 2242/1/6 2243/1/6 2246/1/6
f 2246/1/6 2243/1/6 2247/1/6
f 2244/1/6 2245/1/6 2252/1/6
f 2252/1/6 2245/1/6 2253/1/6
f 2248/1/6 2249/1/6 2254/1/6
f 2254/1/6 2249/1/6 2255/1/6
f 2250/1/6 2251/1/6 2256/1/6
f 2256/1/6 2251/1/6 2257/1/6
f 2258/1/6 2259/1/6 2262/1/6
f 2262/1/6 2259/1/6 2263/1/6
f 2260/1/6 2261/1/6 2267/1/6
f 2267/1/6 2261/1/6 2268/1/6
f 2264/1/6 2265/1/6 2269/1/6
f 2269/1/6 2265/1/6 2270/1/6
f 2266/1/6 2267/1/6 2274/1/6
f 2274/1/6 2267/1/6 2275/1/6
f 2270/1/6 2271/1/6 2276/1/6
f 2276/1/6 2271/1/6 2277/1/6
f 2272/2/6 2273/2/6 2278/2/6
f 2278/2/6 2273/2/6 2279/2/6
f 2280/1/6 2281/1/6 2284/1/6
f 2284/1/6 2281/1/6 2285/1/6
f 2282/1/6 2283/1/6 2286/1/6
f 2286/1/6 2283/1/6 2287/1/6
f 2288/1/6 2289/1/6 2292/1/6
f 2292/1/6 2289/1/6 2293/1/6
f 2290/1/6 2291/1/6 2296/1/6
f 2296/1/6 2291/1/6 2297/1/6
f 2293/1/6 2294/1/6 2298/1/6
f 2298/1/6 2294/1/6 2299/1/6
f 2295/1/6 2296/1/6 2302/1/6
f 2302/1/6 2296/1/6 2303/1/6
f 2300/1/6 2301/1/6 2304/1/6
f 2304/1/6 2301/1/6 2305/1/6
f 2306/3/6 2307/3/6 2311/3/6
f 2307/2/6 2308/2/6 2312/2/6
f 2311/3/6 2307/3/6 2312/3/6
f 2308/3/6 2309/3/6 2313/3/6
f 2312/2/6 2308/2/6 2313/2/6
f 2309/2/6 2310/2/6 2314/2/6
f 2313/3/6 2309/3/6 2314/3/6
f 2314/2/6 2310/2/6 2315/2/6
f 2318/2/6 2319/2/6 2322/2/6
f 2322/2/6 2319/2/6 2323/2/6
f 2320/2/6 2321/2/6 2324/2/6
f 2324/2/6 2321/2/6 2325/2/6
f 2322/3/6 2323/3/6 2326/3/6
f 2326/3/6 2323/3/6 2327/3/6
f 2324/2/6 2325/2/6 2328/2/6
f 2328/2/6 2325/2/6 2329/2/6
f 2326/2/6 2327/2/6 2330/2/6
f 2330/2/6 2327/2/6 2331/2/6
f 2330/3/6 2331/3/6 2332/3/6
f 2332/3/6 2331/3/6 2333/3/6
f 2316/2/6 2317/2/6 2334/2/6
f 2334/2/6 2317/2/6 2335/2/6
f 2332/2/6 2333/2/6 2336/2/6
f 2336/2/6 2333/2/6 2337/2/6
f 2338/2/6 2339/2/6 2340/2/6
f 2340/2/6 2339/2/6 2341/2/6
f 2342/2/6 2343/2/6 2347/2/6
f 2347/2/6 2343/2/6 2348/2/6
f 2343/3/6 2344/3/6 2349/3/6
f 2348/2/6 2343/2/6 2349/2/6
f 2344/2/6 2345/2/6 2350/2/6
f 2349/3/6 2344/3/6 2350/3/6
f 2350/2/6 2345/2/6 2351/2/6
f 2351/2/6 2345/2/6 2352/2/6
f 2352/2/6 2353/2/6 2354/2/6
f 2351/2/6 2352/2/6 2354/2/6
f 2354/2/6 2353/2/6 2355/2/6
f 2351/2/6 2354/2/6 2356/2/6
f 2354/3/6 2355/3/6 2356/3/6
f 2356/3/6 2355/3/6 2357/3/6
f 2346/2/6 2347/2/6 2358/2/6
f 2347/2/6 2348/2/6 2358/2/6
f 2358/2/6 2348/2/6 2359/2/6
f 2356/2/6 2357/2/6 2360/2/6
f 2351/2/6 2356/2/6 2360/2/6
f 2360/2/6 2357/2/6 2361/2/6
f 2361/2/6 2357/2/6 2362/2/6
f 2359/2/6 2360/2/6 2363/2/6
f 2360/2/6 2361/2/6 2363/2/6
f 2363/2/6 2361/2/6 2364/2/6
f 2365/2/6 2366/2/6 2367/2/6
f 2367/2/6 2366/2/6 2368/2/6
f 2368/2/6 2366/2/6 2369/2/6
f 2369/2/6 2366/2/6 2370/2/6
f 2365/2/6 2367/2/6 2371/2/6
f 2370/2/6 2366/2/6 2372/2/6
f 2365/2/6 2371/2/6 2373/2/6
f 2371/2/6 2372/2/6 2373/2/6
f 2372/2/6 2366/2/6 2374/2/6
f 2373/2/6 2372/2/6 2374/2/6
f 2375/2/6 2376/2/6 2379/2/6
f 2376/3/6 2377/3/6 2379/3/6
f 2377/2/6 2378/2/6 2380/2/6
f 2379/3/6 2377/3/6 2380/3/6
f 2375/2/6 2379/2/6 2381/2/6
f 2379/2/6 2380/2/6 2381/2/6
f 2381/2/6 2380/2/6 2382/2/6
f 2380/2/6 2378/2/6 2383/2/6
f 2382/2/6 2380/2/6 2383/2/6
f 2375/2/6 2381/2/6 2384/2/6
f 2375/2/6 2384/2/6 2385/2/6
f 2383/2/6 2378/2/6 2386/2/6
f 2375/2/6 2385/2/6 2387/2/6
f 2385/2/6 2386/2/6 2387/2/6
f 2386/2/6 2378/2/6 2388/2/6
f 2387/2/6 2386/2/6 2388/2/6
f 2389/3/6 2390/3/6 2392/3/6
f 2390/2/6 2391/2/6 2393/2/6
f 2392/3/6 2390/3/6 2393/3/6
f 2393/2/6 2391/2/6 2394/2/6
f 2395/2/6 2396/2/6 2398/2/6
f 2396/2/6 2397/2/6 2398/2/6
f 2398/2/6 2397/2/6 2399/2/6
f 2400/2/6 2401/2/6 2404/2/6
f 2401/3/6 2402/3/6 2404/3/6
f 2402/2/6 2403/2/6 2405/2/6
f 2404/3/6 2402/3/6 2405/3/6
f 2400/2/6 2404/2/6 2406/2/6
f 2405/2/6 2403/2/6 2407/2/6
f 2400/2/6 2406/2/6 2408/2/6
f 2406/2/6 2407/2/6 2408/2/6
f 2407/2/6 2403/2/6 2409/2/6
f 2408/2/6 2407/2/6 2409/2/6
f 2410/2/6 2411/2/6 2412/2/6
f 2410/2/6 2412/2/6 2418/2/6
f 2418/2/6 2412/2/6 2419/2/6
f 2413/2/6 2414/2/6 2420/2/6
f 2414/3/6 2415/3/6 2421/3/6
f 2420/2/6 2414/2/6 2421/2/6
f 2415/2/6 2416/2/6 2422/2/6
f 2421/3/6 2415/3/6 2422/3/6
f 2416/3/6 2417/3/6 2423/3/6
f 2422/2/6 2416/2/6 2423/2/6
f 2423/3/6 2417/3/6 2424/3/6
f 2425/3/6 2426/3/6 2429/3/6
f 2429/3/6 2426/3/6 2430/3/6
f 2427/2/6 2428/2/6 2431/2/6
f 2431/2/6 2428/2/6 2432/2/6
f 2433/2/6 2434/2/6 2435/2/6
f 2435/2/6 2434/2/6 2436/2/6
f 2436/2/6 2434/2/6 2437/2/6
f 2436/2/6 2437/2/6 2442/2/6
f 2442/2/6 2437/2/6 2443/2/6
f 2438/2/6 2439/2/6 2444/2/6
f 2444/2/6 2439/2/6 2445/2/6
f 2440/2/6 2441/2/6 2446/2/6
f 2446/2/6 2441/2/6 2447/2/6
f 2448/2/6 2449/2/6 2454/2/6
f 2454/2/6 2449/2/6 2455/2/6
f 2450/2/6 2451/2/6 2456/2/6
f 2456/2/6 2451/2/6 2457/2/6
f 2452/2/6 2453/2/6 2458/2/6
f 2458/2/6 2453/2/6 2459/2/6
f 2460/2/6 2461/2/6 2464/2/6
f 2464/2/6 2461/2/6 2465/2/6
f 2462/2/6 2463/2/6 2466/2/6
f 2466/2/6 2463/2/6 2467/2/6
f 2468/2/6 2469/2/6 2472/2/6
f 2472/2/6 2469/2/6 2473/2/6
f 2470/2/6 2471/2/6 2474/2/6
f 2474/2/6 2471/2/6 2475/2/6
f 2476/2/6 2477/2/6 2478/2/6
f 2478/2/6 2477/2/6 2479/2/6
f 2480/3/6 2481/3/6 2482/3/6
f 2482/3/6 2481/3/6 2483/3/6
f 2484/2/6 2485/2/6 2486/2/6
f 2486/2/6 2485/2/6 2487/2/6
