# MagicaVoxel @ Ephtracy

# group
o 

# material
mtllib drzewko-14.mtl
usemtl palette

# normals
vn 0 0 -1
vn 0 0 1
vn -1 0 0
vn 1 0 0
vn 0 -1 0
vn 0 1 0

# texcoords
vt 0.166016 0.5
vt 0.169922 0.5
vt 0.365234 0.5
vt 0.369141 0.5
vt 0.638672 0.5
vt 0.982422 0.5
vt 0.994141 0.5

# verts
v -64.2 0.8 4.5
v -62.3 0.8 4.5
v -63.7 1.4 4.5
v -62.8 1.4 4.5
v -63.6 1.5 4.5
v -62.9 1.5 4.5
v -63.5 1.6 4.5
v -63.4 1.6 4.5
v -63.5 1.7 4.5
v -63.4 1.7 4.5
v -63.5 1.8 4.5
v -63.4 1.8 4.5
v -63.3 1.8 4.5
v -63 1.8 4.5
v -63.3 1.9 4.5
v -63.2 1.9 4.5
v -63.2 2 4.5
v -63.1 2 4.5
v -63.5 2.1 4.5
v -63.4 2.1 4.5
v -63.1 2.1 4.5
v -63 2.1 4.5
v -63.4 2.2 4.5
v -63.1 2.2 4.5
v -63.6 2.4 4.5
v -62.9 2.4 4.5
v -63.7 2.5 4.5
v -62.8 2.5 4.5
v -64.2 3 4.5
v -62.3 3 4.5
v -62.3 0.8 4.6
v -62.1 0.8 4.6
v -62.3 3 4.6
v -62.1 3 4.6
v -64.4 0.8 4.7
v -64.2 0.8 4.7
v -64.4 3 4.7
v -64.2 3 4.7
v -62.3 3 4.7
v -64.2 3.2 4.7
v -62.3 3.2 4.7
v -64.5 0.8 4.8
v -64.4 0.8 4.8
v -62.1 0.8 4.8
v -62 0.8 4.8
v -64.5 3 4.8
v -64.4 3 4.8
v -62.3 3 4.8
v -62.2 3 4.8
v -62.1 3 4.8
v -62 3 4.8
v -62.3 3.2 4.8
v -62.2 3.2 4.8
v -64.3 3 4.9
v -64.2 3 4.9
v -64.3 3.2 4.9
v -64.2 3.2 4.9
v -64 3.2 4.9
v -62.5 3.2 4.9
v -64 3.3 4.9
v -62.5 3.3 4.9
v -64.1 3.2 5
v -64 3.2 5
v -62.5 3.2 5
v -62.4 3.2 5
v -64.1 3.3 5
v -64 3.3 5
v -62.5 3.3 5
v -62.4 3.3 5
v -64 3.4 5
v -62.5 3.4 5
v -63.5 3.4 5.8
v -63.1 3.4 5.8
v -63.5 3.5 5.8
v -63.1 3.5 5.8
v -63.6 3.4 5.9
v -63.5 3.4 5.9
v -63.1 3.4 5.9
v -63 3.4 5.9
v -63.6 3.5 5.9
v -63.5 3.5 5.9
v -63.1 3.5 5.9
v -63 3.5 5.9
v -63.5 0.8 6.2
v -63.1 0.8 6.2
v -63.5 3.2 6.2
v -63.1 3.2 6.2
v -63.5 3.3 6.2
v -63.1 3.3 6.2
v -63.5 0.8 5.9
v -63.1 0.8 5.9
v -63.5 3.4 5.9
v -63.1 3.4 5.9
v -63.5 3.4 6
v -63.1 3.4 6
v -63.5 3.5 6
v -63.1 3.5 6
v -64.1 3.2 6.2
v -64 3.2 6.2
v -62.5 3.2 6.2
v -62.4 3.2 6.2
v -64.1 3.3 6.2
v -64 3.3 6.2
v -63.6 3.3 6.2
v -63 3.3 6.2
v -62.5 3.3 6.2
v -62.4 3.3 6.2
v -64 3.4 6.2
v -63.6 3.4 6.2
v -63 3.4 6.2
v -62.5 3.4 6.2
v -64.3 3 6.3
v -64.2 3 6.3
v -64.3 3.2 6.3
v -64.2 3.2 6.3
v -64 3.2 6.3
v -63.5 3.2 6.3
v -63.1 3.2 6.3
v -62.5 3.2 6.3
v -64 3.3 6.3
v -63.6 3.3 6.3
v -63.5 3.3 6.3
v -63.1 3.3 6.3
v -63 3.3 6.3
v -62.5 3.3 6.3
v -63.6 3.5 6.3
v -63.5 3.5 6.3
v -63.1 3.5 6.3
v -63 3.5 6.3
v -64.5 0.8 6.4
v -64.4 0.8 6.4
v -62.1 0.8 6.4
v -62 0.8 6.4
v -64.5 3 6.4
v -64.4 3 6.4
v -62.3 3 6.4
v -62.2 3 6.4
v -62.1 3 6.4
v -62 3 6.4
v -62.3 3.2 6.4
v -62.2 3.2 6.4
v -64.4 0.8 6.5
v -64.2 0.8 6.5
v -64.4 3 6.5
v -64.2 3 6.5
v -62.3 3 6.5
v -63.2 3.1 6.5
v -63.1 3.1 6.5
v -64.2 3.2 6.5
v -63.2 3.2 6.5
v -63.1 3.2 6.5
v -62.3 3.2 6.5
v -62.3 0.8 6.6
v -62.1 0.8 6.6
v -62.3 0.9 6.6
v -62.2 0.9 6.6
v -62.2 1 6.6
v -62.1 1 6.6
v -62.3 1.3 6.6
v -62.3 1.6 6.6
v -62.3 3 6.6
v -62.1 3 6.6
v -64.2 0.8 6.7
v -64 0.8 6.7
v -62.8 0.8 6.7
v -62.7 0.8 6.7
v -62.4 0.8 6.7
v -62.3 0.8 6.7
v -64.1 0.9 6.7
v -64 0.9 6.7
v -63.9 0.9 6.7
v -62.8 0.9 6.7
v -62.7 0.9 6.7
v -62.6 0.9 6.7
v -62.4 0.9 6.7
v -62.3 0.9 6.7
v -64.2 1 6.7
v -64.1 1 6.7
v -64 1 6.7
v -63.9 1 6.7
v -62.8 1 6.7
v -62.7 1 6.7
v -62.6 1 6.7
v -62.5 1 6.7
v -64.2 1.1 6.7
v -64.1 1.1 6.7
v -62.8 1.1 6.7
v -62.6 1.1 6.7
v -64.2 1.2 6.7
v -64.1 1.2 6.7
v -62.5 1.2 6.7
v -62.4 1.2 6.7
v -62.6 1.3 6.7
v -62.4 1.3 6.7
v -62.3 1.3 6.7
v -63.7 1.4 6.7
v -63.6 1.4 6.7
v -63.5 1.4 6.7
v -63 1.4 6.7
v -62.9 1.4 6.7
v -62.8 1.4 6.7
v -62.6 1.4 6.7
v -62.5 1.4 6.7
v -63.7 1.5 6.7
v -63.6 1.5 6.7
v -63.5 1.5 6.7
v -63.4 1.5 6.7
v -63 1.5 6.7
v -62.9 1.5 6.7
v -62.8 1.5 6.7
v -62.6 1.5 6.7
v -62.5 1.5 6.7
v -63.5 1.6 6.7
v -63.4 1.6 6.7
v -63.3 1.6 6.7
v -62.9 1.6 6.7
v -62.8 1.6 6.7
v -62.4 1.6 6.7
v -62.3 1.6 6.7
v -63.7 1.7 6.7
v -63.6 1.7 6.7
v -62.9 1.7 6.7
v -62.8 1.7 6.7
v -63.5 1.8 6.7
v -63.4 1.8 6.7
v -63.3 1.8 6.7
v -63.2 1.8 6.7
v -63.1 1.8 6.7
v -63.5 1.9 6.7
v -63.4 1.9 6.7
v -63.1 1.9 6.7
v -63 1.9 6.7
v -62.9 1.9 6.7
v -62.8 1.9 6.7
v -63.2 2 6.7
v -63.1 2 6.7
v -63.4 2.1 6.7
v -63.3 2.1 6.7
v -63.2 2.1 6.7
v -63.1 2.1 6.7
v -63 2.1 6.7
v -63.4 2.2 6.7
v -63.3 2.2 6.7
v -63.2 2.2 6.7
v -63.1 2.2 6.7
v -64.1 2.4 6.7
v -64 2.4 6.7
v -63.6 2.4 6.7
v -62.9 2.4 6.7
v -64.2 2.5 6.7
v -64.1 2.5 6.7
v -64 2.5 6.7
v -63.7 2.5 6.7
v -62.8 2.5 6.7
v -64.1 2.7 6.7
v -64 2.7 6.7
v -64.1 2.8 6.7
v -64 2.8 6.7
v -64.2 2.9 6.7
v -64.1 2.9 6.7
v -64 2.9 6.7
v -64.2 3 6.7
v -64.1 3 6.7
v -64 3 6.7
v -62.3 3 6.7
v -64.5 0.8 4.8
v -64.5 3 4.8
v -64.5 0.8 6.4
v -64.5 3 6.4
v -64.4 0.8 4.7
v -64.4 3 4.7
v -64.4 0.8 4.8
v -64.4 3 4.8
v -64.4 0.8 6.4
v -64.4 3 6.4
v -64.4 0.8 6.5
v -64.4 3 6.5
v -64.3 3 4.9
v -64.3 3.2 4.9
v -64.3 3 6.3
v -64.3 3.2 6.3
v -64.2 0.8 4.5
v -64.2 3 4.5
v -64.2 0.8 4.7
v -64.2 3 4.7
v -64.2 3.2 4.7
v -64.2 3 4.9
v -64.2 3.2 4.9
v -64.2 3 6.3
v -64.2 3.2 6.3
v -64.2 0.8 6.5
v -64.2 3 6.5
v -64.2 3.2 6.5
v -64.2 0.8 6.6
v -64.2 1 6.6
v -64.2 1.1 6.6
v -64.2 1.2 6.6
v -64.2 2.5 6.6
v -64.2 2.9 6.6
v -64.2 0.8 6.7
v -64.2 1 6.7
v -64.2 1.1 6.7
v -64.2 1.2 6.7
v -64.2 2.5 6.7
v -64.2 2.9 6.7
v -64.2 3 6.7
v -64.1 3.2 5
v -64.1 3.3 5
v -64.1 3.2 6.2
v -64.1 3.3 6.2
v -64 3.2 4.9
v -64 3.3 4.9
v -64 3.2 5
v -64 3.3 5
v -64 3.4 5
v -64 3.2 6.2
v -64 3.3 6.2
v -64 3.4 6.2
v -64 3.2 6.3
v -64 3.3 6.3
v -63.6 3.4 5.9
v -63.6 3.5 5.9
v -63.6 3.3 6.2
v -63.6 3.4 6.2
v -63.6 3.3 6.3
v -63.6 3.5 6.3
v -63.5 3.4 5.8
v -63.5 3.5 5.8
v -63.5 3.4 5.9
v -63.5 3.5 5.9
v -63.1 0.8 5.9
v -63.1 3.4 5.9
v -63.1 3.4 6
v -63.1 3.5 6
v -63.1 0.8 6.2
v -63.1 3.2 6.2
v -63.1 3.3 6.2
v -63.1 3.3 6.3
v -63.1 3.5 6.3
v -63.5 0.8 5.9
v -63.5 3.4 5.9
v -63.5 3.4 6
v -63.5 3.5 6
v -63.5 0.8 6.2
v -63.5 3.2 6.2
v -63.5 3.3 6.2
v -63.5 3.3 6.3
v -63.5 3.5 6.3
v -63.1 3.4 5.8
v -63.1 3.5 5.8
v -63.1 3.4 5.9
v -63.1 3.5 5.9
v -63 3.4 5.9
v -63 3.5 5.9
v -63 3.3 6.2
v -63 3.4 6.2
v -63 3.3 6.3
v -63 3.5 6.3
v -62.5 3.2 4.9
v -62.5 3.3 4.9
v -62.5 3.2 5
v -62.5 3.3 5
v -62.5 3.4 5
v -62.5 3.2 6.2
v -62.5 3.3 6.2
v -62.5 3.4 6.2
v -62.5 3.2 6.3
v -62.5 3.3 6.3
v -62.4 3.2 5
v -62.4 3.3 5
v -62.4 3.2 6.2
v -62.4 3.3 6.2
v -62.3 0.8 4.5
v -62.3 3 4.5
v -62.3 0.8 4.6
v -62.3 3 4.6
v -62.3 3 4.7
v -62.3 3.2 4.7
v -62.3 3 4.8
v -62.3 3.2 4.8
v -62.3 3 6.4
v -62.3 3.2 6.4
v -62.3 3 6.5
v -62.3 3.2 6.5
v -62.3 0.8 6.6
v -62.3 0.9 6.6
v -62.3 1.3 6.6
v -62.3 1.6 6.6
v -62.3 3 6.6
v -62.3 0.8 6.7
v -62.3 0.9 6.7
v -62.3 1.3 6.7
v -62.3 1.6 6.7
v -62.3 3 6.7
v -62.2 3 4.8
v -62.2 3.2 4.8
v -62.2 3 6.4
v -62.2 3.2 6.4
v -62.1 0.8 4.6
v -62.1 3 4.6
v -62.1 0.8 4.8
v -62.1 3 4.8
v -62.1 0.8 6.4
v -62.1 3 6.4
v -62.1 0.8 6.5
v -62.1 1 6.5
v -62.1 0.8 6.6
v -62.1 1 6.6
v -62.1 3 6.6
v -62 0.8 4.8
v -62 3 4.8
v -62 0.8 6.4
v -62 3 6.4
v -64.5 0.8 4.8
v -64.5 0.8 6.4
v -64.4 0.8 4.7
v -64.4 0.8 4.8
v -64.4 0.8 6.4
v -64.4 0.8 6.5
v -64.2 0.8 4.5
v -64.2 0.8 4.7
v -64.2 0.8 6.5
v -64.2 0.8 6.6
v -64.2 0.8 6.7
v -64 0.8 6.6
v -64 0.8 6.7
v -63.6 0.8 5
v -63.6 0.8 5.3
v -63.6 0.8 5.9
v -63.6 0.8 6.2
v -63.5 0.8 5
v -63.5 0.8 5.3
v -63.5 0.8 5.4
v -63.5 0.8 5.8
v -63.5 0.8 5.9
v -63.5 0.8 6.2
v -63.1 0.8 5
v -63.1 0.8 5.3
v -63.1 0.8 5.4
v -63.1 0.8 5.8
v -63.1 0.8 5.9
v -63.1 0.8 6.2
v -63 0.8 5
v -63 0.8 5.3
v -63 0.8 5.9
v -63 0.8 6.2
v -62.8 0.8 6.6
v -62.8 0.8 6.7
v -62.7 0.8 6.6
v -62.7 0.8 6.7
v -62.4 0.8 6.6
v -62.4 0.8 6.7
v -62.3 0.8 4.5
v -62.3 0.8 4.6
v -62.3 0.8 6.5
v -62.3 0.8 6.6
v -62.3 0.8 6.7
v -62.1 0.8 4.6
v -62.1 0.8 4.8
v -62.1 0.8 6.4
v -62.1 0.8 6.5
v -62.1 0.8 6.6
v -62 0.8 4.8
v -62 0.8 6.4
v -63.5 3.4 5.9
v -63.5 3.4 6
v -63.1 3.4 5.9
v -63.1 3.4 6
v -64.5 3 4.8
v -64.5 3 6.4
v -64.4 3 4.7
v -64.4 3 4.8
v -64.4 3 6.4
v -64.4 3 6.5
v -64.3 3 4.9
v -64.3 3 6.3
v -64.2 3 4.5
v -64.2 3 4.7
v -64.2 3 4.9
v -64.2 3 6.3
v -64.2 3 6.5
v -64.2 3 6.7
v -64.1 3 6.6
v -64.1 3 6.7
v -64 3 6.6
v -64 3 6.7
v -62.3 3 4.5
v -62.3 3 4.6
v -62.3 3 4.7
v -62.3 3 4.8
v -62.3 3 6.4
v -62.3 3 6.5
v -62.3 3 6.6
v -62.3 3 6.7
v -62.2 3 4.8
v -62.2 3 6.4
v -62.1 3 4.6
v -62.1 3 4.8
v -62.1 3 6.4
v -62.1 3 6.6
v -62 3 4.8
v -62 3 6.4
v -64.3 3.2 4.9
v -64.3 3.2 6.3
v -64.2 3.2 4.7
v -64.2 3.2 4.9
v -64.2 3.2 6.3
v -64.2 3.2 6.5
v -64.1 3.2 5
v -64.1 3.2 6.2
v -64 3.2 4.9
v -64 3.2 5
v -64 3.2 6.2
v -64 3.2 6.3
v -63.5 3.2 6.3
v -63.5 3.2 6.4
v -63.2 3.2 6.4
v -63.2 3.2 6.5
v -63.1 3.2 6.3
v -63.1 3.2 6.5
v -62.5 3.2 4.9
v -62.5 3.2 5
v -62.5 3.2 6.2
v -62.5 3.2 6.3
v -62.4 3.2 5
v -62.4 3.2 6.2
v -62.3 3.2 4.7
v -62.3 3.2 4.8
v -62.3 3.2 6.4
v -62.3 3.2 6.5
v -62.2 3.2 4.8
v -62.2 3.2 6.4
v -64.1 3.3 5
v -64.1 3.3 6.2
v -64 3.3 4.9
v -64 3.3 5
v -64 3.3 6.2
v -64 3.3 6.3
v -63.6 3.3 6.2
v -63.6 3.3 6.3
v -63.5 3.3 6.2
v -63.5 3.3 6.3
v -63.1 3.3 6.2
v -63.1 3.3 6.3
v -63 3.3 6.2
v -63 3.3 6.3
v -62.5 3.3 4.9
v -62.5 3.3 5
v -62.5 3.3 6.2
v -62.5 3.3 6.3
v -62.4 3.3 5
v -62.4 3.3 6.2
v -64 3.4 5
v -64 3.4 6.2
v -63.6 3.4 5.9
v -63.6 3.4 6.2
v -63.5 3.4 5.8
v -63.5 3.4 5.9
v -63.1 3.4 5.8
v -63.1 3.4 5.9
v -63 3.4 5.9
v -63 3.4 6.2
v -62.5 3.4 5
v -62.5 3.4 6.2
v -63.6 3.5 5.9
v -63.6 3.5 6.3
v -63.5 3.5 5.8
v -63.5 3.5 5.9
v -63.5 3.5 6
v -63.5 3.5 6.3
v -63.1 3.5 5.8
v -63.1 3.5 5.9
v -63.1 3.5 6
v -63.1 3.5 6.3
v -63 3.5 5.9
v -63 3.5 6.3

# faces
f 3/5/1 2/5/1 1/5/1
f 4/5/1 2/5/1 3/5/1
f 5/6/1 4/6/1 3/6/1
f 6/6/1 4/6/1 5/6/1
f 7/5/1 6/5/1 5/5/1
f 8/5/1 6/5/1 7/5/1
f 9/5/1 7/5/1 5/5/1
f 9/6/1 8/6/1 7/6/1
f 10/5/1 6/5/1 8/5/1
f 10/6/1 8/6/1 9/6/1
f 11/5/1 9/5/1 5/5/1
f 11/5/1 10/5/1 9/5/1
f 12/5/1 6/5/1 10/5/1
f 12/5/1 10/5/1 11/5/1
f 13/5/1 6/5/1 12/5/1
f 14/5/1 6/5/1 13/5/1
f 15/5/1 13/5/1 12/5/1
f 15/6/1 14/6/1 13/6/1
f 16/6/1 14/6/1 15/6/1
f 17/5/1 16/5/1 15/5/1
f 17/6/1 14/6/1 16/6/1
f 18/6/1 14/6/1 17/6/1
f 19/5/1 11/5/1 5/5/1
f 19/6/1 12/6/1 11/6/1
f 20/5/1 18/5/1 17/5/1
f 20/6/1 12/6/1 19/6/1
f 20/5/1 15/5/1 12/5/1
f 20/5/1 17/5/1 15/5/1
f 21/6/1 14/6/1 18/6/1
f 21/5/1 18/5/1 20/5/1
f 22/5/1 6/5/1 14/5/1
f 22/6/1 14/6/1 21/6/1
f 23/5/1 20/5/1 19/5/1
f 23/6/1 21/6/1 20/6/1
f 24/5/1 22/5/1 21/5/1
f 24/6/1 21/6/1 23/6/1
f 25/6/1 5/6/1 3/6/1
f 25/5/1 19/5/1 5/5/1
f 25/5/1 24/5/1 23/5/1
f 25/5/1 23/5/1 19/5/1
f 26/5/1 22/5/1 24/5/1
f 26/5/1 24/5/1 25/5/1
f 26/6/1 4/6/1 6/6/1
f 26/5/1 6/5/1 22/5/1
f 27/5/1 3/5/1 1/5/1
f 27/6/1 25/6/1 3/6/1
f 27/6/1 26/6/1 25/6/1
f 28/6/1 4/6/1 26/6/1
f 28/6/1 26/6/1 27/6/1
f 28/5/1 2/5/1 4/5/1
f 29/5/1 27/5/1 1/5/1
f 29/5/1 28/5/1 27/5/1
f 30/5/1 2/5/1 28/5/1
f 30/5/1 28/5/1 29/5/1
f 33/5/1 32/5/1 31/5/1
f 34/5/1 32/5/1 33/5/1
f 37/5/1 36/5/1 35/5/1
f 38/5/1 36/5/1 37/5/1
f 40/5/1 39/5/1 38/5/1
f 41/5/1 39/5/1 40/5/1
f 46/5/1 43/5/1 42/5/1
f 47/5/1 43/5/1 46/5/1
f 50/5/1 45/5/1 44/5/1
f 51/5/1 45/5/1 50/5/1
f 52/5/1 49/5/1 48/5/1
f 53/5/1 49/5/1 52/5/1
f 56/5/1 55/5/1 54/5/1
f 57/5/1 55/5/1 56/5/1
f 60/5/1 59/5/1 58/5/1
f 61/5/1 59/5/1 60/5/1
f 66/5/1 63/5/1 62/5/1
f 67/5/1 63/5/1 66/5/1
f 68/5/1 65/5/1 64/5/1
f 69/5/1 65/5/1 68/5/1
f 70/5/1 68/5/1 67/5/1
f 71/5/1 68/5/1 70/5/1
f 74/7/1 73/7/1 72/7/1
f 75/7/1 73/7/1 74/7/1
f 80/7/1 77/7/1 76/7/1
f 81/7/1 77/7/1 80/7/1
f 82/7/1 79/7/1 78/7/1
f 83/7/1 79/7/1 82/7/1
f 86/5/1 85/5/1 84/5/1
f 87/5/1 85/5/1 86/5/1
f 88/7/1 87/7/1 86/7/1
f 89/7/1 87/7/1 88/7/1
f 90/7/2 91/7/2 92/7/2
f 92/7/2 91/7/2 93/7/2
f 94/7/2 95/7/2 96/7/2
f 96/7/2 95/7/2 97/7/2
f 98/5/2 99/5/2 102/5/2
f 102/5/2 99/5/2 103/5/2
f 100/5/2 101/5/2 106/5/2
f 106/5/2 101/5/2 107/5/2
f 103/5/2 104/5/2 108/5/2
f 108/5/2 104/5/2 109/5/2
f 105/5/2 106/5/2 110/5/2
f 110/5/2 106/5/2 111/5/2
f 112/5/2 113/5/2 114/5/2
f 114/5/2 113/5/2 115/5/2
f 116/5/2 117/5/2 120/5/2
f 120/5/2 117/5/2 121/5/2
f 117/7/2 118/7/2 122/7/2
f 121/5/2 117/5/2 122/5/2
f 118/5/2 119/5/2 123/5/2
f 122/7/2 118/7/2 123/7/2
f 123/5/2 119/5/2 124/5/2
f 124/5/2 119/5/2 125/5/2
f 121/7/2 122/7/2 126/7/2
f 126/7/2 122/7/2 127/7/2
f 123/7/2 124/7/2 128/7/2
f 128/7/2 124/7/2 129/7/2
f 130/5/2 131/5/2 134/5/2
f 134/5/2 131/5/2 135/5/2
f 132/5/2 133/5/2 138/5/2
f 138/5/2 133/5/2 139/5/2
f 136/5/2 137/5/2 140/5/2
f 140/5/2 137/5/2 141/5/2
f 142/5/2 143/5/2 144/5/2
f 144/5/2 143/5/2 145/5/2
f 145/5/2 146/5/2 147/5/2
f 147/5/2 146/5/2 148/5/2
f 145/5/2 147/5/2 149/5/2
f 147/3/2 148/3/2 150/3/2
f 149/5/2 147/5/2 150/5/2
f 148/5/2 146/5/2 151/5/2
f 150/3/2 148/3/2 151/3/2
f 151/5/2 146/5/2 152/5/2
f 153/3/2 154/3/2 155/3/2
f 155/3/2 154/3/2 156/3/2
f 155/5/2 156/5/2 157/5/2
f 156/3/2 154/3/2 157/3/2
f 157/3/2 154/3/2 158/3/2
f 155/5/2 157/5/2 159/5/2
f 157/5/2 158/5/2 159/5/2
f 159/5/2 158/5/2 160/5/2
f 160/5/2 158/5/2 161/5/2
f 161/5/2 158/5/2 162/5/2
f 163/2/2 164/2/2 169/2/2
f 164/5/2 165/5/2 170/5/2
f 169/2/2 164/2/2 170/2/2
f 170/5/2 165/5/2 171/5/2
f 165/3/2 166/3/2 172/3/2
f 171/5/2 165/5/2 172/5/2
f 166/4/2 167/4/2 173/4/2
f 172/3/2 166/3/2 173/3/2
f 173/4/2 167/4/2 174/4/2
f 167/3/2 168/3/2 175/3/2
f 174/4/2 167/4/2 175/4/2
f 175/3/2 168/3/2 176/3/2
f 163/2/2 169/2/2 177/2/2
f 169/5/2 170/5/2 178/5/2
f 177/2/2 169/2/2 178/2/2
f 170/2/2 171/2/2 179/2/2
f 178/5/2 170/5/2 179/5/2
f 171/5/2 172/5/2 180/5/2
f 179/2/2 171/2/2 180/2/2
f 172/5/2 173/5/2 180/5/2
f 180/5/2 173/5/2 181/5/2
f 173/3/2 174/3/2 182/3/2
f 181/5/2 173/5/2 182/5/2
f 175/4/2 176/4/2 183/4/2
f 182/3/2 174/3/2 183/3/2
f 174/4/2 175/4/2 183/4/2
f 183/4/2 176/4/2 184/4/2
f 180/5/2 181/5/2 185/5/2
f 177/5/2 178/5/2 185/5/2
f 178/5/2 179/5/2 185/5/2
f 179/5/2 180/5/2 185/5/2
f 185/5/2 181/5/2 186/5/2
f 183/3/2 184/3/2 187/3/2
f 186/5/2 181/5/2 187/5/2
f 182/3/2 183/3/2 187/3/2
f 181/3/2 182/3/2 187/3/2
f 187/3/2 184/3/2 188/3/2
f 185/1/2 186/1/2 189/1/2
f 186/5/2 187/5/2 190/5/2
f 189/1/2 186/1/2 190/1/2
f 187/5/2 188/5/2 190/5/2
f 184/4/2 176/4/2 191/4/2
f 188/3/2 184/3/2 191/3/2
f 191/4/2 176/4/2 192/4/2
f 190/5/2 188/5/2 193/5/2
f 189/5/2 190/5/2 193/5/2
f 191/3/2 192/3/2 193/3/2
f 188/3/2 191/3/2 193/3/2
f 192/4/2 176/4/2 194/4/2
f 193/3/2 192/3/2 194/3/2
f 194/4/2 176/4/2 195/4/2
f 189/5/2 193/5/2 196/5/2
f 193/5/2 194/5/2 196/5/2
f 196/5/2 194/5/2 197/5/2
f 197/5/2 194/5/2 198/5/2
f 198/5/2 194/5/2 199/5/2
f 199/5/2 194/5/2 200/5/2
f 200/5/2 194/5/2 201/5/2
f 201/5/2 194/5/2 202/5/2
f 202/5/2 194/5/2 203/5/2
f 189/5/2 196/5/2 204/5/2
f 196/6/2 197/6/2 204/6/2
f 197/3/2 198/3/2 205/3/2
f 204/6/2 197/6/2 205/6/2
f 198/6/2 199/6/2 206/6/2
f 205/3/2 198/3/2 206/3/2
f 206/6/2 199/6/2 207/6/2
f 199/3/2 200/3/2 208/3/2
f 207/6/2 199/6/2 208/6/2
f 200/6/2 201/6/2 209/6/2
f 208/3/2 200/3/2 209/3/2
f 201/5/2 202/5/2 210/5/2
f 209/6/2 201/6/2 210/6/2
f 202/3/2 203/3/2 211/3/2
f 210/5/2 202/5/2 211/5/2
f 203/5/2 194/5/2 212/5/2
f 211/3/2 203/3/2 212/3/2
f 206/6/2 207/6/2 213/6/2
f 205/5/2 206/5/2 213/5/2
f 207/5/2 208/5/2 214/5/2
f 213/6/2 207/6/2 214/6/2
f 208/5/2 209/5/2 214/5/2
f 214/5/2 209/5/2 215/5/2
f 209/3/2 210/3/2 216/3/2
f 215/5/2 209/5/2 216/5/2
f 210/5/2 211/5/2 217/5/2
f 216/3/2 210/3/2 217/3/2
f 211/5/2 212/5/2 217/5/2
f 194/3/2 195/3/2 218/3/2
f 217/5/2 212/5/2 218/5/2
f 212/5/2 194/5/2 218/5/2
f 218/3/2 195/3/2 219/3/2
f 189/5/2 204/5/2 220/5/2
f 204/3/2 205/3/2 220/3/2
f 213/5/2 214/5/2 221/5/2
f 220/3/2 205/3/2 221/3/2
f 205/5/2 213/5/2 221/5/2
f 216/6/2 217/6/2 222/6/2
f 215/5/2 216/5/2 222/5/2
f 218/5/2 219/5/2 223/5/2
f 222/6/2 217/6/2 223/6/2
f 217/5/2 218/5/2 223/5/2
f 221/5/2 214/5/2 224/5/2
f 214/6/2 215/6/2 225/6/2
f 224/5/2 214/5/2 225/5/2
f 215/5/2 222/5/2 226/5/2
f 225/6/2 215/6/2 226/6/2
f 226/5/2 222/5/2 227/5/2
f 227/5/2 222/5/2 228/5/2
f 221/5/2 224/5/2 229/5/2
f 224/6/2 225/6/2 229/6/2
f 225/5/2 226/5/2 230/5/2
f 229/6/2 225/6/2 230/6/2
f 226/5/2 227/5/2 230/5/2
f 228/5/2 222/5/2 231/5/2
f 227/6/2 228/6/2 231/6/2
f 231/5/2 222/5/2 232/5/2
f 222/3/2 223/3/2 233/3/2
f 232/5/2 222/5/2 233/5/2
f 223/5/2 219/5/2 234/5/2
f 233/3/2 223/3/2 234/3/2
f 230/5/2 227/5/2 235/5/2
f 229/5/2 230/5/2 235/5/2
f 231/6/2 232/6/2 235/6/2
f 227/6/2 231/6/2 235/6/2
f 235/6/2 232/6/2 236/6/2
f 229/5/2 235/5/2 237/5/2
f 235/5/2 236/5/2 237/5/2
f 237/5/2 236/5/2 238/5/2
f 238/5/2 236/5/2 239/5/2
f 236/6/2 232/6/2 240/6/2
f 239/5/2 236/5/2 240/5/2
f 232/5/2 233/5/2 241/5/2
f 240/6/2 232/6/2 241/6/2
f 229/5/2 237/5/2 242/5/2
f 237/6/2 238/6/2 242/6/2
f 238/5/2 239/5/2 243/5/2
f 242/6/2 238/6/2 243/6/2
f 239/6/2 240/6/2 244/6/2
f 243/5/2 239/5/2 244/5/2
f 240/5/2 241/5/2 245/5/2
f 244/6/2 240/6/2 245/6/2
f 189/5/2 220/5/2 246/5/2
f 246/5/2 220/5/2 247/5/2
f 242/5/2 243/5/2 248/5/2
f 220/6/2 221/6/2 248/6/2
f 221/5/2 229/5/2 248/5/2
f 229/5/2 242/5/2 248/5/2
f 244/5/2 245/5/2 248/5/2
f 243/5/2 244/5/2 248/5/2
f 233/6/2 234/6/2 249/6/2
f 248/5/2 245/5/2 249/5/2
f 245/5/2 241/5/2 249/5/2
f 241/5/2 233/5/2 249/5/2
f 189/5/2 246/5/2 250/5/2
f 246/3/2 247/3/2 251/3/2
f 250/5/2 246/5/2 251/5/2
f 247/5/2 220/5/2 252/5/2
f 251/3/2 247/3/2 252/3/2
f 220/6/2 248/6/2 253/6/2
f 252/5/2 220/5/2 253/5/2
f 248/6/2 249/6/2 253/6/2
f 234/5/2 219/5/2 254/5/2
f 253/6/2 249/6/2 254/6/2
f 249/6/2 234/6/2 254/6/2
f 250/3/2 251/3/2 255/3/2
f 252/5/2 253/5/2 255/5/2
f 253/5/2 254/5/2 255/5/2
f 251/5/2 252/5/2 255/5/2
f 255/5/2 254/5/2 256/5/2
f 250/3/2 255/3/2 257/3/2
f 255/3/2 256/3/2 257/3/2
f 256/5/2 254/5/2 258/5/2
f 257/3/2 256/3/2 258/3/2
f 250/3/2 257/3/2 259/3/2
f 257/5/2 258/5/2 260/5/2
f 259/3/2 257/3/2 260/3/2
f 258/5/2 254/5/2 261/5/2
f 260/5/2 258/5/2 261/5/2
f 259/5/2 260/5/2 262/5/2
f 260/3/2 261/3/2 263/3/2
f 262/5/2 260/5/2 263/5/2
f 261/5/2 254/5/2 264/5/2
f 263/3/2 261/3/2 264/3/2
f 254/5/2 219/5/2 265/5/2
f 264/5/2 254/5/2 265/5/2
f 268/5/3 267/5/3 266/5/3
f 269/5/3 267/5/3 268/5/3
f 272/5/3 271/5/3 270/5/3
f 273/5/3 271/5/3 272/5/3
f 276/5/3 275/5/3 274/5/3
f 277/5/3 275/5/3 276/5/3
f 280/5/3 279/5/3 278/5/3
f 281/5/3 279/5/3 280/5/3
f 284/5/3 283/5/3 282/5/3
f 285/5/3 283/5/3 284/5/3
f 287/5/3 286/5/3 285/5/3
f 288/5/3 286/5/3 287/5/3
f 292/5/3 290/5/3 289/5/3
f 293/5/3 290/5/3 292/5/3
f 294/5/3 292/5/3 291/5/3
f 295/5/3 292/5/3 294/5/3
f 296/5/3 292/5/3 295/5/3
f 297/5/3 292/5/3 296/5/3
f 298/5/3 292/5/3 297/5/3
f 299/5/3 292/5/3 298/5/3
f 300/2/3 295/2/3 294/2/3
f 301/5/3 296/5/3 295/5/3
f 301/2/3 295/2/3 300/2/3
f 302/1/3 297/1/3 296/1/3
f 302/5/3 296/5/3 301/5/3
f 303/5/3 298/5/3 297/5/3
f 303/1/3 297/1/3 302/1/3
f 304/3/3 299/3/3 298/3/3
f 304/5/3 298/5/3 303/5/3
f 305/5/3 292/5/3 299/5/3
f 305/3/3 299/3/3 304/3/3
f 306/5/3 292/5/3 305/5/3
f 309/5/3 308/5/3 307/5/3
f 310/5/3 308/5/3 309/5/3
f 313/5/3 312/5/3 311/5/3
f 314/5/3 312/5/3 313/5/3
f 317/5/3 315/5/3 314/5/3
f 318/5/3 315/5/3 317/5/3
f 319/5/3 317/5/3 316/5/3
f 320/5/3 317/5/3 319/5/3
f 324/7/3 322/7/3 321/7/3
f 325/7/3 324/7/3 323/7/3
f 326/7/3 322/7/3 324/7/3
f 326/7/3 324/7/3 325/7/3
f 329/7/3 328/7/3 327/7/3
f 330/7/3 328/7/3 329/7/3
f 333/7/3 332/7/3 331/7/3
f 335/7/3 333/7/3 331/7/3
f 335/7/3 334/7/3 333/7/3
f 336/7/3 334/7/3 335/7/3
f 337/7/3 334/7/3 336/7/3
f 338/7/3 334/7/3 337/7/3
f 339/7/3 334/7/3 338/7/3
f 340/7/4 341/7/4 342/7/4
f 340/7/4 342/7/4 344/7/4
f 342/7/4 343/7/4 344/7/4
f 344/7/4 343/7/4 345/7/4
f 345/7/4 343/7/4 346/7/4
f 346/7/4 343/7/4 347/7/4
f 347/7/4 343/7/4 348/7/4
f 349/7/4 350/7/4 351/7/4
f 351/7/4 350/7/4 352/7/4
f 353/7/4 354/7/4 356/7/4
f 355/7/4 356/7/4 357/7/4
f 356/7/4 354/7/4 358/7/4
f 357/7/4 356/7/4 358/7/4
f 359/5/4 360/5/4 361/5/4
f 361/5/4 360/5/4 362/5/4
f 362/5/4 363/5/4 365/5/4
f 365/5/4 363/5/4 366/5/4
f 364/5/4 365/5/4 367/5/4
f 367/5/4 365/5/4 368/5/4
f 369/5/4 370/5/4 371/5/4
f 371/5/4 370/5/4 372/5/4
f 373/5/4 374/5/4 375/5/4
f 375/5/4 374/5/4 376/5/4
f 377/5/4 378/5/4 379/5/4
f 379/5/4 378/5/4 380/5/4
f 381/5/4 382/5/4 383/5/4
f 383/5/4 382/5/4 384/5/4
f 385/3/4 386/3/4 390/3/4
f 386/4/4 387/4/4 391/4/4
f 390/3/4 386/3/4 391/3/4
f 387/3/4 388/3/4 392/3/4
f 391/4/4 387/4/4 392/4/4
f 388/5/4 389/5/4 393/5/4
f 392/3/4 388/3/4 393/3/4
f 393/5/4 389/5/4 394/5/4
f 395/5/4 396/5/4 397/5/4
f 397/5/4 396/5/4 398/5/4
f 399/5/4 400/5/4 401/5/4
f 401/5/4 400/5/4 402/5/4
f 403/5/4 404/5/4 405/5/4
f 405/5/4 404/5/4 406/5/4
f 405/3/4 406/3/4 407/3/4
f 406/5/4 404/5/4 408/5/4
f 407/3/4 406/3/4 408/3/4
f 408/5/4 404/5/4 409/5/4
f 410/5/4 411/5/4 412/5/4
f 412/5/4 411/5/4 413/5/4
f 417/5/5 415/5/5 414/5/5
f 418/5/5 415/5/5 417/5/5
f 421/5/5 417/5/5 416/5/5
f 421/5/5 419/5/5 418/5/5
f 421/5/5 418/5/5 417/5/5
f 422/5/5 419/5/5 421/5/5
f 425/5/5 421/5/5 420/5/5
f 425/2/5 424/2/5 423/2/5
f 425/5/5 423/5/5 422/5/5
f 425/5/5 422/5/5 421/5/5
f 426/2/5 424/2/5 425/2/5
f 427/5/5 425/5/5 420/5/5
f 427/5/5 426/5/5 425/5/5
f 428/5/5 426/5/5 427/5/5
f 429/5/5 426/5/5 428/5/5
f 430/5/5 426/5/5 429/5/5
f 431/5/5 427/5/5 420/5/5
f 431/7/5 428/7/5 427/7/5
f 432/5/5 429/5/5 428/5/5
f 432/7/5 428/7/5 431/7/5
f 433/5/5 429/5/5 432/5/5
f 434/5/5 429/5/5 433/5/5
f 435/7/5 430/7/5 429/7/5
f 435/5/5 429/5/5 434/5/5
f 436/5/5 426/5/5 430/5/5
f 436/7/5 430/7/5 435/7/5
f 437/5/5 431/5/5 420/5/5
f 437/5/5 432/5/5 431/5/5
f 438/7/5 433/7/5 432/7/5
f 438/5/5 432/5/5 437/5/5
f 439/5/5 434/5/5 433/5/5
f 439/7/5 433/7/5 438/7/5
f 440/7/5 435/7/5 434/7/5
f 440/5/5 434/5/5 439/5/5
f 441/7/5 435/7/5 440/7/5
f 442/5/5 426/5/5 436/5/5
f 443/7/5 438/7/5 437/7/5
f 443/5/5 437/5/5 420/5/5
f 444/5/5 439/5/5 438/5/5
f 444/7/5 438/7/5 443/7/5
f 444/5/5 441/5/5 440/5/5
f 444/5/5 440/5/5 439/5/5
f 445/7/5 442/7/5 441/7/5
f 445/5/5 441/5/5 444/5/5
f 446/5/5 426/5/5 442/5/5
f 446/7/5 442/7/5 445/7/5
f 447/5/5 444/5/5 443/5/5
f 447/5/5 426/5/5 446/5/5
f 447/5/5 446/5/5 445/5/5
f 447/5/5 445/5/5 444/5/5
f 448/5/5 426/5/5 447/5/5
f 449/5/5 447/5/5 443/5/5
f 449/3/5 448/3/5 447/3/5
f 450/3/5 448/3/5 449/3/5
f 451/5/5 449/5/5 443/5/5
f 451/4/5 450/4/5 449/4/5
f 452/4/5 450/4/5 451/4/5
f 453/5/5 443/5/5 420/5/5
f 453/5/5 451/5/5 443/5/5
f 454/5/5 451/5/5 453/5/5
f 455/5/5 451/5/5 454/5/5
f 456/3/5 452/3/5 451/3/5
f 456/5/5 451/5/5 455/5/5
f 457/3/5 452/3/5 456/3/5
f 458/5/5 455/5/5 454/5/5
f 459/5/5 455/5/5 458/5/5
f 460/5/5 455/5/5 459/5/5
f 461/3/5 456/3/5 455/3/5
f 461/5/5 455/5/5 460/5/5
f 462/3/5 456/3/5 461/3/5
f 463/5/5 460/5/5 459/5/5
f 464/5/5 460/5/5 463/5/5
f 467/7/5 466/7/5 465/7/5
f 468/7/5 466/7/5 467/7/5
f 469/5/6 470/5/6 472/5/6
f 472/5/6 470/5/6 473/5/6
f 471/5/6 472/5/6 475/5/6
f 473/5/6 474/5/6 475/5/6
f 472/5/6 473/5/6 475/5/6
f 475/5/6 474/5/6 476/5/6
f 471/5/6 475/5/6 478/5/6
f 478/5/6 475/5/6 479/5/6
f 476/5/6 474/5/6 480/5/6
f 480/5/6 474/5/6 481/5/6
f 481/5/6 482/5/6 483/5/6
f 483/5/6 482/5/6 484/5/6
f 481/5/6 483/5/6 485/5/6
f 483/3/6 484/3/6 485/3/6
f 485/3/6 484/3/6 486/3/6
f 477/5/6 478/5/6 487/5/6
f 487/5/6 478/5/6 488/5/6
f 488/5/6 478/5/6 489/5/6
f 481/5/6 485/5/6 492/5/6
f 485/5/6 486/5/6 492/5/6
f 492/5/6 486/5/6 493/5/6
f 493/5/6 486/5/6 494/5/6
f 489/5/6 490/5/6 495/5/6
f 488/5/6 489/5/6 495/5/6
f 492/5/6 493/5/6 496/5/6
f 491/5/6 492/5/6 496/5/6
f 488/5/6 495/5/6 497/5/6
f 495/5/6 496/5/6 497/5/6
f 497/5/6 496/5/6 498/5/6
f 496/5/6 493/5/6 499/5/6
f 498/5/6 496/5/6 499/5/6
f 499/5/6 493/5/6 500/5/6
f 498/5/6 499/5/6 501/5/6
f 501/5/6 499/5/6 502/5/6
f 503/5/6 504/5/6 506/5/6
f 506/5/6 504/5/6 507/5/6
f 505/5/6 506/5/6 509/5/6
f 507/5/6 508/5/6 509/5/6
f 506/5/6 507/5/6 509/5/6
f 509/5/6 508/5/6 510/5/6
f 505/5/6 509/5/6 511/5/6
f 511/5/6 509/5/6 512/5/6
f 510/5/6 508/5/6 513/5/6
f 513/5/6 508/5/6 514/5/6
f 514/5/6 508/5/6 515/5/6
f 515/5/6 508/5/6 516/5/6
f 515/3/6 516/3/6 517/3/6
f 516/5/6 508/5/6 517/5/6
f 517/5/6 508/5/6 518/5/6
f 515/3/6 517/3/6 519/3/6
f 517/3/6 518/3/6 519/3/6
f 519/3/6 518/3/6 520/3/6
f 505/5/6 511/5/6 521/5/6
f 519/5/6 520/5/6 524/5/6
f 521/5/6 522/5/6 525/5/6
f 523/5/6 524/5/6 526/5/6
f 521/5/6 525/5/6 527/5/6
f 525/5/6 526/5/6 527/5/6
f 505/5/6 521/5/6 527/5/6
f 527/5/6 526/5/6 528/5/6
f 526/5/6 524/5/6 529/5/6
f 528/5/6 526/5/6 529/5/6
f 524/5/6 520/5/6 529/5/6
f 529/5/6 520/5/6 530/5/6
f 528/5/6 529/5/6 531/5/6
f 531/5/6 529/5/6 532/5/6
f 533/5/6 534/5/6 536/5/6
f 536/5/6 534/5/6 537/5/6
f 537/5/6 538/5/6 539/5/6
f 539/5/6 538/5/6 540/5/6
f 541/7/6 542/7/6 543/7/6
f 543/7/6 542/7/6 544/7/6
f 535/5/6 536/5/6 547/5/6
f 547/5/6 536/5/6 548/5/6
f 545/5/6 546/5/6 549/5/6
f 549/5/6 546/5/6 550/5/6
f 548/5/6 549/5/6 551/5/6
f 551/5/6 549/5/6 552/5/6
f 553/5/6 554/5/6 555/5/6
f 555/5/6 554/5/6 556/5/6
f 553/5/6 555/5/6 557/5/6
f 557/5/6 555/5/6 558/5/6
f 553/5/6 557/5/6 559/5/6
f 559/5/6 560/5/6 561/5/6
f 559/5/6 561/5/6 563/5/6
f 561/5/6 562/5/6 563/5/6
f 553/5/6 559/5/6 563/5/6
f 563/5/6 562/5/6 564/5/6
f 565/7/6 566/7/6 568/7/6
f 568/7/6 566/7/6 569/7/6
f 569/7/6 566/7/6 570/7/6
f 567/7/6 568/7/6 571/7/6
f 568/7/6 569/7/6 571/7/6
f 571/7/6 569/7/6 572/7/6
f 572/7/6 569/7/6 573/7/6
f 573/7/6 574/7/6 575/7/6
f 572/7/6 573/7/6 575/7/6
f 575/7/6 574/7/6 576/7/6
