# MagicaVoxel @ Ephtracy

# group
o 

# material
mtllib drzewko-68.mtl
usemtl palette

# normals
vn 0 0 -1
vn 0 0 1
vn -1 0 0
vn 1 0 0
vn 0 -1 0
vn 0 1 0

# texcoords
vt 0.279297 0.5
vt 0.361328 0.5
vt 0.994141 0.5

# verts
v 8.8 2.7 -6.9
v 10.7 2.7 -6.9
v 8.8 2.9 -6.9
v 8.9 2.9 -6.9
v 10.6 2.9 -6.9
v 10.7 2.9 -6.9
v 8.8 3 -6.9
v 8.9 3 -6.9
v 10.6 3 -6.9
v 10.7 3 -6.9
v 8.8 3.1 -6.9
v 10.7 3.1 -6.9
v 9.1 0.7 -6.8
v 10.4 0.7 -6.8
v 8.8 0.8 -6.8
v 9 0.8 -6.8
v 10.5 0.8 -6.8
v 10.7 0.8 -6.8
v 8.8 1.2 -6.8
v 9 1.2 -6.8
v 10.5 1.2 -6.8
v 10.7 1.2 -6.8
v 9.1 2.7 -6.8
v 10.4 2.7 -6.8
v 8.9 3.1 -6.8
v 10.6 3.1 -6.8
v 8.9 3.3 -6.8
v 10.6 3.3 -6.8
v 9.2 0.6 -6.7
v 10.3 0.6 -6.7
v 8.8 0.7 -6.7
v 9 0.7 -6.7
v 9.1 0.7 -6.7
v 9.2 0.7 -6.7
v 10.3 0.7 -6.7
v 10.4 0.7 -6.7
v 10.5 0.7 -6.7
v 10.7 0.7 -6.7
v 8.8 0.8 -6.7
v 9 0.8 -6.7
v 10.5 0.8 -6.7
v 10.7 0.8 -6.7
v 8.8 1.2 -6.7
v 9 1.2 -6.7
v 10.5 1.2 -6.7
v 10.7 1.2 -6.7
v 8.8 1.3 -6.7
v 9 1.3 -6.7
v 10.5 1.3 -6.7
v 10.7 1.3 -6.7
v 9 2.7 -6.7
v 9.1 2.7 -6.7
v 10.4 2.7 -6.7
v 10.5 2.7 -6.7
v 9 3.3 -6.7
v 10.5 3.3 -6.7
v 9 3.4 -6.7
v 10.5 3.4 -6.7
v 8.8 0.6 -6.6
v 9 0.6 -6.6
v 10.5 0.6 -6.6
v 10.7 0.6 -6.6
v 8.8 0.7 -6.6
v 9 0.7 -6.6
v 10.5 0.7 -6.6
v 10.7 0.7 -6.6
v 8.7 0.9 -6.6
v 8.8 0.9 -6.6
v 10.7 0.9 -6.6
v 10.8 0.9 -6.6
v 8.7 1.1 -6.6
v 8.8 1.1 -6.6
v 10.7 1.1 -6.6
v 10.8 1.1 -6.6
v 8.8 1.3 -6.6
v 9 1.3 -6.6
v 10.5 1.3 -6.6
v 10.7 1.3 -6.6
v 8.8 1.4 -6.6
v 9 1.4 -6.6
v 10.5 1.4 -6.6
v 10.7 1.4 -6.6
v 8.7 0.8 -6.5
v 8.8 0.8 -6.5
v 10.7 0.8 -6.5
v 10.8 0.8 -6.5
v 8.7 0.9 -6.5
v 8.8 0.9 -6.5
v 10.7 0.9 -6.5
v 10.8 0.9 -6.5
v 8.7 1.1 -6.5
v 8.8 1.1 -6.5
v 10.7 1.1 -6.5
v 10.8 1.1 -6.5
v 8.7 1.2 -6.5
v 8.8 1.2 -6.5
v 10.7 1.2 -6.5
v 10.8 1.2 -6.5
v 9.1 1.2 -5.4
v 10.4 1.2 -5.4
v 9.1 3 -5.4
v 10.4 3 -5.4
v 9.6 3.1 -5
v 9.9 3.1 -5
v 9.6 3.2 -5
v 9.9 3.2 -5
v 9.1 1.2 -6.7
v 10.4 1.2 -6.7
v 9.1 3 -6.7
v 10.4 3 -6.7
v 8.7 0.8 -6.3
v 8.8 0.8 -6.3
v 10.7 0.8 -6.3
v 10.8 0.8 -6.3
v 8.7 0.9 -6.3
v 8.8 0.9 -6.3
v 10.7 0.9 -6.3
v 10.8 0.9 -6.3
v 8.7 1.1 -6.3
v 8.8 1.1 -6.3
v 10.7 1.1 -6.3
v 10.8 1.1 -6.3
v 8.7 1.2 -6.3
v 8.8 1.2 -6.3
v 10.7 1.2 -6.3
v 10.8 1.2 -6.3
v 8.8 0.6 -6.2
v 9 0.6 -6.2
v 10.5 0.6 -6.2
v 10.7 0.6 -6.2
v 8.8 0.7 -6.2
v 9 0.7 -6.2
v 10.5 0.7 -6.2
v 10.7 0.7 -6.2
v 8.7 0.9 -6.2
v 8.8 0.9 -6.2
v 10.7 0.9 -6.2
v 10.8 0.9 -6.2
v 8.7 1.1 -6.2
v 8.8 1.1 -6.2
v 10.7 1.1 -6.2
v 10.8 1.1 -6.2
v 8.8 1.3 -6.2
v 9 1.3 -6.2
v 10.5 1.3 -6.2
v 10.7 1.3 -6.2
v 8.8 1.4 -6.2
v 9 1.4 -6.2
v 10.5 1.4 -6.2
v 10.7 1.4 -6.2
v 8.8 0.7 -6.1
v 9 0.7 -6.1
v 10.5 0.7 -6.1
v 10.7 0.7 -6.1
v 8.8 0.8 -6.1
v 9 0.8 -6.1
v 10.5 0.8 -6.1
v 10.7 0.8 -6.1
v 8.8 1.2 -6.1
v 9 1.2 -6.1
v 10.5 1.2 -6.1
v 10.7 1.2 -6.1
v 8.8 1.3 -6.1
v 9 1.3 -6.1
v 10.5 1.3 -6.1
v 10.7 1.3 -6.1
v 8.8 0.8 -6
v 9 0.8 -6
v 10.5 0.8 -6
v 10.7 0.8 -6
v 8.8 1.2 -6
v 9 1.2 -6
v 10.5 1.2 -6
v 10.7 1.2 -6
v 9.2 0.6 -5.4
v 10.3 0.6 -5.4
v 9 0.7 -5.4
v 9.1 0.7 -5.4
v 9.2 0.7 -5.4
v 10.3 0.7 -5.4
v 10.4 0.7 -5.4
v 10.5 0.7 -5.4
v 9 2 -5.4
v 9.1 2 -5.4
v 10.4 2 -5.4
v 10.5 2 -5.4
v 9.1 0.7 -5.3
v 9.2 0.7 -5.3
v 10.3 0.7 -5.3
v 10.4 0.7 -5.3
v 9.1 1.9 -5.3
v 9.2 1.9 -5.3
v 10.3 1.9 -5.3
v 10.4 1.9 -5.3
v 9 2 -5.3
v 9.1 2 -5.3
v 10.4 2 -5.3
v 10.5 2 -5.3
v 9 2.7 -5.3
v 9.1 2.7 -5.3
v 10.4 2.7 -5.3
v 10.5 2.7 -5.3
v 9.2 0.7 -5.2
v 10.3 0.7 -5.2
v 9.1 1.9 -5.2
v 9.2 1.9 -5.2
v 10.3 1.9 -5.2
v 10.4 1.9 -5.2
v 9.5 2.2 -5.2
v 10 2.2 -5.2
v 9.5 2.4 -5.2
v 10 2.4 -5.2
v 9.1 2.7 -5.2
v 10.4 2.7 -5.2
v 9 3.3 -5.2
v 10.5 3.3 -5.2
v 9 3.4 -5.2
v 10.5 3.4 -5.2
v 8.8 2.7 -5.1
v 8.9 2.7 -5.1
v 10.6 2.7 -5.1
v 10.7 2.7 -5.1
v 8.8 2.9 -5.1
v 8.9 2.9 -5.1
v 10.6 2.9 -5.1
v 10.7 2.9 -5.1
v 8.9 3 -5.1
v 10.6 3 -5.1
v 8.9 3.1 -5.1
v 9.5 3.1 -5.1
v 9.6 3.1 -5.1
v 9.9 3.1 -5.1
v 10 3.1 -5.1
v 10.6 3.1 -5.1
v 9.5 3.2 -5.1
v 9.6 3.2 -5.1
v 9.9 3.2 -5.1
v 10 3.2 -5.1
v 8.9 3.3 -5.1
v 10.6 3.3 -5.1
v 8.9 2.7 -5
v 10.6 2.7 -5
v 8.9 2.9 -5
v 10.6 2.9 -5
v 8.8 3 -5
v 10.7 3 -5
v 8.8 3.1 -5
v 9.5 3.1 -5
v 10 3.1 -5
v 10.7 3.1 -5
v 9.5 3.1 -4.9
v 10 3.1 -4.9
v 9.5 3.2 -4.9
v 10 3.2 -4.9
v 8.7 0.9 -6.6
v 8.7 1.1 -6.6
v 8.7 0.8 -6.5
v 8.7 0.9 -6.5
v 8.7 1.1 -6.5
v 8.7 1.2 -6.5
v 8.7 0.8 -6.3
v 8.7 0.9 -6.3
v 8.7 1.1 -6.3
v 8.7 1.2 -6.3
v 8.7 0.9 -6.2
v 8.7 1.1 -6.2
v 8.8 2.7 -6.9
v 8.8 2.9 -6.9
v 8.8 3 -6.9
v 8.8 3.1 -6.9
v 8.8 0.8 -6.8
v 8.8 1.2 -6.8
v 8.8 0.7 -6.7
v 8.8 0.8 -6.7
v 8.8 1.2 -6.7
v 8.8 1.3 -6.7
v 8.8 0.6 -6.6
v 8.8 0.7 -6.6
v 8.8 0.9 -6.6
v 8.8 1.1 -6.6
v 8.8 1.3 -6.6
v 8.8 1.4 -6.6
v 8.8 0.8 -6.5
v 8.8 0.9 -6.5
v 8.8 1.1 -6.5
v 8.8 1.2 -6.5
v 8.8 0.8 -6.3
v 8.8 0.9 -6.3
v 8.8 1.1 -6.3
v 8.8 1.2 -6.3
v 8.8 0.6 -6.2
v 8.8 0.7 -6.2
v 8.8 0.9 -6.2
v 8.8 1.1 -6.2
v 8.8 1.3 -6.2
v 8.8 1.4 -6.2
v 8.8 0.7 -6.1
v 8.8 0.8 -6.1
v 8.8 1.2 -6.1
v 8.8 1.3 -6.1
v 8.8 0.8 -6
v 8.8 1.2 -6
v 8.8 2.7 -5.1
v 8.8 2.9 -5.1
v 8.8 3 -5
v 8.8 3.1 -5
v 8.9 2.9 -6.9
v 8.9 3 -6.9
v 8.9 3.1 -6.8
v 8.9 3.3 -6.8
v 8.9 2.7 -5.1
v 8.9 2.9 -5.1
v 8.9 3 -5.1
v 8.9 3.1 -5.1
v 8.9 3.3 -5.1
v 8.9 2.7 -5
v 8.9 2.9 -5
v 9 1.3 -6.7
v 9 2.7 -6.7
v 9 3.3 -6.7
v 9 3.4 -6.7
v 9 1.3 -6.6
v 9 1.4 -6.6
v 9 1.3 -6.2
v 9 1.4 -6.2
v 9 0.7 -6.1
v 9 0.8 -6.1
v 9 1.2 -6.1
v 9 1.3 -6.1
v 9 0.8 -6
v 9 1.2 -6
v 9 0.7 -5.4
v 9 2 -5.4
v 9 2 -5.3
v 9 2.7 -5.3
v 9 3.3 -5.2
v 9 3.4 -5.2
v 9.1 0.7 -6.8
v 9.1 2.7 -6.8
v 9.1 0.7 -6.7
v 9.1 2.7 -6.7
v 9.1 0.7 -5.4
v 9.1 2 -5.4
v 9.1 0.7 -5.3
v 9.1 1.9 -5.3
v 9.1 2 -5.3
v 9.1 2.7 -5.3
v 9.1 1.9 -5.2
v 9.1 2.7 -5.2
v 9.2 0.6 -6.7
v 9.2 0.7 -6.7
v 9.2 0.6 -5.4
v 9.2 0.7 -5.4
v 9.2 0.7 -5.3
v 9.2 1.9 -5.3
v 9.2 0.7 -5.2
v 9.2 1.9 -5.2
v 9.5 3.1 -5.1
v 9.5 3.2 -5.1
v 9.5 3.1 -5
v 9.5 3.1 -4.9
v 9.5 3.2 -4.9
v 9.9 3.1 -5.1
v 9.9 3.2 -5.1
v 9.9 3.1 -5
v 9.9 3.2 -5
v 10.4 1.2 -6.7
v 10.4 3 -6.7
v 10.4 1.2 -5.4
v 10.4 3 -5.4
v 10.5 0.8 -6.8
v 10.5 1.2 -6.8
v 10.5 0.8 -6.7
v 10.5 1.2 -6.7
v 10.5 0.6 -6.6
v 10.5 0.7 -6.6
v 10.5 0.6 -6.2
v 10.5 0.7 -6.2
v 9 0.8 -6.8
v 9 1.2 -6.8
v 9 0.8 -6.7
v 9 1.2 -6.7
v 9 0.6 -6.6
v 9 0.7 -6.6
v 9 0.6 -6.2
v 9 0.7 -6.2
v 9.1 1.2 -6.7
v 9.1 3 -6.7
v 9.1 1.2 -5.4
v 9.1 3 -5.4
v 9.6 3.1 -5.1
v 9.6 3.2 -5.1
v 9.6 3.1 -5
v 9.6 3.2 -5
v 10 3.1 -5.1
v 10 3.2 -5.1
v 10 3.1 -5
v 10 3.1 -4.9
v 10 3.2 -4.9
v 10.3 0.6 -6.7
v 10.3 0.7 -6.7
v 10.3 0.6 -5.4
v 10.3 0.7 -5.4
v 10.3 0.7 -5.3
v 10.3 1.9 -5.3
v 10.3 0.7 -5.2
v 10.3 1.9 -5.2
v 10.4 0.7 -6.8
v 10.4 2.7 -6.8
v 10.4 0.7 -6.7
v 10.4 2.7 -6.7
v 10.4 0.7 -5.4
v 10.4 2 -5.4
v 10.4 0.7 -5.3
v 10.4 1.9 -5.3
v 10.4 2 -5.3
v 10.4 2.7 -5.3
v 10.4 1.9 -5.2
v 10.4 2.7 -5.2
v 10.5 1.3 -6.7
v 10.5 2.7 -6.7
v 10.5 3.3 -6.7
v 10.5 3.4 -6.7
v 10.5 1.3 -6.6
v 10.5 1.4 -6.6
v 10.5 1.3 -6.2
v 10.5 1.4 -6.2
v 10.5 0.7 -6.1
v 10.5 0.8 -6.1
v 10.5 1.2 -6.1
v 10.5 1.3 -6.1
v 10.5 0.8 -6
v 10.5 1.2 -6
v 10.5 0.7 -5.4
v 10.5 2 -5.4
v 10.5 2 -5.3
v 10.5 2.7 -5.3
v 10.5 3.3 -5.2
v 10.5 3.4 -5.2
v 10.6 2.9 -6.9
v 10.6 3 -6.9
v 10.6 3.1 -6.8
v 10.6 3.3 -6.8
v 10.6 2.7 -5.1
v 10.6 2.9 -5.1
v 10.6 3 -5.1
v 10.6 3.1 -5.1
v 10.6 3.3 -5.1
v 10.6 2.7 -5
v 10.6 2.9 -5
v 10.7 2.7 -6.9
v 10.7 2.9 -6.9
v 10.7 3 -6.9
v 10.7 3.1 -6.9
v 10.7 0.8 -6.8
v 10.7 1.2 -6.8
v 10.7 0.7 -6.7
v 10.7 0.8 -6.7
v 10.7 1.2 -6.7
v 10.7 1.3 -6.7
v 10.7 0.6 -6.6
v 10.7 0.7 -6.6
v 10.7 0.9 -6.6
v 10.7 1.1 -6.6
v 10.7 1.3 -6.6
v 10.7 1.4 -6.6
v 10.7 0.8 -6.5
v 10.7 0.9 -6.5
v 10.7 1.1 -6.5
v 10.7 1.2 -6.5
v 10.7 0.8 -6.3
v 10.7 0.9 -6.3
v 10.7 1.1 -6.3
v 10.7 1.2 -6.3
v 10.7 0.6 -6.2
v 10.7 0.7 -6.2
v 10.7 0.9 -6.2
v 10.7 1.1 -6.2
v 10.7 1.3 -6.2
v 10.7 1.4 -6.2
v 10.7 0.7 -6.1
v 10.7 0.8 -6.1
v 10.7 1.2 -6.1
v 10.7 1.3 -6.1
v 10.7 0.8 -6
v 10.7 1.2 -6
v 10.7 2.7 -5.1
v 10.7 2.9 -5.1
v 10.7 3 -5
v 10.7 3.1 -5
v 10.8 0.9 -6.6
v 10.8 1.1 -6.6
v 10.8 0.8 -6.5
v 10.8 0.9 -6.5
v 10.8 1.1 -6.5
v 10.8 1.2 -6.5
v 10.8 0.8 -6.3
v 10.8 0.9 -6.3
v 10.8 1.1 -6.3
v 10.8 1.2 -6.3
v 10.8 0.9 -6.2
v 10.8 1.1 -6.2
v 8.8 0.6 -6.6
v 8.8 0.6 -6.2
v 9 0.6 -6.6
v 9 0.6 -6.2
v 9.2 0.6 -6.7
v 9.2 0.6 -5.4
v 10.3 0.6 -6.7
v 10.3 0.6 -5.4
v 10.5 0.6 -6.6
v 10.5 0.6 -6.2
v 10.7 0.6 -6.6
v 10.7 0.6 -6.2
v 8.8 0.7 -6.7
v 8.8 0.7 -6.6
v 8.8 0.7 -6.2
v 8.8 0.7 -6.1
v 9 0.7 -6.7
v 9 0.7 -6.6
v 9 0.7 -6.2
v 9 0.7 -6.1
v 9 0.7 -5.4
v 9.1 0.7 -6.8
v 9.1 0.7 -6.7
v 9.1 0.7 -5.4
v 9.1 0.7 -5.3
v 9.2 0.7 -6.7
v 9.2 0.7 -5.4
v 9.2 0.7 -5.3
v 9.2 0.7 -5.2
v 10.3 0.7 -6.7
v 10.3 0.7 -5.4
v 10.3 0.7 -5.3
v 10.3 0.7 -5.2
v 10.4 0.7 -6.8
v 10.4 0.7 -6.7
v 10.4 0.7 -5.4
v 10.4 0.7 -5.3
v 10.5 0.7 -6.7
v 10.5 0.7 -6.6
v 10.5 0.7 -6.2
v 10.5 0.7 -6.1
v 10.5 0.7 -5.4
v 10.7 0.7 -6.7
v 10.7 0.7 -6.6
v 10.7 0.7 -6.2
v 10.7 0.7 -6.1
v 8.7 0.8 -6.5
v 8.7 0.8 -6.3
v 8.8 0.8 -6.8
v 8.8 0.8 -6.7
v 8.8 0.8 -6.5
v 8.8 0.8 -6.3
v 8.8 0.8 -6.1
v 8.8 0.8 -6
v 9 0.8 -6.8
v 9 0.8 -6.7
v 9 0.8 -6.1
v 9 0.8 -6
v 10.5 0.8 -6.8
v 10.5 0.8 -6.7
v 10.5 0.8 -6.1
v 10.5 0.8 -6
v 10.7 0.8 -6.8
v 10.7 0.8 -6.7
v 10.7 0.8 -6.5
v 10.7 0.8 -6.3
v 10.7 0.8 -6.1
v 10.7 0.8 -6
v 10.8 0.8 -6.5
v 10.8 0.8 -6.3
v 8.7 0.9 -6.6
v 8.7 0.9 -6.5
v 8.7 0.9 -6.3
v 8.7 0.9 -6.2
v 8.8 0.9 -6.6
v 8.8 0.9 -6.5
v 8.8 0.9 -6.3
v 8.8 0.9 -6.2
v 10.7 0.9 -6.6
v 10.7 0.9 -6.5
v 10.7 0.9 -6.3
v 10.7 0.9 -6.2
v 10.8 0.9 -6.6
v 10.8 0.9 -6.5
v 10.8 0.9 -6.3
v 10.8 0.9 -6.2
v 9.1 1.9 -5.3
v 9.1 1.9 -5.2
v 9.2 1.9 -5.3
v 9.2 1.9 -5.2
v 10.3 1.9 -5.3
v 10.3 1.9 -5.2
v 10.4 1.9 -5.3
v 10.4 1.9 -5.2
v 9 2 -5.4
v 9 2 -5.3
v 9.1 2 -5.4
v 9.1 2 -5.3
v 10.4 2 -5.4
v 10.4 2 -5.3
v 10.5 2 -5.4
v 10.5 2 -5.3
v 8.8 2.7 -6.9
v 8.8 2.7 -5.1
v 8.9 2.7 -5.1
v 8.9 2.7 -5
v 9 2.7 -6.7
v 9 2.7 -5.3
v 9.1 2.7 -6.8
v 9.1 2.7 -6.7
v 9.1 2.7 -5.3
v 9.1 2.7 -5.2
v 10.4 2.7 -6.8
v 10.4 2.7 -6.7
v 10.4 2.7 -5.3
v 10.4 2.7 -5.2
v 10.5 2.7 -6.7
v 10.5 2.7 -5.3
v 10.6 2.7 -5.1
v 10.6 2.7 -5
v 10.7 2.7 -6.9
v 10.7 2.7 -5.1
v 8.8 3 -6.9
v 8.8 3 -5
v 8.9 3 -6.9
v 8.9 3 -5.1
v 9.1 3 -6.7
v 9.1 3 -5.4
v 10.4 3 -6.7
v 10.4 3 -5.4
v 10.6 3 -6.9
v 10.6 3 -5.1
v 10.7 3 -6.9
v 10.7 3 -5
v 9.5 3.1 -5
v 9.5 3.1 -4.9
v 10 3.1 -5
v 10 3.1 -4.9
v 8.7 1.1 -6.6
v 8.7 1.1 -6.5
v 8.7 1.1 -6.3
v 8.7 1.1 -6.2
v 8.8 1.1 -6.6
v 8.8 1.1 -6.5
v 8.8 1.1 -6.3
v 8.8 1.1 -6.2
v 10.7 1.1 -6.6
v 10.7 1.1 -6.5
v 10.7 1.1 -6.3
v 10.7 1.1 -6.2
v 10.8 1.1 -6.6
v 10.8 1.1 -6.5
v 10.8 1.1 -6.3
v 10.8 1.1 -6.2
v 8.7 1.2 -6.5
v 8.7 1.2 -6.3
v 8.8 1.2 -6.8
v 8.8 1.2 -6.7
v 8.8 1.2 -6.5
v 8.8 1.2 -6.3
v 8.8 1.2 -6.1
v 8.8 1.2 -6
v 9 1.2 -6.8
v 9 1.2 -6.7
v 9 1.2 -6.1
v 9 1.2 -6
v 9.1 1.2 -6.7
v 9.1 1.2 -5.4
v 10.4 1.2 -6.7
v 10.4 1.2 -5.4
v 10.5 1.2 -6.8
v 10.5 1.2 -6.7
v 10.5 1.2 -6.1
v 10.5 1.2 -6
v 10.7 1.2 -6.8
v 10.7 1.2 -6.7
v 10.7 1.2 -6.5
v 10.7 1.2 -6.3
v 10.7 1.2 -6.1
v 10.7 1.2 -6
v 10.8 1.2 -6.5
v 10.8 1.2 -6.3
v 8.8 1.3 -6.7
v 8.8 1.3 -6.6
v 8.8 1.3 -6.2
v 8.8 1.3 -6.1
v 9 1.3 -6.7
v 9 1.3 -6.6
v 9 1.3 -6.2
v 9 1.3 -6.1
v 10.5 1.3 -6.7
v 10.5 1.3 -6.6
v 10.5 1.3 -6.2
v 10.5 1.3 -6.1
v 10.7 1.3 -6.7
v 10.7 1.3 -6.6
v 10.7 1.3 -6.2
v 10.7 1.3 -6.1
v 8.8 1.4 -6.6
v 8.8 1.4 -6.2
v 9 1.4 -6.6
v 9 1.4 -6.2
v 10.5 1.4 -6.6
v 10.5 1.4 -6.2
v 10.7 1.4 -6.6
v 10.7 1.4 -6.2
v 8.8 2.9 -6.9
v 8.8 2.9 -5.1
v 8.9 2.9 -6.9
v 8.9 2.9 -5.1
v 8.9 2.9 -5
v 10.6 2.9 -6.9
v 10.6 2.9 -5.1
v 10.6 2.9 -5
v 10.7 2.9 -6.9
v 10.7 2.9 -5.1
v 8.8 3.1 -6.9
v 8.8 3.1 -5
v 8.9 3.1 -6.8
v 8.9 3.1 -5.1
v 9.5 3.1 -5.1
v 9.5 3.1 -5
v 9.6 3.1 -5.1
v 9.6 3.1 -5
v 9.9 3.1 -5.1
v 9.9 3.1 -5
v 10 3.1 -5.1
v 10 3.1 -5
v 10.6 3.1 -6.8
v 10.6 3.1 -5.1
v 10.7 3.1 -6.9
v 10.7 3.1 -5
v 9.5 3.2 -5.1
v 9.5 3.2 -4.9
v 9.6 3.2 -5.1
v 9.6 3.2 -5
v 9.9 3.2 -5.1
v 9.9 3.2 -5
v 10 3.2 -5.1
v 10 3.2 -4.9
v 8.9 3.3 -6.8
v 8.9 3.3 -5.1
v 9 3.3 -6.7
v 9 3.3 -5.2
v 10.5 3.3 -6.7
v 10.5 3.3 -5.2
v 10.6 3.3 -6.8
v 10.6 3.3 -5.1
v 9 3.4 -6.7
v 9 3.4 -5.2
v 10.5 3.4 -6.7
v 10.5 3.4 -5.2

# faces
f 3/1/1 2/1/1 1/1/1
f 4/1/1 2/1/1 3/1/1
f 5/1/1 2/1/1 4/1/1
f 6/1/1 2/1/1 5/1/1
f 8/1/1 5/1/1 4/1/1
f 9/1/1 5/1/1 8/1/1
f 11/2/1 8/2/1 7/2/1
f 11/2/1 10/2/1 9/2/1
f 11/2/1 9/2/1 8/2/1
f 12/2/1 10/2/1 11/2/1
f 19/2/1 16/2/1 15/2/1
f 20/2/1 16/2/1 19/2/1
f 21/2/1 18/2/1 17/2/1
f 22/2/1 18/2/1 21/2/1
f 23/1/1 14/1/1 13/1/1
f 24/1/1 14/1/1 23/1/1
f 27/2/1 26/2/1 25/2/1
f 28/2/1 26/2/1 27/2/1
f 34/1/1 30/1/1 29/1/1
f 35/1/1 30/1/1 34/1/1
f 39/2/1 32/2/1 31/2/1
f 40/1/1 33/1/1 32/1/1
f 40/2/1 32/2/1 39/2/1
f 41/2/1 38/2/1 37/2/1
f 41/1/1 37/1/1 36/1/1
f 42/2/1 38/2/1 41/2/1
f 44/1/1 33/1/1 40/1/1
f 45/1/1 41/1/1 36/1/1
f 47/2/1 44/2/1 43/2/1
f 48/1/1 33/1/1 44/1/1
f 48/2/1 44/2/1 47/2/1
f 49/2/1 46/2/1 45/2/1
f 49/1/1 45/1/1 36/1/1
f 50/2/1 46/2/1 49/2/1
f 51/1/1 33/1/1 48/1/1
f 52/1/1 33/1/1 51/1/1
f 53/1/1 49/1/1 36/1/1
f 54/1/1 49/1/1 53/1/1
f 57/2/1 56/2/1 55/2/1
f 58/2/1 56/2/1 57/2/1
f 63/2/1 60/2/1 59/2/1
f 64/2/1 60/2/1 63/2/1
f 65/2/1 62/2/1 61/2/1
f 66/2/1 62/2/1 65/2/1
f 71/3/1 68/3/1 67/3/1
f 72/3/1 68/3/1 71/3/1
f 73/3/1 70/3/1 69/3/1
f 74/3/1 70/3/1 73/3/1
f 79/2/1 76/2/1 75/2/1
f 80/2/1 76/2/1 79/2/1
f 81/2/1 78/2/1 77/2/1
f 82/2/1 78/2/1 81/2/1
f 87/3/1 84/3/1 83/3/1
f 88/3/1 84/3/1 87/3/1
f 89/3/1 86/3/1 85/3/1
f 90/3/1 86/3/1 89/3/1
f 95/3/1 92/3/1 91/3/1
f 96/3/1 92/3/1 95/3/1
f 97/3/1 94/3/1 93/3/1
f 98/3/1 94/3/1 97/3/1
f 101/1/1 100/1/1 99/1/1
f 102/1/1 100/1/1 101/1/1
f 105/2/1 104/2/1 103/2/1
f 106/2/1 104/2/1 105/2/1
f 107/1/2 108/1/2 109/1/2
f 109/1/2 108/1/2 110/1/2
f 111/3/2 112/3/2 115/3/2
f 115/3/2 112/3/2 116/3/2
f 113/3/2 114/3/2 117/3/2
f 117/3/2 114/3/2 118/3/2
f 119/3/2 120/3/2 123/3/2
f 123/3/2 120/3/2 124/3/2
f 121/3/2 122/3/2 125/3/2
f 125/3/2 122/3/2 126/3/2
f 127/2/2 128/2/2 131/2/2
f 131/2/2 128/2/2 132/2/2
f 129/2/2 130/2/2 133/2/2
f 133/2/2 130/2/2 134/2/2
f 135/3/2 136/3/2 139/3/2
f 139/3/2 136/3/2 140/3/2
f 137/3/2 138/3/2 141/3/2
f 141/3/2 138/3/2 142/3/2
f 143/2/2 144/2/2 147/2/2
f 147/2/2 144/2/2 148/2/2
f 145/2/2 146/2/2 149/2/2
f 149/2/2 146/2/2 150/2/2
f 151/2/2 152/2/2 155/2/2
f 155/2/2 152/2/2 156/2/2
f 153/2/2 154/2/2 157/2/2
f 157/2/2 154/2/2 158/2/2
f 159/2/2 160/2/2 163/2/2
f 163/2/2 160/2/2 164/2/2
f 161/2/2 162/2/2 165/2/2
f 165/2/2 162/2/2 166/2/2
f 167/2/2 168/2/2 171/2/2
f 171/2/2 168/2/2 172/2/2
f 169/2/2 170/2/2 173/2/2
f 173/2/2 170/2/2 174/2/2
f 175/1/2 176/1/2 179/1/2
f 179/1/2 176/1/2 180/1/2
f 177/1/2 178/1/2 183/1/2
f 183/1/2 178/1/2 184/1/2
f 181/1/2 182/1/2 185/1/2
f 185/1/2 182/1/2 186/1/2
f 187/1/2 188/1/2 191/1/2
f 191/1/2 188/1/2 192/1/2
f 189/1/2 190/1/2 193/1/2
f 193/1/2 190/1/2 194/1/2
f 195/1/2 196/1/2 199/1/2
f 199/1/2 196/1/2 200/1/2
f 197/1/2 198/1/2 201/1/2
f 201/1/2 198/1/2 202/1/2
f 203/1/2 204/1/2 206/1/2
f 206/1/2 204/1/2 207/1/2
f 205/1/2 206/1/2 209/1/2
f 207/1/2 208/1/2 209/1/2
f 206/1/2 207/1/2 209/1/2
f 209/1/2 208/1/2 210/1/2
f 205/1/2 209/1/2 211/1/2
f 209/3/2 210/3/2 211/3/2
f 210/1/2 208/1/2 212/1/2
f 211/3/2 210/3/2 212/3/2
f 205/1/2 211/1/2 213/1/2
f 211/1/2 212/1/2 213/1/2
f 212/1/2 208/1/2 214/1/2
f 213/1/2 212/1/2 214/1/2
f 215/2/2 216/2/2 217/2/2
f 217/2/2 216/2/2 218/2/2
f 219/1/2 220/1/2 223/1/2
f 223/1/2 220/1/2 224/1/2
f 221/1/2 222/1/2 225/1/2
f 225/1/2 222/1/2 226/1/2
f 224/1/2 225/1/2 227/1/2
f 227/1/2 225/1/2 228/1/2
f 229/2/2 230/2/2 235/2/2
f 231/2/2 232/2/2 236/2/2
f 236/2/2 232/2/2 237/2/2
f 233/2/2 234/2/2 238/2/2
f 236/2/2 237/2/2 239/2/2
f 237/2/2 238/2/2 239/2/2
f 229/2/2 235/2/2 239/2/2
f 235/2/2 236/2/2 239/2/2
f 238/2/2 234/2/2 240/2/2
f 239/2/2 238/2/2 240/2/2
f 241/1/2 242/1/2 243/1/2
f 243/1/2 242/1/2 244/1/2
f 245/2/2 246/2/2 247/2/2
f 247/2/2 246/2/2 248/2/2
f 248/2/2 246/2/2 249/2/2
f 249/2/2 246/2/2 250/2/2
f 251/2/2 252/2/2 253/2/2
f 253/2/2 252/2/2 254/2/2
f 258/3/3 256/3/3 255/3/3
f 259/3/3 256/3/3 258/3/3
f 261/3/3 258/3/3 257/3/3
f 261/3/3 260/3/3 259/3/3
f 261/3/3 259/3/3 258/3/3
f 262/3/3 260/3/3 261/3/3
f 263/3/3 260/3/3 262/3/3
f 264/3/3 260/3/3 263/3/3
f 265/3/3 263/3/3 262/3/3
f 266/3/3 263/3/3 265/3/3
f 274/2/3 272/2/3 271/2/3
f 275/2/3 272/2/3 274/2/3
f 278/2/3 274/2/3 273/2/3
f 278/2/3 276/2/3 275/2/3
f 278/2/3 275/2/3 274/2/3
f 279/2/3 276/2/3 278/2/3
f 280/2/3 276/2/3 279/2/3
f 281/2/3 276/2/3 280/2/3
f 283/2/3 278/2/3 277/2/3
f 283/2/3 279/2/3 278/2/3
f 284/2/3 279/2/3 283/2/3
f 285/2/3 282/2/3 281/2/3
f 285/2/3 281/2/3 280/2/3
f 286/2/3 282/2/3 285/2/3
f 287/2/3 283/2/3 277/2/3
f 290/2/3 282/2/3 286/2/3
f 291/2/3 288/2/3 287/2/3
f 291/2/3 287/2/3 277/2/3
f 292/2/3 288/2/3 291/2/3
f 293/2/3 288/2/3 292/2/3
f 294/2/3 290/2/3 289/2/3
f 295/2/3 282/2/3 290/2/3
f 295/2/3 290/2/3 294/2/3
f 296/2/3 282/2/3 295/2/3
f 297/2/3 293/2/3 292/2/3
f 297/2/3 294/2/3 293/2/3
f 297/2/3 295/2/3 294/2/3
f 298/2/3 295/2/3 297/2/3
f 299/2/3 295/2/3 298/2/3
f 300/2/3 295/2/3 299/2/3
f 301/2/3 299/2/3 298/2/3
f 302/2/3 299/2/3 301/2/3
f 303/1/3 268/1/3 267/1/3
f 304/1/3 268/1/3 303/1/3
f 305/2/3 270/2/3 269/2/3
f 306/2/3 270/2/3 305/2/3
f 312/1/3 308/1/3 307/1/3
f 313/1/3 308/1/3 312/1/3
f 314/2/3 310/2/3 309/2/3
f 315/2/3 310/2/3 314/2/3
f 316/1/3 312/1/3 311/1/3
f 317/1/3 312/1/3 316/1/3
f 322/1/3 319/1/3 318/1/3
f 323/1/3 319/1/3 322/1/3
f 325/1/3 319/1/3 323/1/3
f 329/1/3 325/1/3 324/1/3
f 330/1/3 327/1/3 326/1/3
f 331/1/3 329/1/3 328/1/3
f 332/1/3 330/1/3 326/1/3
f 332/1/3 331/1/3 330/1/3
f 333/1/3 319/1/3 325/1/3
f 333/1/3 331/1/3 332/1/3
f 333/1/3 329/1/3 331/1/3
f 333/1/3 325/1/3 329/1/3
f 334/1/3 319/1/3 333/1/3
f 335/1/3 319/1/3 334/1/3
f 336/2/3 321/2/3 320/2/3
f 337/2/3 321/2/3 336/2/3
f 340/1/3 339/1/3 338/1/3
f 341/1/3 339/1/3 340/1/3
f 344/1/3 343/1/3 342/1/3
f 345/1/3 343/1/3 344/1/3
f 346/1/3 343/1/3 345/1/3
f 348/1/3 347/1/3 346/1/3
f 348/1/3 346/1/3 345/1/3
f 349/1/3 347/1/3 348/1/3
f 352/1/3 351/1/3 350/1/3
f 353/1/3 351/1/3 352/1/3
f 356/1/3 355/1/3 354/1/3
f 357/1/3 355/1/3 356/1/3
f 360/2/3 359/2/3 358/2/3
f 361/2/3 359/2/3 360/2/3
f 362/2/3 359/2/3 361/2/3
f 365/2/3 364/2/3 363/2/3
f 366/2/3 364/2/3 365/2/3
f 369/1/3 368/1/3 367/1/3
f 370/1/3 368/1/3 369/1/3
f 373/2/3 372/2/3 371/2/3
f 374/2/3 372/2/3 373/2/3
f 377/2/3 376/2/3 375/2/3
f 378/2/3 376/2/3 377/2/3
f 379/2/4 380/2/4 381/2/4
f 381/2/4 380/2/4 382/2/4
f 383/2/4 384/2/4 385/2/4
f 385/2/4 384/2/4 386/2/4
f 387/1/4 388/1/4 389/1/4
f 389/1/4 388/1/4 390/1/4
f 391/2/4 392/2/4 393/2/4
f 393/2/4 392/2/4 394/2/4
f 395/2/4 396/2/4 397/2/4
f 397/2/4 396/2/4 398/2/4
f 398/2/4 396/2/4 399/2/4
f 400/1/4 401/1/4 402/1/4
f 402/1/4 401/1/4 403/1/4
f 404/1/4 405/1/4 406/1/4
f 406/1/4 405/1/4 407/1/4
f 408/1/4 409/1/4 410/1/4
f 410/1/4 409/1/4 411/1/4
f 412/1/4 413/1/4 414/1/4
f 414/1/4 413/1/4 415/1/4
f 415/1/4 413/1/4 416/1/4
f 416/1/4 417/1/4 418/1/4
f 415/1/4 416/1/4 418/1/4
f 418/1/4 417/1/4 419/1/4
f 420/1/4 421/1/4 424/1/4
f 424/1/4 421/1/4 425/1/4
f 425/1/4 421/1/4 427/1/4
f 426/1/4 427/1/4 431/1/4
f 428/1/4 429/1/4 432/1/4
f 430/1/4 431/1/4 433/1/4
f 428/1/4 432/1/4 434/1/4
f 432/1/4 433/1/4 434/1/4
f 427/1/4 421/1/4 435/1/4
f 434/1/4 433/1/4 435/1/4
f 433/1/4 431/1/4 435/1/4
f 431/1/4 427/1/4 435/1/4
f 435/1/4 421/1/4 436/1/4
f 436/1/4 421/1/4 437/1/4
f 422/2/4 423/2/4 438/2/4
f 438/2/4 423/2/4 439/2/4
f 440/1/4 441/1/4 445/1/4
f 445/1/4 441/1/4 446/1/4
f 442/2/4 443/2/4 447/2/4
f 447/2/4 443/2/4 448/2/4
f 444/1/4 445/1/4 449/1/4
f 449/1/4 445/1/4 450/1/4
f 455/2/4 456/2/4 458/2/4
f 458/2/4 456/2/4 459/2/4
f 457/2/4 458/2/4 462/2/4
f 459/2/4 460/2/4 462/2/4
f 458/2/4 459/2/4 462/2/4
f 462/2/4 460/2/4 463/2/4
f 463/2/4 460/2/4 464/2/4
f 464/2/4 460/2/4 465/2/4
f 461/2/4 462/2/4 467/2/4
f 462/2/4 463/2/4 467/2/4
f 467/2/4 463/2/4 468/2/4
f 465/2/4 466/2/4 469/2/4
f 464/2/4 465/2/4 469/2/4
f 469/2/4 466/2/4 470/2/4
f 461/2/4 467/2/4 471/2/4
f 470/2/4 466/2/4 474/2/4
f 471/2/4 472/2/4 475/2/4
f 461/2/4 471/2/4 475/2/4
f 475/2/4 472/2/4 476/2/4
f 476/2/4 472/2/4 477/2/4
f 473/2/4 474/2/4 478/2/4
f 474/2/4 466/2/4 479/2/4
f 478/2/4 474/2/4 479/2/4
f 479/2/4 466/2/4 480/2/4
f 476/2/4 477/2/4 481/2/4
f 477/2/4 478/2/4 481/2/4
f 478/2/4 479/2/4 481/2/4
f 481/2/4 479/2/4 482/2/4
f 482/2/4 479/2/4 483/2/4
f 483/2/4 479/2/4 484/2/4
f 482/2/4 483/2/4 485/2/4
f 485/2/4 483/2/4 486/2/4
f 451/1/4 452/1/4 487/1/4
f 487/1/4 452/1/4 488/1/4
f 453/2/4 454/2/4 489/2/4
f 489/2/4 454/2/4 490/2/4
f 491/3/4 492/3/4 494/3/4
f 494/3/4 492/3/4 495/3/4
f 493/3/4 494/3/4 497/3/4
f 495/3/4 496/3/4 497/3/4
f 494/3/4 495/3/4 497/3/4
f 497/3/4 496/3/4 498/3/4
f 498/3/4 496/3/4 499/3/4
f 499/3/4 496/3/4 500/3/4
f 498/3/4 499/3/4 501/3/4
f 501/3/4 499/3/4 502/3/4
f 505/2/5 504/2/5 503/2/5
f 506/2/5 504/2/5 505/2/5
f 509/1/5 508/1/5 507/1/5
f 510/1/5 508/1/5 509/1/5
f 513/2/5 512/2/5 511/2/5
f 514/2/5 512/2/5 513/2/5
f 519/2/5 516/2/5 515/2/5
f 520/2/5 516/2/5 519/2/5
f 521/2/5 518/2/5 517/2/5
f 522/2/5 518/2/5 521/2/5
f 525/1/5 520/1/5 519/1/5
f 525/1/5 523/1/5 522/1/5
f 525/1/5 522/1/5 521/1/5
f 525/1/5 521/1/5 520/1/5
f 526/1/5 523/1/5 525/1/5
f 528/1/5 525/1/5 524/1/5
f 528/1/5 527/1/5 526/1/5
f 528/1/5 526/1/5 525/1/5
f 529/1/5 527/1/5 528/1/5
f 530/1/5 527/1/5 529/1/5
f 532/1/5 528/1/5 524/1/5
f 533/1/5 531/1/5 530/1/5
f 533/1/5 530/1/5 529/1/5
f 534/1/5 531/1/5 533/1/5
f 535/1/5 531/1/5 534/1/5
f 536/1/5 532/1/5 524/1/5
f 536/1/5 533/1/5 532/1/5
f 536/1/5 534/1/5 533/1/5
f 537/1/5 534/1/5 536/1/5
f 538/1/5 534/1/5 537/1/5
f 539/1/5 534/1/5 538/1/5
f 540/1/5 538/1/5 537/1/5
f 541/1/5 538/1/5 540/1/5
f 542/1/5 538/1/5 541/1/5
f 543/1/5 538/1/5 542/1/5
f 544/1/5 538/1/5 543/1/5
f 545/2/5 541/2/5 540/2/5
f 546/2/5 541/2/5 545/2/5
f 547/2/5 543/2/5 542/2/5
f 548/2/5 543/2/5 547/2/5
f 553/3/5 550/3/5 549/3/5
f 554/3/5 550/3/5 553/3/5
f 557/2/5 552/2/5 551/2/5
f 558/2/5 552/2/5 557/2/5
f 559/2/5 556/2/5 555/2/5
f 560/2/5 556/2/5 559/2/5
f 565/2/5 562/2/5 561/2/5
f 566/2/5 562/2/5 565/2/5
f 569/2/5 564/2/5 563/2/5
f 570/2/5 564/2/5 569/2/5
f 571/3/5 568/3/5 567/3/5
f 572/3/5 568/3/5 571/3/5
f 577/3/5 574/3/5 573/3/5
f 578/3/5 574/3/5 577/3/5
f 579/3/5 576/3/5 575/3/5
f 580/3/5 576/3/5 579/3/5
f 585/3/5 582/3/5 581/3/5
f 586/3/5 582/3/5 585/3/5
f 587/3/5 584/3/5 583/3/5
f 588/3/5 584/3/5 587/3/5
f 591/1/5 590/1/5 589/1/5
f 592/1/5 590/1/5 591/1/5
f 595/1/5 594/1/5 593/1/5
f 596/1/5 594/1/5 595/1/5
f 599/1/5 598/1/5 597/1/5
f 600/1/5 598/1/5 599/1/5
f 603/1/5 602/1/5 601/1/5
f 604/1/5 602/1/5 603/1/5
f 607/1/5 606/1/5 605/1/5
f 609/1/5 607/1/5 605/1/5
f 609/1/5 608/1/5 607/1/5
f 610/1/5 608/1/5 609/1/5
f 611/1/5 609/1/5 605/1/5
f 612/1/5 609/1/5 611/1/5
f 613/1/5 608/1/5 610/1/5
f 614/1/5 608/1/5 613/1/5
f 615/1/5 611/1/5 605/1/5
f 618/1/5 608/1/5 614/1/5
f 619/1/5 616/1/5 615/1/5
f 620/1/5 618/1/5 617/1/5
f 621/1/5 608/1/5 618/1/5
f 621/1/5 620/1/5 619/1/5
f 621/1/5 618/1/5 620/1/5
f 622/1/5 608/1/5 621/1/5
f 623/1/5 619/1/5 615/1/5
f 623/1/5 615/1/5 605/1/5
f 623/1/5 621/1/5 619/1/5
f 624/1/5 621/1/5 623/1/5
f 627/2/5 626/2/5 625/2/5
f 628/2/5 626/2/5 627/2/5
f 631/2/5 630/2/5 629/2/5
f 632/2/5 630/2/5 631/2/5
f 634/2/5 626/2/5 628/2/5
f 635/2/5 634/2/5 633/2/5
f 636/2/5 626/2/5 634/2/5
f 636/2/5 634/2/5 635/2/5
f 639/2/5 638/2/5 637/2/5
f 640/2/5 638/2/5 639/2/5
f 641/3/6 642/3/6 645/3/6
f 645/3/6 642/3/6 646/3/6
f 643/3/6 644/3/6 647/3/6
f 647/3/6 644/3/6 648/3/6
f 649/3/6 650/3/6 653/3/6
f 653/3/6 650/3/6 654/3/6
f 651/3/6 652/3/6 655/3/6
f 655/3/6 652/3/6 656/3/6
f 657/3/6 658/3/6 661/3/6
f 661/3/6 658/3/6 662/3/6
f 659/2/6 660/2/6 665/2/6
f 665/2/6 660/2/6 666/2/6
f 663/2/6 664/2/6 667/2/6
f 667/2/6 664/2/6 668/2/6
f 669/1/6 670/1/6 671/1/6
f 671/1/6 670/1/6 672/1/6
f 673/2/6 674/2/6 677/2/6
f 677/2/6 674/2/6 678/2/6
f 675/2/6 676/2/6 681/2/6
f 681/2/6 676/2/6 682/2/6
f 679/3/6 680/3/6 683/3/6
f 683/3/6 680/3/6 684/3/6
f 685/2/6 686/2/6 689/2/6
f 689/2/6 686/2/6 690/2/6
f 687/2/6 688/2/6 691/2/6
f 691/2/6 688/2/6 692/2/6
f 693/2/6 694/2/6 697/2/6
f 697/2/6 694/2/6 698/2/6
f 695/2/6 696/2/6 699/2/6
f 699/2/6 696/2/6 700/2/6
f 701/2/6 702/2/6 703/2/6
f 703/2/6 702/2/6 704/2/6
f 705/2/6 706/2/6 707/2/6
f 707/2/6 706/2/6 708/2/6
f 709/1/6 710/1/6 711/1/6
f 711/1/6 710/1/6 712/1/6
f 712/1/6 713/1/6 715/1/6
f 715/1/6 713/1/6 716/1/6
f 714/1/6 715/1/6 717/1/6
f 717/1/6 715/1/6 718/1/6
f 719/2/6 720/2/6 721/2/6
f 721/2/6 720/2/6 722/2/6
f 722/2/6 720/2/6 723/2/6
f 723/2/6 720/2/6 724/2/6
f 725/2/6 726/2/6 727/2/6
f 727/2/6 726/2/6 728/2/6
f 719/2/6 721/2/6 731/2/6
f 729/2/6 730/2/6 732/2/6
f 719/2/6 731/2/6 733/2/6
f 731/2/6 732/2/6 733/2/6
f 732/2/6 730/2/6 734/2/6
f 733/2/6 732/2/6 734/2/6
f 735/2/6 736/2/6 737/2/6
f 737/2/6 736/2/6 738/2/6
f 738/2/6 736/2/6 740/2/6
f 739/2/6 740/2/6 741/2/6
f 740/2/6 736/2/6 742/2/6
f 741/2/6 740/2/6 742/2/6
f 743/2/6 744/2/6 745/2/6
f 745/2/6 744/2/6 746/2/6
f 743/2/6 745/2/6 747/2/6
f 746/2/6 744/2/6 748/2/6
f 743/2/6 747/2/6 749/2/6
f 747/2/6 748/2/6 749/2/6
f 748/2/6 744/2/6 750/2/6
f 749/2/6 748/2/6 750/2/6
f 751/2/6 752/2/6 753/2/6
f 753/2/6 752/2/6 754/2/6
