# MagicaVoxel @ Ephtracy

# group
o 

# material
mtllib drzewko-20.mtl
usemtl palette

# normals
vn -1 0 0
vn 1 0 0
vn 0 0 1
vn 0 0 -1
vn 0 -1 0
vn 0 1 0

# texcoords
vt 0.150391 0.5
vt 0.638672 0.5
vt 0.642578 0.5
vt 0.955078 0.5
vt 0.978516 0.5
vt 0.982422 0.5

# verts
v -41 0.8 8.8
v -41 0.8 8.7
v -41 0.8 8.5
v -41 0.9 8.8
v -41 0.9 8.7
v -41 0.9 8.6
v -41 0.9 8.5
v -41 2 8.7
v -41 2 8.6
v -41 2.1 8.8
v -41 2.1 8.5
v -41 2.2 8.8
v -41 2.2 8.7
v -41 2.2 8.6
v -41 2.2 8.5
v -41 2.3 8.7
v -41 2.3 8.6
v -40.9 0.9 8.8
v -40.9 0.9 8.7
v -40.9 0.9 8.6
v -40.9 0.9 8.5
v -40.9 1 8.8
v -40.9 1 8.7
v -40.9 2 8.8
v -40.9 2 8.7
v -40.9 2 8.6
v -40.9 2 8.5
v -40.9 2.1 8.7
v -40.9 2.1 8.6
v -40.9 2.2 8.6
v -40.9 2.2 8.5
v -40.9 2.3 8.6
v -40.9 2.3 8.5
v -40.6 1.2 8.7
v -40.6 1.2 8.5
v -40.6 1.3 8.8
v -40.6 1.3 8.7
v -40.6 1.3 8.5
v -40.6 1.3 8.4
v -40.6 1.5 8.7
v -40.6 1.5 8.6
v -40.6 1.5 8.5
v -40.6 1.5 8.4
v -40.6 1.6 8.7
v -40.6 1.6 8.6
v -40.6 1.6 8.5
v -40.6 1.6 8.4
v -40.6 1.7 8.7
v -40.6 1.7 8.6
v -40.6 1.7 8.5
v -40.6 1.7 8.4
v -40.6 1.8 8.9
v -40.6 1.8 8.8
v -40.6 1.8 8.7
v -40.6 1.8 8.6
v -40.6 1.8 8.5
v -40.6 1.8 8.4
v -40.6 1.8 8.3
v -40.6 1.9 8.9
v -40.6 1.9 8.5
v -40.6 1.9 8.4
v -40.6 1.9 8.3
v -40.6 2 8.5
v -40.6 2 8.4
v -40.5 1.1 8.7
v -40.5 1.1 8.5
v -40.5 1.2 8.8
v -40.5 1.2 8.7
v -40.5 1.2 8.5
v -40.5 1.2 8.4
v -40.5 1.3 8.9
v -40.5 1.3 8.8
v -40.5 1.3 8.7
v -40.5 1.3 8.5
v -40.5 1.3 8.4
v -40.5 1.3 8.3
v -40.5 1.5 8.4
v -40.5 1.6 8.4
v -40.5 1.6 8.3
v -40.5 1.7 8.4
v -40.5 1.7 8.3
v -40.5 1.8 8.9
v -40.5 1.8 8.8
v -40.5 1.8 8.4
v -40.5 1.8 8.3
v -40.4 1.1 8.8
v -40.4 1.1 8.7
v -40.4 1.1 8.5
v -40.4 1.1 8.4
v -40.4 1.2 8.9
v -40.4 1.2 8.8
v -40.4 1.2 8.7
v -40.4 1.2 8.5
v -40.4 1.2 8.4
v -40.4 1.2 8.3
v -40.4 1.3 8.9
v -40.4 1.3 8.8
v -40.4 1.3 8.4
v -40.4 1.3 8.3
v -40.4 1.7 8.7
v -40.4 1.7 8.6
v -40.4 1.8 8.7
v -40.4 1.8 8.6
v -40.4 1.8 8.5
v -40.4 1.9 8.6
v -40.4 1.9 8.5
v -40.3 1.3 8.8
v -40.3 1.3 8.7
v -40.3 1.5 8.8
v -40.3 1.5 8.7
v -40.3 1.6 8.8
v -40.3 1.6 8.7
v -40.3 1.7 8.8
v -40.3 1.7 8.7
v -40.2 1.3 8.5
v -40.2 1.3 8.4
v -40.2 1.7 8.8
v -40.2 1.7 8.7
v -40.2 1.7 8.5
v -40.2 1.7 8.4
v -40.2 1.8 8.8
v -40.2 1.8 8.7
v -40.1 1.3 8.7
v -40.1 1.3 8.5
v -40.1 1.6 8.7
v -40.1 1.6 8.6
v -40.1 1.7 8.7
v -40.1 1.7 8.6
v -40.1 1.7 8.5
v -40.1 1.8 8.8
v -40.1 1.8 8.6
v -40.1 1.8 8.5
v -40.1 1.8 8.4
v -40.1 1.9 8.8
v -40.1 1.9 8.4
v -40.8 0.9 8.8
v -40.8 0.9 8.7
v -40.8 0.9 8.6
v -40.8 0.9 8.5
v -40.8 1 8.8
v -40.8 1 8.7
v -40.8 1 8.6
v -40.8 1.1 8.7
v -40.8 1.1 8.6
v -40.8 2 8.8
v -40.8 2 8.7
v -40.8 2 8.6
v -40.8 2 8.5
v -40.8 2.1 8.7
v -40.8 2.1 8.6
v -40.8 2.2 8.6
v -40.8 2.2 8.5
v -40.8 2.3 8.6
v -40.8 2.3 8.5
v -40.7 0.8 8.8
v -40.7 0.8 8.7
v -40.7 0.8 8.5
v -40.7 0.9 8.8
v -40.7 0.9 8.7
v -40.7 0.9 8.6
v -40.7 0.9 8.5
v -40.7 1 8.7
v -40.7 1 8.6
v -40.7 1.1 8.7
v -40.7 1.1 8.6
v -40.7 1.5 8.7
v -40.7 1.5 8.6
v -40.7 1.6 8.7
v -40.7 1.6 8.6
v -40.7 1.7 8.7
v -40.7 1.7 8.6
v -40.7 1.8 8.7
v -40.7 1.8 8.6
v -40.7 2 8.7
v -40.7 2 8.6
v -40.7 2.1 8.8
v -40.7 2.1 8.5
v -40.7 2.2 8.8
v -40.7 2.2 8.7
v -40.7 2.2 8.6
v -40.7 2.2 8.5
v -40.7 2.3 8.7
v -40.7 2.3 8.6
v -40.5 1.3 8.7
v -40.5 1.3 8.5
v -40.5 1.6 8.6
v -40.5 1.6 8.5
v -40.5 1.7 8.8
v -40.5 1.7 8.7
v -40.5 1.7 8.6
v -40.5 1.7 8.5
v -40.5 1.8 8.8
v -40.5 1.8 8.6
v -40.5 1.8 8.5
v -40.5 1.9 8.8
v -40.5 1.9 8.5
v -40.5 1.9 8.4
v -40.5 2 8.5
v -40.5 2 8.4
v -40.4 1.3 8.8
v -40.4 1.3 8.7
v -40.4 1.3 8.5
v -40.4 1.3 8.4
v -40.4 1.5 8.8
v -40.4 1.5 8.7
v -40.4 1.6 8.8
v -40.4 1.6 8.7
v -40.4 1.7 8.8
v -40.4 1.7 8.7
v -40.4 1.7 8.5
v -40.4 1.7 8.4
v -40.3 1.8 8.6
v -40.3 1.8 8.5
v -40.3 1.9 8.6
v -40.3 1.9 8.5
v -40.2 1.1 8.8
v -40.2 1.1 8.7
v -40.2 1.1 8.5
v -40.2 1.1 8.4
v -40.2 1.2 8.9
v -40.2 1.2 8.8
v -40.2 1.2 8.7
v -40.2 1.2 8.5
v -40.2 1.2 8.4
v -40.2 1.2 8.3
v -40.2 1.3 8.9
v -40.2 1.3 8.8
v -40.2 1.3 8.4
v -40.2 1.3 8.3
v -40.2 1.8 8.5
v -40.2 1.8 8.4
v -40.2 1.9 8.5
v -40.2 1.9 8.4
v -40.1 1.1 8.7
v -40.1 1.1 8.5
v -40.1 1.2 8.8
v -40.1 1.2 8.7
v -40.1 1.2 8.5
v -40.1 1.2 8.4
v -40.1 1.3 8.9
v -40.1 1.3 8.8
v -40.1 1.3 8.7
v -40.1 1.3 8.5
v -40.1 1.3 8.4
v -40.1 1.3 8.3
v -40.1 1.6 8.9
v -40.1 1.6 8.8
v -40.1 1.7 8.9
v -40.1 1.7 8.8
v -40.1 1.8 8.9
v -40.1 1.8 8.8
v -40.1 1.8 8.4
v -40.1 1.8 8.3
v -40 1.2 8.7
v -40 1.2 8.5
v -40 1.3 8.8
v -40 1.3 8.7
v -40 1.3 8.5
v -40 1.3 8.4
v -40 1.6 8.7
v -40 1.6 8.6
v -40 1.7 8.7
v -40 1.7 8.6
v -40 1.8 8.9
v -40 1.8 8.8
v -40 1.8 8.4
v -40 1.8 8.3
v -40 1.9 8.9
v -40 1.9 8.3
v -40.6 1.8 8.9
v -40.6 1.9 8.9
v -40.5 1.3 8.9
v -40.5 1.8 8.9
v -40.5 1.9 8.9
v -40.4 1.2 8.9
v -40.4 1.3 8.9
v -40.4 1.7 8.9
v -40.4 1.8 8.9
v -40.4 1.9 8.9
v -40.3 1.5 8.9
v -40.3 1.6 8.9
v -40.3 1.7 8.9
v -40.3 1.8 8.9
v -40.3 1.9 8.9
v -40.2 1.2 8.9
v -40.2 1.3 8.9
v -40.2 1.5 8.9
v -40.2 1.6 8.9
v -40.2 1.7 8.9
v -40.2 1.8 8.9
v -40.2 1.9 8.9
v -40.1 1.3 8.9
v -40.1 1.6 8.9
v -40.1 1.7 8.9
v -40.1 1.8 8.9
v -40 1.8 8.9
v -40 1.9 8.9
v -41 0.8 8.8
v -41 0.9 8.8
v -41 2.1 8.8
v -41 2.2 8.8
v -40.9 0.8 8.8
v -40.9 0.9 8.8
v -40.9 1 8.8
v -40.9 2 8.8
v -40.8 0.8 8.8
v -40.8 0.9 8.8
v -40.8 1 8.8
v -40.8 2 8.8
v -40.7 0.8 8.8
v -40.7 0.9 8.8
v -40.7 2.1 8.8
v -40.7 2.2 8.8
v -40.6 1.3 8.8
v -40.6 1.8 8.8
v -40.5 1.2 8.8
v -40.5 1.3 8.8
v -40.5 1.8 8.8
v -40.4 1.1 8.8
v -40.4 1.2 8.8
v -40.4 1.3 8.8
v -40.2 1.1 8.8
v -40.2 1.2 8.8
v -40.2 1.3 8.8
v -40.1 1.2 8.8
v -40.1 1.3 8.8
v -40.1 1.6 8.8
v -40.1 1.7 8.8
v -40.1 1.8 8.8
v -40 1.3 8.8
v -40 1.8 8.8
v -41 0.9 8.7
v -41 2 8.7
v -41 2.2 8.7
v -41 2.3 8.7
v -40.9 0.9 8.7
v -40.9 1 8.7
v -40.9 2 8.7
v -40.9 2.1 8.7
v -40.8 0.9 8.7
v -40.8 1 8.7
v -40.8 1.1 8.7
v -40.8 2 8.7
v -40.8 2.1 8.7
v -40.7 0.9 8.7
v -40.7 1 8.7
v -40.7 1.1 8.7
v -40.7 1.5 8.7
v -40.7 1.6 8.7
v -40.7 1.7 8.7
v -40.7 1.8 8.7
v -40.7 2 8.7
v -40.7 2.2 8.7
v -40.7 2.3 8.7
v -40.6 1.2 8.7
v -40.6 1.3 8.7
v -40.6 1.5 8.7
v -40.6 1.6 8.7
v -40.6 1.7 8.7
v -40.6 1.8 8.7
v -40.5 1.1 8.7
v -40.5 1.2 8.7
v -40.5 1.3 8.7
v -40.4 1.1 8.7
v -40.4 1.2 8.7
v -40.4 1.7 8.7
v -40.4 1.8 8.7
v -40.3 1.7 8.7
v -40.2 1.1 8.7
v -40.2 1.2 8.7
v -40.2 1.7 8.7
v -40.2 1.8 8.7
v -40.1 1.1 8.7
v -40.1 1.2 8.7
v -40.1 1.3 8.7
v -40 1.2 8.7
v -40 1.3 8.7
v -40.5 1.7 8.6
v -40.5 1.8 8.6
v -40.4 1.7 8.6
v -40.4 1.8 8.6
v -40.4 1.9 8.6
v -40.3 1.8 8.6
v -40.3 1.9 8.6
v -40.6 1.9 8.5
v -40.6 2 8.5
v -40.5 1.3 8.5
v -40.5 1.6 8.5
v -40.5 1.7 8.5
v -40.5 1.8 8.5
v -40.5 1.9 8.5
v -40.5 2 8.5
v -40.4 1.3 8.5
v -40.4 1.7 8.5
v -40.4 1.8 8.5
v -40.4 1.9 8.5
v -40.3 1.8 8.5
v -40.3 1.9 8.5
v -40.2 1.3 8.5
v -40.2 1.7 8.5
v -40.2 1.8 8.5
v -40.2 1.9 8.5
v -40.1 1.3 8.5
v -40.1 1.7 8.5
v -40.4 1.3 8.4
v -40.4 1.7 8.4
v -40.2 1.3 8.4
v -40.2 1.7 8.4
v -40.2 1.8 8.4
v -40.2 1.9 8.4
v -40.1 1.8 8.4
v -40.1 1.9 8.4
v -40.5 1.7 8.8
v -40.5 1.8 8.8
v -40.5 1.9 8.8
v -40.4 1.3 8.8
v -40.4 1.5 8.8
v -40.4 1.6 8.8
v -40.4 1.7 8.8
v -40.4 1.8 8.8
v -40.4 1.9 8.8
v -40.3 1.3 8.8
v -40.3 1.5 8.8
v -40.3 1.6 8.8
v -40.3 1.7 8.8
v -40.3 1.8 8.8
v -40.3 1.9 8.8
v -40.2 1.7 8.8
v -40.2 1.8 8.8
v -40.2 1.9 8.8
v -40.1 1.8 8.8
v -40.1 1.9 8.8
v -40.5 1.3 8.7
v -40.5 1.7 8.7
v -40.4 1.3 8.7
v -40.4 1.5 8.7
v -40.4 1.6 8.7
v -40.4 1.7 8.7
v -40.3 1.3 8.7
v -40.3 1.5 8.7
v -40.3 1.6 8.7
v -40.3 1.7 8.7
v -40.2 1.3 8.7
v -40.2 1.7 8.7
v -40.1 1.3 8.7
v -40.1 1.6 8.7
v -40.1 1.7 8.7
v -41 0.9 8.6
v -41 2 8.6
v -41 2.2 8.6
v -41 2.3 8.6
v -40.9 0.9 8.6
v -40.9 2 8.6
v -40.9 2.1 8.6
v -40.9 2.2 8.6
v -40.9 2.3 8.6
v -40.8 0.9 8.6
v -40.8 1 8.6
v -40.8 1.1 8.6
v -40.8 2 8.6
v -40.8 2.1 8.6
v -40.8 2.2 8.6
v -40.8 2.3 8.6
v -40.7 0.9 8.6
v -40.7 1 8.6
v -40.7 1.1 8.6
v -40.7 1.5 8.6
v -40.7 1.6 8.6
v -40.7 1.7 8.6
v -40.7 1.8 8.6
v -40.7 2 8.6
v -40.7 2.2 8.6
v -40.7 2.3 8.6
v -40.6 1.5 8.6
v -40.6 1.6 8.6
v -40.6 1.7 8.6
v -40.6 1.8 8.6
v -41 0.8 8.5
v -41 0.9 8.5
v -41 2.1 8.5
v -41 2.2 8.5
v -40.9 0.9 8.5
v -40.9 2 8.5
v -40.9 2.2 8.5
v -40.9 2.3 8.5
v -40.8 0.9 8.5
v -40.8 2 8.5
v -40.8 2.2 8.5
v -40.8 2.3 8.5
v -40.7 0.8 8.5
v -40.7 0.9 8.5
v -40.7 2.1 8.5
v -40.7 2.2 8.5
v -40.6 1.2 8.5
v -40.6 1.3 8.5
v -40.5 1.1 8.5
v -40.5 1.2 8.5
v -40.5 1.3 8.5
v -40.4 1.1 8.5
v -40.4 1.2 8.5
v -40.2 1.1 8.5
v -40.2 1.2 8.5
v -40.1 1.1 8.5
v -40.1 1.2 8.5
v -40.1 1.3 8.5
v -40 1.2 8.5
v -40 1.3 8.5
v -40.6 1.3 8.4
v -40.6 1.5 8.4
v -40.6 1.6 8.4
v -40.6 1.7 8.4
v -40.6 1.8 8.4
v -40.6 1.9 8.4
v -40.6 2 8.4
v -40.5 1.2 8.4
v -40.5 1.3 8.4
v -40.5 1.5 8.4
v -40.5 1.6 8.4
v -40.5 1.7 8.4
v -40.5 1.8 8.4
v -40.5 1.9 8.4
v -40.5 2 8.4
v -40.4 1.1 8.4
v -40.4 1.2 8.4
v -40.4 1.3 8.4
v -40.2 1.1 8.4
v -40.2 1.2 8.4
v -40.2 1.3 8.4
v -40.1 1.2 8.4
v -40.1 1.3 8.4
v -40.1 1.8 8.4
v -40 1.3 8.4
v -40 1.8 8.4
v -40.6 1.8 8.3
v -40.6 1.9 8.3
v -40.5 1.3 8.3
v -40.5 1.6 8.3
v -40.5 1.7 8.3
v -40.5 1.8 8.3
v -40.4 1.2 8.3
v -40.4 1.3 8.3
v -40.4 1.6 8.3
v -40.4 1.7 8.3
v -40.4 1.8 8.3
v -40.3 1.7 8.3
v -40.3 1.8 8.3
v -40.2 1.2 8.3
v -40.2 1.3 8.3
v -40.1 1.3 8.3
v -40.1 1.8 8.3
v -40 1.8 8.3
v -40 1.9 8.3
v -41 0.8 8.8
v -40.9 0.8 8.8
v -40.8 0.8 8.8
v -40.7 0.8 8.8
v -41 0.8 8.7
v -40.9 0.8 8.7
v -40.8 0.8 8.7
v -40.7 0.8 8.7
v -41 0.8 8.5
v -40.7 0.8 8.5
v -40.4 1.1 8.8
v -40.2 1.1 8.8
v -40.5 1.1 8.7
v -40.4 1.1 8.7
v -40.2 1.1 8.7
v -40.1 1.1 8.7
v -40.5 1.1 8.5
v -40.4 1.1 8.5
v -40.2 1.1 8.5
v -40.1 1.1 8.5
v -40.4 1.1 8.4
v -40.2 1.1 8.4
v -40.4 1.2 8.9
v -40.2 1.2 8.9
v -40.5 1.2 8.8
v -40.4 1.2 8.8
v -40.2 1.2 8.8
v -40.1 1.2 8.8
v -40.6 1.2 8.7
v -40.5 1.2 8.7
v -40.4 1.2 8.7
v -40.2 1.2 8.7
v -40.1 1.2 8.7
v -40 1.2 8.7
v -40.6 1.2 8.5
v -40.5 1.2 8.5
v -40.4 1.2 8.5
v -40.2 1.2 8.5
v -40.1 1.2 8.5
v -40 1.2 8.5
v -40.5 1.2 8.4
v -40.4 1.2 8.4
v -40.2 1.2 8.4
v -40.1 1.2 8.4
v -40.4 1.2 8.3
v -40.2 1.2 8.3
v -40.5 1.3 8.9
v -40.4 1.3 8.9
v -40.2 1.3 8.9
v -40.1 1.3 8.9
v -40.6 1.3 8.8
v -40.5 1.3 8.8
v -40.4 1.3 8.8
v -40.2 1.3 8.8
v -40.1 1.3 8.8
v -40 1.3 8.8
v -40.6 1.3 8.7
v -40.5 1.3 8.7
v -40.1 1.3 8.7
v -40 1.3 8.7
v -40.6 1.3 8.5
v -40.5 1.3 8.5
v -40.1 1.3 8.5
v -40 1.3 8.5
v -40.6 1.3 8.4
v -40.5 1.3 8.4
v -40.4 1.3 8.4
v -40.2 1.3 8.4
v -40.1 1.3 8.4
v -40 1.3 8.4
v -40.5 1.3 8.3
v -40.4 1.3 8.3
v -40.2 1.3 8.3
v -40.1 1.3 8.3
v -40.4 1.5 8.8
v -40.3 1.5 8.8
v -40.7 1.5 8.7
v -40.6 1.5 8.7
v -40.4 1.5 8.7
v -40.3 1.5 8.7
v -40.7 1.5 8.6
v -40.6 1.5 8.6
v -40.7 1.7 8.7
v -40.6 1.7 8.7
v -40.4 1.7 8.7
v -40.3 1.7 8.7
v -40.2 1.7 8.7
v -40.1 1.7 8.7
v -40.7 1.7 8.6
v -40.6 1.7 8.6
v -40.5 1.7 8.6
v -40.4 1.7 8.6
v -40.2 1.7 8.6
v -40.1 1.7 8.6
v -40.5 1.7 8.5
v -40.4 1.7 8.5
v -40.2 1.7 8.5
v -40.1 1.7 8.5
v -40.4 1.7 8.4
v -40.2 1.7 8.4
v -40.6 1.8 8.9
v -40.5 1.8 8.9
v -40.1 1.8 8.9
v -40 1.8 8.9
v -40.6 1.8 8.8
v -40.5 1.8 8.8
v -40.1 1.8 8.8
v -40 1.8 8.8
v -40.6 1.8 8.4
v -40.5 1.8 8.4
v -40.1 1.8 8.4
v -40 1.8 8.4
v -40.6 1.8 8.3
v -40.5 1.8 8.3
v -40.1 1.8 8.3
v -40 1.8 8.3
v -41 2.1 8.8
v -40.7 2.1 8.8
v -40.9 2.1 8.7
v -40.8 2.1 8.7
v -40.9 2.1 8.6
v -40.8 2.1 8.6
v -41 2.1 8.5
v -40.7 2.1 8.5
v -41 0.9 8.8
v -40.9 0.9 8.8
v -40.8 0.9 8.8
v -40.7 0.9 8.8
v -41 0.9 8.7
v -40.9 0.9 8.7
v -40.8 0.9 8.7
v -40.7 0.9 8.7
v -41 0.9 8.6
v -40.9 0.9 8.6
v -40.8 0.9 8.6
v -40.7 0.9 8.6
v -41 0.9 8.5
v -40.9 0.9 8.5
v -40.8 0.9 8.5
v -40.7 0.9 8.5
v -40.4 1.3 8.8
v -40.3 1.3 8.8
v -40.5 1.3 8.7
v -40.4 1.3 8.7
v -40.3 1.3 8.7
v -40.2 1.3 8.7
v -40.1 1.3 8.7
v -40.5 1.3 8.5
v -40.4 1.3 8.5
v -40.2 1.3 8.5
v -40.1 1.3 8.5
v -40.4 1.3 8.4
v -40.2 1.3 8.4
v -40.4 1.6 8.8
v -40.3 1.6 8.8
v -40.7 1.6 8.7
v -40.6 1.6 8.7
v -40.4 1.6 8.7
v -40.3 1.6 8.7
v -40.7 1.6 8.6
v -40.6 1.6 8.6
v -40.5 1.7 8.8
v -40.4 1.7 8.8
v -40.3 1.7 8.8
v -40.2 1.7 8.8
v -40.5 1.7 8.7
v -40.4 1.7 8.7
v -40.3 1.7 8.7
v -40.2 1.7 8.7
v -40.2 1.8 8.8
v -40.1 1.8 8.8
v -40.7 1.8 8.7
v -40.6 1.8 8.7
v -40.4 1.8 8.7
v -40.2 1.8 8.7
v -40.7 1.8 8.6
v -40.6 1.8 8.6
v -40.5 1.8 8.6
v -40.4 1.8 8.6
v -40.3 1.8 8.6
v -40.2 1.8 8.6
v -40.1 1.8 8.6
v -40.5 1.8 8.5
v -40.4 1.8 8.5
v -40.3 1.8 8.5
v -40.2 1.8 8.5
v -40.1 1.8 8.5
v -40.2 1.8 8.4
v -40.1 1.8 8.4
v -40.6 1.9 8.9
v -40.5 1.9 8.9
v -40.4 1.9 8.9
v -40.3 1.9 8.9
v -40.2 1.9 8.9
v -40 1.9 8.9
v -40.5 1.9 8.8
v -40.4 1.9 8.8
v -40.3 1.9 8.8
v -40.2 1.9 8.8
v -40.1 1.9 8.8
v -40.4 1.9 8.6
v -40.3 1.9 8.6
v -40.6 1.9 8.5
v -40.5 1.9 8.5
v -40.4 1.9 8.5
v -40.3 1.9 8.5
v -40.2 1.9 8.5
v -40.6 1.9 8.4
v -40.5 1.9 8.4
v -40.2 1.9 8.4
v -40.1 1.9 8.4
v -40.6 1.9 8.3
v -40 1.9 8.3
v -40.9 2 8.8
v -40.8 2 8.8
v -41 2 8.7
v -40.9 2 8.7
v -40.8 2 8.7
v -40.7 2 8.7
v -41 2 8.6
v -40.9 2 8.6
v -40.8 2 8.6
v -40.7 2 8.6
v -40.9 2 8.5
v -40.8 2 8.5
v -40.6 2 8.5
v -40.5 2 8.5
v -40.6 2 8.4
v -40.5 2 8.4
v -41 2.2 8.8
v -40.7 2.2 8.8
v -41 2.2 8.7
v -40.7 2.2 8.7
v -41 2.2 8.6
v -40.9 2.2 8.6
v -40.8 2.2 8.6
v -40.7 2.2 8.6
v -41 2.2 8.5
v -40.9 2.2 8.5
v -40.8 2.2 8.5
v -40.7 2.2 8.5
v -41 2.3 8.7
v -40.7 2.3 8.7
v -41 2.3 8.6
v -40.9 2.3 8.6
v -40.8 2.3 8.6
v -40.7 2.3 8.6
v -40.9 2.3 8.5
v -40.8 2.3 8.5

# faces
f 4/6/1 2/6/1 1/6/1
f 5/5/1 3/5/1 2/5/1
f 5/6/1 2/6/1 4/6/1
f 6/5/1 3/5/1 5/5/1
f 7/5/1 3/5/1 6/5/1
f 8/5/1 6/5/1 5/5/1
f 9/5/1 6/5/1 8/5/1
f 12/5/1 11/5/1 10/5/1
f 13/5/1 11/5/1 12/5/1
f 14/5/1 11/5/1 13/5/1
f 15/5/1 11/5/1 14/5/1
f 16/5/1 14/5/1 13/5/1
f 17/5/1 14/5/1 16/5/1
f 22/6/1 19/6/1 18/6/1
f 23/6/1 19/6/1 22/6/1
f 24/5/1 23/5/1 22/5/1
f 25/5/1 23/5/1 24/5/1
f 26/5/1 21/5/1 20/5/1
f 27/5/1 21/5/1 26/5/1
f 28/5/1 26/5/1 25/5/1
f 29/5/1 26/5/1 28/5/1
f 32/5/1 31/5/1 30/5/1
f 33/5/1 31/5/1 32/5/1
f 37/5/1 35/5/1 34/5/1
f 38/5/1 35/5/1 37/5/1
f 40/5/1 37/5/1 36/5/1
f 40/5/1 39/5/1 38/5/1
f 40/5/1 38/5/1 37/5/1
f 41/5/1 39/5/1 40/5/1
f 42/5/1 39/5/1 41/5/1
f 43/5/1 39/5/1 42/5/1
f 44/5/1 40/5/1 36/5/1
f 45/5/1 42/5/1 41/5/1
f 46/6/1 43/6/1 42/6/1
f 46/5/1 42/5/1 45/5/1
f 47/6/1 43/6/1 46/6/1
f 48/5/1 45/5/1 44/5/1
f 48/5/1 44/5/1 36/5/1
f 49/6/1 46/6/1 45/6/1
f 49/5/1 45/5/1 48/5/1
f 50/5/1 47/5/1 46/5/1
f 50/6/1 46/6/1 49/6/1
f 51/5/1 47/5/1 50/5/1
f 53/5/1 48/5/1 36/5/1
f 54/5/1 48/5/1 53/5/1
f 55/5/1 50/5/1 49/5/1
f 56/6/1 51/6/1 50/6/1
f 56/5/1 50/5/1 55/5/1
f 57/6/1 51/6/1 56/6/1
f 59/5/1 57/5/1 56/5/1
f 59/5/1 58/5/1 57/5/1
f 59/5/1 53/5/1 52/5/1
f 59/5/1 56/5/1 55/5/1
f 59/5/1 54/5/1 53/5/1
f 59/5/1 55/5/1 54/5/1
f 60/5/1 58/5/1 59/5/1
f 61/5/1 58/5/1 60/5/1
f 62/5/1 58/5/1 61/5/1
f 63/1/1 61/1/1 60/1/1
f 64/1/1 61/1/1 63/1/1
f 68/5/1 66/5/1 65/5/1
f 69/5/1 66/5/1 68/5/1
f 72/5/1 68/5/1 67/5/1
f 73/5/1 68/5/1 72/5/1
f 74/5/1 70/5/1 69/5/1
f 75/5/1 70/5/1 74/5/1
f 77/5/1 76/5/1 75/5/1
f 78/5/1 76/5/1 77/5/1
f 79/5/1 76/5/1 78/5/1
f 80/6/1 79/6/1 78/6/1
f 81/6/1 79/6/1 80/6/1
f 82/5/1 72/5/1 71/5/1
f 83/5/1 72/5/1 82/5/1
f 84/5/1 81/5/1 80/5/1
f 85/5/1 81/5/1 84/5/1
f 91/5/1 87/5/1 86/5/1
f 92/5/1 87/5/1 91/5/1
f 93/5/1 89/5/1 88/5/1
f 94/5/1 89/5/1 93/5/1
f 96/5/1 91/5/1 90/5/1
f 97/5/1 91/5/1 96/5/1
f 98/5/1 95/5/1 94/5/1
f 99/5/1 95/5/1 98/5/1
f 102/2/1 101/2/1 100/2/1
f 103/2/1 101/2/1 102/2/1
f 105/1/1 104/1/1 103/1/1
f 106/1/1 104/1/1 105/1/1
f 109/4/1 108/4/1 107/4/1
f 110/4/1 108/4/1 109/4/1
f 113/4/1 112/4/1 111/4/1
f 114/4/1 112/4/1 113/4/1
f 119/5/1 116/5/1 115/5/1
f 120/5/1 116/5/1 119/5/1
f 121/4/1 118/4/1 117/4/1
f 122/4/1 118/4/1 121/4/1
f 125/5/1 124/5/1 123/5/1
f 126/5/1 124/5/1 125/5/1
f 127/6/1 126/6/1 125/6/1
f 128/5/1 124/5/1 126/5/1
f 128/6/1 126/6/1 127/6/1
f 129/5/1 124/5/1 128/5/1
f 134/5/1 132/5/1 131/5/1
f 134/5/1 133/5/1 132/5/1
f 134/5/1 131/5/1 130/5/1
f 135/5/1 133/5/1 134/5/1
f 136/6/2 137/6/2 140/6/2
f 140/6/2 137/6/2 141/6/2
f 138/5/2 139/5/2 142/5/2
f 140/5/2 141/5/2 143/5/2
f 142/5/2 139/5/2 144/5/2
f 140/5/2 143/5/2 145/5/2
f 145/5/2 143/5/2 146/5/2
f 144/5/2 139/5/2 147/5/2
f 147/5/2 139/5/2 148/5/2
f 146/5/2 147/5/2 149/5/2
f 149/5/2 147/5/2 150/5/2
f 151/5/2 152/5/2 153/5/2
f 153/5/2 152/5/2 154/5/2
f 155/6/2 156/6/2 158/6/2
f 156/5/2 157/5/2 159/5/2
f 158/6/2 156/6/2 159/6/2
f 159/5/2 157/5/2 160/5/2
f 160/5/2 157/5/2 161/5/2
f 159/5/2 160/5/2 162/5/2
f 162/5/2 160/5/2 163/5/2
f 162/6/2 163/6/2 164/6/2
f 164/6/2 163/6/2 165/6/2
f 164/5/2 165/5/2 166/5/2
f 166/5/2 165/5/2 167/5/2
f 168/5/2 169/5/2 170/5/2
f 170/5/2 169/5/2 171/5/2
f 172/5/2 173/5/2 174/5/2
f 174/5/2 173/5/2 175/5/2
f 176/5/2 177/5/2 178/5/2
f 178/5/2 177/5/2 179/5/2
f 179/5/2 177/5/2 180/5/2
f 180/5/2 177/5/2 181/5/2
f 179/5/2 180/5/2 182/5/2
f 182/5/2 180/5/2 183/5/2
f 184/5/2 185/5/2 186/5/2
f 186/5/2 185/5/2 187/5/2
f 184/5/2 186/5/2 189/5/2
f 186/6/2 187/6/2 190/6/2
f 189/5/2 186/5/2 190/5/2
f 190/6/2 187/6/2 191/6/2
f 188/5/2 189/5/2 192/5/2
f 189/5/2 190/5/2 192/5/2
f 192/5/2 190/5/2 193/5/2
f 192/5/2 193/5/2 195/5/2
f 193/5/2 194/5/2 195/5/2
f 195/5/2 194/5/2 196/5/2
f 196/1/2 197/1/2 198/1/2
f 198/1/2 197/1/2 199/1/2
f 200/5/2 201/5/2 204/5/2
f 204/5/2 201/5/2 205/5/2
f 206/5/2 207/5/2 208/5/2
f 208/5/2 207/5/2 209/5/2
f 202/5/2 203/5/2 210/5/2
f 210/5/2 203/5/2 211/5/2
f 212/1/2 213/1/2 214/1/2
f 214/1/2 213/1/2 215/1/2
f 216/5/2 217/5/2 221/5/2
f 221/5/2 217/5/2 222/5/2
f 218/5/2 219/5/2 223/5/2
f 223/5/2 219/5/2 224/5/2
f 220/5/2 221/5/2 226/5/2
f 226/5/2 221/5/2 227/5/2
f 224/5/2 225/5/2 228/5/2
f 228/5/2 225/5/2 229/5/2
f 230/1/2 231/1/2 232/1/2
f 232/1/2 231/1/2 233/1/2
f 234/5/2 235/5/2 237/5/2
f 237/5/2 235/5/2 238/5/2
f 236/5/2 237/5/2 241/5/2
f 241/5/2 237/5/2 242/5/2
f 238/5/2 239/5/2 243/5/2
f 243/5/2 239/5/2 244/5/2
f 240/5/2 241/5/2 246/5/2
f 246/5/2 241/5/2 247/5/2
f 246/3/2 247/3/2 248/3/2
f 248/3/2 247/3/2 249/3/2
f 248/5/2 249/5/2 250/5/2
f 250/5/2 249/5/2 251/5/2
f 244/5/2 245/5/2 252/5/2
f 252/5/2 245/5/2 253/5/2
f 254/5/2 255/5/2 257/5/2
f 257/5/2 255/5/2 258/5/2
f 256/5/2 257/5/2 260/5/2
f 258/5/2 259/5/2 260/5/2
f 257/5/2 258/5/2 260/5/2
f 260/5/2 259/5/2 261/5/2
f 256/5/2 260/5/2 262/5/2
f 260/6/2 261/6/2 262/6/2
f 261/5/2 259/5/2 263/5/2
f 262/6/2 261/6/2 263/6/2
f 256/5/2 262/5/2 265/5/2
f 262/5/2 263/5/2 265/5/2
f 263/5/2 259/5/2 266/5/2
f 265/5/2 263/5/2 266/5/2
f 264/5/2 265/5/2 268/5/2
f 266/5/2 267/5/2 268/5/2
f 265/5/2 266/5/2 268/5/2
f 268/5/2 267/5/2 269/5/2
f 273/5/3 271/5/3 270/5/3
f 274/5/3 271/5/3 273/5/3
f 276/5/3 273/5/3 272/5/3
f 277/5/3 273/5/3 276/5/3
f 278/6/3 274/6/3 273/6/3
f 278/5/3 273/5/3 277/5/3
f 279/6/3 274/6/3 278/6/3
f 280/5/3 277/5/3 276/5/3
f 280/5/3 276/5/3 275/5/3
f 281/5/3 277/5/3 280/5/3
f 282/6/3 278/6/3 277/6/3
f 282/5/3 277/5/3 281/5/3
f 283/5/3 279/5/3 278/5/3
f 283/6/3 278/6/3 282/6/3
f 284/5/3 279/5/3 283/5/3
f 285/5/3 280/5/3 275/5/3
f 286/5/3 280/5/3 285/5/3
f 287/3/3 281/3/3 280/3/3
f 287/5/3 280/5/3 286/5/3
f 288/5/3 282/5/3 281/5/3
f 288/3/3 281/3/3 287/3/3
f 288/5/3 283/5/3 282/5/3
f 289/5/3 283/5/3 288/5/3
f 290/6/3 284/6/3 283/6/3
f 290/5/3 283/5/3 289/5/3
f 291/6/3 284/6/3 290/6/3
f 292/5/3 287/5/3 286/5/3
f 292/5/3 288/5/3 287/5/3
f 293/3/3 289/3/3 288/3/3
f 293/5/3 288/5/3 292/5/3
f 294/5/3 291/5/3 290/5/3
f 294/3/3 289/3/3 293/3/3
f 294/5/3 290/5/3 289/5/3
f 295/5/3 291/5/3 294/5/3
f 296/5/3 291/5/3 295/5/3
f 297/5/3 291/5/3 296/5/3
f 302/6/3 299/6/3 298/6/3
f 303/6/3 299/6/3 302/6/3
f 306/5/3 303/5/3 302/5/3
f 307/6/3 304/6/3 303/6/3
f 307/5/3 303/5/3 306/5/3
f 308/5/3 305/5/3 304/5/3
f 308/6/3 304/6/3 307/6/3
f 309/5/3 305/5/3 308/5/3
f 310/6/3 307/6/3 306/6/3
f 311/6/3 307/6/3 310/6/3
f 312/5/3 301/5/3 300/5/3
f 313/5/3 301/5/3 312/5/3
f 317/5/3 315/5/3 314/5/3
f 318/5/3 315/5/3 317/5/3
f 320/5/3 317/5/3 316/5/3
f 321/5/3 317/5/3 320/5/3
f 322/5/3 320/5/3 319/5/3
f 323/5/3 320/5/3 322/5/3
f 325/5/3 324/5/3 323/5/3
f 326/5/3 324/5/3 325/5/3
f 330/5/3 329/5/3 328/5/3
f 330/5/3 328/5/3 327/5/3
f 330/5/3 327/5/3 326/5/3
f 331/5/3 329/5/3 330/5/3
f 336/5/3 333/5/3 332/5/3
f 337/5/3 333/5/3 336/5/3
f 338/5/3 333/5/3 337/5/3
f 343/5/3 339/5/3 338/5/3
f 344/5/3 339/5/3 343/5/3
f 345/5/3 341/5/3 340/5/3
f 346/6/3 342/6/3 341/6/3
f 346/5/3 341/5/3 345/5/3
f 347/5/3 343/5/3 342/5/3
f 347/6/3 342/6/3 346/6/3
f 348/5/3 343/5/3 347/5/3
f 349/5/3 343/5/3 348/5/3
f 350/5/3 343/5/3 349/5/3
f 351/5/3 343/5/3 350/5/3
f 352/5/3 343/5/3 351/5/3
f 353/5/3 335/5/3 334/5/3
f 354/5/3 335/5/3 353/5/3
f 357/5/3 349/5/3 348/5/3
f 358/5/3 349/5/3 357/5/3
f 359/5/3 351/5/3 350/5/3
f 360/5/3 351/5/3 359/5/3
f 362/5/3 356/5/3 355/5/3
f 363/5/3 356/5/3 362/5/3
f 364/5/3 362/5/3 361/5/3
f 365/5/3 362/5/3 364/5/3
f 368/2/3 367/2/3 366/2/3
f 371/2/3 367/2/3 368/2/3
f 372/2/3 367/2/3 371/2/3
f 373/5/3 370/5/3 369/5/3
f 374/5/3 370/5/3 373/5/3
f 376/5/3 375/5/3 374/5/3
f 377/5/3 375/5/3 376/5/3
f 380/2/3 379/2/3 378/2/3
f 381/2/3 379/2/3 380/2/3
f 383/1/3 382/1/3 381/1/3
f 384/1/3 382/1/3 383/1/3
f 391/1/3 386/1/3 385/1/3
f 392/1/3 386/1/3 391/1/3
f 393/5/3 389/5/3 388/5/3
f 393/5/3 388/5/3 387/5/3
f 394/5/3 389/5/3 393/5/3
f 395/1/3 391/1/3 390/1/3
f 396/1/3 391/1/3 395/1/3
f 401/1/3 398/1/3 397/1/3
f 402/1/3 398/1/3 401/1/3
f 403/5/3 400/5/3 399/5/3
f 404/5/3 400/5/3 403/5/3
f 407/5/3 406/5/3 405/5/3
f 408/5/3 406/5/3 407/5/3
f 411/5/3 410/5/3 409/5/3
f 412/5/3 410/5/3 411/5/3
f 413/5/4 414/5/4 419/5/4
f 414/6/4 415/6/4 420/6/4
f 419/5/4 414/5/4 420/5/4
f 420/6/4 415/6/4 421/6/4
f 416/5/4 417/5/4 422/5/4
f 422/5/4 417/5/4 423/5/4
f 418/5/4 419/5/4 424/5/4
f 419/6/4 420/6/4 425/6/4
f 424/5/4 419/5/4 425/5/4
f 420/5/4 421/5/4 426/5/4
f 425/6/4 420/6/4 426/6/4
f 426/5/4 421/5/4 427/5/4
f 425/5/4 426/5/4 428/5/4
f 426/6/4 427/6/4 429/6/4
f 428/5/4 426/5/4 429/5/4
f 429/6/4 427/6/4 430/6/4
f 429/5/4 430/5/4 431/5/4
f 431/5/4 430/5/4 432/5/4
f 433/5/4 434/5/4 435/5/4
f 435/5/4 434/5/4 436/5/4
f 436/5/4 434/5/4 437/5/4
f 437/5/4 434/5/4 438/5/4
f 436/4/4 437/4/4 440/4/4
f 440/4/4 437/4/4 441/4/4
f 439/4/4 440/4/4 443/4/4
f 441/4/4 442/4/4 443/4/4
f 440/4/4 441/4/4 443/4/4
f 443/4/4 442/4/4 444/4/4
f 443/5/4 444/5/4 445/5/4
f 445/5/4 444/5/4 446/5/4
f 446/5/4 444/5/4 447/5/4
f 448/5/4 449/5/4 452/5/4
f 452/5/4 449/5/4 453/5/4
f 450/5/4 451/5/4 455/5/4
f 455/5/4 451/5/4 456/5/4
f 453/5/4 454/5/4 460/5/4
f 460/5/4 454/5/4 461/5/4
f 457/5/4 458/5/4 464/5/4
f 458/6/4 459/6/4 465/6/4
f 464/5/4 458/5/4 465/5/4
f 459/5/4 460/5/4 466/5/4
f 465/6/4 459/6/4 466/6/4
f 466/5/4 460/5/4 467/5/4
f 467/5/4 460/5/4 468/5/4
f 468/5/4 460/5/4 469/5/4
f 469/5/4 460/5/4 470/5/4
f 470/5/4 460/5/4 471/5/4
f 462/5/4 463/5/4 472/5/4
f 472/5/4 463/5/4 473/5/4
f 467/5/4 468/5/4 474/5/4
f 474/5/4 468/5/4 475/5/4
f 469/5/4 470/5/4 476/5/4
f 476/5/4 470/5/4 477/5/4
f 478/5/4 479/5/4 482/5/4
f 480/5/4 481/5/4 484/5/4
f 482/5/4 483/5/4 486/5/4
f 478/5/4 482/5/4 486/5/4
f 486/5/4 483/5/4 487/5/4
f 484/5/4 485/5/4 488/5/4
f 480/5/4 484/5/4 488/5/4
f 488/5/4 485/5/4 489/5/4
f 478/5/4 486/5/4 490/5/4
f 490/5/4 486/5/4 491/5/4
f 480/5/4 488/5/4 492/5/4
f 492/5/4 488/5/4 493/5/4
f 494/5/4 495/5/4 497/5/4
f 497/5/4 495/5/4 498/5/4
f 496/5/4 497/5/4 499/5/4
f 499/5/4 497/5/4 500/5/4
f 501/5/4 502/5/4 503/5/4
f 503/5/4 502/5/4 504/5/4
f 504/5/4 505/5/4 506/5/4
f 506/5/4 505/5/4 507/5/4
f 508/5/4 509/5/4 516/5/4
f 509/6/4 510/6/4 517/6/4
f 516/5/4 509/5/4 517/5/4
f 510/5/4 511/5/4 518/5/4
f 517/6/4 510/6/4 518/6/4
f 511/6/4 512/6/4 519/6/4
f 518/5/4 511/5/4 519/5/4
f 519/6/4 512/6/4 520/6/4
f 513/1/4 514/1/4 521/1/4
f 521/1/4 514/1/4 522/1/4
f 515/5/4 516/5/4 524/5/4
f 524/5/4 516/5/4 525/5/4
f 523/5/4 524/5/4 526/5/4
f 526/5/4 524/5/4 527/5/4
f 527/5/4 528/5/4 529/5/4
f 529/5/4 528/5/4 530/5/4
f 530/5/4 531/5/4 532/5/4
f 532/5/4 531/5/4 533/5/4
f 534/5/4 535/5/4 539/5/4
f 536/5/4 537/5/4 541/5/4
f 537/6/4 538/6/4 542/6/4
f 541/5/4 537/5/4 542/5/4
f 538/5/4 539/5/4 543/5/4
f 542/6/4 538/6/4 543/6/4
f 539/5/4 535/5/4 544/5/4
f 543/5/4 539/5/4 544/5/4
f 540/5/4 541/5/4 545/5/4
f 541/5/4 542/5/4 545/5/4
f 543/6/4 544/6/4 545/6/4
f 542/5/4 543/5/4 545/5/4
f 544/5/4 535/5/4 546/5/4
f 545/6/4 544/6/4 546/6/4
f 540/5/4 545/5/4 547/5/4
f 545/5/4 546/5/4 547/5/4
f 547/5/4 546/5/4 548/5/4
f 548/5/4 546/5/4 549/5/4
f 546/5/4 535/5/4 550/5/4
f 549/5/4 546/5/4 550/5/4
f 550/5/4 535/5/4 551/5/4
f 551/5/4 535/5/4 552/5/4
f 557/6/5 554/6/5 553/6/5
f 558/5/5 555/5/5 554/5/5
f 558/6/5 554/6/5 557/6/5
f 559/6/5 556/6/5 555/6/5
f 559/5/5 555/5/5 558/5/5
f 560/6/5 556/6/5 559/6/5
f 561/5/5 558/5/5 557/5/5
f 561/5/5 559/5/5 558/5/5
f 561/5/5 560/5/5 559/5/5
f 562/5/5 560/5/5 561/5/5
f 566/5/5 564/5/5 563/5/5
f 567/5/5 564/5/5 566/5/5
f 569/5/5 566/5/5 565/5/5
f 569/5/5 568/5/5 567/5/5
f 569/5/5 567/5/5 566/5/5
f 570/5/5 568/5/5 569/5/5
f 571/5/5 568/5/5 570/5/5
f 572/5/5 568/5/5 571/5/5
f 573/5/5 571/5/5 570/5/5
f 574/5/5 571/5/5 573/5/5
f 578/5/5 576/5/5 575/5/5
f 579/5/5 576/5/5 578/5/5
f 582/5/5 578/5/5 577/5/5
f 583/5/5 578/5/5 582/5/5
f 584/5/5 580/5/5 579/5/5
f 585/5/5 580/5/5 584/5/5
f 587/5/5 582/5/5 581/5/5
f 588/5/5 582/5/5 587/5/5
f 591/5/5 586/5/5 585/5/5
f 592/5/5 586/5/5 591/5/5
f 593/5/5 589/5/5 588/5/5
f 594/5/5 589/5/5 593/5/5
f 595/5/5 591/5/5 590/5/5
f 596/5/5 591/5/5 595/5/5
f 597/5/5 595/5/5 594/5/5
f 598/5/5 595/5/5 597/5/5
f 604/5/5 600/5/5 599/5/5
f 605/5/5 600/5/5 604/5/5
f 606/5/5 602/5/5 601/5/5
f 607/5/5 602/5/5 606/5/5
f 609/5/5 604/5/5 603/5/5
f 610/5/5 604/5/5 609/5/5
f 611/5/5 608/5/5 607/5/5
f 612/5/5 608/5/5 611/5/5
f 617/5/5 614/5/5 613/5/5
f 618/5/5 614/5/5 617/5/5
f 621/5/5 616/5/5 615/5/5
f 622/5/5 616/5/5 621/5/5
f 623/5/5 619/5/5 618/5/5
f 624/5/5 619/5/5 623/5/5
f 625/5/5 621/5/5 620/5/5
f 626/5/5 621/5/5 625/5/5
f 631/4/5 628/4/5 627/4/5
f 632/4/5 628/4/5 631/4/5
f 633/5/5 630/5/5 629/5/5
f 634/5/5 630/5/5 633/5/5
f 641/5/5 636/5/5 635/5/5
f 642/5/5 636/5/5 641/5/5
f 644/2/5 638/2/5 637/2/5
f 644/2/5 639/2/5 638/2/5
f 645/4/5 640/4/5 639/4/5
f 645/2/5 639/2/5 644/2/5
f 646/4/5 640/4/5 645/4/5
f 647/2/5 644/2/5 643/2/5
f 647/2/5 646/2/5 645/2/5
f 647/2/5 645/2/5 644/2/5
f 648/2/5 646/2/5 647/2/5
f 649/2/5 646/2/5 648/2/5
f 650/2/5 646/2/5 649/2/5
f 651/1/5 649/1/5 648/1/5
f 652/1/5 649/1/5 651/1/5
f 657/5/5 654/5/5 653/5/5
f 658/5/5 654/5/5 657/5/5
f 659/5/5 656/5/5 655/5/5
f 660/5/5 656/5/5 659/5/5
f 665/5/5 662/5/5 661/5/5
f 666/5/5 662/5/5 665/5/5
f 667/5/5 664/5/5 663/5/5
f 668/5/5 664/5/5 667/5/5
f 671/5/5 670/5/5 669/5/5
f 672/5/5 670/5/5 671/5/5
f 673/5/5 671/5/5 669/5/5
f 674/5/5 670/5/5 672/5/5
f 675/5/5 673/5/5 669/5/5
f 675/5/5 674/5/5 673/5/5
f 676/5/5 670/5/5 674/5/5
f 676/5/5 674/5/5 675/5/5
f 677/6/6 678/6/6 681/6/6
f 681/6/6 678/6/6 682/6/6
f 679/6/6 680/6/6 683/6/6
f 683/6/6 680/6/6 684/6/6
f 685/5/6 686/5/6 689/5/6
f 689/5/6 686/5/6 690/5/6
f 687/5/6 688/5/6 691/5/6
f 691/5/6 688/5/6 692/5/6
f 693/5/6 694/5/6 696/5/6
f 696/5/6 694/5/6 697/5/6
f 695/5/6 696/5/6 700/5/6
f 698/5/6 699/5/6 700/5/6
f 697/5/6 698/5/6 700/5/6
f 696/5/6 697/5/6 700/5/6
f 700/5/6 699/5/6 701/5/6
f 701/5/6 699/5/6 702/5/6
f 702/5/6 699/5/6 703/5/6
f 701/5/6 702/5/6 704/5/6
f 704/5/6 702/5/6 705/5/6
f 706/4/6 707/4/6 710/4/6
f 710/4/6 707/4/6 711/4/6
f 708/5/6 709/5/6 712/5/6
f 712/5/6 709/5/6 713/5/6
f 714/5/6 715/5/6 718/5/6
f 718/5/6 715/5/6 719/5/6
f 716/4/6 717/4/6 720/4/6
f 720/4/6 717/4/6 721/4/6
f 722/4/6 723/4/6 727/4/6
f 724/5/6 725/5/6 728/5/6
f 728/5/6 725/5/6 729/5/6
f 726/2/6 727/2/6 731/2/6
f 731/2/6 727/2/6 732/2/6
f 727/4/6 723/4/6 733/4/6
f 732/2/6 727/2/6 733/2/6
f 733/4/6 723/4/6 734/4/6
f 730/2/6 731/2/6 735/2/6
f 735/2/6 731/2/6 736/2/6
f 733/2/6 734/2/6 737/2/6
f 732/2/6 733/2/6 737/2/6
f 737/2/6 734/2/6 738/2/6
f 738/2/6 734/2/6 739/2/6
f 738/1/6 739/1/6 740/1/6
f 740/1/6 739/1/6 741/1/6
f 742/5/6 743/5/6 748/5/6
f 743/6/6 744/6/6 748/6/6
f 744/5/6 745/5/6 749/5/6
f 748/6/6 744/6/6 749/6/6
f 745/6/6 746/6/6 750/6/6
f 749/5/6 745/5/6 750/5/6
f 746/5/6 747/5/6 751/5/6
f 750/6/6 746/6/6 751/6/6
f 751/5/6 747/5/6 752/5/6
f 742/5/6 748/5/6 755/5/6
f 755/5/6 748/5/6 756/5/6
f 753/1/6 754/1/6 757/1/6
f 757/1/6 754/1/6 758/1/6
f 758/1/6 759/1/6 761/1/6
f 757/1/6 758/1/6 761/1/6
f 756/1/6 757/1/6 761/1/6
f 761/1/6 759/1/6 762/1/6
f 752/5/6 747/5/6 763/5/6
f 761/5/6 762/5/6 764/5/6
f 762/5/6 763/5/6 764/5/6
f 760/5/6 761/5/6 764/5/6
f 763/5/6 747/5/6 765/5/6
f 764/5/6 763/5/6 765/5/6
f 766/5/6 767/5/6 769/5/6
f 769/5/6 767/5/6 770/5/6
f 768/5/6 769/5/6 772/5/6
f 772/5/6 769/5/6 773/5/6
f 770/5/6 771/5/6 774/5/6
f 774/5/6 771/5/6 775/5/6
f 773/5/6 774/5/6 776/5/6
f 776/5/6 774/5/6 777/5/6
f 778/1/6 779/1/6 780/1/6
f 780/1/6 779/1/6 781/1/6
f 782/5/6 783/5/6 784/5/6
f 784/5/6 783/5/6 785/5/6
f 786/5/6 787/5/6 790/5/6
f 790/5/6 787/5/6 791/5/6
f 788/5/6 789/5/6 792/5/6
f 792/5/6 789/5/6 793/5/6
f 794/5/6 795/5/6 796/5/6
f 796/5/6 795/5/6 797/5/6
f 797/5/6 795/5/6 798/5/6
f 798/5/6 795/5/6 799/5/6
f 797/5/6 798/5/6 800/5/6
f 800/5/6 798/5/6 801/5/6
