# MagicaVoxel @ Ephtracy

# group
o 

# material
mtllib drzewko-17.mtl
usemtl palette

# normals
vn -1 0 0
vn 1 0 0
vn 0 0 1
vn 0 0 -1
vn 0 -1 0
vn 0 1 0

# texcoords
vt 0.537109 0.5
vt 0.658203 0.5
vt 0.783203 0.5
vt 0.994141 0.5

# verts
v -51.2 4 2.6
v -51.2 4 2.5
v -51.2 4.9 2.6
v -51.2 4.9 2.5
v -51.2 5.1 2.6
v -51.2 5.1 2.5
v -51.1 3.9 2.6
v -51.1 3.9 2.5
v -51.1 4 2.6
v -51.1 4 2.5
v -51.1 4 2.4
v -51.1 4.9 2.5
v -51.1 5.1 2.6
v -51.1 5.1 2.5
v -51.1 5.1 2.4
v -51.1 5.2 2.6
v -51.1 5.2 2.5
v -50.5 4.4 2.6
v -50.5 4.4 2.5
v -50.5 4.5 2.6
v -50.5 4.5 2.5
v -50.6 4.4 2.6
v -50.6 4.4 2.5
v -50.6 4.5 2.6
v -50.6 4.5 2.5
v -50 3.9 2.6
v -50 3.9 2.5
v -50 4 2.6
v -50 4 2.5
v -50 4 2.4
v -50 4.1 2.5
v -50 5.1 2.6
v -50 5.1 2.5
v -50 5.1 2.4
v -50 5.2 2.6
v -50 5.2 2.5
v -49.9 4 2.6
v -49.9 4 2.5
v -49.9 4.1 2.6
v -49.9 4.1 2.5
v -49.9 5.1 2.6
v -49.9 5.1 2.5
v -51.2 4 2.6
v -51.2 4.9 2.6
v -51.2 5.1 2.6
v -51.1 3.9 2.6
v -51.1 4 2.6
v -51.1 4.2 2.6
v -51.1 4.4 2.6
v -51.1 4.9 2.6
v -51.1 5.1 2.6
v -51.1 5.2 2.6
v -51 4.4 2.6
v -51 4.6 2.6
v -51 5.1 2.6
v -51 5.2 2.6
v -50.9 4.3 2.6
v -50.9 4.4 2.6
v -50.9 4.6 2.6
v -50.9 4.7 2.6
v -50.9 5.1 2.6
v -50.9 5.2 2.6
v -50.8 4.3 2.6
v -50.8 4.4 2.6
v -50.8 4.7 2.6
v -50.8 4.9 2.6
v -50.7 4.3 2.6
v -50.7 4.5 2.6
v -50.7 4.6 2.6
v -50.7 4.7 2.6
v -50.7 4.9 2.6
v -50.7 5 2.6
v -50.6 4.3 2.6
v -50.6 4.4 2.6
v -50.6 4.5 2.6
v -50.6 4.6 2.6
v -50.6 4.7 2.6
v -50.6 4.8 2.6
v -50.6 5 2.6
v -50.6 5.1 2.6
v -50.5 3.9 2.6
v -50.5 4 2.6
v -50.5 4.3 2.6
v -50.5 4.4 2.6
v -50.5 4.5 2.6
v -50.5 4.6 2.6
v -50.5 4.7 2.6
v -50.5 4.8 2.6
v -50.5 5 2.6
v -50.5 5.1 2.6
v -50.4 3.9 2.6
v -50.4 4 2.6
v -50.4 4.3 2.6
v -50.4 4.5 2.6
v -50.4 4.6 2.6
v -50.4 4.7 2.6
v -50.4 4.9 2.6
v -50.4 5 2.6
v -50.3 3.9 2.6
v -50.3 4 2.6
v -50.3 4.3 2.6
v -50.3 4.4 2.6
v -50.3 4.7 2.6
v -50.3 4.9 2.6
v -50.2 4.3 2.6
v -50.2 4.4 2.6
v -50.2 4.6 2.6
v -50.2 4.7 2.6
v -50.1 4.4 2.6
v -50.1 4.6 2.6
v -50 3.9 2.6
v -50 4 2.6
v -50 4.1 2.6
v -50 4.2 2.6
v -50 4.4 2.6
v -50 5.1 2.6
v -50 5.2 2.6
v -49.9 4 2.6
v -49.9 4.1 2.6
v -49.9 5.1 2.6
v -50.6 4.4 2.5
v -50.6 4.5 2.5
v -50.5 4.4 2.5
v -50.5 4.5 2.5
v -51.2 4 2.5
v -51.2 4.9 2.5
v -51.2 5.1 2.5
v -51.1 3.9 2.5
v -51.1 4 2.5
v -51.1 4.9 2.5
v -51.1 5.1 2.5
v -51.1 5.2 2.5
v -51 5.1 2.5
v -51 5.2 2.5
v -50.9 5.1 2.5
v -50.9 5.2 2.5
v -50.5 3.9 2.5
v -50.5 4 2.5
v -50.4 3.9 2.5
v -50.4 4 2.5
v -50.3 3.9 2.5
v -50.3 4 2.5
v -50 3.9 2.5
v -50 4 2.5
v -50 4.1 2.5
v -50 5.1 2.5
v -50 5.2 2.5
v -49.9 4 2.5
v -49.9 4.1 2.5
v -49.9 5.1 2.5
v -51.1 4 2.4
v -51.1 5.1 2.4
v -50 4 2.4
v -50 5.1 2.4
v -51.1 3.9 2.6
v -50.5 3.9 2.6
v -50.4 3.9 2.6
v -50.3 3.9 2.6
v -50 3.9 2.6
v -51.1 3.9 2.5
v -50.5 3.9 2.5
v -50.4 3.9 2.5
v -50.3 3.9 2.5
v -50 3.9 2.5
v -51.2 4 2.6
v -51.1 4 2.6
v -50 4 2.6
v -49.9 4 2.6
v -51.2 4 2.5
v -51.1 4 2.5
v -50.5 4 2.5
v -50.4 4 2.5
v -50.3 4 2.5
v -50 4 2.5
v -49.9 4 2.5
v -51.1 4 2.4
v -50 4 2.4
v -50.6 4.5 2.6
v -50.5 4.5 2.6
v -50.6 4.5 2.5
v -50.5 4.5 2.5
v -50.6 4.4 2.6
v -50.5 4.4 2.6
v -50.6 4.4 2.5
v -50.5 4.4 2.5
v -51.2 5.1 2.6
v -51.1 5.1 2.6
v -50 5.1 2.6
v -49.9 5.1 2.6
v -51.2 5.1 2.5
v -51.1 5.1 2.5
v -51 5.1 2.5
v -50.9 5.1 2.5
v -50 5.1 2.5
v -49.9 5.1 2.5
v -51.1 5.1 2.4
v -50 5.1 2.4
v -51.1 5.2 2.6
v -51 5.2 2.6
v -50.9 5.2 2.6
v -50 5.2 2.6
v -51.1 5.2 2.5
v -51 5.2 2.5
v -50.9 5.2 2.5
v -50 5.2 2.5

# faces
f 3/3/1 2/3/1 1/3/1
f 4/3/1 2/3/1 3/3/1
f 5/4/1 4/4/1 3/4/1
f 6/4/1 4/4/1 5/4/1
f 9/3/1 8/3/1 7/3/1
f 10/3/1 8/3/1 9/3/1
f 12/3/1 11/3/1 10/3/1
f 14/3/1 11/3/1 12/3/1
f 15/3/1 11/3/1 14/3/1
f 16/3/1 14/3/1 13/3/1
f 17/3/1 14/3/1 16/3/1
f 20/3/1 19/3/1 18/3/1
f 21/3/1 19/3/1 20/3/1
f 22/3/2 23/3/2 24/3/2
f 24/3/2 23/3/2 25/3/2
f 26/4/2 27/4/2 28/4/2
f 28/4/2 27/4/2 29/4/2
f 29/3/2 30/3/2 31/3/2
f 31/3/2 30/3/2 33/3/2
f 33/3/2 30/3/2 34/3/2
f 32/3/2 33/3/2 35/3/2
f 35/3/2 33/3/2 36/3/2
f 37/4/2 38/4/2 39/4/2
f 39/4/2 38/4/2 40/4/2
f 39/3/2 40/3/2 41/3/2
f 41/3/2 40/3/2 42/3/2
f 47/3/3 44/3/3 43/3/3
f 48/3/3 44/3/3 47/3/3
f 49/3/3 44/3/3 48/3/3
f 50/4/3 45/4/3 44/4/3
f 50/3/3 44/3/3 49/3/3
f 51/4/3 45/4/3 50/4/3
f 53/2/3 49/2/3 48/2/3
f 53/1/3 50/1/3 49/1/3
f 53/1/3 51/1/3 50/1/3
f 54/1/3 51/1/3 53/1/3
f 55/3/3 52/3/3 51/3/3
f 55/1/3 51/1/3 54/1/3
f 56/3/3 52/3/3 55/3/3
f 57/2/3 54/2/3 53/2/3
f 57/2/3 53/2/3 48/2/3
f 58/2/3 54/2/3 57/2/3
f 59/1/3 55/1/3 54/1/3
f 59/2/3 54/2/3 58/2/3
f 60/1/3 55/1/3 59/1/3
f 61/4/3 56/4/3 55/4/3
f 61/1/3 55/1/3 60/1/3
f 62/4/3 56/4/3 61/4/3
f 63/3/3 58/3/3 57/3/3
f 63/2/3 57/2/3 48/2/3
f 64/2/3 60/2/3 59/2/3
f 64/3/3 58/3/3 63/3/3
f 64/2/3 59/2/3 58/2/3
f 65/1/3 61/1/3 60/1/3
f 65/2/3 60/2/3 64/2/3
f 66/1/3 61/1/3 65/1/3
f 67/2/3 63/2/3 48/2/3
f 67/2/3 64/2/3 63/2/3
f 67/2/3 66/2/3 65/2/3
f 67/2/3 65/2/3 64/2/3
f 68/2/3 66/2/3 67/2/3
f 69/2/3 66/2/3 68/2/3
f 70/2/3 66/2/3 69/2/3
f 71/1/3 61/1/3 66/1/3
f 71/2/3 66/2/3 70/2/3
f 72/1/3 61/1/3 71/1/3
f 73/2/3 67/2/3 48/2/3
f 73/3/3 68/3/3 67/3/3
f 74/3/3 68/3/3 73/3/3
f 75/2/3 69/2/3 68/2/3
f 75/3/3 68/3/3 74/3/3
f 76/3/3 70/3/3 69/3/3
f 76/2/3 69/2/3 75/2/3
f 77/2/3 72/2/3 71/2/3
f 77/3/3 70/3/3 76/3/3
f 77/2/3 71/2/3 70/2/3
f 78/2/3 72/2/3 77/2/3
f 79/1/3 61/1/3 72/1/3
f 79/2/3 72/2/3 78/2/3
f 80/3/3 62/3/3 61/3/3
f 80/1/3 61/1/3 79/1/3
f 81/3/3 47/3/3 46/3/3
f 82/1/3 48/1/3 47/1/3
f 82/3/3 47/3/3 81/3/3
f 83/2/3 74/2/3 73/2/3
f 83/2/3 73/2/3 48/2/3
f 84/2/3 74/2/3 83/2/3
f 85/3/3 78/3/3 77/3/3
f 85/3/3 76/3/3 75/3/3
f 85/3/3 77/3/3 76/3/3
f 86/3/3 78/3/3 85/3/3
f 87/3/3 78/3/3 86/3/3
f 88/2/3 80/2/3 79/2/3
f 88/3/3 78/3/3 87/3/3
f 88/2/3 79/2/3 78/2/3
f 89/2/3 80/2/3 88/2/3
f 90/3/3 62/3/3 80/3/3
f 90/2/3 80/2/3 89/2/3
f 91/4/3 82/4/3 81/4/3
f 92/1/3 48/1/3 82/1/3
f 92/4/3 82/4/3 91/4/3
f 93/3/3 84/3/3 83/3/3
f 93/2/3 83/2/3 48/2/3
f 93/3/3 85/3/3 84/3/3
f 94/2/3 86/2/3 85/2/3
f 94/3/3 85/3/3 93/3/3
f 95/3/3 87/3/3 86/3/3
f 95/2/3 86/2/3 94/2/3
f 96/2/3 89/2/3 88/2/3
f 96/3/3 87/3/3 95/3/3
f 96/2/3 88/2/3 87/2/3
f 97/2/3 89/2/3 96/2/3
f 98/1/3 90/1/3 89/1/3
f 98/2/3 89/2/3 97/2/3
f 99/3/3 92/3/3 91/3/3
f 100/1/3 48/1/3 92/1/3
f 100/3/3 92/3/3 99/3/3
f 101/2/3 95/2/3 94/2/3
f 101/2/3 94/2/3 93/2/3
f 101/2/3 93/2/3 48/2/3
f 101/2/3 97/2/3 96/2/3
f 101/2/3 96/2/3 95/2/3
f 102/2/3 97/2/3 101/2/3
f 103/2/3 97/2/3 102/2/3
f 104/1/3 98/1/3 97/1/3
f 104/2/3 97/2/3 103/2/3
f 105/2/3 101/2/3 48/2/3
f 105/3/3 102/3/3 101/3/3
f 106/2/3 103/2/3 102/2/3
f 106/3/3 102/3/3 105/3/3
f 107/2/3 103/2/3 106/2/3
f 108/1/3 104/1/3 103/1/3
f 108/2/3 103/2/3 107/2/3
f 109/2/3 107/2/3 106/2/3
f 109/2/3 106/2/3 105/2/3
f 110/1/3 108/1/3 107/1/3
f 110/2/3 107/2/3 109/2/3
f 111/4/3 100/4/3 99/4/3
f 112/1/3 48/1/3 100/1/3
f 112/4/3 100/4/3 111/4/3
f 113/1/3 48/1/3 112/1/3
f 114/2/3 105/2/3 48/2/3
f 114/1/3 48/1/3 113/1/3
f 114/2/3 109/2/3 105/2/3
f 115/1/3 110/1/3 109/1/3
f 115/2/3 109/2/3 114/2/3
f 116/1/3 108/1/3 110/1/3
f 116/1/3 110/1/3 115/1/3
f 116/1/3 90/1/3 98/1/3
f 116/3/3 62/3/3 90/3/3
f 116/1/3 98/1/3 104/1/3
f 116/1/3 104/1/3 108/1/3
f 117/3/3 62/3/3 116/3/3
f 118/4/3 113/4/3 112/4/3
f 119/3/3 115/3/3 114/3/3
f 119/4/3 113/4/3 118/4/3
f 119/3/3 114/3/3 113/3/3
f 119/3/3 116/3/3 115/3/3
f 120/3/3 116/3/3 119/3/3
f 123/3/3 122/3/3 121/3/3
f 124/3/3 122/3/3 123/3/3
f 125/3/4 126/3/4 129/3/4
f 126/4/4 127/4/4 130/4/4
f 129/3/4 126/3/4 130/3/4
f 130/4/4 127/4/4 131/4/4
f 131/3/4 132/3/4 133/3/4
f 133/3/4 132/3/4 134/3/4
f 133/4/4 134/4/4 135/4/4
f 135/4/4 134/4/4 136/4/4
f 128/3/4 129/3/4 137/3/4
f 137/3/4 129/3/4 138/3/4
f 137/4/4 138/4/4 139/4/4
f 139/4/4 138/4/4 140/4/4
f 139/3/4 140/3/4 141/3/4
f 141/3/4 140/3/4 142/3/4
f 141/4/4 142/4/4 143/4/4
f 143/4/4 142/4/4 144/4/4
f 135/3/4 136/3/4 146/3/4
f 146/3/4 136/3/4 147/3/4
f 144/4/4 145/4/4 148/4/4
f 145/3/4 146/3/4 149/3/4
f 148/4/4 145/4/4 149/4/4
f 149/3/4 146/3/4 150/3/4
f 151/3/4 152/3/4 153/3/4
f 153/3/4 152/3/4 154/3/4
f 160/3/5 156/3/5 155/3/5
f 161/4/5 157/4/5 156/4/5
f 161/3/5 156/3/5 160/3/5
f 162/3/5 158/3/5 157/3/5
f 162/4/5 157/4/5 161/4/5
f 163/4/5 159/4/5 158/4/5
f 163/3/5 158/3/5 162/3/5
f 164/4/5 159/4/5 163/4/5
f 169/3/5 166/3/5 165/3/5
f 170/3/5 166/3/5 169/3/5
f 174/4/5 168/4/5 167/4/5
f 175/4/5 168/4/5 174/4/5
f 176/3/5 173/3/5 172/3/5
f 176/3/5 174/3/5 173/3/5
f 176/3/5 171/3/5 170/3/5
f 176/3/5 172/3/5 171/3/5
f 177/3/5 174/3/5 176/3/5
f 180/3/5 179/3/5 178/3/5
f 181/3/5 179/3/5 180/3/5
f 182/2/6 183/2/6 184/2/6
f 184/2/6 183/2/6 185/2/6
f 186/4/6 187/4/6 190/4/6
f 190/4/6 187/4/6 191/4/6
f 188/3/6 189/3/6 194/3/6
f 194/3/6 189/3/6 195/3/6
f 192/3/6 193/3/6 196/3/6
f 193/3/6 194/3/6 196/3/6
f 191/3/6 192/3/6 196/3/6
f 196/3/6 194/3/6 197/3/6
f 198/3/6 199/3/6 202/3/6
f 199/4/6 200/4/6 203/4/6
f 202/3/6 199/3/6 203/3/6
f 200/3/6 201/3/6 204/3/6
f 203/4/6 200/4/6 204/4/6
f 204/3/6 201/3/6 205/3/6
