# MagicaVoxel @ Ephtracy

# group
o 

# material
mtllib TESTOWANIE_VOXELA-10.mtl
usemtl palette

# normals
vn -1 0 0
vn 1 0 0
vn 0 0 1
vn 0 0 -1
vn 0 -1 0
vn 0 1 0

# texcoords
vt 0.314453 0.5
vt 0.318359 0.5
vt 0.564453 0.5
vt 0.568359 0.5
vt 0.783203 0.5

# verts
v -36.1 1 5
v -36.1 1 4.9
v -36.1 1.5 5
v -36.1 1.5 4.9
v -36 0.9 5
v -36 0.9 4.9
v -36 1 5
v -36 1 4.9
v -36 1.5 5
v -36 1.5 4.9
v -36 1.6 5
v -36 1.6 4.9
v -35.9 0.8 5
v -35.9 0.8 4.9
v -35.9 0.9 5
v -35.9 0.9 4.9
v -35.9 1.6 5
v -35.9 1.6 4.9
v -35.9 1.7 5
v -35.9 1.7 4.9
v -35.7 1.2 5
v -35.7 1.2 4.9
v -35.7 1.3 5
v -35.7 1.3 4.9
v -35.7 1.4 5
v -35.7 1.4 4.9
v -35.6 1.4 5
v -35.6 1.4 4.9
v -35.6 1.6 5
v -35.6 1.6 4.9
v -35.6 1.7 5
v -35.6 1.7 4.9
v -35.6 1.8 5
v -35.6 1.8 4.9
v -35.6 1.9 5
v -35.6 1.9 4.9
v -35.5 1.9 5
v -35.5 1.9 4.9
v -35.5 2.3 5.1
v -35.5 2.3 5
v -35.5 2.3 4.9
v -35.5 2.3 4.8
v -35.5 2.4 5
v -35.5 2.4 4.9
v -35.5 2.5 5.3
v -35.5 2.5 5.2
v -35.5 2.5 5.1
v -35.5 2.5 5
v -35.5 2.5 4.8
v -35.5 2.5 4.7
v -35.5 2.5 4.6
v -35.5 2.6 5.3
v -35.5 2.6 5.2
v -35.5 2.6 5.1
v -35.5 2.6 5
v -35.5 2.6 4.9
v -35.5 2.6 4.8
v -35.5 2.6 4.7
v -35.5 2.6 4.6
v -35.4 0.9 5
v -35.4 0.9 4.9
v -35.4 1 5
v -35.4 1 4.9
v -35.4 1.5 5
v -35.4 1.5 4.9
v -35.4 1.6 5
v -35.4 1.6 4.9
v -35.4 1.7 5
v -35.4 1.7 4.9
v -35.4 1.8 5
v -35.4 1.8 4.9
v -35.3 1 5
v -35.3 1 4.9
v -35.3 1.5 5
v -35.3 1.5 4.9
v -35.3 1.6 5
v -35.3 1.6 4.9
v -35.3 1.7 5
v -35.3 1.7 4.9
v -35.1 1.5 5
v -35.1 1.5 4.9
v -35.1 1.6 5
v -35.1 1.6 4.9
v -35 1.4 5
v -35 1.4 4.9
v -35 1.5 5
v -35 1.5 4.9
v -34.9 1.2 5
v -34.9 1.2 4.9
v -34.9 1.4 5
v -34.9 1.4 4.9
v -34.7 1.1 5.3
v -34.7 1.1 5.1
v -34.7 1.1 4.8
v -34.7 1.1 4.6
v -34.7 1.2 5.3
v -34.7 1.2 5.2
v -34.7 1.2 5.1
v -34.7 1.2 5
v -34.7 1.2 4.9
v -34.7 1.2 4.8
v -34.7 1.2 4.7
v -34.7 1.2 4.6
v -34.7 1.3 5.2
v -34.7 1.3 5.1
v -34.7 1.3 5
v -34.7 1.3 4.9
v -34.7 1.3 4.8
v -34.7 1.3 4.7
v -34.7 1.4 5
v -34.7 1.4 4.9
v -34.7 1.5 5
v -34.7 1.5 4.9
v -34.7 2.1 5
v -34.7 2.1 4.9
v -34.7 2.2 5
v -34.7 2.2 4.9
v -34.6 1.5 5
v -34.6 1.5 4.9
v -34.6 1.7 5
v -34.6 1.7 4.9
v -34.6 1.8 5
v -34.6 1.8 4.9
v -34.6 1.9 5
v -34.6 1.9 4.9
v -34.6 2 5
v -34.6 2 4.9
v -34.6 2.1 5.1
v -34.6 2.1 5
v -34.6 2.1 4.9
v -34.6 2.1 4.8
v -34.6 2.2 5.1
v -34.6 2.2 5
v -34.6 2.2 4.9
v -34.6 2.2 4.8
v -34.5 2 5
v -34.5 2 4.9
v -34.5 2.1 5
v -34.5 2.1 4.9
v -34.4 1.6 5
v -34.4 1.6 4.9
v -34.4 1.7 5
v -34.4 1.7 4.9
v -34.3 1 5
v -34.3 1 4.9
v -34.3 1.2 5
v -34.3 1.2 4.9
v -34.3 1.3 5
v -34.3 1.3 4.9
v -34.3 1.5 5
v -34.3 1.5 4.9
v -34.3 1.6 5
v -34.3 1.6 4.9
v -34.2 0.9 5
v -34.2 0.9 4.9
v -34.2 1 5
v -34.2 1 4.9
v -34.2 1.5 5.1
v -34.2 1.5 5
v -34.2 1.6 5.1
v -34.2 1.6 5
v -34.2 1.9 5.1
v -34.2 1.9 5
v -34.2 1.9 4.9
v -34.2 1.9 4.8
v -34.2 2 5.1
v -34.2 2 4.9
v -34.2 2 4.8
v -34.1 0.8 5
v -34.1 0.8 4.9
v -34.1 0.9 5
v -34.1 0.9 4.9
v -34.1 1 5
v -34.1 1 4.9
v -34.1 1.1 5
v -34.1 1.1 4.9
v -34.1 1.2 5
v -34.1 1.2 4.9
v -34.1 1.3 5
v -34.1 1.3 4.9
v -34.1 1.4 5
v -34.1 1.4 4.9
v -34.1 1.5 5
v -34.1 1.5 4.9
v -34 1.1 5
v -34 1.1 4.9
v -34 1.2 5
v -34 1.2 4.9
v -34 1.3 5
v -34 1.3 4.9
v -34 1.4 5
v -34 1.4 4.9
v -33.8 1.1 5
v -33.8 1.1 4.9
v -33.8 1.2 5
v -33.8 1.2 4.9
v -33.8 1.3 5
v -33.8 1.3 4.9
v -33.8 1.4 5
v -33.8 1.4 4.9
v -33.7 1 5
v -33.7 1 4.9
v -33.7 1.1 5
v -33.7 1.1 4.9
v -33.7 1.4 5
v -33.7 1.4 4.9
v -33.7 1.5 5
v -33.7 1.5 4.9
v -33.6 0.9 5
v -33.6 0.9 4.9
v -33.6 1 5
v -33.6 1 4.9
v -33.6 1.5 5
v -33.6 1.5 4.9
v -33.6 1.6 5
v -33.6 1.6 4.9
v -33.5 1 5
v -33.5 1 4.9
v -33.5 1.5 5
v -33.5 1.5 4.9
v -36 1 5
v -36 1 4.9
v -36 1.5 5
v -36 1.5 4.9
v -35.9 0.9 5
v -35.9 0.9 4.9
v -35.9 1 5
v -35.9 1 4.9
v -35.9 1.5 5
v -35.9 1.5 4.9
v -35.9 1.6 5
v -35.9 1.6 4.9
v -35.6 1.2 5
v -35.6 1.2 4.9
v -35.6 1.3 5
v -35.6 1.3 4.9
v -35.6 1.4 5
v -35.6 1.4 4.9
v -35.5 1.4 5
v -35.5 1.4 4.9
v -35.5 1.6 5
v -35.5 1.6 4.9
v -35.5 1.7 5
v -35.5 1.7 4.9
v -35.5 1.8 5
v -35.5 1.8 4.9
v -35.4 0.8 5
v -35.4 0.8 4.9
v -35.4 0.9 5
v -35.4 0.9 4.9
v -35.4 1.6 5
v -35.4 1.6 4.9
v -35.4 1.7 5
v -35.4 1.7 4.9
v -35.4 1.9 5
v -35.4 1.9 4.9
v -35.4 2.3 5.1
v -35.4 2.3 5
v -35.4 2.3 4.9
v -35.4 2.3 4.8
v -35.4 2.4 5
v -35.4 2.4 4.9
v -35.4 2.5 5.2
v -35.4 2.5 5.1
v -35.4 2.5 5
v -35.4 2.5 4.8
v -35.4 2.5 4.7
v -35.4 2.6 5.2
v -35.4 2.6 5.1
v -35.4 2.6 5
v -35.4 2.6 4.9
v -35.4 2.6 4.8
v -35.4 2.6 4.7
v -35.3 0.9 5
v -35.3 0.9 4.9
v -35.3 1 5
v -35.3 1 4.9
v -35.3 1.5 5
v -35.3 1.5 4.9
v -35.3 1.6 5
v -35.3 1.6 4.9
v -35.3 1.7 5
v -35.3 1.7 4.9
v -35.3 1.8 5
v -35.3 1.8 4.9
v -35.3 2.5 5.3
v -35.3 2.5 5.2
v -35.3 2.5 4.7
v -35.3 2.5 4.6
v -35.3 2.6 5.3
v -35.3 2.6 5.2
v -35.3 2.6 4.7
v -35.3 2.6 4.6
v -35.2 1 5
v -35.2 1 4.9
v -35.2 1.5 5
v -35.2 1.5 4.9
v -35.1 1.6 5
v -35.1 1.6 4.9
v -35.1 1.7 5
v -35.1 1.7 4.9
v -35 1.5 5
v -35 1.5 4.9
v -35 1.6 5
v -35 1.6 4.9
v -34.8 1.4 5
v -34.8 1.4 4.9
v -34.8 1.5 5
v -34.8 1.5 4.9
v -34.6 1.1 5.3
v -34.6 1.1 5.1
v -34.6 1.1 4.8
v -34.6 1.1 4.6
v -34.6 1.2 5.3
v -34.6 1.2 5.2
v -34.6 1.2 5.1
v -34.6 1.2 4.8
v -34.6 1.2 4.7
v -34.6 1.2 4.6
v -34.6 1.3 5.2
v -34.6 1.3 5.1
v -34.6 1.3 5
v -34.6 1.3 4.9
v -34.6 1.3 4.8
v -34.6 1.3 4.7
v -34.6 1.5 5
v -34.6 1.5 4.9
v -34.5 1.5 5
v -34.5 1.5 4.9
v -34.5 1.7 5
v -34.5 1.7 4.9
v -34.5 1.9 5
v -34.5 1.9 4.9
v -34.5 2 5
v -34.5 2 4.9
v -34.4 1.7 5
v -34.4 1.7 4.9
v -34.4 1.8 5
v -34.4 1.8 4.9
v -34.4 2 5
v -34.4 2 4.9
v -34.4 2.1 5
v -34.4 2.1 4.9
v -34.3 2.1 5.1
v -34.3 2.1 4.8
v -34.3 2.2 5.1
v -34.3 2.2 4.8
v -34.2 1 5
v -34.2 1 4.9
v -34.2 1.2 5
v -34.2 1.2 4.9
v -34.2 1.3 5
v -34.2 1.3 4.9
v -34.2 1.5 5
v -34.2 1.5 4.9
v -34.1 1.5 5.1
v -34.1 1.5 5
v -34.1 1.6 5.1
v -34.1 1.6 5
v -34.1 1.8 5
v -34.1 1.8 4.9
v -34.1 1.9 5
v -34.1 1.9 4.9
v -34 0.9 5
v -34 0.9 4.9
v -34 1.1 5
v -34 1.1 4.9
v -34 1.4 5
v -34 1.4 4.9
v -34 1.6 5
v -34 1.6 4.9
v -33.9 1.1 5
v -33.9 1.1 4.9
v -33.9 1.2 5
v -33.9 1.2 4.9
v -33.9 1.3 5
v -33.9 1.3 4.9
v -33.9 1.4 5
v -33.9 1.4 4.9
v -33.8 1.2 5.1
v -33.8 1.2 5
v -33.8 1.2 4.9
v -33.8 1.2 4.8
v -33.8 1.3 5.1
v -33.8 1.3 5
v -33.8 1.3 4.9
v -33.8 1.3 4.8
v -33.8 1.9 5.1
v -33.8 1.9 4.8
v -33.8 2 5.1
v -33.8 2 4.8
v -33.7 1.1 5
v -33.7 1.1 4.9
v -33.7 1.2 5
v -33.7 1.2 4.9
v -33.7 1.3 5
v -33.7 1.3 4.9
v -33.7 1.4 5
v -33.7 1.4 4.9
v -33.6 0.8 5
v -33.6 0.8 4.9
v -33.6 0.9 5
v -33.6 0.9 4.9
v -33.6 1 5
v -33.6 1 4.9
v -33.6 1.1 5
v -33.6 1.1 4.9
v -33.6 1.4 5
v -33.6 1.4 4.9
v -33.6 1.5 5
v -33.6 1.5 4.9
v -33.6 1.6 5
v -33.6 1.6 4.9
v -33.6 1.7 5
v -33.6 1.7 4.9
v -33.5 0.9 5
v -33.5 0.9 4.9
v -33.5 1 5
v -33.5 1 4.9
v -33.5 1.5 5
v -33.5 1.5 4.9
v -33.5 1.6 5
v -33.5 1.6 4.9
v -33.4 1 5
v -33.4 1 4.9
v -33.4 1.5 5
v -33.4 1.5 4.9
v -35.5 2.5 5.3
v -35.5 2.6 5.3
v -35.3 2.5 5.3
v -35.3 2.6 5.3
v -34.7 1.1 5.3
v -34.7 1.2 5.3
v -34.6 1.1 5.3
v -34.6 1.2 5.3
v -34.7 1.2 5.2
v -34.7 1.3 5.2
v -34.6 1.2 5.2
v -34.6 1.3 5.2
v -35.5 2.3 5.1
v -35.5 2.5 5.1
v -35.4 2.3 5.1
v -35.4 2.5 5.1
v -34.6 1.2 5.1
v -34.6 1.3 5.1
v -34.6 2.1 5.1
v -34.6 2.2 5.1
v -34.5 1.2 5.1
v -34.5 1.3 5.1
v -34.3 2.1 5.1
v -34.3 2.2 5.1
v -34.2 1.5 5.1
v -34.2 1.6 5.1
v -34.2 1.9 5.1
v -34.2 2 5.1
v -34.1 1.2 5.1
v -34.1 1.3 5.1
v -34.1 1.5 5.1
v -34.1 1.6 5.1
v -34.1 1.9 5.1
v -34.1 2 5.1
v -34 1.9 5.1
v -34 2 5.1
v -33.8 1.2 5.1
v -33.8 1.3 5.1
v -33.8 1.9 5.1
v -33.8 2 5.1
v -36.1 1 5
v -36.1 1.5 5
v -36 0.9 5
v -36 1 5
v -36 1.5 5
v -36 1.6 5
v -35.9 0.8 5
v -35.9 0.9 5
v -35.9 1 5
v -35.9 1.5 5
v -35.9 1.6 5
v -35.9 1.7 5
v -35.7 1.2 5
v -35.7 1.3 5
v -35.7 1.4 5
v -35.6 1.2 5
v -35.6 1.3 5
v -35.6 1.4 5
v -35.6 1.6 5
v -35.6 1.7 5
v -35.6 1.8 5
v -35.6 1.9 5
v -35.5 1.4 5
v -35.5 1.6 5
v -35.5 1.7 5
v -35.5 1.8 5
v -35.5 1.9 5
v -35.5 2.3 5
v -35.4 0.8 5
v -35.4 0.9 5
v -35.4 1 5
v -35.4 1.5 5
v -35.4 1.6 5
v -35.4 1.7 5
v -35.4 1.8 5
v -35.4 1.9 5
v -35.4 2.3 5
v -35.3 0.9 5
v -35.3 1 5
v -35.3 1.5 5
v -35.3 1.6 5
v -35.3 1.7 5
v -35.3 1.8 5
v -35.2 1 5
v -35.2 1.5 5
v -35.2 1.6 5
v -35.2 1.7 5
v -35.1 1.5 5
v -35.1 1.6 5
v -35.1 1.7 5
v -35.1 1.8 5
v -35.1 1.9 5
v -35 1.4 5
v -35 1.5 5
v -35 1.6 5
v -35 1.8 5
v -35 1.9 5
v -34.9 1.2 5
v -34.9 1.4 5
v -34.9 1.8 5
v -34.9 1.9 5
v -34.8 1.4 5
v -34.8 1.5 5
v -34.7 1.2 5
v -34.7 1.3 5
v -34.7 1.4 5
v -34.7 1.5 5
v -34.7 2.1 5
v -34.7 2.2 5
v -34.6 1.3 5
v -34.6 1.5 5
v -34.6 1.7 5
v -34.6 1.8 5
v -34.6 1.9 5
v -34.6 2 5
v -34.6 2.1 5
v -34.6 2.2 5
v -34.5 1.5 5
v -34.5 1.7 5
v -34.5 1.8 5
v -34.5 1.9 5
v -34.5 2 5
v -34.5 2.1 5
v -34.4 1.6 5
v -34.4 1.7 5
v -34.4 1.8 5
v -34.4 1.9 5
v -34.4 2 5
v -34.4 2.1 5
v -34.3 1 5
v -34.3 1.2 5
v -34.3 1.3 5
v -34.3 1.5 5
v -34.3 1.6 5
v -34.3 1.8 5
v -34.3 1.9 5
v -34.2 0.9 5
v -34.2 1 5
v -34.2 1.2 5
v -34.2 1.3 5
v -34.2 1.5 5
v -34.2 1.6 5
v -34.2 1.9 5
v -34.1 0.8 5
v -34.1 0.9 5
v -34.1 1 5
v -34.1 1.1 5
v -34.1 1.4 5
v -34.1 1.5 5
v -34.1 1.6 5
v -34.1 1.7 5
v -34.1 1.8 5
v -34.1 1.9 5
v -34 0.9 5
v -34 1.1 5
v -34 1.2 5
v -34 1.3 5
v -34 1.4 5
v -34 1.6 5
v -33.9 1.1 5
v -33.9 1.2 5
v -33.9 1.3 5
v -33.9 1.4 5
v -33.8 1.1 5
v -33.8 1.2 5
v -33.8 1.3 5
v -33.8 1.4 5
v -33.7 1 5
v -33.7 1.1 5
v -33.7 1.2 5
v -33.7 1.3 5
v -33.7 1.4 5
v -33.7 1.5 5
v -33.6 0.8 5
v -33.6 0.9 5
v -33.6 1 5
v -33.6 1.1 5
v -33.6 1.4 5
v -33.6 1.5 5
v -33.6 1.6 5
v -33.6 1.7 5
v -33.5 0.9 5
v -33.5 1 5
v -33.5 1.5 5
v -33.5 1.6 5
v -33.4 1 5
v -33.4 1.5 5
v -35.5 2.4 4.9
v -35.5 2.6 4.9
v -35.4 2.4 4.9
v -35.4 2.6 4.9
v -34.2 1.2 4.9
v -34.2 1.3 4.9
v -34.1 1.2 4.9
v -34.1 1.3 4.9
v -34.7 1.1 4.8
v -34.7 1.2 4.8
v -34.6 1.1 4.8
v -34.6 1.2 4.8
v -35.4 2.5 4.7
v -35.4 2.6 4.7
v -35.3 2.5 4.7
v -35.3 2.6 4.7
v -35.4 2.5 5.2
v -35.4 2.6 5.2
v -35.3 2.5 5.2
v -35.3 2.6 5.2
v -34.7 1.1 5.1
v -34.7 1.2 5.1
v -34.6 1.1 5.1
v -34.6 1.2 5.1
v -35.5 2.4 5
v -35.5 2.5 5
v -35.5 2.6 5
v -35.4 2.4 5
v -35.4 2.5 5
v -35.4 2.6 5
v -34.2 1.2 5
v -34.2 1.3 5
v -34.1 1.2 5
v -34.1 1.3 5
v -36.1 1 4.9
v -36.1 1.5 4.9
v -36 0.9 4.9
v -36 1 4.9
v -36 1.5 4.9
v -36 1.6 4.9
v -35.9 0.8 4.9
v -35.9 0.9 4.9
v -35.9 1 4.9
v -35.9 1.5 4.9
v -35.9 1.6 4.9
v -35.9 1.7 4.9
v -35.7 1.2 4.9
v -35.7 1.3 4.9
v -35.7 1.4 4.9
v -35.6 1.2 4.9
v -35.6 1.3 4.9
v -35.6 1.4 4.9
v -35.6 1.6 4.9
v -35.6 1.7 4.9
v -35.6 1.8 4.9
v -35.6 1.9 4.9
v -35.5 1.4 4.9
v -35.5 1.6 4.9
v -35.5 1.7 4.9
v -35.5 1.8 4.9
v -35.5 1.9 4.9
v -35.5 2.3 4.9
v -35.4 0.8 4.9
v -35.4 0.9 4.9
v -35.4 1 4.9
v -35.4 1.5 4.9
v -35.4 1.6 4.9
v -35.4 1.7 4.9
v -35.4 1.8 4.9
v -35.4 1.9 4.9
v -35.4 2.3 4.9
v -35.3 0.9 4.9
v -35.3 1 4.9
v -35.3 1.5 4.9
v -35.3 1.6 4.9
v -35.3 1.7 4.9
v -35.3 1.8 4.9
v -35.2 1 4.9
v -35.2 1.5 4.9
v -35.2 1.6 4.9
v -35.2 1.7 4.9
v -35.1 1.5 4.9
v -35.1 1.6 4.9
v -35.1 1.7 4.9
v -35.1 1.8 4.9
v -35.1 1.9 4.9
v -35 1.4 4.9
v -35 1.5 4.9
v -35 1.6 4.9
v -35 1.8 4.9
v -35 1.9 4.9
v -34.9 1.2 4.9
v -34.9 1.4 4.9
v -34.9 1.8 4.9
v -34.9 1.9 4.9
v -34.8 1.4 4.9
v -34.8 1.5 4.9
v -34.7 1.2 4.9
v -34.7 1.3 4.9
v -34.7 1.4 4.9
v -34.7 1.5 4.9
v -34.7 2.1 4.9
v -34.7 2.2 4.9
v -34.6 1.3 4.9
v -34.6 1.5 4.9
v -34.6 1.7 4.9
v -34.6 1.8 4.9
v -34.6 1.9 4.9
v -34.6 2 4.9
v -34.6 2.1 4.9
v -34.6 2.2 4.9
v -34.5 1.5 4.9
v -34.5 1.7 4.9
v -34.5 1.8 4.9
v -34.5 1.9 4.9
v -34.5 2 4.9
v -34.5 2.1 4.9
v -34.4 1.6 4.9
v -34.4 1.7 4.9
v -34.4 1.8 4.9
v -34.4 1.9 4.9
v -34.4 2 4.9
v -34.4 2.1 4.9
v -34.3 1 4.9
v -34.3 1.2 4.9
v -34.3 1.3 4.9
v -34.3 1.5 4.9
v -34.3 1.6 4.9
v -34.3 1.8 4.9
v -34.3 1.9 4.9
v -34.2 0.9 4.9
v -34.2 1 4.9
v -34.2 1.2 4.9
v -34.2 1.3 4.9
v -34.2 1.5 4.9
v -34.2 1.9 4.9
v -34.1 0.8 4.9
v -34.1 0.9 4.9
v -34.1 1 4.9
v -34.1 1.1 4.9
v -34.1 1.4 4.9
v -34.1 1.5 4.9
v -34.1 1.6 4.9
v -34.1 1.7 4.9
v -34.1 1.8 4.9
v -34.1 1.9 4.9
v -34 0.9 4.9
v -34 1.1 4.9
v -34 1.2 4.9
v -34 1.3 4.9
v -34 1.4 4.9
v -34 1.6 4.9
v -33.9 1.1 4.9
v -33.9 1.2 4.9
v -33.9 1.3 4.9
v -33.9 1.4 4.9
v -33.8 1.1 4.9
v -33.8 1.2 4.9
v -33.8 1.3 4.9
v -33.8 1.4 4.9
v -33.7 1 4.9
v -33.7 1.1 4.9
v -33.7 1.2 4.9
v -33.7 1.3 4.9
v -33.7 1.4 4.9
v -33.7 1.5 4.9
v -33.6 0.8 4.9
v -33.6 0.9 4.9
v -33.6 1 4.9
v -33.6 1.1 4.9
v -33.6 1.4 4.9
v -33.6 1.5 4.9
v -33.6 1.6 4.9
v -33.6 1.7 4.9
v -33.5 0.9 4.9
v -33.5 1 4.9
v -33.5 1.5 4.9
v -33.5 1.6 4.9
v -33.4 1 4.9
v -33.4 1.5 4.9
v -35.5 2.3 4.8
v -35.5 2.5 4.8
v -35.4 2.3 4.8
v -35.4 2.5 4.8
v -34.6 1.2 4.8
v -34.6 1.3 4.8
v -34.6 2.1 4.8
v -34.6 2.2 4.8
v -34.3 2.1 4.8
v -34.3 2.2 4.8
v -34.2 1.9 4.8
v -34.2 2 4.8
v -33.9 1.9 4.8
v -33.9 2 4.8
v -33.8 1.2 4.8
v -33.8 1.3 4.8
v -33.8 1.9 4.8
v -33.8 2 4.8
v -34.7 1.2 4.7
v -34.7 1.3 4.7
v -34.6 1.2 4.7
v -34.6 1.3 4.7
v -35.5 2.5 4.6
v -35.5 2.6 4.6
v -35.3 2.5 4.6
v -35.3 2.6 4.6
v -34.7 1.1 4.6
v -34.7 1.2 4.6
v -34.6 1.1 4.6
v -34.6 1.2 4.6
v -35.9 0.8 5
v -35.4 0.8 5
v -34.1 0.8 5
v -33.6 0.8 5
v -35.9 0.8 4.9
v -35.4 0.8 4.9
v -34.1 0.8 4.9
v -33.6 0.8 4.9
v -36 0.9 5
v -35.9 0.9 5
v -35.4 0.9 5
v -35.3 0.9 5
v -34.2 0.9 5
v -34.1 0.9 5
v -33.6 0.9 5
v -33.5 0.9 5
v -36 0.9 4.9
v -35.9 0.9 4.9
v -35.4 0.9 4.9
v -35.3 0.9 4.9
v -34.2 0.9 4.9
v -34.1 0.9 4.9
v -33.6 0.9 4.9
v -33.5 0.9 4.9
v -36.1 1 5
v -36 1 5
v -35.3 1 5
v -35.2 1 5
v -34.3 1 5
v -34.2 1 5
v -33.7 1 5
v -33.6 1 5
v -33.5 1 5
v -33.4 1 5
v -36.1 1 4.9
v -36 1 4.9
v -35.3 1 4.9
v -35.2 1 4.9
v -34.3 1 4.9
v -34.2 1 4.9
v -33.7 1 4.9
v -33.6 1 4.9
v -33.5 1 4.9
v -33.4 1 4.9
v -34.7 1.1 5.3
v -34.6 1.1 5.3
v -34.7 1.1 5.1
v -34.6 1.1 5.1
v -34 1.1 5
v -33.9 1.1 5
v -33.8 1.1 5
v -33.7 1.1 5
v -34 1.1 4.9
v -33.9 1.1 4.9
v -33.8 1.1 4.9
v -33.7 1.1 4.9
v -34.7 1.1 4.8
v -34.6 1.1 4.8
v -34.7 1.1 4.6
v -34.6 1.1 4.6
v -34.7 1.2 5.1
v -34.6 1.2 5.1
v -34.5 1.2 5.1
v -34.1 1.2 5.1
v -33.8 1.2 5.1
v -35.7 1.2 5
v -35.6 1.2 5
v -34.9 1.2 5
v -34.7 1.2 5
v -34.4 1.2 5
v -34.3 1.2 5
v -34.2 1.2 5
v -34.1 1.2 5
v -34 1.2 5
v -33.9 1.2 5
v -33.8 1.2 5
v -35.7 1.2 4.9
v -35.6 1.2 4.9
v -34.9 1.2 4.9
v -34.7 1.2 4.9
v -34.5 1.2 4.9
v -34.4 1.2 4.9
v -34.3 1.2 4.9
v -34.2 1.2 4.9
v -34.1 1.2 4.9
v -34 1.2 4.9
v -33.9 1.2 4.9
v -33.8 1.2 4.9
v -34.7 1.2 4.8
v -34.6 1.2 4.8
v -33.8 1.2 4.8
v -33.8 1.3 5
v -33.7 1.3 5
v -33.8 1.3 4.9
v -33.7 1.3 4.9
v -35.6 1.4 5
v -35.5 1.4 5
v -35 1.4 5
v -34.9 1.4 5
v -34.1 1.4 5
v -34 1.4 5
v -33.7 1.4 5
v -33.6 1.4 5
v -35.6 1.4 4.9
v -35.5 1.4 4.9
v -35 1.4 4.9
v -34.9 1.4 4.9
v -34.1 1.4 4.9
v -34 1.4 4.9
v -33.7 1.4 4.9
v -33.6 1.4 4.9
v -34.2 1.5 5.1
v -34.1 1.5 5.1
v -36 1.5 5
v -35.9 1.5 5
v -35.4 1.5 5
v -35.3 1.5 5
v -35.1 1.5 5
v -35 1.5 5
v -34.6 1.5 5
v -34.5 1.5 5
v -34.2 1.5 5
v -34.1 1.5 5
v -33.6 1.5 5
v -33.5 1.5 5
v -36 1.5 4.9
v -35.9 1.5 4.9
v -35.4 1.5 4.9
v -35.3 1.5 4.9
v -35.1 1.5 4.9
v -35 1.5 4.9
v -34.6 1.5 4.9
v -34.5 1.5 4.9
v -34.2 1.5 4.9
v -34.1 1.5 4.9
v -33.6 1.5 4.9
v -33.5 1.5 4.9
v -35.9 1.6 5
v -35.6 1.6 5
v -35.5 1.6 5
v -35.4 1.6 5
v -35.3 1.6 5
v -35.2 1.6 5
v -35.1 1.6 5
v -34.4 1.6 5
v -34.3 1.6 5
v -34 1.6 5
v -33.6 1.6 5
v -35.9 1.6 4.9
v -35.6 1.6 4.9
v -35.5 1.6 4.9
v -35.4 1.6 4.9
v -35.3 1.6 4.9
v -35.2 1.6 4.9
v -35.1 1.6 4.9
v -34.4 1.6 4.9
v -34.3 1.6 4.9
v -34 1.6 4.9
v -33.6 1.6 4.9
v -35.4 1.7 5
v -35.3 1.7 5
v -34.5 1.7 5
v -34.4 1.7 5
v -35.4 1.7 4.9
v -35.3 1.7 4.9
v -34.5 1.7 4.9
v -34.4 1.7 4.9
v -35.5 1.8 5
v -35.4 1.8 5
v -35.3 1.8 5
v -35.1 1.8 5
v -35 1.8 5
v -34.9 1.8 5
v -34.6 1.8 5
v -34.4 1.8 5
v -34.3 1.8 5
v -34.1 1.8 5
v -35.5 1.8 4.9
v -35.4 1.8 4.9
v -35.3 1.8 4.9
v -35.1 1.8 4.9
v -35 1.8 4.9
v -34.9 1.8 4.9
v -34.6 1.8 4.9
v -34.4 1.8 4.9
v -34.3 1.8 4.9
v -34.1 1.8 4.9
v -34.2 1.9 5.1
v -34.1 1.9 5.1
v -34 1.9 5.1
v -33.8 1.9 5.1
v -34.2 1.9 5
v -34.1 1.9 5
v -34 1.9 5
v -34.2 1.9 4.9
v -34.1 1.9 4.9
v -33.9 1.9 4.9
v -34.2 1.9 4.8
v -33.9 1.9 4.8
v -33.8 1.9 4.8
v -34.5 2 5
v -34.4 2 5
v -34.5 2 4.9
v -34.4 2 4.9
v -34.6 2.1 5.1
v -34.3 2.1 5.1
v -34.7 2.1 5
v -34.6 2.1 5
v -34.5 2.1 5
v -34.4 2.1 5
v -34.7 2.1 4.9
v -34.6 2.1 4.9
v -34.5 2.1 4.9
v -34.4 2.1 4.9
v -34.6 2.1 4.8
v -34.3 2.1 4.8
v -35.5 2.3 5.1
v -35.4 2.3 5.1
v -35.5 2.3 5
v -35.4 2.3 5
v -35.5 2.3 4.9
v -35.4 2.3 4.9
v -35.5 2.3 4.8
v -35.4 2.3 4.8
v -35.5 2.5 5.3
v -35.3 2.5 5.3
v -35.5 2.5 5.2
v -35.4 2.5 5.2
v -35.3 2.5 5.2
v -35.5 2.5 5.1
v -35.4 2.5 5.1
v -35.5 2.5 4.8
v -35.4 2.5 4.8
v -35.5 2.5 4.7
v -35.4 2.5 4.7
v -35.3 2.5 4.7
v -35.5 2.5 4.6
v -35.3 2.5 4.6
v -35.9 0.9 5
v -35.4 0.9 5
v -34 0.9 5
v -33.6 0.9 5
v -35.9 0.9 4.9
v -35.4 0.9 4.9
v -34 0.9 4.9
v -33.6 0.9 4.9
v -36 1 5
v -35.9 1 5
v -35.4 1 5
v -35.3 1 5
v -34.2 1 5
v -34.1 1 5
v -33.6 1 5
v -33.5 1 5
v -36 1 4.9
v -35.9 1 4.9
v -35.4 1 4.9
v -35.3 1 4.9
v -34.2 1 4.9
v -34.1 1 4.9
v -33.6 1 4.9
v -33.5 1 4.9
v -34.1 1.1 5
v -34 1.1 5
v -33.7 1.1 5
v -33.6 1.1 5
v -34.1 1.1 4.9
v -34 1.1 4.9
v -33.7 1.1 4.9
v -33.6 1.1 4.9
v -34.7 1.2 5.3
v -34.6 1.2 5.3
v -34.7 1.2 5.2
v -34.6 1.2 5.2
v -33.8 1.2 5
v -33.7 1.2 5
v -33.8 1.2 4.9
v -33.7 1.2 4.9
v -34.7 1.2 4.7
v -34.6 1.2 4.7
v -34.7 1.2 4.6
v -34.6 1.2 4.6
v -34.7 1.3 5.2
v -34.6 1.3 5.2
v -34.7 1.3 5.1
v -34.6 1.3 5.1
v -34.5 1.3 5.1
v -34.1 1.3 5.1
v -33.8 1.3 5.1
v -34.7 1.3 5
v -34.6 1.3 5
v -34.4 1.3 5
v -34.3 1.3 5
v -34.2 1.3 5
v -34.1 1.3 5
v -34 1.3 5
v -33.9 1.3 5
v -33.8 1.3 5
v -34.7 1.3 4.9
v -34.6 1.3 4.9
v -34.5 1.3 4.9
v -34.4 1.3 4.9
v -34.3 1.3 4.9
v -34.2 1.3 4.9
v -34.1 1.3 4.9
v -34 1.3 4.9
v -33.9 1.3 4.9
v -33.8 1.3 4.9
v -34.7 1.3 4.8
v -34.6 1.3 4.8
v -33.8 1.3 4.8
v -34.7 1.3 4.7
v -34.6 1.3 4.7
v -35.7 1.4 5
v -35.6 1.4 5
v -34.8 1.4 5
v -34.7 1.4 5
v -34 1.4 5
v -33.9 1.4 5
v -33.8 1.4 5
v -33.7 1.4 5
v -35.7 1.4 4.9
v -35.6 1.4 4.9
v -34.8 1.4 4.9
v -34.7 1.4 4.9
v -34 1.4 4.9
v -33.9 1.4 4.9
v -33.8 1.4 4.9
v -33.7 1.4 4.9
v -36.1 1.5 5
v -36 1.5 5
v -35.3 1.5 5
v -35.2 1.5 5
v -35 1.5 5
v -34.8 1.5 5
v -34.7 1.5 5
v -34.6 1.5 5
v -33.7 1.5 5
v -33.6 1.5 5
v -33.5 1.5 5
v -33.4 1.5 5
v -36.1 1.5 4.9
v -36 1.5 4.9
v -35.3 1.5 4.9
v -35.2 1.5 4.9
v -35 1.5 4.9
v -34.8 1.5 4.9
v -34.7 1.5 4.9
v -34.6 1.5 4.9
v -33.7 1.5 4.9
v -33.6 1.5 4.9
v -33.5 1.5 4.9
v -33.4 1.5 4.9
v -34.2 1.6 5.1
v -34.1 1.6 5.1
v -36 1.6 5
v -35.9 1.6 5
v -35.4 1.6 5
v -35.3 1.6 5
v -35.1 1.6 5
v -35 1.6 5
v -34.2 1.6 5
v -34.1 1.6 5
v -33.6 1.6 5
v -33.5 1.6 5
v -36 1.6 4.9
v -35.9 1.6 4.9
v -35.4 1.6 4.9
v -35.3 1.6 4.9
v -35.1 1.6 4.9
v -35 1.6 4.9
v -33.6 1.6 4.9
v -33.5 1.6 4.9
v -35.9 1.7 5
v -35.6 1.7 5
v -35.5 1.7 5
v -35.4 1.7 5
v -35.3 1.7 5
v -35.2 1.7 5
v -35.1 1.7 5
v -34.4 1.7 5
v -34.1 1.7 5
v -33.6 1.7 5
v -35.9 1.7 4.9
v -35.6 1.7 4.9
v -35.5 1.7 4.9
v -35.4 1.7 4.9
v -35.3 1.7 4.9
v -35.2 1.7 4.9
v -35.1 1.7 4.9
v -34.4 1.7 4.9
v -34.1 1.7 4.9
v -33.6 1.7 4.9
v -35.6 1.9 5
v -35.5 1.9 5
v -35.4 1.9 5
v -35.1 1.9 5
v -35 1.9 5
v -34.9 1.9 5
v -34.6 1.9 5
v -34.5 1.9 5
v -34.4 1.9 5
v -34.3 1.9 5
v -34.2 1.9 5
v -35.6 1.9 4.9
v -35.5 1.9 4.9
v -35.4 1.9 4.9
v -35.1 1.9 4.9
v -35 1.9 4.9
v -34.9 1.9 4.9
v -34.6 1.9 4.9
v -34.5 1.9 4.9
v -34.4 1.9 4.9
v -34.3 1.9 4.9
v -34.2 1.9 4.9
v -34.2 2 5.1
v -34.1 2 5.1
v -34 2 5.1
v -33.8 2 5.1
v -34.6 2 5
v -34.5 2 5
v -34.1 2 5
v -34 2 5
v -34.6 2 4.9
v -34.5 2 4.9
v -34.2 2 4.9
v -33.9 2 4.9
v -34.2 2 4.8
v -33.9 2 4.8
v -33.8 2 4.8
v -34.6 2.2 5.1
v -34.3 2.2 5.1
v -34.7 2.2 5
v -34.6 2.2 5
v -34.7 2.2 4.9
v -34.6 2.2 4.9
v -34.6 2.2 4.8
v -34.3 2.2 4.8
v -35.5 2.4 5
v -35.4 2.4 5
v -35.5 2.4 4.9
v -35.4 2.4 4.9
v -35.5 2.6 5.3
v -35.3 2.6 5.3
v -35.5 2.6 5.2
v -35.4 2.6 5.2
v -35.3 2.6 5.2
v -35.5 2.6 5.1
v -35.4 2.6 5.1
v -35.5 2.6 5
v -35.4 2.6 5
v -35.5 2.6 4.9
v -35.4 2.6 4.9
v -35.5 2.6 4.8
v -35.4 2.6 4.8
v -35.5 2.6 4.7
v -35.4 2.6 4.7
v -35.3 2.6 4.7
v -35.5 2.6 4.6
v -35.3 2.6 4.6

# faces
f 3/3/1 2/3/1 1/3/1
f 4/3/1 2/3/1 3/3/1
f 7/3/1 6/3/1 5/3/1
f 8/3/1 6/3/1 7/3/1
f 11/3/1 10/3/1 9/3/1
f 12/3/1 10/3/1 11/3/1
f 15/3/1 14/3/1 13/3/1
f 16/3/1 14/3/1 15/3/1
f 19/3/1 18/3/1 17/3/1
f 20/3/1 18/3/1 19/3/1
f 23/1/1 22/1/1 21/1/1
f 24/1/1 22/1/1 23/1/1
f 25/2/1 24/2/1 23/2/1
f 26/2/1 24/2/1 25/2/1
f 29/2/1 28/2/1 27/2/1
f 30/2/1 28/2/1 29/2/1
f 33/1/1 32/1/1 31/1/1
f 34/1/1 32/1/1 33/1/1
f 35/2/1 34/2/1 33/2/1
f 36/2/1 34/2/1 35/2/1
f 40/2/1 38/2/1 37/2/1
f 41/2/1 38/2/1 40/2/1
f 43/2/1 40/2/1 39/2/1
f 43/2/1 42/2/1 41/2/1
f 43/2/1 41/2/1 40/2/1
f 44/2/1 42/2/1 43/2/1
f 47/2/1 43/2/1 39/2/1
f 48/2/1 43/2/1 47/2/1
f 49/2/1 42/2/1 44/2/1
f 52/4/1 46/4/1 45/4/1
f 53/2/1 47/2/1 46/2/1
f 53/4/1 46/4/1 52/4/1
f 54/1/1 48/1/1 47/1/1
f 54/2/1 47/2/1 53/2/1
f 55/1/1 48/1/1 54/1/1
f 56/2/1 49/2/1 44/2/1
f 57/1/1 50/1/1 49/1/1
f 57/2/1 49/2/1 56/2/1
f 58/4/1 51/4/1 50/4/1
f 58/1/1 50/1/1 57/1/1
f 59/4/1 51/4/1 58/4/1
f 62/3/1 61/3/1 60/3/1
f 63/3/1 61/3/1 62/3/1
f 66/3/1 65/3/1 64/3/1
f 67/3/1 65/3/1 66/3/1
f 70/1/1 69/1/1 68/1/1
f 71/1/1 69/1/1 70/1/1
f 74/3/1 73/3/1 72/3/1
f 75/3/1 73/3/1 74/3/1
f 78/1/1 77/1/1 76/1/1
f 79/1/1 77/1/1 78/1/1
f 82/1/1 81/1/1 80/1/1
f 83/1/1 81/1/1 82/1/1
f 86/1/1 85/1/1 84/1/1
f 87/1/1 85/1/1 86/1/1
f 90/1/1 89/1/1 88/1/1
f 91/1/1 89/1/1 90/1/1
f 96/3/1 93/3/1 92/3/1
f 97/3/1 93/3/1 96/3/1
f 98/3/1 93/3/1 97/3/1
f 101/3/1 95/3/1 94/3/1
f 102/3/1 95/3/1 101/3/1
f 103/3/1 95/3/1 102/3/1
f 104/5/1 98/5/1 97/5/1
f 105/1/1 99/1/1 98/1/1
f 105/5/1 98/5/1 104/5/1
f 106/1/1 99/1/1 105/1/1
f 107/1/1 101/1/1 100/1/1
f 108/5/1 102/5/1 101/5/1
f 108/1/1 101/1/1 107/1/1
f 109/5/1 102/5/1 108/5/1
f 112/1/1 111/1/1 110/1/1
f 113/1/1 111/1/1 112/1/1
f 116/3/1 115/3/1 114/3/1
f 117/3/1 115/3/1 116/3/1
f 120/1/1 119/1/1 118/1/1
f 121/1/1 119/1/1 120/1/1
f 122/2/1 121/2/1 120/2/1
f 123/2/1 121/2/1 122/2/1
f 126/2/1 125/2/1 124/2/1
f 127/2/1 125/2/1 126/2/1
f 132/3/1 129/3/1 128/3/1
f 133/3/1 129/3/1 132/3/1
f 134/3/1 131/3/1 130/3/1
f 135/3/1 131/3/1 134/3/1
f 138/2/1 137/2/1 136/2/1
f 139/2/1 137/2/1 138/2/1
f 142/1/1 141/1/1 140/1/1
f 143/1/1 141/1/1 142/1/1
f 146/3/1 145/3/1 144/3/1
f 147/3/1 145/3/1 146/3/1
f 150/3/1 149/3/1 148/3/1
f 151/3/1 149/3/1 150/3/1
f 152/1/1 151/1/1 150/1/1
f 153/1/1 151/1/1 152/1/1
f 156/3/1 155/3/1 154/3/1
f 157/3/1 155/3/1 156/3/1
f 160/1/1 159/1/1 158/1/1
f 161/1/1 159/1/1 160/1/1
f 166/2/1 164/2/1 163/2/1
f 166/2/1 163/2/1 162/2/1
f 167/1/1 165/1/1 164/1/1
f 167/2/1 164/2/1 166/2/1
f 168/1/1 165/1/1 167/1/1
f 171/3/1 170/3/1 169/3/1
f 172/3/1 170/3/1 171/3/1
f 175/5/1 174/5/1 173/5/1
f 176/5/1 174/5/1 175/5/1
f 179/1/1 178/1/1 177/1/1
f 180/1/1 178/1/1 179/1/1
f 183/1/1 182/1/1 181/1/1
f 184/1/1 182/1/1 183/1/1
f 187/5/1 186/5/1 185/5/1
f 188/5/1 186/5/1 187/5/1
f 191/1/1 190/1/1 189/1/1
f 192/1/1 190/1/1 191/1/1
f 195/5/1 194/5/1 193/5/1
f 196/5/1 194/5/1 195/5/1
f 199/5/1 198/5/1 197/5/1
f 200/5/1 198/5/1 199/5/1
f 203/5/1 202/5/1 201/5/1
f 204/5/1 202/5/1 203/5/1
f 207/5/1 206/5/1 205/5/1
f 208/5/1 206/5/1 207/5/1
f 211/3/1 210/3/1 209/3/1
f 212/3/1 210/3/1 211/3/1
f 215/3/1 214/3/1 213/3/1
f 216/3/1 214/3/1 215/3/1
f 219/3/1 218/3/1 217/3/1
f 220/3/1 218/3/1 219/3/1
f 221/3/2 222/3/2 223/3/2
f 223/3/2 222/3/2 224/3/2
f 225/3/2 226/3/2 227/3/2
f 227/3/2 226/3/2 228/3/2
f 229/3/2 230/3/2 231/3/2
f 231/3/2 230/3/2 232/3/2
f 233/1/2 234/1/2 235/1/2
f 235/1/2 234/1/2 236/1/2
f 235/2/2 236/2/2 237/2/2
f 237/2/2 236/2/2 238/2/2
f 239/2/2 240/2/2 241/2/2
f 241/2/2 240/2/2 242/2/2
f 243/1/2 244/1/2 245/1/2
f 245/1/2 244/1/2 246/1/2
f 247/3/2 248/3/2 249/3/2
f 249/3/2 248/3/2 250/3/2
f 251/3/2 252/3/2 253/3/2
f 253/3/2 252/3/2 254/3/2
f 255/2/2 256/2/2 258/2/2
f 258/2/2 256/2/2 259/2/2
f 258/2/2 259/2/2 261/2/2
f 259/2/2 260/2/2 261/2/2
f 257/2/2 258/2/2 261/2/2
f 261/2/2 260/2/2 262/2/2
f 257/2/2 261/2/2 264/2/2
f 264/2/2 261/2/2 265/2/2
f 262/2/2 260/2/2 266/2/2
f 263/2/2 264/2/2 268/2/2
f 264/1/2 265/1/2 269/1/2
f 268/2/2 264/2/2 269/2/2
f 269/1/2 265/1/2 270/1/2
f 262/2/2 266/2/2 271/2/2
f 266/1/2 267/1/2 272/1/2
f 271/2/2 266/2/2 272/2/2
f 272/1/2 267/1/2 273/1/2
f 274/3/2 275/3/2 276/3/2
f 276/3/2 275/3/2 277/3/2
f 278/3/2 279/3/2 280/3/2
f 280/3/2 279/3/2 281/3/2
f 282/1/2 283/1/2 284/1/2
f 284/1/2 283/1/2 285/1/2
f 286/4/2 287/4/2 290/4/2
f 290/4/2 287/4/2 291/4/2
f 288/4/2 289/4/2 292/4/2
f 292/4/2 289/4/2 293/4/2
f 294/3/2 295/3/2 296/3/2
f 296/3/2 295/3/2 297/3/2
f 298/2/2 299/2/2 300/2/2
f 300/2/2 299/2/2 301/2/2
f 302/1/2 303/1/2 304/1/2
f 304/1/2 303/1/2 305/1/2
f 306/1/2 307/1/2 308/1/2
f 308/1/2 307/1/2 309/1/2
f 310/3/2 311/3/2 314/3/2
f 314/3/2 311/3/2 315/3/2
f 315/3/2 311/3/2 316/3/2
f 312/3/2 313/3/2 317/3/2
f 317/3/2 313/3/2 318/3/2
f 318/3/2 313/3/2 319/3/2
f 315/5/2 316/5/2 320/5/2
f 320/5/2 316/5/2 321/5/2
f 317/5/2 318/5/2 324/5/2
f 324/5/2 318/5/2 325/5/2
f 322/1/2 323/1/2 326/1/2
f 326/1/2 323/1/2 327/1/2
f 328/1/2 329/1/2 330/1/2
f 330/1/2 329/1/2 331/1/2
f 332/2/2 333/2/2 334/2/2
f 334/2/2 333/2/2 335/2/2
f 336/1/2 337/1/2 338/1/2
f 338/1/2 337/1/2 339/1/2
f 340/2/2 341/2/2 342/2/2
f 342/2/2 341/2/2 343/2/2
f 344/3/2 345/3/2 346/3/2
f 346/3/2 345/3/2 347/3/2
f 348/3/2 349/3/2 350/3/2
f 350/3/2 349/3/2 351/3/2
f 350/1/2 351/1/2 352/1/2
f 352/1/2 351/1/2 353/1/2
f 352/3/2 353/3/2 354/3/2
f 354/3/2 353/3/2 355/3/2
f 356/1/2 357/1/2 358/1/2
f 358/1/2 357/1/2 359/1/2
f 360/1/2 361/1/2 362/1/2
f 362/1/2 361/1/2 363/1/2
f 364/5/2 365/5/2 366/5/2
f 366/5/2 365/5/2 367/5/2
f 368/1/2 369/1/2 370/1/2
f 370/1/2 369/1/2 371/1/2
f 372/5/2 373/5/2 374/5/2
f 374/5/2 373/5/2 375/5/2
f 376/1/2 377/1/2 378/1/2
f 378/1/2 377/1/2 379/1/2
f 380/1/2 381/1/2 384/1/2
f 382/1/2 383/1/2 384/1/2
f 381/1/2 382/1/2 384/1/2
f 384/1/2 383/1/2 385/1/2
f 385/1/2 383/1/2 386/1/2
f 386/1/2 383/1/2 387/1/2
f 388/2/2 389/2/2 390/2/2
f 390/2/2 389/2/2 391/2/2
f 392/5/2 393/5/2 394/5/2
f 394/5/2 393/5/2 395/5/2
f 396/5/2 397/5/2 398/5/2
f 398/5/2 397/5/2 399/5/2
f 400/3/2 401/3/2 402/3/2
f 402/3/2 401/3/2 403/3/2
f 404/5/2 405/5/2 406/5/2
f 406/5/2 405/5/2 407/5/2
f 408/5/2 409/5/2 410/5/2
f 410/5/2 409/5/2 411/5/2
f 412/3/2 413/3/2 414/3/2
f 414/3/2 413/3/2 415/3/2
f 416/3/2 417/3/2 418/3/2
f 418/3/2 417/3/2 419/3/2
f 420/3/2 421/3/2 422/3/2
f 422/3/2 421/3/2 423/3/2
f 424/3/2 425/3/2 426/3/2
f 426/3/2 425/3/2 427/3/2
f 430/4/3 429/4/3 428/4/3
f 431/4/3 429/4/3 430/4/3
f 434/3/3 433/3/3 432/3/3
f 435/3/3 433/3/3 434/3/3
f 438/5/3 437/5/3 436/5/3
f 439/5/3 437/5/3 438/5/3
f 442/2/3 441/2/3 440/2/3
f 443/2/3 441/2/3 442/2/3
f 448/1/3 445/1/3 444/1/3
f 449/1/3 445/1/3 448/1/3
f 450/3/3 447/3/3 446/3/3
f 451/3/3 447/3/3 450/3/3
f 456/2/3 449/2/3 448/2/3
f 457/2/3 449/2/3 456/2/3
f 458/1/3 453/1/3 452/1/3
f 459/1/3 453/1/3 458/1/3
f 460/2/3 455/2/3 454/2/3
f 461/2/3 455/2/3 460/2/3
f 462/1/3 461/1/3 460/1/3
f 463/1/3 461/1/3 462/1/3
f 464/1/3 457/1/3 456/1/3
f 465/1/3 457/1/3 464/1/3
f 466/2/3 463/2/3 462/2/3
f 467/2/3 463/2/3 466/2/3
f 471/3/3 469/3/3 468/3/3
f 472/3/3 469/3/3 471/3/3
f 475/3/3 471/3/3 470/3/3
f 476/3/3 471/3/3 475/3/3
f 477/3/3 473/3/3 472/3/3
f 478/3/3 473/3/3 477/3/3
f 483/1/3 481/1/3 480/1/3
f 484/2/3 482/2/3 481/2/3
f 484/1/3 481/1/3 483/1/3
f 485/2/3 482/2/3 484/2/3
f 486/3/3 479/3/3 478/3/3
f 487/3/3 479/3/3 486/3/3
f 490/2/3 486/2/3 485/2/3
f 491/3/3 487/3/3 486/3/3
f 491/2/3 486/2/3 490/2/3
f 492/1/3 488/1/3 487/1/3
f 492/3/3 487/3/3 491/3/3
f 493/2/3 489/2/3 488/2/3
f 493/1/3 488/1/3 492/1/3
f 494/2/3 489/2/3 493/2/3
f 496/3/3 475/3/3 474/3/3
f 497/3/3 475/3/3 496/3/3
f 500/3/3 492/3/3 491/3/3
f 501/3/3 492/3/3 500/3/3
f 502/2/3 495/2/3 494/2/3
f 502/2/3 494/2/3 493/2/3
f 503/2/3 495/2/3 502/2/3
f 504/2/3 495/2/3 503/2/3
f 505/3/3 498/3/3 497/3/3
f 506/3/3 498/3/3 505/3/3
f 507/3/3 500/3/3 499/3/3
f 508/3/3 500/3/3 507/3/3
f 509/1/3 502/1/3 501/1/3
f 510/2/3 503/2/3 502/2/3
f 510/1/3 502/1/3 509/1/3
f 511/3/3 507/3/3 506/3/3
f 512/3/3 507/3/3 511/3/3
f 513/1/3 509/1/3 508/1/3
f 514/1/3 509/1/3 513/1/3
f 516/2/3 514/2/3 513/2/3
f 517/2/3 514/2/3 516/2/3
f 518/2/3 503/2/3 510/2/3
f 519/2/3 503/2/3 518/2/3
f 521/1/3 516/1/3 515/1/3
f 522/1/3 516/1/3 521/1/3
f 523/1/3 519/1/3 518/1/3
f 524/1/3 519/1/3 523/1/3
f 526/1/3 521/1/3 520/1/3
f 527/2/3 524/2/3 523/2/3
f 528/2/3 524/2/3 527/2/3
f 529/1/3 526/1/3 525/1/3
f 529/1/3 521/1/3 526/1/3
f 530/1/3 521/1/3 529/1/3
f 531/1/3 529/1/3 525/1/3
f 532/1/3 529/1/3 531/1/3
f 533/1/3 529/1/3 532/1/3
f 537/1/3 534/1/3 533/1/3
f 537/1/3 533/1/3 532/1/3
f 538/1/3 534/1/3 537/1/3
f 540/1/3 528/1/3 527/1/3
f 541/1/3 528/1/3 540/1/3
f 543/3/3 536/3/3 535/3/3
f 544/3/3 536/3/3 543/3/3
f 545/1/3 539/1/3 538/1/3
f 546/2/3 540/2/3 539/2/3
f 546/1/3 539/1/3 545/1/3
f 547/1/3 541/1/3 540/1/3
f 547/2/3 540/2/3 546/2/3
f 548/2/3 542/2/3 541/2/3
f 548/1/3 541/1/3 547/1/3
f 549/2/3 542/2/3 548/2/3
f 552/1/3 547/1/3 546/1/3
f 552/1/3 548/1/3 547/1/3
f 553/1/3 548/1/3 552/1/3
f 554/1/3 548/1/3 553/1/3
f 555/2/3 550/2/3 549/2/3
f 556/2/3 550/2/3 555/2/3
f 561/1/3 552/1/3 551/1/3
f 562/2/3 554/2/3 553/2/3
f 563/2/3 554/2/3 562/2/3
f 565/3/3 558/3/3 557/3/3
f 566/3/3 558/3/3 565/3/3
f 567/3/3 560/3/3 559/3/3
f 568/1/3 561/1/3 560/1/3
f 568/3/3 560/3/3 567/3/3
f 569/1/3 552/1/3 561/1/3
f 569/1/3 561/1/3 568/1/3
f 570/1/3 563/1/3 562/1/3
f 572/3/3 565/3/3 564/3/3
f 573/3/3 565/3/3 572/3/3
f 577/1/3 552/1/3 569/1/3
f 578/1/3 552/1/3 577/1/3
f 579/1/3 570/1/3 562/1/3
f 580/1/3 570/1/3 579/1/3
f 581/3/3 572/3/3 571/3/3
f 581/5/3 573/5/3 572/5/3
f 581/5/3 574/5/3 573/5/3
f 582/5/3 574/5/3 581/5/3
f 585/1/3 576/1/3 575/1/3
f 585/1/3 577/1/3 576/1/3
f 586/3/3 578/3/3 577/3/3
f 586/1/3 577/1/3 585/1/3
f 587/5/3 583/5/3 582/5/3
f 588/5/3 583/5/3 587/5/3
f 589/1/3 585/1/3 584/1/3
f 590/1/3 585/1/3 589/1/3
f 596/5/3 592/5/3 591/5/3
f 597/5/3 592/5/3 596/5/3
f 598/5/3 594/5/3 593/5/3
f 599/5/3 594/5/3 598/5/3
f 601/3/3 581/3/3 571/3/3
f 602/3/3 581/3/3 601/3/3
f 603/5/3 596/5/3 595/5/3
f 604/5/3 596/5/3 603/5/3
f 605/5/3 600/5/3 599/5/3
f 606/5/3 600/5/3 605/5/3
f 607/3/3 578/3/3 586/3/3
f 608/3/3 578/3/3 607/3/3
f 609/3/3 603/3/3 602/3/3
f 610/3/3 603/3/3 609/3/3
f 611/3/3 607/3/3 606/3/3
f 612/3/3 607/3/3 611/3/3
f 613/3/3 611/3/3 610/3/3
f 614/3/3 611/3/3 613/3/3
f 617/2/3 616/2/3 615/2/3
f 618/2/3 616/2/3 617/2/3
f 621/1/3 620/1/3 619/1/3
f 622/1/3 620/1/3 621/1/3
f 625/3/3 624/3/3 623/3/3
f 626/3/3 624/3/3 625/3/3
f 629/4/3 628/4/3 627/4/3
f 630/4/3 628/4/3 629/4/3
f 631/4/4 632/4/4 633/4/4
f 633/4/4 632/4/4 634/4/4
f 635/3/4 636/3/4 637/3/4
f 637/3/4 636/3/4 638/3/4
f 639/2/4 640/2/4 642/2/4
f 640/1/4 641/1/4 643/1/4
f 642/2/4 640/2/4 643/2/4
f 643/1/4 641/1/4 644/1/4
f 645/2/4 646/2/4 647/2/4
f 647/2/4 646/2/4 648/2/4
f 649/3/4 650/3/4 652/3/4
f 652/3/4 650/3/4 653/3/4
f 651/3/4 652/3/4 656/3/4
f 656/3/4 652/3/4 657/3/4
f 653/3/4 654/3/4 658/3/4
f 658/3/4 654/3/4 659/3/4
f 661/1/4 662/1/4 664/1/4
f 662/2/4 663/2/4 665/2/4
f 664/1/4 662/1/4 665/1/4
f 665/2/4 663/2/4 666/2/4
f 659/3/4 660/3/4 667/3/4
f 667/3/4 660/3/4 668/3/4
f 666/2/4 667/2/4 671/2/4
f 667/3/4 668/3/4 672/3/4
f 671/2/4 667/2/4 672/2/4
f 668/1/4 669/1/4 673/1/4
f 672/3/4 668/3/4 673/3/4
f 669/2/4 670/2/4 674/2/4
f 673/1/4 669/1/4 674/1/4
f 674/2/4 670/2/4 675/2/4
f 655/3/4 656/3/4 677/3/4
f 677/3/4 656/3/4 678/3/4
f 672/3/4 673/3/4 681/3/4
f 681/3/4 673/3/4 682/3/4
f 675/2/4 676/2/4 683/2/4
f 674/2/4 675/2/4 683/2/4
f 683/2/4 676/2/4 684/2/4
f 684/2/4 676/2/4 685/2/4
f 678/3/4 679/3/4 686/3/4
f 686/3/4 679/3/4 687/3/4
f 680/3/4 681/3/4 688/3/4
f 688/3/4 681/3/4 689/3/4
f 682/1/4 683/1/4 690/1/4
f 683/2/4 684/2/4 691/2/4
f 690/1/4 683/1/4 691/1/4
f 687/3/4 688/3/4 692/3/4
f 692/3/4 688/3/4 693/3/4
f 689/1/4 690/1/4 694/1/4
f 694/1/4 690/1/4 695/1/4
f 694/2/4 695/2/4 697/2/4
f 697/2/4 695/2/4 698/2/4
f 691/2/4 684/2/4 699/2/4
f 699/2/4 684/2/4 700/2/4
f 696/1/4 697/1/4 702/1/4
f 702/1/4 697/1/4 703/1/4
f 699/1/4 700/1/4 704/1/4
f 704/1/4 700/1/4 705/1/4
f 701/1/4 702/1/4 707/1/4
f 704/2/4 705/2/4 708/2/4
f 708/2/4 705/2/4 709/2/4
f 706/1/4 707/1/4 710/1/4
f 707/1/4 702/1/4 710/1/4
f 710/1/4 702/1/4 711/1/4
f 706/1/4 710/1/4 712/1/4
f 712/1/4 710/1/4 713/1/4
f 713/1/4 710/1/4 714/1/4
f 714/1/4 715/1/4 718/1/4
f 713/1/4 714/1/4 718/1/4
f 718/1/4 715/1/4 719/1/4
f 708/1/4 709/1/4 721/1/4
f 721/1/4 709/1/4 722/1/4
f 716/3/4 717/3/4 724/3/4
f 724/3/4 717/3/4 725/3/4
f 719/1/4 720/1/4 726/1/4
f 720/2/4 721/2/4 727/2/4
f 726/1/4 720/1/4 727/1/4
f 721/1/4 722/1/4 728/1/4
f 727/2/4 721/2/4 728/2/4
f 722/2/4 723/2/4 729/2/4
f 728/1/4 722/1/4 729/1/4
f 729/2/4 723/2/4 730/2/4
f 727/1/4 728/1/4 733/1/4
f 728/1/4 729/1/4 733/1/4
f 733/1/4 729/1/4 734/1/4
f 734/1/4 729/1/4 735/1/4
f 730/2/4 731/2/4 736/2/4
f 736/2/4 731/2/4 737/2/4
f 732/1/4 733/1/4 742/1/4
f 734/2/4 735/2/4 743/2/4
f 743/2/4 735/2/4 744/2/4
f 738/3/4 739/3/4 746/3/4
f 746/3/4 739/3/4 747/3/4
f 740/3/4 741/3/4 748/3/4
f 741/1/4 742/1/4 749/1/4
f 748/3/4 741/3/4 749/3/4
f 743/1/4 744/1/4 750/1/4
f 745/3/4 746/3/4 752/3/4
f 752/3/4 746/3/4 753/3/4
f 749/1/4 742/1/4 756/1/4
f 742/1/4 733/1/4 757/1/4
f 756/1/4 742/1/4 757/1/4
f 757/1/4 733/1/4 758/1/4
f 743/1/4 750/1/4 759/1/4
f 759/1/4 750/1/4 760/1/4
f 753/5/4 754/5/4 761/5/4
f 751/3/4 752/3/4 761/3/4
f 752/5/4 753/5/4 761/5/4
f 761/5/4 754/5/4 762/5/4
f 755/1/4 756/1/4 765/1/4
f 756/1/4 757/1/4 765/1/4
f 757/3/4 758/3/4 766/3/4
f 765/1/4 757/1/4 766/1/4
f 762/5/4 763/5/4 767/5/4
f 767/5/4 763/5/4 768/5/4
f 764/1/4 765/1/4 769/1/4
f 769/1/4 765/1/4 770/1/4
f 771/5/4 772/5/4 776/5/4
f 776/5/4 772/5/4 777/5/4
f 773/5/4 774/5/4 778/5/4
f 778/5/4 774/5/4 779/5/4
f 751/3/4 761/3/4 781/3/4
f 781/3/4 761/3/4 782/3/4
f 775/5/4 776/5/4 783/5/4
f 783/5/4 776/5/4 784/5/4
f 779/5/4 780/5/4 785/5/4
f 785/5/4 780/5/4 786/5/4
f 766/3/4 758/3/4 787/3/4
f 787/3/4 758/3/4 788/3/4
f 782/3/4 783/3/4 789/3/4
f 789/3/4 783/3/4 790/3/4
f 786/3/4 787/3/4 791/3/4
f 791/3/4 787/3/4 792/3/4
f 790/3/4 791/3/4 793/3/4
f 793/3/4 791/3/4 794/3/4
f 795/2/4 796/2/4 797/2/4
f 797/2/4 796/2/4 798/2/4
f 801/3/4 802/3/4 803/3/4
f 803/3/4 802/3/4 804/3/4
f 805/1/4 806/1/4 807/1/4
f 807/1/4 806/1/4 808/1/4
f 799/1/4 800/1/4 809/1/4
f 809/1/4 800/1/4 810/1/4
f 807/2/4 808/2/4 811/2/4
f 811/2/4 808/2/4 812/2/4
f 813/5/4 814/5/4 815/5/4
f 815/5/4 814/5/4 816/5/4
f 817/4/4 818/4/4 819/4/4
f 819/4/4 818/4/4 820/4/4
f 821/3/4 822/3/4 823/3/4
f 823/3/4 822/3/4 824/3/4
f 829/3/5 826/3/5 825/3/5
f 830/3/5 826/3/5 829/3/5
f 831/3/5 828/3/5 827/3/5
f 832/3/5 828/3/5 831/3/5
f 841/3/5 834/3/5 833/3/5
f 842/3/5 834/3/5 841/3/5
f 843/3/5 836/3/5 835/3/5
f 844/3/5 836/3/5 843/3/5
f 845/3/5 838/3/5 837/3/5
f 846/3/5 838/3/5 845/3/5
f 847/3/5 840/3/5 839/3/5
f 848/3/5 840/3/5 847/3/5
f 859/3/5 850/3/5 849/3/5
f 860/3/5 850/3/5 859/3/5
f 861/3/5 852/3/5 851/3/5
f 862/3/5 852/3/5 861/3/5
f 863/3/5 854/3/5 853/3/5
f 864/3/5 854/3/5 863/3/5
f 865/5/5 856/5/5 855/5/5
f 866/5/5 856/5/5 865/5/5
f 867/3/5 858/3/5 857/3/5
f 868/3/5 858/3/5 867/3/5
f 871/3/5 870/3/5 869/3/5
f 872/3/5 870/3/5 871/3/5
f 877/5/5 874/5/5 873/5/5
f 878/5/5 874/5/5 877/5/5
f 879/5/5 876/5/5 875/5/5
f 880/5/5 876/5/5 879/5/5
f 883/3/5 882/3/5 881/3/5
f 884/3/5 882/3/5 883/3/5
f 893/1/5 886/1/5 885/1/5
f 893/1/5 887/1/5 886/1/5
f 894/2/5 888/2/5 887/2/5
f 895/2/5 888/2/5 894/2/5
f 896/2/5 888/2/5 895/2/5
f 897/1/5 889/1/5 888/1/5
f 897/2/5 888/2/5 896/2/5
f 898/1/5 889/1/5 897/1/5
f 899/1/5 889/1/5 898/1/5
f 900/1/5 889/1/5 899/1/5
f 901/1/5 891/1/5 890/1/5
f 902/1/5 891/1/5 901/1/5
f 903/1/5 893/1/5 892/1/5
f 904/1/5 887/1/5 893/1/5
f 904/1/5 893/1/5 903/1/5
f 905/2/5 894/2/5 887/2/5
f 905/1/5 887/1/5 904/1/5
f 906/1/5 895/1/5 894/1/5
f 906/2/5 894/2/5 905/2/5
f 907/1/5 895/1/5 906/1/5
f 909/1/5 898/1/5 897/1/5
f 910/1/5 898/1/5 909/1/5
f 911/1/5 900/1/5 899/1/5
f 912/1/5 900/1/5 911/1/5
f 913/1/5 910/1/5 909/1/5
f 913/1/5 912/1/5 911/1/5
f 913/1/5 911/1/5 910/1/5
f 913/1/5 909/1/5 908/1/5
f 913/1/5 905/1/5 904/1/5
f 913/1/5 907/1/5 906/1/5
f 913/1/5 906/1/5 905/1/5
f 913/1/5 908/1/5 907/1/5
f 914/1/5 912/1/5 913/1/5
f 915/1/5 912/1/5 914/1/5
f 918/5/5 917/5/5 916/5/5
f 919/5/5 917/5/5 918/5/5
f 928/2/5 921/2/5 920/2/5
f 929/2/5 921/2/5 928/2/5
f 930/1/5 923/1/5 922/1/5
f 931/1/5 923/1/5 930/1/5
f 932/1/5 925/1/5 924/1/5
f 933/1/5 925/1/5 932/1/5
f 934/5/5 927/5/5 926/5/5
f 935/5/5 927/5/5 934/5/5
f 946/1/5 937/1/5 936/1/5
f 947/1/5 937/1/5 946/1/5
f 950/3/5 939/3/5 938/3/5
f 951/3/5 939/3/5 950/3/5
f 952/3/5 941/3/5 940/3/5
f 953/3/5 941/3/5 952/3/5
f 954/1/5 943/1/5 942/1/5
f 955/1/5 943/1/5 954/1/5
f 956/1/5 945/1/5 944/1/5
f 957/1/5 945/1/5 956/1/5
f 958/1/5 947/1/5 946/1/5
f 959/1/5 947/1/5 958/1/5
f 960/3/5 949/3/5 948/3/5
f 961/3/5 949/3/5 960/3/5
f 973/3/5 963/3/5 962/3/5
f 974/3/5 963/3/5 973/3/5
f 975/3/5 965/3/5 964/3/5
f 976/3/5 965/3/5 975/3/5
f 977/1/5 967/1/5 966/1/5
f 978/2/5 968/2/5 967/2/5
f 978/1/5 967/1/5 977/1/5
f 979/2/5 968/2/5 978/2/5
f 980/1/5 970/1/5 969/1/5
f 981/1/5 970/1/5 980/1/5
f 982/3/5 972/3/5 971/3/5
f 983/3/5 972/3/5 982/3/5
f 988/1/5 985/1/5 984/1/5
f 989/1/5 985/1/5 988/1/5
f 990/1/5 987/1/5 986/1/5
f 991/1/5 987/1/5 990/1/5
f 1002/2/5 993/2/5 992/2/5
f 1003/2/5 993/2/5 1002/2/5
f 1004/2/5 995/2/5 994/2/5
f 1005/1/5 996/1/5 995/1/5
f 1005/2/5 995/2/5 1004/2/5
f 1006/2/5 997/2/5 996/2/5
f 1006/1/5 996/1/5 1005/1/5
f 1007/1/5 998/1/5 997/1/5
f 1007/2/5 997/2/5 1006/2/5
f 1008/1/5 998/1/5 1007/1/5
f 1009/2/5 1000/2/5 999/2/5
f 1010/1/5 1001/1/5 1000/1/5
f 1010/2/5 1000/2/5 1009/2/5
f 1011/1/5 1001/1/5 1010/1/5
f 1016/2/5 1013/2/5 1012/2/5
f 1017/1/5 1014/1/5 1013/1/5
f 1017/2/5 1013/2/5 1016/2/5
f 1018/2/5 1015/2/5 1014/2/5
f 1018/1/5 1014/1/5 1017/1/5
f 1020/2/5 1018/2/5 1017/2/5
f 1021/2/5 1015/2/5 1018/2/5
f 1021/2/5 1018/2/5 1020/2/5
f 1022/1/5 1020/1/5 1019/1/5
f 1022/1/5 1021/1/5 1020/1/5
f 1023/2/5 1015/2/5 1021/2/5
f 1023/1/5 1021/1/5 1022/1/5
f 1024/2/5 1015/2/5 1023/2/5
f 1027/2/5 1026/2/5 1025/2/5
f 1028/2/5 1026/2/5 1027/2/5
f 1032/3/5 1030/3/5 1029/3/5
f 1033/3/5 1030/3/5 1032/3/5
f 1034/3/5 1030/3/5 1033/3/5
f 1035/3/5 1032/3/5 1031/3/5
f 1035/3/5 1033/3/5 1032/3/5
f 1036/3/5 1033/3/5 1035/3/5
f 1037/3/5 1033/3/5 1036/3/5
f 1038/3/5 1030/3/5 1034/3/5
f 1039/3/5 1037/3/5 1036/3/5
f 1039/3/5 1038/3/5 1037/3/5
f 1040/3/5 1030/3/5 1038/3/5
f 1040/3/5 1038/3/5 1039/3/5
f 1043/2/5 1042/2/5 1041/2/5
f 1044/2/5 1042/2/5 1043/2/5
f 1047/2/5 1046/2/5 1045/2/5
f 1048/2/5 1046/2/5 1047/2/5
f 1051/4/5 1050/4/5 1049/4/5
f 1052/4/5 1050/4/5 1051/4/5
f 1053/4/5 1050/4/5 1052/4/5
f 1054/2/5 1052/2/5 1051/2/5
f 1055/2/5 1052/2/5 1054/2/5
f 1058/1/5 1057/1/5 1056/1/5
f 1059/1/5 1057/1/5 1058/1/5
f 1061/4/5 1059/4/5 1058/4/5
f 1061/4/5 1060/4/5 1059/4/5
f 1062/4/5 1060/4/5 1061/4/5
f 1063/3/6 1064/3/6 1067/3/6
f 1067/3/6 1064/3/6 1068/3/6
f 1065/3/6 1066/3/6 1069/3/6
f 1069/3/6 1066/3/6 1070/3/6
f 1071/3/6 1072/3/6 1079/3/6
f 1079/3/6 1072/3/6 1080/3/6
f 1073/3/6 1074/3/6 1081/3/6
f 1081/3/6 1074/3/6 1082/3/6
f 1075/3/6 1076/3/6 1083/3/6
f 1083/3/6 1076/3/6 1084/3/6
f 1077/3/6 1078/3/6 1085/3/6
f 1085/3/6 1078/3/6 1086/3/6
f 1087/5/6 1088/5/6 1091/5/6
f 1091/5/6 1088/5/6 1092/5/6
f 1089/5/6 1090/5/6 1093/5/6
f 1093/5/6 1090/5/6 1094/5/6
f 1095/3/6 1096/3/6 1097/3/6
f 1097/3/6 1096/3/6 1098/3/6
f 1099/5/6 1100/5/6 1101/5/6
f 1101/5/6 1100/5/6 1102/5/6
f 1103/3/6 1104/3/6 1105/3/6
f 1105/3/6 1104/3/6 1106/3/6
f 1107/5/6 1108/5/6 1109/5/6
f 1109/5/6 1108/5/6 1110/5/6
f 1109/1/6 1110/1/6 1114/1/6
f 1110/1/6 1111/1/6 1114/1/6
f 1114/1/6 1111/1/6 1115/1/6
f 1111/2/6 1112/2/6 1116/2/6
f 1116/2/6 1112/2/6 1117/2/6
f 1117/2/6 1112/2/6 1118/2/6
f 1112/1/6 1113/1/6 1119/1/6
f 1118/2/6 1112/2/6 1119/2/6
f 1119/1/6 1113/1/6 1120/1/6
f 1120/1/6 1113/1/6 1121/1/6
f 1121/1/6 1113/1/6 1122/1/6
f 1115/1/6 1111/1/6 1124/1/6
f 1111/2/6 1116/2/6 1125/2/6
f 1124/1/6 1111/1/6 1125/1/6
f 1116/1/6 1117/1/6 1126/1/6
f 1125/2/6 1116/2/6 1126/2/6
f 1126/1/6 1117/1/6 1127/1/6
f 1119/1/6 1120/1/6 1129/1/6
f 1129/1/6 1120/1/6 1130/1/6
f 1121/1/6 1122/1/6 1131/1/6
f 1131/1/6 1122/1/6 1132/1/6
f 1127/1/6 1128/1/6 1133/1/6
f 1129/1/6 1130/1/6 1133/1/6
f 1131/1/6 1132/1/6 1133/1/6
f 1130/1/6 1131/1/6 1133/1/6
f 1123/1/6 1124/1/6 1133/1/6
f 1128/1/6 1129/1/6 1133/1/6
f 1124/1/6 1125/1/6 1133/1/6
f 1126/1/6 1127/1/6 1133/1/6
f 1125/1/6 1126/1/6 1133/1/6
f 1133/1/6 1132/1/6 1134/1/6
f 1134/1/6 1132/1/6 1135/1/6
f 1133/5/6 1134/5/6 1136/5/6
f 1136/5/6 1134/5/6 1137/5/6
f 1138/2/6 1139/2/6 1146/2/6
f 1146/2/6 1139/2/6 1147/2/6
f 1140/1/6 1141/1/6 1148/1/6
f 1148/1/6 1141/1/6 1149/1/6
f 1142/1/6 1143/1/6 1150/1/6
f 1150/1/6 1143/1/6 1151/1/6
f 1144/5/6 1145/5/6 1152/5/6
f 1152/5/6 1145/5/6 1153/5/6
f 1154/3/6 1155/3/6 1166/3/6
f 1166/3/6 1155/3/6 1167/3/6
f 1156/3/6 1157/3/6 1168/3/6
f 1168/3/6 1157/3/6 1169/3/6
f 1158/1/6 1159/1/6 1170/1/6
f 1170/1/6 1159/1/6 1171/1/6
f 1160/1/6 1161/1/6 1172/1/6
f 1172/1/6 1161/1/6 1173/1/6
f 1162/5/6 1163/5/6 1174/5/6
f 1174/5/6 1163/5/6 1175/5/6
f 1164/3/6 1165/3/6 1176/3/6
f 1176/3/6 1165/3/6 1177/3/6
f 1178/1/6 1179/1/6 1186/1/6
f 1186/1/6 1179/1/6 1187/1/6
f 1180/3/6 1181/3/6 1190/3/6
f 1190/3/6 1181/3/6 1191/3/6
f 1182/3/6 1183/3/6 1192/3/6
f 1192/3/6 1183/3/6 1193/3/6
f 1184/1/6 1185/1/6 1194/1/6
f 1194/1/6 1185/1/6 1195/1/6
f 1188/3/6 1189/3/6 1196/3/6
f 1196/3/6 1189/3/6 1197/3/6
f 1198/3/6 1199/3/6 1208/3/6
f 1208/3/6 1199/3/6 1209/3/6
f 1200/3/6 1201/3/6 1210/3/6
f 1210/3/6 1201/3/6 1211/3/6
f 1202/1/6 1203/1/6 1212/1/6
f 1203/2/6 1204/2/6 1213/2/6
f 1212/1/6 1203/1/6 1213/1/6
f 1213/2/6 1204/2/6 1214/2/6
f 1205/1/6 1206/1/6 1215/1/6
f 1206/3/6 1207/3/6 1216/3/6
f 1215/1/6 1206/1/6 1216/1/6
f 1216/3/6 1207/3/6 1217/3/6
f 1218/2/6 1219/2/6 1229/2/6
f 1229/2/6 1219/2/6 1230/2/6
f 1220/2/6 1221/2/6 1231/2/6
f 1221/1/6 1222/1/6 1232/1/6
f 1231/2/6 1221/2/6 1232/2/6
f 1222/2/6 1223/2/6 1233/2/6
f 1232/1/6 1222/1/6 1233/1/6
f 1223/1/6 1224/1/6 1234/1/6
f 1233/2/6 1223/2/6 1234/2/6
f 1234/1/6 1224/1/6 1235/1/6
f 1225/1/6 1226/1/6 1236/1/6
f 1226/2/6 1227/2/6 1237/2/6
f 1236/1/6 1226/1/6 1237/1/6
f 1227/1/6 1228/1/6 1238/1/6
f 1237/2/6 1227/2/6 1238/2/6
f 1238/1/6 1228/1/6 1239/1/6
f 1240/2/6 1241/2/6 1246/2/6
f 1241/1/6 1242/1/6 1246/1/6
f 1242/2/6 1243/2/6 1247/2/6
f 1246/1/6 1242/1/6 1247/1/6
f 1244/2/6 1245/2/6 1248/2/6
f 1248/2/6 1245/2/6 1249/2/6
f 1240/2/6 1246/2/6 1250/2/6
f 1246/2/6 1247/2/6 1250/2/6
f 1247/2/6 1243/2/6 1251/2/6
f 1250/2/6 1247/2/6 1251/2/6
f 1250/1/6 1251/1/6 1252/1/6
f 1251/2/6 1243/2/6 1253/2/6
f 1252/1/6 1251/1/6 1253/1/6
f 1253/2/6 1243/2/6 1254/2/6
f 1255/3/6 1256/3/6 1258/3/6
f 1257/3/6 1258/3/6 1259/3/6
f 1258/3/6 1256/3/6 1260/3/6
f 1259/3/6 1258/3/6 1260/3/6
f 1260/3/6 1256/3/6 1261/3/6
f 1261/3/6 1256/3/6 1262/3/6
f 1263/2/6 1264/2/6 1265/2/6
f 1265/2/6 1264/2/6 1266/2/6
f 1267/4/6 1268/4/6 1269/4/6
f 1269/4/6 1268/4/6 1270/4/6
f 1270/4/6 1268/4/6 1271/4/6
f 1269/2/6 1270/2/6 1272/2/6
f 1272/2/6 1270/2/6 1273/2/6
f 1272/1/6 1273/1/6 1274/1/6
f 1274/1/6 1273/1/6 1275/1/6
f 1276/2/6 1277/2/6 1278/2/6
f 1278/2/6 1277/2/6 1279/2/6
f 1278/1/6 1279/1/6 1280/1/6
f 1280/1/6 1279/1/6 1281/1/6
f 1280/4/6 1281/4/6 1283/4/6
f 1281/4/6 1282/4/6 1283/4/6
f 1283/4/6 1282/4/6 1284/4/6
