# MagicaVoxel @ Ephtracy

# group
o 

# material
mtllib TESTOWANIE_VOXELA-2.mtl
usemtl palette

# normals
vn 0 0 -1
vn 0 0 1
vn -1 0 0
vn 1 0 0
vn 0 -1 0
vn 0 1 0

# texcoords
vt 0.00976562 0.5
vt 0.0136719 0.5
vt 0.0175781 0.5
vt 0.271484 0.5
vt 0.353516 0.5
vt 0.357422 0.5
vt 0.361328 0.5
vt 0.693359 0.5
vt 0.697266 0.5
vt 0.783203 0.5
vt 0.951172 0.5
vt 0.978516 0.5
vt 0.994141 0.5

# verts
v -51.5 1 4.4
v -47.7 1 4.4
v -51.8 1.7 4.4
v -51.5 1.7 4.4
v -51.8 2.1 4.4
v -51.5 2.1 4.4
v -51.5 3.3 4.4
v -47.7 3.3 4.4
v -51.5 3.4 4.4
v -49.7 3.4 4.4
v -47.7 3.4 4.4
v -51.5 3.5 4.4
v -49.7 3.5 4.4
v -51.2 0.6 4.6
v -51.1 0.6 4.6
v -48.1 0.6 4.6
v -48 0.6 4.6
v -51.3 0.9 4.6
v -51.2 0.9 4.6
v -48.2 0.9 4.6
v -48.1 0.9 4.6
v -51.3 1 4.6
v -51.1 1 4.6
v -48.2 1 4.6
v -48 1 4.6
v -49.7 3.4 4.6
v -47.7 3.4 4.6
v -49.7 3.5 4.6
v -47.7 3.5 4.6
v -51.3 0.7 4.7
v -51.2 0.7 4.7
v -51.1 0.7 4.7
v -51 0.7 4.7
v -48.2 0.7 4.7
v -48.1 0.7 4.7
v -48 0.7 4.7
v -47.9 0.7 4.7
v -51.4 0.9 4.7
v -51.3 0.9 4.7
v -51.2 0.9 4.7
v -51 0.9 4.7
v -50.9 0.9 4.7
v -48.3 0.9 4.7
v -48.2 0.9 4.7
v -48.1 0.9 4.7
v -47.9 0.9 4.7
v -47.8 0.9 4.7
v -51.4 1 4.7
v -51.3 1 4.7
v -51.1 1 4.7
v -50.9 1 4.7
v -48.3 1 4.7
v -48.2 1 4.7
v -48 1 4.7
v -47.8 1 4.7
v -51.7 2.1 4.8
v -51.5 2.1 4.8
v -51.7 2.2 4.8
v -51.5 2.2 4.8
v -49.7 3.5 4.8
v -47.7 3.5 4.8
v -49.7 3.6 4.8
v -47.7 3.6 4.8
v -51.6 2.2 4.9
v -51.5 2.2 4.9
v -51.6 2.4 4.9
v -51.5 2.4 4.9
v -49.7 3.6 4.9
v -47.7 3.6 4.9
v -49.7 3.7 4.9
v -47.7 3.7 4.9
v -49.7 3.7 5.1
v -47.7 3.7 5.1
v -49.7 3.8 5.1
v -47.7 3.8 5.1
v -49.7 3.8 5.3
v -47.7 3.8 5.3
v -49.7 3.9 5.3
v -47.7 3.9 5.3
v -49.7 3.9 5.5
v -47.7 3.9 5.5
v -49.7 4 5.5
v -47.7 4 5.5
v -51.3 3.3 5.7
v -49.7 3.3 5.7
v -51.3 3.4 5.7
v -49.7 3.4 5.7
v -49.7 4 5.7
v -47.7 4 5.7
v -49.7 4.1 5.7
v -47.7 4.1 5.7
v -51.3 3.2 5.8
v -49.7 3.2 5.8
v -51.3 3.3 5.8
v -49.7 3.3 5.8
v -51.3 3 6
v -49.9 3 6
v -49.7 3 6
v -51.3 3.1 6
v -49.9 3.1 6
v -51.3 3.2 6
v -49.7 3.2 6
v -51.2 0.6 6.2
v -51.1 0.6 6.2
v -48.1 0.6 6.2
v -48 0.6 6.2
v -51.3 0.9 6.2
v -51.2 0.9 6.2
v -48.2 0.9 6.2
v -48.1 0.9 6.2
v -51.3 1 6.2
v -51.1 1 6.2
v -48.2 1 6.2
v -48 1 6.2
v -51.7 2.1 6.2
v -51.5 2.1 6.2
v -51.7 2.2 6.2
v -51.5 2.2 6.2
v -49.7 4.1 6.2
v -47.7 4.1 6.2
v -49.7 4.2 6.2
v -47.7 4.2 6.2
v -51.3 0.7 6.3
v -51.2 0.7 6.3
v -51.1 0.7 6.3
v -51 0.7 6.3
v -48.2 0.7 6.3
v -48.1 0.7 6.3
v -48 0.7 6.3
v -47.9 0.7 6.3
v -51.4 0.9 6.3
v -51.3 0.9 6.3
v -51.2 0.9 6.3
v -51 0.9 6.3
v -50.9 0.9 6.3
v -48.3 0.9 6.3
v -48.2 0.9 6.3
v -48.1 0.9 6.3
v -47.9 0.9 6.3
v -47.8 0.9 6.3
v -51.4 1 6.3
v -51.3 1 6.3
v -51.1 1 6.3
v -50.9 1 6.3
v -48.3 1 6.3
v -48.2 1 6.3
v -48 1 6.3
v -47.8 1 6.3
v -51.6 2.2 6.3
v -51.5 2.2 6.3
v -51.6 2.4 6.3
v -51.5 2.4 6.3
v -51.3 2.8 6.3
v -49.9 2.8 6.3
v -47.9 2.8 6.3
v -49.9 2.9 6.3
v -49.7 2.9 6.3
v -47.9 2.9 6.3
v -51.3 3 6.3
v -49.9 3 6.3
v -49.7 3 6.3
v -51.3 2.4 6.4
v -51.2 2.4 6.4
v -48 2.4 6.4
v -47.9 2.4 6.4
v -51.6 2.5 6.4
v -51.5 2.5 6.4
v -51.6 2.6 6.4
v -51.5 2.6 6.4
v -51.3 2.8 6.4
v -49.9 2.8 6.4
v -47.9 2.8 6.4
v -48.9 2.9 6.4
v -48.7 2.9 6.4
v -48.6 2.9 6.4
v -48.4 2.9 6.4
v -49 3 6.4
v -48.9 3 6.4
v -48.7 3 6.4
v -48.6 3 6.4
v -48.4 3 6.4
v -48.3 3 6.4
v -49 3.1 6.4
v -48.6 3.1 6.4
v -48.4 3.1 6.4
v -48.3 3.1 6.4
v -51.2 1.3 6.5
v -48 1.3 6.5
v -51.2 1.6 6.5
v -48 1.6 6.5
v -51.2 1.7 6.5
v -48 1.7 6.5
v -51.6 2.4 6.5
v -51.5 2.4 6.5
v -51.2 2.4 6.5
v -48 2.4 6.5
v -51.6 2.5 6.5
v -51.5 2.5 6.5
v -47.7 2.5 6.5
v -47.6 2.5 6.5
v -47.7 2.6 6.5
v -47.6 2.6 6.5
v -49.5 3.9 6.5
v -47.9 3.9 6.5
v -49.5 4 6.5
v -47.9 4 6.5
v -51.7 2.3 6.6
v -51.5 2.3 6.6
v -51.7 2.4 6.6
v -51.6 2.4 6.6
v -51.5 2.4 6.6
v -47.7 2.4 6.6
v -47.6 2.4 6.6
v -47.7 2.5 6.6
v -47.6 2.5 6.6
v -49 2.9 6.6
v -48.9 2.9 6.6
v -49 3 6.6
v -48.9 3 6.6
v -47.7 2.3 6.7
v -47.5 2.3 6.7
v -47.7 2.4 6.7
v -47.6 2.4 6.7
v -47.5 2.4 6.7
v -51.6 2.3 6.9
v -47.6 2.3 6.9
v -51.6 2.4 6.9
v -47.6 2.4 6.9
v -51.3 2.9 4.5
v -47.7 2.9 4.5
v -49.7 3.2 4.5
v -49.6 3.2 4.5
v -47.8 3.2 4.5
v -47.7 3.2 4.5
v -51.3 3.3 4.5
v -49.7 3.3 4.5
v -49.6 3.3 4.5
v -47.8 3.3 4.5
v -51.3 3.4 4.5
v -49.7 3.4 4.5
v -51.3 2.4 4.6
v -47.9 2.4 4.6
v -51.3 2.9 4.6
v -47.9 2.9 4.6
v -49.7 3.2 4.6
v -49.6 3.2 4.6
v -47.8 3.2 4.6
v -47.7 3.2 4.6
v -49.7 3.3 4.6
v -49.6 3.3 4.6
v -49.5 3.3 4.6
v -47.9 3.3 4.6
v -47.8 3.3 4.6
v -47.7 3.3 4.6
v -49.5 3.4 4.6
v -47.9 3.4 4.6
v -51.2 1.3 4.7
v -48 1.3 4.7
v -51.2 2.4 4.7
v -48 2.4 4.7
v -49.6 3.3 4.7
v -49.5 3.3 4.7
v -47.9 3.3 4.7
v -47.8 3.3 4.7
v -49.6 3.4 4.7
v -49.5 3.4 4.7
v -47.9 3.4 4.7
v -47.8 3.4 4.7
v -51.3 0.7 4.8
v -51.2 0.7 4.8
v -51.1 0.7 4.8
v -51 0.7 4.8
v -48.2 0.7 4.8
v -48.1 0.7 4.8
v -48 0.7 4.8
v -47.9 0.7 4.8
v -51.4 0.9 4.8
v -51.3 0.9 4.8
v -51.2 0.9 4.8
v -51 0.9 4.8
v -50.9 0.9 4.8
v -48.3 0.9 4.8
v -48.2 0.9 4.8
v -48.1 0.9 4.8
v -47.9 0.9 4.8
v -47.8 0.9 4.8
v -51.4 1 4.8
v -51.3 1 4.8
v -51.1 1 4.8
v -50.9 1 4.8
v -48.3 1 4.8
v -48.2 1 4.8
v -48 1 4.8
v -47.8 1 4.8
v -49.7 3.3 4.8
v -49.6 3.3 4.8
v -47.8 3.3 4.8
v -47.7 3.3 4.8
v -49.7 3.4 4.8
v -49.6 3.4 4.8
v -49.5 3.4 4.8
v -47.9 3.4 4.8
v -47.8 3.4 4.8
v -47.7 3.4 4.8
v -49.5 3.5 4.8
v -47.9 3.5 4.8
v -51.2 0.6 4.9
v -51.1 0.6 4.9
v -48.1 0.6 4.9
v -48 0.6 4.9
v -51.3 0.9 4.9
v -51.2 0.9 4.9
v -48.2 0.9 4.9
v -48.1 0.9 4.9
v -51.3 1 4.9
v -51.1 1 4.9
v -48.2 1 4.9
v -48 1 4.9
v -49.6 3.4 4.9
v -49.5 3.4 4.9
v -47.9 3.4 4.9
v -47.8 3.4 4.9
v -49.6 3.5 4.9
v -49.5 3.5 4.9
v -47.9 3.5 4.9
v -47.8 3.5 4.9
v -51.7 1.8 5
v -51.5 1.8 5
v -51.7 2 5
v -51.5 2 5
v -51.6 2.2 5
v -51.5 2.2 5
v -51.6 2.4 5
v -51.5 2.4 5
v -49.7 3.4 5
v -49.6 3.4 5
v -47.8 3.4 5
v -47.7 3.4 5
v -49.7 3.5 5
v -49.6 3.5 5
v -49.5 3.5 5
v -47.9 3.5 5
v -47.8 3.5 5
v -47.7 3.5 5
v -49.5 3.6 5
v -47.9 3.6 5
v -51.7 2.1 5.1
v -51.5 2.1 5.1
v -51.7 2.2 5.1
v -51.5 2.2 5.1
v -49.6 3.5 5.1
v -49.5 3.5 5.1
v -47.9 3.5 5.1
v -47.8 3.5 5.1
v -49.6 3.6 5.1
v -49.5 3.6 5.1
v -47.9 3.6 5.1
v -47.8 3.6 5.1
v -49.5 3.7 5.1
v -47.9 3.7 5.1
v -49.7 3.5 5.2
v -49.6 3.5 5.2
v -47.8 3.5 5.2
v -47.7 3.5 5.2
v -49.7 3.6 5.2
v -49.6 3.6 5.2
v -49.5 3.6 5.2
v -47.9 3.6 5.2
v -47.8 3.6 5.2
v -47.7 3.6 5.2
v -49.6 3.7 5.2
v -49.5 3.7 5.2
v -47.9 3.7 5.2
v -47.8 3.7 5.2
v -49.7 3.6 5.3
v -49.6 3.6 5.3
v -47.8 3.6 5.3
v -47.7 3.6 5.3
v -49.7 3.7 5.3
v -49.6 3.7 5.3
v -49.5 3.7 5.3
v -47.9 3.7 5.3
v -47.8 3.7 5.3
v -47.7 3.7 5.3
v -49.5 3.8 5.3
v -47.9 3.8 5.3
v -49.7 3.7 5.4
v -49.5 3.7 5.4
v -47.9 3.7 5.4
v -47.8 3.7 5.4
v -49.7 3.8 5.4
v -49.5 3.8 5.4
v -47.9 3.8 5.4
v -47.8 3.8 5.4
v -47.8 3.7 5.5
v -47.7 3.7 5.5
v -49.5 3.8 5.5
v -47.9 3.8 5.5
v -47.8 3.8 5.5
v -47.7 3.8 5.5
v -49.5 3.9 5.5
v -47.9 3.9 5.5
v -51.5 3.4 5.7
v -49.7 3.4 5.7
v -51.5 3.5 5.7
v -49.7 3.5 5.7
v -49.5 3.9 5.7
v -47.9 3.9 5.7
v -49.5 4 5.7
v -47.9 4 5.7
v -49.7 3.8 5.8
v -49.5 3.8 5.8
v -47.9 3.8 5.8
v -47.7 3.8 5.8
v -49.7 3.9 5.8
v -49.5 3.9 5.8
v -47.9 3.9 5.8
v -47.7 3.9 5.8
v -51.5 3.3 6.1
v -49.7 3.3 6.1
v -51.5 3.4 6.1
v -49.7 3.4 6.1
v -51.3 0.7 6.4
v -51.2 0.7 6.4
v -51.1 0.7 6.4
v -51 0.7 6.4
v -48.2 0.7 6.4
v -48.1 0.7 6.4
v -48 0.7 6.4
v -47.9 0.7 6.4
v -51.4 0.9 6.4
v -51.3 0.9 6.4
v -51.2 0.9 6.4
v -51 0.9 6.4
v -50.9 0.9 6.4
v -48.3 0.9 6.4
v -48.2 0.9 6.4
v -48.1 0.9 6.4
v -47.9 0.9 6.4
v -47.8 0.9 6.4
v -51.4 1 6.4
v -51.3 1 6.4
v -51.1 1 6.4
v -50.9 1 6.4
v -48.3 1 6.4
v -48.2 1 6.4
v -48 1 6.4
v -47.8 1 6.4
v -51.6 2.2 6.4
v -51.5 2.2 6.4
v -51.6 2.4 6.4
v -51.5 2.4 6.4
v -51.5 3.2 6.4
v -49.7 3.2 6.4
v -51.5 3.3 6.4
v -49.7 3.3 6.4
v -51.2 0.6 6.5
v -51.1 0.6 6.5
v -48.1 0.6 6.5
v -48 0.6 6.5
v -51.3 0.9 6.5
v -51.2 0.9 6.5
v -48.2 0.9 6.5
v -48.1 0.9 6.5
v -51.3 1 6.5
v -51.1 1 6.5
v -48.2 1 6.5
v -48 1 6.5
v -51.7 2.1 6.5
v -51.5 2.1 6.5
v -51.7 2.2 6.5
v -51.5 2.2 6.5
v -51.6 2.5 6.5
v -51.5 2.5 6.5
v -51.6 2.6 6.5
v -51.5 2.6 6.5
v -48.8 2.9 6.5
v -48.7 2.9 6.5
v -48.6 2.9 6.5
v -48.4 2.9 6.5
v -49 3 6.5
v -48.9 3 6.5
v -48.8 3 6.5
v -48.7 3 6.5
v -48.6 3 6.5
v -48.4 3 6.5
v -48.3 3 6.5
v -49 3.1 6.5
v -48.6 3.1 6.5
v -48.4 3.1 6.5
v -48.3 3.1 6.5
v -51.4 1.6 6.6
v -47.8 1.6 6.6
v -51.4 1.7 6.6
v -51.3 1.7 6.6
v -51.2 1.7 6.6
v -51.1 1.7 6.6
v -51 1.7 6.6
v -50.9 1.7 6.6
v -50.7 1.7 6.6
v -50.3 1.7 6.6
v -50.2 1.7 6.6
v -48.4 1.7 6.6
v -48.3 1.7 6.6
v -48.2 1.7 6.6
v -48.1 1.7 6.6
v -48 1.7 6.6
v -47.9 1.7 6.6
v -47.8 1.7 6.6
v -51.6 2.4 6.6
v -51.5 2.4 6.6
v -51.3 2.4 6.6
v -51.2 2.4 6.6
v -51 2.4 6.6
v -50.9 2.4 6.6
v -50.8 2.4 6.6
v -50.4 2.4 6.6
v -50.3 2.4 6.6
v -50.2 2.4 6.6
v -50.1 2.4 6.6
v -49.6 2.4 6.6
v -49.5 2.4 6.6
v -48.4 2.4 6.6
v -48.3 2.4 6.6
v -48.2 2.4 6.6
v -48.1 2.4 6.6
v -48 2.4 6.6
v -47.9 2.4 6.6
v -51.6 2.5 6.6
v -51.5 2.5 6.6
v -51.3 2.5 6.6
v -51.2 2.5 6.6
v -51 2.5 6.6
v -50.9 2.5 6.6
v -50.8 2.5 6.6
v -50.4 2.5 6.6
v -50.3 2.5 6.6
v -50.2 2.5 6.6
v -50.1 2.5 6.6
v -49.6 2.5 6.6
v -49.5 2.5 6.6
v -48.4 2.5 6.6
v -48.3 2.5 6.6
v -48.2 2.5 6.6
v -48.1 2.5 6.6
v -48 2.5 6.6
v -47.7 2.5 6.6
v -47.6 2.5 6.6
v -51.3 2.6 6.6
v -51.2 2.6 6.6
v -51.1 2.6 6.6
v -51 2.6 6.6
v -50.9 2.6 6.6
v -48.4 2.6 6.6
v -48.3 2.6 6.6
v -47.7 2.6 6.6
v -47.6 2.6 6.6
v -51.1 2.7 6.6
v -51 2.7 6.6
v -50.8 2.7 6.6
v -50.7 2.7 6.6
v -48.2 2.7 6.6
v -48 2.7 6.6
v -47.9 2.7 6.6
v -51.3 2.8 6.6
v -50.9 2.8 6.6
v -50.8 2.8 6.6
v -50.7 2.8 6.6
v -48.2 2.8 6.6
v -48 2.8 6.6
v -47.9 2.8 6.6
v -48.9 2.9 6.6
v -48.8 2.9 6.6
v -48.9 3 6.6
v -48.8 3 6.6
v -49.7 4.1 6.6
v -47.7 4.1 6.6
v -49.7 4.2 6.6
v -47.7 4.2 6.6
v -51.4 1 6.7
v -51.3 1 6.7
v -51.2 1 6.7
v -51.1 1 6.7
v -51 1 6.7
v -48.1 1 6.7
v -48 1 6.7
v -47.9 1 6.7
v -47.8 1 6.7
v -51.4 1.1 6.7
v -51.3 1.1 6.7
v -51.2 1.1 6.7
v -51.1 1.1 6.7
v -51 1.1 6.7
v -48.2 1.1 6.7
v -48.1 1.1 6.7
v -48 1.1 6.7
v -47.9 1.1 6.7
v -47.8 1.1 6.7
v -51.4 1.2 6.7
v -51.3 1.2 6.7
v -51.2 1.2 6.7
v -51.1 1.2 6.7
v -48.2 1.2 6.7
v -48.1 1.2 6.7
v -48 1.2 6.7
v -47.9 1.2 6.7
v -47.8 1.2 6.7
v -51.4 1.3 6.7
v -51.3 1.3 6.7
v -47.9 1.3 6.7
v -47.8 1.3 6.7
v -51.4 1.4 6.7
v -51.3 1.4 6.7
v -51.4 1.6 6.7
v -47.8 1.6 6.7
v -51.4 1.7 6.7
v -51.3 1.7 6.7
v -51.2 1.7 6.7
v -51.1 1.7 6.7
v -51 1.7 6.7
v -50.9 1.7 6.7
v -50.7 1.7 6.7
v -50.3 1.7 6.7
v -50.2 1.7 6.7
v -48.4 1.7 6.7
v -48.3 1.7 6.7
v -48.2 1.7 6.7
v -48.1 1.7 6.7
v -48 1.7 6.7
v -47.9 1.7 6.7
v -47.8 1.7 6.7
v -51.3 1.8 6.7
v -51.2 1.8 6.7
v -51.1 1.8 6.7
v -51 1.8 6.7
v -50.9 1.8 6.7
v -50.7 1.8 6.7
v -50.4 1.8 6.7
v -50.3 1.8 6.7
v -50.2 1.8 6.7
v -48.4 1.8 6.7
v -48.3 1.8 6.7
v -48.2 1.8 6.7
v -48.1 1.8 6.7
v -48 1.8 6.7
v -47.9 1.8 6.7
v -47.8 1.8 6.7
v -51.2 1.9 6.7
v -51.1 1.9 6.7
v -51 1.9 6.7
v -50.8 1.9 6.7
v -50.4 1.9 6.7
v -50.3 1.9 6.7
v -48.1 1.9 6.7
v -48 1.9 6.7
v -47.9 1.9 6.7
v -51.3 2 6.7
v -51 2 6.7
v -50.8 2 6.7
v -51.4 2.1 6.7
v -51.3 2.1 6.7
v -51 2.1 6.7
v -47.8 2.1 6.7
v -51.4 2.2 6.7
v -51.3 2.2 6.7
v -51 2.2 6.7
v -47.8 2.2 6.7
v -51.6 2.3 6.7
v -51.5 2.3 6.7
v -51.6 2.4 6.7
v -51.5 2.4 6.7
v -47.7 2.4 6.7
v -47.6 2.4 6.7
v -47.7 2.5 6.7
v -47.6 2.5 6.7
v -49 2.9 6.7
v -48.9 2.9 6.7
v -49 3 6.7
v -48.9 3 6.7
v -51.5 3.1 6.7
v -49.7 3.1 6.7
v -51.5 3.2 6.7
v -49.7 3.2 6.7
v -49.7 3.9 6.7
v -48.9 3.9 6.7
v -48.5 3.9 6.7
v -47.7 3.9 6.7
v -48.9 4 6.7
v -48.5 4 6.7
v -49.7 4.1 6.7
v -47.7 4.1 6.7
v -51.5 1 6.8
v -51.4 1 6.8
v -47.8 1 6.8
v -47.7 1 6.8
v -51.8 1.7 6.8
v -51.5 1.7 6.8
v -51.7 1.8 6.8
v -51.5 1.8 6.8
v -51.7 2 6.8
v -51.5 2 6.8
v -51.8 2.1 6.8
v -51.5 2.1 6.8
v -51.4 2.2 6.8
v -47.8 2.2 6.8
v -47.7 2.3 6.8
v -47.6 2.3 6.8
v -51.3 2.4 6.8
v -47.9 2.4 6.8
v -47.7 2.4 6.8
v -47.6 2.4 6.8
v -47.9 2.5 6.8
v -47.8 2.5 6.8
v -51.4 2.6 6.8
v -51.3 2.6 6.8
v -47.9 2.6 6.8
v -47.8 2.6 6.8
v -47.9 2.7 6.8
v -47.8 2.7 6.8
v -51.3 2.8 6.8
v -51.2 2.8 6.8
v -48.7 2.8 6.8
v -48.6 2.8 6.8
v -48 2.8 6.8
v -47.9 2.8 6.8
v -51.5 2.9 6.8
v -51.2 2.9 6.8
v -50.8 2.9 6.8
v -50.4 2.9 6.8
v -49.7 2.9 6.8
v -48.7 2.9 6.8
v -48.6 2.9 6.8
v -48 2.9 6.8
v -47.7 2.9 6.8
v -50.8 3 6.8
v -50.4 3 6.8
v -48.7 3 6.8
v -48.6 3 6.8
v -51.5 3.1 6.8
v -49.7 3.1 6.8
v -48.9 3.9 6.8
v -48.5 3.9 6.8
v -48.9 4 6.8
v -48.5 4 6.8
v -48.7 2.8 6.9
v -48.6 2.8 6.9
v -50.8 2.9 6.9
v -50.4 2.9 6.9
v -48.7 2.9 6.9
v -48.6 2.9 6.9
v -50.8 3 6.9
v -50.4 3 6.9
v -51.7 2.3 7
v -47.5 2.3 7
v -51.7 2.4 7
v -47.5 2.4 7
v -51.8 1.7 4.4
v -51.8 2.1 4.4
v -51.8 1.7 6.8
v -51.8 2.1 6.8
v -51.7 2.1 4.8
v -51.7 2.2 4.8
v -51.7 2.1 5.1
v -51.7 2.2 5.1
v -51.7 2.1 6.2
v -51.7 2.2 6.2
v -51.7 2.1 6.5
v -51.7 2.2 6.5
v -51.7 2.3 6.6
v -51.7 2.4 6.6
v -51.7 2.3 7
v -51.7 2.4 7
v -51.6 2.2 4.9
v -51.6 2.4 4.9
v -51.6 2.2 5
v -51.6 2.4 5
v -51.6 2.2 6.3
v -51.6 2.4 6.3
v -51.6 2.2 6.4
v -51.6 2.4 6.4
v -51.6 2.5 6.4
v -51.6 2.6 6.4
v -51.6 2.4 6.5
v -51.6 2.5 6.5
v -51.6 2.6 6.5
v -51.6 2.4 6.6
v -51.6 2.5 6.6
v -51.5 1 4.4
v -51.5 1.7 4.4
v -51.5 2.1 4.4
v -51.5 3.3 4.4
v -51.5 3.4 4.4
v -51.5 3.5 4.4
v -51.5 3.3 4.5
v -51.5 3.4 4.5
v -51.5 2.1 4.8
v -51.5 2.2 4.8
v -51.5 2.2 4.9
v -51.5 2.4 4.9
v -51.5 1.8 5
v -51.5 2 5
v -51.5 2.2 5
v -51.5 2.4 5
v -51.5 2.1 5.1
v -51.5 2.2 5.1
v -51.5 3.2 5.7
v -51.5 3.3 5.7
v -51.5 3.4 5.7
v -51.5 3.5 5.7
v -51.5 3.3 6.1
v -51.5 3.4 6.1
v -51.5 2 6.2
v -51.5 2.1 6.2
v -51.5 2.2 6.2
v -51.5 2.2 6.3
v -51.5 2.4 6.3
v -51.5 3.1 6.3
v -51.5 3.2 6.3
v -51.5 2.2 6.4
v -51.5 2.4 6.4
v -51.5 2.5 6.4
v -51.5 2.6 6.4
v -51.5 3.2 6.4
v -51.5 3.3 6.4
v -51.5 2 6.5
v -51.5 2.1 6.5
v -51.5 2.2 6.5
v -51.5 2.4 6.5
v -51.5 2.5 6.5
v -51.5 2.6 6.5
v -51.5 3 6.5
v -51.5 3.1 6.5
v -51.5 2.3 6.6
v -51.5 2.4 6.6
v -51.5 2.5 6.6
v -51.5 2.9 6.6
v -51.5 3 6.6
v -51.5 1 6.7
v -51.5 1.7 6.7
v -51.5 1.8 6.7
v -51.5 2 6.7
v -51.5 2.1 6.7
v -51.5 2.3 6.7
v -51.5 2.4 6.7
v -51.5 2.9 6.7
v -51.5 3.1 6.7
v -51.5 3.2 6.7
v -51.5 1 6.8
v -51.5 1.7 6.8
v -51.5 1.8 6.8
v -51.5 2 6.8
v -51.5 2.1 6.8
v -51.5 2.9 6.8
v -51.5 3.1 6.8
v -51.4 0.9 4.7
v -51.4 1 4.7
v -51.4 0.9 4.8
v -51.4 1 4.8
v -51.4 0.9 6.3
v -51.4 1 6.3
v -51.4 0.9 6.4
v -51.4 1 6.4
v -51.3 0.9 4.6
v -51.3 1 4.6
v -51.3 0.7 4.7
v -51.3 0.9 4.7
v -51.3 1 4.7
v -51.3 0.7 4.8
v -51.3 0.9 4.8
v -51.3 1 4.8
v -51.3 0.9 4.9
v -51.3 1 4.9
v -51.3 0.9 6.2
v -51.3 1 6.2
v -51.3 0.7 6.3
v -51.3 0.9 6.3
v -51.3 1 6.3
v -51.3 0.7 6.4
v -51.3 0.9 6.4
v -51.3 1 6.4
v -51.3 0.9 6.5
v -51.3 1 6.5
v -51.2 0.6 4.6
v -51.2 0.9 4.6
v -51.2 0.7 4.7
v -51.2 0.9 4.7
v -51.2 0.7 4.8
v -51.2 0.9 4.8
v -51.2 0.6 4.9
v -51.2 0.9 4.9
v -51.2 0.6 6.2
v -51.2 0.9 6.2
v -51.2 0.7 6.3
v -51.2 0.9 6.3
v -51.2 0.7 6.4
v -51.2 0.9 6.4
v -51.2 0.6 6.5
v -51.2 0.9 6.5
v -50.8 2.9 6.8
v -50.8 3 6.8
v -50.8 2.9 6.9
v -50.8 3 6.9
v -49.7 3.2 4.5
v -49.7 3.3 4.5
v -49.7 3.4 4.5
v -49.7 3.2 4.6
v -49.7 3.3 4.6
v -49.7 3.3 4.8
v -49.7 3.4 4.8
v -49.7 3.5 4.8
v -49.7 3.6 4.8
v -49.7 3.6 4.9
v -49.7 3.7 4.9
v -49.7 3.7 5.1
v -49.7 3.8 5.1
v -49.7 3.5 5.2
v -49.7 3.6 5.2
v -49.7 3.6 5.3
v -49.7 3.7 5.3
v -49.7 3.8 5.3
v -49.7 3.9 5.3
v -49.7 3.7 5.4
v -49.7 3.8 5.4
v -49.7 3.9 5.5
v -49.7 4 5.5
v -49.7 4 5.7
v -49.7 4.1 5.7
v -49.7 3.8 5.8
v -49.7 3.9 5.8
v -49.7 4.1 6.2
v -49.7 4.2 6.2
v -49.7 4.1 6.6
v -49.7 4.2 6.6
v -49.7 3.9 6.7
v -49.7 4.1 6.7
v -49 3 6.4
v -49 3.1 6.4
v -49 3 6.5
v -49 3.1 6.5
v -49 2.9 6.6
v -49 3 6.6
v -49 2.9 6.7
v -49 3 6.7
v -48.9 2.9 6.4
v -48.9 3 6.4
v -48.9 3 6.5
v -48.9 2.9 6.6
v -48.9 3 6.6
v -48.9 3.9 6.7
v -48.9 4 6.7
v -48.9 3.9 6.8
v -48.9 4 6.8
v -48.7 2.9 6.5
v -48.7 3 6.5
v -48.7 2.8 6.8
v -48.7 2.9 6.8
v -48.7 3 6.8
v -48.7 2.8 6.9
v -48.7 2.9 6.9
v -48.3 0.9 4.7
v -48.3 1 4.7
v -48.3 0.9 4.8
v -48.3 1 4.8
v -48.3 0.9 6.3
v -48.3 1 6.3
v -48.3 0.9 6.4
v -48.3 1 6.4
v -48.2 0.9 4.6
v -48.2 1 4.6
v -48.2 0.7 4.7
v -48.2 0.9 4.7
v -48.2 1 4.7
v -48.2 0.7 4.8
v -48.2 0.9 4.8
v -48.2 1 4.8
v -48.2 0.9 4.9
v -48.2 1 4.9
v -48.2 0.9 6.2
v -48.2 1 6.2
v -48.2 0.7 6.3
v -48.2 0.9 6.3
v -48.2 1 6.3
v -48.2 0.7 6.4
v -48.2 0.9 6.4
v -48.2 1 6.4
v -48.2 0.9 6.5
v -48.2 1 6.5
v -48.1 0.6 4.6
v -48.1 0.9 4.6
v -48.1 0.7 4.7
v -48.1 0.9 4.7
v -48.1 0.7 4.8
v -48.1 0.9 4.8
v -48.1 0.6 4.9
v -48.1 0.9 4.9
v -48.1 0.6 6.2
v -48.1 0.9 6.2
v -48.1 0.7 6.3
v -48.1 0.9 6.3
v -48.1 0.7 6.4
v -48.1 0.9 6.4
v -48.1 0.6 6.5
v -48.1 0.9 6.5
v -48 1.3 4.7
v -48 2.4 4.7
v -48 2.4 6.4
v -48 1.3 6.5
v -48 1.6 6.5
v -48 1.7 6.5
v -48 2.4 6.5
v -47.9 2.4 4.6
v -47.9 2.9 4.6
v -47.9 3.3 4.6
v -47.9 3.4 4.6
v -47.9 3.3 4.7
v -47.9 3.4 4.7
v -47.9 3.4 4.8
v -47.9 3.5 4.8
v -47.9 3.4 4.9
v -47.9 3.5 4.9
v -47.9 3.5 5
v -47.9 3.6 5
v -47.9 3.5 5.1
v -47.9 3.6 5.1
v -47.9 3.7 5.1
v -47.9 3.6 5.2
v -47.9 3.7 5.2
v -47.9 3.7 5.3
v -47.9 3.8 5.3
v -47.9 3.7 5.4
v -47.9 3.8 5.4
v -47.9 3.8 5.5
v -47.9 3.9 5.5
v -47.9 3.9 5.7
v -47.9 4 5.7
v -47.9 3.8 5.8
v -47.9 3.9 5.8
v -47.9 2.8 6.3
v -47.9 2.9 6.3
v -47.9 2.4 6.4
v -47.9 2.8 6.4
v -47.9 3.9 6.5
v -47.9 4 6.5
v -47.9 2.4 6.6
v -47.9 2.7 6.6
v -47.9 2.8 6.6
v -47.9 2.5 6.7
v -47.9 2.6 6.7
v -47.9 2.7 6.7
v -47.9 2.8 6.7
v -47.9 2.4 6.8
v -47.9 2.5 6.8
v -47.9 2.6 6.8
v -47.9 2.7 6.8
v -47.9 2.8 6.8
v -47.8 3.2 4.5
v -47.8 3.3 4.5
v -47.8 3.2 4.6
v -47.8 3.3 4.6
v -47.8 3.3 4.7
v -47.8 3.4 4.7
v -47.8 3.3 4.8
v -47.8 3.4 4.8
v -47.8 3.4 4.9
v -47.8 3.5 4.9
v -47.8 3.4 5
v -47.8 3.5 5
v -47.8 3.5 5.1
v -47.8 3.6 5.1
v -47.8 3.5 5.2
v -47.8 3.6 5.2
v -47.8 3.7 5.2
v -47.8 3.6 5.3
v -47.8 3.7 5.3
v -47.8 3.7 5.4
v -47.8 3.8 5.4
v -47.8 3.7 5.5
v -47.8 3.8 5.5
v -47.8 1.6 6.6
v -47.8 1.7 6.6
v -47.8 1 6.7
v -47.8 1.1 6.7
v -47.8 1.2 6.7
v -47.8 1.3 6.7
v -47.8 1.6 6.7
v -47.8 1.7 6.7
v -47.8 1.8 6.7
v -47.8 2.1 6.7
v -47.8 2.2 6.7
v -47.8 1 6.8
v -47.8 2.2 6.8
v -47.6 2.3 6.8
v -47.6 2.4 6.8
v -47.6 2.3 6.9
v -47.6 2.4 6.9
v -51.7 1.8 5
v -51.7 2 5
v -51.7 2 6.2
v -51.7 2 6.5
v -51.7 1.8 6.8
v -51.7 2 6.8
v -51.6 2.3 6.7
v -51.6 2.4 6.7
v -51.6 2.3 6.9
v -51.6 2.4 6.9
v -51.4 1.6 6.6
v -51.4 1.7 6.6
v -51.4 1 6.7
v -51.4 1.1 6.7
v -51.4 1.2 6.7
v -51.4 1.3 6.7
v -51.4 1.4 6.7
v -51.4 1.6 6.7
v -51.4 1.7 6.7
v -51.4 2.1 6.7
v -51.4 2.2 6.7
v -51.4 1 6.8
v -51.4 2.2 6.8
v -51.3 2.9 4.5
v -51.3 3.3 4.5
v -51.3 3.4 4.5
v -51.3 2.4 4.6
v -51.3 2.9 4.6
v -51.3 3.1 5.7
v -51.3 3.3 5.7
v -51.3 3.4 5.7
v -51.3 3.2 5.8
v -51.3 3.3 5.8
v -51.3 3 6
v -51.3 3.1 6
v -51.3 3.2 6
v -51.3 2.8 6.3
v -51.3 3 6.3
v -51.3 2.4 6.4
v -51.3 2.8 6.4
v -51.3 2.4 6.6
v -51.3 2.5 6.6
v -51.3 2.6 6.6
v -51.3 2.8 6.6
v -51.3 2.6 6.7
v -51.3 2.8 6.7
v -51.3 2.4 6.8
v -51.3 2.6 6.8
v -51.3 2.8 6.8
v -51.2 1.3 4.7
v -51.2 2.4 4.7
v -51.2 2.4 6.4
v -51.2 1.3 6.5
v -51.2 1.6 6.5
v -51.2 1.7 6.5
v -51.2 2.4 6.5
v -51.1 0.6 4.6
v -51.1 1 4.6
v -51.1 0.7 4.7
v -51.1 1 4.7
v -51.1 0.7 4.8
v -51.1 1 4.8
v -51.1 0.6 4.9
v -51.1 1 4.9
v -51.1 0.6 6.2
v -51.1 1 6.2
v -51.1 0.7 6.3
v -51.1 1 6.3
v -51.1 0.7 6.4
v -51.1 1 6.4
v -51.1 0.6 6.5
v -51.1 1 6.5
v -51 0.7 4.7
v -51 0.9 4.7
v -51 0.7 4.8
v -51 0.9 4.8
v -51 0.7 6.3
v -51 0.9 6.3
v -51 0.7 6.4
v -51 0.9 6.4
v -50.9 0.9 4.7
v -50.9 1 4.7
v -50.9 0.9 4.8
v -50.9 1 4.8
v -50.9 0.9 6.3
v -50.9 1 6.3
v -50.9 0.9 6.4
v -50.9 1 6.4
v -50.4 2.9 6.8
v -50.4 3 6.8
v -50.4 2.9 6.9
v -50.4 3 6.9
v -49.7 3.4 4.4
v -49.7 3.5 4.4
v -49.7 3.4 4.5
v -49.7 3.4 4.6
v -49.7 3.5 4.6
v -49.7 3.4 5
v -49.7 3.5 5
v -49.7 3.5 5.2
v -49.7 3.3 5.7
v -49.7 3.4 5.7
v -49.7 3.5 5.7
v -49.7 3.2 5.8
v -49.7 3.3 5.8
v -49.7 3 6
v -49.7 3.2 6
v -49.7 3.3 6.1
v -49.7 3.4 6.1
v -49.7 2.9 6.3
v -49.7 3 6.3
v -49.7 3.2 6.4
v -49.7 3.3 6.4
v -49.7 3.1 6.7
v -49.7 3.2 6.7
v -49.7 2.9 6.8
v -49.7 3.1 6.8
v -49.6 3.2 4.5
v -49.6 3.3 4.5
v -49.6 3.2 4.6
v -49.6 3.3 4.6
v -49.6 3.3 4.7
v -49.6 3.4 4.7
v -49.6 3.3 4.8
v -49.6 3.4 4.8
v -49.6 3.4 4.9
v -49.6 3.5 4.9
v -49.6 3.4 5
v -49.6 3.5 5
v -49.6 3.5 5.1
v -49.6 3.6 5.1
v -49.6 3.5 5.2
v -49.6 3.6 5.2
v -49.6 3.7 5.2
v -49.6 3.6 5.3
v -49.6 3.7 5.3
v -49.5 3.3 4.6
v -49.5 3.4 4.6
v -49.5 3.3 4.7
v -49.5 3.4 4.7
v -49.5 3.4 4.8
v -49.5 3.5 4.8
v -49.5 3.4 4.9
v -49.5 3.5 4.9
v -49.5 3.5 5
v -49.5 3.6 5
v -49.5 3.5 5.1
v -49.5 3.6 5.1
v -49.5 3.7 5.1
v -49.5 3.6 5.2
v -49.5 3.7 5.2
v -49.5 3.7 5.3
v -49.5 3.8 5.3
v -49.5 3.7 5.4
v -49.5 3.8 5.4
v -49.5 3.8 5.5
v -49.5 3.9 5.5
v -49.5 3.9 5.7
v -49.5 4 5.7
v -49.5 3.8 5.8
v -49.5 3.9 5.8
v -49.5 3.9 6.5
v -49.5 4 6.5
v -48.9 2.9 6.6
v -48.9 3 6.6
v -48.9 2.9 6.7
v -48.9 3 6.7
v -48.8 2.9 6.5
v -48.8 3 6.5
v -48.8 2.9 6.6
v -48.8 3 6.6
v -48.6 2.9 6.5
v -48.6 3 6.5
v -48.6 2.8 6.8
v -48.6 2.9 6.8
v -48.6 3 6.8
v -48.6 2.8 6.9
v -48.6 2.9 6.9
v -48.5 3.9 6.7
v -48.5 4 6.7
v -48.5 3.9 6.8
v -48.5 4 6.8
v -48.4 2.9 6.4
v -48.4 3 6.4
v -48.4 2.9 6.5
v -48.4 3 6.5
v -48.3 3 6.4
v -48.3 3.1 6.4
v -48.3 3 6.5
v -48.3 3.1 6.5
v -48 0.6 4.6
v -48 1 4.6
v -48 0.7 4.7
v -48 1 4.7
v -48 0.7 4.8
v -48 1 4.8
v -48 0.6 4.9
v -48 1 4.9
v -48 0.6 6.2
v -48 1 6.2
v -48 0.7 6.3
v -48 1 6.3
v -48 0.7 6.4
v -48 1 6.4
v -48 0.6 6.5
v -48 1 6.5
v -47.9 0.7 4.7
v -47.9 0.9 4.7
v -47.9 0.7 4.8
v -47.9 0.9 4.8
v -47.9 0.7 6.3
v -47.9 0.9 6.3
v -47.9 0.7 6.4
v -47.9 0.9 6.4
v -47.8 0.9 4.7
v -47.8 1 4.7
v -47.8 0.9 4.8
v -47.8 1 4.8
v -47.8 0.9 6.3
v -47.8 1 6.3
v -47.8 0.9 6.4
v -47.8 1 6.4
v -47.7 1 4.4
v -47.7 3.3 4.4
v -47.7 3.4 4.4
v -47.7 2.9 4.5
v -47.7 3.2 4.5
v -47.7 3.3 4.5
v -47.7 3.4 4.5
v -47.7 3.2 4.6
v -47.7 3.3 4.6
v -47.7 3.4 4.6
v -47.7 3.5 4.6
v -47.7 3.3 4.8
v -47.7 3.4 4.8
v -47.7 3.5 4.8
v -47.7 3.6 4.8
v -47.7 3.6 4.9
v -47.7 3.7 4.9
v -47.7 3.4 5
v -47.7 3.5 5
v -47.7 3.7 5.1
v -47.7 3.8 5.1
v -47.7 1 5.2
v -47.7 2.9 5.2
v -47.7 3.5 5.2
v -47.7 3.6 5.2
v -47.7 3.6 5.3
v -47.7 3.7 5.3
v -47.7 3.8 5.3
v -47.7 3.9 5.3
v -47.7 3.7 5.5
v -47.7 3.8 5.5
v -47.7 3.9 5.5
v -47.7 4 5.5
v -47.7 4 5.7
v -47.7 4.1 5.7
v -47.7 3.8 5.8
v -47.7 3.9 5.8
v -47.7 4.1 6.2
v -47.7 4.2 6.2
v -47.7 2.5 6.5
v -47.7 2.6 6.5
v -47.7 2.4 6.6
v -47.7 2.5 6.6
v -47.7 2.6 6.6
v -47.7 4.1 6.6
v -47.7 4.2 6.6
v -47.7 2.3 6.7
v -47.7 2.4 6.7
v -47.7 2.5 6.7
v -47.7 3.9 6.7
v -47.7 4.1 6.7
v -47.7 1 6.8
v -47.7 2.3 6.8
v -47.7 2.4 6.8
v -47.7 2.9 6.8
v -47.6 2.5 6.5
v -47.6 2.6 6.5
v -47.6 2.4 6.6
v -47.6 2.5 6.6
v -47.6 2.6 6.6
v -47.6 2.4 6.7
v -47.6 2.5 6.7
v -47.5 2.3 6.7
v -47.5 2.4 6.7
v -47.5 2.3 7
v -47.5 2.4 7
v -51.2 0.6 4.6
v -51.2 0.6 4.9
v -51.2 0.6 6.2
v -51.2 0.6 6.5
v -51.1 0.6 4.6
v -51.1 0.6 4.9
v -51.1 0.6 6.2
v -51.1 0.6 6.5
v -48.1 0.6 4.6
v -48.1 0.6 4.9
v -48.1 0.6 6.2
v -48.1 0.6 6.5
v -48 0.6 4.6
v -48 0.6 4.9
v -48 0.6 6.2
v -48 0.6 6.5
v -51.3 0.7 4.7
v -51.3 0.7 4.8
v -51.3 0.7 6.3
v -51.3 0.7 6.4
v -51.2 0.7 4.7
v -51.2 0.7 4.8
v -51.2 0.7 6.3
v -51.2 0.7 6.4
v -51.1 0.7 4.7
v -51.1 0.7 4.8
v -51.1 0.7 6.3
v -51.1 0.7 6.4
v -51 0.7 4.7
v -51 0.7 4.8
v -51 0.7 6.3
v -51 0.7 6.4
v -48.2 0.7 4.7
v -48.2 0.7 4.8
v -48.2 0.7 6.3
v -48.2 0.7 6.4
v -48.1 0.7 4.7
v -48.1 0.7 4.8
v -48.1 0.7 6.3
v -48.1 0.7 6.4
v -48 0.7 4.7
v -48 0.7 4.8
v -48 0.7 6.3
v -48 0.7 6.4
v -47.9 0.7 4.7
v -47.9 0.7 4.8
v -47.9 0.7 6.3
v -47.9 0.7 6.4
v -51.4 0.9 4.7
v -51.4 0.9 4.8
v -51.4 0.9 6.3
v -51.4 0.9 6.4
v -51.3 0.9 4.6
v -51.3 0.9 4.7
v -51.3 0.9 4.8
v -51.3 0.9 4.9
v -51.3 0.9 6.2
v -51.3 0.9 6.3
v -51.3 0.9 6.4
v -51.3 0.9 6.5
v -51.2 0.9 4.6
v -51.2 0.9 4.7
v -51.2 0.9 4.8
v -51.2 0.9 4.9
v -51.2 0.9 6.2
v -51.2 0.9 6.3
v -51.2 0.9 6.4
v -51.2 0.9 6.5
v -51 0.9 4.7
v -51 0.9 4.8
v -51 0.9 6.3
v -51 0.9 6.4
v -50.9 0.9 4.7
v -50.9 0.9 4.8
v -50.9 0.9 6.3
v -50.9 0.9 6.4
v -48.3 0.9 4.7
v -48.3 0.9 4.8
v -48.3 0.9 6.3
v -48.3 0.9 6.4
v -48.2 0.9 4.6
v -48.2 0.9 4.7
v -48.2 0.9 4.8
v -48.2 0.9 4.9
v -48.2 0.9 6.2
v -48.2 0.9 6.3
v -48.2 0.9 6.4
v -48.2 0.9 6.5
v -48.1 0.9 4.6
v -48.1 0.9 4.7
v -48.1 0.9 4.8
v -48.1 0.9 4.9
v -48.1 0.9 6.2
v -48.1 0.9 6.3
v -48.1 0.9 6.4
v -48.1 0.9 6.5
v -47.9 0.9 4.7
v -47.9 0.9 4.8
v -47.9 0.9 6.3
v -47.9 0.9 6.4
v -47.8 0.9 4.7
v -47.8 0.9 4.8
v -47.8 0.9 6.3
v -47.8 0.9 6.4
v -51.5 1 4.4
v -51.5 1 6.7
v -51.5 1 6.8
v -51.4 1 4.7
v -51.4 1 4.8
v -51.4 1 6.3
v -51.4 1 6.4
v -51.4 1 6.6
v -51.4 1 6.7
v -51.4 1 6.8
v -51.3 1 4.6
v -51.3 1 4.7
v -51.3 1 4.8
v -51.3 1 4.9
v -51.3 1 6.2
v -51.3 1 6.3
v -51.3 1 6.4
v -51.3 1 6.5
v -51.3 1 6.6
v -51.3 1 6.7
v -51.2 1 6.6
v -51.2 1 6.7
v -51.1 1 4.6
v -51.1 1 4.7
v -51.1 1 4.8
v -51.1 1 4.9
v -51.1 1 6.2
v -51.1 1 6.3
v -51.1 1 6.4
v -51.1 1 6.5
v -51.1 1 6.6
v -51.1 1 6.7
v -51 1 6.6
v -51 1 6.7
v -50.9 1 4.7
v -50.9 1 4.8
v -50.9 1 6.3
v -50.9 1 6.4
v -48.3 1 4.7
v -48.3 1 4.8
v -48.3 1 6.3
v -48.3 1 6.4
v -48.2 1 4.6
v -48.2 1 4.7
v -48.2 1 4.8
v -48.2 1 4.9
v -48.2 1 6.2
v -48.2 1 6.3
v -48.2 1 6.4
v -48.2 1 6.5
v -48.1 1 6.6
v -48.1 1 6.7
v -48 1 4.6
v -48 1 4.7
v -48 1 4.8
v -48 1 4.9
v -48 1 6.2
v -48 1 6.3
v -48 1 6.4
v -48 1 6.5
v -48 1 6.6
v -48 1 6.7
v -47.9 1 6.6
v -47.9 1 6.7
v -47.8 1 4.7
v -47.8 1 4.8
v -47.8 1 5.2
v -47.8 1 6.3
v -47.8 1 6.4
v -47.8 1 6.6
v -47.8 1 6.7
v -47.8 1 6.8
v -47.7 1 4.4
v -47.7 1 5.2
v -47.7 1 6.8
v -51.8 1.7 4.4
v -51.8 1.7 6.8
v -51.5 1.7 4.4
v -51.5 1.7 6.7
v -51.5 1.7 6.8
v -51.4 1.7 6.6
v -51.4 1.7 6.7
v -51.3 1.7 6.6
v -51.3 1.7 6.7
v -51.2 1.7 6.6
v -51.2 1.7 6.7
v -51.1 1.7 6.6
v -51.1 1.7 6.7
v -51 1.7 6.6
v -51 1.7 6.7
v -50.9 1.7 6.6
v -50.9 1.7 6.7
v -50.7 1.7 6.6
v -50.7 1.7 6.7
v -50.3 1.7 6.6
v -50.3 1.7 6.7
v -50.2 1.7 6.6
v -50.2 1.7 6.7
v -48.4 1.7 6.6
v -48.4 1.7 6.7
v -48.3 1.7 6.6
v -48.3 1.7 6.7
v -48.2 1.7 6.6
v -48.2 1.7 6.7
v -48.1 1.7 6.6
v -48.1 1.7 6.7
v -48 1.7 6.6
v -48 1.7 6.7
v -47.9 1.7 6.6
v -47.9 1.7 6.7
v -47.8 1.7 6.6
v -47.8 1.7 6.7
v -51.7 2 5
v -51.7 2 6.2
v -51.7 2 6.5
v -51.7 2 6.8
v -51.5 2 5
v -51.5 2 6.2
v -51.5 2 6.5
v -51.5 2 6.7
v -51.5 2 6.8
v -51.4 2.2 6.7
v -51.4 2.2 6.8
v -51.3 2.2 6.7
v -51 2.2 6.7
v -47.8 2.2 6.7
v -47.8 2.2 6.8
v -51.7 2.3 6.6
v -51.7 2.3 7
v -51.6 2.3 6.7
v -51.6 2.3 6.9
v -51.5 2.3 6.6
v -51.5 2.3 6.7
v -47.7 2.3 6.7
v -47.7 2.3 6.8
v -47.6 2.3 6.8
v -47.6 2.3 6.9
v -47.5 2.3 6.7
v -47.5 2.3 7
v -51.6 2.4 6.5
v -51.6 2.4 6.6
v -51.5 2.4 6.5
v -51.5 2.4 6.6
v -51.2 2.4 6.4
v -51.2 2.4 6.5
v -48 2.4 6.4
v -48 2.4 6.5
v -47.7 2.4 6.6
v -47.7 2.4 6.7
v -47.6 2.4 6.6
v -47.6 2.4 6.7
v -51.6 2.5 6.4
v -51.6 2.5 6.5
v -51.5 2.5 6.4
v -51.5 2.5 6.5
v -47.7 2.5 6.5
v -47.7 2.5 6.6
v -47.6 2.5 6.5
v -47.6 2.5 6.6
v -51.3 2.8 6.3
v -51.3 2.8 6.4
v -51.3 2.8 6.6
v -51.3 2.8 6.7
v -51.3 2.8 6.8
v -51.2 2.8 6.7
v -51.2 2.8 6.8
v -50.9 2.8 6.6
v -50.8 2.8 6.6
v -50.7 2.8 6.6
v -49.9 2.8 6.3
v -49.9 2.8 6.4
v -48.7 2.8 6.8
v -48.7 2.8 6.9
v -48.6 2.8 6.8
v -48.6 2.8 6.9
v -48.2 2.8 6.6
v -48 2.8 6.6
v -48 2.8 6.7
v -48 2.8 6.8
v -47.9 2.8 6.3
v -47.9 2.8 6.4
v -47.9 2.8 6.6
v -47.9 2.8 6.7
v -47.9 2.8 6.8
v -50.8 2.9 6.8
v -50.8 2.9 6.9
v -50.4 2.9 6.8
v -50.4 2.9 6.9
v -51.3 3 6
v -51.3 3 6.3
v -49.9 3 6
v -49.9 3 6.3
v -49.7 3 6
v -49.7 3 6.3
v -49 3 6.4
v -49 3 6.5
v -48.9 3 6.4
v -48.9 3 6.5
v -48.4 3 6.4
v -48.4 3 6.5
v -48.3 3 6.4
v -48.3 3 6.5
v -51.3 3.2 5.8
v -51.3 3.2 6
v -49.7 3.2 4.5
v -49.7 3.2 4.6
v -49.7 3.2 5.8
v -49.7 3.2 6
v -49.6 3.2 4.5
v -49.6 3.2 4.6
v -47.8 3.2 4.5
v -47.8 3.2 4.6
v -47.7 3.2 4.5
v -47.7 3.2 4.6
v -51.3 3.3 5.7
v -51.3 3.3 5.8
v -49.7 3.3 4.6
v -49.7 3.3 4.8
v -49.7 3.3 5.7
v -49.7 3.3 5.8
v -49.6 3.3 4.5
v -49.6 3.3 4.6
v -49.6 3.3 4.7
v -49.6 3.3 4.8
v -49.5 3.3 4.6
v -49.5 3.3 4.7
v -47.9 3.3 4.6
v -47.9 3.3 4.7
v -47.8 3.3 4.5
v -47.8 3.3 4.6
v -47.8 3.3 4.7
v -47.8 3.3 4.8
v -47.7 3.3 4.6
v -47.7 3.3 4.8
v -51.3 3.4 4.5
v -51.3 3.4 5.7
v -49.7 3.4 4.5
v -49.7 3.4 4.8
v -49.7 3.4 5
v -49.7 3.4 5.7
v -49.6 3.4 4.7
v -49.6 3.4 4.8
v -49.6 3.4 4.9
v -49.6 3.4 5
v -49.5 3.4 4.6
v -49.5 3.4 4.7
v -49.5 3.4 4.8
v -49.5 3.4 4.9
v -47.9 3.4 4.6
v -47.9 3.4 4.7
v -47.9 3.4 4.8
v -47.9 3.4 4.9
v -47.8 3.4 4.7
v -47.8 3.4 4.8
v -47.8 3.4 4.9
v -47.8 3.4 5
v -47.7 3.4 4.8
v -47.7 3.4 5
v -49.7 3.5 5
v -49.7 3.5 5.2
v -49.6 3.5 4.9
v -49.6 3.5 5
v -49.6 3.5 5.1
v -49.6 3.5 5.2
v -49.5 3.5 4.8
v -49.5 3.5 4.9
v -49.5 3.5 5
v -49.5 3.5 5.1
v -47.9 3.5 4.8
v -47.9 3.5 4.9
v -47.9 3.5 5
v -47.9 3.5 5.1
v -47.8 3.5 4.9
v -47.8 3.5 5
v -47.8 3.5 5.1
v -47.8 3.5 5.2
v -47.7 3.5 5
v -47.7 3.5 5.2
v -49.7 3.6 5.2
v -49.7 3.6 5.3
v -49.6 3.6 5.1
v -49.6 3.6 5.2
v -49.6 3.6 5.3
v -49.5 3.6 5
v -49.5 3.6 5.1
v -49.5 3.6 5.2
v -47.9 3.6 5
v -47.9 3.6 5.1
v -47.9 3.6 5.2
v -47.8 3.6 5.1
v -47.8 3.6 5.2
v -47.8 3.6 5.3
v -47.7 3.6 5.2
v -47.7 3.6 5.3
v -49.7 3.7 5.3
v -49.7 3.7 5.4
v -49.6 3.7 5.2
v -49.6 3.7 5.3
v -49.5 3.7 5.1
v -49.5 3.7 5.2
v -49.5 3.7 5.3
v -49.5 3.7 5.4
v -47.9 3.7 5.1
v -47.9 3.7 5.2
v -47.9 3.7 5.3
v -47.9 3.7 5.4
v -47.8 3.7 5.2
v -47.8 3.7 5.3
v -47.8 3.7 5.4
v -47.8 3.7 5.5
v -47.7 3.7 5.3
v -47.7 3.7 5.5
v -49.7 3.8 5.4
v -49.7 3.8 5.8
v -49.5 3.8 5.3
v -49.5 3.8 5.4
v -49.5 3.8 5.5
v -49.5 3.8 5.8
v -47.9 3.8 5.3
v -47.9 3.8 5.4
v -47.9 3.8 5.5
v -47.9 3.8 5.8
v -47.8 3.8 5.4
v -47.8 3.8 5.5
v -47.7 3.8 5.5
v -47.7 3.8 5.8
v -49.7 3.9 5.8
v -49.7 3.9 6.7
v -49.5 3.9 5.5
v -49.5 3.9 5.7
v -49.5 3.9 5.8
v -49.5 3.9 6.5
v -48.9 3.9 6.7
v -48.9 3.9 6.8
v -48.5 3.9 6.7
v -48.5 3.9 6.8
v -47.9 3.9 5.5
v -47.9 3.9 5.7
v -47.9 3.9 5.8
v -47.9 3.9 6.5
v -47.7 3.9 5.8
v -47.7 3.9 6.7
v -49.5 4 5.7
v -49.5 4 6.5
v -47.9 4 5.7
v -47.9 4 6.5
v -51.2 1.3 4.7
v -51.2 1.3 6.5
v -48 1.3 4.7
v -48 1.3 6.5
v -51.4 1.6 6.6
v -51.4 1.6 6.7
v -47.8 1.6 6.6
v -47.8 1.6 6.7
v -51.7 1.8 5
v -51.7 1.8 6.8
v -51.5 1.8 5
v -51.5 1.8 6.7
v -51.5 1.8 6.8
v -51.8 2.1 4.4
v -51.8 2.1 6.8
v -51.7 2.1 4.8
v -51.7 2.1 5.1
v -51.7 2.1 6.2
v -51.7 2.1 6.5
v -51.5 2.1 4.4
v -51.5 2.1 4.8
v -51.5 2.1 5.1
v -51.5 2.1 6.2
v -51.5 2.1 6.5
v -51.5 2.1 6.7
v -51.5 2.1 6.8
v -51.7 2.2 4.8
v -51.7 2.2 5.1
v -51.7 2.2 6.2
v -51.7 2.2 6.5
v -51.6 2.2 4.9
v -51.6 2.2 5
v -51.6 2.2 6.3
v -51.6 2.2 6.4
v -51.5 2.2 4.8
v -51.5 2.2 4.9
v -51.5 2.2 5
v -51.5 2.2 5.1
v -51.5 2.2 6.2
v -51.5 2.2 6.3
v -51.5 2.2 6.4
v -51.5 2.2 6.5
v -51.7 2.4 6.6
v -51.7 2.4 7
v -51.6 2.4 4.9
v -51.6 2.4 5
v -51.6 2.4 6.3
v -51.6 2.4 6.4
v -51.6 2.4 6.6
v -51.6 2.4 6.7
v -51.6 2.4 6.9
v -51.5 2.4 4.9
v -51.5 2.4 5
v -51.5 2.4 6.3
v -51.5 2.4 6.4
v -51.5 2.4 6.6
v -51.5 2.4 6.7
v -51.3 2.4 4.6
v -51.3 2.4 6.4
v -51.3 2.4 6.6
v -51.3 2.4 6.8
v -51.2 2.4 4.7
v -51.2 2.4 6.4
v -51.2 2.4 6.6
v -51 2.4 6.6
v -50.9 2.4 6.6
v -50.8 2.4 6.6
v -50.4 2.4 6.6
v -50.3 2.4 6.6
v -50.2 2.4 6.6
v -50.1 2.4 6.6
v -49.6 2.4 6.6
v -49.5 2.4 6.6
v -48.4 2.4 6.6
v -48.3 2.4 6.6
v -48.2 2.4 6.6
v -48.1 2.4 6.6
v -48 2.4 4.7
v -48 2.4 6.4
v -48 2.4 6.6
v -47.9 2.4 4.6
v -47.9 2.4 6.4
v -47.9 2.4 6.6
v -47.9 2.4 6.8
v -47.7 2.4 6.7
v -47.7 2.4 6.8
v -47.6 2.4 6.7
v -47.6 2.4 6.8
v -47.6 2.4 6.9
v -47.5 2.4 6.7
v -47.5 2.4 7
v -51.6 2.5 6.5
v -51.6 2.5 6.6
v -51.5 2.5 6.5
v -51.5 2.5 6.6
v -47.7 2.5 6.6
v -47.7 2.5 6.7
v -47.6 2.5 6.6
v -47.6 2.5 6.7
v -51.6 2.6 6.4
v -51.6 2.6 6.5
v -51.5 2.6 6.4
v -51.5 2.6 6.5
v -47.7 2.6 6.5
v -47.7 2.6 6.6
v -47.6 2.6 6.5
v -47.6 2.6 6.6
v -51.3 2.9 4.5
v -51.3 2.9 4.6
v -49.7 2.9 6.3
v -49.7 2.9 6.8
v -49 2.9 6.6
v -49 2.9 6.7
v -48.9 2.9 6.4
v -48.9 2.9 6.6
v -48.9 2.9 6.7
v -48.8 2.9 6.5
v -48.8 2.9 6.6
v -48.7 2.9 6.4
v -48.7 2.9 6.5
v -48.7 2.9 6.8
v -48.7 2.9 6.9
v -48.6 2.9 6.4
v -48.6 2.9 6.5
v -48.6 2.9 6.8
v -48.6 2.9 6.9
v -48.4 2.9 6.4
v -48.4 2.9 6.5
v -48 2.9 6.7
v -48 2.9 6.8
v -47.9 2.9 4.6
v -47.9 2.9 6.3
v -47.8 2.9 5.2
v -47.8 2.9 6.7
v -47.7 2.9 4.5
v -47.7 2.9 5.2
v -47.7 2.9 6.8
v -50.8 3 6.8
v -50.8 3 6.9
v -50.4 3 6.8
v -50.4 3 6.9
v -49 3 6.6
v -49 3 6.7
v -48.9 3 6.5
v -48.9 3 6.6
v -48.9 3 6.7
v -48.8 3 6.5
v -48.8 3 6.6
v -48.7 3 6.5
v -48.7 3 6.8
v -48.6 3 6.5
v -48.6 3 6.8
v -51.5 3.1 6.7
v -51.5 3.1 6.8
v -49.7 3.1 6.7
v -49.7 3.1 6.8
v -49 3.1 6.4
v -49 3.1 6.5
v -48.6 3.1 6.4
v -48.6 3.1 6.5
v -48.4 3.1 6.4
v -48.4 3.1 6.5
v -48.3 3.1 6.4
v -48.3 3.1 6.5
v -51.5 3.2 6.4
v -51.5 3.2 6.7
v -49.7 3.2 6.4
v -49.7 3.2 6.7
v -51.5 3.3 6.1
v -51.5 3.3 6.4
v -49.7 3.3 6.1
v -49.7 3.3 6.4
v -51.5 3.4 5.7
v -51.5 3.4 6.1
v -49.7 3.4 4.4
v -49.7 3.4 4.5
v -49.7 3.4 4.6
v -49.7 3.4 5.7
v -49.7 3.4 6.1
v -47.7 3.4 4.4
v -47.7 3.4 4.5
v -47.7 3.4 4.6
v -51.5 3.5 4.4
v -51.5 3.5 5.7
v -49.7 3.5 4.4
v -49.7 3.5 4.6
v -49.7 3.5 4.8
v -49.7 3.5 5.2
v -49.7 3.5 5.7
v -47.7 3.5 4.6
v -47.7 3.5 4.8
v -49.7 3.6 4.8
v -49.7 3.6 4.9
v -47.7 3.6 4.8
v -47.7 3.6 4.9
v -49.7 3.7 4.9
v -49.7 3.7 5.1
v -47.7 3.7 4.9
v -47.7 3.7 5.1
v -49.7 3.8 5.1
v -49.7 3.8 5.3
v -47.7 3.8 5.1
v -47.7 3.8 5.3
v -49.7 3.9 5.3
v -49.7 3.9 5.5
v -47.7 3.9 5.3
v -47.7 3.9 5.5
v -49.7 4 5.5
v -49.7 4 5.7
v -48.9 4 6.7
v -48.9 4 6.8
v -48.5 4 6.7
v -48.5 4 6.8
v -47.7 4 5.5
v -47.7 4 5.7
v -49.7 4.1 5.7
v -49.7 4.1 6.2
v -49.7 4.1 6.6
v -49.7 4.1 6.7
v -47.7 4.1 5.7
v -47.7 4.1 6.2
v -47.7 4.1 6.6
v -47.7 4.1 6.7
v -49.7 4.2 6.2
v -49.7 4.2 6.6
v -47.7 4.2 6.2
v -47.7 4.2 6.6

# faces
f 4/6/1 2/6/1 1/6/1
f 5/6/1 4/6/1 3/6/1
f 6/6/1 2/6/1 4/6/1
f 6/6/1 4/6/1 5/6/1
f 7/6/1 2/6/1 6/6/1
f 8/6/1 2/6/1 7/6/1
f 9/12/1 8/12/1 7/12/1
f 10/12/1 8/12/1 9/12/1
f 11/12/1 8/12/1 10/12/1
f 12/7/1 10/7/1 9/7/1
f 13/7/1 10/7/1 12/7/1
f 19/12/1 15/12/1 14/12/1
f 21/12/1 17/12/1 16/12/1
f 22/12/1 19/12/1 18/12/1
f 23/12/1 15/12/1 19/12/1
f 23/12/1 19/12/1 22/12/1
f 24/12/1 21/12/1 20/12/1
f 25/12/1 17/12/1 21/12/1
f 25/12/1 21/12/1 24/12/1
f 28/7/1 27/7/1 26/7/1
f 29/7/1 27/7/1 28/7/1
f 39/12/1 31/12/1 30/12/1
f 40/12/1 31/12/1 39/12/1
f 41/12/1 33/12/1 32/12/1
f 44/12/1 35/12/1 34/12/1
f 45/12/1 35/12/1 44/12/1
f 46/12/1 37/12/1 36/12/1
f 48/12/1 39/12/1 38/12/1
f 49/12/1 39/12/1 48/12/1
f 50/12/1 42/12/1 41/12/1
f 50/12/1 41/12/1 32/12/1
f 51/12/1 42/12/1 50/12/1
f 52/12/1 44/12/1 43/12/1
f 53/12/1 44/12/1 52/12/1
f 54/12/1 47/12/1 46/12/1
f 54/12/1 46/12/1 36/12/1
f 55/12/1 47/12/1 54/12/1
f 58/6/1 57/6/1 56/6/1
f 59/6/1 57/6/1 58/6/1
f 62/7/1 61/7/1 60/7/1
f 63/7/1 61/7/1 62/7/1
f 66/6/1 65/6/1 64/6/1
f 67/6/1 65/6/1 66/6/1
f 70/7/1 69/7/1 68/7/1
f 71/7/1 69/7/1 70/7/1
f 74/7/1 73/7/1 72/7/1
f 75/7/1 73/7/1 74/7/1
f 78/7/1 77/7/1 76/7/1
f 79/7/1 77/7/1 78/7/1
f 82/7/1 81/7/1 80/7/1
f 83/7/1 81/7/1 82/7/1
f 86/7/1 85/7/1 84/7/1
f 87/7/1 85/7/1 86/7/1
f 90/7/1 89/7/1 88/7/1
f 91/7/1 89/7/1 90/7/1
f 94/7/1 93/7/1 92/7/1
f 95/7/1 93/7/1 94/7/1
f 99/12/1 97/12/1 96/12/1
f 100/7/1 98/7/1 97/7/1
f 100/12/1 97/12/1 99/12/1
f 101/7/1 100/7/1 99/7/1
f 102/7/1 98/7/1 100/7/1
f 102/7/1 100/7/1 101/7/1
f 108/12/1 104/12/1 103/12/1
f 110/12/1 106/12/1 105/12/1
f 111/12/1 108/12/1 107/12/1
f 112/12/1 104/12/1 108/12/1
f 112/12/1 108/12/1 111/12/1
f 113/12/1 110/12/1 109/12/1
f 114/12/1 106/12/1 110/12/1
f 114/12/1 110/12/1 113/12/1
f 117/6/1 116/6/1 115/6/1
f 118/6/1 116/6/1 117/6/1
f 121/7/1 120/7/1 119/7/1
f 122/7/1 120/7/1 121/7/1
f 132/12/1 124/12/1 123/12/1
f 133/12/1 124/12/1 132/12/1
f 134/12/1 126/12/1 125/12/1
f 137/12/1 128/12/1 127/12/1
f 138/12/1 128/12/1 137/12/1
f 139/12/1 130/12/1 129/12/1
f 141/12/1 132/12/1 131/12/1
f 142/12/1 132/12/1 141/12/1
f 143/12/1 135/12/1 134/12/1
f 143/12/1 134/12/1 125/12/1
f 144/12/1 135/12/1 143/12/1
f 145/12/1 137/12/1 136/12/1
f 146/12/1 137/12/1 145/12/1
f 147/12/1 140/12/1 139/12/1
f 147/12/1 139/12/1 129/12/1
f 148/12/1 140/12/1 147/12/1
f 151/6/1 150/6/1 149/6/1
f 152/6/1 150/6/1 151/6/1
f 156/12/1 154/12/1 153/12/1
f 156/6/1 155/6/1 154/6/1
f 157/6/1 155/6/1 156/6/1
f 158/6/1 155/6/1 157/6/1
f 159/12/1 156/12/1 153/12/1
f 160/7/1 157/7/1 156/7/1
f 160/12/1 156/12/1 159/12/1
f 161/7/1 157/7/1 160/7/1
f 168/10/1 167/10/1 166/10/1
f 169/10/1 167/10/1 168/10/1
f 170/6/1 163/6/1 162/6/1
f 170/6/1 164/6/1 163/6/1
f 170/6/1 165/6/1 164/6/1
f 171/6/1 165/6/1 170/6/1
f 172/6/1 165/6/1 171/6/1
f 178/9/1 174/9/1 173/9/1
f 179/8/1 175/8/1 174/8/1
f 179/9/1 174/9/1 178/9/1
f 180/9/1 176/9/1 175/9/1
f 180/8/1 175/8/1 179/8/1
f 181/9/1 176/9/1 180/9/1
f 183/11/1 179/11/1 178/11/1
f 183/11/1 178/11/1 177/11/1
f 183/11/1 180/11/1 179/11/1
f 184/9/1 181/9/1 180/9/1
f 184/11/1 180/11/1 183/11/1
f 185/4/1 182/4/1 181/4/1
f 185/9/1 181/9/1 184/9/1
f 186/4/1 182/4/1 185/4/1
f 189/6/1 188/6/1 187/6/1
f 190/6/1 188/6/1 189/6/1
f 191/2/1 190/2/1 189/2/1
f 192/2/1 190/2/1 191/2/1
f 195/6/1 192/6/1 191/6/1
f 196/6/1 192/6/1 195/6/1
f 197/10/1 194/10/1 193/10/1
f 198/10/1 194/10/1 197/10/1
f 201/10/1 200/10/1 199/10/1
f 202/10/1 200/10/1 201/10/1
f 205/7/1 204/7/1 203/7/1
f 206/7/1 204/7/1 205/7/1
f 209/10/1 208/10/1 207/10/1
f 210/10/1 208/10/1 209/10/1
f 211/10/1 208/10/1 210/10/1
f 214/10/1 213/10/1 212/10/1
f 215/10/1 213/10/1 214/10/1
f 218/9/1 217/9/1 216/9/1
f 219/9/1 217/9/1 218/9/1
f 222/10/1 221/10/1 220/10/1
f 223/10/1 221/10/1 222/10/1
f 224/10/1 221/10/1 223/10/1
f 227/10/1 226/10/1 225/10/1
f 228/10/1 226/10/1 227/10/1
f 229/6/2 230/6/2 231/6/2
f 231/6/2 230/6/2 232/6/2
f 232/6/2 230/6/2 233/6/2
f 233/6/2 230/6/2 234/6/2
f 229/6/2 231/6/2 235/6/2
f 235/6/2 231/6/2 236/6/2
f 232/6/2 233/6/2 237/6/2
f 237/6/2 233/6/2 238/6/2
f 235/12/2 236/12/2 239/12/2
f 239/12/2 236/12/2 240/12/2
f 241/6/2 242/6/2 243/6/2
f 243/6/2 242/6/2 244/6/2
f 245/7/2 246/7/2 249/7/2
f 249/7/2 246/7/2 250/7/2
f 247/7/2 248/7/2 253/7/2
f 253/7/2 248/7/2 254/7/2
f 251/7/2 252/7/2 255/7/2
f 255/7/2 252/7/2 256/7/2
f 257/6/2 258/6/2 259/6/2
f 259/6/2 258/6/2 260/6/2
f 261/7/2 262/7/2 265/7/2
f 265/7/2 262/7/2 266/7/2
f 263/7/2 264/7/2 267/7/2
f 267/7/2 264/7/2 268/7/2
f 269/12/2 270/12/2 278/12/2
f 278/12/2 270/12/2 279/12/2
f 271/12/2 272/12/2 280/12/2
f 273/12/2 274/12/2 283/12/2
f 283/12/2 274/12/2 284/12/2
f 275/12/2 276/12/2 285/12/2
f 277/12/2 278/12/2 287/12/2
f 287/12/2 278/12/2 288/12/2
f 280/12/2 281/12/2 289/12/2
f 271/12/2 280/12/2 289/12/2
f 289/12/2 281/12/2 290/12/2
f 282/12/2 283/12/2 291/12/2
f 291/12/2 283/12/2 292/12/2
f 285/12/2 286/12/2 293/12/2
f 275/12/2 285/12/2 293/12/2
f 293/12/2 286/12/2 294/12/2
f 295/7/2 296/7/2 299/7/2
f 299/7/2 296/7/2 300/7/2
f 297/7/2 298/7/2 303/7/2
f 303/7/2 298/7/2 304/7/2
f 301/7/2 302/7/2 305/7/2
f 305/7/2 302/7/2 306/7/2
f 307/12/2 308/12/2 312/12/2
f 309/12/2 310/12/2 314/12/2
f 311/12/2 312/12/2 315/12/2
f 312/12/2 308/12/2 316/12/2
f 315/12/2 312/12/2 316/12/2
f 313/12/2 314/12/2 317/12/2
f 314/12/2 310/12/2 318/12/2
f 317/12/2 314/12/2 318/12/2
f 319/7/2 320/7/2 323/7/2
f 323/7/2 320/7/2 324/7/2
f 321/7/2 322/7/2 325/7/2
f 325/7/2 322/7/2 326/7/2
f 327/12/2 328/12/2 329/12/2
f 329/12/2 328/12/2 330/12/2
f 331/6/2 332/6/2 333/6/2
f 333/6/2 332/6/2 334/6/2
f 335/7/2 336/7/2 339/7/2
f 339/7/2 336/7/2 340/7/2
f 337/7/2 338/7/2 343/7/2
f 343/7/2 338/7/2 344/7/2
f 341/7/2 342/7/2 345/7/2
f 345/7/2 342/7/2 346/7/2
f 347/6/2 348/6/2 349/6/2
f 349/6/2 348/6/2 350/6/2
f 351/7/2 352/7/2 355/7/2
f 355/7/2 352/7/2 356/7/2
f 353/7/2 354/7/2 357/7/2
f 357/7/2 354/7/2 358/7/2
f 356/7/2 357/7/2 359/7/2
f 359/7/2 357/7/2 360/7/2
f 361/7/2 362/7/2 365/7/2
f 365/7/2 362/7/2 366/7/2
f 363/7/2 364/7/2 369/7/2
f 369/7/2 364/7/2 370/7/2
f 366/7/2 367/7/2 371/7/2
f 371/7/2 367/7/2 372/7/2
f 368/7/2 369/7/2 373/7/2
f 373/7/2 369/7/2 374/7/2
f 375/7/2 376/7/2 379/7/2
f 379/7/2 376/7/2 380/7/2
f 377/7/2 378/7/2 383/7/2
f 383/7/2 378/7/2 384/7/2
f 381/7/2 382/7/2 385/7/2
f 385/7/2 382/7/2 386/7/2
f 387/7/2 388/7/2 391/7/2
f 391/7/2 388/7/2 392/7/2
f 389/7/2 390/7/2 393/7/2
f 393/7/2 390/7/2 394/7/2
f 395/7/2 396/7/2 399/7/2
f 399/7/2 396/7/2 400/7/2
f 397/7/2 398/7/2 401/7/2
f 401/7/2 398/7/2 402/7/2
f 403/7/2 404/7/2 405/7/2
f 405/7/2 404/7/2 406/7/2
f 407/7/2 408/7/2 409/7/2
f 409/7/2 408/7/2 410/7/2
f 411/7/2 412/7/2 415/7/2
f 415/7/2 412/7/2 416/7/2
f 413/7/2 414/7/2 417/7/2
f 417/7/2 414/7/2 418/7/2
f 419/7/2 420/7/2 421/7/2
f 421/7/2 420/7/2 422/7/2
f 423/12/2 424/12/2 432/12/2
f 432/12/2 424/12/2 433/12/2
f 425/12/2 426/12/2 434/12/2
f 427/12/2 428/12/2 437/12/2
f 437/12/2 428/12/2 438/12/2
f 429/12/2 430/12/2 439/12/2
f 431/12/2 432/12/2 441/12/2
f 441/12/2 432/12/2 442/12/2
f 434/12/2 435/12/2 443/12/2
f 425/12/2 434/12/2 443/12/2
f 443/12/2 435/12/2 444/12/2
f 436/12/2 437/12/2 445/12/2
f 445/12/2 437/12/2 446/12/2
f 439/12/2 440/12/2 447/12/2
f 429/12/2 439/12/2 447/12/2
f 447/12/2 440/12/2 448/12/2
f 449/6/2 450/6/2 451/6/2
f 451/6/2 450/6/2 452/6/2
f 453/7/2 454/7/2 455/7/2
f 455/7/2 454/7/2 456/7/2
f 457/12/2 458/12/2 462/12/2
f 459/12/2 460/12/2 464/12/2
f 461/12/2 462/12/2 465/12/2
f 462/12/2 458/12/2 466/12/2
f 465/12/2 462/12/2 466/12/2
f 463/12/2 464/12/2 467/12/2
f 464/12/2 460/12/2 468/12/2
f 467/12/2 464/12/2 468/12/2
f 469/6/2 470/6/2 471/6/2
f 471/6/2 470/6/2 472/6/2
f 473/10/2 474/10/2 475/10/2
f 475/10/2 474/10/2 476/10/2
f 477/9/2 478/9/2 483/9/2
f 483/9/2 478/9/2 484/9/2
f 479/9/2 480/9/2 485/9/2
f 485/9/2 480/9/2 486/9/2
f 481/11/2 482/11/2 488/11/2
f 483/11/2 484/11/2 488/11/2
f 482/11/2 483/11/2 488/11/2
f 484/11/2 485/11/2 488/11/2
f 485/9/2 486/9/2 489/9/2
f 488/11/2 485/11/2 489/11/2
f 486/4/2 487/4/2 490/4/2
f 489/9/2 486/9/2 490/9/2
f 490/4/2 487/4/2 491/4/2
f 492/2/2 493/2/2 494/2/2
f 494/2/2 493/2/2 495/2/2
f 495/2/2 493/2/2 496/2/2
f 496/2/2 493/2/2 497/2/2
f 497/2/2 493/2/2 498/2/2
f 498/2/2 493/2/2 499/2/2
f 499/2/2 493/2/2 500/2/2
f 500/2/2 493/2/2 501/2/2
f 501/2/2 493/2/2 502/2/2
f 502/2/2 493/2/2 503/2/2
f 503/2/2 493/2/2 504/2/2
f 504/2/2 493/2/2 505/2/2
f 505/2/2 493/2/2 506/2/2
f 506/2/2 493/2/2 507/2/2
f 507/2/2 493/2/2 508/2/2
f 508/2/2 493/2/2 509/2/2
f 510/10/2 511/10/2 529/10/2
f 529/10/2 511/10/2 530/10/2
f 512/2/2 513/2/2 531/2/2
f 513/6/2 514/6/2 532/6/2
f 531/2/2 513/2/2 532/2/2
f 514/5/2 515/5/2 533/5/2
f 532/6/2 514/6/2 533/6/2
f 515/6/2 516/6/2 534/6/2
f 533/5/2 515/5/2 534/5/2
f 516/2/2 517/2/2 535/2/2
f 534/6/2 516/6/2 535/6/2
f 517/6/2 518/6/2 536/6/2
f 535/2/2 517/2/2 536/2/2
f 518/2/2 519/2/2 537/2/2
f 536/6/2 518/6/2 537/6/2
f 519/6/2 520/6/2 538/6/2
f 537/2/2 519/2/2 538/2/2
f 520/2/2 521/2/2 539/2/2
f 538/6/2 520/6/2 539/6/2
f 521/6/2 522/6/2 540/6/2
f 539/2/2 521/2/2 540/2/2
f 522/2/2 523/2/2 541/2/2
f 540/6/2 522/6/2 541/6/2
f 523/6/2 524/6/2 542/6/2
f 541/2/2 523/2/2 542/2/2
f 524/2/2 525/2/2 543/2/2
f 542/6/2 524/6/2 543/6/2
f 525/6/2 526/6/2 544/6/2
f 543/2/2 525/2/2 544/2/2
f 526/2/2 527/2/2 545/2/2
f 544/6/2 526/6/2 545/6/2
f 527/6/2 528/6/2 546/6/2
f 545/2/2 527/2/2 546/2/2
f 531/6/2 532/6/2 549/6/2
f 532/5/2 533/5/2 550/5/2
f 549/6/2 532/6/2 550/6/2
f 550/5/2 533/5/2 551/5/2
f 533/6/2 534/6/2 552/6/2
f 551/5/2 533/5/2 552/5/2
f 534/6/2 535/6/2 552/6/2
f 535/6/2 536/6/2 552/6/2
f 536/6/2 537/6/2 552/6/2
f 537/6/2 538/6/2 552/6/2
f 538/6/2 539/6/2 552/6/2
f 541/6/2 542/6/2 552/6/2
f 540/6/2 541/6/2 552/6/2
f 539/6/2 540/6/2 552/6/2
f 552/6/2 542/6/2 553/6/2
f 542/2/2 543/2/2 554/2/2
f 553/6/2 542/6/2 554/6/2
f 544/6/2 545/6/2 555/6/2
f 554/2/2 543/2/2 555/2/2
f 545/6/2 546/6/2 555/6/2
f 543/6/2 544/6/2 555/6/2
f 547/10/2 548/10/2 556/10/2
f 556/10/2 548/10/2 557/10/2
f 551/6/2 552/6/2 558/6/2
f 550/5/2 551/5/2 558/5/2
f 549/5/2 550/5/2 558/5/2
f 552/5/2 553/5/2 559/5/2
f 558/6/2 552/6/2 559/6/2
f 553/6/2 554/6/2 560/6/2
f 554/6/2 555/6/2 560/6/2
f 560/6/2 555/6/2 561/6/2
f 555/6/2 546/6/2 562/6/2
f 561/6/2 555/6/2 562/6/2
f 546/6/2 528/6/2 563/6/2
f 562/6/2 546/6/2 563/6/2
f 563/6/2 528/6/2 564/6/2
f 558/5/2 559/5/2 565/5/2
f 549/5/2 558/5/2 565/5/2
f 559/5/2 553/5/2 566/5/2
f 565/5/2 559/5/2 566/5/2
f 553/6/2 560/6/2 566/6/2
f 560/5/2 561/5/2 567/5/2
f 566/6/2 560/6/2 567/6/2
f 561/6/2 562/6/2 568/6/2
f 567/5/2 561/5/2 568/5/2
f 562/5/2 563/5/2 569/5/2
f 568/6/2 562/6/2 569/6/2
f 563/2/2 564/2/2 570/2/2
f 569/5/2 563/5/2 570/5/2
f 570/2/2 564/2/2 571/2/2
f 572/9/2 573/9/2 574/9/2
f 574/9/2 573/9/2 575/9/2
f 576/7/2 577/7/2 578/7/2
f 578/7/2 577/7/2 579/7/2
f 580/2/2 581/2/2 589/2/2
f 581/3/2 582/3/2 590/3/2
f 589/2/2 581/2/2 590/2/2
f 582/2/2 583/2/2 591/2/2
f 590/3/2 582/3/2 591/3/2
f 583/3/2 584/3/2 592/3/2
f 591/2/2 583/2/2 592/2/2
f 584/6/2 585/6/2 593/6/2
f 592/3/2 584/3/2 593/3/2
f 593/6/2 585/6/2 594/6/2
f 585/2/2 586/2/2 595/2/2
f 594/6/2 585/6/2 595/6/2
f 586/3/2 587/3/2 596/3/2
f 595/2/2 586/2/2 596/2/2
f 587/2/2 588/2/2 597/2/2
f 596/3/2 587/3/2 597/3/2
f 597/2/2 588/2/2 598/2/2
f 589/6/2 590/6/2 599/6/2
f 590/6/2 591/6/2 599/6/2
f 599/6/2 591/6/2 600/6/2
f 591/3/2 592/3/2 601/3/2
f 600/6/2 591/6/2 601/6/2
f 593/6/2 594/6/2 602/6/2
f 601/3/2 592/3/2 602/3/2
f 592/6/2 593/6/2 602/6/2
f 594/2/2 595/2/2 603/2/2
f 602/6/2 594/6/2 603/6/2
f 595/6/2 596/6/2 604/6/2
f 603/2/2 595/2/2 604/2/2
f 596/2/2 597/2/2 605/2/2
f 604/6/2 596/6/2 605/6/2
f 597/6/2 598/6/2 606/6/2
f 605/2/2 597/2/2 606/2/2
f 606/6/2 598/6/2 607/6/2
f 599/3/2 600/3/2 608/3/2
f 602/6/2 603/6/2 609/6/2
f 608/3/2 600/3/2 609/3/2
f 604/6/2 605/6/2 609/6/2
f 600/6/2 601/6/2 609/6/2
f 605/6/2 606/6/2 609/6/2
f 603/6/2 604/6/2 609/6/2
f 601/6/2 602/6/2 609/6/2
f 606/2/2 607/2/2 610/2/2
f 609/6/2 606/6/2 610/6/2
f 610/2/2 607/2/2 611/2/2
f 608/1/2 609/1/2 612/1/2
f 609/6/2 610/6/2 613/6/2
f 612/1/2 609/1/2 613/1/2
f 610/6/2 611/6/2 613/6/2
f 612/6/2 613/6/2 614/6/2
f 613/6/2 611/6/2 615/6/2
f 614/6/2 613/6/2 615/6/2
f 616/6/2 617/6/2 632/6/2
f 617/3/2 618/3/2 632/3/2
f 618/2/2 619/2/2 633/2/2
f 632/3/2 618/3/2 633/3/2
f 619/3/2 620/3/2 634/3/2
f 633/2/2 619/2/2 634/2/2
f 620/1/2 621/1/2 635/1/2
f 634/3/2 620/3/2 635/3/2
f 621/2/2 622/2/2 636/2/2
f 635/1/2 621/1/2 636/1/2
f 622/6/2 623/6/2 637/6/2
f 636/2/2 622/2/2 637/2/2
f 637/6/2 623/6/2 638/6/2
f 623/2/2 624/2/2 639/2/2
f 638/6/2 623/6/2 639/6/2
f 624/6/2 625/6/2 640/6/2
f 639/2/2 624/2/2 640/2/2
f 625/3/2 626/3/2 641/3/2
f 640/6/2 625/6/2 641/6/2
f 626/6/2 627/6/2 642/6/2
f 641/3/2 626/3/2 642/3/2
f 627/2/2 628/2/2 643/2/2
f 642/6/2 627/6/2 643/6/2
f 628/6/2 629/6/2 644/6/2
f 643/2/2 628/2/2 644/2/2
f 629/3/2 630/3/2 645/3/2
f 644/6/2 629/6/2 645/6/2
f 630/2/2 631/2/2 646/2/2
f 645/3/2 630/3/2 646/3/2
f 646/2/2 631/2/2 647/2/2
f 632/6/2 633/6/2 648/6/2
f 633/3/2 634/3/2 648/3/2
f 634/6/2 635/6/2 649/6/2
f 648/3/2 634/3/2 649/3/2
f 635/6/2 636/6/2 649/6/2
f 637/6/2 638/6/2 649/6/2
f 636/6/2 637/6/2 649/6/2
f 649/6/2 638/6/2 650/6/2
f 650/6/2 638/6/2 651/6/2
f 638/2/2 639/2/2 652/2/2
f 651/6/2 638/6/2 652/6/2
f 643/6/2 644/6/2 653/6/2
f 652/2/2 639/2/2 653/2/2
f 642/6/2 643/6/2 653/6/2
f 639/6/2 640/6/2 653/6/2
f 640/6/2 641/6/2 653/6/2
f 641/6/2 642/6/2 653/6/2
f 644/1/2 645/1/2 654/1/2
f 653/6/2 644/6/2 654/6/2
f 645/2/2 646/2/2 655/2/2
f 654/1/2 645/1/2 655/1/2
f 646/6/2 647/6/2 656/6/2
f 655/2/2 646/2/2 656/2/2
f 616/6/2 632/6/2 657/6/2
f 632/6/2 648/6/2 657/6/2
f 649/6/2 650/6/2 657/6/2
f 648/6/2 649/6/2 657/6/2
f 650/13/2 651/13/2 658/13/2
f 657/6/2 650/6/2 658/6/2
f 652/6/2 653/6/2 659/6/2
f 658/13/2 651/13/2 659/13/2
f 651/6/2 652/6/2 659/6/2
f 654/6/2 655/6/2 659/6/2
f 653/6/2 654/6/2 659/6/2
f 655/6/2 656/6/2 659/6/2
f 616/6/2 657/6/2 660/6/2
f 657/13/2 658/13/2 661/13/2
f 660/6/2 657/6/2 661/6/2
f 658/6/2 659/6/2 662/6/2
f 661/13/2 658/13/2 662/13/2
f 659/6/2 656/6/2 663/6/2
f 662/6/2 659/6/2 663/6/2
f 656/6/2 647/6/2 663/6/2
f 660/2/2 661/2/2 664/2/2
f 661/13/2 662/13/2 665/13/2
f 664/2/2 661/2/2 665/2/2
f 662/2/2 663/2/2 666/2/2
f 665/13/2 662/13/2 666/13/2
f 666/2/2 663/2/2 667/2/2
f 668/10/2 669/10/2 670/10/2
f 670/10/2 669/10/2 671/10/2
f 672/10/2 673/10/2 674/10/2
f 674/10/2 673/10/2 675/10/2
f 676/9/2 677/9/2 678/9/2
f 678/9/2 677/9/2 679/9/2
f 680/7/2 681/7/2 682/7/2
f 682/7/2 681/7/2 683/7/2
f 684/7/2 685/7/2 688/7/2
f 686/7/2 687/7/2 689/7/2
f 684/7/2 688/7/2 690/7/2
f 688/7/2 689/7/2 690/7/2
f 689/7/2 687/7/2 691/7/2
f 690/7/2 689/7/2 691/7/2
f 692/2/2 693/2/2 697/2/2
f 696/6/2 697/6/2 698/6/2
f 697/2/2 693/2/2 699/2/2
f 698/6/2 697/6/2 699/6/2
f 696/6/2 698/6/2 700/6/2
f 699/2/2 693/2/2 701/2/2
f 696/6/2 700/6/2 702/6/2
f 700/6/2 701/6/2 702/6/2
f 701/2/2 693/2/2 703/2/2
f 702/6/2 701/6/2 703/6/2
f 703/2/2 693/2/2 704/2/2
f 694/2/2 695/2/2 705/2/2
f 705/2/2 695/2/2 706/2/2
f 704/6/2 705/6/2 708/6/2
f 708/6/2 705/6/2 709/6/2
f 706/10/2 707/10/2 710/10/2
f 705/2/2 706/2/2 710/2/2
f 710/10/2 707/10/2 711/10/2
f 709/6/2 705/6/2 712/6/2
f 705/2/2 710/2/2 713/2/2
f 712/6/2 705/6/2 713/6/2
f 703/2/2 704/2/2 714/2/2
f 704/6/2 708/6/2 714/6/2
f 714/6/2 708/6/2 715/6/2
f 712/2/2 713/2/2 716/2/2
f 713/2/2 710/2/2 717/2/2
f 716/2/2 713/2/2 717/2/2
f 716/6/2 717/6/2 718/6/2
f 717/2/2 710/2/2 719/2/2
f 718/6/2 717/6/2 719/6/2
f 714/2/2 715/2/2 720/2/2
f 718/2/2 719/2/2 725/2/2
f 703/2/2 714/2/2 726/2/2
f 714/2/2 720/2/2 726/2/2
f 720/2/2 721/2/2 726/2/2
f 721/6/2 722/6/2 727/6/2
f 726/2/2 721/2/2 727/2/2
f 727/6/2 722/6/2 728/6/2
f 728/6/2 722/6/2 729/6/2
f 729/6/2 722/6/2 730/6/2
f 730/6/2 722/6/2 731/6/2
f 723/6/2 724/6/2 732/6/2
f 724/2/2 725/2/2 733/2/2
f 732/6/2 724/6/2 733/6/2
f 719/2/2 710/2/2 734/2/2
f 733/2/2 725/2/2 734/2/2
f 725/2/2 719/2/2 734/2/2
f 726/7/2 727/7/2 735/7/2
f 727/7/2 728/7/2 735/7/2
f 729/7/2 730/7/2 736/7/2
f 731/9/2 732/9/2 737/9/2
f 737/9/2 732/9/2 738/9/2
f 735/7/2 736/7/2 739/7/2
f 726/7/2 735/7/2 739/7/2
f 736/7/2 730/7/2 740/7/2
f 739/7/2 736/7/2 740/7/2
f 741/7/2 742/7/2 743/7/2
f 743/7/2 742/7/2 744/7/2
f 745/9/2 746/9/2 749/9/2
f 749/9/2 746/9/2 750/9/2
f 747/7/2 748/7/2 751/7/2
f 751/7/2 748/7/2 752/7/2
f 753/10/2 754/10/2 755/10/2
f 755/10/2 754/10/2 756/10/2
f 759/6/3 758/6/3 757/6/3
f 760/6/3 758/6/3 759/6/3
f 763/6/3 762/6/3 761/6/3
f 764/6/3 762/6/3 763/6/3
f 767/6/3 766/6/3 765/6/3
f 768/6/3 766/6/3 767/6/3
f 771/10/3 770/10/3 769/10/3
f 772/10/3 770/10/3 771/10/3
f 775/6/3 774/6/3 773/6/3
f 776/6/3 774/6/3 775/6/3
f 779/6/3 778/6/3 777/6/3
f 780/6/3 778/6/3 779/6/3
f 784/10/3 782/10/3 781/10/3
f 785/10/3 782/10/3 784/10/3
f 786/10/3 784/10/3 783/10/3
f 787/10/3 784/10/3 786/10/3
f 794/6/3 791/6/3 790/6/3
f 794/12/3 792/12/3 791/12/3
f 795/7/3 793/7/3 792/7/3
f 795/12/3 792/12/3 794/12/3
f 796/6/3 794/6/3 790/6/3
f 797/6/3 794/6/3 796/6/3
f 798/6/3 794/6/3 797/6/3
f 799/6/3 794/6/3 798/6/3
f 803/6/3 794/6/3 799/6/3
f 805/6/3 803/6/3 802/6/3
f 806/6/3 794/6/3 803/6/3
f 806/6/3 805/6/3 804/6/3
f 806/6/3 803/6/3 805/6/3
f 807/7/3 795/7/3 794/7/3
f 807/6/3 794/6/3 806/6/3
f 808/7/3 793/7/3 795/7/3
f 808/7/3 795/7/3 807/7/3
f 809/7/3 793/7/3 808/7/3
f 810/7/3 807/7/3 806/7/3
f 810/7/3 808/7/3 807/7/3
f 811/7/3 808/7/3 810/7/3
f 812/6/3 801/6/3 800/6/3
f 813/6/3 806/6/3 804/6/3
f 814/6/3 806/6/3 813/6/3
f 815/6/3 806/6/3 814/6/3
f 816/6/3 806/6/3 815/6/3
f 817/6/3 806/6/3 816/6/3
f 818/7/3 810/7/3 806/7/3
f 818/6/3 806/6/3 817/6/3
f 820/6/3 817/6/3 816/6/3
f 821/6/3 817/6/3 820/6/3
f 822/6/3 817/6/3 821/6/3
f 823/7/3 818/7/3 817/7/3
f 823/7/3 810/7/3 818/7/3
f 824/7/3 810/7/3 823/7/3
f 825/6/3 812/6/3 800/6/3
f 827/6/3 820/6/3 819/6/3
f 827/6/3 821/6/3 820/6/3
f 828/6/3 821/6/3 827/6/3
f 829/6/3 821/6/3 828/6/3
f 830/6/3 817/6/3 822/6/3
f 831/6/3 817/6/3 830/6/3
f 832/7/3 823/7/3 817/7/3
f 832/6/3 817/6/3 831/6/3
f 833/6/3 827/6/3 826/6/3
f 833/6/3 828/6/3 827/6/3
f 834/6/3 828/6/3 833/6/3
f 835/6/3 831/6/3 830/6/3
f 835/6/3 830/6/3 829/6/3
f 836/6/3 831/6/3 835/6/3
f 837/7/3 832/7/3 831/7/3
f 837/6/3 831/6/3 836/6/3
f 838/6/3 789/6/3 788/6/3
f 839/6/3 789/6/3 838/6/3
f 840/6/3 825/6/3 800/6/3
f 841/6/3 825/6/3 840/6/3
f 842/6/3 833/6/3 826/6/3
f 843/6/3 833/6/3 842/6/3
f 844/6/3 836/6/3 835/6/3
f 844/6/3 835/6/3 834/6/3
f 845/7/3 837/7/3 836/7/3
f 845/6/3 836/6/3 844/6/3
f 846/7/3 832/7/3 837/7/3
f 846/7/3 837/7/3 845/7/3
f 846/7/3 823/7/3 832/7/3
f 847/7/3 823/7/3 846/7/3
f 848/2/3 839/2/3 838/2/3
f 849/2/3 839/2/3 848/2/3
f 850/2/3 841/2/3 840/2/3
f 851/2/3 841/2/3 850/2/3
f 852/2/3 845/2/3 844/2/3
f 852/2/3 844/2/3 843/2/3
f 852/2/3 843/2/3 842/2/3
f 853/7/3 846/7/3 845/7/3
f 853/2/3 845/2/3 852/2/3
f 854/7/3 846/7/3 853/7/3
f 857/12/3 856/12/3 855/12/3
f 858/12/3 856/12/3 857/12/3
f 861/12/3 860/12/3 859/12/3
f 862/12/3 860/12/3 861/12/3
f 866/12/3 864/12/3 863/12/3
f 867/12/3 864/12/3 866/12/3
f 868/12/3 866/12/3 865/12/3
f 869/12/3 866/12/3 868/12/3
f 871/12/3 870/12/3 869/12/3
f 872/12/3 870/12/3 871/12/3
f 876/12/3 874/12/3 873/12/3
f 877/12/3 874/12/3 876/12/3
f 878/12/3 876/12/3 875/12/3
f 879/12/3 876/12/3 878/12/3
f 881/12/3 880/12/3 879/12/3
f 882/12/3 880/12/3 881/12/3
f 885/12/3 884/12/3 883/12/3
f 886/12/3 884/12/3 885/12/3
f 887/12/3 885/12/3 883/12/3
f 889/12/3 887/12/3 883/12/3
f 889/12/3 888/12/3 887/12/3
f 890/12/3 888/12/3 889/12/3
f 893/12/3 892/12/3 891/12/3
f 894/12/3 892/12/3 893/12/3
f 895/12/3 893/12/3 891/12/3
f 897/12/3 895/12/3 891/12/3
f 897/12/3 896/12/3 895/12/3
f 898/12/3 896/12/3 897/12/3
f 901/7/3 900/7/3 899/7/3
f 902/7/3 900/7/3 901/7/3
f 906/7/3 904/7/3 903/7/3
f 906/7/3 905/7/3 904/7/3
f 907/7/3 905/7/3 906/7/3
f 908/7/3 905/7/3 907/7/3
f 909/7/3 905/7/3 908/7/3
f 912/7/3 911/7/3 910/7/3
f 914/7/3 913/7/3 912/7/3
f 916/7/3 912/7/3 910/7/3
f 916/7/3 915/7/3 914/7/3
f 916/7/3 914/7/3 912/7/3
f 917/7/3 915/7/3 916/7/3
f 918/7/3 915/7/3 917/7/3
f 919/7/3 915/7/3 918/7/3
f 920/7/3 915/7/3 919/7/3
f 922/7/3 921/7/3 920/7/3
f 922/7/3 920/7/3 919/7/3
f 923/7/3 921/7/3 922/7/3
f 924/7/3 921/7/3 923/7/3
f 926/7/3 925/7/3 924/7/3
f 928/7/3 924/7/3 923/7/3
f 928/7/3 927/7/3 926/7/3
f 928/7/3 926/7/3 924/7/3
f 929/7/3 927/7/3 928/7/3
f 930/7/3 927/7/3 929/7/3
f 932/7/3 930/7/3 929/7/3
f 932/7/3 931/7/3 930/7/3
f 933/7/3 931/7/3 932/7/3
f 934/7/3 932/7/3 929/7/3
f 935/7/3 932/7/3 934/7/3
f 938/11/3 937/11/3 936/11/3
f 939/11/3 937/11/3 938/11/3
f 942/9/3 941/9/3 940/9/3
f 943/9/3 941/9/3 942/9/3
f 946/9/3 945/9/3 944/9/3
f 947/9/3 946/9/3 944/9/3
f 948/9/3 946/9/3 947/9/3
f 951/7/3 950/7/3 949/7/3
f 952/7/3 950/7/3 951/7/3
f 956/9/3 954/9/3 953/9/3
f 957/9/3 954/9/3 956/9/3
f 958/9/3 956/9/3 955/9/3
f 959/9/3 956/9/3 958/9/3
f 962/12/3 961/12/3 960/12/3
f 963/12/3 961/12/3 962/12/3
f 966/12/3 965/12/3 964/12/3
f 967/12/3 965/12/3 966/12/3
f 971/12/3 969/12/3 968/12/3
f 972/12/3 969/12/3 971/12/3
f 973/12/3 971/12/3 970/12/3
f 974/12/3 971/12/3 973/12/3
f 976/12/3 975/12/3 974/12/3
f 977/12/3 975/12/3 976/12/3
f 981/12/3 979/12/3 978/12/3
f 982/12/3 979/12/3 981/12/3
f 983/12/3 981/12/3 980/12/3
f 984/12/3 981/12/3 983/12/3
f 986/12/3 985/12/3 984/12/3
f 987/12/3 985/12/3 986/12/3
f 990/12/3 989/12/3 988/12/3
f 991/12/3 989/12/3 990/12/3
f 992/12/3 990/12/3 988/12/3
f 994/12/3 992/12/3 988/12/3
f 994/12/3 993/12/3 992/12/3
f 995/12/3 993/12/3 994/12/3
f 998/12/3 997/12/3 996/12/3
f 999/12/3 997/12/3 998/12/3
f 1000/12/3 998/12/3 996/12/3
f 1002/12/3 1000/12/3 996/12/3
f 1002/12/3 1001/12/3 1000/12/3
f 1003/12/3 1001/12/3 1002/12/3
f 1006/6/3 1005/6/3 1004/6/3
f 1007/6/3 1006/6/3 1004/6/3
f 1008/6/3 1006/6/3 1007/6/3
f 1009/6/3 1006/6/3 1008/6/3
f 1010/6/3 1006/6/3 1009/6/3
f 1015/7/3 1014/7/3 1013/7/3
f 1016/7/3 1014/7/3 1015/7/3
f 1019/7/3 1018/7/3 1017/7/3
f 1020/7/3 1018/7/3 1019/7/3
f 1023/7/3 1022/7/3 1021/7/3
f 1024/7/3 1022/7/3 1023/7/3
f 1026/7/3 1025/7/3 1024/7/3
f 1027/7/3 1025/7/3 1026/7/3
f 1030/7/3 1029/7/3 1028/7/3
f 1031/7/3 1029/7/3 1030/7/3
f 1034/7/3 1033/7/3 1032/7/3
f 1036/7/3 1034/7/3 1032/7/3
f 1036/7/3 1035/7/3 1034/7/3
f 1037/7/3 1035/7/3 1036/7/3
f 1038/6/3 1012/6/3 1011/6/3
f 1039/6/3 1012/6/3 1038/6/3
f 1040/6/3 1038/6/3 1011/6/3
f 1041/6/3 1038/6/3 1040/6/3
f 1042/7/3 1035/7/3 1037/7/3
f 1043/7/3 1035/7/3 1042/7/3
f 1047/6/3 1045/6/3 1044/6/3
f 1047/6/3 1046/6/3 1045/6/3
f 1048/6/3 1046/6/3 1047/6/3
f 1049/6/3 1046/6/3 1048/6/3
f 1050/6/3 1046/6/3 1049/6/3
f 1051/6/3 1047/6/3 1044/6/3
f 1052/2/3 1048/2/3 1047/2/3
f 1052/6/3 1047/6/3 1051/6/3
f 1053/6/3 1049/6/3 1048/6/3
f 1053/2/3 1048/2/3 1052/2/3
f 1054/2/3 1050/2/3 1049/2/3
f 1054/6/3 1049/6/3 1053/6/3
f 1055/2/3 1050/2/3 1054/2/3
f 1058/7/3 1057/7/3 1056/7/3
f 1059/7/3 1057/7/3 1058/7/3
f 1062/7/3 1061/7/3 1060/7/3
f 1063/7/3 1061/7/3 1062/7/3
f 1066/7/3 1065/7/3 1064/7/3
f 1067/7/3 1065/7/3 1066/7/3
f 1070/7/3 1069/7/3 1068/7/3
f 1071/7/3 1069/7/3 1070/7/3
f 1073/7/3 1072/7/3 1071/7/3
f 1074/7/3 1072/7/3 1073/7/3
f 1077/7/3 1076/7/3 1075/7/3
f 1078/7/3 1076/7/3 1077/7/3
f 1085/2/3 1080/2/3 1079/2/3
f 1086/2/3 1080/2/3 1085/2/3
f 1090/2/3 1084/2/3 1083/2/3
f 1090/2/3 1089/2/3 1088/2/3
f 1090/2/3 1088/2/3 1087/2/3
f 1090/2/3 1087/2/3 1086/2/3
f 1090/2/3 1086/2/3 1085/2/3
f 1090/2/3 1085/2/3 1084/2/3
f 1090/2/3 1082/2/3 1081/2/3
f 1090/2/3 1083/2/3 1082/2/3
f 1091/2/3 1089/2/3 1090/2/3
f 1094/10/3 1093/10/3 1092/10/3
f 1095/10/3 1093/10/3 1094/10/3
f 1096/6/4 1097/6/4 1098/6/4
f 1096/6/4 1098/6/4 1099/6/4
f 1096/6/4 1099/6/4 1100/6/4
f 1100/6/4 1099/6/4 1101/6/4
f 1102/10/4 1103/10/4 1104/10/4
f 1104/10/4 1103/10/4 1105/10/4
f 1106/6/4 1107/6/4 1113/6/4
f 1113/6/4 1107/6/4 1114/6/4
f 1111/2/4 1112/2/4 1117/2/4
f 1115/2/4 1116/2/4 1117/2/4
f 1114/2/4 1115/2/4 1117/2/4
f 1113/2/4 1114/2/4 1117/2/4
f 1112/2/4 1113/2/4 1117/2/4
f 1108/2/4 1109/2/4 1117/2/4
f 1110/2/4 1111/2/4 1117/2/4
f 1109/2/4 1110/2/4 1117/2/4
f 1117/2/4 1116/2/4 1118/2/4
f 1119/6/4 1120/6/4 1123/6/4
f 1120/6/4 1121/6/4 1123/6/4
f 1123/6/4 1121/6/4 1124/6/4
f 1122/6/4 1123/6/4 1124/6/4
f 1124/6/4 1121/6/4 1125/6/4
f 1125/6/4 1121/6/4 1126/6/4
f 1124/7/4 1125/7/4 1127/7/4
f 1127/7/4 1125/7/4 1128/7/4
f 1122/6/4 1124/6/4 1129/6/4
f 1124/7/4 1127/7/4 1130/7/4
f 1129/6/4 1124/6/4 1130/6/4
f 1130/7/4 1127/7/4 1131/7/4
f 1122/6/4 1129/6/4 1132/6/4
f 1132/6/4 1129/6/4 1133/6/4
f 1122/6/4 1132/6/4 1134/6/4
f 1134/6/4 1132/6/4 1135/6/4
f 1136/6/4 1137/6/4 1140/6/4
f 1138/6/4 1139/6/4 1140/6/4
f 1137/6/4 1138/6/4 1140/6/4
f 1140/6/4 1139/6/4 1141/6/4
f 1136/6/4 1140/6/4 1142/6/4
f 1140/2/4 1141/2/4 1143/2/4
f 1142/6/4 1140/6/4 1143/6/4
f 1143/2/4 1141/2/4 1144/2/4
f 1145/6/4 1146/6/4 1147/6/4
f 1145/6/4 1147/6/4 1148/6/4
f 1148/6/4 1147/6/4 1149/6/4
f 1149/6/4 1147/6/4 1150/6/4
f 1150/6/4 1147/6/4 1151/6/4
f 1152/12/4 1153/12/4 1154/12/4
f 1154/12/4 1153/12/4 1155/12/4
f 1152/12/4 1154/12/4 1156/12/4
f 1152/12/4 1156/12/4 1158/12/4
f 1156/12/4 1157/12/4 1158/12/4
f 1158/12/4 1157/12/4 1159/12/4
f 1160/12/4 1161/12/4 1162/12/4
f 1162/12/4 1161/12/4 1163/12/4
f 1160/12/4 1162/12/4 1164/12/4
f 1160/12/4 1164/12/4 1166/12/4
f 1164/12/4 1165/12/4 1166/12/4
f 1166/12/4 1165/12/4 1167/12/4
f 1168/12/4 1169/12/4 1170/12/4
f 1170/12/4 1169/12/4 1171/12/4
f 1172/12/4 1173/12/4 1174/12/4
f 1174/12/4 1173/12/4 1175/12/4
f 1176/12/4 1177/12/4 1178/12/4
f 1178/12/4 1177/12/4 1179/12/4
f 1180/12/4 1181/12/4 1182/12/4
f 1182/12/4 1181/12/4 1183/12/4
f 1184/7/4 1185/7/4 1186/7/4
f 1186/7/4 1185/7/4 1187/7/4
f 1188/7/4 1189/7/4 1190/7/4
f 1190/7/4 1189/7/4 1191/7/4
f 1191/7/4 1189/7/4 1192/7/4
f 1193/7/4 1194/7/4 1195/7/4
f 1193/7/4 1195/7/4 1197/7/4
f 1197/7/4 1195/7/4 1198/7/4
f 1196/7/4 1197/7/4 1200/7/4
f 1199/7/4 1200/7/4 1202/7/4
f 1200/7/4 1197/7/4 1203/7/4
f 1201/7/4 1202/7/4 1203/7/4
f 1202/7/4 1200/7/4 1203/7/4
f 1203/7/4 1197/7/4 1204/7/4
f 1201/7/4 1203/7/4 1206/7/4
f 1206/7/4 1203/7/4 1207/7/4
f 1205/7/4 1206/7/4 1207/7/4
f 1207/7/4 1203/7/4 1208/7/4
f 1205/7/4 1207/7/4 1209/7/4
f 1209/7/4 1207/7/4 1210/7/4
f 1205/7/4 1209/7/4 1211/7/4
f 1211/7/4 1209/7/4 1212/7/4
f 1213/7/4 1214/7/4 1215/7/4
f 1215/7/4 1214/7/4 1216/7/4
f 1217/7/4 1218/7/4 1219/7/4
f 1219/7/4 1218/7/4 1220/7/4
f 1221/7/4 1222/7/4 1223/7/4
f 1223/7/4 1222/7/4 1224/7/4
f 1225/7/4 1226/7/4 1227/7/4
f 1227/7/4 1226/7/4 1228/7/4
f 1228/7/4 1229/7/4 1230/7/4
f 1230/7/4 1229/7/4 1231/7/4
f 1232/7/4 1233/7/4 1234/7/4
f 1234/7/4 1233/7/4 1235/7/4
f 1236/7/4 1237/7/4 1238/7/4
f 1238/7/4 1237/7/4 1239/7/4
f 1240/7/4 1241/7/4 1242/7/4
f 1242/7/4 1241/7/4 1243/7/4
f 1243/7/4 1244/7/4 1245/7/4
f 1245/7/4 1244/7/4 1246/7/4
f 1247/7/4 1248/7/4 1249/7/4
f 1249/7/4 1248/7/4 1250/7/4
f 1251/7/4 1252/7/4 1253/7/4
f 1251/7/4 1253/7/4 1255/7/4
f 1253/7/4 1254/7/4 1255/7/4
f 1255/7/4 1254/7/4 1256/7/4
f 1256/7/4 1254/7/4 1257/7/4
f 1257/7/4 1254/7/4 1258/7/4
f 1259/9/4 1260/9/4 1261/9/4
f 1261/9/4 1260/9/4 1262/9/4
f 1263/9/4 1264/9/4 1265/9/4
f 1265/9/4 1264/9/4 1266/9/4
f 1267/9/4 1268/9/4 1270/9/4
f 1270/9/4 1268/9/4 1271/9/4
f 1269/9/4 1270/9/4 1272/9/4
f 1272/9/4 1270/9/4 1273/9/4
f 1274/7/4 1275/7/4 1276/7/4
f 1276/7/4 1275/7/4 1277/7/4
f 1278/9/4 1279/9/4 1280/9/4
f 1280/9/4 1279/9/4 1281/9/4
f 1282/4/4 1283/4/4 1284/4/4
f 1284/4/4 1283/4/4 1285/4/4
f 1286/12/4 1287/12/4 1288/12/4
f 1288/12/4 1287/12/4 1289/12/4
f 1286/12/4 1288/12/4 1290/12/4
f 1286/12/4 1290/12/4 1292/12/4
f 1290/12/4 1291/12/4 1292/12/4
f 1292/12/4 1291/12/4 1293/12/4
f 1294/12/4 1295/12/4 1296/12/4
f 1296/12/4 1295/12/4 1297/12/4
f 1294/12/4 1296/12/4 1298/12/4
f 1294/12/4 1298/12/4 1300/12/4
f 1298/12/4 1299/12/4 1300/12/4
f 1300/12/4 1299/12/4 1301/12/4
f 1302/12/4 1303/12/4 1304/12/4
f 1304/12/4 1303/12/4 1305/12/4
f 1306/12/4 1307/12/4 1308/12/4
f 1308/12/4 1307/12/4 1309/12/4
f 1310/12/4 1311/12/4 1312/12/4
f 1312/12/4 1311/12/4 1313/12/4
f 1314/12/4 1315/12/4 1316/12/4
f 1316/12/4 1315/12/4 1317/12/4
f 1318/6/4 1319/6/4 1321/6/4
f 1321/6/4 1319/6/4 1322/6/4
f 1319/12/4 1320/12/4 1323/12/4
f 1322/6/4 1319/6/4 1323/6/4
f 1323/12/4 1320/12/4 1324/12/4
f 1322/7/4 1323/7/4 1325/7/4
f 1323/7/4 1324/7/4 1325/7/4
f 1325/7/4 1324/7/4 1326/7/4
f 1326/7/4 1324/7/4 1327/7/4
f 1326/7/4 1327/7/4 1329/7/4
f 1327/7/4 1328/7/4 1329/7/4
f 1329/7/4 1328/7/4 1330/7/4
f 1330/7/4 1328/7/4 1331/7/4
f 1331/7/4 1332/7/4 1333/7/4
f 1330/7/4 1331/7/4 1333/7/4
f 1330/7/4 1333/7/4 1335/7/4
f 1333/7/4 1334/7/4 1335/7/4
f 1335/7/4 1334/7/4 1336/7/4
f 1336/7/4 1334/7/4 1337/7/4
f 1318/6/4 1321/6/4 1339/6/4
f 1339/6/4 1321/6/4 1340/6/4
f 1337/7/4 1338/7/4 1341/7/4
f 1336/7/4 1337/7/4 1341/7/4
f 1341/7/4 1338/7/4 1342/7/4
f 1342/7/4 1338/7/4 1343/7/4
f 1343/7/4 1338/7/4 1344/7/4
f 1344/7/4 1338/7/4 1345/7/4
f 1345/7/4 1346/7/4 1347/7/4
f 1344/7/4 1345/7/4 1347/7/4
f 1347/7/4 1346/7/4 1348/7/4
f 1348/7/4 1346/7/4 1349/7/4
f 1349/7/4 1350/7/4 1351/7/4
f 1348/7/4 1349/7/4 1351/7/4
f 1348/7/4 1351/7/4 1353/7/4
f 1351/7/4 1352/7/4 1353/7/4
f 1353/7/4 1352/7/4 1354/7/4
f 1354/7/4 1352/7/4 1355/7/4
f 1339/2/4 1340/2/4 1357/2/4
f 1357/2/4 1340/2/4 1358/2/4
f 1339/2/4 1357/2/4 1359/2/4
f 1359/2/4 1357/2/4 1360/2/4
f 1358/2/4 1340/2/4 1361/2/4
f 1355/7/4 1356/7/4 1362/7/4
f 1354/7/4 1355/7/4 1362/7/4
f 1362/7/4 1356/7/4 1363/7/4
f 1339/2/4 1359/2/4 1364/2/4
f 1364/2/4 1359/2/4 1365/2/4
f 1360/2/4 1361/2/4 1366/2/4
f 1354/7/4 1362/7/4 1367/7/4
f 1367/7/4 1362/7/4 1368/7/4
f 1339/2/4 1364/2/4 1369/2/4
f 1369/2/4 1364/2/4 1370/2/4
f 1365/2/4 1366/2/4 1371/2/4
f 1361/2/4 1340/2/4 1372/2/4
f 1371/2/4 1366/2/4 1372/2/4
f 1366/2/4 1361/2/4 1372/2/4
f 1373/10/4 1374/10/4 1376/10/4
f 1376/10/4 1374/10/4 1377/10/4
f 1375/10/4 1376/10/4 1378/10/4
f 1378/10/4 1376/10/4 1379/10/4
f 1380/10/4 1381/10/4 1382/10/4
f 1382/10/4 1381/10/4 1383/10/4
f 1388/12/5 1385/12/5 1384/12/5
f 1389/12/5 1385/12/5 1388/12/5
f 1390/12/5 1387/12/5 1386/12/5
f 1391/12/5 1387/12/5 1390/12/5
f 1396/12/5 1393/12/5 1392/12/5
f 1397/12/5 1393/12/5 1396/12/5
f 1398/12/5 1395/12/5 1394/12/5
f 1399/12/5 1395/12/5 1398/12/5
f 1404/12/5 1401/12/5 1400/12/5
f 1405/12/5 1401/12/5 1404/12/5
f 1406/12/5 1403/12/5 1402/12/5
f 1407/12/5 1403/12/5 1406/12/5
f 1412/12/5 1409/12/5 1408/12/5
f 1413/12/5 1409/12/5 1412/12/5
f 1414/12/5 1411/12/5 1410/12/5
f 1415/12/5 1411/12/5 1414/12/5
f 1420/12/5 1417/12/5 1416/12/5
f 1421/12/5 1417/12/5 1420/12/5
f 1422/12/5 1419/12/5 1418/12/5
f 1423/12/5 1419/12/5 1422/12/5
f 1428/12/5 1425/12/5 1424/12/5
f 1429/12/5 1425/12/5 1428/12/5
f 1430/12/5 1427/12/5 1426/12/5
f 1431/12/5 1427/12/5 1430/12/5
f 1437/12/5 1433/12/5 1432/12/5
f 1438/12/5 1433/12/5 1437/12/5
f 1441/12/5 1435/12/5 1434/12/5
f 1442/12/5 1435/12/5 1441/12/5
f 1444/12/5 1437/12/5 1436/12/5
f 1445/12/5 1437/12/5 1444/12/5
f 1446/12/5 1439/12/5 1438/12/5
f 1447/12/5 1439/12/5 1446/12/5
f 1448/12/5 1441/12/5 1440/12/5
f 1449/12/5 1441/12/5 1448/12/5
f 1450/12/5 1443/12/5 1442/12/5
f 1451/12/5 1443/12/5 1450/12/5
f 1456/12/5 1453/12/5 1452/12/5
f 1457/12/5 1453/12/5 1456/12/5
f 1458/12/5 1455/12/5 1454/12/5
f 1459/12/5 1455/12/5 1458/12/5
f 1465/12/5 1461/12/5 1460/12/5
f 1466/12/5 1461/12/5 1465/12/5
f 1469/12/5 1463/12/5 1462/12/5
f 1470/12/5 1463/12/5 1469/12/5
f 1472/12/5 1465/12/5 1464/12/5
f 1473/12/5 1465/12/5 1472/12/5
f 1474/12/5 1467/12/5 1466/12/5
f 1475/12/5 1467/12/5 1474/12/5
f 1476/12/5 1469/12/5 1468/12/5
f 1477/12/5 1469/12/5 1476/12/5
f 1478/12/5 1471/12/5 1470/12/5
f 1479/12/5 1471/12/5 1478/12/5
f 1484/12/5 1481/12/5 1480/12/5
f 1485/12/5 1481/12/5 1484/12/5
f 1486/12/5 1483/12/5 1482/12/5
f 1487/12/5 1483/12/5 1486/12/5
f 1491/6/5 1489/6/5 1488/6/5
f 1492/6/5 1489/6/5 1491/6/5
f 1493/6/5 1489/6/5 1492/6/5
f 1494/6/5 1489/6/5 1493/6/5
f 1495/6/5 1489/6/5 1494/6/5
f 1496/2/5 1490/2/5 1489/2/5
f 1496/6/5 1489/6/5 1495/6/5
f 1497/2/5 1490/2/5 1496/2/5
f 1498/6/5 1491/6/5 1488/6/5
f 1499/6/5 1491/6/5 1498/6/5
f 1500/6/5 1493/6/5 1492/6/5
f 1501/6/5 1493/6/5 1500/6/5
f 1502/6/5 1493/6/5 1501/6/5
f 1503/6/5 1493/6/5 1502/6/5
f 1504/6/5 1495/6/5 1494/6/5
f 1505/6/5 1495/6/5 1504/6/5
f 1506/2/5 1496/2/5 1495/2/5
f 1506/6/5 1495/6/5 1505/6/5
f 1507/2/5 1496/2/5 1506/2/5
f 1508/3/5 1507/3/5 1506/3/5
f 1508/6/5 1506/6/5 1505/6/5
f 1509/3/5 1507/3/5 1508/3/5
f 1510/6/5 1498/6/5 1488/6/5
f 1513/6/5 1502/6/5 1501/6/5
f 1514/6/5 1502/6/5 1513/6/5
f 1517/6/5 1508/6/5 1505/6/5
f 1518/2/5 1509/2/5 1508/2/5
f 1518/6/5 1508/6/5 1517/6/5
f 1519/2/5 1509/2/5 1518/2/5
f 1520/6/5 1517/6/5 1516/6/5
f 1520/6/5 1518/6/5 1517/6/5
f 1520/3/5 1519/3/5 1518/3/5
f 1521/3/5 1519/3/5 1520/3/5
f 1522/6/5 1511/6/5 1510/6/5
f 1523/6/5 1515/6/5 1514/6/5
f 1523/6/5 1513/6/5 1512/6/5
f 1523/6/5 1514/6/5 1513/6/5
f 1524/6/5 1515/6/5 1523/6/5
f 1525/6/5 1521/6/5 1520/6/5
f 1525/6/5 1520/6/5 1516/6/5
f 1526/6/5 1522/6/5 1510/6/5
f 1526/6/5 1525/6/5 1524/6/5
f 1526/6/5 1524/6/5 1523/6/5
f 1526/6/5 1523/6/5 1522/6/5
f 1527/6/5 1525/6/5 1526/6/5
f 1528/6/5 1525/6/5 1527/6/5
f 1529/6/5 1521/6/5 1525/6/5
f 1529/6/5 1525/6/5 1528/6/5
f 1530/6/5 1510/6/5 1488/6/5
f 1530/6/5 1526/6/5 1510/6/5
f 1531/6/5 1526/6/5 1530/6/5
f 1532/6/5 1528/6/5 1527/6/5
f 1533/6/5 1528/6/5 1532/6/5
f 1534/6/5 1528/6/5 1533/6/5
f 1535/6/5 1528/6/5 1534/6/5
f 1536/6/5 1521/6/5 1529/6/5
f 1537/6/5 1521/6/5 1536/6/5
f 1538/6/5 1521/6/5 1537/6/5
f 1539/6/5 1521/6/5 1538/6/5
f 1540/6/5 1530/6/5 1488/6/5
f 1543/6/5 1534/6/5 1533/6/5
f 1544/6/5 1534/6/5 1543/6/5
f 1547/6/5 1538/6/5 1537/6/5
f 1548/2/5 1539/2/5 1538/2/5
f 1548/6/5 1538/6/5 1547/6/5
f 1549/2/5 1539/2/5 1548/2/5
f 1550/6/5 1547/6/5 1546/6/5
f 1550/6/5 1548/6/5 1547/6/5
f 1550/3/5 1549/3/5 1548/3/5
f 1551/3/5 1549/3/5 1550/3/5
f 1552/6/5 1541/6/5 1540/6/5
f 1553/6/5 1545/6/5 1544/6/5
f 1553/6/5 1543/6/5 1542/6/5
f 1553/6/5 1544/6/5 1543/6/5
f 1554/6/5 1545/6/5 1553/6/5
f 1555/6/5 1545/6/5 1554/6/5
f 1556/6/5 1550/6/5 1546/6/5
f 1557/2/5 1551/2/5 1550/2/5
f 1557/6/5 1550/6/5 1556/6/5
f 1558/2/5 1551/2/5 1557/2/5
f 1560/6/5 1554/6/5 1553/6/5
f 1560/6/5 1553/6/5 1552/6/5
f 1560/6/5 1552/6/5 1540/6/5
f 1560/6/5 1540/6/5 1488/6/5
f 1561/2/5 1558/2/5 1557/2/5
f 1561/6/5 1554/6/5 1560/6/5
f 1561/2/5 1557/2/5 1556/2/5
f 1561/2/5 1559/2/5 1558/2/5
f 1561/2/5 1555/2/5 1554/2/5
f 1561/2/5 1556/2/5 1555/2/5
f 1562/2/5 1559/2/5 1561/2/5
f 1565/6/5 1564/6/5 1563/6/5
f 1566/6/5 1564/6/5 1565/6/5
f 1567/6/5 1564/6/5 1566/6/5
f 1570/6/5 1569/6/5 1568/6/5
f 1571/6/5 1569/6/5 1570/6/5
f 1572/3/5 1571/3/5 1570/3/5
f 1573/3/5 1571/3/5 1572/3/5
f 1574/2/5 1573/2/5 1572/2/5
f 1575/2/5 1573/2/5 1574/2/5
f 1576/3/5 1575/3/5 1574/3/5
f 1577/3/5 1575/3/5 1576/3/5
f 1578/1/5 1577/1/5 1576/1/5
f 1579/1/5 1577/1/5 1578/1/5
f 1580/2/5 1579/2/5 1578/2/5
f 1581/2/5 1579/2/5 1580/2/5
f 1582/6/5 1581/6/5 1580/6/5
f 1583/6/5 1581/6/5 1582/6/5
f 1584/2/5 1583/2/5 1582/2/5
f 1585/2/5 1583/2/5 1584/2/5
f 1586/6/5 1585/6/5 1584/6/5
f 1587/6/5 1585/6/5 1586/6/5
f 1588/3/5 1587/3/5 1586/3/5
f 1589/3/5 1587/3/5 1588/3/5
f 1590/6/5 1589/6/5 1588/6/5
f 1591/6/5 1589/6/5 1590/6/5
f 1592/2/5 1591/2/5 1590/2/5
f 1593/2/5 1591/2/5 1592/2/5
f 1594/6/5 1593/6/5 1592/6/5
f 1595/6/5 1593/6/5 1594/6/5
f 1596/3/5 1595/3/5 1594/3/5
f 1597/3/5 1595/3/5 1596/3/5
f 1598/2/5 1597/2/5 1596/2/5
f 1599/2/5 1597/2/5 1598/2/5
f 1604/6/5 1601/6/5 1600/6/5
f 1605/12/5 1602/12/5 1601/12/5
f 1605/6/5 1601/6/5 1604/6/5
f 1606/6/5 1603/6/5 1602/6/5
f 1606/12/5 1602/12/5 1605/12/5
f 1607/6/5 1603/6/5 1606/6/5
f 1608/6/5 1603/6/5 1607/6/5
f 1611/6/5 1610/6/5 1609/6/5
f 1612/6/5 1610/6/5 1611/6/5
f 1613/6/5 1610/6/5 1612/6/5
f 1614/6/5 1610/6/5 1613/6/5
f 1617/10/5 1616/10/5 1615/10/5
f 1618/10/5 1616/10/5 1617/10/5
f 1619/10/5 1617/10/5 1615/10/5
f 1620/10/5 1617/10/5 1619/10/5
f 1623/10/5 1622/10/5 1621/10/5
f 1624/10/5 1616/10/5 1618/10/5
f 1625/10/5 1623/10/5 1621/10/5
f 1625/10/5 1624/10/5 1623/10/5
f 1626/10/5 1616/10/5 1624/10/5
f 1626/10/5 1624/10/5 1625/10/5
f 1629/10/5 1628/10/5 1627/10/5
f 1630/10/5 1628/10/5 1629/10/5
f 1633/6/5 1632/6/5 1631/6/5
f 1634/6/5 1632/6/5 1633/6/5
f 1637/10/5 1636/10/5 1635/10/5
f 1638/10/5 1636/10/5 1637/10/5
f 1641/10/5 1640/10/5 1639/10/5
f 1642/10/5 1640/10/5 1641/10/5
f 1645/10/5 1644/10/5 1643/10/5
f 1646/10/5 1644/10/5 1645/10/5
f 1652/6/5 1650/6/5 1649/6/5
f 1652/2/5 1651/2/5 1650/2/5
f 1653/2/5 1651/2/5 1652/2/5
f 1654/6/5 1652/6/5 1649/6/5
f 1654/6/5 1653/6/5 1652/6/5
f 1655/6/5 1653/6/5 1654/6/5
f 1656/6/5 1653/6/5 1655/6/5
f 1657/12/5 1648/12/5 1647/12/5
f 1658/12/5 1648/12/5 1657/12/5
f 1659/6/5 1653/6/5 1656/6/5
f 1661/6/5 1659/6/5 1656/6/5
f 1661/9/5 1660/9/5 1659/9/5
f 1662/9/5 1660/9/5 1661/9/5
f 1663/6/5 1661/6/5 1656/6/5
f 1664/6/5 1661/6/5 1663/6/5
f 1665/6/5 1661/6/5 1664/6/5
f 1666/6/5 1661/6/5 1665/6/5
f 1667/6/5 1658/6/5 1657/6/5
f 1668/6/5 1658/6/5 1667/6/5
f 1669/6/5 1665/6/5 1664/6/5
f 1670/2/5 1666/2/5 1665/2/5
f 1670/6/5 1665/6/5 1669/6/5
f 1671/2/5 1666/2/5 1670/2/5
f 1674/7/5 1673/7/5 1672/7/5
f 1675/7/5 1673/7/5 1674/7/5
f 1678/12/5 1677/12/5 1676/12/5
f 1679/12/5 1677/12/5 1678/12/5
f 1680/7/5 1679/7/5 1678/7/5
f 1681/7/5 1679/7/5 1680/7/5
f 1684/11/5 1683/11/5 1682/11/5
f 1685/11/5 1683/11/5 1684/11/5
f 1688/4/5 1687/4/5 1686/4/5
f 1689/4/5 1687/4/5 1688/4/5
f 1694/7/5 1691/7/5 1690/7/5
f 1695/7/5 1691/7/5 1694/7/5
f 1696/7/5 1693/7/5 1692/7/5
f 1697/7/5 1693/7/5 1696/7/5
f 1700/7/5 1699/7/5 1698/7/5
f 1701/7/5 1699/7/5 1700/7/5
f 1706/7/5 1703/7/5 1702/7/5
f 1707/7/5 1703/7/5 1706/7/5
f 1709/7/5 1705/7/5 1704/7/5
f 1710/7/5 1705/7/5 1709/7/5
f 1711/7/5 1705/7/5 1710/7/5
f 1712/7/5 1709/7/5 1708/7/5
f 1712/7/5 1710/7/5 1709/7/5
f 1713/7/5 1710/7/5 1712/7/5
f 1714/7/5 1712/7/5 1708/7/5
f 1716/7/5 1714/7/5 1708/7/5
f 1716/7/5 1715/7/5 1714/7/5
f 1717/7/5 1715/7/5 1716/7/5
f 1718/7/5 1715/7/5 1717/7/5
f 1720/7/5 1718/7/5 1717/7/5
f 1720/7/5 1719/7/5 1718/7/5
f 1721/7/5 1719/7/5 1720/7/5
f 1724/7/5 1723/7/5 1722/7/5
f 1725/7/5 1723/7/5 1724/7/5
f 1726/7/5 1723/7/5 1725/7/5
f 1727/7/5 1723/7/5 1726/7/5
f 1729/7/5 1726/7/5 1725/7/5
f 1730/7/5 1726/7/5 1729/7/5
f 1731/7/5 1726/7/5 1730/7/5
f 1733/7/5 1729/7/5 1728/7/5
f 1733/7/5 1730/7/5 1729/7/5
f 1734/7/5 1730/7/5 1733/7/5
f 1735/7/5 1730/7/5 1734/7/5
f 1736/7/5 1733/7/5 1732/7/5
f 1736/7/5 1734/7/5 1733/7/5
f 1737/7/5 1734/7/5 1736/7/5
f 1738/7/5 1734/7/5 1737/7/5
f 1740/7/5 1739/7/5 1738/7/5
f 1740/7/5 1738/7/5 1737/7/5
f 1741/7/5 1739/7/5 1740/7/5
f 1742/7/5 1739/7/5 1741/7/5
f 1744/7/5 1742/7/5 1741/7/5
f 1744/7/5 1743/7/5 1742/7/5
f 1745/7/5 1743/7/5 1744/7/5
f 1749/7/5 1747/7/5 1746/7/5
f 1750/7/5 1747/7/5 1749/7/5
f 1751/7/5 1747/7/5 1750/7/5
f 1753/7/5 1749/7/5 1748/7/5
f 1753/7/5 1750/7/5 1749/7/5
f 1754/7/5 1750/7/5 1753/7/5
f 1755/7/5 1750/7/5 1754/7/5
f 1756/7/5 1753/7/5 1752/7/5
f 1756/7/5 1754/7/5 1753/7/5
f 1757/7/5 1754/7/5 1756/7/5
f 1758/7/5 1754/7/5 1757/7/5
f 1760/7/5 1759/7/5 1758/7/5
f 1760/7/5 1758/7/5 1757/7/5
f 1761/7/5 1759/7/5 1760/7/5
f 1762/7/5 1759/7/5 1761/7/5
f 1764/7/5 1762/7/5 1761/7/5
f 1764/7/5 1763/7/5 1762/7/5
f 1765/7/5 1763/7/5 1764/7/5
f 1769/7/5 1767/7/5 1766/7/5
f 1770/7/5 1767/7/5 1769/7/5
f 1772/7/5 1769/7/5 1768/7/5
f 1773/7/5 1769/7/5 1772/7/5
f 1774/7/5 1772/7/5 1771/7/5
f 1775/7/5 1772/7/5 1774/7/5
f 1777/7/5 1776/7/5 1775/7/5
f 1778/7/5 1776/7/5 1777/7/5
f 1780/7/5 1779/7/5 1778/7/5
f 1781/7/5 1779/7/5 1780/7/5
f 1785/7/5 1783/7/5 1782/7/5
f 1787/7/5 1785/7/5 1784/7/5
f 1788/7/5 1783/7/5 1785/7/5
f 1788/7/5 1785/7/5 1787/7/5
f 1789/7/5 1783/7/5 1788/7/5
f 1790/7/5 1787/7/5 1786/7/5
f 1790/7/5 1788/7/5 1787/7/5
f 1791/7/5 1788/7/5 1790/7/5
f 1792/7/5 1788/7/5 1791/7/5
f 1794/7/5 1793/7/5 1792/7/5
f 1794/7/5 1792/7/5 1791/7/5
f 1795/7/5 1793/7/5 1794/7/5
f 1796/7/5 1793/7/5 1795/7/5
f 1798/7/5 1796/7/5 1795/7/5
f 1798/7/5 1797/7/5 1796/7/5
f 1799/7/5 1797/7/5 1798/7/5
f 1803/7/5 1801/7/5 1800/7/5
f 1804/7/5 1801/7/5 1803/7/5
f 1805/7/5 1801/7/5 1804/7/5
f 1806/7/5 1803/7/5 1802/7/5
f 1806/7/5 1804/7/5 1803/7/5
f 1807/7/5 1804/7/5 1806/7/5
f 1808/7/5 1804/7/5 1807/7/5
f 1810/7/5 1809/7/5 1808/7/5
f 1810/7/5 1808/7/5 1807/7/5
f 1811/7/5 1809/7/5 1810/7/5
f 1812/7/5 1809/7/5 1811/7/5
f 1813/7/5 1809/7/5 1812/7/5
f 1818/7/5 1815/7/5 1814/7/5
f 1819/7/5 1815/7/5 1818/7/5
f 1820/7/5 1815/7/5 1819/7/5
f 1822/7/5 1820/7/5 1819/7/5
f 1822/7/5 1821/7/5 1820/7/5
f 1823/7/5 1821/7/5 1822/7/5
f 1824/7/5 1817/7/5 1816/7/5
f 1825/7/5 1817/7/5 1824/7/5
f 1827/7/5 1822/7/5 1819/7/5
f 1828/7/5 1827/7/5 1826/7/5
f 1829/7/5 1822/7/5 1827/7/5
f 1829/7/5 1827/7/5 1828/7/5
f 1832/7/5 1831/7/5 1830/7/5
f 1833/7/5 1831/7/5 1832/7/5
f 1834/6/6 1835/6/6 1836/6/6
f 1836/6/6 1835/6/6 1837/6/6
f 1838/6/6 1839/6/6 1840/6/6
f 1840/6/6 1839/6/6 1841/6/6
f 1842/6/6 1843/6/6 1844/6/6
f 1844/6/6 1843/6/6 1845/6/6
f 1845/6/6 1843/6/6 1846/6/6
f 1847/6/6 1848/6/6 1849/6/6
f 1849/6/6 1848/6/6 1850/6/6
f 1850/6/6 1848/6/6 1851/6/6
f 1851/6/6 1848/6/6 1852/6/6
f 1847/6/6 1849/6/6 1853/6/6
f 1853/6/6 1849/6/6 1854/6/6
f 1850/6/6 1851/6/6 1855/6/6
f 1855/6/6 1851/6/6 1856/6/6
f 1852/6/6 1848/6/6 1857/6/6
f 1857/6/6 1848/6/6 1858/6/6
f 1858/6/6 1848/6/6 1859/6/6
f 1860/6/6 1861/6/6 1864/6/6
f 1864/6/6 1861/6/6 1865/6/6
f 1862/6/6 1863/6/6 1866/6/6
f 1866/6/6 1863/6/6 1867/6/6
f 1860/6/6 1864/6/6 1868/6/6
f 1868/6/6 1864/6/6 1869/6/6
f 1865/6/6 1861/6/6 1870/6/6
f 1870/6/6 1861/6/6 1871/6/6
f 1862/6/6 1866/6/6 1872/6/6
f 1872/6/6 1866/6/6 1873/6/6
f 1867/6/6 1863/6/6 1874/6/6
f 1874/6/6 1863/6/6 1875/6/6
f 1876/10/6 1877/10/6 1882/10/6
f 1882/10/6 1877/10/6 1883/10/6
f 1883/10/6 1877/10/6 1884/10/6
f 1878/6/6 1879/6/6 1885/6/6
f 1885/6/6 1879/6/6 1886/6/6
f 1880/6/6 1881/6/6 1887/6/6
f 1887/6/6 1881/6/6 1888/6/6
f 1882/10/6 1883/10/6 1889/10/6
f 1889/10/6 1883/10/6 1890/10/6
f 1891/6/6 1892/6/6 1895/6/6
f 1895/6/6 1892/6/6 1896/6/6
f 1893/6/6 1894/6/6 1897/6/6
f 1897/6/6 1894/6/6 1898/6/6
f 1898/6/6 1894/6/6 1899/6/6
f 1899/6/6 1894/6/6 1900/6/6
f 1900/6/6 1894/6/6 1901/6/6
f 1901/6/6 1894/6/6 1902/6/6
f 1902/6/6 1894/6/6 1903/6/6
f 1903/6/6 1894/6/6 1904/6/6
f 1904/6/6 1894/6/6 1905/6/6
f 1905/6/6 1894/6/6 1906/6/6
f 1906/6/6 1894/6/6 1907/6/6
f 1907/6/6 1894/6/6 1908/6/6
f 1908/6/6 1894/6/6 1909/6/6
f 1909/6/6 1894/6/6 1910/6/6
f 1891/6/6 1895/6/6 1911/6/6
f 1910/6/6 1894/6/6 1913/6/6
f 1911/6/6 1912/6/6 1914/6/6
f 1891/6/6 1911/6/6 1914/6/6
f 1914/6/6 1912/6/6 1915/6/6
f 1913/6/6 1894/6/6 1916/6/6
f 1916/6/6 1894/6/6 1917/6/6
f 1918/10/6 1919/10/6 1920/10/6
f 1920/10/6 1919/10/6 1921/10/6
f 1884/10/6 1877/10/6 1922/10/6
f 1920/10/6 1921/10/6 1923/10/6
f 1921/10/6 1922/10/6 1923/10/6
f 1922/10/6 1877/10/6 1924/10/6
f 1923/10/6 1922/10/6 1924/10/6
f 1925/10/6 1926/10/6 1927/10/6
f 1927/10/6 1926/10/6 1928/10/6
f 1929/10/6 1930/10/6 1931/10/6
f 1931/10/6 1930/10/6 1932/10/6
f 1933/10/6 1934/10/6 1935/10/6
f 1935/10/6 1934/10/6 1936/10/6
f 1937/10/6 1938/10/6 1939/10/6
f 1939/10/6 1938/10/6 1940/10/6
f 1943/6/6 1944/6/6 1945/6/6
f 1945/6/6 1944/6/6 1946/6/6
f 1943/6/6 1945/6/6 1947/6/6
f 1947/6/6 1945/6/6 1948/6/6
f 1946/6/6 1944/6/6 1949/6/6
f 1948/6/6 1949/6/6 1951/6/6
f 1943/6/6 1947/6/6 1952/6/6
f 1950/6/6 1951/6/6 1953/6/6
f 1949/6/6 1944/6/6 1954/6/6
f 1953/6/6 1951/6/6 1954/6/6
f 1951/6/6 1949/6/6 1954/6/6
f 1943/6/6 1952/6/6 1956/6/6
f 1954/9/6 1955/9/6 1958/9/6
f 1958/9/6 1955/9/6 1959/9/6
f 1943/6/6 1956/6/6 1960/6/6
f 1957/6/6 1958/6/6 1961/6/6
f 1961/6/6 1958/6/6 1962/6/6
f 1960/6/6 1961/6/6 1962/6/6
f 1962/6/6 1958/6/6 1963/6/6
f 1941/6/6 1942/6/6 1964/6/6
f 1943/6/6 1960/6/6 1965/6/6
f 1960/6/6 1962/6/6 1965/6/6
f 1964/6/6 1965/6/6 1966/6/6
f 1962/2/6 1963/2/6 1967/2/6
f 1966/6/6 1965/6/6 1967/6/6
f 1965/6/6 1962/6/6 1967/6/6
f 1941/6/6 1964/6/6 1968/6/6
f 1964/6/6 1966/6/6 1968/6/6
f 1966/2/6 1967/2/6 1969/2/6
f 1968/6/6 1966/6/6 1969/6/6
f 1967/2/6 1963/2/6 1970/2/6
f 1969/2/6 1967/2/6 1970/2/6
f 1971/7/6 1972/7/6 1973/7/6
f 1973/7/6 1972/7/6 1974/7/6
f 1975/9/6 1976/9/6 1978/9/6
f 1978/9/6 1976/9/6 1979/9/6
f 1977/9/6 1978/9/6 1980/9/6
f 1980/9/6 1978/9/6 1981/9/6
f 1982/9/6 1983/9/6 1984/9/6
f 1984/9/6 1983/9/6 1985/9/6
f 1986/7/6 1987/7/6 1988/7/6
f 1988/7/6 1987/7/6 1989/7/6
f 1990/11/6 1991/11/6 1992/11/6
f 1992/11/6 1991/11/6 1993/11/6
f 1992/9/6 1993/9/6 1994/9/6
f 1994/9/6 1993/9/6 1995/9/6
f 1994/4/6 1995/4/6 1996/4/6
f 1996/4/6 1995/4/6 1997/4/6
f 1998/7/6 1999/7/6 2000/7/6
f 2000/7/6 1999/7/6 2001/7/6
f 2002/7/6 2003/7/6 2004/7/6
f 2004/7/6 2003/7/6 2005/7/6
f 2006/7/6 2007/7/6 2011/7/6
f 2011/7/6 2007/7/6 2012/7/6
f 2008/12/6 2009/12/6 2013/12/6
f 2009/7/6 2010/7/6 2014/7/6
f 2013/12/6 2009/12/6 2014/12/6
f 2014/7/6 2010/7/6 2015/7/6
f 2016/7/6 2017/7/6 2018/7/6
f 2018/7/6 2017/7/6 2019/7/6
f 2019/7/6 2017/7/6 2020/7/6
f 2020/7/6 2017/7/6 2021/7/6
f 2021/7/6 2017/7/6 2022/7/6
f 2019/7/6 2020/7/6 2023/7/6
f 2023/7/6 2020/7/6 2024/7/6
f 2025/7/6 2026/7/6 2027/7/6
f 2027/7/6 2026/7/6 2028/7/6
f 2029/7/6 2030/7/6 2031/7/6
f 2031/7/6 2030/7/6 2032/7/6
f 2033/7/6 2034/7/6 2035/7/6
f 2035/7/6 2034/7/6 2036/7/6
f 2037/7/6 2038/7/6 2039/7/6
f 2039/7/6 2038/7/6 2040/7/6
f 2043/7/6 2044/7/6 2045/7/6
f 2045/7/6 2044/7/6 2046/7/6
f 2041/7/6 2042/7/6 2047/7/6
f 2047/7/6 2042/7/6 2048/7/6
f 2049/7/6 2050/7/6 2053/7/6
f 2053/7/6 2050/7/6 2054/7/6
f 2051/7/6 2052/7/6 2055/7/6
f 2055/7/6 2052/7/6 2056/7/6
f 2057/7/6 2058/7/6 2059/7/6
f 2059/7/6 2058/7/6 2060/7/6
