# MagicaVoxel @ Ephtracy

# group
o 

# material
mtllib TESTOWANIE_VOXELA-0.mtl
usemtl palette

# normals
vn 0 1 0
vn 0 -1 0
vn 0 0 1
vn 0 0 -1
vn -1 0 0
vn 1 0 0

# texcoords
vt 0.607422 0.5
vt 0.728516 0.5
vt 0.912109 0.5
vt 0.962891 0.5
vt 0.966797 0.5
vt 0.974609 0.5

# verts
v -30.8 4.5 4.7
v -30.8 4.5 4.6
v -30.3 4.5 4.7
v -30.3 4.5 4.6
v -30.9 4.4 4.7
v -30.9 4.4 4.6
v -30.8 4.4 4.7
v -30.8 4.4 4.6
v -30.7 4.4 4.8
v -30.7 4.4 4.7
v -30.6 4.4 4.8
v -30.6 4.4 4.7
v -30.3 4.4 4.7
v -30.3 4.4 4.6
v -30.2 4.4 4.7
v -30.2 4.4 4.6
v -31 4.3 4.7
v -31 4.3 4.6
v -30.9 4.3 4.8
v -30.9 4.3 4.7
v -30.9 4.3 4.6
v -30.8 4.3 4.8
v -30.8 4.3 4.7
v -30.2 4.3 4.7
v -30.2 4.3 4.6
v -30.1 4.3 4.7
v -30.1 4.3 4.6
v -31.1 3.9 4.7
v -31.1 3.9 4.6
v -31 3.9 4.7
v -31 3.9 4.6
v -30.3 3.6 4.7
v -30.3 3.6 4.6
v -30.2 3.6 4.7
v -30.2 3.6 4.6
v -30.1 3.6 4.7
v -30.1 3.6 4.6
v -31 3.5 4.7
v -31 3.5 4.6
v -30.9 3.5 4.7
v -30.9 3.5 4.6
v -31.1 3.4 4.7
v -31.1 3.4 4.6
v -31 3.4 4.7
v -31 3.4 4.6
v -30.1 3.4 4.7
v -30.1 3.4 4.6
v -30 3.4 4.7
v -30 3.4 4.6
v -31.2 3 4.7
v -31.2 3 4.6
v -31.1 3 4.7
v -31.1 3 4.6
v -30.9 2.8 4.8
v -30.9 2.8 4.7
v -30.8 2.8 4.8
v -30.8 2.8 4.7
v -31.3 2.7 4.7
v -31.3 2.7 4.6
v -31.2 2.7 4.7
v -31.2 2.7 4.6
v -30.8 2.7 4.8
v -30.8 2.7 4.7
v -30.7 2.7 4.8
v -30.7 2.7 4.7
v -30.7 2.6 4.8
v -30.7 2.6 4.7
v -30.6 2.6 4.8
v -30.6 2.6 4.7
v -30 2.6 4.9
v -30 2.6 4.7
v -29.9 2.6 4.9
v -29.9 2.6 4.7
v -30.6 2.5 4.8
v -30.6 2.5 4.7
v -30.5 2.5 4.8
v -30.5 2.5 4.7
v -30.1 2.5 4.8
v -30.1 2.5 4.7
v -30 2.5 4.8
v -30 2.5 4.7
v -30 2.5 4.6
v -29.9 2.5 4.7
v -29.9 2.5 4.6
v -31.1 2.4 4.8
v -31.1 2.4 4.7
v -31 2.4 4.8
v -31 2.4 4.7
v -30.9 2.4 4.8
v -30.9 2.4 4.7
v -30.8 2.4 4.8
v -30.8 2.4 4.7
v -30.5 2.4 4.8
v -30.5 2.4 4.7
v -30.4 2.4 4.8
v -30.4 2.4 4.7
v -29.9 2.4 4.7
v -29.9 2.4 4.6
v -29.8 2.4 4.7
v -29.8 2.4 4.6
v -31 2.3 4.8
v -31 2.3 4.7
v -30.9 2.3 4.8
v -30.9 2.3 4.7
v -30.4 2.3 4.8
v -30.4 2.3 4.7
v -30.1 2.3 4.8
v -30.1 2.3 4.7
v -30.3 2.1 4.8
v -30.3 2.1 4.7
v -30.2 2.1 4.8
v -30.2 2.1 4.7
v -30.4 1 4.8
v -30.4 1 4.7
v -30.3 1 4.8
v -30.3 1 4.7
v -30.7 4.3 4.8
v -30.7 4.3 4.7
v -30.6 4.3 4.8
v -30.6 4.3 4.7
v -30.9 4 4.8
v -30.9 4 4.7
v -30.8 4 4.8
v -30.8 4 4.7
v -30.2 3.8 4.7
v -30.2 3.8 4.6
v -30.1 3.8 4.7
v -30.1 3.8 4.6
v -31.1 3.7 4.7
v -31.1 3.7 4.6
v -30.9 3.7 4.7
v -30.9 3.7 4.6
v -30.3 3.7 4.7
v -30.3 3.7 4.6
v -30.2 3.7 4.7
v -30.2 3.7 4.6
v -30.9 2.7 4.8
v -30.9 2.7 4.7
v -30.8 2.7 4.8
v -30.8 2.7 4.7
v -30.8 2.6 4.8
v -30.8 2.6 4.7
v -30.7 2.6 4.8
v -30.7 2.6 4.7
v -30.7 2.5 4.8
v -30.7 2.5 4.7
v -30.6 2.5 4.8
v -30.6 2.5 4.7
v -30.6 2.4 4.8
v -30.6 2.4 4.7
v -30.5 2.4 4.8
v -30.5 2.4 4.7
v -30.1 2.4 4.8
v -30.1 2.4 4.7
v -30 2.4 4.9
v -30 2.4 4.8
v -30 2.4 4.7
v -29.9 2.4 4.9
v -29.9 2.4 4.7
v -31.3 2.3 4.7
v -31.3 2.3 4.6
v -31.2 2.3 4.7
v -31.2 2.3 4.6
v -31.1 2.3 4.8
v -31.1 2.3 4.7
v -31 2.3 4.8
v -31 2.3 4.7
v -30.9 2.3 4.8
v -30.9 2.3 4.7
v -30.8 2.3 4.8
v -30.8 2.3 4.7
v -30.5 2.3 4.8
v -30.5 2.3 4.7
v -30.4 2.3 4.8
v -30.4 2.3 4.7
v -31.2 2.2 4.7
v -31.2 2.2 4.6
v -31.1 2.2 4.7
v -31.1 2.2 4.6
v -31 2.2 4.8
v -31 2.2 4.7
v -30.9 2.2 4.8
v -30.9 2.2 4.7
v -30.4 2.2 4.8
v -30.4 2.2 4.7
v -30.1 2.2 4.8
v -30.1 2.2 4.7
v -30.1 2.1 4.7
v -30.1 2.1 4.6
v -29.8 2.1 4.7
v -29.8 2.1 4.6
v -31.1 1.6 4.7
v -31.1 1.6 4.6
v -31 1.6 4.7
v -31 1.6 4.6
v -30.3 1.6 4.8
v -30.3 1.6 4.7
v -30.3 1.6 4.6
v -30.2 1.6 4.8
v -30.2 1.6 4.7
v -30.1 1.6 4.7
v -30.1 1.6 4.6
v -31 1.5 4.7
v -31 1.5 4.6
v -30.9 1.5 4.7
v -30.9 1.5 4.6
v -30.4 0.9 4.8
v -30.4 0.9 4.7
v -30.3 0.9 4.8
v -30.3 0.9 4.7
v -30.9 0.8 4.7
v -30.9 0.8 4.6
v -30.3 0.8 4.7
v -30.3 0.8 4.6
v -30 2.6 4.9
v -29.9 2.6 4.9
v -30 2.4 4.9
v -29.9 2.4 4.9
v -30.7 4.4 4.8
v -30.6 4.4 4.8
v -30.9 4.3 4.8
v -30.8 4.3 4.8
v -30.7 4.3 4.8
v -30.6 4.3 4.8
v -30.9 4 4.8
v -30.8 4 4.8
v -30.9 2.8 4.8
v -30.8 2.8 4.8
v -30.9 2.7 4.8
v -30.8 2.7 4.8
v -30.7 2.7 4.8
v -30.8 2.6 4.8
v -30.7 2.6 4.8
v -30.6 2.6 4.8
v -30.7 2.5 4.8
v -30.6 2.5 4.8
v -30.5 2.5 4.8
v -30.1 2.5 4.8
v -30 2.5 4.8
v -31.1 2.4 4.8
v -31 2.4 4.8
v -30.9 2.4 4.8
v -30.8 2.4 4.8
v -30.6 2.4 4.8
v -30.5 2.4 4.8
v -30.4 2.4 4.8
v -30.1 2.4 4.8
v -30 2.4 4.8
v -31.1 2.3 4.8
v -31 2.3 4.8
v -30.9 2.3 4.8
v -30.8 2.3 4.8
v -30.5 2.3 4.8
v -30.4 2.3 4.8
v -30.1 2.3 4.8
v -31 2.2 4.8
v -30.9 2.2 4.8
v -30.4 2.2 4.8
v -30.1 2.2 4.8
v -30.3 2.1 4.8
v -30.2 2.1 4.8
v -30.3 1.6 4.8
v -30.2 1.6 4.8
v -30.4 1 4.8
v -30.3 1 4.8
v -30.4 0.9 4.8
v -30.3 0.9 4.8
v -30.8 4.5 4.7
v -30.3 4.5 4.7
v -30.9 4.4 4.7
v -30.8 4.4 4.7
v -30.7 4.4 4.7
v -30.6 4.4 4.7
v -30.3 4.4 4.7
v -30.2 4.4 4.7
v -31 4.3 4.7
v -30.9 4.3 4.7
v -30.8 4.3 4.7
v -30.7 4.3 4.7
v -30.6 4.3 4.7
v -30.4 4.3 4.7
v -30.3 4.3 4.7
v -30.2 4.3 4.7
v -30.1 4.3 4.7
v -30.5 4.2 4.7
v -30.4 4.2 4.7
v -30.3 4.2 4.7
v -30.2 4.2 4.7
v -30.4 4.1 4.7
v -30.3 4.1 4.7
v -30.9 4 4.7
v -30.8 4 4.7
v -31.1 3.9 4.7
v -31 3.9 4.7
v -30.6 3.8 4.7
v -30.5 3.8 4.7
v -30.4 3.8 4.7
v -30.2 3.8 4.7
v -30.1 3.8 4.7
v -31.1 3.7 4.7
v -30.9 3.7 4.7
v -30.8 3.7 4.7
v -30.6 3.7 4.7
v -30.4 3.7 4.7
v -30.3 3.7 4.7
v -30.2 3.7 4.7
v -30.4 3.6 4.7
v -30.3 3.6 4.7
v -30.2 3.6 4.7
v -30.1 3.6 4.7
v -31 3.5 4.7
v -30.9 3.5 4.7
v -30.8 3.5 4.7
v -31.1 3.4 4.7
v -31 3.4 4.7
v -30.6 3.4 4.7
v -30.5 3.4 4.7
v -30.2 3.4 4.7
v -30.1 3.4 4.7
v -30 3.4 4.7
v -31 3.3 4.7
v -30.9 3.3 4.7
v -30.6 3.3 4.7
v -30.5 3.3 4.7
v -30.4 3.3 4.7
v -30.5 3.2 4.7
v -30.4 3.2 4.7
v -30.3 3.2 4.7
v -30.4 3.1 4.7
v -30.3 3.1 4.7
v -30.2 3.1 4.7
v -31.2 3 4.7
v -31.1 3 4.7
v -31 3 4.7
v -30.3 2.9 4.7
v -30.2 2.9 4.7
v -30.1 2.9 4.7
v -30.9 2.8 4.7
v -30.8 2.8 4.7
v -30.2 2.8 4.7
v -30.1 2.8 4.7
v -31.3 2.7 4.7
v -31.2 2.7 4.7
v -31.1 2.7 4.7
v -30.9 2.7 4.7
v -30.8 2.7 4.7
v -30.7 2.7 4.7
v -30.8 2.6 4.7
v -30.7 2.6 4.7
v -30.6 2.6 4.7
v -30 2.6 4.7
v -30.7 2.5 4.7
v -30.6 2.5 4.7
v -30.5 2.5 4.7
v -30.1 2.5 4.7
v -30 2.5 4.7
v -31.1 2.4 4.7
v -31 2.4 4.7
v -30.9 2.4 4.7
v -30.8 2.4 4.7
v -30.6 2.4 4.7
v -30.5 2.4 4.7
v -30.4 2.4 4.7
v -30.1 2.4 4.7
v -30 2.4 4.7
v -29.9 2.4 4.7
v -29.8 2.4 4.7
v -31.3 2.3 4.7
v -31.2 2.3 4.7
v -31.1 2.3 4.7
v -31 2.3 4.7
v -30.9 2.3 4.7
v -30.8 2.3 4.7
v -30.5 2.3 4.7
v -30.4 2.3 4.7
v -30.1 2.3 4.7
v -31.2 2.2 4.7
v -31.1 2.2 4.7
v -31 2.2 4.7
v -30.9 2.2 4.7
v -30.4 2.2 4.7
v -30.1 2.2 4.7
v -30 2.2 4.7
v -29.9 2.2 4.7
v -31.1 2.1 4.7
v -30.3 2.1 4.7
v -30.2 2.1 4.7
v -30.1 2.1 4.7
v -29.8 2.1 4.7
v -30.6 1.9 4.7
v -30.5 1.9 4.7
v -31.1 1.6 4.7
v -31 1.6 4.7
v -30.9 1.6 4.7
v -30.8 1.6 4.7
v -30.6 1.6 4.7
v -30.5 1.6 4.7
v -30.4 1.6 4.7
v -30.3 1.6 4.7
v -30.2 1.6 4.7
v -30.1 1.6 4.7
v -31 1.5 4.7
v -30.9 1.5 4.7
v -30.8 1.5 4.7
v -30.6 1.5 4.7
v -30.5 1.5 4.7
v -30.4 1.5 4.7
v -30.7 1.1 4.7
v -30.6 1.1 4.7
v -30.7 1 4.7
v -30.5 1 4.7
v -30.4 1 4.7
v -30.3 1 4.7
v -30.8 0.9 4.7
v -30.5 0.9 4.7
v -30.4 0.9 4.7
v -30.3 0.9 4.7
v -30.9 0.8 4.7
v -30.3 0.8 4.7
v -30 2.6 4.7
v -29.9 2.6 4.7
v -30 2.5 4.7
v -29.9 2.5 4.7
v -30.8 4.5 4.6
v -30.3 4.5 4.6
v -30.9 4.4 4.6
v -30.8 4.4 4.6
v -30.3 4.4 4.6
v -30.2 4.4 4.6
v -31 4.3 4.6
v -30.9 4.3 4.6
v -30.4 4.3 4.6
v -30.3 4.3 4.6
v -30.2 4.3 4.6
v -30.1 4.3 4.6
v -30.5 4.2 4.6
v -30.4 4.2 4.6
v -30.3 4.2 4.6
v -30.2 4.2 4.6
v -30.4 4.1 4.6
v -30.3 4.1 4.6
v -31.1 3.9 4.6
v -31 3.9 4.6
v -30.6 3.8 4.6
v -30.5 3.8 4.6
v -30.4 3.8 4.6
v -30.2 3.8 4.6
v -30.1 3.8 4.6
v -31.1 3.7 4.6
v -30.9 3.7 4.6
v -30.8 3.7 4.6
v -30.6 3.7 4.6
v -30.4 3.7 4.6
v -30.3 3.7 4.6
v -30.2 3.7 4.6
v -30.4 3.6 4.6
v -30.3 3.6 4.6
v -30.2 3.6 4.6
v -30.1 3.6 4.6
v -31 3.5 4.6
v -30.9 3.5 4.6
v -30.8 3.5 4.6
v -31.1 3.4 4.6
v -31 3.4 4.6
v -30.6 3.4 4.6
v -30.5 3.4 4.6
v -30.2 3.4 4.6
v -30.1 3.4 4.6
v -30 3.4 4.6
v -31 3.3 4.6
v -30.9 3.3 4.6
v -30.6 3.3 4.6
v -30.5 3.3 4.6
v -30.4 3.3 4.6
v -30.5 3.2 4.6
v -30.4 3.2 4.6
v -30.3 3.2 4.6
v -30.4 3.1 4.6
v -30.3 3.1 4.6
v -30.2 3.1 4.6
v -31.2 3 4.6
v -31.1 3 4.6
v -31 3 4.6
v -30.3 2.9 4.6
v -30.2 2.9 4.6
v -30.1 2.9 4.6
v -30.9 2.8 4.6
v -30.8 2.8 4.6
v -30.2 2.8 4.6
v -30.1 2.8 4.6
v -31.3 2.7 4.6
v -31.2 2.7 4.6
v -31.1 2.7 4.6
v -30.9 2.7 4.6
v -30.8 2.7 4.6
v -30.7 2.7 4.6
v -30.8 2.6 4.6
v -30.7 2.6 4.6
v -30.6 2.6 4.6
v -30.7 2.5 4.6
v -30.6 2.5 4.6
v -30.5 2.5 4.6
v -30 2.5 4.6
v -29.9 2.5 4.6
v -31.1 2.4 4.6
v -31 2.4 4.6
v -30.9 2.4 4.6
v -30.8 2.4 4.6
v -30.6 2.4 4.6
v -30.5 2.4 4.6
v -30.4 2.4 4.6
v -30 2.4 4.6
v -29.9 2.4 4.6
v -29.8 2.4 4.6
v -31.3 2.3 4.6
v -31.2 2.3 4.6
v -31.1 2.3 4.6
v -31 2.3 4.6
v -30.9 2.3 4.6
v -30.8 2.3 4.6
v -30.5 2.3 4.6
v -30.4 2.3 4.6
v -30.1 2.3 4.6
v -31.2 2.2 4.6
v -31.1 2.2 4.6
v -31 2.2 4.6
v -30.9 2.2 4.6
v -30.4 2.2 4.6
v -30.1 2.2 4.6
v -30 2.2 4.6
v -29.9 2.2 4.6
v -31.1 2.1 4.6
v -30.3 2.1 4.6
v -30.1 2.1 4.6
v -29.8 2.1 4.6
v -30.6 1.9 4.6
v -30.5 1.9 4.6
v -31.1 1.6 4.6
v -31 1.6 4.6
v -30.9 1.6 4.6
v -30.8 1.6 4.6
v -30.6 1.6 4.6
v -30.5 1.6 4.6
v -30.4 1.6 4.6
v -30.3 1.6 4.6
v -30.1 1.6 4.6
v -31 1.5 4.6
v -30.9 1.5 4.6
v -30.8 1.5 4.6
v -30.6 1.5 4.6
v -30.5 1.5 4.6
v -30.4 1.5 4.6
v -30.7 1.1 4.6
v -30.6 1.1 4.6
v -30.7 1 4.6
v -30.5 1 4.6
v -30.4 1 4.6
v -30.8 0.9 4.6
v -30.5 0.9 4.6
v -30.9 0.8 4.6
v -30.3 0.8 4.6
v -31.3 2.7 4.7
v -31.3 2.3 4.7
v -31.3 2.7 4.6
v -31.3 2.3 4.6
v -31.2 3 4.7
v -31.2 2.7 4.7
v -31.2 2.3 4.7
v -31.2 2.2 4.7
v -31.2 3 4.6
v -31.2 2.7 4.6
v -31.2 2.3 4.6
v -31.2 2.2 4.6
v -31.1 2.4 4.8
v -31.1 2.3 4.8
v -31.1 3.9 4.7
v -31.1 3.7 4.7
v -31.1 3.4 4.7
v -31.1 3 4.7
v -31.1 2.4 4.7
v -31.1 2.3 4.7
v -31.1 2.2 4.7
v -31.1 2.1 4.7
v -31.1 1.6 4.7
v -31.1 3.9 4.6
v -31.1 3.7 4.6
v -31.1 3.4 4.6
v -31.1 3 4.6
v -31.1 2.2 4.6
v -31.1 2.1 4.6
v -31.1 1.6 4.6
v -31 2.3 4.8
v -31 2.2 4.8
v -31 4.3 4.7
v -31 3.9 4.7
v -31 3.5 4.7
v -31 3.4 4.7
v -31 2.3 4.7
v -31 2.2 4.7
v -31 1.6 4.7
v -31 1.5 4.7
v -31 4.3 4.6
v -31 3.9 4.6
v -31 3.5 4.6
v -31 3.4 4.6
v -31 1.6 4.6
v -31 1.5 4.6
v -30.9 4.3 4.8
v -30.9 4 4.8
v -30.9 2.8 4.8
v -30.9 2.7 4.8
v -30.9 2.4 4.8
v -30.9 2.3 4.8
v -30.9 4.4 4.7
v -30.9 4.3 4.7
v -30.9 4 4.7
v -30.9 3.7 4.7
v -30.9 3.5 4.7
v -30.9 2.8 4.7
v -30.9 2.7 4.7
v -30.9 2.4 4.7
v -30.9 2.3 4.7
v -30.9 1.5 4.7
v -30.9 0.8 4.7
v -30.9 4.4 4.6
v -30.9 4.3 4.6
v -30.9 3.7 4.6
v -30.9 3.5 4.6
v -30.9 1.5 4.6
v -30.9 0.8 4.6
v -30.8 2.7 4.8
v -30.8 2.6 4.8
v -30.8 4.5 4.7
v -30.8 4.4 4.7
v -30.8 2.7 4.7
v -30.8 2.6 4.7
v -30.8 4.5 4.6
v -30.8 4.4 4.6
v -30.7 4.4 4.8
v -30.7 4.3 4.8
v -30.7 2.6 4.8
v -30.7 2.5 4.8
v -30.7 4.4 4.7
v -30.7 4.3 4.7
v -30.7 2.6 4.7
v -30.7 2.5 4.7
v -30.6 2.5 4.8
v -30.6 2.4 4.8
v -30.6 2.5 4.7
v -30.6 2.4 4.7
v -30.5 2.4 4.8
v -30.5 2.3 4.8
v -30.5 2.4 4.7
v -30.5 2.3 4.7
v -30.4 2.3 4.8
v -30.4 2.2 4.8
v -30.4 1 4.8
v -30.4 0.9 4.8
v -30.4 2.3 4.7
v -30.4 2.2 4.7
v -30.4 1 4.7
v -30.4 0.9 4.7
v -30.3 2.1 4.8
v -30.3 1.6 4.8
v -30.3 2.1 4.7
v -30.3 1.6 4.7
v -30.1 2.5 4.8
v -30.1 2.4 4.8
v -30.1 2.5 4.7
v -30.1 2.4 4.7
v -30 2.6 4.9
v -30 2.4 4.9
v -30 2.5 4.8
v -30 2.4 4.8
v -30 2.6 4.7
v -30 2.5 4.7
v -31 2.4 4.8
v -31 2.3 4.8
v -31 2.4 4.7
v -31 2.3 4.7
v -30.9 2.3 4.8
v -30.9 2.2 4.8
v -30.9 2.3 4.7
v -30.9 2.2 4.7
v -30.8 4.3 4.8
v -30.8 4 4.8
v -30.8 2.8 4.8
v -30.8 2.7 4.8
v -30.8 2.4 4.8
v -30.8 2.3 4.8
v -30.8 4.3 4.7
v -30.8 4 4.7
v -30.8 2.8 4.7
v -30.8 2.7 4.7
v -30.8 2.4 4.7
v -30.8 2.3 4.7
v -30.7 2.7 4.8
v -30.7 2.6 4.8
v -30.7 2.7 4.7
v -30.7 2.6 4.7
v -30.6 4.4 4.8
v -30.6 4.3 4.8
v -30.6 2.6 4.8
v -30.6 2.5 4.8
v -30.6 4.4 4.7
v -30.6 4.3 4.7
v -30.6 2.6 4.7
v -30.6 2.5 4.7
v -30.5 2.5 4.8
v -30.5 2.4 4.8
v -30.5 2.5 4.7
v -30.5 2.4 4.7
v -30.4 2.4 4.8
v -30.4 2.3 4.8
v -30.4 2.4 4.7
v -30.4 2.3 4.7
v -30.3 1 4.8
v -30.3 0.9 4.8
v -30.3 4.5 4.7
v -30.3 4.4 4.7
v -30.3 3.7 4.7
v -30.3 3.6 4.7
v -30.3 1.6 4.7
v -30.3 1 4.7
v -30.3 0.9 4.7
v -30.3 0.8 4.7
v -30.3 4.5 4.6
v -30.3 4.4 4.6
v -30.3 3.7 4.6
v -30.3 3.6 4.6
v -30.3 1.6 4.6
v -30.3 0.8 4.6
v -30.2 2.1 4.8
v -30.2 1.6 4.8
v -30.2 4.4 4.7
v -30.2 4.3 4.7
v -30.2 3.8 4.7
v -30.2 3.7 4.7
v -30.2 2.1 4.7
v -30.2 1.6 4.7
v -30.2 4.4 4.6
v -30.2 4.3 4.6
v -30.2 3.8 4.6
v -30.2 3.7 4.6
v -30.1 2.3 4.8
v -30.1 2.2 4.8
v -30.1 4.3 4.7
v -30.1 3.8 4.7
v -30.1 3.6 4.7
v -30.1 3.4 4.7
v -30.1 2.3 4.7
v -30.1 2.2 4.7
v -30.1 2.1 4.7
v -30.1 1.6 4.7
v -30.1 4.3 4.6
v -30.1 3.8 4.6
v -30.1 3.6 4.6
v -30.1 3.4 4.6
v -30.1 2.1 4.6
v -30.1 1.6 4.6
v -30 3.4 4.7
v -30 2.6 4.7
v -30 2.5 4.7
v -30 3.4 4.6
v -30 2.5 4.6
v -29.9 2.6 4.9
v -29.9 2.4 4.9
v -29.9 2.6 4.7
v -29.9 2.5 4.7
v -29.9 2.4 4.7
v -29.9 2.5 4.6
v -29.9 2.4 4.6
v -29.8 2.4 4.7
v -29.8 2.1 4.7
v -29.8 2.4 4.6
v -29.8 2.1 4.6

# faces
f 3/6/1 2/6/1 1/6/1
f 4/6/1 2/6/1 3/6/1
f 7/6/1 6/6/1 5/6/1
f 8/6/1 6/6/1 7/6/1
f 11/6/1 10/6/1 9/6/1
f 12/6/1 10/6/1 11/6/1
f 15/6/1 14/6/1 13/6/1
f 16/6/1 14/6/1 15/6/1
f 20/6/1 18/6/1 17/6/1
f 21/6/1 18/6/1 20/6/1
f 22/6/1 20/6/1 19/6/1
f 23/6/1 20/6/1 22/6/1
f 26/6/1 25/6/1 24/6/1
f 27/6/1 25/6/1 26/6/1
f 30/6/1 29/6/1 28/6/1
f 31/6/1 29/6/1 30/6/1
f 34/5/1 33/5/1 32/5/1
f 35/5/1 33/5/1 34/5/1
f 36/6/1 35/6/1 34/6/1
f 37/6/1 35/6/1 36/6/1
f 40/6/1 39/6/1 38/6/1
f 41/6/1 39/6/1 40/6/1
f 44/6/1 43/6/1 42/6/1
f 45/6/1 43/6/1 44/6/1
f 48/6/1 47/6/1 46/6/1
f 49/6/1 47/6/1 48/6/1
f 52/6/1 51/6/1 50/6/1
f 53/6/1 51/6/1 52/6/1
f 56/6/1 55/6/1 54/6/1
f 57/6/1 55/6/1 56/6/1
f 60/6/1 59/6/1 58/6/1
f 61/6/1 59/6/1 60/6/1
f 64/6/1 63/6/1 62/6/1
f 65/6/1 63/6/1 64/6/1
f 68/6/1 67/6/1 66/6/1
f 69/6/1 67/6/1 68/6/1
f 72/6/1 71/6/1 70/6/1
f 73/6/1 71/6/1 72/6/1
f 76/6/1 75/6/1 74/6/1
f 77/6/1 75/6/1 76/6/1
f 80/6/1 79/6/1 78/6/1
f 81/6/1 79/6/1 80/6/1
f 83/6/1 82/6/1 81/6/1
f 84/6/1 82/6/1 83/6/1
f 87/6/1 86/6/1 85/6/1
f 88/6/1 86/6/1 87/6/1
f 91/6/1 90/6/1 89/6/1
f 92/6/1 90/6/1 91/6/1
f 95/6/1 94/6/1 93/6/1
f 96/6/1 94/6/1 95/6/1
f 99/6/1 98/6/1 97/6/1
f 100/6/1 98/6/1 99/6/1
f 103/6/1 102/6/1 101/6/1
f 104/6/1 102/6/1 103/6/1
f 107/6/1 106/6/1 105/6/1
f 108/6/1 106/6/1 107/6/1
f 111/4/1 110/4/1 109/4/1
f 112/4/1 110/4/1 111/4/1
f 115/6/1 114/6/1 113/6/1
f 116/6/1 114/6/1 115/6/1
f 117/6/2 118/6/2 119/6/2
f 119/6/2 118/6/2 120/6/2
f 121/6/2 122/6/2 123/6/2
f 123/6/2 122/6/2 124/6/2
f 125/6/2 126/6/2 127/6/2
f 127/6/2 126/6/2 128/6/2
f 129/6/2 130/6/2 131/6/2
f 131/6/2 130/6/2 132/6/2
f 133/6/2 134/6/2 135/6/2
f 135/6/2 134/6/2 136/6/2
f 137/6/2 138/6/2 139/6/2
f 139/6/2 138/6/2 140/6/2
f 141/6/2 142/6/2 143/6/2
f 143/6/2 142/6/2 144/6/2
f 145/6/2 146/6/2 147/6/2
f 147/6/2 146/6/2 148/6/2
f 149/6/2 150/6/2 151/6/2
f 151/6/2 150/6/2 152/6/2
f 153/6/2 154/6/2 156/6/2
f 156/6/2 154/6/2 157/6/2
f 155/6/2 156/6/2 158/6/2
f 156/6/2 157/6/2 158/6/2
f 158/6/2 157/6/2 159/6/2
f 160/6/2 161/6/2 162/6/2
f 162/6/2 161/6/2 163/6/2
f 164/6/2 165/6/2 166/6/2
f 166/6/2 165/6/2 167/6/2
f 168/6/2 169/6/2 170/6/2
f 170/6/2 169/6/2 171/6/2
f 172/6/2 173/6/2 174/6/2
f 174/6/2 173/6/2 175/6/2
f 176/6/2 177/6/2 178/6/2
f 178/6/2 177/6/2 179/6/2
f 180/6/2 181/6/2 182/6/2
f 182/6/2 181/6/2 183/6/2
f 184/6/2 185/6/2 186/6/2
f 186/6/2 185/6/2 187/6/2
f 188/6/2 189/6/2 190/6/2
f 190/6/2 189/6/2 191/6/2
f 192/4/2 193/4/2 194/4/2
f 194/4/2 193/4/2 195/4/2
f 196/4/2 197/4/2 199/4/2
f 197/6/2 198/6/2 200/6/2
f 199/4/2 197/4/2 200/4/2
f 200/6/2 198/6/2 201/6/2
f 201/6/2 198/6/2 202/6/2
f 203/3/2 204/3/2 205/3/2
f 205/3/2 204/3/2 206/3/2
f 207/6/2 208/6/2 209/6/2
f 209/6/2 208/6/2 210/6/2
f 211/6/2 212/6/2 213/6/2
f 213/6/2 212/6/2 214/6/2
f 217/6/3 216/6/3 215/6/3
f 218/6/3 216/6/3 217/6/3
f 223/6/3 220/6/3 219/6/3
f 224/6/3 220/6/3 223/6/3
f 225/6/3 222/6/3 221/6/3
f 226/6/3 222/6/3 225/6/3
f 229/6/3 228/6/3 227/6/3
f 230/6/3 228/6/3 229/6/3
f 232/6/3 231/6/3 230/6/3
f 233/6/3 231/6/3 232/6/3
f 235/6/3 234/6/3 233/6/3
f 236/6/3 234/6/3 235/6/3
f 244/6/3 237/6/3 236/6/3
f 245/6/3 237/6/3 244/6/3
f 247/6/3 239/6/3 238/6/3
f 248/6/3 239/6/3 247/6/3
f 249/6/3 241/6/3 240/6/3
f 250/6/3 241/6/3 249/6/3
f 251/6/3 243/6/3 242/6/3
f 252/6/3 243/6/3 251/6/3
f 253/6/3 246/6/3 245/6/3
f 254/6/3 246/6/3 253/6/3
f 256/6/3 251/6/3 250/6/3
f 257/6/3 251/6/3 256/6/3
f 258/6/3 255/6/3 254/6/3
f 259/6/3 255/6/3 258/6/3
f 262/4/3 261/4/3 260/4/3
f 263/4/3 261/4/3 262/4/3
f 266/6/3 265/6/3 264/6/3
f 267/6/3 265/6/3 266/6/3
f 271/6/3 269/6/3 268/6/3
f 272/6/3 269/6/3 271/6/3
f 273/6/3 269/6/3 272/6/3
f 274/6/3 269/6/3 273/6/3
f 277/6/3 271/6/3 270/6/3
f 277/6/3 272/6/3 271/6/3
f 278/6/3 272/6/3 277/6/3
f 279/6/3 272/6/3 278/6/3
f 280/6/3 274/6/3 273/6/3
f 280/6/3 275/6/3 274/6/3
f 281/6/3 275/6/3 280/6/3
f 282/6/3 275/6/3 281/6/3
f 283/6/3 275/6/3 282/6/3
f 285/6/3 279/6/3 278/6/3
f 285/6/3 280/6/3 279/6/3
f 285/6/3 281/6/3 280/6/3
f 286/2/3 282/2/3 281/2/3
f 286/6/3 281/6/3 285/6/3
f 287/6/3 284/6/3 283/6/3
f 287/2/3 282/2/3 286/2/3
f 287/6/3 283/6/3 282/6/3
f 288/6/3 284/6/3 287/6/3
f 289/2/3 286/2/3 285/2/3
f 289/6/3 287/6/3 286/6/3
f 290/2/3 288/2/3 287/2/3
f 290/6/3 287/6/3 289/6/3
f 291/6/3 277/6/3 276/6/3
f 292/6/3 285/6/3 278/6/3
f 294/6/3 291/6/3 276/6/3
f 294/6/3 292/6/3 291/6/3
f 295/6/3 285/6/3 292/6/3
f 295/6/3 294/6/3 293/6/3
f 295/6/3 292/6/3 294/6/3
f 296/2/3 289/2/3 285/2/3
f 296/6/3 285/6/3 295/6/3
f 296/2/3 290/2/3 289/2/3
f 297/2/3 290/2/3 296/2/3
f 298/6/3 284/6/3 288/6/3
f 298/2/3 290/2/3 297/2/3
f 298/2/3 288/2/3 290/2/3
f 299/6/3 284/6/3 298/6/3
f 300/6/3 295/6/3 293/6/3
f 301/6/3 295/6/3 300/6/3
f 302/6/3 295/6/3 301/6/3
f 303/2/3 297/2/3 296/2/3
f 303/6/3 295/6/3 302/6/3
f 303/2/3 296/2/3 295/2/3
f 304/6/3 298/6/3 297/6/3
f 304/2/3 297/2/3 303/2/3
f 305/6/3 298/6/3 304/6/3
f 306/6/3 298/6/3 305/6/3
f 307/5/3 303/5/3 302/5/3
f 307/6/3 305/6/3 304/6/3
f 307/5/3 304/5/3 303/5/3
f 308/6/3 305/6/3 307/6/3
f 312/6/3 302/6/3 301/6/3
f 313/5/3 309/5/3 308/5/3
f 313/5/3 307/5/3 302/5/3
f 313/6/3 302/6/3 312/6/3
f 313/5/3 308/5/3 307/5/3
f 315/6/3 312/6/3 311/6/3
f 316/5/3 309/5/3 313/5/3
f 316/5/3 313/5/3 312/5/3
f 317/5/3 309/5/3 316/5/3
f 318/6/3 310/6/3 309/6/3
f 318/5/3 309/5/3 317/5/3
f 319/6/3 310/6/3 318/6/3
f 321/6/3 315/6/3 314/6/3
f 321/6/3 312/6/3 315/6/3
f 322/5/3 316/5/3 312/5/3
f 322/6/3 312/6/3 321/6/3
f 323/6/3 317/6/3 316/6/3
f 323/5/3 316/5/3 322/5/3
f 324/5/3 319/5/3 318/5/3
f 324/6/3 317/6/3 323/6/3
f 324/5/3 318/5/3 317/5/3
f 325/5/3 319/5/3 324/5/3
f 326/5/3 322/5/3 321/5/3
f 326/5/3 323/5/3 322/5/3
f 326/6/3 325/6/3 324/6/3
f 326/5/3 324/5/3 323/5/3
f 327/5/3 319/5/3 325/5/3
f 327/6/3 325/6/3 326/6/3
f 328/5/3 319/5/3 327/5/3
f 329/5/3 327/5/3 326/5/3
f 329/6/3 328/6/3 327/6/3
f 330/5/3 319/5/3 328/5/3
f 330/6/3 328/6/3 329/6/3
f 331/5/3 319/5/3 330/5/3
f 333/6/3 321/6/3 314/6/3
f 334/5/3 326/5/3 321/5/3
f 334/5/3 329/5/3 326/5/3
f 334/6/3 321/6/3 333/6/3
f 334/5/3 330/5/3 329/5/3
f 335/6/3 331/6/3 330/6/3
f 335/5/3 330/5/3 334/5/3
f 335/5/3 334/5/3 333/5/3
f 336/5/3 319/5/3 331/5/3
f 336/6/3 331/6/3 335/6/3
f 337/6/3 320/6/3 319/6/3
f 337/5/3 319/5/3 336/5/3
f 338/5/3 336/5/3 335/5/3
f 338/5/3 335/5/3 333/5/3
f 339/5/3 336/5/3 338/5/3
f 340/6/3 337/6/3 336/6/3
f 340/5/3 336/5/3 339/5/3
f 341/6/3 320/6/3 337/6/3
f 341/6/3 337/6/3 340/6/3
f 343/6/3 333/6/3 332/6/3
f 344/5/3 338/5/3 333/5/3
f 344/6/3 333/6/3 343/6/3
f 345/5/3 338/5/3 344/5/3
f 346/5/3 341/5/3 340/5/3
f 346/5/3 340/5/3 339/5/3
f 347/5/3 341/5/3 346/5/3
f 348/5/3 345/5/3 344/5/3
f 348/5/3 344/5/3 343/5/3
f 348/5/3 346/5/3 345/5/3
f 349/5/3 341/5/3 347/5/3
f 350/5/3 341/5/3 349/5/3
f 351/6/3 320/6/3 341/6/3
f 352/5/3 349/5/3 348/5/3
f 353/5/3 341/5/3 350/5/3
f 354/5/3 341/5/3 353/5/3
f 355/6/3 351/6/3 341/6/3
f 355/5/3 341/5/3 354/5/3
f 356/6/3 351/6/3 355/6/3
f 357/5/3 348/5/3 343/5/3
f 357/5/3 352/5/3 348/5/3
f 357/5/3 353/5/3 352/5/3
f 358/5/3 353/5/3 357/5/3
f 359/5/3 353/5/3 358/5/3
f 360/5/3 353/5/3 359/5/3
f 361/5/3 353/5/3 360/5/3
f 362/5/3 355/5/3 354/5/3
f 363/5/3 355/5/3 362/5/3
f 364/5/3 355/5/3 363/5/3
f 368/6/3 343/6/3 342/6/3
f 369/5/3 357/5/3 343/5/3
f 369/6/3 343/6/3 368/6/3
f 370/5/3 357/5/3 369/5/3
f 371/5/3 359/5/3 358/5/3
f 372/5/3 359/5/3 371/5/3
f 373/5/3 361/5/3 360/5/3
f 373/5/3 362/5/3 361/5/3
f 374/5/3 362/5/3 373/5/3
f 375/5/3 364/5/3 363/5/3
f 376/6/3 365/6/3 364/6/3
f 376/5/3 364/5/3 375/5/3
f 377/6/3 370/6/3 369/6/3
f 378/5/3 371/5/3 370/5/3
f 378/6/3 370/6/3 377/6/3
f 379/5/3 371/5/3 378/5/3
f 380/5/3 375/5/3 374/5/3
f 380/5/3 374/5/3 373/5/3
f 380/5/3 373/5/3 372/5/3
f 381/5/3 375/5/3 380/5/3
f 382/6/3 365/6/3 376/6/3
f 383/2/3 366/2/3 365/2/3
f 383/6/3 365/6/3 382/6/3
f 384/6/3 367/6/3 366/6/3
f 384/2/3 366/2/3 383/2/3
f 385/6/3 379/6/3 378/6/3
f 385/6/3 381/6/3 380/6/3
f 385/6/3 384/6/3 383/6/3
f 385/6/3 383/6/3 382/6/3
f 385/6/3 380/6/3 379/6/3
f 385/6/3 382/6/3 381/6/3
f 386/6/3 384/6/3 385/6/3
f 387/6/3 384/6/3 386/6/3
f 388/6/3 384/6/3 387/6/3
f 389/6/3 367/6/3 384/6/3
f 389/6/3 384/6/3 388/6/3
f 390/4/3 386/4/3 385/4/3
f 391/4/3 386/4/3 390/4/3
f 392/4/3 390/4/3 385/4/3
f 393/4/3 390/4/3 392/4/3
f 394/4/3 390/4/3 393/4/3
f 395/4/3 390/4/3 394/4/3
f 396/6/3 391/6/3 390/6/3
f 396/4/3 390/4/3 395/4/3
f 397/4/3 386/4/3 391/4/3
f 397/6/3 391/6/3 396/6/3
f 398/4/3 386/4/3 397/4/3
f 399/4/3 386/4/3 398/4/3
f 400/6/3 388/6/3 387/6/3
f 401/6/3 388/6/3 400/6/3
f 402/3/3 394/3/3 393/3/3
f 403/6/3 395/6/3 394/6/3
f 403/3/3 394/3/3 402/3/3
f 404/3/3 396/3/3 395/3/3
f 404/6/3 395/6/3 403/6/3
f 405/6/3 397/6/3 396/6/3
f 405/3/3 396/3/3 404/3/3
f 406/3/3 398/3/3 397/3/3
f 406/6/3 397/6/3 405/6/3
f 407/6/3 399/6/3 398/6/3
f 407/3/3 398/3/3 406/3/3
f 408/2/3 405/2/3 404/2/3
f 409/6/3 406/6/3 405/6/3
f 409/2/3 405/2/3 408/2/3
f 410/2/3 408/2/3 404/2/3
f 410/6/3 409/6/3 408/6/3
f 411/6/3 406/6/3 409/6/3
f 411/6/3 409/6/3 410/6/3
f 411/2/3 407/2/3 406/2/3
f 412/6/3 399/6/3 407/6/3
f 412/2/3 407/2/3 411/2/3
f 413/6/3 399/6/3 412/6/3
f 414/2/3 410/2/3 404/2/3
f 414/2/3 411/2/3 410/2/3
f 414/6/3 404/6/3 403/6/3
f 415/6/3 412/6/3 411/6/3
f 415/2/3 411/2/3 414/2/3
f 416/6/3 412/6/3 415/6/3
f 418/6/3 414/6/3 403/6/3
f 418/6/3 417/6/3 416/6/3
f 418/6/3 416/6/3 415/6/3
f 418/6/3 415/6/3 414/6/3
f 419/6/3 417/6/3 418/6/3
f 420/6/4 421/6/4 422/6/4
f 422/6/4 421/6/4 423/6/4
f 424/6/4 425/6/4 427/6/4
f 427/6/4 425/6/4 428/6/4
f 426/6/4 427/6/4 431/6/4
f 428/6/4 429/6/4 431/6/4
f 427/6/4 428/6/4 431/6/4
f 431/6/4 429/6/4 432/6/4
f 432/6/4 429/6/4 433/6/4
f 433/6/4 429/6/4 434/6/4
f 430/6/4 431/6/4 436/6/4
f 431/6/4 432/6/4 436/6/4
f 432/2/4 433/2/4 437/2/4
f 436/6/4 432/6/4 437/6/4
f 434/6/4 435/6/4 438/6/4
f 437/2/4 433/2/4 438/2/4
f 433/6/4 434/6/4 438/6/4
f 438/6/4 435/6/4 439/6/4
f 436/2/4 437/2/4 440/2/4
f 437/6/4 438/6/4 440/6/4
f 438/2/4 439/2/4 441/2/4
f 440/6/4 438/6/4 441/6/4
f 430/6/4 436/6/4 443/6/4
f 443/6/4 436/6/4 444/6/4
f 442/6/4 443/6/4 444/6/4
f 436/2/4 440/2/4 445/2/4
f 444/6/4 436/6/4 445/6/4
f 440/2/4 441/2/4 445/2/4
f 445/2/4 441/2/4 446/2/4
f 439/6/4 435/6/4 447/6/4
f 446/2/4 441/2/4 447/2/4
f 441/2/4 439/2/4 447/2/4
f 447/6/4 435/6/4 448/6/4
f 442/6/4 444/6/4 449/6/4
f 449/6/4 444/6/4 450/6/4
f 450/6/4 444/6/4 451/6/4
f 445/2/4 446/2/4 452/2/4
f 451/6/4 444/6/4 452/6/4
f 444/2/4 445/2/4 452/2/4
f 446/6/4 447/6/4 453/6/4
f 452/2/4 446/2/4 453/2/4
f 453/6/4 447/6/4 454/6/4
f 454/6/4 447/6/4 455/6/4
f 451/5/4 452/5/4 456/5/4
f 453/6/4 454/6/4 456/6/4
f 452/5/4 453/5/4 456/5/4
f 456/6/4 454/6/4 457/6/4
f 450/6/4 451/6/4 461/6/4
f 457/5/4 458/5/4 462/5/4
f 451/5/4 456/5/4 462/5/4
f 461/6/4 451/6/4 462/6/4
f 456/5/4 457/5/4 462/5/4
f 460/6/4 461/6/4 464/6/4
f 462/5/4 458/5/4 465/5/4
f 461/5/4 462/5/4 465/5/4
f 465/5/4 458/5/4 466/5/4
f 458/6/4 459/6/4 467/6/4
f 466/5/4 458/5/4 467/5/4
f 467/6/4 459/6/4 468/6/4
f 463/6/4 464/6/4 470/6/4
f 464/6/4 461/6/4 470/6/4
f 461/5/4 465/5/4 471/5/4
f 470/6/4 461/6/4 471/6/4
f 465/6/4 466/6/4 472/6/4
f 471/5/4 465/5/4 472/5/4
f 467/5/4 468/5/4 473/5/4
f 472/6/4 466/6/4 473/6/4
f 466/5/4 467/5/4 473/5/4
f 473/5/4 468/5/4 474/5/4
f 470/5/4 471/5/4 475/5/4
f 471/5/4 472/5/4 475/5/4
f 473/6/4 474/6/4 475/6/4
f 472/5/4 473/5/4 475/5/4
f 474/5/4 468/5/4 476/5/4
f 475/6/4 474/6/4 476/6/4
f 476/5/4 468/5/4 477/5/4
f 475/5/4 476/5/4 478/5/4
f 476/6/4 477/6/4 478/6/4
f 477/5/4 468/5/4 479/5/4
f 478/6/4 477/6/4 479/6/4
f 479/5/4 468/5/4 480/5/4
f 463/6/4 470/6/4 482/6/4
f 470/5/4 475/5/4 483/5/4
f 475/5/4 478/5/4 483/5/4
f 482/6/4 470/6/4 483/6/4
f 478/5/4 479/5/4 483/5/4
f 479/6/4 480/6/4 484/6/4
f 483/5/4 479/5/4 484/5/4
f 482/5/4 483/5/4 484/5/4
f 480/5/4 468/5/4 485/5/4
f 484/6/4 480/6/4 485/6/4
f 468/6/4 469/6/4 486/6/4
f 485/5/4 468/5/4 486/5/4
f 484/5/4 485/5/4 487/5/4
f 482/5/4 484/5/4 487/5/4
f 487/5/4 485/5/4 488/5/4
f 485/6/4 486/6/4 489/6/4
f 488/5/4 485/5/4 489/5/4
f 486/6/4 469/6/4 490/6/4
f 489/6/4 486/6/4 490/6/4
f 481/6/4 482/6/4 492/6/4
f 482/5/4 487/5/4 493/5/4
f 492/6/4 482/6/4 493/6/4
f 487/1/4 488/1/4 494/1/4
f 493/5/4 487/5/4 494/5/4
f 488/5/4 489/5/4 495/5/4
f 494/1/4 488/1/4 495/1/4
f 489/5/4 490/5/4 495/5/4
f 495/5/4 490/5/4 496/5/4
f 493/5/4 494/5/4 497/5/4
f 492/5/4 493/5/4 497/5/4
f 495/1/4 496/1/4 497/1/4
f 494/5/4 495/5/4 497/5/4
f 496/5/4 490/5/4 498/5/4
f 497/1/4 496/1/4 498/1/4
f 498/5/4 490/5/4 499/5/4
f 497/5/4 498/5/4 500/5/4
f 498/1/4 499/1/4 500/1/4
f 499/5/4 490/5/4 501/5/4
f 500/1/4 499/1/4 501/1/4
f 501/5/4 490/5/4 502/5/4
f 490/6/4 469/6/4 503/6/4
f 492/5/4 497/5/4 505/5/4
f 497/5/4 500/5/4 505/5/4
f 500/5/4 501/5/4 505/5/4
f 505/5/4 501/5/4 506/5/4
f 506/5/4 501/5/4 507/5/4
f 507/5/4 501/5/4 508/5/4
f 501/1/4 502/1/4 509/1/4
f 508/5/4 501/5/4 509/5/4
f 502/5/4 490/5/4 510/5/4
f 509/1/4 502/1/4 510/1/4
f 510/5/4 490/5/4 511/5/4
f 503/6/4 504/6/4 512/6/4
f 490/6/4 503/6/4 512/6/4
f 512/6/4 504/6/4 513/6/4
f 491/6/4 492/6/4 515/6/4
f 492/5/4 505/5/4 516/5/4
f 515/6/4 492/6/4 516/6/4
f 505/1/4 506/1/4 517/1/4
f 516/5/4 505/5/4 517/5/4
f 506/5/4 507/5/4 518/5/4
f 517/1/4 506/1/4 518/1/4
f 507/1/4 508/1/4 519/1/4
f 518/5/4 507/5/4 519/5/4
f 508/5/4 509/5/4 520/5/4
f 519/1/4 508/1/4 520/1/4
f 509/5/4 510/5/4 520/5/4
f 510/1/4 511/1/4 521/1/4
f 520/5/4 510/5/4 521/5/4
f 511/5/4 490/5/4 522/5/4
f 521/1/4 511/1/4 522/1/4
f 490/6/4 512/6/4 523/6/4
f 522/5/4 490/5/4 523/5/4
f 516/6/4 517/6/4 524/6/4
f 517/5/4 518/5/4 525/5/4
f 524/6/4 517/6/4 525/6/4
f 518/1/4 519/1/4 526/1/4
f 525/5/4 518/5/4 526/5/4
f 520/5/4 521/5/4 527/5/4
f 526/1/4 519/1/4 527/1/4
f 519/5/4 520/5/4 527/5/4
f 521/5/4 522/5/4 527/5/4
f 522/1/4 523/1/4 528/1/4
f 527/5/4 522/5/4 528/5/4
f 523/6/4 512/6/4 529/6/4
f 528/1/4 523/1/4 529/1/4
f 512/2/4 513/2/4 530/2/4
f 529/6/4 512/6/4 530/6/4
f 513/6/4 514/6/4 531/6/4
f 530/2/4 513/2/4 531/2/4
f 525/6/4 526/6/4 532/6/4
f 530/6/4 531/6/4 532/6/4
f 526/6/4 527/6/4 532/6/4
f 527/6/4 528/6/4 532/6/4
f 529/6/4 530/6/4 532/6/4
f 528/6/4 529/6/4 532/6/4
f 532/6/4 531/6/4 533/6/4
f 533/6/4 531/6/4 534/6/4
f 531/6/4 514/6/4 535/6/4
f 534/6/4 531/6/4 535/6/4
f 532/4/4 533/4/4 536/4/4
f 536/4/4 533/4/4 537/4/4
f 532/4/4 536/4/4 538/4/4
f 538/4/4 536/4/4 539/4/4
f 539/4/4 536/4/4 540/4/4
f 540/4/4 536/4/4 541/4/4
f 536/6/4 537/6/4 542/6/4
f 541/4/4 536/4/4 542/4/4
f 537/4/4 533/4/4 543/4/4
f 542/6/4 537/6/4 543/6/4
f 543/4/4 533/4/4 544/4/4
f 533/6/4 534/6/4 545/6/4
f 544/4/4 533/4/4 545/4/4
f 545/6/4 534/6/4 546/6/4
f 539/3/4 540/3/4 547/3/4
f 540/6/4 541/6/4 548/6/4
f 547/3/4 540/3/4 548/3/4
f 541/3/4 542/3/4 549/3/4
f 548/6/4 541/6/4 549/6/4
f 542/6/4 543/6/4 550/6/4
f 549/3/4 542/3/4 550/3/4
f 543/3/4 544/3/4 551/3/4
f 550/6/4 543/6/4 551/6/4
f 544/6/4 545/6/4 552/6/4
f 551/3/4 544/3/4 552/3/4
f 549/2/4 550/2/4 553/2/4
f 550/6/4 551/6/4 554/6/4
f 553/2/4 550/2/4 554/2/4
f 549/2/4 553/2/4 555/2/4
f 553/6/4 554/6/4 555/6/4
f 551/2/4 552/2/4 556/2/4
f 555/6/4 554/6/4 556/6/4
f 554/6/4 551/6/4 556/6/4
f 552/6/4 545/6/4 557/6/4
f 556/2/4 552/2/4 557/2/4
f 555/2/4 556/2/4 558/2/4
f 549/2/4 555/2/4 558/2/4
f 548/6/4 549/6/4 558/6/4
f 556/6/4 557/6/4 559/6/4
f 558/2/4 556/2/4 559/2/4
f 548/6/4 558/6/4 560/6/4
f 558/6/4 559/6/4 560/6/4
f 557/6/4 545/6/4 561/6/4
f 560/6/4 559/6/4 561/6/4
f 559/6/4 557/6/4 561/6/4
f 564/6/5 563/6/5 562/6/5
f 565/6/5 563/6/5 564/6/5
f 570/6/5 567/6/5 566/6/5
f 571/6/5 567/6/5 570/6/5
f 572/6/5 569/6/5 568/6/5
f 573/6/5 569/6/5 572/6/5
f 580/6/5 575/6/5 574/6/5
f 581/6/5 575/6/5 580/6/5
f 585/6/5 577/6/5 576/6/5
f 586/6/5 577/6/5 585/6/5
f 587/6/5 579/6/5 578/6/5
f 588/6/5 579/6/5 587/6/5
f 589/6/5 583/6/5 582/6/5
f 590/4/5 584/4/5 583/4/5
f 590/6/5 583/6/5 589/6/5
f 591/4/5 584/4/5 590/4/5
f 598/6/5 593/6/5 592/6/5
f 599/6/5 593/6/5 598/6/5
f 602/6/5 595/6/5 594/6/5
f 603/6/5 595/6/5 602/6/5
f 604/6/5 597/6/5 596/6/5
f 605/6/5 597/6/5 604/6/5
f 606/3/5 601/3/5 600/3/5
f 607/3/5 601/3/5 606/3/5
f 615/6/5 609/6/5 608/6/5
f 616/6/5 609/6/5 615/6/5
f 619/6/5 611/6/5 610/6/5
f 620/6/5 611/6/5 619/6/5
f 621/6/5 613/6/5 612/6/5
f 622/6/5 613/6/5 621/6/5
f 625/6/5 615/6/5 614/6/5
f 626/6/5 615/6/5 625/6/5
f 627/6/5 618/6/5 617/6/5
f 628/6/5 618/6/5 627/6/5
f 629/6/5 624/6/5 623/6/5
f 630/6/5 624/6/5 629/6/5
f 635/6/5 632/6/5 631/6/5
f 636/6/5 632/6/5 635/6/5
f 637/6/5 634/6/5 633/6/5
f 638/6/5 634/6/5 637/6/5
f 643/6/5 640/6/5 639/6/5
f 644/6/5 640/6/5 643/6/5
f 645/6/5 642/6/5 641/6/5
f 646/6/5 642/6/5 645/6/5
f 649/6/5 648/6/5 647/6/5
f 650/6/5 648/6/5 649/6/5
f 653/6/5 652/6/5 651/6/5
f 654/6/5 652/6/5 653/6/5
f 659/6/5 656/6/5 655/6/5
f 660/6/5 656/6/5 659/6/5
f 661/6/5 658/6/5 657/6/5
f 662/6/5 658/6/5 661/6/5
f 665/4/5 664/4/5 663/4/5
f 666/4/5 664/4/5 665/4/5
f 669/6/5 668/6/5 667/6/5
f 670/6/5 668/6/5 669/6/5
f 673/6/5 672/6/5 671/6/5
f 674/6/5 672/6/5 673/6/5
f 675/6/5 673/6/5 671/6/5
f 676/6/5 673/6/5 675/6/5
f 677/6/6 678/6/6 679/6/6
f 679/6/6 678/6/6 680/6/6
f 681/6/6 682/6/6 683/6/6
f 683/6/6 682/6/6 684/6/6
f 685/6/6 686/6/6 691/6/6
f 691/6/6 686/6/6 692/6/6
f 687/6/6 688/6/6 693/6/6
f 693/6/6 688/6/6 694/6/6
f 689/6/6 690/6/6 695/6/6
f 695/6/6 690/6/6 696/6/6
f 697/6/6 698/6/6 699/6/6
f 699/6/6 698/6/6 700/6/6
f 701/6/6 702/6/6 705/6/6
f 705/6/6 702/6/6 706/6/6
f 703/6/6 704/6/6 707/6/6
f 707/6/6 704/6/6 708/6/6
f 709/6/6 710/6/6 711/6/6
f 711/6/6 710/6/6 712/6/6
f 713/6/6 714/6/6 715/6/6
f 715/6/6 714/6/6 716/6/6
f 717/6/6 718/6/6 724/6/6
f 724/6/6 718/6/6 725/6/6
f 719/6/6 720/6/6 727/6/6
f 727/6/6 720/6/6 728/6/6
f 721/6/6 722/6/6 729/6/6
f 729/6/6 722/6/6 730/6/6
f 725/6/6 726/6/6 731/6/6
f 723/6/6 724/6/6 731/6/6
f 724/6/6 725/6/6 731/6/6
f 731/6/6 726/6/6 732/6/6
f 733/4/6 734/4/6 739/4/6
f 739/4/6 734/4/6 740/4/6
f 735/6/6 736/6/6 741/6/6
f 741/6/6 736/6/6 742/6/6
f 737/6/6 738/6/6 743/6/6
f 743/6/6 738/6/6 744/6/6
f 745/6/6 746/6/6 751/6/6
f 751/6/6 746/6/6 752/6/6
f 747/6/6 748/6/6 755/6/6
f 755/6/6 748/6/6 756/6/6
f 749/6/6 750/6/6 757/6/6
f 757/6/6 750/6/6 758/6/6
f 753/6/6 754/6/6 759/6/6
f 759/6/6 754/6/6 760/6/6
f 761/6/6 762/6/6 764/6/6
f 762/6/6 763/6/6 764/6/6
f 764/6/6 763/6/6 765/6/6
f 766/6/6 767/6/6 768/6/6
f 768/6/6 767/6/6 769/6/6
f 769/6/6 767/6/6 770/6/6
f 769/6/6 770/6/6 771/6/6
f 771/6/6 770/6/6 772/6/6
f 773/6/6 774/6/6 775/6/6
f 775/6/6 774/6/6 776/6/6
