# MagicaVoxel @ Ephtracy

# group
o 

# material
mtllib TESTOWANIE_VOXELA-6.mtl
usemtl palette

# normals
vn -1 0 0
vn 1 0 0
vn 0 0 1
vn 0 0 -1
vn 0 -1 0
vn 0 1 0

# texcoords
vt 0.537109 0.5
vt 0.658203 0.5
vt 0.783203 0.5
vt 0.787109 0.5

# verts
v -44.8 4.9 3.2
v -44.8 4.9 3.1
v -44.8 5.4 3.2
v -44.8 5.4 3.1
v -44.7 4.7 3.2
v -44.7 4.7 3.1
v -44.7 4.9 3.2
v -44.7 4.9 3.1
v -44.7 4.9 3
v -44.7 5.4 3.2
v -44.7 5.4 3.1
v -44.7 5.4 3
v -44.7 5.6 3.2
v -44.7 5.6 3.1
v -44.6 4.6 3.2
v -44.6 4.6 3.1
v -44.6 4.7 3.2
v -44.6 4.7 3.1
v -44.6 4.7 3
v -44.6 4.9 3.1
v -44.6 4.9 3
v -44.6 5.4 3.1
v -44.6 5.4 3
v -44.6 5.6 3.2
v -44.6 5.6 3.1
v -44.6 5.6 3
v -44.6 5.7 3.2
v -44.6 5.7 3.1
v -44.5 4.5 3.2
v -44.5 4.5 3.1
v -44.5 4.6 3.2
v -44.5 4.6 3.1
v -44.5 4.6 3
v -44.5 4.7 3.1
v -44.5 4.7 3
v -44.5 5.6 3.1
v -44.5 5.6 3
v -44.5 5.7 3.2
v -44.5 5.7 3.1
v -44.5 5.7 3
v -44.5 5.8 3.2
v -44.5 5.8 3.1
v -44.4 4.4 3.2
v -44.4 4.4 3.1
v -44.4 4.5 3.2
v -44.4 4.5 3.1
v -44.4 4.5 3
v -44.4 4.6 3.1
v -44.4 4.6 3
v -44.4 5.7 3.1
v -44.4 5.7 3
v -44.4 5.8 3.2
v -44.4 5.8 3.1
v -44.4 5.8 3
v -44.4 5.9 3.2
v -44.4 5.9 3.1
v -44.2 4.3 3.2
v -44.2 4.3 3.1
v -44.2 4.4 3.2
v -44.2 4.4 3.1
v -44.2 4.4 3
v -44.2 4.5 3.1
v -44.2 4.5 3
v -44.2 5.8 3.1
v -44.2 5.8 3
v -44.2 5.9 3.2
v -44.2 5.9 3.1
v -44.2 5.9 3
v -44.2 6 3.2
v -44.2 6 3.1
v -44 1 3.1
v -44 1 3
v -44 4.3 3.1
v -44 4.4 3.1
v -44 4.4 3
v -43.9 1 3.1
v -43.9 1 3
v -43.9 4.3 3.1
v -43.9 4.4 3.1
v -43.9 4.4 3
v -43.7 4.3 3.2
v -43.7 4.3 3.1
v -43.7 4.4 3.2
v -43.7 4.4 3.1
v -43.7 4.4 3
v -43.7 4.5 3.1
v -43.7 4.5 3
v -43.7 5.8 3.1
v -43.7 5.8 3
v -43.7 5.9 3.2
v -43.7 5.9 3.1
v -43.7 5.9 3
v -43.7 6 3.2
v -43.7 6 3.1
v -43.5 4.4 3.2
v -43.5 4.4 3.1
v -43.5 4.5 3.2
v -43.5 4.5 3.1
v -43.5 4.5 3
v -43.5 4.6 3.1
v -43.5 4.6 3
v -43.5 5.7 3.1
v -43.5 5.7 3
v -43.5 5.8 3.2
v -43.5 5.8 3.1
v -43.5 5.8 3
v -43.5 5.9 3.2
v -43.5 5.9 3.1
v -43.4 4.5 3.2
v -43.4 4.5 3.1
v -43.4 4.6 3.2
v -43.4 4.6 3.1
v -43.4 4.6 3
v -43.4 4.7 3.1
v -43.4 4.7 3
v -43.4 5.6 3.1
v -43.4 5.6 3
v -43.4 5.7 3.2
v -43.4 5.7 3.1
v -43.4 5.7 3
v -43.4 5.8 3.2
v -43.4 5.8 3.1
v -43.3 4.6 3.2
v -43.3 4.6 3.1
v -43.3 4.7 3.2
v -43.3 4.7 3.1
v -43.3 4.7 3
v -43.3 4.9 3.1
v -43.3 4.9 3
v -43.3 5.3 3.1
v -43.3 5.3 3
v -43.3 5.6 3.2
v -43.3 5.6 3.1
v -43.3 5.6 3
v -43.3 5.7 3.2
v -43.3 5.7 3.1
v -43.2 4.7 3.2
v -43.2 4.7 3.1
v -43.2 4.9 3.2
v -43.2 4.9 3.1
v -43.2 4.9 3
v -43.2 5.3 3.1
v -43.2 5.3 3
v -43.2 5.4 3.2
v -43.2 5.4 3.1
v -43.2 5.6 3.2
v -43.2 5.6 3.1
v -43.1 4.9 3.2
v -43.1 4.9 3.1
v -43.1 5.4 3.2
v -43.1 5.4 3.1
v -44.8 4.9 3.2
v -44.8 5.4 3.2
v -44.7 4.7 3.2
v -44.7 4.9 3.2
v -44.7 5.4 3.2
v -44.7 5.6 3.2
v -44.6 4.6 3.2
v -44.6 4.7 3.2
v -44.6 4.9 3.2
v -44.6 5.4 3.2
v -44.6 5.6 3.2
v -44.6 5.7 3.2
v -44.5 4.5 3.2
v -44.5 4.6 3.2
v -44.5 4.7 3.2
v -44.5 5.2 3.2
v -44.5 5.3 3.2
v -44.5 5.6 3.2
v -44.5 5.7 3.2
v -44.5 5.8 3.2
v -44.4 4.4 3.2
v -44.4 4.5 3.2
v -44.4 4.6 3.2
v -44.4 5.1 3.2
v -44.4 5.2 3.2
v -44.4 5.3 3.2
v -44.4 5.4 3.2
v -44.4 5.7 3.2
v -44.4 5.8 3.2
v -44.4 5.9 3.2
v -44.3 5 3.2
v -44.3 5.1 3.2
v -44.3 5.4 3.2
v -44.3 5.5 3.2
v -44.2 4.3 3.2
v -44.2 4.4 3.2
v -44.2 4.5 3.2
v -44.2 4.9 3.2
v -44.2 5 3.2
v -44.2 5.5 3.2
v -44.2 5.6 3.2
v -44.2 5.8 3.2
v -44.2 5.9 3.2
v -44.2 6 3.2
v -44.1 4.9 3.2
v -44.1 5.1 3.2
v -44.1 5.4 3.2
v -44.1 5.6 3.2
v -43.8 4.8 3.2
v -43.8 5.1 3.2
v -43.7 4.3 3.2
v -43.7 4.4 3.2
v -43.7 4.5 3.2
v -43.7 5.8 3.2
v -43.7 5.9 3.2
v -43.7 6 3.2
v -43.6 4.8 3.2
v -43.6 5.4 3.2
v -43.5 4.4 3.2
v -43.5 4.5 3.2
v -43.5 4.6 3.2
v -43.5 5.7 3.2
v -43.5 5.8 3.2
v -43.5 5.9 3.2
v -43.4 4.5 3.2
v -43.4 4.6 3.2
v -43.4 4.7 3.2
v -43.4 5.6 3.2
v -43.4 5.7 3.2
v -43.4 5.8 3.2
v -43.3 4.6 3.2
v -43.3 4.7 3.2
v -43.3 4.9 3.2
v -43.3 5.3 3.2
v -43.3 5.6 3.2
v -43.3 5.7 3.2
v -43.2 4.7 3.2
v -43.2 4.9 3.2
v -43.2 5.3 3.2
v -43.2 5.4 3.2
v -43.2 5.6 3.2
v -43.1 4.9 3.2
v -43.1 5.4 3.2
v -44 1 3.1
v -44 4.3 3.1
v -43.9 1 3.1
v -43.9 4.3 3.1
v -44.8 4.9 3.1
v -44.8 5.4 3.1
v -44.7 4.7 3.1
v -44.7 4.9 3.1
v -44.7 5.4 3.1
v -44.7 5.6 3.1
v -44.6 4.6 3.1
v -44.6 4.7 3.1
v -44.6 4.9 3.1
v -44.6 5.4 3.1
v -44.6 5.6 3.1
v -44.6 5.7 3.1
v -44.5 4.5 3.1
v -44.5 4.6 3.1
v -44.5 4.7 3.1
v -44.5 5.6 3.1
v -44.5 5.7 3.1
v -44.5 5.8 3.1
v -44.4 4.4 3.1
v -44.4 4.5 3.1
v -44.4 4.6 3.1
v -44.4 5.7 3.1
v -44.4 5.8 3.1
v -44.4 5.9 3.1
v -44.2 4.3 3.1
v -44.2 4.4 3.1
v -44.2 4.5 3.1
v -44.2 5.8 3.1
v -44.2 5.9 3.1
v -44.2 6 3.1
v -44 4.3 3.1
v -44 4.4 3.1
v -43.9 4.3 3.1
v -43.9 4.4 3.1
v -43.7 4.3 3.1
v -43.7 4.4 3.1
v -43.7 4.5 3.1
v -43.7 5.8 3.1
v -43.7 5.9 3.1
v -43.7 6 3.1
v -43.5 4.4 3.1
v -43.5 4.5 3.1
v -43.5 4.6 3.1
v -43.5 5.7 3.1
v -43.5 5.8 3.1
v -43.5 5.9 3.1
v -43.4 4.5 3.1
v -43.4 4.6 3.1
v -43.4 4.7 3.1
v -43.4 5.6 3.1
v -43.4 5.7 3.1
v -43.4 5.8 3.1
v -43.3 4.6 3.1
v -43.3 4.7 3.1
v -43.3 4.9 3.1
v -43.3 5.3 3.1
v -43.3 5.6 3.1
v -43.3 5.7 3.1
v -43.2 4.7 3.1
v -43.2 4.9 3.1
v -43.2 5.3 3.1
v -43.2 5.4 3.1
v -43.2 5.6 3.1
v -43.1 4.9 3.1
v -43.1 5.4 3.1
v -44.7 4.9 3
v -44.7 5.4 3
v -44.6 4.7 3
v -44.6 4.9 3
v -44.6 5.4 3
v -44.6 5.6 3
v -44.5 4.6 3
v -44.5 4.7 3
v -44.5 5.6 3
v -44.5 5.7 3
v -44.4 4.5 3
v -44.4 4.6 3
v -44.4 5.7 3
v -44.4 5.8 3
v -44.2 4.4 3
v -44.2 4.5 3
v -44.2 5.8 3
v -44.2 5.9 3
v -44 1 3
v -44 4.4 3
v -43.9 1 3
v -43.9 4.4 3
v -43.7 4.4 3
v -43.7 4.5 3
v -43.7 5.8 3
v -43.7 5.9 3
v -43.5 4.5 3
v -43.5 4.6 3
v -43.5 5.7 3
v -43.5 5.8 3
v -43.4 4.6 3
v -43.4 4.7 3
v -43.4 5.6 3
v -43.4 5.7 3
v -43.3 4.7 3
v -43.3 4.9 3
v -43.3 5.3 3
v -43.3 5.6 3
v -43.2 4.9 3
v -43.2 5.3 3
v -44 1 3.1
v -43.9 1 3.1
v -44 1 3
v -43.9 1 3
v -44.2 4.3 3.2
v -43.7 4.3 3.2
v -44.2 4.3 3.1
v -44 4.3 3.1
v -43.9 4.3 3.1
v -43.7 4.3 3.1
v -44.4 4.4 3.2
v -44.2 4.4 3.2
v -43.7 4.4 3.2
v -43.5 4.4 3.2
v -44.4 4.4 3.1
v -44.2 4.4 3.1
v -44 4.4 3.1
v -43.9 4.4 3.1
v -43.7 4.4 3.1
v -43.5 4.4 3.1
v -44.2 4.4 3
v -44 4.4 3
v -43.9 4.4 3
v -43.7 4.4 3
v -44.5 4.5 3.2
v -44.4 4.5 3.2
v -43.5 4.5 3.2
v -43.4 4.5 3.2
v -44.5 4.5 3.1
v -44.4 4.5 3.1
v -44.2 4.5 3.1
v -43.7 4.5 3.1
v -43.5 4.5 3.1
v -43.4 4.5 3.1
v -44.4 4.5 3
v -44.2 4.5 3
v -43.7 4.5 3
v -43.5 4.5 3
v -44.6 4.6 3.2
v -44.5 4.6 3.2
v -43.4 4.6 3.2
v -43.3 4.6 3.2
v -44.6 4.6 3.1
v -44.5 4.6 3.1
v -44.4 4.6 3.1
v -43.5 4.6 3.1
v -43.4 4.6 3.1
v -43.3 4.6 3.1
v -44.5 4.6 3
v -44.4 4.6 3
v -43.5 4.6 3
v -43.4 4.6 3
v -44.7 4.7 3.2
v -44.6 4.7 3.2
v -43.3 4.7 3.2
v -43.2 4.7 3.2
v -44.7 4.7 3.1
v -44.6 4.7 3.1
v -44.5 4.7 3.1
v -43.4 4.7 3.1
v -43.3 4.7 3.1
v -43.2 4.7 3.1
v -44.6 4.7 3
v -44.5 4.7 3
v -43.4 4.7 3
v -43.3 4.7 3
v -44.8 4.9 3.2
v -44.7 4.9 3.2
v -43.2 4.9 3.2
v -43.1 4.9 3.2
v -44.8 4.9 3.1
v -44.7 4.9 3.1
v -44.6 4.9 3.1
v -43.3 4.9 3.1
v -43.2 4.9 3.1
v -43.1 4.9 3.1
v -44.7 4.9 3
v -44.6 4.9 3
v -43.3 4.9 3
v -43.2 4.9 3
v -43.3 5.3 3.1
v -43.2 5.3 3.1
v -43.3 5.3 3
v -43.2 5.3 3
v -44.8 5.4 3.2
v -44.7 5.4 3.2
v -43.2 5.4 3.2
v -43.1 5.4 3.2
v -44.8 5.4 3.1
v -44.7 5.4 3.1
v -44.6 5.4 3.1
v -43.2 5.4 3.1
v -43.1 5.4 3.1
v -44.7 5.4 3
v -44.6 5.4 3
v -44.7 5.6 3.2
v -44.6 5.6 3.2
v -43.3 5.6 3.2
v -43.2 5.6 3.2
v -44.7 5.6 3.1
v -44.6 5.6 3.1
v -44.5 5.6 3.1
v -43.4 5.6 3.1
v -43.3 5.6 3.1
v -43.2 5.6 3.1
v -44.6 5.6 3
v -44.5 5.6 3
v -43.4 5.6 3
v -43.3 5.6 3
v -44.6 5.7 3.2
v -44.5 5.7 3.2
v -43.4 5.7 3.2
v -43.3 5.7 3.2
v -44.6 5.7 3.1
v -44.5 5.7 3.1
v -44.4 5.7 3.1
v -43.5 5.7 3.1
v -43.4 5.7 3.1
v -43.3 5.7 3.1
v -44.5 5.7 3
v -44.4 5.7 3
v -43.5 5.7 3
v -43.4 5.7 3
v -44.5 5.8 3.2
v -44.4 5.8 3.2
v -43.5 5.8 3.2
v -43.4 5.8 3.2
v -44.5 5.8 3.1
v -44.4 5.8 3.1
v -44.2 5.8 3.1
v -43.7 5.8 3.1
v -43.5 5.8 3.1
v -43.4 5.8 3.1
v -44.4 5.8 3
v -44.2 5.8 3
v -43.7 5.8 3
v -43.5 5.8 3
v -44.4 5.9 3.2
v -44.2 5.9 3.2
v -43.7 5.9 3.2
v -43.5 5.9 3.2
v -44.4 5.9 3.1
v -44.2 5.9 3.1
v -43.7 5.9 3.1
v -43.5 5.9 3.1
v -44.2 5.9 3
v -43.7 5.9 3
v -44.2 6 3.2
v -43.7 6 3.2
v -44.2 6 3.1
v -43.7 6 3.1

# faces
f 3/3/1 2/3/1 1/3/1
f 4/3/1 2/3/1 3/3/1
f 7/3/1 6/3/1 5/3/1
f 8/3/1 6/3/1 7/3/1
f 11/3/1 9/3/1 8/3/1
f 12/3/1 9/3/1 11/3/1
f 13/3/1 11/3/1 10/3/1
f 14/3/1 11/3/1 13/3/1
f 17/3/1 16/3/1 15/3/1
f 18/3/1 16/3/1 17/3/1
f 20/3/1 19/3/1 18/3/1
f 21/3/1 19/3/1 20/3/1
f 25/3/1 23/3/1 22/3/1
f 26/3/1 23/3/1 25/3/1
f 27/3/1 25/3/1 24/3/1
f 28/3/1 25/3/1 27/3/1
f 31/3/1 30/3/1 29/3/1
f 32/3/1 30/3/1 31/3/1
f 34/3/1 33/3/1 32/3/1
f 35/3/1 33/3/1 34/3/1
f 39/3/1 37/3/1 36/3/1
f 40/3/1 37/3/1 39/3/1
f 41/3/1 39/3/1 38/3/1
f 42/3/1 39/3/1 41/3/1
f 45/3/1 44/3/1 43/3/1
f 46/3/1 44/3/1 45/3/1
f 48/3/1 47/3/1 46/3/1
f 49/3/1 47/3/1 48/3/1
f 53/3/1 51/3/1 50/3/1
f 54/3/1 51/3/1 53/3/1
f 55/3/1 53/3/1 52/3/1
f 56/3/1 53/3/1 55/3/1
f 59/3/1 58/3/1 57/3/1
f 60/3/1 58/3/1 59/3/1
f 62/3/1 61/3/1 60/3/1
f 63/3/1 61/3/1 62/3/1
f 67/3/1 65/3/1 64/3/1
f 68/3/1 65/3/1 67/3/1
f 69/3/1 67/3/1 66/3/1
f 70/3/1 67/3/1 69/3/1
f 73/4/1 72/4/1 71/4/1
f 74/4/1 72/4/1 73/4/1
f 75/4/1 72/4/1 74/4/1
f 76/4/2 77/4/2 78/4/2
f 78/4/2 77/4/2 79/4/2
f 79/4/2 77/4/2 80/4/2
f 81/3/2 82/3/2 83/3/2
f 83/3/2 82/3/2 84/3/2
f 84/3/2 85/3/2 86/3/2
f 86/3/2 85/3/2 87/3/2
f 88/3/2 89/3/2 91/3/2
f 91/3/2 89/3/2 92/3/2
f 90/3/2 91/3/2 93/3/2
f 93/3/2 91/3/2 94/3/2
f 95/3/2 96/3/2 97/3/2
f 97/3/2 96/3/2 98/3/2
f 98/3/2 99/3/2 100/3/2
f 100/3/2 99/3/2 101/3/2
f 102/3/2 103/3/2 105/3/2
f 105/3/2 103/3/2 106/3/2
f 104/3/2 105/3/2 107/3/2
f 107/3/2 105/3/2 108/3/2
f 109/3/2 110/3/2 111/3/2
f 111/3/2 110/3/2 112/3/2
f 112/3/2 113/3/2 114/3/2
f 114/3/2 113/3/2 115/3/2
f 116/3/2 117/3/2 119/3/2
f 119/3/2 117/3/2 120/3/2
f 118/3/2 119/3/2 121/3/2
f 121/3/2 119/3/2 122/3/2
f 123/3/2 124/3/2 125/3/2
f 125/3/2 124/3/2 126/3/2
f 126/3/2 127/3/2 128/3/2
f 128/3/2 127/3/2 129/3/2
f 130/3/2 131/3/2 133/3/2
f 133/3/2 131/3/2 134/3/2
f 132/3/2 133/3/2 135/3/2
f 135/3/2 133/3/2 136/3/2
f 137/3/2 138/3/2 139/3/2
f 139/3/2 138/3/2 140/3/2
f 140/3/2 141/3/2 142/3/2
f 142/3/2 141/3/2 143/3/2
f 144/3/2 145/3/2 146/3/2
f 146/3/2 145/3/2 147/3/2
f 148/3/2 149/3/2 150/3/2
f 150/3/2 149/3/2 151/3/2
f 155/3/3 153/3/3 152/3/3
f 156/3/3 153/3/3 155/3/3
f 159/3/3 155/3/3 154/3/3
f 160/1/3 156/1/3 155/1/3
f 160/3/3 155/3/3 159/3/3
f 161/3/3 157/3/3 156/3/3
f 161/1/3 156/1/3 160/1/3
f 162/3/3 157/3/3 161/3/3
f 165/3/3 159/3/3 158/3/3
f 166/1/3 160/1/3 159/1/3
f 166/1/3 161/1/3 160/1/3
f 166/3/3 159/3/3 165/3/3
f 166/1/3 162/1/3 161/1/3
f 167/1/3 162/1/3 166/1/3
f 168/1/3 162/1/3 167/1/3
f 169/3/3 163/3/3 162/3/3
f 169/1/3 162/1/3 168/1/3
f 170/3/3 163/3/3 169/3/3
f 173/3/3 165/3/3 164/3/3
f 174/1/3 166/1/3 165/1/3
f 174/1/3 167/1/3 166/1/3
f 174/3/3 165/3/3 173/3/3
f 175/1/3 167/1/3 174/1/3
f 176/2/3 168/2/3 167/2/3
f 176/1/3 167/1/3 175/1/3
f 177/1/3 169/1/3 168/1/3
f 177/2/3 168/2/3 176/2/3
f 177/1/3 170/1/3 169/1/3
f 178/1/3 170/1/3 177/1/3
f 179/3/3 171/3/3 170/3/3
f 179/1/3 170/1/3 178/1/3
f 180/3/3 171/3/3 179/3/3
f 182/1/3 175/1/3 174/1/3
f 182/1/3 174/1/3 173/1/3
f 183/2/3 178/2/3 177/2/3
f 183/1/3 175/1/3 182/1/3
f 183/2/3 176/2/3 175/2/3
f 183/2/3 177/2/3 176/2/3
f 184/1/3 179/1/3 178/1/3
f 184/2/3 178/2/3 183/2/3
f 184/1/3 180/1/3 179/1/3
f 185/1/3 180/1/3 184/1/3
f 187/3/3 173/3/3 172/3/3
f 188/1/3 182/1/3 173/1/3
f 188/3/3 173/3/3 187/3/3
f 189/1/3 182/1/3 188/1/3
f 190/2/3 183/2/3 182/2/3
f 190/1/3 182/1/3 189/1/3
f 190/2/3 184/2/3 183/2/3
f 190/2/3 185/2/3 184/2/3
f 191/1/3 180/1/3 185/1/3
f 191/2/3 185/2/3 190/2/3
f 192/1/3 180/1/3 191/1/3
f 193/3/3 181/3/3 180/3/3
f 193/1/3 180/1/3 192/1/3
f 194/3/3 181/3/3 193/3/3
f 196/2/3 192/2/3 191/2/3
f 196/2/3 190/2/3 189/2/3
f 196/1/3 189/1/3 188/1/3
f 196/1/3 188/1/3 187/1/3
f 196/2/3 191/2/3 190/2/3
f 197/2/3 192/2/3 196/2/3
f 198/2/3 192/2/3 197/2/3
f 199/1/3 194/1/3 193/1/3
f 199/2/3 192/2/3 198/2/3
f 199/1/3 193/1/3 192/1/3
f 200/1/3 197/1/3 196/1/3
f 200/1/3 196/1/3 187/1/3
f 201/2/3 198/2/3 197/2/3
f 201/1/3 197/1/3 200/1/3
f 202/3/3 187/3/3 186/3/3
f 203/1/3 200/1/3 187/1/3
f 203/3/3 187/3/3 202/3/3
f 204/1/3 200/1/3 203/1/3
f 205/1/3 194/1/3 199/1/3
f 205/1/3 199/1/3 198/1/3
f 206/3/3 195/3/3 194/3/3
f 206/1/3 194/1/3 205/1/3
f 207/3/3 195/3/3 206/3/3
f 208/1/3 200/1/3 204/1/3
f 208/2/3 201/2/3 200/2/3
f 209/2/3 198/2/3 201/2/3
f 209/2/3 201/2/3 208/2/3
f 209/1/3 205/1/3 198/1/3
f 210/3/3 204/3/3 203/3/3
f 211/1/3 208/1/3 204/1/3
f 211/3/3 204/3/3 210/3/3
f 211/1/3 209/1/3 208/1/3
f 212/1/3 209/1/3 211/1/3
f 213/1/3 205/1/3 209/1/3
f 213/1/3 209/1/3 212/1/3
f 214/3/3 206/3/3 205/3/3
f 214/1/3 205/1/3 213/1/3
f 215/3/3 206/3/3 214/3/3
f 216/3/3 212/3/3 211/3/3
f 217/1/3 213/1/3 212/1/3
f 217/3/3 212/3/3 216/3/3
f 218/1/3 213/1/3 217/1/3
f 219/1/3 213/1/3 218/1/3
f 220/3/3 214/3/3 213/3/3
f 220/1/3 213/1/3 219/1/3
f 221/3/3 214/3/3 220/3/3
f 222/3/3 218/3/3 217/3/3
f 223/1/3 219/1/3 218/1/3
f 223/3/3 218/3/3 222/3/3
f 224/1/3 219/1/3 223/1/3
f 225/1/3 219/1/3 224/1/3
f 226/3/3 220/3/3 219/3/3
f 226/1/3 219/1/3 225/1/3
f 227/3/3 220/3/3 226/3/3
f 228/3/3 224/3/3 223/3/3
f 229/1/3 225/1/3 224/1/3
f 229/3/3 224/3/3 228/3/3
f 230/3/3 226/3/3 225/3/3
f 230/1/3 225/1/3 229/1/3
f 231/3/3 226/3/3 230/3/3
f 232/3/3 226/3/3 231/3/3
f 233/3/3 230/3/3 229/3/3
f 233/3/3 231/3/3 230/3/3
f 234/3/3 231/3/3 233/3/3
f 237/4/3 236/4/3 235/4/3
f 238/4/3 236/4/3 237/4/3
f 239/3/4 240/3/4 242/3/4
f 242/3/4 240/3/4 243/3/4
f 241/3/4 242/3/4 246/3/4
f 246/3/4 242/3/4 247/3/4
f 243/3/4 244/3/4 248/3/4
f 248/3/4 244/3/4 249/3/4
f 245/3/4 246/3/4 252/3/4
f 252/3/4 246/3/4 253/3/4
f 249/3/4 250/3/4 254/3/4
f 254/3/4 250/3/4 255/3/4
f 251/3/4 252/3/4 258/3/4
f 258/3/4 252/3/4 259/3/4
f 255/3/4 256/3/4 260/3/4
f 260/3/4 256/3/4 261/3/4
f 257/3/4 258/3/4 264/3/4
f 264/3/4 258/3/4 265/3/4
f 261/3/4 262/3/4 266/3/4
f 266/3/4 262/3/4 267/3/4
f 263/3/4 264/3/4 269/3/4
f 269/3/4 264/3/4 270/3/4
f 271/3/4 272/3/4 273/3/4
f 273/3/4 272/3/4 274/3/4
f 267/3/4 268/3/4 277/3/4
f 277/3/4 268/3/4 278/3/4
f 274/3/4 275/3/4 279/3/4
f 279/3/4 275/3/4 280/3/4
f 276/3/4 277/3/4 283/3/4
f 283/3/4 277/3/4 284/3/4
f 280/3/4 281/3/4 285/3/4
f 285/3/4 281/3/4 286/3/4
f 282/3/4 283/3/4 289/3/4
f 289/3/4 283/3/4 290/3/4
f 286/3/4 287/3/4 291/3/4
f 291/3/4 287/3/4 292/3/4
f 288/3/4 289/3/4 295/3/4
f 295/3/4 289/3/4 296/3/4
f 292/3/4 293/3/4 297/3/4
f 297/3/4 293/3/4 298/3/4
f 294/3/4 295/3/4 299/3/4
f 299/3/4 295/3/4 300/3/4
f 300/3/4 295/3/4 301/3/4
f 298/3/4 299/3/4 302/3/4
f 299/3/4 300/3/4 302/3/4
f 302/3/4 300/3/4 303/3/4
f 304/3/4 305/3/4 307/3/4
f 307/3/4 305/3/4 308/3/4
f 306/3/4 307/3/4 311/3/4
f 308/3/4 309/3/4 311/3/4
f 307/3/4 308/3/4 311/3/4
f 311/3/4 309/3/4 312/3/4
f 310/3/4 311/3/4 315/3/4
f 312/3/4 313/3/4 315/3/4
f 311/3/4 312/3/4 315/3/4
f 315/3/4 313/3/4 316/3/4
f 314/3/4 315/3/4 319/3/4
f 316/3/4 317/3/4 319/3/4
f 315/3/4 316/3/4 319/3/4
f 319/3/4 317/3/4 320/3/4
f 318/3/4 319/3/4 323/3/4
f 320/3/4 321/3/4 323/3/4
f 319/3/4 320/3/4 323/3/4
f 322/4/4 323/4/4 324/4/4
f 323/3/4 321/3/4 325/3/4
f 324/4/4 323/4/4 325/4/4
f 325/3/4 321/3/4 326/3/4
f 326/3/4 321/3/4 327/3/4
f 327/3/4 321/3/4 328/3/4
f 328/3/4 321/3/4 329/3/4
f 327/3/4 328/3/4 330/3/4
f 330/3/4 328/3/4 331/3/4
f 331/3/4 328/3/4 332/3/4
f 332/3/4 328/3/4 333/3/4
f 331/3/4 332/3/4 334/3/4
f 334/3/4 332/3/4 335/3/4
f 335/3/4 332/3/4 336/3/4
f 336/3/4 332/3/4 337/3/4
f 335/3/4 336/3/4 338/3/4
f 338/3/4 336/3/4 339/3/4
f 339/3/4 336/3/4 340/3/4
f 340/3/4 336/3/4 341/3/4
f 339/3/4 340/3/4 342/3/4
f 342/3/4 340/3/4 343/3/4
f 346/4/5 345/4/5 344/4/5
f 347/4/5 345/4/5 346/4/5
f 350/3/5 349/3/5 348/3/5
f 351/3/5 349/3/5 350/3/5
f 352/3/5 349/3/5 351/3/5
f 353/3/5 349/3/5 352/3/5
f 358/3/5 355/3/5 354/3/5
f 359/3/5 355/3/5 358/3/5
f 362/3/5 357/3/5 356/3/5
f 363/3/5 357/3/5 362/3/5
f 364/3/5 360/3/5 359/3/5
f 365/3/5 360/3/5 364/3/5
f 366/3/5 362/3/5 361/3/5
f 367/3/5 362/3/5 366/3/5
f 372/3/5 369/3/5 368/3/5
f 373/3/5 369/3/5 372/3/5
f 376/3/5 371/3/5 370/3/5
f 377/3/5 371/3/5 376/3/5
f 378/3/5 374/3/5 373/3/5
f 379/3/5 374/3/5 378/3/5
f 380/3/5 376/3/5 375/3/5
f 381/3/5 376/3/5 380/3/5
f 386/3/5 383/3/5 382/3/5
f 387/3/5 383/3/5 386/3/5
f 390/3/5 385/3/5 384/3/5
f 391/3/5 385/3/5 390/3/5
f 392/3/5 388/3/5 387/3/5
f 393/3/5 388/3/5 392/3/5
f 394/3/5 390/3/5 389/3/5
f 395/3/5 390/3/5 394/3/5
f 400/3/5 397/3/5 396/3/5
f 401/3/5 397/3/5 400/3/5
f 404/3/5 399/3/5 398/3/5
f 405/3/5 399/3/5 404/3/5
f 406/3/5 402/3/5 401/3/5
f 407/3/5 402/3/5 406/3/5
f 408/3/5 404/3/5 403/3/5
f 409/3/5 404/3/5 408/3/5
f 414/3/5 411/3/5 410/3/5
f 415/3/5 411/3/5 414/3/5
f 418/3/5 413/3/5 412/3/5
f 419/3/5 413/3/5 418/3/5
f 420/3/5 416/3/5 415/3/5
f 421/3/5 416/3/5 420/3/5
f 422/3/5 418/3/5 417/3/5
f 423/3/5 418/3/5 422/3/5
f 424/3/6 425/3/6 426/3/6
f 426/3/6 425/3/6 427/3/6
f 428/3/6 429/3/6 432/3/6
f 432/3/6 429/3/6 433/3/6
f 430/3/6 431/3/6 435/3/6
f 435/3/6 431/3/6 436/3/6
f 433/3/6 434/3/6 437/3/6
f 437/3/6 434/3/6 438/3/6
f 439/3/6 440/3/6 443/3/6
f 443/3/6 440/3/6 444/3/6
f 441/3/6 442/3/6 447/3/6
f 447/3/6 442/3/6 448/3/6
f 444/3/6 445/3/6 449/3/6
f 449/3/6 445/3/6 450/3/6
f 446/3/6 447/3/6 451/3/6
f 451/3/6 447/3/6 452/3/6
f 453/3/6 454/3/6 457/3/6
f 457/3/6 454/3/6 458/3/6
f 455/3/6 456/3/6 461/3/6
f 461/3/6 456/3/6 462/3/6
f 458/3/6 459/3/6 463/3/6
f 463/3/6 459/3/6 464/3/6
f 460/3/6 461/3/6 465/3/6
f 465/3/6 461/3/6 466/3/6
f 467/3/6 468/3/6 471/3/6
f 471/3/6 468/3/6 472/3/6
f 469/3/6 470/3/6 475/3/6
f 475/3/6 470/3/6 476/3/6
f 472/3/6 473/3/6 477/3/6
f 477/3/6 473/3/6 478/3/6
f 474/3/6 475/3/6 479/3/6
f 479/3/6 475/3/6 480/3/6
f 481/3/6 482/3/6 485/3/6
f 485/3/6 482/3/6 486/3/6
f 483/3/6 484/3/6 487/3/6
f 487/3/6 484/3/6 488/3/6
f 486/3/6 487/3/6 489/3/6
f 489/3/6 487/3/6 490/3/6
f 491/3/6 492/3/6 493/3/6
f 493/3/6 492/3/6 494/3/6
