# MagicaVoxel @ Ephtracy

# group
o 

# material
mtllib TESTOWANIE_VOXELA-7.mtl
usemtl palette

# normals
vn -1 0 0
vn 1 0 0
vn 0 0 1
vn 0 0 -1
vn 0 -1 0
vn 0 1 0

# texcoords
vt 0.193359 0.5
vt 0.275391 0.5
vt 0.486328 0.5
vt 0.978516 0.5

# verts
v -45.2 0.8 10
v -45.2 0.8 9.8
v -45.2 0.8 9.1
v -45.2 0.8 8.9
v -45.2 0.9 10.1
v -45.2 0.9 10
v -45.2 0.9 9.8
v -45.2 0.9 9.2
v -45.2 0.9 9.1
v -45.2 0.9 9
v -45.2 0.9 8.9
v -45.2 1 9.1
v -45.2 1 9
v -45.2 1.2 10.1
v -45.2 1.2 10
v -45.2 1.2 9.9
v -45.2 1.3 10
v -45.2 1.3 9.9
v -45.2 1.3 9.2
v -45.2 1.4 9.8
v -45.2 1.4 9.7
v -45.2 1.4 9.6
v -45.2 1.4 9.4
v -45.2 1.5 9.7
v -45.2 1.5 9.6
v -45.2 1.5 9.5
v -45.2 1.5 9.4
v -45.2 1.5 9.3
v -45.2 1.6 9.9
v -45.2 1.6 9.8
v -45.2 1.6 9.5
v -45.2 1.6 9.4
v -45.2 1.6 9.3
v -45.2 1.6 9.2
v -45.2 1.7 9.8
v -45.2 1.7 9.5
v -45.2 1.7 9.2
v -45.2 1.7 9.1
v -45.2 1.7 9
v -45.2 1.8 9
v -45.2 1.8 8.9
v -45.2 1.8 8.8
v -45.2 1.8 8.7
v -45.2 1.9 9.1
v -45.2 1.9 9
v -45.2 1.9 8.9
v -45.2 1.9 8.8
v -45.2 2 9
v -45.2 2 8.9
v -45.2 2.1 8.9
v -45.2 2.1 8.7
v -43.5 0.8 10
v -43.5 0.8 9.8
v -43.5 0.8 9.1
v -43.5 0.8 8.9
v -43.5 0.9 10.1
v -43.5 0.9 10
v -43.5 0.9 9.8
v -43.5 0.9 9.2
v -43.5 0.9 9.1
v -43.5 0.9 9
v -43.5 0.9 8.9
v -43.5 1 9.1
v -43.5 1 9
v -43.5 1.2 10.1
v -43.5 1.2 10
v -43.5 1.2 9.9
v -43.5 1.2 9.3
v -43.5 1.2 9.2
v -43.5 1.3 10
v -43.5 1.3 9.9
v -43.5 1.3 9.7
v -43.5 1.3 9.6
v -43.5 1.3 9.4
v -43.5 1.3 9.3
v -43.5 1.3 9.2
v -43.5 1.4 9.9
v -43.5 1.4 9.8
v -43.5 1.4 9.7
v -43.5 1.4 9.6
v -43.5 1.4 9.4
v -43.5 1.5 9.7
v -43.5 1.5 9.6
v -43.5 1.5 9.5
v -43.5 1.5 9.4
v -43.5 1.5 9.3
v -43.5 1.5 9.2
v -43.5 1.5 9.1
v -43.5 1.6 9.9
v -43.5 1.6 9.8
v -43.5 1.6 9.5
v -43.5 1.6 9.4
v -43.5 1.6 9.3
v -43.5 1.6 9.2
v -43.5 1.7 9.8
v -43.5 1.7 9.5
v -43.5 1.8 9.1
v -43.5 1.8 9
v -43.5 1.8 8.8
v -43.5 1.8 8.7
v -43.5 1.9 9.1
v -43.5 1.9 9
v -43.5 1.9 8.9
v -43.5 1.9 8.8
v -43.5 2 9
v -43.5 2 8.9
v -43.5 2 8.8
v -43.5 2.1 8.9
v -43.5 2.1 8.7
v -45.1 0.8 10
v -45.1 0.8 9.8
v -45.1 0.8 9.1
v -45.1 0.8 8.9
v -45.1 0.9 10.1
v -45.1 0.9 10
v -45.1 0.9 9.8
v -45.1 0.9 9.2
v -45.1 0.9 9.1
v -45.1 0.9 9
v -45.1 0.9 8.9
v -45.1 1 9.1
v -45.1 1 9
v -45.1 1.2 10.1
v -45.1 1.2 10
v -45.1 1.2 9.9
v -45.1 1.3 10
v -45.1 1.3 9.9
v -45.1 1.3 9.7
v -45.1 1.3 9.6
v -45.1 1.3 9.4
v -45.1 1.3 9.3
v -45.1 1.3 9.2
v -45.1 1.4 9.9
v -45.1 1.4 9.8
v -45.1 1.4 9.7
v -45.1 1.4 9.6
v -45.1 1.4 9.4
v -45.1 1.4 9.3
v -45.1 1.4 9.2
v -45.1 1.5 9.7
v -45.1 1.5 9.6
v -45.1 1.5 9.5
v -45.1 1.5 9.4
v -45.1 1.5 9.3
v -45.1 1.5 9.2
v -45.1 1.5 9.1
v -45.1 1.6 9.9
v -45.1 1.6 9.8
v -45.1 1.6 9.5
v -45.1 1.6 9.4
v -45.1 1.6 9.3
v -45.1 1.6 9.2
v -45.1 1.7 9.8
v -45.1 1.7 9.5
v -45.1 1.8 9.1
v -45.1 1.8 9
v -45.1 1.8 8.8
v -45.1 1.8 8.7
v -45.1 1.9 9.1
v -45.1 1.9 9
v -45.1 1.9 8.9
v -45.1 1.9 8.8
v -45.1 2 9
v -45.1 2 8.9
v -45.1 2 8.8
v -45.1 2.1 8.9
v -45.1 2.1 8.7
v -43.4 0.8 10
v -43.4 0.8 9.8
v -43.4 0.8 9.1
v -43.4 0.8 8.9
v -43.4 0.9 10.1
v -43.4 0.9 10
v -43.4 0.9 9.8
v -43.4 0.9 9.2
v -43.4 0.9 9.1
v -43.4 0.9 9
v -43.4 0.9 8.9
v -43.4 1 9.1
v -43.4 1 9
v -43.4 1.2 10.1
v -43.4 1.2 10
v -43.4 1.2 9.9
v -43.4 1.2 9.3
v -43.4 1.2 9.2
v -43.4 1.3 10
v -43.4 1.3 9.9
v -43.4 1.3 9.3
v -43.4 1.4 9.8
v -43.4 1.4 9.7
v -43.4 1.4 9.6
v -43.4 1.4 9.4
v -43.4 1.5 9.7
v -43.4 1.5 9.6
v -43.4 1.5 9.5
v -43.4 1.5 9.4
v -43.4 1.5 9.3
v -43.4 1.6 9.9
v -43.4 1.6 9.8
v -43.4 1.6 9.5
v -43.4 1.6 9.4
v -43.4 1.6 9.3
v -43.4 1.6 9.2
v -43.4 1.7 9.8
v -43.4 1.7 9.5
v -43.4 1.7 9.2
v -43.4 1.7 9.1
v -43.4 1.7 9
v -43.4 1.8 9
v -43.4 1.8 8.9
v -43.4 1.8 8.8
v -43.4 1.8 8.7
v -43.4 1.9 9.1
v -43.4 1.9 9
v -43.4 1.9 8.9
v -43.4 1.9 8.8
v -43.4 2 9
v -43.4 2 8.9
v -43.4 2.1 8.9
v -43.4 2.1 8.7
v -45.2 0.9 10.1
v -45.2 1.2 10.1
v -45.1 0.9 10.1
v -45.1 1.2 10.1
v -43.5 0.9 10.1
v -43.5 1.2 10.1
v -43.4 0.9 10.1
v -43.4 1.2 10.1
v -45.2 0.8 10
v -45.2 0.9 10
v -45.2 1.2 10
v -45.2 1.3 10
v -45.1 0.8 10
v -45.1 0.9 10
v -45.1 1.2 10
v -45.1 1.3 10
v -43.5 0.8 10
v -43.5 0.9 10
v -43.5 1.2 10
v -43.5 1.3 10
v -43.4 0.8 10
v -43.4 0.9 10
v -43.4 1.2 10
v -43.4 1.3 10
v -45.2 1.3 9.9
v -45.2 1.6 9.9
v -45.1 1.3 9.9
v -45.1 1.4 9.9
v -45.1 1.6 9.9
v -45 1.3 9.9
v -45 1.4 9.9
v -44.7 1.3 9.9
v -44.7 1.4 9.9
v -44.1 1.3 9.9
v -44.1 1.4 9.9
v -44 1.3 9.9
v -44 1.4 9.9
v -43.9 1.3 9.9
v -43.9 1.4 9.9
v -43.6 1.3 9.9
v -43.6 1.4 9.9
v -43.5 1.3 9.9
v -43.5 1.4 9.9
v -43.5 1.6 9.9
v -43.4 1.3 9.9
v -43.4 1.6 9.9
v -45.2 1.6 9.8
v -45.2 1.7 9.8
v -45.1 1.6 9.8
v -45.1 1.7 9.8
v -43.5 1.6 9.8
v -43.5 1.7 9.8
v -43.4 1.6 9.8
v -43.4 1.7 9.8
v -45.2 1.4 9.7
v -45.2 1.5 9.7
v -45.1 1.4 9.7
v -45.1 1.5 9.7
v -43.5 1.4 9.7
v -43.5 1.5 9.7
v -43.4 1.4 9.7
v -43.4 1.5 9.7
v -45.1 1.3 9.6
v -45.1 1.4 9.6
v -43.9 1.3 9.6
v -43.9 1.4 9.6
v -43.8 1.3 9.6
v -43.8 1.4 9.6
v -43.5 1.3 9.6
v -43.5 1.4 9.6
v -45.2 1.5 9.5
v -45.2 1.6 9.5
v -45.1 1.5 9.5
v -45.1 1.6 9.5
v -43.5 1.5 9.5
v -43.5 1.6 9.5
v -43.4 1.5 9.5
v -43.4 1.6 9.5
v -45.2 1.4 9.4
v -45.2 1.5 9.4
v -45.1 1.4 9.4
v -45.1 1.5 9.4
v -43.5 1.4 9.4
v -43.5 1.5 9.4
v -43.4 1.4 9.4
v -43.4 1.5 9.4
v -45.2 1.5 9.3
v -45.2 1.6 9.3
v -45.1 1.3 9.3
v -45.1 1.4 9.3
v -45.1 1.5 9.3
v -45.1 1.6 9.3
v -44.7 1.4 9.3
v -44.7 1.5 9.3
v -44.4 1.3 9.3
v -44.4 1.4 9.3
v -43.9 1.4 9.3
v -43.9 1.5 9.3
v -43.8 1.3 9.3
v -43.8 1.4 9.3
v -43.7 1.3 9.3
v -43.7 1.4 9.3
v -43.5 1.2 9.3
v -43.5 1.3 9.3
v -43.5 1.5 9.3
v -43.5 1.6 9.3
v -43.4 1.2 9.3
v -43.4 1.3 9.3
v -43.4 1.5 9.3
v -43.4 1.6 9.3
v -45.2 0.9 9.2
v -45.2 1.3 9.2
v -45.2 1.6 9.2
v -45.2 1.7 9.2
v -45.1 0.9 9.2
v -45.1 1.3 9.2
v -45.1 1.5 9.2
v -45.1 1.6 9.2
v -45.1 1.7 9.2
v -44.7 1.5 9.2
v -44.6 1.5 9.2
v -44.6 1.6 9.2
v -44.5 1.5 9.2
v -44.5 1.7 9.2
v -44.1 1.5 9.2
v -44.1 1.6 9.2
v -44 1.5 9.2
v -44 1.6 9.2
v -44 1.7 9.2
v -43.9 1.5 9.2
v -43.9 1.6 9.2
v -43.9 1.7 9.2
v -43.5 0.9 9.2
v -43.5 1.2 9.2
v -43.5 1.5 9.2
v -43.5 1.6 9.2
v -43.5 1.7 9.2
v -43.4 0.9 9.2
v -43.4 1.2 9.2
v -43.4 1.6 9.2
v -43.4 1.7 9.2
v -45.2 0.8 9.1
v -45.2 0.9 9.1
v -45.2 1.7 9.1
v -45.2 1.9 9.1
v -45.1 0.8 9.1
v -45.1 0.9 9.1
v -45.1 1.7 9.1
v -45.1 1.8 9.1
v -45.1 1.9 9.1
v -44.5 1.7 9.1
v -44.4 1.7 9.1
v -44.4 1.8 9.1
v -44 1.7 9.1
v -44 1.8 9.1
v -43.9 1.7 9.1
v -43.9 1.8 9.1
v -43.5 0.8 9.1
v -43.5 0.9 9.1
v -43.5 1.7 9.1
v -43.5 1.8 9.1
v -43.5 1.9 9.1
v -43.4 0.8 9.1
v -43.4 0.9 9.1
v -43.4 1.7 9.1
v -43.4 1.9 9.1
v -45.2 1.9 9
v -45.2 2 9
v -45.1 1.8 9
v -45.1 1.9 9
v -45.1 2 9
v -44.5 1.8 9
v -44.5 1.9 9
v -44.4 1.8 9
v -44.3 1.8 9
v -44.3 1.9 9
v -44.1 1.8 9
v -44.1 1.9 9
v -44 1.8 9
v -43.9 1.8 9
v -43.7 1.8 9
v -43.7 1.9 9
v -43.5 1.8 9
v -43.5 1.9 9
v -43.5 2 9
v -43.4 1.9 9
v -43.4 2 9
v -45.2 2 8.9
v -45.2 2.1 8.9
v -45.1 1.9 8.9
v -45.1 2 8.9
v -45.1 2.1 8.9
v -44.5 1.9 8.9
v -44.3 1.9 8.9
v -44.1 1.9 8.9
v -43.7 1.9 8.9
v -43.5 1.9 8.9
v -43.5 2 8.9
v -43.5 2.1 8.9
v -43.4 2 8.9
v -43.4 2.1 8.9
v -45.2 1.8 8.8
v -45.2 1.9 8.8
v -45.1 1.8 8.8
v -45.1 1.9 8.8
v -43.5 1.8 8.8
v -43.5 1.9 8.8
v -43.4 1.8 8.8
v -43.4 1.9 8.8
v -45.2 0.9 10
v -45.2 1.2 10
v -45.1 0.9 10
v -45.1 1.2 10
v -43.5 0.9 10
v -43.5 1.2 10
v -43.4 0.9 10
v -43.4 1.2 10
v -45.2 1.2 9.9
v -45.2 1.3 9.9
v -45.1 1.2 9.9
v -45.1 1.3 9.9
v -43.5 1.2 9.9
v -43.5 1.3 9.9
v -43.4 1.2 9.9
v -43.4 1.3 9.9
v -45.2 0.8 9.8
v -45.2 0.9 9.8
v -45.2 1.4 9.8
v -45.2 1.6 9.8
v -45.1 0.8 9.8
v -45.1 0.9 9.8
v -45.1 1.4 9.8
v -45.1 1.6 9.8
v -43.5 0.8 9.8
v -43.5 0.9 9.8
v -43.5 1.4 9.8
v -43.5 1.6 9.8
v -43.4 0.8 9.8
v -43.4 0.9 9.8
v -43.4 1.4 9.8
v -43.4 1.6 9.8
v -45.1 1.3 9.7
v -45.1 1.4 9.7
v -44 1.3 9.7
v -44 1.4 9.7
v -43.9 1.3 9.7
v -43.9 1.4 9.7
v -43.5 1.3 9.7
v -43.5 1.4 9.7
v -45.2 1.4 9.6
v -45.2 1.5 9.6
v -45.1 1.4 9.6
v -45.1 1.5 9.6
v -43.5 1.4 9.6
v -43.5 1.5 9.6
v -43.4 1.4 9.6
v -43.4 1.5 9.6
v -45.2 1.6 9.5
v -45.2 1.7 9.5
v -45.1 1.6 9.5
v -45.1 1.7 9.5
v -43.5 1.6 9.5
v -43.5 1.7 9.5
v -43.4 1.6 9.5
v -43.4 1.7 9.5
v -45.2 1.5 9.4
v -45.2 1.6 9.4
v -45.1 1.3 9.4
v -45.1 1.4 9.4
v -45.1 1.5 9.4
v -45.1 1.6 9.4
v -43.5 1.3 9.4
v -43.5 1.4 9.4
v -43.5 1.5 9.4
v -43.5 1.6 9.4
v -43.4 1.5 9.4
v -43.4 1.6 9.4
v -45.1 1.3 9.2
v -45.1 1.4 9.2
v -45.1 1.5 9.2
v -44.7 1.4 9.2
v -44.7 1.5 9.2
v -44.6 1.5 9.2
v -44.5 1.5 9.2
v -44.4 1.3 9.2
v -44.4 1.4 9.2
v -44.1 1.5 9.2
v -44 1.5 9.2
v -43.9 1.4 9.2
v -43.9 1.5 9.2
v -43.8 1.3 9.2
v -43.8 1.4 9.2
v -43.7 1.3 9.2
v -43.7 1.4 9.2
v -43.5 1.3 9.2
v -43.5 1.5 9.2
v -45.2 1 9.1
v -45.2 1.7 9.1
v -45.1 1 9.1
v -45.1 1.5 9.1
v -45.1 1.6 9.1
v -45.1 1.7 9.1
v -44.6 1.5 9.1
v -44.6 1.6 9.1
v -44.5 1.5 9.1
v -44.5 1.7 9.1
v -44.4 1.7 9.1
v -44.1 1.5 9.1
v -44.1 1.6 9.1
v -44 1.5 9.1
v -44 1.6 9.1
v -44 1.7 9.1
v -43.9 1.6 9.1
v -43.9 1.7 9.1
v -43.5 1 9.1
v -43.5 1.5 9.1
v -43.5 1.7 9.1
v -43.4 1 9.1
v -43.4 1.7 9.1
v -45.2 0.9 9
v -45.2 1 9
v -45.2 1.7 9
v -45.2 1.8 9
v -45.1 0.9 9
v -45.1 1 9
v -45.1 1.7 9
v -45.1 1.8 9
v -44.5 1.8 9
v -44.4 1.7 9
v -44.4 1.8 9
v -44.3 1.8 9
v -44.1 1.8 9
v -44 1.7 9
v -44 1.8 9
v -43.9 1.7 9
v -43.9 1.8 9
v -43.7 1.8 9
v -43.5 0.9 9
v -43.5 1 9
v -43.5 1.7 9
v -43.5 1.8 9
v -43.4 0.9 9
v -43.4 1 9
v -43.4 1.7 9
v -43.4 1.8 9
v -45.2 0.8 8.9
v -45.2 0.9 8.9
v -45.2 1.8 8.9
v -45.2 1.9 8.9
v -45.1 0.8 8.9
v -45.1 0.9 8.9
v -45.1 1.8 8.9
v -45.1 1.9 8.9
v -44.5 1.8 8.9
v -44.5 1.9 8.9
v -44.3 1.8 8.9
v -44.3 1.9 8.9
v -44.1 1.8 8.9
v -44.1 1.9 8.9
v -43.7 1.8 8.9
v -43.7 1.9 8.9
v -43.5 0.8 8.9
v -43.5 0.9 8.9
v -43.5 1.8 8.9
v -43.5 1.9 8.9
v -43.4 0.8 8.9
v -43.4 0.9 8.9
v -43.4 1.8 8.9
v -43.4 1.9 8.9
v -45.1 1.9 8.8
v -45.1 2 8.8
v -43.5 1.9 8.8
v -43.5 2 8.8
v -45.2 1.8 8.7
v -45.2 2.1 8.7
v -45.1 1.8 8.7
v -45.1 2.1 8.7
v -43.5 1.8 8.7
v -43.5 2.1 8.7
v -43.4 1.8 8.7
v -43.4 2.1 8.7
v -45.2 0.8 10
v -45.1 0.8 10
v -43.5 0.8 10
v -43.4 0.8 10
v -45.2 0.8 9.8
v -45.1 0.8 9.8
v -43.5 0.8 9.8
v -43.4 0.8 9.8
v -45.2 0.8 9.1
v -45.1 0.8 9.1
v -43.5 0.8 9.1
v -43.4 0.8 9.1
v -45.2 0.8 8.9
v -45.1 0.8 8.9
v -43.5 0.8 8.9
v -43.4 0.8 8.9
v -45.2 0.9 10.1
v -45.1 0.9 10.1
v -43.5 0.9 10.1
v -43.4 0.9 10.1
v -45.2 0.9 10
v -45.1 0.9 10
v -43.5 0.9 10
v -43.4 0.9 10
v -45.2 0.9 9.2
v -45.1 0.9 9.2
v -43.5 0.9 9.2
v -43.4 0.9 9.2
v -45.2 0.9 9.1
v -45.1 0.9 9.1
v -43.5 0.9 9.1
v -43.4 0.9 9.1
v -45.2 1.2 10
v -45.1 1.2 10
v -43.5 1.2 10
v -43.4 1.2 10
v -45.2 1.2 9.9
v -45.1 1.2 9.9
v -43.5 1.2 9.9
v -43.4 1.2 9.9
v -43.5 1.2 9.3
v -43.4 1.2 9.3
v -43.5 1.2 9.2
v -43.4 1.2 9.2
v -45.2 1.3 9.9
v -45.1 1.3 9.9
v -45 1.3 9.9
v -44.7 1.3 9.9
v -44.1 1.3 9.9
v -44 1.3 9.9
v -43.9 1.3 9.9
v -43.6 1.3 9.9
v -43.5 1.3 9.9
v -43.4 1.3 9.9
v -45 1.3 9.8
v -44.7 1.3 9.8
v -44.1 1.3 9.8
v -44 1.3 9.8
v -43.9 1.3 9.8
v -43.6 1.3 9.8
v -45.1 1.3 9.7
v -44 1.3 9.7
v -43.9 1.3 9.7
v -43.5 1.3 9.7
v -45.1 1.3 9.6
v -43.9 1.3 9.6
v -43.8 1.3 9.6
v -43.5 1.3 9.6
v -43.9 1.3 9.5
v -43.8 1.3 9.5
v -45.1 1.3 9.4
v -43.5 1.3 9.4
v -45.1 1.3 9.3
v -44.4 1.3 9.3
v -43.8 1.3 9.3
v -43.7 1.3 9.3
v -43.5 1.3 9.3
v -43.4 1.3 9.3
v -45.2 1.3 9.2
v -45.1 1.3 9.2
v -44.4 1.3 9.2
v -43.8 1.3 9.2
v -43.7 1.3 9.2
v -43.5 1.3 9.2
v -45.2 1.5 9.5
v -45.1 1.5 9.5
v -43.5 1.5 9.5
v -43.4 1.5 9.5
v -45.2 1.5 9.4
v -45.1 1.5 9.4
v -43.5 1.5 9.4
v -43.4 1.5 9.4
v -45.1 1.5 9.2
v -44.7 1.5 9.2
v -44.6 1.5 9.2
v -44.5 1.5 9.2
v -44.1 1.5 9.2
v -44 1.5 9.2
v -43.9 1.5 9.2
v -43.5 1.5 9.2
v -45.1 1.5 9.1
v -44.6 1.5 9.1
v -44.5 1.5 9.1
v -44.1 1.5 9.1
v -44 1.5 9.1
v -43.5 1.5 9.1
v -45.2 1.6 9.8
v -45.1 1.6 9.8
v -43.5 1.6 9.8
v -43.4 1.6 9.8
v -45.2 1.6 9.5
v -45.1 1.6 9.5
v -43.5 1.6 9.5
v -43.4 1.6 9.5
v -45.2 1.7 9.1
v -45.1 1.7 9.1
v -44.5 1.7 9.1
v -44.4 1.7 9.1
v -44 1.7 9.1
v -43.9 1.7 9.1
v -43.5 1.7 9.1
v -43.4 1.7 9.1
v -45.2 1.7 9
v -45.1 1.7 9
v -44.4 1.7 9
v -44 1.7 9
v -43.9 1.7 9
v -43.5 1.7 9
v -43.4 1.7 9
v -45.2 1.8 9
v -45.1 1.8 9
v -44.5 1.8 9
v -44.4 1.8 9
v -44.3 1.8 9
v -44.1 1.8 9
v -44 1.8 9
v -43.9 1.8 9
v -43.7 1.8 9
v -43.5 1.8 9
v -43.4 1.8 9
v -45.2 1.8 8.9
v -45.1 1.8 8.9
v -44.5 1.8 8.9
v -44.3 1.8 8.9
v -44.1 1.8 8.9
v -43.7 1.8 8.9
v -43.5 1.8 8.9
v -43.4 1.8 8.9
v -45.2 1.8 8.8
v -45.1 1.8 8.8
v -43.5 1.8 8.8
v -43.4 1.8 8.8
v -45.2 1.8 8.7
v -45.1 1.8 8.7
v -43.5 1.8 8.7
v -43.4 1.8 8.7
v -45.2 1.9 8.9
v -45.1 1.9 8.9
v -44.5 1.9 8.9
v -44.3 1.9 8.9
v -44.1 1.9 8.9
v -43.7 1.9 8.9
v -43.5 1.9 8.9
v -43.4 1.9 8.9
v -45.2 1.9 8.8
v -45.1 1.9 8.8
v -43.5 1.9 8.8
v -43.4 1.9 8.8
v -45.2 0.9 10
v -45.1 0.9 10
v -43.5 0.9 10
v -43.4 0.9 10
v -45.2 0.9 9.8
v -45.1 0.9 9.8
v -43.5 0.9 9.8
v -43.4 0.9 9.8
v -45.2 0.9 9
v -45.1 0.9 9
v -43.5 0.9 9
v -43.4 0.9 9
v -45.2 0.9 8.9
v -45.1 0.9 8.9
v -43.5 0.9 8.9
v -43.4 0.9 8.9
v -45.2 1 9.1
v -45.1 1 9.1
v -43.5 1 9.1
v -43.4 1 9.1
v -45.2 1 9
v -45.1 1 9
v -43.5 1 9
v -43.4 1 9
v -45.2 1.2 10.1
v -45.1 1.2 10.1
v -43.5 1.2 10.1
v -43.4 1.2 10.1
v -45.2 1.2 10
v -45.1 1.2 10
v -43.5 1.2 10
v -43.4 1.2 10
v -45.2 1.3 10
v -45.1 1.3 10
v -43.5 1.3 10
v -43.4 1.3 10
v -45.2 1.3 9.9
v -45.1 1.3 9.9
v -43.5 1.3 9.9
v -43.4 1.3 9.9
v -45.1 1.4 9.9
v -45 1.4 9.9
v -44.7 1.4 9.9
v -44.1 1.4 9.9
v -44 1.4 9.9
v -43.9 1.4 9.9
v -43.6 1.4 9.9
v -43.5 1.4 9.9
v -45.2 1.4 9.8
v -45.1 1.4 9.8
v -45 1.4 9.8
v -44.7 1.4 9.8
v -44.1 1.4 9.8
v -44 1.4 9.8
v -43.9 1.4 9.8
v -43.6 1.4 9.8
v -43.5 1.4 9.8
v -43.4 1.4 9.8
v -45.2 1.4 9.7
v -45.1 1.4 9.7
v -44 1.4 9.7
v -43.9 1.4 9.7
v -43.5 1.4 9.7
v -43.4 1.4 9.7
v -45.2 1.4 9.6
v -45.1 1.4 9.6
v -43.9 1.4 9.6
v -43.8 1.4 9.6
v -43.5 1.4 9.6
v -43.4 1.4 9.6
v -43.9 1.4 9.5
v -43.8 1.4 9.5
v -45.2 1.4 9.4
v -45.1 1.4 9.4
v -43.5 1.4 9.4
v -43.4 1.4 9.4
v -45.2 1.5 9.7
v -45.1 1.5 9.7
v -43.5 1.5 9.7
v -43.4 1.5 9.7
v -45.2 1.5 9.6
v -45.1 1.5 9.6
v -43.5 1.5 9.6
v -43.4 1.5 9.6
v -45.2 1.5 9.4
v -45.1 1.5 9.4
v -43.5 1.5 9.4
v -43.4 1.5 9.4
v -45.2 1.5 9.3
v -45.1 1.5 9.3
v -44.7 1.5 9.3
v -43.9 1.5 9.3
v -43.5 1.5 9.3
v -43.4 1.5 9.3
v -45.1 1.5 9.2
v -44.7 1.5 9.2
v -44.6 1.5 9.2
v -44.5 1.5 9.2
v -44.1 1.5 9.2
v -44 1.5 9.2
v -43.9 1.5 9.2
v -43.5 1.5 9.2
v -45.2 1.6 9.9
v -45.1 1.6 9.9
v -43.5 1.6 9.9
v -43.4 1.6 9.9
v -45.2 1.6 9.8
v -45.1 1.6 9.8
v -43.5 1.6 9.8
v -43.4 1.6 9.8
v -45.2 1.6 9.5
v -45.1 1.6 9.5
v -43.5 1.6 9.5
v -43.4 1.6 9.5
v -45.2 1.6 9.4
v -45.1 1.6 9.4
v -43.5 1.6 9.4
v -43.4 1.6 9.4
v -45.2 1.6 9.3
v -45.1 1.6 9.3
v -43.5 1.6 9.3
v -43.4 1.6 9.3
v -45.2 1.6 9.2
v -45.1 1.6 9.2
v -43.5 1.6 9.2
v -43.4 1.6 9.2
v -45.2 1.7 9.8
v -45.1 1.7 9.8
v -43.5 1.7 9.8
v -43.4 1.7 9.8
v -45.2 1.7 9.5
v -45.1 1.7 9.5
v -43.5 1.7 9.5
v -43.4 1.7 9.5
v -45.2 1.7 9.2
v -45.1 1.7 9.2
v -44.5 1.7 9.2
v -44 1.7 9.2
v -43.9 1.7 9.2
v -43.5 1.7 9.2
v -43.4 1.7 9.2
v -45.2 1.7 9.1
v -45.1 1.7 9.1
v -44.5 1.7 9.1
v -44.4 1.7 9.1
v -44 1.7 9.1
v -43.9 1.7 9.1
v -43.5 1.7 9.1
v -43.4 1.7 9.1
v -45.1 1.8 9.1
v -44.4 1.8 9.1
v -44 1.8 9.1
v -43.9 1.8 9.1
v -43.5 1.8 9.1
v -45.1 1.8 9
v -44.5 1.8 9
v -44.4 1.8 9
v -44.3 1.8 9
v -44.1 1.8 9
v -44 1.8 9
v -43.9 1.8 9
v -43.7 1.8 9
v -43.5 1.8 9
v -45.2 1.9 9.1
v -45.1 1.9 9.1
v -43.5 1.9 9.1
v -43.4 1.9 9.1
v -45.2 1.9 9
v -45.1 1.9 9
v -44.5 1.9 9
v -44.3 1.9 9
v -44.1 1.9 9
v -43.7 1.9 9
v -43.5 1.9 9
v -43.4 1.9 9
v -45.1 1.9 8.9
v -44.5 1.9 8.9
v -44.3 1.9 8.9
v -44.1 1.9 8.9
v -43.7 1.9 8.9
v -43.5 1.9 8.9
v -45.2 2 9
v -45.1 2 9
v -43.5 2 9
v -43.4 2 9
v -45.2 2 8.9
v -45.1 2 8.9
v -43.5 2 8.9
v -43.4 2 8.9
v -45.1 2 8.8
v -43.5 2 8.8
v -45.2 2.1 8.9
v -45.1 2.1 8.9
v -43.5 2.1 8.9
v -43.4 2.1 8.9
v -45.2 2.1 8.7
v -45.1 2.1 8.7
v -43.5 2.1 8.7
v -43.4 2.1 8.7

# faces
f 6/4/1 2/4/1 1/4/1
f 7/4/1 2/4/1 6/4/1
f 9/4/1 4/4/1 3/4/1
f 10/4/1 4/4/1 9/4/1
f 11/4/1 4/4/1 10/4/1
f 12/4/1 9/4/1 8/4/1
f 12/4/1 10/4/1 9/4/1
f 13/4/1 10/4/1 12/4/1
f 14/4/1 6/4/1 5/4/1
f 15/4/1 6/4/1 14/4/1
f 17/4/1 16/4/1 15/4/1
f 18/4/1 16/4/1 17/4/1
f 19/4/1 12/4/1 8/4/1
f 20/4/1 19/4/1 18/4/1
f 21/4/1 19/4/1 20/4/1
f 22/4/1 19/4/1 21/4/1
f 23/4/1 19/4/1 22/4/1
f 24/4/1 22/4/1 21/4/1
f 25/4/1 22/4/1 24/4/1
f 27/4/1 19/4/1 23/4/1
f 28/4/1 19/4/1 27/4/1
f 29/4/1 20/4/1 18/4/1
f 30/4/1 20/4/1 29/4/1
f 31/4/1 27/4/1 26/4/1
f 32/4/1 27/4/1 31/4/1
f 33/4/1 19/4/1 28/4/1
f 34/4/1 12/4/1 19/4/1
f 34/4/1 19/4/1 33/4/1
f 35/4/1 31/4/1 30/4/1
f 36/4/1 31/4/1 35/4/1
f 37/4/1 12/4/1 34/4/1
f 38/4/1 12/4/1 37/4/1
f 40/4/1 39/4/1 38/4/1
f 44/4/1 41/4/1 40/4/1
f 44/4/1 40/4/1 38/4/1
f 45/4/1 41/4/1 44/4/1
f 46/4/1 41/4/1 45/4/1
f 47/4/1 43/4/1 42/4/1
f 48/4/1 46/4/1 45/4/1
f 48/4/1 47/4/1 46/4/1
f 49/4/1 47/4/1 48/4/1
f 50/4/1 47/4/1 49/4/1
f 51/4/1 43/4/1 47/4/1
f 51/4/1 47/4/1 50/4/1
f 57/4/1 53/4/1 52/4/1
f 58/4/1 53/4/1 57/4/1
f 60/4/1 55/4/1 54/4/1
f 61/4/1 55/4/1 60/4/1
f 62/4/1 55/4/1 61/4/1
f 63/4/1 60/4/1 59/4/1
f 63/4/1 61/4/1 60/4/1
f 64/4/1 61/4/1 63/4/1
f 65/4/1 57/4/1 56/4/1
f 66/4/1 57/4/1 65/4/1
f 69/4/1 63/4/1 59/4/1
f 70/4/1 67/4/1 66/4/1
f 71/4/1 67/4/1 70/4/1
f 75/4/1 69/4/1 68/4/1
f 76/4/1 63/4/1 69/4/1
f 76/4/1 69/4/1 75/4/1
f 79/4/1 73/4/1 72/4/1
f 80/4/1 73/4/1 79/4/1
f 81/4/1 75/4/1 74/4/1
f 82/4/1 80/4/1 79/4/1
f 83/4/1 80/4/1 82/4/1
f 85/4/1 75/4/1 81/4/1
f 86/4/1 75/4/1 85/4/1
f 87/4/1 63/4/1 76/4/1
f 88/4/1 63/4/1 87/4/1
f 89/4/1 78/4/1 77/4/1
f 90/4/1 78/4/1 89/4/1
f 91/4/1 85/4/1 84/4/1
f 92/4/1 85/4/1 91/4/1
f 93/4/1 87/4/1 86/4/1
f 94/4/1 87/4/1 93/4/1
f 95/4/1 91/4/1 90/4/1
f 96/4/1 91/4/1 95/4/1
f 101/4/1 98/4/1 97/4/1
f 102/4/1 98/4/1 101/4/1
f 104/4/1 100/4/1 99/4/1
f 105/4/1 103/4/1 102/4/1
f 106/4/1 103/4/1 105/4/1
f 107/4/1 100/4/1 104/4/1
f 108/4/1 107/4/1 106/4/1
f 109/4/1 100/4/1 107/4/1
f 109/4/1 107/4/1 108/4/1
f 110/4/2 111/4/2 115/4/2
f 115/4/2 111/4/2 116/4/2
f 112/4/2 113/4/2 118/4/2
f 118/4/2 113/4/2 119/4/2
f 119/4/2 113/4/2 120/4/2
f 117/4/2 118/4/2 121/4/2
f 118/4/2 119/4/2 121/4/2
f 121/4/2 119/4/2 122/4/2
f 114/4/2 115/4/2 123/4/2
f 123/4/2 115/4/2 124/4/2
f 124/4/2 125/4/2 126/4/2
f 126/4/2 125/4/2 127/4/2
f 117/4/2 121/4/2 132/4/2
f 128/4/2 129/4/2 135/4/2
f 135/4/2 129/4/2 136/4/2
f 130/4/2 131/4/2 137/4/2
f 137/4/2 131/4/2 138/4/2
f 132/4/2 121/4/2 139/4/2
f 135/4/2 136/4/2 140/4/2
f 140/4/2 136/4/2 141/4/2
f 137/4/2 138/4/2 143/4/2
f 143/4/2 138/4/2 144/4/2
f 139/4/2 121/4/2 145/4/2
f 145/4/2 121/4/2 146/4/2
f 133/4/2 134/4/2 147/4/2
f 147/4/2 134/4/2 148/4/2
f 142/4/2 143/4/2 149/4/2
f 149/4/2 143/4/2 150/4/2
f 144/4/2 145/4/2 151/4/2
f 151/4/2 145/4/2 152/4/2
f 148/4/2 149/4/2 153/4/2
f 153/4/2 149/4/2 154/4/2
f 155/4/2 156/4/2 159/4/2
f 159/4/2 156/4/2 160/4/2
f 157/4/2 158/4/2 162/4/2
f 160/4/2 161/4/2 163/4/2
f 163/4/2 161/4/2 164/4/2
f 162/4/2 158/4/2 165/4/2
f 164/4/2 165/4/2 166/4/2
f 165/4/2 158/4/2 167/4/2
f 166/4/2 165/4/2 167/4/2
f 168/4/2 169/4/2 173/4/2
f 173/4/2 169/4/2 174/4/2
f 170/4/2 171/4/2 176/4/2
f 176/4/2 171/4/2 177/4/2
f 177/4/2 171/4/2 178/4/2
f 175/4/2 176/4/2 179/4/2
f 176/4/2 177/4/2 179/4/2
f 179/4/2 177/4/2 180/4/2
f 172/4/2 173/4/2 181/4/2
f 181/4/2 173/4/2 182/4/2
f 175/4/2 179/4/2 185/4/2
f 182/4/2 183/4/2 186/4/2
f 186/4/2 183/4/2 187/4/2
f 184/4/2 185/4/2 188/4/2
f 187/4/2 188/4/2 189/4/2
f 189/4/2 188/4/2 190/4/2
f 190/4/2 188/4/2 191/4/2
f 191/4/2 188/4/2 192/4/2
f 190/4/2 191/4/2 193/4/2
f 193/4/2 191/4/2 194/4/2
f 192/4/2 188/4/2 196/4/2
f 188/4/2 185/4/2 197/4/2
f 196/4/2 188/4/2 197/4/2
f 187/4/2 189/4/2 198/4/2
f 198/4/2 189/4/2 199/4/2
f 195/4/2 196/4/2 200/4/2
f 200/4/2 196/4/2 201/4/2
f 197/4/2 185/4/2 202/4/2
f 185/4/2 179/4/2 203/4/2
f 202/4/2 185/4/2 203/4/2
f 199/4/2 200/4/2 204/4/2
f 204/4/2 200/4/2 205/4/2
f 203/4/2 179/4/2 206/4/2
f 206/4/2 179/4/2 207/4/2
f 207/4/2 208/4/2 209/4/2
f 209/4/2 210/4/2 213/4/2
f 207/4/2 209/4/2 213/4/2
f 213/4/2 210/4/2 214/4/2
f 214/4/2 210/4/2 215/4/2
f 211/4/2 212/4/2 216/4/2
f 214/4/2 215/4/2 217/4/2
f 215/4/2 216/4/2 217/4/2
f 217/4/2 216/4/2 218/4/2
f 218/4/2 216/4/2 219/4/2
f 216/4/2 212/4/2 220/4/2
f 219/4/2 216/4/2 220/4/2
f 223/4/3 222/4/3 221/4/3
f 224/4/3 222/4/3 223/4/3
f 227/4/3 226/4/3 225/4/3
f 228/4/3 226/4/3 227/4/3
f 233/4/3 230/4/3 229/4/3
f 234/4/3 230/4/3 233/4/3
f 235/4/3 232/4/3 231/4/3
f 236/4/3 232/4/3 235/4/3
f 241/4/3 238/4/3 237/4/3
f 242/4/3 238/4/3 241/4/3
f 243/4/3 240/4/3 239/4/3
f 244/4/3 240/4/3 243/4/3
f 247/4/3 246/4/3 245/4/3
f 248/4/3 246/4/3 247/4/3
f 249/4/3 246/4/3 248/4/3
f 250/1/3 248/1/3 247/1/3
f 251/1/3 248/1/3 250/1/3
f 252/3/3 251/3/3 250/3/3
f 253/3/3 251/3/3 252/3/3
f 254/1/3 253/1/3 252/1/3
f 255/1/3 253/1/3 254/1/3
f 256/3/3 255/3/3 254/3/3
f 257/3/3 255/3/3 256/3/3
f 258/1/3 257/1/3 256/1/3
f 259/1/3 257/1/3 258/1/3
f 260/3/3 259/3/3 258/3/3
f 261/3/3 259/3/3 260/3/3
f 262/1/3 261/1/3 260/1/3
f 263/1/3 261/1/3 262/1/3
f 265/4/3 263/4/3 262/4/3
f 265/4/3 264/4/3 263/4/3
f 266/4/3 264/4/3 265/4/3
f 269/4/3 268/4/3 267/4/3
f 270/4/3 268/4/3 269/4/3
f 273/4/3 272/4/3 271/4/3
f 274/4/3 272/4/3 273/4/3
f 277/4/3 276/4/3 275/4/3
f 278/4/3 276/4/3 277/4/3
f 281/4/3 280/4/3 279/4/3
f 282/4/3 280/4/3 281/4/3
f 285/1/3 284/1/3 283/1/3
f 286/1/3 284/1/3 285/1/3
f 287/3/3 286/3/3 285/3/3
f 288/3/3 286/3/3 287/3/3
f 289/1/3 288/1/3 287/1/3
f 290/1/3 288/1/3 289/1/3
f 293/4/3 292/4/3 291/4/3
f 294/4/3 292/4/3 293/4/3
f 297/4/3 296/4/3 295/4/3
f 298/4/3 296/4/3 297/4/3
f 301/4/3 300/4/3 299/4/3
f 302/4/3 300/4/3 301/4/3
f 305/4/3 304/4/3 303/4/3
f 306/4/3 304/4/3 305/4/3
f 311/4/3 308/4/3 307/4/3
f 312/4/3 308/4/3 311/4/3
f 313/3/3 310/3/3 309/3/3
f 313/1/3 311/1/3 310/1/3
f 314/1/3 311/1/3 313/1/3
f 315/3/3 313/3/3 309/3/3
f 315/3/3 314/3/3 313/3/3
f 316/3/3 314/3/3 315/3/3
f 317/1/3 316/1/3 315/1/3
f 317/3/3 314/3/3 316/3/3
f 318/3/3 314/3/3 317/3/3
f 319/1/3 317/1/3 315/1/3
f 319/1/3 318/1/3 317/1/3
f 320/1/3 318/1/3 319/1/3
f 321/3/3 320/3/3 319/3/3
f 322/1/3 318/1/3 320/1/3
f 322/3/3 320/3/3 321/3/3
f 324/1/3 322/1/3 321/1/3
f 325/1/3 318/1/3 322/1/3
f 325/1/3 322/1/3 324/1/3
f 327/4/3 324/4/3 323/4/3
f 328/4/3 324/4/3 327/4/3
f 329/4/3 326/4/3 325/4/3
f 330/4/3 326/4/3 329/4/3
f 335/4/3 332/4/3 331/4/3
f 336/4/3 332/4/3 335/4/3
f 338/4/3 334/4/3 333/4/3
f 339/4/3 334/4/3 338/4/3
f 340/1/3 338/1/3 337/1/3
f 341/1/3 338/1/3 340/1/3
f 342/3/3 339/3/3 338/3/3
f 342/1/3 338/1/3 341/1/3
f 343/3/3 342/3/3 341/3/3
f 344/3/3 339/3/3 342/3/3
f 344/3/3 342/3/3 343/3/3
f 345/1/3 344/1/3 343/1/3
f 346/1/3 344/1/3 345/1/3
f 347/2/3 346/2/3 345/2/3
f 348/1/3 344/1/3 346/1/3
f 348/2/3 346/2/3 347/2/3
f 349/1/3 344/1/3 348/1/3
f 350/1/3 348/1/3 347/1/3
f 351/2/3 349/2/3 348/2/3
f 351/1/3 348/1/3 350/1/3
f 352/2/3 349/2/3 351/2/3
f 355/1/3 351/1/3 350/1/3
f 355/1/3 352/1/3 351/1/3
f 356/1/3 352/1/3 355/1/3
f 357/1/3 352/1/3 356/1/3
f 358/4/3 354/4/3 353/4/3
f 359/4/3 354/4/3 358/4/3
f 360/4/3 357/4/3 356/4/3
f 361/4/3 357/4/3 360/4/3
f 366/4/3 363/4/3 362/4/3
f 367/4/3 363/4/3 366/4/3
f 368/4/3 365/4/3 364/4/3
f 369/4/3 365/4/3 368/4/3
f 370/4/3 365/4/3 369/4/3
f 371/1/3 369/1/3 368/1/3
f 372/1/3 369/1/3 371/1/3
f 373/1/3 369/1/3 372/1/3
f 374/3/3 373/3/3 372/3/3
f 375/3/3 373/3/3 374/3/3
f 376/2/3 375/2/3 374/2/3
f 377/2/3 375/2/3 376/2/3
f 380/1/3 377/1/3 376/1/3
f 381/1/3 377/1/3 380/1/3
f 383/4/3 379/4/3 378/4/3
f 384/4/3 379/4/3 383/4/3
f 385/4/3 381/4/3 380/4/3
f 385/4/3 382/4/3 381/4/3
f 386/4/3 382/4/3 385/4/3
f 390/4/3 388/4/3 387/4/3
f 391/4/3 388/4/3 390/4/3
f 392/1/3 390/1/3 389/1/3
f 393/1/3 390/1/3 392/1/3
f 394/3/3 393/3/3 392/3/3
f 395/3/3 393/3/3 394/3/3
f 396/3/3 393/3/3 395/3/3
f 397/1/3 396/1/3 395/1/3
f 398/1/3 396/1/3 397/1/3
f 399/3/3 398/3/3 397/3/3
f 400/3/3 398/3/3 399/3/3
f 401/3/3 398/3/3 400/3/3
f 402/3/3 398/3/3 401/3/3
f 403/1/3 402/1/3 401/1/3
f 404/1/3 402/1/3 403/1/3
f 406/4/3 405/4/3 404/4/3
f 407/4/3 405/4/3 406/4/3
f 411/4/3 409/4/3 408/4/3
f 412/4/3 409/4/3 411/4/3
f 413/1/3 411/1/3 410/1/3
f 414/1/3 411/1/3 413/1/3
f 415/1/3 411/1/3 414/1/3
f 416/1/3 411/1/3 415/1/3
f 417/1/3 411/1/3 416/1/3
f 418/1/3 411/1/3 417/1/3
f 420/4/3 419/4/3 418/4/3
f 421/4/3 419/4/3 420/4/3
f 424/4/3 423/4/3 422/4/3
f 425/4/3 423/4/3 424/4/3
f 428/4/3 427/4/3 426/4/3
f 429/4/3 427/4/3 428/4/3
f 430/4/4 431/4/4 432/4/4
f 432/4/4 431/4/4 433/4/4
f 434/4/4 435/4/4 436/4/4
f 436/4/4 435/4/4 437/4/4
f 438/4/4 439/4/4 440/4/4
f 440/4/4 439/4/4 441/4/4
f 442/4/4 443/4/4 444/4/4
f 444/4/4 443/4/4 445/4/4
f 446/4/4 447/4/4 450/4/4
f 450/4/4 447/4/4 451/4/4
f 448/4/4 449/4/4 452/4/4
f 452/4/4 449/4/4 453/4/4
f 454/4/4 455/4/4 458/4/4
f 458/4/4 455/4/4 459/4/4
f 456/4/4 457/4/4 460/4/4
f 460/4/4 457/4/4 461/4/4
f 462/1/4 463/1/4 464/1/4
f 464/1/4 463/1/4 465/1/4
f 464/3/4 465/3/4 466/3/4
f 466/3/4 465/3/4 467/3/4
f 466/1/4 467/1/4 468/1/4
f 468/1/4 467/1/4 469/1/4
f 470/4/4 471/4/4 472/4/4
f 472/4/4 471/4/4 473/4/4
f 474/4/4 475/4/4 476/4/4
f 476/4/4 475/4/4 477/4/4
f 478/4/4 479/4/4 480/4/4
f 480/4/4 479/4/4 481/4/4
f 482/4/4 483/4/4 484/4/4
f 484/4/4 483/4/4 485/4/4
f 486/4/4 487/4/4 490/4/4
f 490/4/4 487/4/4 491/4/4
f 488/1/4 489/1/4 492/1/4
f 492/1/4 489/1/4 493/1/4
f 494/4/4 495/4/4 496/4/4
f 496/4/4 495/4/4 497/4/4
f 498/3/4 499/3/4 501/3/4
f 499/1/4 500/1/4 501/1/4
f 501/1/4 500/1/4 502/1/4
f 501/3/4 502/3/4 503/3/4
f 501/3/4 503/3/4 504/3/4
f 498/3/4 501/3/4 505/3/4
f 501/3/4 504/3/4 505/3/4
f 505/3/4 504/3/4 506/3/4
f 506/3/4 504/3/4 507/3/4
f 506/3/4 507/3/4 508/3/4
f 505/1/4 506/1/4 509/1/4
f 506/3/4 508/3/4 509/3/4
f 509/3/4 508/3/4 510/3/4
f 505/1/4 509/1/4 511/1/4
f 509/1/4 510/1/4 511/1/4
f 511/1/4 510/1/4 512/1/4
f 511/3/4 512/3/4 513/3/4
f 512/1/4 510/1/4 514/1/4
f 513/3/4 512/3/4 514/3/4
f 513/1/4 514/1/4 515/1/4
f 514/1/4 510/1/4 516/1/4
f 515/1/4 514/1/4 516/1/4
f 517/4/4 518/4/4 519/4/4
f 519/4/4 518/4/4 520/4/4
f 520/4/4 518/4/4 521/4/4
f 521/4/4 518/4/4 522/4/4
f 520/1/4 521/1/4 523/1/4
f 521/3/4 522/3/4 524/3/4
f 523/1/4 521/1/4 524/1/4
f 523/3/4 524/3/4 525/3/4
f 524/3/4 522/3/4 526/3/4
f 525/3/4 524/3/4 526/3/4
f 525/1/4 526/1/4 527/1/4
f 525/1/4 527/1/4 528/1/4
f 528/1/4 527/1/4 529/1/4
f 528/2/4 529/2/4 530/2/4
f 529/1/4 527/1/4 531/1/4
f 530/2/4 529/2/4 531/2/4
f 531/1/4 527/1/4 532/1/4
f 530/1/4 531/1/4 533/1/4
f 531/2/4 532/2/4 533/2/4
f 533/2/4 532/2/4 534/2/4
f 530/1/4 533/1/4 536/1/4
f 533/1/4 534/1/4 536/1/4
f 536/1/4 534/1/4 537/1/4
f 535/4/4 536/4/4 538/4/4
f 536/4/4 537/4/4 538/4/4
f 538/4/4 537/4/4 539/4/4
f 540/4/4 541/4/4 544/4/4
f 544/4/4 541/4/4 545/4/4
f 542/4/4 543/4/4 546/4/4
f 546/4/4 543/4/4 547/4/4
f 546/1/4 547/1/4 548/1/4
f 546/1/4 548/1/4 549/1/4
f 549/1/4 548/1/4 550/1/4
f 549/3/4 550/3/4 551/3/4
f 549/3/4 551/3/4 552/3/4
f 549/3/4 552/3/4 553/3/4
f 553/3/4 552/3/4 554/3/4
f 553/2/4 554/2/4 555/2/4
f 555/2/4 554/2/4 556/2/4
f 555/1/4 556/1/4 557/1/4
f 555/1/4 557/1/4 560/1/4
f 560/1/4 557/1/4 561/1/4
f 558/4/4 559/4/4 562/4/4
f 562/4/4 559/4/4 563/4/4
f 560/4/4 561/4/4 564/4/4
f 564/4/4 561/4/4 565/4/4
f 566/4/4 567/4/4 570/4/4
f 570/4/4 567/4/4 571/4/4
f 568/4/4 569/4/4 572/4/4
f 572/4/4 569/4/4 573/4/4
f 572/1/4 573/1/4 574/1/4
f 574/1/4 573/1/4 575/1/4
f 574/3/4 575/3/4 576/3/4
f 576/3/4 575/3/4 577/3/4
f 576/1/4 577/1/4 578/1/4
f 578/1/4 577/1/4 579/1/4
f 578/3/4 579/3/4 580/3/4
f 580/3/4 579/3/4 581/3/4
f 580/1/4 581/1/4 584/1/4
f 584/1/4 581/1/4 585/1/4
f 582/4/4 583/4/4 586/4/4
f 586/4/4 583/4/4 587/4/4
f 584/4/4 585/4/4 588/4/4
f 588/4/4 585/4/4 589/4/4
f 590/1/4 591/1/4 592/1/4
f 592/1/4 591/1/4 593/1/4
f 594/4/4 595/4/4 596/4/4
f 596/4/4 595/4/4 597/4/4
f 598/4/4 599/4/4 600/4/4
f 600/4/4 599/4/4 601/4/4
f 606/4/5 603/4/5 602/4/5
f 607/4/5 603/4/5 606/4/5
f 608/4/5 605/4/5 604/4/5
f 609/4/5 605/4/5 608/4/5
f 614/4/5 611/4/5 610/4/5
f 615/4/5 611/4/5 614/4/5
f 616/4/5 613/4/5 612/4/5
f 617/4/5 613/4/5 616/4/5
f 622/4/5 619/4/5 618/4/5
f 623/4/5 619/4/5 622/4/5
f 624/4/5 621/4/5 620/4/5
f 625/4/5 621/4/5 624/4/5
f 630/4/5 627/4/5 626/4/5
f 631/4/5 627/4/5 630/4/5
f 632/4/5 629/4/5 628/4/5
f 633/4/5 629/4/5 632/4/5
f 638/4/5 635/4/5 634/4/5
f 639/4/5 635/4/5 638/4/5
f 640/4/5 637/4/5 636/4/5
f 641/4/5 637/4/5 640/4/5
f 644/4/5 643/4/5 642/4/5
f 645/4/5 643/4/5 644/4/5
f 656/1/5 648/1/5 647/1/5
f 656/3/5 649/3/5 648/3/5
f 657/1/5 650/1/5 649/1/5
f 657/3/5 649/3/5 656/3/5
f 658/3/5 651/3/5 650/3/5
f 658/1/5 650/1/5 657/1/5
f 659/1/5 652/1/5 651/1/5
f 659/3/5 651/3/5 658/3/5
f 660/3/5 653/3/5 652/3/5
f 660/1/5 652/1/5 659/1/5
f 661/1/5 654/1/5 653/1/5
f 661/3/5 653/3/5 660/3/5
f 662/4/5 647/4/5 646/4/5
f 662/1/5 656/1/5 647/1/5
f 662/1/5 657/1/5 656/1/5
f 662/1/5 659/1/5 658/1/5
f 662/1/5 658/1/5 657/1/5
f 663/3/5 660/3/5 659/3/5
f 663/1/5 659/1/5 662/1/5
f 664/1/5 661/1/5 660/1/5
f 664/3/5 660/3/5 663/3/5
f 665/1/5 654/1/5 661/1/5
f 665/1/5 661/1/5 664/1/5
f 665/4/5 655/4/5 654/4/5
f 666/4/5 662/4/5 646/4/5
f 669/4/5 655/4/5 665/4/5
f 670/3/5 668/3/5 667/3/5
f 670/1/5 667/1/5 666/1/5
f 671/1/5 669/1/5 668/1/5
f 671/3/5 668/3/5 670/3/5
f 672/1/5 670/1/5 666/1/5
f 672/4/5 666/4/5 646/4/5
f 672/1/5 671/1/5 670/1/5
f 673/1/5 669/1/5 671/1/5
f 673/1/5 671/1/5 672/1/5
f 673/4/5 655/4/5 669/4/5
f 674/4/5 672/4/5 646/4/5
f 678/4/5 655/4/5 673/4/5
f 679/4/5 655/4/5 678/4/5
f 680/4/5 674/4/5 646/4/5
f 681/3/5 675/3/5 674/3/5
f 681/4/5 674/4/5 680/4/5
f 682/1/5 676/1/5 675/1/5
f 682/3/5 675/3/5 681/3/5
f 683/3/5 677/3/5 676/3/5
f 683/1/5 676/1/5 682/1/5
f 684/1/5 678/1/5 677/1/5
f 684/3/5 677/3/5 683/3/5
f 685/1/5 678/1/5 684/1/5
f 690/4/5 687/4/5 686/4/5
f 691/4/5 687/4/5 690/4/5
f 692/4/5 689/4/5 688/4/5
f 693/4/5 689/4/5 692/4/5
f 702/1/5 695/1/5 694/1/5
f 702/1/5 696/1/5 695/1/5
f 703/3/5 697/3/5 696/3/5
f 703/1/5 696/1/5 702/1/5
f 704/1/5 698/1/5 697/1/5
f 704/3/5 697/3/5 703/3/5
f 705/2/5 699/2/5 698/2/5
f 705/1/5 698/1/5 704/1/5
f 706/1/5 701/1/5 700/1/5
f 706/2/5 699/2/5 705/2/5
f 706/1/5 700/1/5 699/1/5
f 707/1/5 701/1/5 706/1/5
f 712/4/5 709/4/5 708/4/5
f 713/4/5 709/4/5 712/4/5
f 714/4/5 711/4/5 710/4/5
f 715/4/5 711/4/5 714/4/5
f 724/4/5 717/4/5 716/4/5
f 725/1/5 718/1/5 717/1/5
f 725/4/5 717/4/5 724/4/5
f 725/1/5 719/1/5 718/1/5
f 726/3/5 720/3/5 719/3/5
f 726/1/5 719/1/5 725/1/5
f 727/2/5 721/2/5 720/2/5
f 727/3/5 720/3/5 726/3/5
f 728/1/5 722/1/5 721/1/5
f 728/2/5 721/2/5 727/2/5
f 729/4/5 723/4/5 722/4/5
f 729/1/5 722/1/5 728/1/5
f 730/4/5 723/4/5 729/4/5
f 742/4/5 732/4/5 731/4/5
f 743/1/5 733/1/5 732/1/5
f 743/4/5 732/4/5 742/4/5
f 744/3/5 734/3/5 733/3/5
f 744/1/5 733/1/5 743/1/5
f 744/3/5 735/3/5 734/3/5
f 745/1/5 736/1/5 735/1/5
f 745/3/5 735/3/5 744/3/5
f 746/3/5 737/3/5 736/3/5
f 746/1/5 736/1/5 745/1/5
f 746/3/5 738/3/5 737/3/5
f 746/3/5 739/3/5 738/3/5
f 747/1/5 740/1/5 739/1/5
f 747/3/5 739/3/5 746/3/5
f 748/4/5 741/4/5 740/4/5
f 748/1/5 740/1/5 747/1/5
f 749/4/5 741/4/5 748/4/5
f 754/4/5 751/4/5 750/4/5
f 755/4/5 751/4/5 754/4/5
f 756/4/5 753/4/5 752/4/5
f 757/4/5 753/4/5 756/4/5
f 766/4/5 759/4/5 758/4/5
f 767/1/5 760/1/5 759/1/5
f 767/4/5 759/4/5 766/4/5
f 767/1/5 761/1/5 760/1/5
f 767/1/5 764/1/5 763/1/5
f 767/1/5 763/1/5 762/1/5
f 767/1/5 762/1/5 761/1/5
f 768/4/5 765/4/5 764/4/5
f 768/1/5 764/1/5 767/1/5
f 769/4/5 765/4/5 768/4/5
f 770/4/6 771/4/6 774/4/6
f 774/4/6 771/4/6 775/4/6
f 772/4/6 773/4/6 776/4/6
f 776/4/6 773/4/6 777/4/6
f 778/4/6 779/4/6 782/4/6
f 782/4/6 779/4/6 783/4/6
f 780/4/6 781/4/6 784/4/6
f 784/4/6 781/4/6 785/4/6
f 786/4/6 787/4/6 790/4/6
f 790/4/6 787/4/6 791/4/6
f 788/4/6 789/4/6 792/4/6
f 792/4/6 789/4/6 793/4/6
f 794/4/6 795/4/6 798/4/6
f 798/4/6 795/4/6 799/4/6
f 796/4/6 797/4/6 800/4/6
f 800/4/6 797/4/6 801/4/6
f 802/4/6 803/4/6 806/4/6
f 806/4/6 803/4/6 807/4/6
f 804/4/6 805/4/6 808/4/6
f 808/4/6 805/4/6 809/4/6
f 810/1/6 811/1/6 819/1/6
f 811/3/6 812/3/6 820/3/6
f 819/1/6 811/1/6 820/1/6
f 812/1/6 813/1/6 821/1/6
f 820/3/6 812/3/6 821/3/6
f 813/3/6 814/3/6 822/3/6
f 821/1/6 813/1/6 822/1/6
f 814/1/6 815/1/6 823/1/6
f 822/3/6 814/3/6 823/3/6
f 815/3/6 816/3/6 824/3/6
f 823/1/6 815/1/6 824/1/6
f 816/1/6 817/1/6 825/1/6
f 824/3/6 816/3/6 825/3/6
f 825/1/6 817/1/6 826/1/6
f 818/4/6 819/4/6 828/4/6
f 819/1/6 820/1/6 829/1/6
f 828/4/6 819/4/6 829/4/6
f 820/1/6 821/1/6 829/1/6
f 821/1/6 822/1/6 829/1/6
f 822/1/6 823/1/6 829/1/6
f 823/3/6 824/3/6 830/3/6
f 829/1/6 823/1/6 830/1/6
f 825/1/6 826/1/6 831/1/6
f 830/3/6 824/3/6 831/3/6
f 824/1/6 825/1/6 831/1/6
f 826/4/6 827/4/6 832/4/6
f 831/1/6 826/1/6 832/1/6
f 832/4/6 827/4/6 833/4/6
f 835/1/6 836/1/6 840/1/6
f 836/3/6 837/3/6 840/3/6
f 837/1/6 838/1/6 841/1/6
f 840/3/6 837/3/6 841/3/6
f 834/4/6 835/4/6 842/4/6
f 835/1/6 840/1/6 843/1/6
f 842/4/6 835/4/6 843/4/6
f 840/1/6 841/1/6 843/1/6
f 841/1/6 838/1/6 844/1/6
f 843/1/6 841/1/6 844/1/6
f 838/4/6 839/4/6 844/4/6
f 844/4/6 839/4/6 845/4/6
f 846/4/6 847/4/6 850/4/6
f 850/4/6 847/4/6 851/4/6
f 848/4/6 849/4/6 852/4/6
f 852/4/6 849/4/6 853/4/6
f 854/4/6 855/4/6 858/4/6
f 858/4/6 855/4/6 859/4/6
f 856/4/6 857/4/6 862/4/6
f 862/4/6 857/4/6 863/4/6
f 859/1/6 860/1/6 864/1/6
f 860/3/6 861/3/6 865/3/6
f 864/1/6 860/1/6 865/1/6
f 865/3/6 861/3/6 866/3/6
f 866/3/6 861/3/6 867/3/6
f 867/3/6 861/3/6 868/3/6
f 868/3/6 861/3/6 869/3/6
f 861/1/6 862/1/6 870/1/6
f 869/3/6 861/3/6 870/3/6
f 870/1/6 862/1/6 871/1/6
f 872/4/6 873/4/6 876/4/6
f 876/4/6 873/4/6 877/4/6
f 874/4/6 875/4/6 878/4/6
f 878/4/6 875/4/6 879/4/6
f 880/4/6 881/4/6 884/4/6
f 884/4/6 881/4/6 885/4/6
f 882/4/6 883/4/6 886/4/6
f 886/4/6 883/4/6 887/4/6
f 888/4/6 889/4/6 892/4/6
f 892/4/6 889/4/6 893/4/6
f 890/4/6 891/4/6 894/4/6
f 894/4/6 891/4/6 895/4/6
f 896/4/6 897/4/6 900/4/6
f 900/4/6 897/4/6 901/4/6
f 898/4/6 899/4/6 902/4/6
f 902/4/6 899/4/6 903/4/6
f 904/4/6 905/4/6 911/4/6
f 905/3/6 906/3/6 912/3/6
f 911/4/6 905/4/6 912/4/6
f 906/1/6 907/1/6 913/1/6
f 912/3/6 906/3/6 913/3/6
f 913/1/6 907/1/6 914/1/6
f 907/2/6 908/2/6 915/2/6
f 914/1/6 907/1/6 915/1/6
f 908/1/6 909/1/6 916/1/6
f 915/2/6 908/2/6 916/2/6
f 909/4/6 910/4/6 917/4/6
f 916/1/6 909/1/6 917/1/6
f 917/4/6 910/4/6 918/4/6
f 919/1/6 920/1/6 924/1/6
f 924/1/6 920/1/6 925/1/6
f 920/3/6 921/3/6 926/3/6
f 925/1/6 920/1/6 926/1/6
f 926/3/6 921/3/6 927/3/6
f 927/3/6 921/3/6 928/3/6
f 921/2/6 922/2/6 929/2/6
f 928/3/6 921/3/6 929/3/6
f 922/1/6 923/1/6 930/1/6
f 929/2/6 922/2/6 930/2/6
f 930/1/6 923/1/6 931/1/6
f 931/1/6 923/1/6 932/1/6
f 933/4/6 934/4/6 937/4/6
f 937/4/6 934/4/6 938/4/6
f 935/4/6 936/4/6 943/4/6
f 943/4/6 936/4/6 944/4/6
f 938/1/6 939/1/6 945/1/6
f 939/3/6 940/3/6 946/3/6
f 945/1/6 939/1/6 946/1/6
f 940/1/6 941/1/6 947/1/6
f 946/3/6 940/3/6 947/3/6
f 941/3/6 942/3/6 948/3/6
f 947/1/6 941/1/6 948/1/6
f 942/1/6 943/1/6 949/1/6
f 948/3/6 942/3/6 949/3/6
f 949/1/6 943/1/6 950/1/6
f 951/4/6 952/4/6 955/4/6
f 955/4/6 952/4/6 956/4/6
f 953/4/6 954/4/6 957/4/6
f 957/4/6 954/4/6 958/4/6
f 956/1/6 957/1/6 959/1/6
f 959/1/6 957/1/6 960/1/6
f 961/4/6 962/4/6 965/4/6
f 965/4/6 962/4/6 966/4/6
f 963/4/6 964/4/6 967/4/6
f 967/4/6 964/4/6 968/4/6
